<?xml version="1.0" encoding="UTF-8" standalone="no"?>
<!DOCTYPE svg PUBLIC "-//W3C//DTD SVG 1.1//EN"
 "http://www.w3.org/Graphics/SVG/1.1/DTD/svg11.dtd">
<!-- Generated by graphviz version 2.43.0 (0)
 -->
<!-- Title: TEST Pages: 1 -->
<svg width="462pt" height="181pt"
 viewBox="0.00 0.00 462.00 180.50" xmlns="http://www.w3.org/2000/svg" xmlns:xlink="http://www.w3.org/1999/xlink">
<g id="graph0" class="graph" transform="scale(1 1) rotate(0) translate(4 176.5)">
<title>TEST</title>
<!-- Node1 -->
<g id="node1" class="node">
<title>Node1</title>
<g id="a_node1"><a xlink:title=" ">
<polygon fill="#999999" stroke="#666666" points="41,-98.5 0,-98.5 0,-79.5 41,-79.5 41,-98.5"/>
<text text-anchor="middle" x="20.5" y="-86.5" font-family="Helvetica,sans-Serif" font-size="10.00">TEST</text>
</a>
</g>
</g>
<!-- Node2 -->
<g id="node2" class="node">
<title>Node2</title>
<g id="a_node2"><a xlink:href="../../d4/de2/classTWeaponHolder.html#a1c57748293f9f082f1598c51b288de34" target="_top" xlink:title=" ">
<polygon fill="white" stroke="#666666" points="253,-172.5 77,-172.5 77,-153.5 253,-153.5 253,-172.5"/>
<text text-anchor="middle" x="165" y="-160.5" font-family="Helvetica,sans-Serif" font-size="10.00">TWeaponHolder::GetGunByPlace</text>
</a>
</g>
</g>
<!-- Node1&#45;&gt;Node2 -->
<g id="edge1" class="edge">
<title>Node1&#45;&gt;Node2</title>
<path fill="none" stroke="#63b8ff" d="M28.17,-98.62C37.53,-111.35 55.82,-133.51 77,-145 80.31,-146.8 83.79,-148.41 87.36,-149.87"/>
<polygon fill="#63b8ff" stroke="#63b8ff" points="86.41,-153.25 97.01,-153.36 88.8,-146.67 86.41,-153.25"/>
</g>
<!-- Node3 -->
<g id="node3" class="node">
<title>Node3</title>
<g id="a_node3"><a xlink:href="../../d1/d3d/classTWeapon.html#a552b334667ca95387af82df662334f72" target="_top" xlink:title=" ">
<polygon fill="white" stroke="#666666" points="232,-135.5 98,-135.5 98,-116.5 232,-116.5 232,-135.5"/>
<text text-anchor="middle" x="165" y="-123.5" font-family="Helvetica,sans-Serif" font-size="10.00">TWeapon::GetShotsNow</text>
</a>
</g>
</g>
<!-- Node1&#45;&gt;Node3 -->
<g id="edge2" class="edge">
<title>Node1&#45;&gt;Node3</title>
<path fill="none" stroke="#63b8ff" d="M41.09,-96.38C51.63,-100.18 64.92,-104.7 77,-108 85.13,-110.22 93.75,-112.32 102.28,-114.23"/>
<polygon fill="#63b8ff" stroke="#63b8ff" points="101.7,-117.69 112.22,-116.4 103.2,-110.85 101.7,-117.69"/>
</g>
<!-- Node4 -->
<g id="node4" class="node">
<title>Node4</title>
<g id="a_node4"><a xlink:href="../../d1/d3d/classTWeapon.html#a2bf519e492f0236067ee217b618483e8" target="_top" xlink:title=" ">
<polygon fill="white" stroke="#666666" points="223,-98.5 107,-98.5 107,-79.5 223,-79.5 223,-98.5"/>
<text text-anchor="middle" x="165" y="-86.5" font-family="Helvetica,sans-Serif" font-size="10.00">TWeapon::MakeShot</text>
</a>
</g>
</g>
<!-- Node1&#45;&gt;Node4 -->
<g id="edge3" class="edge">
<title>Node1&#45;&gt;Node4</title>
<path fill="none" stroke="#63b8ff" d="M41.02,-89C55.56,-89 76.34,-89 96.69,-89"/>
<polygon fill="#63b8ff" stroke="#63b8ff" points="96.93,-92.5 106.93,-89 96.93,-85.5 96.93,-92.5"/>
</g>
<!-- Node5 -->
<g id="node5" class="node">
<title>Node5</title>
<g id="a_node5"><a xlink:href="../../d4/de2/classTWeaponHolder.html#a766a97ee820575ba76a8792b9a2b2824" target="_top" xlink:title=" ">
<polygon fill="white" stroke="#666666" points="241,-61.5 89,-61.5 89,-42.5 241,-42.5 241,-61.5"/>
<text text-anchor="middle" x="165" y="-49.5" font-family="Helvetica,sans-Serif" font-size="10.00">TWeaponHolder::SameGuns</text>
</a>
</g>
</g>
<!-- Node1&#45;&gt;Node5 -->
<g id="edge4" class="edge">
<title>Node1&#45;&gt;Node5</title>
<path fill="none" stroke="#63b8ff" d="M41.14,-82.11C51.69,-78.54 64.97,-74.25 77,-71 86.51,-68.43 96.68,-65.95 106.59,-63.7"/>
<polygon fill="#63b8ff" stroke="#63b8ff" points="107.39,-67.11 116.38,-61.51 105.86,-60.27 107.39,-67.11"/>
</g>
<!-- Node6 -->
<g id="node6" class="node">
<title>Node6</title>
<g id="a_node6"><a xlink:href="../../d4/de2/classTWeaponHolder.html#a406848fe7546ce72723653687232701a" target="_top" xlink:title=" ">
<polygon fill="white" stroke="#666666" points="252,-24.5 78,-24.5 78,-5.5 252,-5.5 252,-24.5"/>
<text text-anchor="middle" x="165" y="-12.5" font-family="Helvetica,sans-Serif" font-size="10.00">TWeaponHolder::SetGunByPlace</text>
</a>
</g>
</g>
<!-- Node1&#45;&gt;Node6 -->
<g id="edge5" class="edge">
<title>Node1&#45;&gt;Node6</title>
<path fill="none" stroke="#63b8ff" d="M28.55,-79.16C38.08,-66.63 56.26,-45.27 77,-34 81.27,-31.68 85.81,-29.64 90.48,-27.85"/>
<polygon fill="#63b8ff" stroke="#63b8ff" points="91.9,-31.06 100.22,-24.51 89.63,-24.44 91.9,-31.06"/>
</g>
<!-- Node7 -->
<g id="node7" class="node">
<title>Node7</title>
<g id="a_node7"><a xlink:href="../../d4/de2/classTWeaponHolder.html#afe77ebf75c23b7d4dd8229d12a8369a0" target="_top" xlink:title=" ">
<polygon fill="white" stroke="#666666" points="454,-30 289,-30 289,0 454,0 454,-30"/>
<text text-anchor="start" x="297" y="-18" font-family="Helvetica,sans-Serif" font-size="10.00">TWeaponHolder::createUnique</text>
<text text-anchor="middle" x="371.5" y="-7" font-family="Helvetica,sans-Serif" font-size="10.00">PtrByGunPtr</text>
</a>
</g>
</g>
<!-- Node6&#45;&gt;Node7 -->
<g id="edge6" class="edge">
<title>Node6&#45;&gt;Node7</title>
<path fill="none" stroke="#63b8ff" d="M252.13,-15C260.84,-15 269.71,-15 278.48,-15"/>
<polygon fill="#63b8ff" stroke="#63b8ff" points="278.71,-18.5 288.71,-15 278.71,-11.5 278.71,-18.5"/>
</g>
</g>
</svg>
