<?xml version="1.0" encoding="UTF-8" standalone="no"?>
<!DOCTYPE svg PUBLIC "-//W3C//DTD SVG 1.1//EN"
 "http://www.w3.org/Graphics/SVG/1.1/DTD/svg11.dtd">
<!-- Generated by graphviz version 2.43.0 (0)
 -->
<!-- Title: TEST Pages: 1 -->
<svg width="261pt" height="101pt"
 viewBox="0.00 0.00 261.00 101.00" xmlns="http://www.w3.org/2000/svg" xmlns:xlink="http://www.w3.org/1999/xlink">
<g id="graph0" class="graph" transform="scale(1 1) rotate(0) translate(4 97)">
<title>TEST</title>
<!-- Node1 -->
<g id="node1" class="node">
<title>Node1</title>
<g id="a_node1"><a xlink:title=" ">
<polygon fill="#999999" stroke="#666666" points="41,-56 0,-56 0,-37 41,-37 41,-56"/>
<text text-anchor="middle" x="20.5" y="-44" font-family="Helvetica,sans-Serif" font-size="10.00">TEST</text>
</a>
</g>
</g>
<!-- Node2 -->
<g id="node2" class="node">
<title>Node2</title>
<g id="a_node2"><a xlink:href="../../d4/de2/classTWeaponHolder.html#a1c57748293f9f082f1598c51b288de34" target="_top" xlink:title=" ">
<polygon fill="white" stroke="#666666" points="253,-93 77,-93 77,-74 253,-74 253,-93"/>
<text text-anchor="middle" x="165" y="-81" font-family="Helvetica,sans-Serif" font-size="10.00">TWeaponHolder::GetGunByPlace</text>
</a>
</g>
</g>
<!-- Node1&#45;&gt;Node2 -->
<g id="edge1" class="edge">
<title>Node1&#45;&gt;Node2</title>
<path fill="none" stroke="#63b8ff" d="M41.09,-53.88C51.63,-57.68 64.92,-62.2 77,-65.5 85.13,-67.72 93.75,-69.82 102.28,-71.73"/>
<polygon fill="#63b8ff" stroke="#63b8ff" points="101.7,-75.19 112.22,-73.9 103.2,-68.35 101.7,-75.19"/>
</g>
<!-- Node3 -->
<g id="node3" class="node">
<title>Node3</title>
<g id="a_node3"><a xlink:href="../../d1/d3d/classTWeapon.html#a552b334667ca95387af82df662334f72" target="_top" xlink:title=" ">
<polygon fill="white" stroke="#666666" points="232,-56 98,-56 98,-37 232,-37 232,-56"/>
<text text-anchor="middle" x="165" y="-44" font-family="Helvetica,sans-Serif" font-size="10.00">TWeapon::GetShotsNow</text>
</a>
</g>
</g>
<!-- Node1&#45;&gt;Node3 -->
<g id="edge2" class="edge">
<title>Node1&#45;&gt;Node3</title>
<path fill="none" stroke="#63b8ff" d="M41.02,-46.5C53.38,-46.5 70.25,-46.5 87.53,-46.5"/>
<polygon fill="#63b8ff" stroke="#63b8ff" points="87.72,-50 97.72,-46.5 87.72,-43 87.72,-50"/>
</g>
<!-- Node4 -->
<g id="node4" class="node">
<title>Node4</title>
<g id="a_node4"><a xlink:href="../../d1/d3d/classTWeapon.html#a2bf519e492f0236067ee217b618483e8" target="_top" xlink:title=" ">
<polygon fill="white" stroke="#666666" points="223,-19 107,-19 107,0 223,0 223,-19"/>
<text text-anchor="middle" x="165" y="-7" font-family="Helvetica,sans-Serif" font-size="10.00">TWeapon::MakeShot</text>
</a>
</g>
</g>
<!-- Node1&#45;&gt;Node4 -->
<g id="edge3" class="edge">
<title>Node1&#45;&gt;Node4</title>
<path fill="none" stroke="#63b8ff" d="M41.14,-39.61C51.69,-36.04 64.97,-31.75 77,-28.5 86.51,-25.93 96.68,-23.45 106.59,-21.2"/>
<polygon fill="#63b8ff" stroke="#63b8ff" points="107.39,-24.61 116.38,-19.01 105.86,-17.77 107.39,-24.61"/>
</g>
</g>
</svg>
