<?xml version="1.0" encoding="UTF-8" standalone="no"?>
<!DOCTYPE svg PUBLIC "-//W3C//DTD SVG 1.1//EN"
 "http://www.w3.org/Graphics/SVG/1.1/DTD/svg11.dtd">
<!-- Generated by graphviz version 2.43.0 (0)
 -->
<!-- Title: ships/tests/TestTShip.cpp Pages: 1 -->
<svg width="394pt" height="203pt"
 viewBox="0.00 0.00 394.00 203.00" xmlns="http://www.w3.org/2000/svg" xmlns:xlink="http://www.w3.org/1999/xlink">
<g id="graph0" class="graph" transform="scale(1 1) rotate(0) translate(4 199)">
<title>ships/tests/TestTShip.cpp</title>
<!-- Node1 -->
<g id="node1" class="node">
<title>Node1</title>
<g id="a_node1"><a xlink:title=" ">
<polygon fill="#999999" stroke="#666666" points="158.5,-195 19.5,-195 19.5,-176 158.5,-176 158.5,-195"/>
<text text-anchor="middle" x="89" y="-183" font-family="Helvetica,sans-Serif" font-size="10.00">ships/tests/TestTShip.cpp</text>
</a>
</g>
</g>
<!-- Node2 -->
<g id="node2" class="node">
<title>Node2</title>
<g id="a_node2"><a xlink:title=" ">
<polygon fill="#e0e0e0" stroke="#999999" points="78,-140 0,-140 0,-121 78,-121 78,-140"/>
<text text-anchor="middle" x="39" y="-128" font-family="Helvetica,sans-Serif" font-size="10.00">gtest/gtest.h</text>
</a>
</g>
</g>
<!-- Node1&#45;&gt;Node2 -->
<g id="edge1" class="edge">
<title>Node1&#45;&gt;Node2</title>
<path fill="none" stroke="#63b8ff" d="M80.74,-175.75C73.54,-168.11 62.89,-156.82 54.15,-147.56"/>
<polygon fill="#63b8ff" stroke="#63b8ff" points="56.51,-144.96 47.1,-140.09 51.42,-149.76 56.51,-144.96"/>
</g>
<!-- Node3 -->
<g id="node3" class="node">
<title>Node3</title>
<g id="a_node3"><a xlink:href="../../d0/d93/TShip_8h.html" target="_top" xlink:title=" ">
<polygon fill="white" stroke="#666666" points="184,-140 96,-140 96,-121 184,-121 184,-140"/>
<text text-anchor="middle" x="140" y="-128" font-family="Helvetica,sans-Serif" font-size="10.00">../code/TShip.h</text>
</a>
</g>
</g>
<!-- Node1&#45;&gt;Node3 -->
<g id="edge2" class="edge">
<title>Node1&#45;&gt;Node3</title>
<path fill="none" stroke="#63b8ff" d="M97.42,-175.75C104.77,-168.11 115.63,-156.82 124.54,-147.56"/>
<polygon fill="#63b8ff" stroke="#63b8ff" points="127.32,-149.72 131.74,-140.09 122.28,-144.87 127.32,-149.72"/>
</g>
<!-- Node4 -->
<g id="node4" class="node">
<title>Node4</title>
<g id="a_node4"><a xlink:title=" ">
<polygon fill="#e0e0e0" stroke="#999999" points="134,-19 90,-19 90,0 134,0 134,-19"/>
<text text-anchor="middle" x="112" y="-7" font-family="Helvetica,sans-Serif" font-size="10.00">string</text>
</a>
</g>
</g>
<!-- Node3&#45;&gt;Node4 -->
<g id="edge3" class="edge">
<title>Node3&#45;&gt;Node4</title>
<path fill="none" stroke="#63b8ff" d="M106.98,-120.87C88.82,-114.26 67.83,-103.1 57,-85 50.15,-73.56 51.26,-67.03 57,-55 63.09,-42.23 74.84,-31.94 85.92,-24.49"/>
<polygon fill="#63b8ff" stroke="#63b8ff" points="87.9,-27.38 94.54,-19.12 84.2,-21.43 87.9,-27.38"/>
</g>
<!-- Node5 -->
<g id="node5" class="node">
<title>Node5</title>
<g id="a_node5"><a xlink:title=" ">
<polygon fill="#e0e0e0" stroke="#999999" points="124,-79.5 66,-79.5 66,-60.5 124,-60.5 124,-79.5"/>
<text text-anchor="middle" x="95" y="-67.5" font-family="Helvetica,sans-Serif" font-size="10.00">memory</text>
</a>
</g>
</g>
<!-- Node3&#45;&gt;Node5 -->
<g id="edge4" class="edge">
<title>Node3&#45;&gt;Node5</title>
<path fill="none" stroke="#63b8ff" d="M133.36,-120.87C126.71,-112.23 116.31,-98.7 108.01,-87.92"/>
<polygon fill="#63b8ff" stroke="#63b8ff" points="110.54,-85.46 101.67,-79.67 104.99,-89.73 110.54,-85.46"/>
</g>
<!-- Node6 -->
<g id="node6" class="node">
<title>Node6</title>
<g id="a_node6"><a xlink:href="../../de/da2/TCapitanInfo_8h.html" target="_top" xlink:title=" ">
<polygon fill="white" stroke="#666666" points="229.5,-79.5 142.5,-79.5 142.5,-60.5 229.5,-60.5 229.5,-79.5"/>
<text text-anchor="middle" x="186" y="-67.5" font-family="Helvetica,sans-Serif" font-size="10.00">TCapitanInfo.h</text>
</a>
</g>
</g>
<!-- Node3&#45;&gt;Node6 -->
<g id="edge5" class="edge">
<title>Node3&#45;&gt;Node6</title>
<path fill="none" stroke="#63b8ff" d="M146.79,-120.87C153.65,-112.14 164.43,-98.43 172.95,-87.59"/>
<polygon fill="#63b8ff" stroke="#63b8ff" points="175.75,-89.69 179.18,-79.67 170.25,-85.36 175.75,-89.69"/>
</g>
<!-- Node7 -->
<g id="node7" class="node">
<title>Node7</title>
<g id="a_node7"><a xlink:href="../../dc/d06/TObjectOnMap_8h.html" target="_top" xlink:title=" ">
<polygon fill="white" stroke="#666666" points="386,-85 248,-85 248,-55 386,-55 386,-85"/>
<text text-anchor="start" x="256" y="-73" font-family="Helvetica,sans-Serif" font-size="10.00">../../base/code/TObjectOn</text>
<text text-anchor="middle" x="317" y="-62" font-family="Helvetica,sans-Serif" font-size="10.00">Map.h</text>
</a>
</g>
</g>
<!-- Node3&#45;&gt;Node7 -->
<g id="edge7" class="edge">
<title>Node3&#45;&gt;Node7</title>
<path fill="none" stroke="#63b8ff" d="M165.74,-120.99C191.54,-112.46 232.02,-99.09 264.61,-88.32"/>
<polygon fill="#63b8ff" stroke="#63b8ff" points="266.05,-91.53 274.45,-85.06 263.85,-84.88 266.05,-91.53"/>
</g>
<!-- Node6&#45;&gt;Node4 -->
<g id="edge6" class="edge">
<title>Node6&#45;&gt;Node4</title>
<path fill="none" stroke="#63b8ff" d="M175.08,-60.37C163.49,-51.21 144.97,-36.56 130.98,-25.51"/>
<polygon fill="#63b8ff" stroke="#63b8ff" points="132.98,-22.62 122.96,-19.17 128.64,-28.11 132.98,-22.62"/>
</g>
</g>
</svg>
