<?xml version="1.0" encoding="UTF-8" standalone="no"?>
<!DOCTYPE svg PUBLIC "-//W3C//DTD SVG 1.1//EN"
 "http://www.w3.org/Graphics/SVG/1.1/DTD/svg11.dtd">
<!-- Generated by graphviz version 2.43.0 (0)
 -->
<!-- Title: MyList&lt; T &gt;::iterator Pages: 1 -->
<svg width="202pt" height="269pt"
 viewBox="0.00 0.00 202.00 269.00" xmlns="http://www.w3.org/2000/svg" xmlns:xlink="http://www.w3.org/1999/xlink">
<g id="graph0" class="graph" transform="scale(1 1) rotate(0) translate(4 265)">
<title>MyList&lt; T &gt;::iterator</title>
<!-- Node1 -->
<g id="node1" class="node">
<title>Node1</title>
<g id="a_node1"><a xlink:title=" ">
<polygon fill="#999999" stroke="#666666" points="143,-107 0,-107 0,0 143,0 143,-107"/>
<text text-anchor="middle" x="71.5" y="-95" font-family="Helvetica,sans-Serif" font-size="10.00">{MyList&lt; T &gt;::iterator</text>
<text text-anchor="start" x="8" y="-84" font-family="Helvetica,sans-Serif" font-size="10.00">||+ &#160;iterator(Node *data)</text>
<text text-anchor="start" x="8" y="-73" font-family="Helvetica,sans-Serif" font-size="10.00">+ iterator &amp; operator++()</text>
<text text-anchor="start" x="8" y="-62" font-family="Helvetica,sans-Serif" font-size="10.00">+ T &amp; operator*() const</text>
<text text-anchor="start" x="8" y="-51" font-family="Helvetica,sans-Serif" font-size="10.00">+ bool operator!=(const</text>
<text text-anchor="start" x="8" y="-40" font-family="Helvetica,sans-Serif" font-size="10.00"> iterator &amp;other)</text>
<text text-anchor="start" x="8" y="-29" font-family="Helvetica,sans-Serif" font-size="10.00">+ bool operator==(const</text>
<text text-anchor="start" x="8" y="-18" font-family="Helvetica,sans-Serif" font-size="10.00"> iterator &amp;other)</text>
<text text-anchor="middle" x="71.5" y="-7" font-family="Helvetica,sans-Serif" font-size="10.00">}</text>
</a>
</g>
</g>
<!-- Node2 -->
<g id="node2" class="node">
<title>Node2</title>
<g id="a_node2"><a xlink:href="../../da/d27/classMyList_1_1Node.html" target="_top" xlink:title=" ">
<polygon fill="white" stroke="#666666" points="140,-261 3,-261 3,-154 140,-154 140,-261"/>
<text text-anchor="middle" x="71.5" y="-249" font-family="Helvetica,sans-Serif" font-size="10.00">{MyList&lt; T &gt;::Node</text>
<text text-anchor="start" x="11" y="-238" font-family="Helvetica,sans-Serif" font-size="10.00">|&#45; std::unique_ptr&lt; T</text>
<text text-anchor="start" x="11" y="-227" font-family="Helvetica,sans-Serif" font-size="10.00"> &gt; Data_</text>
<text text-anchor="start" x="11" y="-216" font-family="Helvetica,sans-Serif" font-size="10.00">|+ &#160;Node()</text>
<text text-anchor="start" x="11" y="-205" font-family="Helvetica,sans-Serif" font-size="10.00">+ &#160;Node(T &amp;&amp;data)</text>
<text text-anchor="start" x="11" y="-194" font-family="Helvetica,sans-Serif" font-size="10.00">+ &#160;Node(T &amp;&amp;data, Node</text>
<text text-anchor="start" x="11" y="-183" font-family="Helvetica,sans-Serif" font-size="10.00"> *next)</text>
<text text-anchor="start" x="11" y="-172" font-family="Helvetica,sans-Serif" font-size="10.00">+ T &amp; operator*() const</text>
<text text-anchor="middle" x="71.5" y="-161" font-family="Helvetica,sans-Serif" font-size="10.00">}</text>
</a>
</g>
</g>
<!-- Node2&#45;&gt;Node1 -->
<g id="edge1" class="edge">
<title>Node2&#45;&gt;Node1</title>
<path fill="none" stroke="#404040" d="M71.5,-153.76C71.5,-142.68 71.5,-130.87 71.5,-119.4"/>
<polygon fill="none" stroke="#404040" points="71.5,-119.14 67.5,-113.14 71.5,-107.14 75.5,-113.14 71.5,-119.14"/>
<text text-anchor="middle" x="89.5" y="-128" font-family="Helvetica,sans-Serif" font-size="10.00"> &#45;Data_</text>
</g>
<!-- Node2&#45;&gt;Node2 -->
<g id="edge2" class="edge">
<title>Node2&#45;&gt;Node2</title>
<path fill="none" stroke="#404040" d="M140.03,-220.56C150.71,-218.61 158,-214.25 158,-207.5 158,-203.6 155.56,-200.49 151.44,-198.19"/>
<polygon fill="none" stroke="#404040" points="151.43,-198.19 144.48,-200.11 140.03,-194.44 146.97,-192.51 151.43,-198.19"/>
<text text-anchor="middle" x="176" y="-205" font-family="Helvetica,sans-Serif" font-size="10.00"> &#45;Next_</text>
</g>
</g>
</svg>
