<?xml version="1.0" encoding="UTF-8" standalone="no"?>
<!DOCTYPE svg PUBLIC "-//W3C//DTD SVG 1.1//EN"
 "http://www.w3.org/Graphics/SVG/1.1/DTD/svg11.dtd">
<!-- Generated by graphviz version 2.43.0 (0)
 -->
<!-- Title: base/tests/TestTObjectOnMap.cpp Pages: 1 -->
<svg width="238pt" height="93pt"
 viewBox="0.00 0.00 237.50 93.00" xmlns="http://www.w3.org/2000/svg" xmlns:xlink="http://www.w3.org/1999/xlink">
<g id="graph0" class="graph" transform="scale(1 1) rotate(0) translate(4 89)">
<title>base/tests/TestTObjectOnMap.cpp</title>
<!-- Node1 -->
<g id="node1" class="node">
<title>Node1</title>
<g id="a_node1"><a xlink:title=" ">
<polygon fill="#999999" stroke="#666666" points="171,-85 31,-85 31,-55 171,-55 171,-85"/>
<text text-anchor="start" x="39" y="-73" font-family="Helvetica,sans-Serif" font-size="10.00">base/tests/TestTObjectOn</text>
<text text-anchor="middle" x="101" y="-62" font-family="Helvetica,sans-Serif" font-size="10.00">Map.cpp</text>
</a>
</g>
</g>
<!-- Node2 -->
<g id="node2" class="node">
<title>Node2</title>
<g id="a_node2"><a xlink:title=" ">
<polygon fill="#e0e0e0" stroke="#999999" points="78,-19 0,-19 0,0 78,0 78,-19"/>
<text text-anchor="middle" x="39" y="-7" font-family="Helvetica,sans-Serif" font-size="10.00">gtest/gtest.h</text>
</a>
</g>
</g>
<!-- Node1&#45;&gt;Node2 -->
<g id="edge1" class="edge">
<title>Node1&#45;&gt;Node2</title>
<path fill="none" stroke="#63b8ff" d="M85.99,-54.84C76.81,-46.17 65.05,-35.08 55.59,-26.15"/>
<polygon fill="#63b8ff" stroke="#63b8ff" points="57.97,-23.58 48.29,-19.27 53.16,-28.67 57.97,-23.58"/>
</g>
<!-- Node3 -->
<g id="node3" class="node">
<title>Node3</title>
<g id="a_node3"><a xlink:href="../../dc/d06/TObjectOnMap_8h.html" target="_top" xlink:title=" ">
<polygon fill="white" stroke="#666666" points="229.5,-19 96.5,-19 96.5,0 229.5,0 229.5,-19"/>
<text text-anchor="middle" x="163" y="-7" font-family="Helvetica,sans-Serif" font-size="10.00">../code/TObjectOnMap.h</text>
</a>
</g>
</g>
<!-- Node1&#45;&gt;Node3 -->
<g id="edge2" class="edge">
<title>Node1&#45;&gt;Node3</title>
<path fill="none" stroke="#63b8ff" d="M116.01,-54.84C125.19,-46.17 136.95,-35.08 146.41,-26.15"/>
<polygon fill="#63b8ff" stroke="#63b8ff" points="148.84,-28.67 153.71,-19.27 144.03,-23.58 148.84,-28.67"/>
</g>
</g>
</svg>
