<?xml version="1.0" encoding="UTF-8" standalone="no"?>
<!DOCTYPE svg PUBLIC "-//W3C//DTD SVG 1.1//EN"
 "http://www.w3.org/Graphics/SVG/1.1/DTD/svg11.dtd">
<!-- Generated by graphviz version 2.43.0 (0)
 -->
<!-- Title: TObjectOnMap::SetX Pages: 1 -->
<svg width="488pt" height="64pt"
 viewBox="0.00 0.00 488.00 64.00" xmlns="http://www.w3.org/2000/svg" xmlns:xlink="http://www.w3.org/1999/xlink">
<g id="graph0" class="graph" transform="scale(1 1) rotate(0) translate(4 60)">
<title>TObjectOnMap::SetX</title>
<!-- Node1 -->
<g id="node1" class="node">
<title>Node1</title>
<g id="a_node1"><a xlink:title=" ">
<polygon fill="#999999" stroke="#666666" points="480,-37 363,-37 363,-18 480,-18 480,-37"/>
<text text-anchor="middle" x="421.5" y="-25" font-family="Helvetica,sans-Serif" font-size="10.00">TObjectOnMap::SetX</text>
</a>
</g>
</g>
<!-- Node2 -->
<g id="node2" class="node">
<title>Node2</title>
<g id="a_node2"><a xlink:href="../../d2/da3/classTSpawnDescriptor.html#a2bfa0d9a8473a6dc7df369933bf892f3" target="_top" xlink:title=" ">
<polygon fill="white" stroke="#666666" points="327,-56 187,-56 187,-37 327,-37 327,-56"/>
<text text-anchor="middle" x="257" y="-44" font-family="Helvetica,sans-Serif" font-size="10.00">TSpawnDescriptor::SetXY</text>
</a>
</g>
</g>
<!-- Node1&#45;&gt;Node2 -->
<g id="edge1" class="edge">
<title>Node1&#45;&gt;Node2</title>
<path fill="none" stroke="#63b8ff" d="M352.64,-35.43C344.24,-36.42 335.66,-37.42 327.24,-38.4"/>
<polygon fill="#63b8ff" stroke="#63b8ff" points="353.23,-38.89 362.75,-34.25 352.41,-31.94 353.23,-38.89"/>
</g>
<!-- Node4 -->
<g id="node4" class="node">
<title>Node4</title>
<g id="a_node4"><a xlink:href="../../dc/d56/TestTObjectOnMap_8cpp.html#ac7a4e8261c84fcb99cb33d8cea2f716a" target="_top" xlink:title=" ">
<polygon fill="white" stroke="#666666" points="277.5,-19 236.5,-19 236.5,0 277.5,0 277.5,-19"/>
<text text-anchor="middle" x="257" y="-7" font-family="Helvetica,sans-Serif" font-size="10.00">TEST</text>
</a>
</g>
</g>
<!-- Node1&#45;&gt;Node4 -->
<g id="edge3" class="edge">
<title>Node1&#45;&gt;Node4</title>
<path fill="none" stroke="#63b8ff" d="M352.49,-19.97C325.4,-16.97 296.29,-13.74 277.65,-11.68"/>
<polygon fill="#63b8ff" stroke="#63b8ff" points="352.43,-23.48 362.75,-21.1 353.2,-16.52 352.43,-23.48"/>
</g>
<!-- Node3 -->
<g id="node3" class="node">
<title>Node3</title>
<g id="a_node3"><a xlink:href="../../de/d4e/classTPirateBase.html#a63714932dab17df6c2d1d1903c793060" target="_top" xlink:title=" ">
<polygon fill="white" stroke="#666666" points="151,-56 0,-56 0,-37 151,-37 151,-56"/>
<text text-anchor="middle" x="75.5" y="-44" font-family="Helvetica,sans-Serif" font-size="10.00">TPirateBase::SetXYInSpawn</text>
</a>
</g>
</g>
<!-- Node2&#45;&gt;Node3 -->
<g id="edge2" class="edge">
<title>Node2&#45;&gt;Node3</title>
<path fill="none" stroke="#63b8ff" d="M176.65,-46.5C168.21,-46.5 159.65,-46.5 151.27,-46.5"/>
<polygon fill="#63b8ff" stroke="#63b8ff" points="176.86,-50 186.86,-46.5 176.86,-43 176.86,-50"/>
</g>
</g>
</svg>
