<?xml version="1.0" encoding="UTF-8" standalone="no"?>
<!DOCTYPE svg PUBLIC "-//W3C//DTD SVG 1.1//EN"
 "http://www.w3.org/Graphics/SVG/1.1/DTD/svg11.dtd">
<!-- Generated by graphviz version 2.43.0 (0)
 -->
<!-- Title: TObjectOnMap::GetY Pages: 1 -->
<svg width="748pt" height="140pt"
 viewBox="0.00 0.00 748.00 140.00" xmlns="http://www.w3.org/2000/svg" xmlns:xlink="http://www.w3.org/1999/xlink">
<g id="graph0" class="graph" transform="scale(1 1) rotate(0) translate(4 136)">
<title>TObjectOnMap::GetY</title>
<!-- Node1 -->
<g id="node1" class="node">
<title>Node1</title>
<g id="a_node1"><a xlink:title=" ">
<polygon fill="#999999" stroke="#666666" points="740,-75 622,-75 622,-56 740,-56 740,-75"/>
<text text-anchor="middle" x="681" y="-63" font-family="Helvetica,sans-Serif" font-size="10.00">TObjectOnMap::GetY</text>
</a>
</g>
</g>
<!-- Node2 -->
<g id="node2" class="node">
<title>Node2</title>
<g id="a_node2"><a xlink:href="../../db/dab/classTPlaying.html#ab7d5a4c10c234917eb40c53b81186e80" target="_top" xlink:title=" ">
<polygon fill="white" stroke="#666666" points="564,-132 457,-132 457,-113 564,-113 564,-132"/>
<text text-anchor="middle" x="510.5" y="-120" font-family="Helvetica,sans-Serif" font-size="10.00">TPlaying::FindBest</text>
</a>
</g>
</g>
<!-- Node1&#45;&gt;Node2 -->
<g id="edge1" class="edge">
<title>Node1&#45;&gt;Node2</title>
<path fill="none" stroke="#63b8ff" d="M643.56,-78.54C626.17,-84.7 605.05,-92.09 586,-98.5 571.45,-103.4 555.23,-108.65 541.65,-112.98"/>
<polygon fill="#63b8ff" stroke="#63b8ff" points="645.07,-81.72 653.32,-75.07 642.73,-75.12 645.07,-81.72"/>
</g>
<!-- Node3 -->
<g id="node3" class="node">
<title>Node3</title>
<g id="a_node3"><a xlink:href="../../db/dab/classTPlaying.html#ae0d73d17b32678662ea5894822f4913a" target="_top" xlink:title=" ">
<polygon fill="white" stroke="#666666" points="399,-113 281,-113 281,-94 399,-94 399,-113"/>
<text text-anchor="middle" x="340" y="-101" font-family="Helvetica,sans-Serif" font-size="10.00">TPlaying::MoveShips</text>
</a>
</g>
</g>
<!-- Node1&#45;&gt;Node3 -->
<g id="edge5" class="edge">
<title>Node1&#45;&gt;Node3</title>
<path fill="none" stroke="#63b8ff" d="M611.58,-73.17C549.19,-80.16 458.01,-90.38 399.08,-96.99"/>
<polygon fill="#63b8ff" stroke="#63b8ff" points="612.18,-76.62 621.72,-72.03 611.4,-69.67 612.18,-76.62"/>
</g>
<!-- Node6 -->
<g id="node6" class="node">
<title>Node6</title>
<g id="a_node6"><a xlink:href="../../de/d4e/classTPirateBase.html#a63714932dab17df6c2d1d1903c793060" target="_top" xlink:title=" ">
<polygon fill="white" stroke="#666666" points="586,-56 435,-56 435,-37 586,-37 586,-56"/>
<text text-anchor="middle" x="510.5" y="-44" font-family="Helvetica,sans-Serif" font-size="10.00">TPirateBase::SetXYInSpawn</text>
</a>
</g>
</g>
<!-- Node1&#45;&gt;Node6 -->
<g id="edge6" class="edge">
<title>Node1&#45;&gt;Node6</title>
<path fill="none" stroke="#63b8ff" d="M611.5,-57.78C603.16,-56.84 594.6,-55.87 586.18,-54.92"/>
<polygon fill="#63b8ff" stroke="#63b8ff" points="611.21,-61.27 621.54,-58.91 611.99,-54.31 611.21,-61.27"/>
</g>
<!-- Node7 -->
<g id="node7" class="node">
<title>Node7</title>
<g id="a_node7"><a xlink:href="../../dc/d56/TestTObjectOnMap_8cpp.html#ac7a4e8261c84fcb99cb33d8cea2f716a" target="_top" xlink:title=" ">
<polygon fill="white" stroke="#666666" points="531,-19 490,-19 490,0 531,0 531,-19"/>
<text text-anchor="middle" x="510.5" y="-7" font-family="Helvetica,sans-Serif" font-size="10.00">TEST</text>
</a>
</g>
</g>
<!-- Node1&#45;&gt;Node7 -->
<g id="edge7" class="edge">
<title>Node1&#45;&gt;Node7</title>
<path fill="none" stroke="#63b8ff" d="M648.41,-51.92C630.34,-44.44 607.12,-35.32 586,-28.5 567.71,-22.59 546.42,-17.32 531.3,-13.84"/>
<polygon fill="#63b8ff" stroke="#63b8ff" points="647.3,-55.25 657.87,-55.88 650,-48.79 647.3,-55.25"/>
</g>
<!-- Node2&#45;&gt;Node3 -->
<g id="edge2" class="edge">
<title>Node2&#45;&gt;Node3</title>
<path fill="none" stroke="#63b8ff" d="M446.62,-115.41C431.09,-113.66 414.52,-111.79 399.23,-110.07"/>
<polygon fill="#63b8ff" stroke="#63b8ff" points="446.32,-118.9 456.65,-116.54 447.1,-111.94 446.32,-118.9"/>
</g>
<!-- Node4 -->
<g id="node4" class="node">
<title>Node4</title>
<g id="a_node4"><a xlink:href="../../db/dab/classTPlaying.html#a8599ce61fd2748b737b054b0a5c62647" target="_top" xlink:title=" ">
<polygon fill="white" stroke="#666666" points="245,-113 122,-113 122,-94 245,-94 245,-113"/>
<text text-anchor="middle" x="183.5" y="-101" font-family="Helvetica,sans-Serif" font-size="10.00">TPlaying::MakeMoves</text>
</a>
</g>
</g>
<!-- Node3&#45;&gt;Node4 -->
<g id="edge3" class="edge">
<title>Node3&#45;&gt;Node4</title>
<path fill="none" stroke="#63b8ff" d="M270.39,-103.5C261.94,-103.5 253.36,-103.5 245.05,-103.5"/>
<polygon fill="#63b8ff" stroke="#63b8ff" points="270.59,-107 280.59,-103.5 270.59,-100 270.59,-107"/>
</g>
<!-- Node5 -->
<g id="node5" class="node">
<title>Node5</title>
<g id="a_node5"><a xlink:href="../../db/dab/classTPlaying.html#a55b9a1e2159468036c18440cd361c749" target="_top" xlink:title=" ">
<polygon fill="white" stroke="#666666" points="86,-113 0,-113 0,-94 86,-94 86,-113"/>
<text text-anchor="middle" x="43" y="-101" font-family="Helvetica,sans-Serif" font-size="10.00">TPlaying::Play</text>
</a>
</g>
</g>
<!-- Node4&#45;&gt;Node5 -->
<g id="edge4" class="edge">
<title>Node4&#45;&gt;Node5</title>
<path fill="none" stroke="#63b8ff" d="M111.52,-103.5C102.79,-103.5 94.1,-103.5 86,-103.5"/>
<polygon fill="#63b8ff" stroke="#63b8ff" points="111.75,-107 121.75,-103.5 111.75,-100 111.75,-107"/>
</g>
</g>
</svg>
