<?xml version="1.0" encoding="UTF-8" standalone="no"?>
<!DOCTYPE svg PUBLIC "-//W3C//DTD SVG 1.1//EN"
 "http://www.w3.org/Graphics/SVG/1.1/DTD/svg11.dtd">
<!-- Generated by graphviz version 2.43.0 (0)
 -->
<!-- Title: TObjectOnMap::DistTo Pages: 1 -->
<svg width="720pt" height="140pt"
 viewBox="0.00 0.00 720.00 140.00" xmlns="http://www.w3.org/2000/svg" xmlns:xlink="http://www.w3.org/1999/xlink">
<g id="graph0" class="graph" transform="scale(1 1) rotate(0) translate(4 136)">
<title>TObjectOnMap::DistTo</title>
<!-- Node1 -->
<g id="node1" class="node">
<title>Node1</title>
<g id="a_node1"><a xlink:title=" ">
<polygon fill="#999999" stroke="#666666" points="712,-75 587,-75 587,-56 712,-56 712,-75"/>
<text text-anchor="middle" x="649.5" y="-63" font-family="Helvetica,sans-Serif" font-size="10.00">TObjectOnMap::DistTo</text>
</a>
</g>
</g>
<!-- Node2 -->
<g id="node2" class="node">
<title>Node2</title>
<g id="a_node2"><a xlink:href="../../db/dab/classTPlaying.html#ab7d5a4c10c234917eb40c53b81186e80" target="_top" xlink:title=" ">
<polygon fill="white" stroke="#666666" points="546.5,-132 439.5,-132 439.5,-113 546.5,-113 546.5,-132"/>
<text text-anchor="middle" x="493" y="-120" font-family="Helvetica,sans-Serif" font-size="10.00">TPlaying::FindBest</text>
</a>
</g>
</g>
<!-- Node1&#45;&gt;Node2 -->
<g id="edge1" class="edge">
<title>Node1&#45;&gt;Node2</title>
<path fill="none" stroke="#63b8ff" d="M613.09,-78.57C584.69,-89.04 545.49,-103.51 519.94,-112.93"/>
<polygon fill="#63b8ff" stroke="#63b8ff" points="614.47,-81.79 622.64,-75.04 612.05,-75.22 614.47,-81.79"/>
</g>
<!-- Node3 -->
<g id="node3" class="node">
<title>Node3</title>
<g id="a_node3"><a xlink:href="../../db/dab/classTPlaying.html#ae0d73d17b32678662ea5894822f4913a" target="_top" xlink:title=" ">
<polygon fill="white" stroke="#666666" points="399,-113 281,-113 281,-94 399,-94 399,-113"/>
<text text-anchor="middle" x="340" y="-101" font-family="Helvetica,sans-Serif" font-size="10.00">TPlaying::MoveShips</text>
</a>
</g>
</g>
<!-- Node1&#45;&gt;Node3 -->
<g id="edge7" class="edge">
<title>Node1&#45;&gt;Node3</title>
<path fill="none" stroke="#63b8ff" d="M576.44,-74.4C522.42,-81.08 449.43,-90.1 399.12,-96.32"/>
<polygon fill="#63b8ff" stroke="#63b8ff" points="577.15,-77.84 586.64,-73.14 576.29,-70.9 577.15,-77.84"/>
</g>
<!-- Node6 -->
<g id="node6" class="node">
<title>Node6</title>
<g id="a_node6"><a xlink:href="../../db/df3/classTWarShip.html#a56e43d63b1ccd69ea277306ca0e2522c" target="_top" xlink:title=" ">
<polygon fill="white" stroke="#666666" points="551,-56 435,-56 435,-37 551,-37 551,-56"/>
<text text-anchor="middle" x="493" y="-44" font-family="Helvetica,sans-Serif" font-size="10.00">TWarShip::MakeShot</text>
</a>
</g>
</g>
<!-- Node1&#45;&gt;Node6 -->
<g id="edge5" class="edge">
<title>Node1&#45;&gt;Node6</title>
<path fill="none" stroke="#63b8ff" d="M576.96,-56.7C568.35,-55.64 559.65,-54.57 551.28,-53.54"/>
<polygon fill="#63b8ff" stroke="#63b8ff" points="576.64,-60.19 586.99,-57.94 577.5,-53.24 576.64,-60.19"/>
</g>
<!-- Node8 -->
<g id="node8" class="node">
<title>Node8</title>
<g id="a_node8"><a xlink:href="../../dc/d56/TestTObjectOnMap_8cpp.html#aa228a4c994da0ebba1ecc09f611b017b" target="_top" xlink:title=" ">
<polygon fill="white" stroke="#666666" points="513.5,-19 472.5,-19 472.5,0 513.5,0 513.5,-19"/>
<text text-anchor="middle" x="493" y="-7" font-family="Helvetica,sans-Serif" font-size="10.00">TEST</text>
</a>
</g>
</g>
<!-- Node1&#45;&gt;Node8 -->
<g id="edge8" class="edge">
<title>Node1&#45;&gt;Node8</title>
<path fill="none" stroke="#63b8ff" d="M615.7,-52.1C596.88,-44.56 572.74,-35.16 551,-27.5 538.67,-23.15 524.67,-18.73 513.63,-15.35"/>
<polygon fill="#63b8ff" stroke="#63b8ff" points="614.44,-55.36 625.02,-55.85 617.05,-48.87 614.44,-55.36"/>
</g>
<!-- Node2&#45;&gt;Node3 -->
<g id="edge2" class="edge">
<title>Node2&#45;&gt;Node3</title>
<path fill="none" stroke="#63b8ff" d="M429.02,-114.58C419.14,-113.33 408.96,-112.05 399.19,-110.82"/>
<polygon fill="#63b8ff" stroke="#63b8ff" points="428.83,-118.08 439.19,-115.85 429.7,-111.13 428.83,-118.08"/>
</g>
<!-- Node4 -->
<g id="node4" class="node">
<title>Node4</title>
<g id="a_node4"><a xlink:href="../../db/dab/classTPlaying.html#a8599ce61fd2748b737b054b0a5c62647" target="_top" xlink:title=" ">
<polygon fill="white" stroke="#666666" points="245,-113 122,-113 122,-94 245,-94 245,-113"/>
<text text-anchor="middle" x="183.5" y="-101" font-family="Helvetica,sans-Serif" font-size="10.00">TPlaying::MakeMoves</text>
</a>
</g>
</g>
<!-- Node3&#45;&gt;Node4 -->
<g id="edge3" class="edge">
<title>Node3&#45;&gt;Node4</title>
<path fill="none" stroke="#63b8ff" d="M270.39,-103.5C261.94,-103.5 253.36,-103.5 245.05,-103.5"/>
<polygon fill="#63b8ff" stroke="#63b8ff" points="270.59,-107 280.59,-103.5 270.59,-100 270.59,-107"/>
</g>
<!-- Node5 -->
<g id="node5" class="node">
<title>Node5</title>
<g id="a_node5"><a xlink:href="../../db/dab/classTPlaying.html#a55b9a1e2159468036c18440cd361c749" target="_top" xlink:title=" ">
<polygon fill="white" stroke="#666666" points="86,-113 0,-113 0,-94 86,-94 86,-113"/>
<text text-anchor="middle" x="43" y="-101" font-family="Helvetica,sans-Serif" font-size="10.00">TPlaying::Play</text>
</a>
</g>
</g>
<!-- Node4&#45;&gt;Node5 -->
<g id="edge4" class="edge">
<title>Node4&#45;&gt;Node5</title>
<path fill="none" stroke="#63b8ff" d="M111.52,-103.5C102.79,-103.5 94.1,-103.5 86,-103.5"/>
<polygon fill="#63b8ff" stroke="#63b8ff" points="111.75,-107 121.75,-103.5 111.75,-100 111.75,-107"/>
</g>
<!-- Node7 -->
<g id="node7" class="node">
<title>Node7</title>
<g id="a_node7"><a xlink:href="../../d2/d56/TestTWarShip_8cpp.html#a357f365cdcd788ac244722a144ecd078" target="_top" xlink:title=" ">
<polygon fill="white" stroke="#666666" points="360.5,-56 319.5,-56 319.5,-37 360.5,-37 360.5,-56"/>
<text text-anchor="middle" x="340" y="-44" font-family="Helvetica,sans-Serif" font-size="10.00">TEST</text>
</a>
</g>
</g>
<!-- Node6&#45;&gt;Node7 -->
<g id="edge6" class="edge">
<title>Node6&#45;&gt;Node7</title>
<path fill="none" stroke="#63b8ff" d="M424.64,-46.5C401.29,-46.5 376.88,-46.5 360.51,-46.5"/>
<polygon fill="#63b8ff" stroke="#63b8ff" points="424.91,-50 434.91,-46.5 424.91,-43 424.91,-50"/>
</g>
</g>
</svg>
