<?xml version="1.0" encoding="UTF-8" standalone="no"?>
<!DOCTYPE svg PUBLIC "-//W3C//DTD SVG 1.1//EN"
 "http://www.w3.org/Graphics/SVG/1.1/DTD/svg11.dtd">
<!-- Generated by graphviz version 2.43.0 (0)
 -->
<!-- Title: TObjectOnMap::SetY Pages: 1 -->
<svg width="487pt" height="64pt"
 viewBox="0.00 0.00 487.00 64.00" xmlns="http://www.w3.org/2000/svg" xmlns:xlink="http://www.w3.org/1999/xlink">
<g id="graph0" class="graph" transform="scale(1 1) rotate(0) translate(4 60)">
<title>TObjectOnMap::SetY</title>
<!-- Node1 -->
<g id="node1" class="node">
<title>Node1</title>
<g id="a_node1"><a xlink:title=" ">
<polygon fill="#999999" stroke="#666666" points="479,-37 363,-37 363,-18 479,-18 479,-37"/>
<text text-anchor="middle" x="421" y="-25" font-family="Helvetica,sans-Serif" font-size="10.00">TObjectOnMap::SetY</text>
</a>
</g>
</g>
<!-- Node2 -->
<g id="node2" class="node">
<title>Node2</title>
<g id="a_node2"><a xlink:href="../../d2/da3/classTSpawnDescriptor.html#a2bfa0d9a8473a6dc7df369933bf892f3" target="_top" xlink:title=" ">
<polygon fill="white" stroke="#666666" points="327,-56 187,-56 187,-37 327,-37 327,-56"/>
<text text-anchor="middle" x="257" y="-44" font-family="Helvetica,sans-Serif" font-size="10.00">TSpawnDescriptor::SetXY</text>
</a>
</g>
</g>
<!-- Node1&#45;&gt;Node2 -->
<g id="edge1" class="edge">
<title>Node1&#45;&gt;Node2</title>
<path fill="none" stroke="#63b8ff" d="M352.7,-35.39C344.24,-36.38 335.58,-37.4 327.1,-38.4"/>
<polygon fill="#63b8ff" stroke="#63b8ff" points="353.36,-38.84 362.88,-34.2 352.55,-31.89 353.36,-38.84"/>
</g>
<!-- Node4 -->
<g id="node4" class="node">
<title>Node4</title>
<g id="a_node4"><a xlink:href="../../dc/d56/TestTObjectOnMap_8cpp.html#ac7a4e8261c84fcb99cb33d8cea2f716a" target="_top" xlink:title=" ">
<polygon fill="white" stroke="#666666" points="277.5,-19 236.5,-19 236.5,0 277.5,0 277.5,-19"/>
<text text-anchor="middle" x="257" y="-7" font-family="Helvetica,sans-Serif" font-size="10.00">TEST</text>
</a>
</g>
</g>
<!-- Node1&#45;&gt;Node4 -->
<g id="edge3" class="edge">
<title>Node1&#45;&gt;Node4</title>
<path fill="none" stroke="#63b8ff" d="M352.64,-20.02C325.56,-17.01 296.4,-13.77 277.71,-11.69"/>
<polygon fill="#63b8ff" stroke="#63b8ff" points="352.56,-23.53 362.88,-21.15 353.33,-16.57 352.56,-23.53"/>
</g>
<!-- Node3 -->
<g id="node3" class="node">
<title>Node3</title>
<g id="a_node3"><a xlink:href="../../de/d4e/classTPirateBase.html#a63714932dab17df6c2d1d1903c793060" target="_top" xlink:title=" ">
<polygon fill="white" stroke="#666666" points="151,-56 0,-56 0,-37 151,-37 151,-56"/>
<text text-anchor="middle" x="75.5" y="-44" font-family="Helvetica,sans-Serif" font-size="10.00">TPirateBase::SetXYInSpawn</text>
</a>
</g>
</g>
<!-- Node2&#45;&gt;Node3 -->
<g id="edge2" class="edge">
<title>Node2&#45;&gt;Node3</title>
<path fill="none" stroke="#63b8ff" d="M176.65,-46.5C168.21,-46.5 159.65,-46.5 151.27,-46.5"/>
<polygon fill="#63b8ff" stroke="#63b8ff" points="176.86,-50 186.86,-46.5 176.86,-43 176.86,-50"/>
</g>
</g>
</svg>
