<?xml version="1.0" encoding="UTF-8" standalone="no"?>
<!DOCTYPE svg PUBLIC "-//W3C//DTD SVG 1.1//EN"
 "http://www.w3.org/Graphics/SVG/1.1/DTD/svg11.dtd">
<!-- Generated by graphviz version 2.43.0 (0)
 -->
<!-- Title: TGameCenter::Start Pages: 1 -->
<svg width="309pt" height="155pt"
 viewBox="0.00 0.00 309.00 155.00" xmlns="http://www.w3.org/2000/svg" xmlns:xlink="http://www.w3.org/1999/xlink">
<g id="graph0" class="graph" transform="scale(1 1) rotate(0) translate(4 151)">
<title>TGameCenter::Start</title>
<!-- Node1 -->
<g id="node1" class="node">
<title>Node1</title>
<g id="a_node1"><a xlink:title=" ">
<polygon fill="#999999" stroke="#666666" points="113,-74 0,-74 0,-55 113,-55 113,-74"/>
<text text-anchor="middle" x="56.5" y="-62" font-family="Helvetica,sans-Serif" font-size="10.00">TGameCenter::Start</text>
</a>
</g>
</g>
<!-- Node2 -->
<g id="node2" class="node">
<title>Node2</title>
<g id="a_node2"><a xlink:href="../../de/d6e/classTGameCenter.html#a70e0f4db06ab6b317c7aafcc8ce94c7b" target="_top" xlink:title=" ">
<polygon fill="white" stroke="#666666" points="301,-129 149,-129 149,-110 301,-110 301,-129"/>
<text text-anchor="middle" x="225" y="-117" font-family="Helvetica,sans-Serif" font-size="10.00">TGameCenter::ChooseLevel</text>
</a>
</g>
</g>
<!-- Node1&#45;&gt;Node2 -->
<g id="edge1" class="edge">
<title>Node1&#45;&gt;Node2</title>
<path fill="none" stroke="#63b8ff" d="M78.62,-74.08C96.95,-82.15 124.36,-93.61 149,-101.5 155.51,-103.59 162.41,-105.55 169.28,-107.37"/>
<polygon fill="#63b8ff" stroke="#63b8ff" points="168.73,-110.84 179.28,-109.92 170.45,-104.06 168.73,-110.84"/>
</g>
<!-- Node3 -->
<g id="node3" class="node">
<title>Node3</title>
<g id="a_node3"><a xlink:href="../../de/d6e/classTGameCenter.html#ae3e3bca9701c76d5e73e2a95ab809c5f" target="_top" xlink:title=" ">
<polygon fill="white" stroke="#666666" points="280.5,-74 169.5,-74 169.5,-55 280.5,-55 280.5,-74"/>
<text text-anchor="middle" x="225" y="-62" font-family="Helvetica,sans-Serif" font-size="10.00">TGameCenter::Play</text>
</a>
</g>
</g>
<!-- Node1&#45;&gt;Node3 -->
<g id="edge3" class="edge">
<title>Node1&#45;&gt;Node3</title>
<path fill="none" stroke="#63b8ff" d="M113.41,-64.5C128.07,-64.5 144,-64.5 159.09,-64.5"/>
<polygon fill="#63b8ff" stroke="#63b8ff" points="159.37,-68 169.37,-64.5 159.37,-61 159.37,-68"/>
</g>
<!-- Node4 -->
<g id="node4" class="node">
<title>Node4</title>
<g id="a_node4"><a xlink:href="../../de/d6e/classTGameCenter.html#a86ca139bcacad0fc4c04be44e1d399ad" target="_top" xlink:title=" ">
<polygon fill="white" stroke="#666666" points="282,-19 168,-19 168,0 282,0 282,-19"/>
<text text-anchor="middle" x="225" y="-7" font-family="Helvetica,sans-Serif" font-size="10.00">TGameCenter::Shop</text>
</a>
</g>
</g>
<!-- Node1&#45;&gt;Node4 -->
<g id="edge5" class="edge">
<title>Node1&#45;&gt;Node4</title>
<path fill="none" stroke="#63b8ff" d="M86.5,-54.92C113.87,-45.88 155.11,-32.26 185.28,-22.29"/>
<polygon fill="#63b8ff" stroke="#63b8ff" points="186.65,-25.52 195.05,-19.06 184.46,-18.88 186.65,-25.52"/>
</g>
<!-- Node2&#45;&gt;Node2 -->
<g id="edge2" class="edge">
<title>Node2&#45;&gt;Node2</title>
<path fill="none" stroke="#63b8ff" d="M199.11,-129.08C186.51,-137.73 195.14,-147 225,-147 245.06,-147 255.54,-142.82 256.44,-137.45"/>
<polygon fill="#63b8ff" stroke="#63b8ff" points="259.34,-135.49 250.89,-129.08 253.5,-139.35 259.34,-135.49"/>
</g>
<!-- Node3&#45;&gt;Node3 -->
<g id="edge4" class="edge">
<title>Node3&#45;&gt;Node3</title>
<path fill="none" stroke="#63b8ff" d="M199.11,-74.08C186.51,-82.73 195.14,-92 225,-92 245.06,-92 255.54,-87.82 256.44,-82.45"/>
<polygon fill="#63b8ff" stroke="#63b8ff" points="259.34,-80.49 250.89,-74.08 253.5,-84.35 259.34,-80.49"/>
</g>
<!-- Node4&#45;&gt;Node4 -->
<g id="edge6" class="edge">
<title>Node4&#45;&gt;Node4</title>
<path fill="none" stroke="#63b8ff" d="M199.11,-19.08C186.51,-27.73 195.14,-37 225,-37 245.06,-37 255.54,-32.82 256.44,-27.45"/>
<polygon fill="#63b8ff" stroke="#63b8ff" points="259.34,-25.49 250.89,-19.08 253.5,-29.35 259.34,-25.49"/>
</g>
</g>
</svg>
