<?xml version="1.0" encoding="UTF-8" standalone="no"?>
<!DOCTYPE svg PUBLIC "-//W3C//DTD SVG 1.1//EN"
 "http://www.w3.org/Graphics/SVG/1.1/DTD/svg11.dtd">
<!-- Generated by graphviz version 2.43.0 (0)
 -->
<!-- Title: TGameCenter::Play Pages: 1 -->
<svg width="345pt" height="45pt"
 viewBox="0.00 0.00 345.00 45.00" xmlns="http://www.w3.org/2000/svg" xmlns:xlink="http://www.w3.org/1999/xlink">
<g id="graph0" class="graph" transform="scale(1 1) rotate(0) translate(4 41)">
<title>TGameCenter::Play</title>
<!-- Node1 -->
<g id="node1" class="node">
<title>Node1</title>
<g id="a_node1"><a xlink:title=" ">
<polygon fill="#999999" stroke="#666666" points="337,-19 226,-19 226,0 337,0 337,-19"/>
<text text-anchor="middle" x="281.5" y="-7" font-family="Helvetica,sans-Serif" font-size="10.00">TGameCenter::Play</text>
</a>
</g>
</g>
<!-- Node1&#45;&gt;Node1 -->
<g id="edge1" class="edge">
<title>Node1&#45;&gt;Node1</title>
<path fill="none" stroke="#63b8ff" d="M309.03,-28.19C307.53,-33.2 298.35,-37 281.5,-37 255.2,-37 247.59,-27.73 258.69,-19.08"/>
<polygon fill="#63b8ff" stroke="#63b8ff" points="312.02,-26.35 304.31,-19.08 305.8,-29.57 312.02,-26.35"/>
</g>
<!-- Node2 -->
<g id="node2" class="node">
<title>Node2</title>
<g id="a_node2"><a xlink:href="../../de/d6e/classTGameCenter.html#a0344cdc2b9027be9b5f56376f7c74ea5" target="_top" xlink:title=" ">
<polygon fill="white" stroke="#666666" points="190,-19 77,-19 77,0 190,0 190,-19"/>
<text text-anchor="middle" x="133.5" y="-7" font-family="Helvetica,sans-Serif" font-size="10.00">TGameCenter::Start</text>
</a>
</g>
</g>
<!-- Node1&#45;&gt;Node2 -->
<g id="edge2" class="edge">
<title>Node1&#45;&gt;Node2</title>
<path fill="none" stroke="#63b8ff" d="M215.48,-9.5C207,-9.5 198.38,-9.5 190.07,-9.5"/>
<polygon fill="#63b8ff" stroke="#63b8ff" points="215.72,-13 225.72,-9.5 215.72,-6 215.72,-13"/>
</g>
<!-- Node3 -->
<g id="node3" class="node">
<title>Node3</title>
<g id="a_node3"><a xlink:href="../../df/d0a/main_8cpp.html#ae66f6b31b5ad750f1fe042a706a4e3d4" target="_top" xlink:title=" ">
<polygon fill="white" stroke="#666666" points="41,-19 0,-19 0,0 41,0 41,-19"/>
<text text-anchor="middle" x="20.5" y="-7" font-family="Helvetica,sans-Serif" font-size="10.00">main</text>
</a>
</g>
</g>
<!-- Node2&#45;&gt;Node3 -->
<g id="edge3" class="edge">
<title>Node2&#45;&gt;Node3</title>
<path fill="none" stroke="#63b8ff" d="M66.58,-9.5C57.37,-9.5 48.56,-9.5 41.21,-9.5"/>
<polygon fill="#63b8ff" stroke="#63b8ff" points="66.67,-13 76.67,-9.5 66.67,-6 66.67,-13"/>
</g>
</g>
</svg>
