<?xml version="1.0" encoding="UTF-8" standalone="no"?>
<!DOCTYPE svg PUBLIC "-//W3C//DTD SVG 1.1//EN"
 "http://www.w3.org/Graphics/SVG/1.1/DTD/svg11.dtd">
<!-- Generated by graphviz version 2.43.0 (0)
 -->
<!-- Title: code/game/code/TPlaying.cpp Pages: 1 -->
<!--zoomable 511 -->
<svg id="main" version="1.1" xmlns="http://www.w3.org/2000/svg" xmlns:xlink="http://www.w3.org/1999/xlink" xml:space="preserve" onload="init(evt)">
<style type="text/css"><![CDATA[
.edge:hover path { stroke: red; }
.edge:hover polygon { stroke: red; fill: red; }
]]></style>
<script type="text/javascript"><![CDATA[
var edges = document.getElementsByTagName('g');
if (edges && edges.length) {
  for (var i=0;i<edges.length;i++) {
    if (edges[i].id.substr(0,4)=='edge') {
      edges[i].setAttribute('class','edge');
    }
  }
}
]]></script>
        <defs>
                <circle id="rim" cx="0" cy="0" r="7"/>
                <circle id="rim2" cx="0" cy="0" r="3.5"/>
                <g id="zoomPlus">
                        <use xlink:href="#rim" fill="#404040">
                                <set attributeName="fill" to="#808080" begin="zoomplus.mouseover" end="zoomplus.mouseout"/>
                        </use>
                        <path d="M-4,0h8M0,-4v8" fill="none" stroke="white" stroke-width="1.5" pointer-events="none"/>
                </g>
                <g id="zoomMin">
                        <use xlink:href="#rim" fill="#404040">
                                <set attributeName="fill" to="#808080" begin="zoomminus.mouseover" end="zoomminus.mouseout"/>
                        </use>
                        <path d="M-4,0h8" fill="none" stroke="white" stroke-width="1.5" pointer-events="none"/>
                </g>
                <g id="dirArrow">
                        <path fill="none" stroke="white" stroke-width="1.5" d="M0,-3.0v7 M-2.5,-0.5L0,-3.0L2.5,-0.5"/>
                </g>
               <g id="resetDef">
                       <use xlink:href="#rim2" fill="#404040">
                               <set attributeName="fill" to="#808080" begin="reset.mouseover" end="reset.mouseout"/>
                       </use>
               </g>
        </defs>

<script type="text/javascript">
var viewWidth = 863;
var viewHeight = 511;
var sectionId = 'dynsection-0';
</script>
<script xlink:href="../../svgpan.js"/>
<svg id="graph" class="graph">
<g id="viewport">
<title>code/game/code/TPlaying.cpp</title>
<!-- Node1 -->
<g id="node1" class="node">
<title>Node1</title>
<g id="a_node1"><a xlink:title=" ">
<polygon fill="#999999" stroke="#666666" points="679.5,-503 517.5,-503 517.5,-484 679.5,-484 679.5,-503"/>
<text text-anchor="middle" x="598.5" y="-491" font-family="Helvetica,sans-Serif" font-size="10.00">code/game/code/TPlaying.cpp</text>
</a>
</g>
</g>
<!-- Node2 -->
<g id="node2" class="node">
<title>Node2</title>
<g id="a_node2"><a xlink:href="../../df/d59/TPlaying_8h.html" target="_top" xlink:title=" ">
<polygon fill="white" stroke="#666666" points="495.5,-448 427.5,-448 427.5,-429 495.5,-429 495.5,-448"/>
<text text-anchor="middle" x="461.5" y="-436" font-family="Helvetica,sans-Serif" font-size="10.00">TPlaying.h</text>
</a>
</g>
</g>
<!-- Node1&#45;&gt;Node2 -->
<g id="edge1" class="edge">
<title>Node1&#45;&gt;Node2</title>
<path fill="none" stroke="#63b8ff" d="M576.49,-483.98C554.05,-475.3 519.02,-461.75 493.51,-451.88"/>
<polygon fill="#63b8ff" stroke="#63b8ff" points="494.5,-448.51 483.91,-448.17 491.98,-455.04 494.5,-448.51"/>
</g>
<!-- Node20 -->
<g id="node20" class="node">
<title>Node20</title>
<g id="a_node20"><a xlink:href="../../dd/d2b/TimeHolder_8h.html" target="_top" xlink:title=" ">
<polygon fill="white" stroke="#666666" points="595.5,-448 513.5,-448 513.5,-429 595.5,-429 595.5,-448"/>
<text text-anchor="middle" x="554.5" y="-436" font-family="Helvetica,sans-Serif" font-size="10.00">TimeHolder.h</text>
</a>
</g>
</g>
<!-- Node1&#45;&gt;Node20 -->
<g id="edge31" class="edge">
<title>Node1&#45;&gt;Node20</title>
<path fill="none" stroke="#63b8ff" d="M591.23,-483.75C584.96,-476.18 575.71,-465.05 568.07,-455.84"/>
<polygon fill="#63b8ff" stroke="#63b8ff" points="570.71,-453.55 561.63,-448.09 565.33,-458.02 570.71,-453.55"/>
</g>
<!-- Node22 -->
<g id="node22" class="node">
<title>Node22</title>
<g id="a_node22"><a xlink:title=" ">
<polygon fill="#e0e0e0" stroke="#999999" points="673.5,-448 613.5,-448 613.5,-429 673.5,-429 673.5,-448"/>
<text text-anchor="middle" x="643.5" y="-436" font-family="Helvetica,sans-Serif" font-size="10.00">iostream</text>
</a>
</g>
</g>
<!-- Node1&#45;&gt;Node22 -->
<g id="edge33" class="edge">
<title>Node1&#45;&gt;Node22</title>
<path fill="none" stroke="#63b8ff" d="M605.93,-483.75C612.35,-476.18 621.81,-465.05 629.62,-455.84"/>
<polygon fill="#63b8ff" stroke="#63b8ff" points="632.4,-457.98 636.21,-448.09 627.07,-453.45 632.4,-457.98"/>
</g>
<!-- Node23 -->
<g id="node23" class="node">
<title>Node23</title>
<g id="a_node23"><a xlink:title=" ">
<polygon fill="#e0e0e0" stroke="#999999" points="755.5,-448 691.5,-448 691.5,-429 755.5,-429 755.5,-448"/>
<text text-anchor="middle" x="723.5" y="-436" font-family="Helvetica,sans-Serif" font-size="10.00">algorithm</text>
</a>
</g>
</g>
<!-- Node1&#45;&gt;Node23 -->
<g id="edge34" class="edge">
<title>Node1&#45;&gt;Node23</title>
<path fill="none" stroke="#63b8ff" d="M618.58,-483.98C638.87,-475.38 670.46,-461.99 693.67,-452.15"/>
<polygon fill="#63b8ff" stroke="#63b8ff" points="695.21,-455.3 703.05,-448.17 692.48,-448.85 695.21,-455.3"/>
</g>
<!-- Node3 -->
<g id="node3" class="node">
<title>Node3</title>
<g id="a_node3"><a xlink:href="../../d3/dd9/TMission_8h.html" target="_top" xlink:title=" ">
<polygon fill="white" stroke="#666666" points="504,-393 435,-393 435,-374 504,-374 504,-393"/>
<text text-anchor="middle" x="469.5" y="-381" font-family="Helvetica,sans-Serif" font-size="10.00">TMission.h</text>
</a>
</g>
</g>
<!-- Node2&#45;&gt;Node3 -->
<g id="edge2" class="edge">
<title>Node2&#45;&gt;Node3</title>
<path fill="none" stroke="#63b8ff" d="M462.82,-428.75C463.87,-421.8 465.37,-411.85 466.69,-403.13"/>
<polygon fill="#63b8ff" stroke="#63b8ff" points="470.17,-403.5 468.2,-393.09 463.25,-402.45 470.17,-403.5"/>
</g>
<!-- Node7 -->
<g id="node7" class="node">
<title>Node7</title>
<g id="a_node7"><a xlink:title=" ">
<polygon fill="#e0e0e0" stroke="#999999" points="361.5,-79.5 303.5,-79.5 303.5,-60.5 361.5,-60.5 361.5,-79.5"/>
<text text-anchor="middle" x="332.5" y="-67.5" font-family="Helvetica,sans-Serif" font-size="10.00">memory</text>
</a>
</g>
</g>
<!-- Node2&#45;&gt;Node7 -->
<g id="edge30" class="edge">
<title>Node2&#45;&gt;Node7</title>
<path fill="none" stroke="#63b8ff" d="M427.3,-431.31C378.44,-420.26 294.5,-392.17 294.5,-329.5 294.5,-329.5 294.5,-329.5 294.5,-201 294.5,-159.44 312.61,-113.3 323.83,-88.71"/>
<polygon fill="#63b8ff" stroke="#63b8ff" points="327.04,-90.11 328.14,-79.57 320.71,-87.12 327.04,-90.11"/>
</g>
<!-- Node4 -->
<g id="node4" class="node">
<title>Node4</title>
<g id="a_node4"><a xlink:href="../../de/da2/TCapitanInfo_8h.html" target="_top" xlink:title=" ">
<polygon fill="white" stroke="#666666" points="511.5,-85 379.5,-85 379.5,-55 511.5,-55 511.5,-85"/>
<text text-anchor="start" x="387.5" y="-73" font-family="Helvetica,sans-Serif" font-size="10.00">../../ships/code/TCapitan</text>
<text text-anchor="middle" x="445.5" y="-62" font-family="Helvetica,sans-Serif" font-size="10.00">Info.h</text>
</a>
</g>
</g>
<!-- Node3&#45;&gt;Node4 -->
<g id="edge3" class="edge">
<title>Node3&#45;&gt;Node4</title>
<path fill="none" stroke="#63b8ff" d="M453.59,-373.92C425.61,-357.54 370.5,-318.94 370.5,-269 370.5,-269 370.5,-269 370.5,-201 370.5,-158.16 401.44,-116.73 423.57,-92.56"/>
<polygon fill="#63b8ff" stroke="#63b8ff" points="426.35,-94.72 430.68,-85.05 421.26,-89.91 426.35,-94.72"/>
</g>
<!-- Node6 -->
<g id="node6" class="node">
<title>Node6</title>
<g id="a_node6"><a xlink:href="../../d8/d06/MyList_8h.html" target="_top" xlink:title=" ">
<polygon fill="white" stroke="#666666" points="693,-217 586,-217 586,-187 693,-187 693,-217"/>
<text text-anchor="start" x="594" y="-205" font-family="Helvetica,sans-Serif" font-size="10.00">../../container/code</text>
<text text-anchor="middle" x="639.5" y="-194" font-family="Helvetica,sans-Serif" font-size="10.00">/MyList.h</text>
</a>
</g>
</g>
<!-- Node3&#45;&gt;Node6 -->
<g id="edge5" class="edge">
<title>Node3&#45;&gt;Node6</title>
<path fill="none" stroke="#63b8ff" d="M496.13,-373.92C548,-356.62 659.35,-316.35 680.5,-283 692.57,-263.97 677.98,-240.96 662.97,-224.51"/>
<polygon fill="#63b8ff" stroke="#63b8ff" points="665.16,-221.74 655.68,-217.01 660.14,-226.62 665.16,-221.74"/>
</g>
<!-- Node3&#45;&gt;Node7 -->
<g id="edge29" class="edge">
<title>Node3&#45;&gt;Node7</title>
<path fill="none" stroke="#63b8ff" d="M442.76,-373.98C402.89,-359.42 332.5,-325.68 332.5,-269 332.5,-269 332.5,-269 332.5,-201 332.5,-161.45 332.5,-115.13 332.5,-89.84"/>
<polygon fill="#63b8ff" stroke="#63b8ff" points="336,-89.52 332.5,-79.52 329,-89.52 336,-89.52"/>
</g>
<!-- Node10 -->
<g id="node10" class="node">
<title>Node10</title>
<g id="a_node10"><a xlink:href="../../db/d87/TCargoWarShip_8h.html" target="_top" xlink:title=" ">
<polygon fill="white" stroke="#666666" points="540.5,-283 398.5,-283 398.5,-253 540.5,-253 540.5,-283"/>
<text text-anchor="start" x="406.5" y="-271" font-family="Helvetica,sans-Serif" font-size="10.00">../../ships/code/TCargoWar</text>
<text text-anchor="middle" x="469.5" y="-260" font-family="Helvetica,sans-Serif" font-size="10.00">Ship.h</text>
</a>
</g>
</g>
<!-- Node3&#45;&gt;Node10 -->
<g id="edge12" class="edge">
<title>Node3&#45;&gt;Node10</title>
<path fill="none" stroke="#63b8ff" d="M469.5,-373.97C469.5,-357.08 469.5,-318.85 469.5,-293.48"/>
<polygon fill="#63b8ff" stroke="#63b8ff" points="473,-293.18 469.5,-283.18 466,-293.18 473,-293.18"/>
</g>
<!-- Node17 -->
<g id="node17" class="node">
<title>Node17</title>
<g id="a_node17"><a xlink:href="../../d1/d0c/TBase_8h.html" target="_top" xlink:title=" ">
<polygon fill="white" stroke="#666666" points="854.5,-277.5 728.5,-277.5 728.5,-258.5 854.5,-258.5 854.5,-277.5"/>
<text text-anchor="middle" x="791.5" y="-265.5" font-family="Helvetica,sans-Serif" font-size="10.00">../../base/code/TBase.h</text>
</a>
</g>
</g>
<!-- Node3&#45;&gt;Node17 -->
<g id="edge22" class="edge">
<title>Node3&#45;&gt;Node17</title>
<path fill="none" stroke="#63b8ff" d="M504.15,-376.62C509.94,-375.7 515.88,-374.79 521.5,-374 588.86,-364.51 780.31,-388.85 825.5,-338 839.4,-322.36 823.55,-300.02 809.16,-285.03"/>
<polygon fill="#63b8ff" stroke="#63b8ff" points="811.52,-282.45 801.93,-277.94 806.62,-287.45 811.52,-282.45"/>
</g>
<!-- Node18 -->
<g id="node18" class="node">
<title>Node18</title>
<g id="a_node18"><a xlink:href="../../d1/d8a/TPirateBase_8h.html" target="_top" xlink:title=" ">
<polygon fill="white" stroke="#666666" points="816,-338 661,-338 661,-319 816,-319 816,-338"/>
<text text-anchor="middle" x="738.5" y="-326" font-family="Helvetica,sans-Serif" font-size="10.00">../../base/code/TPirateBase.h</text>
</a>
</g>
</g>
<!-- Node3&#45;&gt;Node18 -->
<g id="edge24" class="edge">
<title>Node3&#45;&gt;Node18</title>
<path fill="none" stroke="#63b8ff" d="M504.12,-375.68C549.97,-366.64 631.32,-350.62 685.09,-340.02"/>
<polygon fill="#63b8ff" stroke="#63b8ff" points="685.99,-343.41 695.12,-338.05 684.63,-336.55 685.99,-343.41"/>
</g>
<!-- Node5 -->
<g id="node5" class="node">
<title>Node5</title>
<g id="a_node5"><a xlink:title=" ">
<polygon fill="#e0e0e0" stroke="#999999" points="514.5,-19 470.5,-19 470.5,0 514.5,0 514.5,-19"/>
<text text-anchor="middle" x="492.5" y="-7" font-family="Helvetica,sans-Serif" font-size="10.00">string</text>
</a>
</g>
</g>
<!-- Node4&#45;&gt;Node5 -->
<g id="edge4" class="edge">
<title>Node4&#45;&gt;Node5</title>
<path fill="none" stroke="#63b8ff" d="M456.88,-54.84C463.56,-46.52 472.05,-35.96 479.06,-27.23"/>
<polygon fill="#63b8ff" stroke="#63b8ff" points="481.92,-29.25 485.46,-19.27 476.47,-24.87 481.92,-29.25"/>
</g>
<!-- Node6&#45;&gt;Node7 -->
<g id="edge6" class="edge">
<title>Node6&#45;&gt;Node7</title>
<path fill="none" stroke="#63b8ff" d="M585.99,-187.85C541.83,-176.67 482.94,-160.9 460.5,-151 419.68,-132.99 376.54,-103.55 352.22,-85.85"/>
<polygon fill="#63b8ff" stroke="#63b8ff" points="353.99,-82.81 343.87,-79.69 349.84,-88.44 353.99,-82.81"/>
</g>
<!-- Node8 -->
<g id="node8" class="node">
<title>Node8</title>
<g id="a_node8"><a xlink:href="../../d0/d93/TShip_8h.html" target="_top" xlink:title=" ">
<polygon fill="white" stroke="#666666" points="595,-145.5 470,-145.5 470,-126.5 595,-126.5 595,-145.5"/>
<text text-anchor="middle" x="532.5" y="-133.5" font-family="Helvetica,sans-Serif" font-size="10.00">../../ships/code/TShip.h</text>
</a>
</g>
</g>
<!-- Node6&#45;&gt;Node8 -->
<g id="edge7" class="edge">
<title>Node6&#45;&gt;Node8</title>
<path fill="none" stroke="#63b8ff" d="M616.02,-186.95C598,-176.18 573.26,-161.38 555.39,-150.69"/>
<polygon fill="#63b8ff" stroke="#63b8ff" points="557.12,-147.65 546.74,-145.52 553.53,-153.65 557.12,-147.65"/>
</g>
<!-- Node8&#45;&gt;Node4 -->
<g id="edge10" class="edge">
<title>Node8&#45;&gt;Node4</title>
<path fill="none" stroke="#63b8ff" d="M520.77,-126.37C508.52,-117.36 488.9,-102.92 472.75,-91.05"/>
<polygon fill="#63b8ff" stroke="#63b8ff" points="474.82,-88.22 464.69,-85.12 470.67,-93.86 474.82,-88.22"/>
</g>
<!-- Node8&#45;&gt;Node5 -->
<g id="edge8" class="edge">
<title>Node8&#45;&gt;Node5</title>
<path fill="none" stroke="#63b8ff" d="M532.35,-126.3C531.85,-111.3 529.68,-79.75 520.5,-55 516.89,-45.28 510.98,-35.43 505.51,-27.47"/>
<polygon fill="#63b8ff" stroke="#63b8ff" points="508.16,-25.17 499.46,-19.13 502.5,-29.28 508.16,-25.17"/>
</g>
<!-- Node8&#45;&gt;Node7 -->
<g id="edge9" class="edge">
<title>Node8&#45;&gt;Node7</title>
<path fill="none" stroke="#63b8ff" d="M503.08,-126.44C470.51,-116.83 416.51,-100.56 370.5,-85 368.65,-84.37 366.76,-83.72 364.85,-83.05"/>
<polygon fill="#63b8ff" stroke="#63b8ff" points="365.93,-79.72 355.34,-79.64 363.57,-86.31 365.93,-79.72"/>
</g>
<!-- Node9 -->
<g id="node9" class="node">
<title>Node9</title>
<g id="a_node9"><a xlink:href="../../dc/d06/TObjectOnMap_8h.html" target="_top" xlink:title=" ">
<polygon fill="white" stroke="#666666" points="765.5,-85 627.5,-85 627.5,-55 765.5,-55 765.5,-85"/>
<text text-anchor="start" x="635.5" y="-73" font-family="Helvetica,sans-Serif" font-size="10.00">../../base/code/TObjectOn</text>
<text text-anchor="middle" x="696.5" y="-62" font-family="Helvetica,sans-Serif" font-size="10.00">Map.h</text>
</a>
</g>
</g>
<!-- Node8&#45;&gt;Node9 -->
<g id="edge11" class="edge">
<title>Node8&#45;&gt;Node9</title>
<path fill="none" stroke="#63b8ff" d="M554.62,-126.37C579.18,-116.78 619.51,-101.05 650.9,-88.8"/>
<polygon fill="#63b8ff" stroke="#63b8ff" points="652.29,-92.01 660.33,-85.12 649.74,-85.49 652.29,-92.01"/>
</g>
<!-- Node11 -->
<g id="node11" class="node">
<title>Node11</title>
<g id="a_node11"><a xlink:href="../../d0/d2a/TWarShip_8h.html" target="_top" xlink:title=" ">
<polygon fill="white" stroke="#666666" points="568,-211.5 497,-211.5 497,-192.5 568,-192.5 568,-211.5"/>
<text text-anchor="middle" x="532.5" y="-199.5" font-family="Helvetica,sans-Serif" font-size="10.00">TWarShip.h</text>
</a>
</g>
</g>
<!-- Node10&#45;&gt;Node11 -->
<g id="edge13" class="edge">
<title>Node10&#45;&gt;Node11</title>
<path fill="none" stroke="#63b8ff" d="M483.48,-252.8C493.3,-242.82 506.46,-229.46 516.67,-219.09"/>
<polygon fill="#63b8ff" stroke="#63b8ff" points="519.27,-221.43 523.79,-211.84 514.28,-216.52 519.27,-221.43"/>
</g>
<!-- Node16 -->
<g id="node16" class="node">
<title>Node16</title>
<g id="a_node16"><a xlink:href="../../d3/d7f/TCargoShip_8h.html" target="_top" xlink:title=" ">
<polygon fill="white" stroke="#666666" points="478.5,-211.5 398.5,-211.5 398.5,-192.5 478.5,-192.5 478.5,-211.5"/>
<text text-anchor="middle" x="438.5" y="-199.5" font-family="Helvetica,sans-Serif" font-size="10.00">TCargoShip.h</text>
</a>
</g>
</g>
<!-- Node10&#45;&gt;Node16 -->
<g id="edge20" class="edge">
<title>Node10&#45;&gt;Node16</title>
<path fill="none" stroke="#63b8ff" d="M462.62,-252.8C458.07,-243.41 452.07,-231.02 447.19,-220.95"/>
<polygon fill="#63b8ff" stroke="#63b8ff" points="450.29,-219.32 442.78,-211.84 443.99,-222.37 450.29,-219.32"/>
</g>
<!-- Node11&#45;&gt;Node8 -->
<g id="edge19" class="edge">
<title>Node11&#45;&gt;Node8</title>
<path fill="none" stroke="#63b8ff" d="M532.5,-192.37C532.5,-183.16 532.5,-168.29 532.5,-156.27"/>
<polygon fill="#63b8ff" stroke="#63b8ff" points="536,-155.91 532.5,-145.91 529,-155.91 536,-155.91"/>
</g>
<!-- Node12 -->
<g id="node12" class="node">
<title>Node12</title>
<g id="a_node12"><a xlink:href="../../dc/d2c/TWeaponHolder_8h.html" target="_top" xlink:title=" ">
<polygon fill="white" stroke="#666666" points="266,-151 161,-151 161,-121 266,-121 266,-151"/>
<text text-anchor="start" x="169" y="-139" font-family="Helvetica,sans-Serif" font-size="10.00">../../weapons/code</text>
<text text-anchor="middle" x="213.5" y="-128" font-family="Helvetica,sans-Serif" font-size="10.00">/TWeaponHolder.h</text>
</a>
</g>
</g>
<!-- Node11&#45;&gt;Node12 -->
<g id="edge14" class="edge">
<title>Node11&#45;&gt;Node12</title>
<path fill="none" stroke="#63b8ff" d="M506.95,-192.46C500.63,-190.52 493.86,-188.56 487.5,-187 415.78,-169.37 332.1,-154.98 276.26,-146.24"/>
<polygon fill="#63b8ff" stroke="#63b8ff" points="276.59,-142.74 266.17,-144.67 275.52,-149.66 276.59,-142.74"/>
</g>
<!-- Node12&#45;&gt;Node7 -->
<g id="edge15" class="edge">
<title>Node12&#45;&gt;Node7</title>
<path fill="none" stroke="#63b8ff" d="M239.62,-120.95C259.84,-110.08 287.68,-95.11 307.59,-84.4"/>
<polygon fill="#63b8ff" stroke="#63b8ff" points="309.51,-87.34 316.66,-79.52 306.2,-81.17 309.51,-87.34"/>
</g>
<!-- Node13 -->
<g id="node13" class="node">
<title>Node13</title>
<g id="a_node13"><a xlink:title=" ">
<polygon fill="#e0e0e0" stroke="#999999" points="47,-79.5 0,-79.5 0,-60.5 47,-60.5 47,-79.5"/>
<text text-anchor="middle" x="23.5" y="-67.5" font-family="Helvetica,sans-Serif" font-size="10.00">vector</text>
</a>
</g>
</g>
<!-- Node12&#45;&gt;Node13 -->
<g id="edge16" class="edge">
<title>Node12&#45;&gt;Node13</title>
<path fill="none" stroke="#63b8ff" d="M165.36,-120.93C134.08,-111.49 92.58,-98.37 56.5,-85 55.11,-84.49 53.7,-83.95 52.28,-83.39"/>
<polygon fill="#63b8ff" stroke="#63b8ff" points="53.51,-80.11 42.92,-79.59 50.87,-86.6 53.51,-80.11"/>
</g>
<!-- Node14 -->
<g id="node14" class="node">
<title>Node14</title>
<g id="a_node14"><a xlink:href="../../d8/d66/enum__place__on__ship_8h.html" target="_top" xlink:title=" ">
<polygon fill="white" stroke="#666666" points="195.5,-85 65.5,-85 65.5,-55 195.5,-55 195.5,-85"/>
<text text-anchor="start" x="73.5" y="-73" font-family="Helvetica,sans-Serif" font-size="10.00">../../enums/enum_place</text>
<text text-anchor="middle" x="130.5" y="-62" font-family="Helvetica,sans-Serif" font-size="10.00">_on_ship.h</text>
</a>
</g>
</g>
<!-- Node12&#45;&gt;Node14 -->
<g id="edge17" class="edge">
<title>Node12&#45;&gt;Node14</title>
<path fill="none" stroke="#63b8ff" d="M195.08,-120.8C183.9,-112.18 169.45,-101.04 157.06,-91.48"/>
<polygon fill="#63b8ff" stroke="#63b8ff" points="158.93,-88.5 148.87,-85.16 154.65,-94.04 158.93,-88.5"/>
</g>
<!-- Node15 -->
<g id="node15" class="node">
<title>Node15</title>
<g id="a_node15"><a xlink:href="../../d0/df8/TWeapon_8h.html" target="_top" xlink:title=" ">
<polygon fill="white" stroke="#666666" points="285,-79.5 214,-79.5 214,-60.5 285,-60.5 285,-79.5"/>
<text text-anchor="middle" x="249.5" y="-67.5" font-family="Helvetica,sans-Serif" font-size="10.00">TWeapon.h</text>
</a>
</g>
</g>
<!-- Node12&#45;&gt;Node15 -->
<g id="edge18" class="edge">
<title>Node12&#45;&gt;Node15</title>
<path fill="none" stroke="#63b8ff" d="M221.49,-120.8C226.83,-111.31 233.89,-98.76 239.58,-88.63"/>
<polygon fill="#63b8ff" stroke="#63b8ff" points="242.67,-90.28 244.53,-79.84 236.57,-86.84 242.67,-90.28"/>
</g>
<!-- Node16&#45;&gt;Node8 -->
<g id="edge21" class="edge">
<title>Node16&#45;&gt;Node8</title>
<path fill="none" stroke="#63b8ff" d="M451.18,-192.37C466.59,-181.87 492.85,-164 511.35,-151.4"/>
<polygon fill="#63b8ff" stroke="#63b8ff" points="513.43,-154.22 519.72,-145.7 509.49,-148.43 513.43,-154.22"/>
</g>
<!-- Node17&#45;&gt;Node9 -->
<g id="edge23" class="edge">
<title>Node17&#45;&gt;Node9</title>
<path fill="none" stroke="#63b8ff" d="M787.3,-258.33C773.44,-229.73 728.88,-137.81 707.78,-94.28"/>
<polygon fill="#63b8ff" stroke="#63b8ff" points="710.81,-92.51 703.3,-85.04 704.52,-95.56 710.81,-92.51"/>
</g>
<!-- Node18&#45;&gt;Node17 -->
<g id="edge25" class="edge">
<title>Node18&#45;&gt;Node17</title>
<path fill="none" stroke="#63b8ff" d="M746.32,-318.87C754.31,-310.05 766.89,-296.16 776.76,-285.27"/>
<polygon fill="#63b8ff" stroke="#63b8ff" points="779.53,-287.43 783.65,-277.67 774.34,-282.73 779.53,-287.43"/>
</g>
<!-- Node19 -->
<g id="node19" class="node">
<title>Node19</title>
<g id="a_node19"><a xlink:href="../../dc/d2f/TSpawnDescriptor_8h.html" target="_top" xlink:title=" ">
<polygon fill="white" stroke="#666666" points="672,-277.5 559,-277.5 559,-258.5 672,-258.5 672,-277.5"/>
<text text-anchor="middle" x="615.5" y="-265.5" font-family="Helvetica,sans-Serif" font-size="10.00">TSpawnDescriptor.h</text>
</a>
</g>
</g>
<!-- Node18&#45;&gt;Node19 -->
<g id="edge26" class="edge">
<title>Node18&#45;&gt;Node19</title>
<path fill="none" stroke="#63b8ff" d="M720.61,-318.99C700.12,-309.25 666.31,-293.16 642.58,-281.88"/>
<polygon fill="#63b8ff" stroke="#63b8ff" points="643.94,-278.65 633.41,-277.52 640.93,-284.97 643.94,-278.65"/>
</g>
<!-- Node19&#45;&gt;Node6 -->
<g id="edge28" class="edge">
<title>Node19&#45;&gt;Node6</title>
<path fill="none" stroke="#63b8ff" d="M618.74,-258.37C621.75,-250.32 626.4,-237.94 630.53,-226.93"/>
<polygon fill="#63b8ff" stroke="#63b8ff" points="633.88,-227.95 634.11,-217.36 627.33,-225.49 633.88,-227.95"/>
</g>
<!-- Node19&#45;&gt;Node11 -->
<g id="edge27" class="edge">
<title>Node19&#45;&gt;Node11</title>
<path fill="none" stroke="#63b8ff" d="M604.31,-258.37C590.94,-248.06 568.35,-230.65 552.08,-218.09"/>
<polygon fill="#63b8ff" stroke="#63b8ff" points="553.84,-215.03 543.78,-211.7 549.56,-220.58 553.84,-215.03"/>
</g>
<!-- Node21 -->
<g id="node21" class="node">
<title>Node21</title>
<g id="a_node21"><a xlink:title=" ">
<polygon fill="#e0e0e0" stroke="#999999" points="578.5,-393 530.5,-393 530.5,-374 578.5,-374 578.5,-393"/>
<text text-anchor="middle" x="554.5" y="-381" font-family="Helvetica,sans-Serif" font-size="10.00">time.h</text>
</a>
</g>
</g>
<!-- Node20&#45;&gt;Node21 -->
<g id="edge32" class="edge">
<title>Node20&#45;&gt;Node21</title>
<path fill="none" stroke="#63b8ff" d="M554.5,-428.75C554.5,-421.8 554.5,-411.85 554.5,-403.13"/>
<polygon fill="#63b8ff" stroke="#63b8ff" points="558,-403.09 554.5,-393.09 551,-403.09 558,-403.09"/>
</g>
</g>
</svg>
        <g id="navigator" transform="translate(0 0)" fill="#404254">
                <rect fill="#f2f5e9" fill-opacity="0.5" stroke="#606060" stroke-width=".5" x="0" y="0" width="60" height="60"/>
                <use id="zoomplus" xlink:href="#zoomPlus" x="17" y="9" onmousedown="handleZoom(evt,'in')"/>
                <use id="zoomminus" xlink:href="#zoomMin" x="42" y="9" onmousedown="handleZoom(evt,'out')"/>
                <use id="reset" xlink:href="#resetDef" x="30" y="36" onmousedown="handleReset()"/>
                <g id="arrowUp" xlink:href="#dirArrow" transform="translate(30 24)" onmousedown="handlePan(0,-1)">
                  <use xlink:href="#rim" fill="#404040">
                        <set attributeName="fill" to="#808080" begin="arrowUp.mouseover" end="arrowUp.mouseout"/>
                  </use>
                  <path fill="none" stroke="white" stroke-width="1.5" d="M0,-3.0v7 M-2.5,-0.5L0,-3.0L2.5,-0.5"/>
                </g>
                <g id="arrowRight" xlink:href="#dirArrow" transform="rotate(90) translate(36 -43)" onmousedown="handlePan(1,0)">
                  <use xlink:href="#rim" fill="#404040">
                        <set attributeName="fill" to="#808080" begin="arrowRight.mouseover" end="arrowRight.mouseout"/>
                  </use>
                  <path fill="none" stroke="white" stroke-width="1.5" d="M0,-3.0v7 M-2.5,-0.5L0,-3.0L2.5,-0.5"/>
                </g>
                <g id="arrowDown" xlink:href="#dirArrow" transform="rotate(180) translate(-30 -48)" onmousedown="handlePan(0,1)">
                  <use xlink:href="#rim" fill="#404040">
                        <set attributeName="fill" to="#808080" begin="arrowDown.mouseover" end="arrowDown.mouseout"/>
                  </use>
                  <path fill="none" stroke="white" stroke-width="1.5" d="M0,-3.0v7 M-2.5,-0.5L0,-3.0L2.5,-0.5"/>
                </g>
                <g id="arrowLeft" xlink:href="#dirArrow" transform="rotate(270) translate(-36 17)" onmousedown="handlePan(-1,0)">
                  <use xlink:href="#rim" fill="#404040">
                        <set attributeName="fill" to="#808080" begin="arrowLeft.mouseover" end="arrowLeft.mouseout"/>
                  </use>
                  <path fill="none" stroke="white" stroke-width="1.5" d="M0,-3.0v7 M-2.5,-0.5L0,-3.0L2.5,-0.5"/>
                </g>
        </g>
        <svg viewBox="0 0 15 15" width="100%" height="30px" preserveAspectRatio="xMaxYMin meet">
         <g id="arrow_out" transform="scale(0.3 0.3)">
          <a xlink:href="TPlaying_8cpp__incl_org.svg" target="_base">
           <rect id="button" ry="5" rx="5" y="6" x="6" height="38" width="38"
                fill="#f2f5e9" fill-opacity="0.5" stroke="#606060" stroke-width="1.0"/>
           <path id="arrow"
             d="M 11.500037,31.436501 C 11.940474,20.09759 22.043105,11.32322 32.158766,21.979434 L 37.068811,17.246167 C 37.068811,17.246167 37.088388,32 37.088388,32 L 22.160133,31.978069 C 22.160133,31.978069 26.997745,27.140456 26.997745,27.140456 C 18.528582,18.264221 13.291696,25.230495 11.500037,31.436501 z"
             style="fill:#404040;"/>
          </a>
         </g>
        </svg>
</svg>
