<?xml version="1.0" encoding="UTF-8" standalone="no"?>
<!DOCTYPE svg PUBLIC "-//W3C//DTD SVG 1.1//EN"
 "http://www.w3.org/Graphics/SVG/1.1/DTD/svg11.dtd">
<!-- Generated by graphviz version 2.43.0 (0)
 -->
<!-- Title: TimeHolder::UpdateClocks Pages: 1 -->
<svg width="429pt" height="27pt"
 viewBox="0.00 0.00 429.00 27.00" xmlns="http://www.w3.org/2000/svg" xmlns:xlink="http://www.w3.org/1999/xlink">
<g id="graph0" class="graph" transform="scale(1 1) rotate(0) translate(4 23)">
<title>TimeHolder::UpdateClocks</title>
<!-- Node1 -->
<g id="node1" class="node">
<title>Node1</title>
<g id="a_node1"><a xlink:title=" ">
<polygon fill="#999999" stroke="#666666" points="421,-19 274,-19 274,0 421,0 421,-19"/>
<text text-anchor="middle" x="347.5" y="-7" font-family="Helvetica,sans-Serif" font-size="10.00">TimeHolder::UpdateClocks</text>
</a>
</g>
</g>
<!-- Node2 -->
<g id="node2" class="node">
<title>Node2</title>
<g id="a_node2"><a xlink:href="../../d1/d9d/classTimeHolder.html#a07ef47775ad596e4597dde926680eaa1" target="_top" xlink:title=" ">
<polygon fill="white" stroke="#666666" points="238,-19 122,-19 122,0 238,0 238,-19"/>
<text text-anchor="middle" x="180" y="-7" font-family="Helvetica,sans-Serif" font-size="10.00">TimeHolder::GetTact</text>
</a>
</g>
</g>
<!-- Node1&#45;&gt;Node2 -->
<g id="edge1" class="edge">
<title>Node1&#45;&gt;Node2</title>
<path fill="none" stroke="#63b8ff" d="M263.75,-9.5C255.08,-9.5 246.41,-9.5 238.11,-9.5"/>
<polygon fill="#63b8ff" stroke="#63b8ff" points="263.91,-13 273.91,-9.5 263.91,-6 263.91,-13"/>
</g>
<!-- Node3 -->
<g id="node3" class="node">
<title>Node3</title>
<g id="a_node3"><a xlink:href="../../db/dab/classTPlaying.html#a55b9a1e2159468036c18440cd361c749" target="_top" xlink:title=" ">
<polygon fill="white" stroke="#666666" points="86,-19 0,-19 0,0 86,0 86,-19"/>
<text text-anchor="middle" x="43" y="-7" font-family="Helvetica,sans-Serif" font-size="10.00">TPlaying::Play</text>
</a>
</g>
</g>
<!-- Node2&#45;&gt;Node3 -->
<g id="edge2" class="edge">
<title>Node2&#45;&gt;Node3</title>
<path fill="none" stroke="#63b8ff" d="M111.61,-9.5C102.95,-9.5 94.28,-9.5 86.19,-9.5"/>
<polygon fill="#63b8ff" stroke="#63b8ff" points="111.75,-13 121.75,-9.5 111.75,-6 111.75,-13"/>
</g>
</g>
</svg>
