<?xml version="1.0" encoding="UTF-8" standalone="no"?>
<!DOCTYPE svg PUBLIC "-//W3C//DTD SVG 1.1//EN"
 "http://www.w3.org/Graphics/SVG/1.1/DTD/svg11.dtd">
<!-- Generated by graphviz version 2.43.0 (0)
 -->
<!-- Title: code/weapons/tests/TestTWeapon.cpp Pages: 1 -->
<svg width="210pt" height="93pt"
 viewBox="0.00 0.00 210.00 93.00" xmlns="http://www.w3.org/2000/svg" xmlns:xlink="http://www.w3.org/1999/xlink">
<g id="graph0" class="graph" transform="scale(1 1) rotate(0) translate(4 89)">
<title>code/weapons/tests/TestTWeapon.cpp</title>
<!-- Node1 -->
<g id="node1" class="node">
<title>Node1</title>
<g id="a_node1"><a xlink:title=" ">
<polygon fill="#999999" stroke="#666666" points="150.5,-85 37.5,-85 37.5,-55 150.5,-55 150.5,-85"/>
<text text-anchor="start" x="45.5" y="-73" font-family="Helvetica,sans-Serif" font-size="10.00">code/weapons/tests</text>
<text text-anchor="middle" x="94" y="-62" font-family="Helvetica,sans-Serif" font-size="10.00">/TestTWeapon.cpp</text>
</a>
</g>
</g>
<!-- Node2 -->
<g id="node2" class="node">
<title>Node2</title>
<g id="a_node2"><a xlink:title=" ">
<polygon fill="#e0e0e0" stroke="#999999" points="78,-19 0,-19 0,0 78,0 78,-19"/>
<text text-anchor="middle" x="39" y="-7" font-family="Helvetica,sans-Serif" font-size="10.00">gtest/gtest.h</text>
</a>
</g>
</g>
<!-- Node1&#45;&gt;Node2 -->
<g id="edge1" class="edge">
<title>Node1&#45;&gt;Node2</title>
<path fill="none" stroke="#63b8ff" d="M80.69,-54.84C72.7,-46.35 62.52,-35.52 54.22,-26.69"/>
<polygon fill="#63b8ff" stroke="#63b8ff" points="56.64,-24.15 47.24,-19.27 51.54,-28.95 56.64,-24.15"/>
</g>
<!-- Node3 -->
<g id="node3" class="node">
<title>Node3</title>
<g id="a_node3"><a xlink:href="../../d0/df8/TWeapon_8h.html" target="_top" xlink:title=" ">
<polygon fill="white" stroke="#666666" points="202,-19 96,-19 96,0 202,0 202,-19"/>
<text text-anchor="middle" x="149" y="-7" font-family="Helvetica,sans-Serif" font-size="10.00">../code/TWeapon.h</text>
</a>
</g>
</g>
<!-- Node1&#45;&gt;Node3 -->
<g id="edge2" class="edge">
<title>Node1&#45;&gt;Node3</title>
<path fill="none" stroke="#63b8ff" d="M107.31,-54.84C115.3,-46.35 125.48,-35.52 133.78,-26.69"/>
<polygon fill="#63b8ff" stroke="#63b8ff" points="136.46,-28.95 140.76,-19.27 131.36,-24.15 136.46,-28.95"/>
</g>
</g>
</svg>
