<?xml version="1.0" encoding="UTF-8" standalone="no"?>
<!DOCTYPE svg PUBLIC "-//W3C//DTD SVG 1.1//EN"
 "http://www.w3.org/Graphics/SVG/1.1/DTD/svg11.dtd">
<!-- Generated by graphviz version 2.43.0 (0)
 -->
<!-- Title: weapons/tests/TestTWeapon.cpp Pages: 1 -->
<svg width="210pt" height="82pt"
 viewBox="0.00 0.00 210.00 82.00" xmlns="http://www.w3.org/2000/svg" xmlns:xlink="http://www.w3.org/1999/xlink">
<g id="graph0" class="graph" transform="scale(1 1) rotate(0) translate(4 78)">
<title>weapons/tests/TestTWeapon.cpp</title>
<!-- Node1 -->
<g id="node1" class="node">
<title>Node1</title>
<g id="a_node1"><a xlink:title=" ">
<polygon fill="#999999" stroke="#666666" points="181.5,-74 6.5,-74 6.5,-55 181.5,-55 181.5,-74"/>
<text text-anchor="middle" x="94" y="-62" font-family="Helvetica,sans-Serif" font-size="10.00">weapons/tests/TestTWeapon.cpp</text>
</a>
</g>
</g>
<!-- Node2 -->
<g id="node2" class="node">
<title>Node2</title>
<g id="a_node2"><a xlink:title=" ">
<polygon fill="#e0e0e0" stroke="#999999" points="78,-19 0,-19 0,0 78,0 78,-19"/>
<text text-anchor="middle" x="39" y="-7" font-family="Helvetica,sans-Serif" font-size="10.00">gtest/gtest.h</text>
</a>
</g>
</g>
<!-- Node1&#45;&gt;Node2 -->
<g id="edge1" class="edge">
<title>Node1&#45;&gt;Node2</title>
<path fill="none" stroke="#63b8ff" d="M84.92,-54.75C76.91,-47.03 65.04,-35.6 55.38,-26.28"/>
<polygon fill="#63b8ff" stroke="#63b8ff" points="57.54,-23.51 47.91,-19.09 52.69,-28.55 57.54,-23.51"/>
</g>
<!-- Node3 -->
<g id="node3" class="node">
<title>Node3</title>
<g id="a_node3"><a xlink:href="../../d0/df8/TWeapon_8h.html" target="_top" xlink:title=" ">
<polygon fill="white" stroke="#666666" points="202,-19 96,-19 96,0 202,0 202,-19"/>
<text text-anchor="middle" x="149" y="-7" font-family="Helvetica,sans-Serif" font-size="10.00">../code/TWeapon.h</text>
</a>
</g>
</g>
<!-- Node1&#45;&gt;Node3 -->
<g id="edge2" class="edge">
<title>Node1&#45;&gt;Node3</title>
<path fill="none" stroke="#63b8ff" d="M103.08,-54.75C111.09,-47.03 122.96,-35.6 132.62,-26.28"/>
<polygon fill="#63b8ff" stroke="#63b8ff" points="135.31,-28.55 140.09,-19.09 130.46,-23.51 135.31,-28.55"/>
</g>
</g>
</svg>
