<?xml version="1.0" encoding="UTF-8" standalone="no"?>
<!DOCTYPE svg PUBLIC "-//W3C//DTD SVG 1.1//EN"
 "http://www.w3.org/Graphics/SVG/1.1/DTD/svg11.dtd">
<!-- Generated by graphviz version 2.43.0 (0)
 -->
<!-- Title: code/container/tests/TestMyList.cpp Pages: 1 -->
<svg width="435pt" height="269pt"
 viewBox="0.00 0.00 435.00 269.00" xmlns="http://www.w3.org/2000/svg" xmlns:xlink="http://www.w3.org/1999/xlink">
<g id="graph0" class="graph" transform="scale(1 1) rotate(0) translate(4 265)">
<title>code/container/tests/TestMyList.cpp</title>
<!-- Node1 -->
<g id="node1" class="node">
<title>Node1</title>
<g id="a_node1"><a xlink:title=" ">
<polygon fill="#999999" stroke="#666666" points="149,-261 33,-261 33,-231 149,-231 149,-261"/>
<text text-anchor="start" x="41" y="-249" font-family="Helvetica,sans-Serif" font-size="10.00">code/container/tests</text>
<text text-anchor="middle" x="91" y="-238" font-family="Helvetica,sans-Serif" font-size="10.00">/TestMyList.cpp</text>
</a>
</g>
</g>
<!-- Node2 -->
<g id="node2" class="node">
<title>Node2</title>
<g id="a_node2"><a xlink:title=" ">
<polygon fill="#e0e0e0" stroke="#999999" points="78,-195 0,-195 0,-176 78,-176 78,-195"/>
<text text-anchor="middle" x="39" y="-183" font-family="Helvetica,sans-Serif" font-size="10.00">gtest/gtest.h</text>
</a>
</g>
</g>
<!-- Node1&#45;&gt;Node2 -->
<g id="edge1" class="edge">
<title>Node1&#45;&gt;Node2</title>
<path fill="none" stroke="#63b8ff" d="M78.41,-230.84C70.94,-222.43 61.44,-211.74 53.63,-202.96"/>
<polygon fill="#63b8ff" stroke="#63b8ff" points="56.05,-200.41 46.79,-195.27 50.82,-205.07 56.05,-200.41"/>
</g>
<!-- Node3 -->
<g id="node3" class="node">
<title>Node3</title>
<g id="a_node3"><a xlink:href="../../d8/d06/MyList_8h.html" target="_top" xlink:title=" ">
<polygon fill="white" stroke="#666666" points="189.5,-195 96.5,-195 96.5,-176 189.5,-176 189.5,-195"/>
<text text-anchor="middle" x="143" y="-183" font-family="Helvetica,sans-Serif" font-size="10.00">../code/MyList.h</text>
</a>
</g>
</g>
<!-- Node1&#45;&gt;Node3 -->
<g id="edge2" class="edge">
<title>Node1&#45;&gt;Node3</title>
<path fill="none" stroke="#63b8ff" d="M103.59,-230.84C111.06,-222.43 120.56,-211.74 128.37,-202.96"/>
<polygon fill="#63b8ff" stroke="#63b8ff" points="131.18,-205.07 135.21,-195.27 125.95,-200.41 131.18,-205.07"/>
</g>
<!-- Node4 -->
<g id="node4" class="node">
<title>Node4</title>
<g id="a_node4"><a xlink:title=" ">
<polygon fill="#e0e0e0" stroke="#999999" points="127,-79.5 69,-79.5 69,-60.5 127,-60.5 127,-79.5"/>
<text text-anchor="middle" x="98" y="-67.5" font-family="Helvetica,sans-Serif" font-size="10.00">memory</text>
</a>
</g>
</g>
<!-- Node3&#45;&gt;Node4 -->
<g id="edge3" class="edge">
<title>Node3&#45;&gt;Node4</title>
<path fill="none" stroke="#63b8ff" d="M137.12,-175.99C131.33,-167.28 122.56,-153.19 117,-140 110.07,-123.56 104.94,-103.85 101.76,-89.71"/>
<polygon fill="#63b8ff" stroke="#63b8ff" points="105.15,-88.79 99.64,-79.74 98.3,-90.25 105.15,-88.79"/>
</g>
<!-- Node5 -->
<g id="node5" class="node">
<title>Node5</title>
<g id="a_node5"><a xlink:href="../../d0/d93/TShip_8h.html" target="_top" xlink:title=" ">
<polygon fill="white" stroke="#666666" points="251.5,-140 126.5,-140 126.5,-121 251.5,-121 251.5,-140"/>
<text text-anchor="middle" x="189" y="-128" font-family="Helvetica,sans-Serif" font-size="10.00">../../ships/code/TShip.h</text>
</a>
</g>
</g>
<!-- Node3&#45;&gt;Node5 -->
<g id="edge4" class="edge">
<title>Node3&#45;&gt;Node5</title>
<path fill="none" stroke="#63b8ff" d="M150.6,-175.75C157.16,-168.18 166.82,-157.05 174.81,-147.84"/>
<polygon fill="#63b8ff" stroke="#63b8ff" points="177.63,-149.94 181.55,-140.09 172.35,-145.35 177.63,-149.94"/>
</g>
<!-- Node5&#45;&gt;Node4 -->
<g id="edge6" class="edge">
<title>Node5&#45;&gt;Node4</title>
<path fill="none" stroke="#63b8ff" d="M175.57,-120.87C160.92,-111.45 137.24,-96.23 119.9,-85.08"/>
<polygon fill="#63b8ff" stroke="#63b8ff" points="121.79,-82.13 111.48,-79.67 118,-88.02 121.79,-82.13"/>
</g>
<!-- Node6 -->
<g id="node6" class="node">
<title>Node6</title>
<g id="a_node6"><a xlink:title=" ">
<polygon fill="#e0e0e0" stroke="#999999" points="213,-19 169,-19 169,0 213,0 213,-19"/>
<text text-anchor="middle" x="191" y="-7" font-family="Helvetica,sans-Serif" font-size="10.00">string</text>
</a>
</g>
</g>
<!-- Node5&#45;&gt;Node6 -->
<g id="edge5" class="edge">
<title>Node5&#45;&gt;Node6</title>
<path fill="none" stroke="#63b8ff" d="M185.14,-120.85C181.44,-112.04 176.11,-97.87 174,-85 171.84,-71.84 171.58,-68.11 174,-55 175.67,-45.95 179.1,-36.36 182.44,-28.41"/>
<polygon fill="#63b8ff" stroke="#63b8ff" points="185.73,-29.65 186.63,-19.09 179.34,-26.78 185.73,-29.65"/>
</g>
<!-- Node7 -->
<g id="node7" class="node">
<title>Node7</title>
<g id="a_node7"><a xlink:href="../../de/da2/TCapitanInfo_8h.html" target="_top" xlink:title=" ">
<polygon fill="white" stroke="#666666" points="270.5,-79.5 183.5,-79.5 183.5,-60.5 270.5,-60.5 270.5,-79.5"/>
<text text-anchor="middle" x="227" y="-67.5" font-family="Helvetica,sans-Serif" font-size="10.00">TCapitanInfo.h</text>
</a>
</g>
</g>
<!-- Node5&#45;&gt;Node7 -->
<g id="edge7" class="edge">
<title>Node5&#45;&gt;Node7</title>
<path fill="none" stroke="#63b8ff" d="M194.61,-120.87C200.16,-112.31 208.83,-98.97 215.8,-88.24"/>
<polygon fill="#63b8ff" stroke="#63b8ff" points="218.86,-89.96 221.37,-79.67 212.99,-86.15 218.86,-89.96"/>
</g>
<!-- Node8 -->
<g id="node8" class="node">
<title>Node8</title>
<g id="a_node8"><a xlink:href="../../dc/d06/TObjectOnMap_8h.html" target="_top" xlink:title=" ">
<polygon fill="white" stroke="#666666" points="427,-85 289,-85 289,-55 427,-55 427,-85"/>
<text text-anchor="start" x="297" y="-73" font-family="Helvetica,sans-Serif" font-size="10.00">../../base/code/TObjectOn</text>
<text text-anchor="middle" x="358" y="-62" font-family="Helvetica,sans-Serif" font-size="10.00">Map.h</text>
</a>
</g>
</g>
<!-- Node5&#45;&gt;Node8 -->
<g id="edge9" class="edge">
<title>Node5&#45;&gt;Node8</title>
<path fill="none" stroke="#63b8ff" d="M213.57,-120.99C238.11,-112.5 276.53,-99.2 307.58,-88.45"/>
<polygon fill="#63b8ff" stroke="#63b8ff" points="309.06,-91.64 317.37,-85.06 306.78,-85.03 309.06,-91.64"/>
</g>
<!-- Node7&#45;&gt;Node6 -->
<g id="edge8" class="edge">
<title>Node7&#45;&gt;Node6</title>
<path fill="none" stroke="#63b8ff" d="M221.69,-60.37C216.42,-51.81 208.21,-38.47 201.61,-27.74"/>
<polygon fill="#63b8ff" stroke="#63b8ff" points="204.56,-25.85 196.33,-19.17 198.59,-29.52 204.56,-25.85"/>
</g>
</g>
</svg>
