<?xml version="1.0" encoding="UTF-8" standalone="no"?>
<!DOCTYPE svg PUBLIC "-//W3C//DTD SVG 1.1//EN"
 "http://www.w3.org/Graphics/SVG/1.1/DTD/svg11.dtd">
<!-- Generated by graphviz version 2.43.0 (0)
 -->
<!-- Title: ships/code/TCargoWarShip.cpp Pages: 1 -->
<svg width="670pt" height="324pt"
 viewBox="0.00 0.00 669.50 324.00" xmlns="http://www.w3.org/2000/svg" xmlns:xlink="http://www.w3.org/1999/xlink">
<g id="graph0" class="graph" transform="scale(1 1) rotate(0) translate(4 320)">
<title>ships/code/TCargoWarShip.cpp</title>
<!-- Node1 -->
<g id="node1" class="node">
<title>Node1</title>
<g id="a_node1"><a xlink:title=" ">
<polygon fill="#999999" stroke="#666666" points="474,-316 309,-316 309,-297 474,-297 474,-316"/>
<text text-anchor="middle" x="391.5" y="-304" font-family="Helvetica,sans-Serif" font-size="10.00">ships/code/TCargoWarShip.cpp</text>
</a>
</g>
</g>
<!-- Node2 -->
<g id="node2" class="node">
<title>Node2</title>
<g id="a_node2"><a xlink:href="../../db/d87/TCargoWarShip_8h.html" target="_top" xlink:title=" ">
<polygon fill="white" stroke="#666666" points="392,-261 293,-261 293,-242 392,-242 392,-261"/>
<text text-anchor="middle" x="342.5" y="-249" font-family="Helvetica,sans-Serif" font-size="10.00">TCargoWarShip.h</text>
</a>
</g>
</g>
<!-- Node1&#45;&gt;Node2 -->
<g id="edge1" class="edge">
<title>Node1&#45;&gt;Node2</title>
<path fill="none" stroke="#63b8ff" d="M383.41,-296.75C376.34,-289.11 365.91,-277.82 357.35,-268.56"/>
<polygon fill="#63b8ff" stroke="#63b8ff" points="359.8,-266.06 350.44,-261.09 354.66,-270.81 359.8,-266.06"/>
</g>
<!-- Node14 -->
<g id="node14" class="node">
<title>Node14</title>
<g id="a_node14"><a xlink:title=" ">
<polygon fill="#e0e0e0" stroke="#999999" points="470.5,-261 410.5,-261 410.5,-242 470.5,-242 470.5,-261"/>
<text text-anchor="middle" x="440.5" y="-249" font-family="Helvetica,sans-Serif" font-size="10.00">iostream</text>
</a>
</g>
</g>
<!-- Node1&#45;&gt;Node14 -->
<g id="edge16" class="edge">
<title>Node1&#45;&gt;Node14</title>
<path fill="none" stroke="#63b8ff" d="M399.59,-296.75C406.66,-289.11 417.09,-277.82 425.65,-268.56"/>
<polygon fill="#63b8ff" stroke="#63b8ff" points="428.34,-270.81 432.56,-261.09 423.2,-266.06 428.34,-270.81"/>
</g>
<!-- Node3 -->
<g id="node3" class="node">
<title>Node3</title>
<g id="a_node3"><a xlink:href="../../d0/d2a/TWarShip_8h.html" target="_top" xlink:title=" ">
<polygon fill="white" stroke="#666666" points="331,-206 260,-206 260,-187 331,-187 331,-206"/>
<text text-anchor="middle" x="295.5" y="-194" font-family="Helvetica,sans-Serif" font-size="10.00">TWarShip.h</text>
</a>
</g>
</g>
<!-- Node2&#45;&gt;Node3 -->
<g id="edge2" class="edge">
<title>Node2&#45;&gt;Node3</title>
<path fill="none" stroke="#63b8ff" d="M334.74,-241.75C328.03,-234.18 318.16,-223.05 309.99,-213.84"/>
<polygon fill="#63b8ff" stroke="#63b8ff" points="312.37,-211.25 303.12,-206.09 307.13,-215.89 312.37,-211.25"/>
</g>
<!-- Node13 -->
<g id="node13" class="node">
<title>Node13</title>
<g id="a_node13"><a xlink:href="../../d3/d7f/TCargoShip_8h.html" target="_top" xlink:title=" ">
<polygon fill="white" stroke="#666666" points="429.5,-206 349.5,-206 349.5,-187 429.5,-187 429.5,-206"/>
<text text-anchor="middle" x="389.5" y="-194" font-family="Helvetica,sans-Serif" font-size="10.00">TCargoShip.h</text>
</a>
</g>
</g>
<!-- Node2&#45;&gt;Node13 -->
<g id="edge14" class="edge">
<title>Node2&#45;&gt;Node13</title>
<path fill="none" stroke="#63b8ff" d="M350.26,-241.75C356.97,-234.18 366.84,-223.05 375.01,-213.84"/>
<polygon fill="#63b8ff" stroke="#63b8ff" points="377.87,-215.89 381.88,-206.09 372.63,-211.25 377.87,-215.89"/>
</g>
<!-- Node4 -->
<g id="node4" class="node">
<title>Node4</title>
<g id="a_node4"><a xlink:href="../../dc/d2c/TWeaponHolder_8h.html" target="_top" xlink:title=" ">
<polygon fill="white" stroke="#666666" points="302,-151 197,-151 197,-121 302,-121 302,-151"/>
<text text-anchor="start" x="205" y="-139" font-family="Helvetica,sans-Serif" font-size="10.00">../../weapons/code</text>
<text text-anchor="middle" x="249.5" y="-128" font-family="Helvetica,sans-Serif" font-size="10.00">/TWeaponHolder.h</text>
</a>
</g>
</g>
<!-- Node3&#45;&gt;Node4 -->
<g id="edge3" class="edge">
<title>Node3&#45;&gt;Node4</title>
<path fill="none" stroke="#63b8ff" d="M288.71,-186.87C282.99,-179.59 274.55,-168.85 266.96,-159.2"/>
<polygon fill="#63b8ff" stroke="#63b8ff" points="269.53,-156.81 260.6,-151.11 264.03,-161.14 269.53,-156.81"/>
</g>
<!-- Node9 -->
<g id="node9" class="node">
<title>Node9</title>
<g id="a_node9"><a xlink:href="../../d0/d93/TShip_8h.html" target="_top" xlink:title=" ">
<polygon fill="white" stroke="#666666" points="416,-145.5 363,-145.5 363,-126.5 416,-126.5 416,-145.5"/>
<text text-anchor="middle" x="389.5" y="-133.5" font-family="Helvetica,sans-Serif" font-size="10.00">TShip.h</text>
</a>
</g>
</g>
<!-- Node3&#45;&gt;Node9 -->
<g id="edge8" class="edge">
<title>Node3&#45;&gt;Node9</title>
<path fill="none" stroke="#63b8ff" d="M309.37,-186.87C324.5,-177.45 348.96,-162.23 366.88,-151.08"/>
<polygon fill="#63b8ff" stroke="#63b8ff" points="368.93,-153.92 375.57,-145.67 365.23,-147.98 368.93,-153.92"/>
</g>
<!-- Node5 -->
<g id="node5" class="node">
<title>Node5</title>
<g id="a_node5"><a xlink:title=" ">
<polygon fill="#e0e0e0" stroke="#999999" points="361.5,-79.5 303.5,-79.5 303.5,-60.5 361.5,-60.5 361.5,-79.5"/>
<text text-anchor="middle" x="332.5" y="-67.5" font-family="Helvetica,sans-Serif" font-size="10.00">memory</text>
</a>
</g>
</g>
<!-- Node4&#45;&gt;Node5 -->
<g id="edge4" class="edge">
<title>Node4&#45;&gt;Node5</title>
<path fill="none" stroke="#63b8ff" d="M267.92,-120.8C281.24,-110.53 299.21,-96.67 312.81,-86.18"/>
<polygon fill="#63b8ff" stroke="#63b8ff" points="315.25,-88.72 321.03,-79.84 310.97,-83.18 315.25,-88.72"/>
</g>
<!-- Node6 -->
<g id="node6" class="node">
<title>Node6</title>
<g id="a_node6"><a xlink:title=" ">
<polygon fill="#e0e0e0" stroke="#999999" points="47,-79.5 0,-79.5 0,-60.5 47,-60.5 47,-79.5"/>
<text text-anchor="middle" x="23.5" y="-67.5" font-family="Helvetica,sans-Serif" font-size="10.00">vector</text>
</a>
</g>
</g>
<!-- Node4&#45;&gt;Node6 -->
<g id="edge5" class="edge">
<title>Node4&#45;&gt;Node6</title>
<path fill="none" stroke="#63b8ff" d="M196.87,-123.58C157.71,-114.56 103.2,-100.86 56.5,-85 55.06,-84.51 53.6,-83.99 52.13,-83.45"/>
<polygon fill="#63b8ff" stroke="#63b8ff" points="53.1,-80.06 42.51,-79.63 50.51,-86.57 53.1,-80.06"/>
</g>
<!-- Node7 -->
<g id="node7" class="node">
<title>Node7</title>
<g id="a_node7"><a xlink:href="../../d8/d66/enum__place__on__ship_8h.html" target="_top" xlink:title=" ">
<polygon fill="white" stroke="#666666" points="195.5,-85 65.5,-85 65.5,-55 195.5,-55 195.5,-85"/>
<text text-anchor="start" x="73.5" y="-73" font-family="Helvetica,sans-Serif" font-size="10.00">../../enums/enum_place</text>
<text text-anchor="middle" x="130.5" y="-62" font-family="Helvetica,sans-Serif" font-size="10.00">_on_ship.h</text>
</a>
</g>
</g>
<!-- Node4&#45;&gt;Node7 -->
<g id="edge6" class="edge">
<title>Node4&#45;&gt;Node7</title>
<path fill="none" stroke="#63b8ff" d="M223.38,-120.95C206.41,-111.83 184.08,-99.82 165.57,-89.86"/>
<polygon fill="#63b8ff" stroke="#63b8ff" points="167.02,-86.67 156.55,-85.01 163.7,-92.83 167.02,-86.67"/>
</g>
<!-- Node8 -->
<g id="node8" class="node">
<title>Node8</title>
<g id="a_node8"><a xlink:href="../../d0/df8/TWeapon_8h.html" target="_top" xlink:title=" ">
<polygon fill="white" stroke="#666666" points="285,-79.5 214,-79.5 214,-60.5 285,-60.5 285,-79.5"/>
<text text-anchor="middle" x="249.5" y="-67.5" font-family="Helvetica,sans-Serif" font-size="10.00">TWeapon.h</text>
</a>
</g>
</g>
<!-- Node4&#45;&gt;Node8 -->
<g id="edge7" class="edge">
<title>Node4&#45;&gt;Node8</title>
<path fill="none" stroke="#63b8ff" d="M249.5,-120.8C249.5,-111.7 249.5,-99.79 249.5,-89.9"/>
<polygon fill="#63b8ff" stroke="#63b8ff" points="253,-89.84 249.5,-79.84 246,-89.84 253,-89.84"/>
</g>
<!-- Node9&#45;&gt;Node5 -->
<g id="edge10" class="edge">
<title>Node9&#45;&gt;Node5</title>
<path fill="none" stroke="#63b8ff" d="M381.81,-126.37C373.02,-116.5 358.43,-100.11 347.39,-87.72"/>
<polygon fill="#63b8ff" stroke="#63b8ff" points="349.7,-85.05 340.43,-79.91 344.47,-89.7 349.7,-85.05"/>
</g>
<!-- Node10 -->
<g id="node10" class="node">
<title>Node10</title>
<g id="a_node10"><a xlink:title=" ">
<polygon fill="#e0e0e0" stroke="#999999" points="447.5,-19 403.5,-19 403.5,0 447.5,0 447.5,-19"/>
<text text-anchor="middle" x="425.5" y="-7" font-family="Helvetica,sans-Serif" font-size="10.00">string</text>
</a>
</g>
</g>
<!-- Node9&#45;&gt;Node10 -->
<g id="edge9" class="edge">
<title>Node9&#45;&gt;Node10</title>
<path fill="none" stroke="#63b8ff" d="M391.14,-126.49C394.05,-111.77 400.59,-80.65 408.5,-55 411.21,-46.21 414.78,-36.65 417.94,-28.66"/>
<polygon fill="#63b8ff" stroke="#63b8ff" points="421.24,-29.83 421.77,-19.25 414.76,-27.19 421.24,-29.83"/>
</g>
<!-- Node11 -->
<g id="node11" class="node">
<title>Node11</title>
<g id="a_node11"><a xlink:href="../../de/da2/TCapitanInfo_8h.html" target="_top" xlink:title=" ">
<polygon fill="white" stroke="#666666" points="505,-79.5 418,-79.5 418,-60.5 505,-60.5 505,-79.5"/>
<text text-anchor="middle" x="461.5" y="-67.5" font-family="Helvetica,sans-Serif" font-size="10.00">TCapitanInfo.h</text>
</a>
</g>
</g>
<!-- Node9&#45;&gt;Node11 -->
<g id="edge11" class="edge">
<title>Node9&#45;&gt;Node11</title>
<path fill="none" stroke="#63b8ff" d="M399.21,-126.37C410.63,-116.21 429.82,-99.16 443.89,-86.65"/>
<polygon fill="#63b8ff" stroke="#63b8ff" points="446.33,-89.16 451.48,-79.91 441.68,-83.93 446.33,-89.16"/>
</g>
<!-- Node12 -->
<g id="node12" class="node">
<title>Node12</title>
<g id="a_node12"><a xlink:href="../../dc/d06/TObjectOnMap_8h.html" target="_top" xlink:title=" ">
<polygon fill="white" stroke="#666666" points="661.5,-85 523.5,-85 523.5,-55 661.5,-55 661.5,-85"/>
<text text-anchor="start" x="531.5" y="-73" font-family="Helvetica,sans-Serif" font-size="10.00">../../base/code/TObjectOn</text>
<text text-anchor="middle" x="592.5" y="-62" font-family="Helvetica,sans-Serif" font-size="10.00">Map.h</text>
</a>
</g>
</g>
<!-- Node9&#45;&gt;Node12 -->
<g id="edge13" class="edge">
<title>Node9&#45;&gt;Node12</title>
<path fill="none" stroke="#63b8ff" d="M416.04,-126.63C446.85,-116.92 498.49,-100.64 537.96,-88.19"/>
<polygon fill="#63b8ff" stroke="#63b8ff" points="539.23,-91.46 547.72,-85.12 537.13,-84.79 539.23,-91.46"/>
</g>
<!-- Node11&#45;&gt;Node10 -->
<g id="edge12" class="edge">
<title>Node11&#45;&gt;Node10</title>
<path fill="none" stroke="#63b8ff" d="M456.19,-60.37C450.92,-51.81 442.71,-38.47 436.11,-27.74"/>
<polygon fill="#63b8ff" stroke="#63b8ff" points="439.06,-25.85 430.83,-19.17 433.09,-29.52 439.06,-25.85"/>
</g>
<!-- Node13&#45;&gt;Node9 -->
<g id="edge15" class="edge">
<title>Node13&#45;&gt;Node9</title>
<path fill="none" stroke="#63b8ff" d="M389.5,-186.87C389.5,-178.75 389.5,-166.31 389.5,-155.89"/>
<polygon fill="#63b8ff" stroke="#63b8ff" points="393,-155.67 389.5,-145.67 386,-155.67 393,-155.67"/>
</g>
</g>
</svg>
