<?xml version="1.0" encoding="UTF-8" standalone="no"?>
<!DOCTYPE svg PUBLIC "-//W3C//DTD SVG 1.1//EN"
 "http://www.w3.org/Graphics/SVG/1.1/DTD/svg11.dtd">
<!-- Generated by graphviz version 2.43.0 (0)
 -->
<!-- Title: code/ships/code/TCargoWarShip.cpp Pages: 1 -->
<!--zoomable 335 -->
<svg id="main" version="1.1" xmlns="http://www.w3.org/2000/svg" xmlns:xlink="http://www.w3.org/1999/xlink" xml:space="preserve" onload="init(evt)">
<style type="text/css"><![CDATA[
.edge:hover path { stroke: red; }
.edge:hover polygon { stroke: red; fill: red; }
]]></style>
<script type="text/javascript"><![CDATA[
var edges = document.getElementsByTagName('g');
if (edges && edges.length) {
  for (var i=0;i<edges.length;i++) {
    if (edges[i].id.substr(0,4)=='edge') {
      edges[i].setAttribute('class','edge');
    }
  }
}
]]></script>
        <defs>
                <circle id="rim" cx="0" cy="0" r="7"/>
                <circle id="rim2" cx="0" cy="0" r="3.5"/>
                <g id="zoomPlus">
                        <use xlink:href="#rim" fill="#404040">
                                <set attributeName="fill" to="#808080" begin="zoomplus.mouseover" end="zoomplus.mouseout"/>
                        </use>
                        <path d="M-4,0h8M0,-4v8" fill="none" stroke="white" stroke-width="1.5" pointer-events="none"/>
                </g>
                <g id="zoomMin">
                        <use xlink:href="#rim" fill="#404040">
                                <set attributeName="fill" to="#808080" begin="zoomminus.mouseover" end="zoomminus.mouseout"/>
                        </use>
                        <path d="M-4,0h8" fill="none" stroke="white" stroke-width="1.5" pointer-events="none"/>
                </g>
                <g id="dirArrow">
                        <path fill="none" stroke="white" stroke-width="1.5" d="M0,-3.0v7 M-2.5,-0.5L0,-3.0L2.5,-0.5"/>
                </g>
               <g id="resetDef">
                       <use xlink:href="#rim2" fill="#404040">
                               <set attributeName="fill" to="#808080" begin="reset.mouseover" end="reset.mouseout"/>
                       </use>
               </g>
        </defs>

<script type="text/javascript">
var viewWidth = 670;
var viewHeight = 335;
var sectionId = 'dynsection-0';
</script>
<script xlink:href="../../svgpan.js"/>
<svg id="graph" class="graph">
<g id="viewport">
<title>code/ships/code/TCargoWarShip.cpp</title>
<!-- Node1 -->
<g id="node1" class="node">
<title>Node1</title>
<g id="a_node1"><a xlink:title=" ">
<polygon fill="#999999" stroke="#666666" points="466.5,-327 316.5,-327 316.5,-297 466.5,-297 466.5,-327"/>
<text text-anchor="start" x="324.5" y="-315" font-family="Helvetica,sans-Serif" font-size="10.00">code/ships/code/TCargoWar</text>
<text text-anchor="middle" x="391.5" y="-304" font-family="Helvetica,sans-Serif" font-size="10.00">Ship.cpp</text>
</a>
</g>
</g>
<!-- Node2 -->
<g id="node2" class="node">
<title>Node2</title>
<g id="a_node2"><a xlink:href="../../db/d87/TCargoWarShip_8h.html" target="_top" xlink:title=" ">
<polygon fill="white" stroke="#666666" points="392,-261 293,-261 293,-242 392,-242 392,-261"/>
<text text-anchor="middle" x="342.5" y="-249" font-family="Helvetica,sans-Serif" font-size="10.00">TCargoWarShip.h</text>
</a>
</g>
</g>
<!-- Node1&#45;&gt;Node2 -->
<g id="edge1" class="edge">
<title>Node1&#45;&gt;Node2</title>
<path fill="none" stroke="#63b8ff" d="M379.64,-296.84C372.6,-288.43 363.64,-277.74 356.29,-268.96"/>
<polygon fill="#63b8ff" stroke="#63b8ff" points="358.95,-266.68 349.84,-261.27 353.58,-271.18 358.95,-266.68"/>
</g>
<!-- Node14 -->
<g id="node14" class="node">
<title>Node14</title>
<g id="a_node14"><a xlink:title=" ">
<polygon fill="#e0e0e0" stroke="#999999" points="470.5,-261 410.5,-261 410.5,-242 470.5,-242 470.5,-261"/>
<text text-anchor="middle" x="440.5" y="-249" font-family="Helvetica,sans-Serif" font-size="10.00">iostream</text>
</a>
</g>
</g>
<!-- Node1&#45;&gt;Node14 -->
<g id="edge16" class="edge">
<title>Node1&#45;&gt;Node14</title>
<path fill="none" stroke="#63b8ff" d="M403.36,-296.84C410.4,-288.43 419.36,-277.74 426.71,-268.96"/>
<polygon fill="#63b8ff" stroke="#63b8ff" points="429.42,-271.18 433.16,-261.27 424.05,-266.68 429.42,-271.18"/>
</g>
<!-- Node3 -->
<g id="node3" class="node">
<title>Node3</title>
<g id="a_node3"><a xlink:href="../../d0/d2a/TWarShip_8h.html" target="_top" xlink:title=" ">
<polygon fill="white" stroke="#666666" points="331,-206 260,-206 260,-187 331,-187 331,-206"/>
<text text-anchor="middle" x="295.5" y="-194" font-family="Helvetica,sans-Serif" font-size="10.00">TWarShip.h</text>
</a>
</g>
</g>
<!-- Node2&#45;&gt;Node3 -->
<g id="edge2" class="edge">
<title>Node2&#45;&gt;Node3</title>
<path fill="none" stroke="#63b8ff" d="M334.74,-241.75C328.03,-234.18 318.16,-223.05 309.99,-213.84"/>
<polygon fill="#63b8ff" stroke="#63b8ff" points="312.37,-211.25 303.12,-206.09 307.13,-215.89 312.37,-211.25"/>
</g>
<!-- Node13 -->
<g id="node13" class="node">
<title>Node13</title>
<g id="a_node13"><a xlink:href="../../d3/d7f/TCargoShip_8h.html" target="_top" xlink:title=" ">
<polygon fill="white" stroke="#666666" points="429.5,-206 349.5,-206 349.5,-187 429.5,-187 429.5,-206"/>
<text text-anchor="middle" x="389.5" y="-194" font-family="Helvetica,sans-Serif" font-size="10.00">TCargoShip.h</text>
</a>
</g>
</g>
<!-- Node2&#45;&gt;Node13 -->
<g id="edge14" class="edge">
<title>Node2&#45;&gt;Node13</title>
<path fill="none" stroke="#63b8ff" d="M350.26,-241.75C356.97,-234.18 366.84,-223.05 375.01,-213.84"/>
<polygon fill="#63b8ff" stroke="#63b8ff" points="377.87,-215.89 381.88,-206.09 372.63,-211.25 377.87,-215.89"/>
</g>
<!-- Node4 -->
<g id="node4" class="node">
<title>Node4</title>
<g id="a_node4"><a xlink:href="../../dc/d2c/TWeaponHolder_8h.html" target="_top" xlink:title=" ">
<polygon fill="white" stroke="#666666" points="302,-151 197,-151 197,-121 302,-121 302,-151"/>
<text text-anchor="start" x="205" y="-139" font-family="Helvetica,sans-Serif" font-size="10.00">../../weapons/code</text>
<text text-anchor="middle" x="249.5" y="-128" font-family="Helvetica,sans-Serif" font-size="10.00">/TWeaponHolder.h</text>
</a>
</g>
</g>
<!-- Node3&#45;&gt;Node4 -->
<g id="edge3" class="edge">
<title>Node3&#45;&gt;Node4</title>
<path fill="none" stroke="#63b8ff" d="M288.71,-186.87C282.99,-179.59 274.55,-168.85 266.96,-159.2"/>
<polygon fill="#63b8ff" stroke="#63b8ff" points="269.53,-156.81 260.6,-151.11 264.03,-161.14 269.53,-156.81"/>
</g>
<!-- Node9 -->
<g id="node9" class="node">
<title>Node9</title>
<g id="a_node9"><a xlink:href="../../d0/d93/TShip_8h.html" target="_top" xlink:title=" ">
<polygon fill="white" stroke="#666666" points="416,-145.5 363,-145.5 363,-126.5 416,-126.5 416,-145.5"/>
<text text-anchor="middle" x="389.5" y="-133.5" font-family="Helvetica,sans-Serif" font-size="10.00">TShip.h</text>
</a>
</g>
</g>
<!-- Node3&#45;&gt;Node9 -->
<g id="edge8" class="edge">
<title>Node3&#45;&gt;Node9</title>
<path fill="none" stroke="#63b8ff" d="M309.37,-186.87C324.5,-177.45 348.96,-162.23 366.88,-151.08"/>
<polygon fill="#63b8ff" stroke="#63b8ff" points="368.93,-153.92 375.57,-145.67 365.23,-147.98 368.93,-153.92"/>
</g>
<!-- Node5 -->
<g id="node5" class="node">
<title>Node5</title>
<g id="a_node5"><a xlink:title=" ">
<polygon fill="#e0e0e0" stroke="#999999" points="361.5,-79.5 303.5,-79.5 303.5,-60.5 361.5,-60.5 361.5,-79.5"/>
<text text-anchor="middle" x="332.5" y="-67.5" font-family="Helvetica,sans-Serif" font-size="10.00">memory</text>
</a>
</g>
</g>
<!-- Node4&#45;&gt;Node5 -->
<g id="edge4" class="edge">
<title>Node4&#45;&gt;Node5</title>
<path fill="none" stroke="#63b8ff" d="M267.92,-120.8C281.24,-110.53 299.21,-96.67 312.81,-86.18"/>
<polygon fill="#63b8ff" stroke="#63b8ff" points="315.25,-88.72 321.03,-79.84 310.97,-83.18 315.25,-88.72"/>
</g>
<!-- Node6 -->
<g id="node6" class="node">
<title>Node6</title>
<g id="a_node6"><a xlink:title=" ">
<polygon fill="#e0e0e0" stroke="#999999" points="47,-79.5 0,-79.5 0,-60.5 47,-60.5 47,-79.5"/>
<text text-anchor="middle" x="23.5" y="-67.5" font-family="Helvetica,sans-Serif" font-size="10.00">vector</text>
</a>
</g>
</g>
<!-- Node4&#45;&gt;Node6 -->
<g id="edge5" class="edge">
<title>Node4&#45;&gt;Node6</title>
<path fill="none" stroke="#63b8ff" d="M196.87,-123.58C157.71,-114.56 103.2,-100.86 56.5,-85 55.06,-84.51 53.6,-83.99 52.13,-83.45"/>
<polygon fill="#63b8ff" stroke="#63b8ff" points="53.1,-80.06 42.51,-79.63 50.51,-86.57 53.1,-80.06"/>
</g>
<!-- Node7 -->
<g id="node7" class="node">
<title>Node7</title>
<g id="a_node7"><a xlink:href="../../d8/d66/enum__place__on__ship_8h.html" target="_top" xlink:title=" ">
<polygon fill="white" stroke="#666666" points="195.5,-85 65.5,-85 65.5,-55 195.5,-55 195.5,-85"/>
<text text-anchor="start" x="73.5" y="-73" font-family="Helvetica,sans-Serif" font-size="10.00">../../enums/enum_place</text>
<text text-anchor="middle" x="130.5" y="-62" font-family="Helvetica,sans-Serif" font-size="10.00">_on_ship.h</text>
</a>
</g>
</g>
<!-- Node4&#45;&gt;Node7 -->
<g id="edge6" class="edge">
<title>Node4&#45;&gt;Node7</title>
<path fill="none" stroke="#63b8ff" d="M223.38,-120.95C206.41,-111.83 184.08,-99.82 165.57,-89.86"/>
<polygon fill="#63b8ff" stroke="#63b8ff" points="167.02,-86.67 156.55,-85.01 163.7,-92.83 167.02,-86.67"/>
</g>
<!-- Node8 -->
<g id="node8" class="node">
<title>Node8</title>
<g id="a_node8"><a xlink:href="../../d0/df8/TWeapon_8h.html" target="_top" xlink:title=" ">
<polygon fill="white" stroke="#666666" points="285,-79.5 214,-79.5 214,-60.5 285,-60.5 285,-79.5"/>
<text text-anchor="middle" x="249.5" y="-67.5" font-family="Helvetica,sans-Serif" font-size="10.00">TWeapon.h</text>
</a>
</g>
</g>
<!-- Node4&#45;&gt;Node8 -->
<g id="edge7" class="edge">
<title>Node4&#45;&gt;Node8</title>
<path fill="none" stroke="#63b8ff" d="M249.5,-120.8C249.5,-111.7 249.5,-99.79 249.5,-89.9"/>
<polygon fill="#63b8ff" stroke="#63b8ff" points="253,-89.84 249.5,-79.84 246,-89.84 253,-89.84"/>
</g>
<!-- Node9&#45;&gt;Node5 -->
<g id="edge10" class="edge">
<title>Node9&#45;&gt;Node5</title>
<path fill="none" stroke="#63b8ff" d="M381.81,-126.37C373.02,-116.5 358.43,-100.11 347.39,-87.72"/>
<polygon fill="#63b8ff" stroke="#63b8ff" points="349.7,-85.05 340.43,-79.91 344.47,-89.7 349.7,-85.05"/>
</g>
<!-- Node10 -->
<g id="node10" class="node">
<title>Node10</title>
<g id="a_node10"><a xlink:title=" ">
<polygon fill="#e0e0e0" stroke="#999999" points="447.5,-19 403.5,-19 403.5,0 447.5,0 447.5,-19"/>
<text text-anchor="middle" x="425.5" y="-7" font-family="Helvetica,sans-Serif" font-size="10.00">string</text>
</a>
</g>
</g>
<!-- Node9&#45;&gt;Node10 -->
<g id="edge9" class="edge">
<title>Node9&#45;&gt;Node10</title>
<path fill="none" stroke="#63b8ff" d="M391.14,-126.49C394.05,-111.77 400.59,-80.65 408.5,-55 411.21,-46.21 414.78,-36.65 417.94,-28.66"/>
<polygon fill="#63b8ff" stroke="#63b8ff" points="421.24,-29.83 421.77,-19.25 414.76,-27.19 421.24,-29.83"/>
</g>
<!-- Node11 -->
<g id="node11" class="node">
<title>Node11</title>
<g id="a_node11"><a xlink:href="../../de/da2/TCapitanInfo_8h.html" target="_top" xlink:title=" ">
<polygon fill="white" stroke="#666666" points="505,-79.5 418,-79.5 418,-60.5 505,-60.5 505,-79.5"/>
<text text-anchor="middle" x="461.5" y="-67.5" font-family="Helvetica,sans-Serif" font-size="10.00">TCapitanInfo.h</text>
</a>
</g>
</g>
<!-- Node9&#45;&gt;Node11 -->
<g id="edge11" class="edge">
<title>Node9&#45;&gt;Node11</title>
<path fill="none" stroke="#63b8ff" d="M399.21,-126.37C410.63,-116.21 429.82,-99.16 443.89,-86.65"/>
<polygon fill="#63b8ff" stroke="#63b8ff" points="446.33,-89.16 451.48,-79.91 441.68,-83.93 446.33,-89.16"/>
</g>
<!-- Node12 -->
<g id="node12" class="node">
<title>Node12</title>
<g id="a_node12"><a xlink:href="../../dc/d06/TObjectOnMap_8h.html" target="_top" xlink:title=" ">
<polygon fill="white" stroke="#666666" points="661.5,-85 523.5,-85 523.5,-55 661.5,-55 661.5,-85"/>
<text text-anchor="start" x="531.5" y="-73" font-family="Helvetica,sans-Serif" font-size="10.00">../../base/code/TObjectOn</text>
<text text-anchor="middle" x="592.5" y="-62" font-family="Helvetica,sans-Serif" font-size="10.00">Map.h</text>
</a>
</g>
</g>
<!-- Node9&#45;&gt;Node12 -->
<g id="edge13" class="edge">
<title>Node9&#45;&gt;Node12</title>
<path fill="none" stroke="#63b8ff" d="M416.04,-126.63C446.85,-116.92 498.49,-100.64 537.96,-88.19"/>
<polygon fill="#63b8ff" stroke="#63b8ff" points="539.23,-91.46 547.72,-85.12 537.13,-84.79 539.23,-91.46"/>
</g>
<!-- Node11&#45;&gt;Node10 -->
<g id="edge12" class="edge">
<title>Node11&#45;&gt;Node10</title>
<path fill="none" stroke="#63b8ff" d="M456.19,-60.37C450.92,-51.81 442.71,-38.47 436.11,-27.74"/>
<polygon fill="#63b8ff" stroke="#63b8ff" points="439.06,-25.85 430.83,-19.17 433.09,-29.52 439.06,-25.85"/>
</g>
<!-- Node13&#45;&gt;Node9 -->
<g id="edge15" class="edge">
<title>Node13&#45;&gt;Node9</title>
<path fill="none" stroke="#63b8ff" d="M389.5,-186.87C389.5,-178.75 389.5,-166.31 389.5,-155.89"/>
<polygon fill="#63b8ff" stroke="#63b8ff" points="393,-155.67 389.5,-145.67 386,-155.67 393,-155.67"/>
</g>
</g>
</svg>
        <g id="navigator" transform="translate(0 0)" fill="#404254">
                <rect fill="#f2f5e9" fill-opacity="0.5" stroke="#606060" stroke-width=".5" x="0" y="0" width="60" height="60"/>
                <use id="zoomplus" xlink:href="#zoomPlus" x="17" y="9" onmousedown="handleZoom(evt,'in')"/>
                <use id="zoomminus" xlink:href="#zoomMin" x="42" y="9" onmousedown="handleZoom(evt,'out')"/>
                <use id="reset" xlink:href="#resetDef" x="30" y="36" onmousedown="handleReset()"/>
                <g id="arrowUp" xlink:href="#dirArrow" transform="translate(30 24)" onmousedown="handlePan(0,-1)">
                  <use xlink:href="#rim" fill="#404040">
                        <set attributeName="fill" to="#808080" begin="arrowUp.mouseover" end="arrowUp.mouseout"/>
                  </use>
                  <path fill="none" stroke="white" stroke-width="1.5" d="M0,-3.0v7 M-2.5,-0.5L0,-3.0L2.5,-0.5"/>
                </g>
                <g id="arrowRight" xlink:href="#dirArrow" transform="rotate(90) translate(36 -43)" onmousedown="handlePan(1,0)">
                  <use xlink:href="#rim" fill="#404040">
                        <set attributeName="fill" to="#808080" begin="arrowRight.mouseover" end="arrowRight.mouseout"/>
                  </use>
                  <path fill="none" stroke="white" stroke-width="1.5" d="M0,-3.0v7 M-2.5,-0.5L0,-3.0L2.5,-0.5"/>
                </g>
                <g id="arrowDown" xlink:href="#dirArrow" transform="rotate(180) translate(-30 -48)" onmousedown="handlePan(0,1)">
                  <use xlink:href="#rim" fill="#404040">
                        <set attributeName="fill" to="#808080" begin="arrowDown.mouseover" end="arrowDown.mouseout"/>
                  </use>
                  <path fill="none" stroke="white" stroke-width="1.5" d="M0,-3.0v7 M-2.5,-0.5L0,-3.0L2.5,-0.5"/>
                </g>
                <g id="arrowLeft" xlink:href="#dirArrow" transform="rotate(270) translate(-36 17)" onmousedown="handlePan(-1,0)">
                  <use xlink:href="#rim" fill="#404040">
                        <set attributeName="fill" to="#808080" begin="arrowLeft.mouseover" end="arrowLeft.mouseout"/>
                  </use>
                  <path fill="none" stroke="white" stroke-width="1.5" d="M0,-3.0v7 M-2.5,-0.5L0,-3.0L2.5,-0.5"/>
                </g>
        </g>
        <svg viewBox="0 0 15 15" width="100%" height="30px" preserveAspectRatio="xMaxYMin meet">
         <g id="arrow_out" transform="scale(0.3 0.3)">
          <a xlink:href="TCargoWarShip_8cpp__incl_org.svg" target="_base">
           <rect id="button" ry="5" rx="5" y="6" x="6" height="38" width="38"
                fill="#f2f5e9" fill-opacity="0.5" stroke="#606060" stroke-width="1.0"/>
           <path id="arrow"
             d="M 11.500037,31.436501 C 11.940474,20.09759 22.043105,11.32322 32.158766,21.979434 L 37.068811,17.246167 C 37.068811,17.246167 37.088388,32 37.088388,32 L 22.160133,31.978069 C 22.160133,31.978069 26.997745,27.140456 26.997745,27.140456 C 18.528582,18.264221 13.291696,25.230495 11.500037,31.436501 z"
             style="fill:#404040;"/>
          </a>
         </g>
        </svg>
</svg>
