<?xml version="1.0" encoding="UTF-8" standalone="no"?>
<!DOCTYPE svg PUBLIC "-//W3C//DTD SVG 1.1//EN"
 "http://www.w3.org/Graphics/SVG/1.1/DTD/svg11.dtd">
<!-- Generated by graphviz version 2.43.0 (0)
 -->
<!-- Title: container/code/MyList.h Pages: 1 -->
<svg width="366pt" height="203pt"
 viewBox="0.00 0.00 366.00 203.00" xmlns="http://www.w3.org/2000/svg" xmlns:xlink="http://www.w3.org/1999/xlink">
<g id="graph0" class="graph" transform="scale(1 1) rotate(0) translate(4 199)">
<title>container/code/MyList.h</title>
<!-- Node1 -->
<g id="node1" class="node">
<title>Node1</title>
<g id="a_node1"><a xlink:title=" ">
<polygon fill="#999999" stroke="#666666" points="140.5,-195 7.5,-195 7.5,-176 140.5,-176 140.5,-195"/>
<text text-anchor="middle" x="74" y="-183" font-family="Helvetica,sans-Serif" font-size="10.00">container/code/MyList.h</text>
</a>
</g>
</g>
<!-- Node2 -->
<g id="node2" class="node">
<title>Node2</title>
<g id="a_node2"><a xlink:title=" ">
<polygon fill="#e0e0e0" stroke="#999999" points="58,-79.5 0,-79.5 0,-60.5 58,-60.5 58,-79.5"/>
<text text-anchor="middle" x="29" y="-67.5" font-family="Helvetica,sans-Serif" font-size="10.00">memory</text>
</a>
</g>
</g>
<!-- Node1&#45;&gt;Node2 -->
<g id="edge1" class="edge">
<title>Node1&#45;&gt;Node2</title>
<path fill="none" stroke="#63b8ff" d="M68.12,-175.99C62.33,-167.28 53.56,-153.19 48,-140 41.07,-123.56 35.94,-103.85 32.76,-89.71"/>
<polygon fill="#63b8ff" stroke="#63b8ff" points="36.15,-88.79 30.64,-79.74 29.3,-90.25 36.15,-88.79"/>
</g>
<!-- Node3 -->
<g id="node3" class="node">
<title>Node3</title>
<g id="a_node3"><a xlink:href="../../d0/d93/TShip_8h.html" target="_top" xlink:title=" ">
<polygon fill="white" stroke="#666666" points="182.5,-140 57.5,-140 57.5,-121 182.5,-121 182.5,-140"/>
<text text-anchor="middle" x="120" y="-128" font-family="Helvetica,sans-Serif" font-size="10.00">../../ships/code/TShip.h</text>
</a>
</g>
</g>
<!-- Node1&#45;&gt;Node3 -->
<g id="edge2" class="edge">
<title>Node1&#45;&gt;Node3</title>
<path fill="none" stroke="#63b8ff" d="M81.6,-175.75C88.16,-168.18 97.82,-157.05 105.81,-147.84"/>
<polygon fill="#63b8ff" stroke="#63b8ff" points="108.63,-149.94 112.55,-140.09 103.35,-145.35 108.63,-149.94"/>
</g>
<!-- Node3&#45;&gt;Node2 -->
<g id="edge4" class="edge">
<title>Node3&#45;&gt;Node2</title>
<path fill="none" stroke="#63b8ff" d="M106.57,-120.87C91.92,-111.45 68.24,-96.23 50.9,-85.08"/>
<polygon fill="#63b8ff" stroke="#63b8ff" points="52.79,-82.13 42.48,-79.67 49,-88.02 52.79,-82.13"/>
</g>
<!-- Node4 -->
<g id="node4" class="node">
<title>Node4</title>
<g id="a_node4"><a xlink:title=" ">
<polygon fill="#e0e0e0" stroke="#999999" points="144,-19 100,-19 100,0 144,0 144,-19"/>
<text text-anchor="middle" x="122" y="-7" font-family="Helvetica,sans-Serif" font-size="10.00">string</text>
</a>
</g>
</g>
<!-- Node3&#45;&gt;Node4 -->
<g id="edge3" class="edge">
<title>Node3&#45;&gt;Node4</title>
<path fill="none" stroke="#63b8ff" d="M116.14,-120.85C112.44,-112.04 107.11,-97.87 105,-85 102.84,-71.84 102.58,-68.11 105,-55 106.67,-45.95 110.1,-36.36 113.44,-28.41"/>
<polygon fill="#63b8ff" stroke="#63b8ff" points="116.73,-29.65 117.63,-19.09 110.34,-26.78 116.73,-29.65"/>
</g>
<!-- Node5 -->
<g id="node5" class="node">
<title>Node5</title>
<g id="a_node5"><a xlink:href="../../de/da2/TCapitanInfo_8h.html" target="_top" xlink:title=" ">
<polygon fill="white" stroke="#666666" points="201.5,-79.5 114.5,-79.5 114.5,-60.5 201.5,-60.5 201.5,-79.5"/>
<text text-anchor="middle" x="158" y="-67.5" font-family="Helvetica,sans-Serif" font-size="10.00">TCapitanInfo.h</text>
</a>
</g>
</g>
<!-- Node3&#45;&gt;Node5 -->
<g id="edge5" class="edge">
<title>Node3&#45;&gt;Node5</title>
<path fill="none" stroke="#63b8ff" d="M125.61,-120.87C131.16,-112.31 139.83,-98.97 146.8,-88.24"/>
<polygon fill="#63b8ff" stroke="#63b8ff" points="149.86,-89.96 152.37,-79.67 143.99,-86.15 149.86,-89.96"/>
</g>
<!-- Node6 -->
<g id="node6" class="node">
<title>Node6</title>
<g id="a_node6"><a xlink:href="../../dc/d06/TObjectOnMap_8h.html" target="_top" xlink:title=" ">
<polygon fill="white" stroke="#666666" points="358,-85 220,-85 220,-55 358,-55 358,-85"/>
<text text-anchor="start" x="228" y="-73" font-family="Helvetica,sans-Serif" font-size="10.00">../../base/code/TObjectOn</text>
<text text-anchor="middle" x="289" y="-62" font-family="Helvetica,sans-Serif" font-size="10.00">Map.h</text>
</a>
</g>
</g>
<!-- Node3&#45;&gt;Node6 -->
<g id="edge7" class="edge">
<title>Node3&#45;&gt;Node6</title>
<path fill="none" stroke="#63b8ff" d="M144.57,-120.99C169.11,-112.5 207.53,-99.2 238.58,-88.45"/>
<polygon fill="#63b8ff" stroke="#63b8ff" points="240.06,-91.64 248.37,-85.06 237.78,-85.03 240.06,-91.64"/>
</g>
<!-- Node5&#45;&gt;Node4 -->
<g id="edge6" class="edge">
<title>Node5&#45;&gt;Node4</title>
<path fill="none" stroke="#63b8ff" d="M152.69,-60.37C147.42,-51.81 139.21,-38.47 132.61,-27.74"/>
<polygon fill="#63b8ff" stroke="#63b8ff" points="135.56,-25.85 127.33,-19.17 129.59,-29.52 135.56,-25.85"/>
</g>
</g>
</svg>
