<?xml version="1.0" encoding="UTF-8" standalone="no"?>
<!DOCTYPE svg PUBLIC "-//W3C//DTD SVG 1.1//EN"
 "http://www.w3.org/Graphics/SVG/1.1/DTD/svg11.dtd">
<!-- Generated by graphviz version 2.43.0 (0)
 -->
<!-- Title: code/game/code/TShop.cpp Pages: 1 -->
<!--zoomable 511 -->
<svg id="main" version="1.1" xmlns="http://www.w3.org/2000/svg" xmlns:xlink="http://www.w3.org/1999/xlink" xml:space="preserve" onload="init(evt)">
<style type="text/css"><![CDATA[
.edge:hover path { stroke: red; }
.edge:hover polygon { stroke: red; fill: red; }
]]></style>
<script type="text/javascript"><![CDATA[
var edges = document.getElementsByTagName('g');
if (edges && edges.length) {
  for (var i=0;i<edges.length;i++) {
    if (edges[i].id.substr(0,4)=='edge') {
      edges[i].setAttribute('class','edge');
    }
  }
}
]]></script>
        <defs>
                <circle id="rim" cx="0" cy="0" r="7"/>
                <circle id="rim2" cx="0" cy="0" r="3.5"/>
                <g id="zoomPlus">
                        <use xlink:href="#rim" fill="#404040">
                                <set attributeName="fill" to="#808080" begin="zoomplus.mouseover" end="zoomplus.mouseout"/>
                        </use>
                        <path d="M-4,0h8M0,-4v8" fill="none" stroke="white" stroke-width="1.5" pointer-events="none"/>
                </g>
                <g id="zoomMin">
                        <use xlink:href="#rim" fill="#404040">
                                <set attributeName="fill" to="#808080" begin="zoomminus.mouseover" end="zoomminus.mouseout"/>
                        </use>
                        <path d="M-4,0h8" fill="none" stroke="white" stroke-width="1.5" pointer-events="none"/>
                </g>
                <g id="dirArrow">
                        <path fill="none" stroke="white" stroke-width="1.5" d="M0,-3.0v7 M-2.5,-0.5L0,-3.0L2.5,-0.5"/>
                </g>
               <g id="resetDef">
                       <use xlink:href="#rim2" fill="#404040">
                               <set attributeName="fill" to="#808080" begin="reset.mouseover" end="reset.mouseout"/>
                       </use>
               </g>
        </defs>

<script type="text/javascript">
var viewWidth = 713;
var viewHeight = 511;
var sectionId = 'dynsection-0';
</script>
<script xlink:href="../../svgpan.js"/>
<svg id="graph" class="graph">
<g id="viewport">
<title>code/game/code/TShop.cpp</title>
<!-- Node1 -->
<g id="node1" class="node">
<title>Node1</title>
<g id="a_node1"><a xlink:title=" ">
<polygon fill="#999999" stroke="#666666" points="397,-503 247,-503 247,-484 397,-484 397,-503"/>
<text text-anchor="middle" x="322" y="-491" font-family="Helvetica,sans-Serif" font-size="10.00">code/game/code/TShop.cpp</text>
</a>
</g>
</g>
<!-- Node2 -->
<g id="node2" class="node">
<title>Node2</title>
<g id="a_node2"><a xlink:href="../../d2/d58/TShop_8h.html" target="_top" xlink:title=" ">
<polygon fill="white" stroke="#666666" points="312,-448 256,-448 256,-429 312,-429 312,-448"/>
<text text-anchor="middle" x="284" y="-436" font-family="Helvetica,sans-Serif" font-size="10.00">TShop.h</text>
</a>
</g>
</g>
<!-- Node1&#45;&gt;Node2 -->
<g id="edge1" class="edge">
<title>Node1&#45;&gt;Node2</title>
<path fill="none" stroke="#63b8ff" d="M315.73,-483.75C310.41,-476.34 302.64,-465.5 296.12,-456.41"/>
<polygon fill="#63b8ff" stroke="#63b8ff" points="298.83,-454.18 290.16,-448.09 293.14,-458.26 298.83,-454.18"/>
</g>
<!-- Node20 -->
<g id="node20" class="node">
<title>Node20</title>
<g id="a_node20"><a xlink:title=" ">
<polygon fill="#e0e0e0" stroke="#999999" points="390,-448 330,-448 330,-429 390,-429 390,-448"/>
<text text-anchor="middle" x="360" y="-436" font-family="Helvetica,sans-Serif" font-size="10.00">iostream</text>
</a>
</g>
</g>
<!-- Node1&#45;&gt;Node20 -->
<g id="edge30" class="edge">
<title>Node1&#45;&gt;Node20</title>
<path fill="none" stroke="#63b8ff" d="M328.27,-483.75C333.59,-476.34 341.36,-465.5 347.88,-456.41"/>
<polygon fill="#63b8ff" stroke="#63b8ff" points="350.86,-458.26 353.84,-448.09 345.17,-454.18 350.86,-458.26"/>
</g>
<!-- Node3 -->
<g id="node3" class="node">
<title>Node3</title>
<g id="a_node3"><a xlink:href="../../d3/dd9/TMission_8h.html" target="_top" xlink:title=" ">
<polygon fill="white" stroke="#666666" points="318.5,-393 249.5,-393 249.5,-374 318.5,-374 318.5,-393"/>
<text text-anchor="middle" x="284" y="-381" font-family="Helvetica,sans-Serif" font-size="10.00">TMission.h</text>
</a>
</g>
</g>
<!-- Node2&#45;&gt;Node3 -->
<g id="edge2" class="edge">
<title>Node2&#45;&gt;Node3</title>
<path fill="none" stroke="#63b8ff" d="M284,-428.75C284,-421.8 284,-411.85 284,-403.13"/>
<polygon fill="#63b8ff" stroke="#63b8ff" points="287.5,-403.09 284,-393.09 280.5,-403.09 287.5,-403.09"/>
</g>
<!-- Node4 -->
<g id="node4" class="node">
<title>Node4</title>
<g id="a_node4"><a xlink:href="../../de/da2/TCapitanInfo_8h.html" target="_top" xlink:title=" ">
<polygon fill="white" stroke="#666666" points="705,-85 573,-85 573,-55 705,-55 705,-85"/>
<text text-anchor="start" x="581" y="-73" font-family="Helvetica,sans-Serif" font-size="10.00">../../ships/code/TCapitan</text>
<text text-anchor="middle" x="639" y="-62" font-family="Helvetica,sans-Serif" font-size="10.00">Info.h</text>
</a>
</g>
</g>
<!-- Node3&#45;&gt;Node4 -->
<g id="edge3" class="edge">
<title>Node3&#45;&gt;Node4</title>
<path fill="none" stroke="#63b8ff" d="M318.69,-377.98C402.84,-366.06 611,-330.37 611,-269 611,-269 611,-269 611,-201 611,-163.26 622.42,-120.71 630.67,-94.88"/>
<polygon fill="#63b8ff" stroke="#63b8ff" points="634.05,-95.81 633.86,-85.21 627.4,-93.61 634.05,-95.81"/>
</g>
<!-- Node6 -->
<g id="node6" class="node">
<title>Node6</title>
<g id="a_node6"><a xlink:href="../../d8/d06/MyList_8h.html" target="_top" xlink:title=" ">
<polygon fill="white" stroke="#666666" points="238.5,-217 131.5,-217 131.5,-187 238.5,-187 238.5,-217"/>
<text text-anchor="start" x="139.5" y="-205" font-family="Helvetica,sans-Serif" font-size="10.00">../../container/code</text>
<text text-anchor="middle" x="185" y="-194" font-family="Helvetica,sans-Serif" font-size="10.00">/MyList.h</text>
</a>
</g>
</g>
<!-- Node3&#45;&gt;Node6 -->
<g id="edge5" class="edge">
<title>Node3&#45;&gt;Node6</title>
<path fill="none" stroke="#63b8ff" d="M249.34,-380.11C217.94,-376.16 172.39,-365.69 144,-338 116.29,-310.97 108.58,-288.06 125,-253 130.63,-240.99 140.72,-230.85 151.04,-222.91"/>
<polygon fill="#63b8ff" stroke="#63b8ff" points="153.18,-225.69 159.28,-217.03 149.11,-219.99 153.18,-225.69"/>
</g>
<!-- Node7 -->
<g id="node7" class="node">
<title>Node7</title>
<g id="a_node7"><a xlink:title=" ">
<polygon fill="#e0e0e0" stroke="#999999" points="58,-79.5 0,-79.5 0,-60.5 58,-60.5 58,-79.5"/>
<text text-anchor="middle" x="29" y="-67.5" font-family="Helvetica,sans-Serif" font-size="10.00">memory</text>
</a>
</g>
</g>
<!-- Node3&#45;&gt;Node7 -->
<g id="edge29" class="edge">
<title>Node3&#45;&gt;Node7</title>
<path fill="none" stroke="#63b8ff" d="M249.47,-381.17C184.38,-376.61 50,-356.59 50,-269 50,-269 50,-269 50,-201 50,-160.95 40.17,-114.84 33.96,-89.72"/>
<polygon fill="#63b8ff" stroke="#63b8ff" points="37.28,-88.57 31.41,-79.75 30.5,-90.3 37.28,-88.57"/>
</g>
<!-- Node10 -->
<g id="node10" class="node">
<title>Node10</title>
<g id="a_node10"><a xlink:href="../../db/d87/TCargoWarShip_8h.html" target="_top" xlink:title=" ">
<polygon fill="white" stroke="#666666" points="408,-283 266,-283 266,-253 408,-253 408,-283"/>
<text text-anchor="start" x="274" y="-271" font-family="Helvetica,sans-Serif" font-size="10.00">../../ships/code/TCargoWar</text>
<text text-anchor="middle" x="337" y="-260" font-family="Helvetica,sans-Serif" font-size="10.00">Ship.h</text>
</a>
</g>
</g>
<!-- Node3&#45;&gt;Node10 -->
<g id="edge12" class="edge">
<title>Node3&#45;&gt;Node10</title>
<path fill="none" stroke="#63b8ff" d="M291.84,-373.92C299.26,-365.38 310.25,-351.62 317,-338 324.04,-323.8 329.01,-306.7 332.24,-293.08"/>
<polygon fill="#63b8ff" stroke="#63b8ff" points="335.73,-293.54 334.47,-283.02 328.89,-292.03 335.73,-293.54"/>
</g>
<!-- Node17 -->
<g id="node17" class="node">
<title>Node17</title>
<g id="a_node17"><a xlink:href="../../d1/d0c/TBase_8h.html" target="_top" xlink:title=" ">
<polygon fill="white" stroke="#666666" points="552,-277.5 426,-277.5 426,-258.5 552,-258.5 552,-277.5"/>
<text text-anchor="middle" x="489" y="-265.5" font-family="Helvetica,sans-Serif" font-size="10.00">../../base/code/TBase.h</text>
</a>
</g>
</g>
<!-- Node3&#45;&gt;Node17 -->
<g id="edge22" class="edge">
<title>Node3&#45;&gt;Node17</title>
<path fill="none" stroke="#63b8ff" d="M299.41,-373.97C334.73,-354.41 421.77,-306.22 464.52,-282.56"/>
<polygon fill="#63b8ff" stroke="#63b8ff" points="466.36,-285.54 473.41,-277.63 462.97,-279.41 466.36,-285.54"/>
</g>
<!-- Node18 -->
<g id="node18" class="node">
<title>Node18</title>
<g id="a_node18"><a xlink:href="../../d1/d8a/TPirateBase_8h.html" target="_top" xlink:title=" ">
<polygon fill="white" stroke="#666666" points="308.5,-338 153.5,-338 153.5,-319 308.5,-319 308.5,-338"/>
<text text-anchor="middle" x="231" y="-326" font-family="Helvetica,sans-Serif" font-size="10.00">../../base/code/TPirateBase.h</text>
</a>
</g>
</g>
<!-- Node3&#45;&gt;Node18 -->
<g id="edge24" class="edge">
<title>Node3&#45;&gt;Node18</title>
<path fill="none" stroke="#63b8ff" d="M275.25,-373.75C267.53,-366.03 256.1,-354.6 246.78,-345.28"/>
<polygon fill="#63b8ff" stroke="#63b8ff" points="249.14,-342.69 239.59,-338.09 244.19,-347.64 249.14,-342.69"/>
</g>
<!-- Node5 -->
<g id="node5" class="node">
<title>Node5</title>
<g id="a_node5"><a xlink:title=" ">
<polygon fill="#e0e0e0" stroke="#999999" points="536,-19 492,-19 492,0 536,0 536,-19"/>
<text text-anchor="middle" x="514" y="-7" font-family="Helvetica,sans-Serif" font-size="10.00">string</text>
</a>
</g>
</g>
<!-- Node4&#45;&gt;Node5 -->
<g id="edge4" class="edge">
<title>Node4&#45;&gt;Node5</title>
<path fill="none" stroke="#63b8ff" d="M609.06,-54.99C588.58,-45.4 561.62,-32.79 541.65,-23.44"/>
<polygon fill="#63b8ff" stroke="#63b8ff" points="543,-20.21 532.46,-19.14 540.03,-26.55 543,-20.21"/>
</g>
<!-- Node6&#45;&gt;Node7 -->
<g id="edge6" class="edge">
<title>Node6&#45;&gt;Node7</title>
<path fill="none" stroke="#63b8ff" d="M168.01,-186.84C138.41,-162.18 77.67,-111.56 47.23,-86.19"/>
<polygon fill="#63b8ff" stroke="#63b8ff" points="49.42,-83.46 39.5,-79.75 44.94,-88.84 49.42,-83.46"/>
</g>
<!-- Node8 -->
<g id="node8" class="node">
<title>Node8</title>
<g id="a_node8"><a xlink:href="../../d0/d93/TShip_8h.html" target="_top" xlink:title=" ">
<polygon fill="white" stroke="#666666" points="451.5,-145.5 326.5,-145.5 326.5,-126.5 451.5,-126.5 451.5,-145.5"/>
<text text-anchor="middle" x="389" y="-133.5" font-family="Helvetica,sans-Serif" font-size="10.00">../../ships/code/TShip.h</text>
</a>
</g>
</g>
<!-- Node6&#45;&gt;Node8 -->
<g id="edge7" class="edge">
<title>Node6&#45;&gt;Node8</title>
<path fill="none" stroke="#63b8ff" d="M229.77,-186.95C266.49,-175.43 317.84,-159.32 352.2,-148.54"/>
<polygon fill="#63b8ff" stroke="#63b8ff" points="353.36,-151.85 361.85,-145.52 351.26,-145.17 353.36,-151.85"/>
</g>
<!-- Node8&#45;&gt;Node4 -->
<g id="edge10" class="edge">
<title>Node8&#45;&gt;Node4</title>
<path fill="none" stroke="#63b8ff" d="M422.46,-126.44C461.17,-116.52 525.81,-99.98 574.41,-87.53"/>
<polygon fill="#63b8ff" stroke="#63b8ff" points="575.4,-90.9 584.22,-85.02 573.66,-84.11 575.4,-90.9"/>
</g>
<!-- Node8&#45;&gt;Node5 -->
<g id="edge8" class="edge">
<title>Node8&#45;&gt;Node5</title>
<path fill="none" stroke="#63b8ff" d="M388.65,-126.42C388.45,-110.45 390.27,-75.91 408,-55 426.66,-32.99 458.06,-21.64 481.86,-15.94"/>
<polygon fill="#63b8ff" stroke="#63b8ff" points="482.83,-19.31 491.85,-13.76 481.34,-12.47 482.83,-19.31"/>
</g>
<!-- Node8&#45;&gt;Node7 -->
<g id="edge9" class="edge">
<title>Node8&#45;&gt;Node7</title>
<path fill="none" stroke="#63b8ff" d="M346.8,-126.44C337.03,-124.55 326.67,-122.64 317,-121 206.31,-102.28 175.82,-112.56 67,-85 64.5,-84.37 61.93,-83.63 59.36,-82.82"/>
<polygon fill="#63b8ff" stroke="#63b8ff" points="60.25,-79.43 49.66,-79.5 57.99,-86.05 60.25,-79.43"/>
</g>
<!-- Node9 -->
<g id="node9" class="node">
<title>Node9</title>
<g id="a_node9"><a xlink:href="../../dc/d06/TObjectOnMap_8h.html" target="_top" xlink:title=" ">
<polygon fill="white" stroke="#666666" points="555,-85 417,-85 417,-55 555,-55 555,-85"/>
<text text-anchor="start" x="425" y="-73" font-family="Helvetica,sans-Serif" font-size="10.00">../../base/code/TObjectOn</text>
<text text-anchor="middle" x="486" y="-62" font-family="Helvetica,sans-Serif" font-size="10.00">Map.h</text>
</a>
</g>
</g>
<!-- Node8&#45;&gt;Node9 -->
<g id="edge11" class="edge">
<title>Node8&#45;&gt;Node9</title>
<path fill="none" stroke="#63b8ff" d="M402.08,-126.37C415.86,-117.28 438.02,-102.66 456.11,-90.72"/>
<polygon fill="#63b8ff" stroke="#63b8ff" points="458.19,-93.54 464.61,-85.12 454.33,-87.7 458.19,-93.54"/>
</g>
<!-- Node11 -->
<g id="node11" class="node">
<title>Node11</title>
<g id="a_node11"><a xlink:href="../../d0/d2a/TWarShip_8h.html" target="_top" xlink:title=" ">
<polygon fill="white" stroke="#666666" points="328.5,-211.5 257.5,-211.5 257.5,-192.5 328.5,-192.5 328.5,-211.5"/>
<text text-anchor="middle" x="293" y="-199.5" font-family="Helvetica,sans-Serif" font-size="10.00">TWarShip.h</text>
</a>
</g>
</g>
<!-- Node10&#45;&gt;Node11 -->
<g id="edge13" class="edge">
<title>Node10&#45;&gt;Node11</title>
<path fill="none" stroke="#63b8ff" d="M327.23,-252.8C320.64,-243.21 311.91,-230.5 304.91,-220.32"/>
<polygon fill="#63b8ff" stroke="#63b8ff" points="307.63,-218.1 299.08,-211.84 301.86,-222.07 307.63,-218.1"/>
</g>
<!-- Node16 -->
<g id="node16" class="node">
<title>Node16</title>
<g id="a_node16"><a xlink:href="../../d3/d7f/TCargoShip_8h.html" target="_top" xlink:title=" ">
<polygon fill="white" stroke="#666666" points="428,-211.5 348,-211.5 348,-192.5 428,-192.5 428,-211.5"/>
<text text-anchor="middle" x="388" y="-199.5" font-family="Helvetica,sans-Serif" font-size="10.00">TCargoShip.h</text>
</a>
</g>
</g>
<!-- Node10&#45;&gt;Node16 -->
<g id="edge20" class="edge">
<title>Node10&#45;&gt;Node16</title>
<path fill="none" stroke="#63b8ff" d="M348.32,-252.8C356.11,-243.01 366.5,-229.98 374.69,-219.7"/>
<polygon fill="#63b8ff" stroke="#63b8ff" points="377.46,-221.85 380.95,-211.84 371.98,-217.48 377.46,-221.85"/>
</g>
<!-- Node11&#45;&gt;Node8 -->
<g id="edge19" class="edge">
<title>Node11&#45;&gt;Node8</title>
<path fill="none" stroke="#63b8ff" d="M305.95,-192.37C321.69,-181.87 348.5,-164 367.4,-151.4"/>
<polygon fill="#63b8ff" stroke="#63b8ff" points="369.57,-154.16 375.95,-145.7 365.69,-148.33 369.57,-154.16"/>
</g>
<!-- Node12 -->
<g id="node12" class="node">
<title>Node12</title>
<g id="a_node12"><a xlink:href="../../dc/d2c/TWeaponHolder_8h.html" target="_top" xlink:title=" ">
<polygon fill="white" stroke="#666666" points="308.5,-151 203.5,-151 203.5,-121 308.5,-121 308.5,-151"/>
<text text-anchor="start" x="211.5" y="-139" font-family="Helvetica,sans-Serif" font-size="10.00">../../weapons/code</text>
<text text-anchor="middle" x="256" y="-128" font-family="Helvetica,sans-Serif" font-size="10.00">/TWeaponHolder.h</text>
</a>
</g>
</g>
<!-- Node11&#45;&gt;Node12 -->
<g id="edge14" class="edge">
<title>Node11&#45;&gt;Node12</title>
<path fill="none" stroke="#63b8ff" d="M288.01,-192.37C283.26,-184.16 275.91,-171.44 269.44,-160.26"/>
<polygon fill="#63b8ff" stroke="#63b8ff" points="272.34,-158.27 264.3,-151.36 266.28,-161.77 272.34,-158.27"/>
</g>
<!-- Node12&#45;&gt;Node7 -->
<g id="edge15" class="edge">
<title>Node12&#45;&gt;Node7</title>
<path fill="none" stroke="#63b8ff" d="M203.48,-122.52C165.34,-113.11 112.64,-99.41 67,-85 65.09,-84.4 63.13,-83.75 61.16,-83.09"/>
<polygon fill="#63b8ff" stroke="#63b8ff" points="61.98,-79.66 51.38,-79.65 59.65,-86.27 61.98,-79.66"/>
</g>
<!-- Node13 -->
<g id="node13" class="node">
<title>Node13</title>
<g id="a_node13"><a xlink:title=" ">
<polygon fill="#e0e0e0" stroke="#999999" points="360.5,-79.5 313.5,-79.5 313.5,-60.5 360.5,-60.5 360.5,-79.5"/>
<text text-anchor="middle" x="337" y="-67.5" font-family="Helvetica,sans-Serif" font-size="10.00">vector</text>
</a>
</g>
</g>
<!-- Node12&#45;&gt;Node13 -->
<g id="edge16" class="edge">
<title>Node12&#45;&gt;Node13</title>
<path fill="none" stroke="#63b8ff" d="M273.98,-120.8C286.98,-110.53 304.51,-96.67 317.79,-86.18"/>
<polygon fill="#63b8ff" stroke="#63b8ff" points="320.13,-88.79 325.81,-79.84 315.79,-83.3 320.13,-88.79"/>
</g>
<!-- Node14 -->
<g id="node14" class="node">
<title>Node14</title>
<g id="a_node14"><a xlink:href="../../d8/d66/enum__place__on__ship_8h.html" target="_top" xlink:title=" ">
<polygon fill="white" stroke="#666666" points="206,-85 76,-85 76,-55 206,-55 206,-85"/>
<text text-anchor="start" x="84" y="-73" font-family="Helvetica,sans-Serif" font-size="10.00">../../enums/enum_place</text>
<text text-anchor="middle" x="141" y="-62" font-family="Helvetica,sans-Serif" font-size="10.00">_on_ship.h</text>
</a>
</g>
</g>
<!-- Node12&#45;&gt;Node14 -->
<g id="edge17" class="edge">
<title>Node12&#45;&gt;Node14</title>
<path fill="none" stroke="#63b8ff" d="M230.76,-120.95C214.43,-111.87 192.98,-99.93 175.13,-90"/>
<polygon fill="#63b8ff" stroke="#63b8ff" points="176.62,-86.82 166.18,-85.01 173.21,-92.93 176.62,-86.82"/>
</g>
<!-- Node15 -->
<g id="node15" class="node">
<title>Node15</title>
<g id="a_node15"><a xlink:href="../../d0/df8/TWeapon_8h.html" target="_top" xlink:title=" ">
<polygon fill="white" stroke="#666666" points="295.5,-79.5 224.5,-79.5 224.5,-60.5 295.5,-60.5 295.5,-79.5"/>
<text text-anchor="middle" x="260" y="-67.5" font-family="Helvetica,sans-Serif" font-size="10.00">TWeapon.h</text>
</a>
</g>
</g>
<!-- Node12&#45;&gt;Node15 -->
<g id="edge18" class="edge">
<title>Node12&#45;&gt;Node15</title>
<path fill="none" stroke="#63b8ff" d="M256.89,-120.8C257.46,-111.7 258.2,-99.79 258.82,-89.9"/>
<polygon fill="#63b8ff" stroke="#63b8ff" points="262.32,-90.04 259.45,-79.84 255.33,-89.61 262.32,-90.04"/>
</g>
<!-- Node16&#45;&gt;Node8 -->
<g id="edge21" class="edge">
<title>Node16&#45;&gt;Node8</title>
<path fill="none" stroke="#63b8ff" d="M388.13,-192.37C388.28,-183.16 388.51,-168.29 388.7,-156.27"/>
<polygon fill="#63b8ff" stroke="#63b8ff" points="392.2,-155.96 388.86,-145.91 385.2,-155.85 392.2,-155.96"/>
</g>
<!-- Node17&#45;&gt;Node9 -->
<g id="edge23" class="edge">
<title>Node17&#45;&gt;Node9</title>
<path fill="none" stroke="#63b8ff" d="M488.87,-258.33C488.43,-229.91 487.04,-138.97 486.37,-95.11"/>
<polygon fill="#63b8ff" stroke="#63b8ff" points="489.87,-94.98 486.21,-85.04 482.87,-95.09 489.87,-94.98"/>
</g>
<!-- Node18&#45;&gt;Node17 -->
<g id="edge25" class="edge">
<title>Node18&#45;&gt;Node17</title>
<path fill="none" stroke="#63b8ff" d="M268.52,-318.99C314.28,-308.62 391.69,-291.07 441.55,-279.76"/>
<polygon fill="#63b8ff" stroke="#63b8ff" points="442.46,-283.14 451.44,-277.52 440.91,-276.31 442.46,-283.14"/>
</g>
<!-- Node19 -->
<g id="node19" class="node">
<title>Node19</title>
<g id="a_node19"><a xlink:href="../../dc/d2f/TSpawnDescriptor_8h.html" target="_top" xlink:title=" ">
<polygon fill="white" stroke="#666666" points="247.5,-277.5 134.5,-277.5 134.5,-258.5 247.5,-258.5 247.5,-277.5"/>
<text text-anchor="middle" x="191" y="-265.5" font-family="Helvetica,sans-Serif" font-size="10.00">TSpawnDescriptor.h</text>
</a>
</g>
</g>
<!-- Node18&#45;&gt;Node19 -->
<g id="edge26" class="edge">
<title>Node18&#45;&gt;Node19</title>
<path fill="none" stroke="#63b8ff" d="M225.1,-318.87C219.25,-310.31 210.13,-296.97 202.79,-286.24"/>
<polygon fill="#63b8ff" stroke="#63b8ff" points="205.46,-283.95 196.93,-277.67 199.68,-287.9 205.46,-283.95"/>
</g>
<!-- Node19&#45;&gt;Node6 -->
<g id="edge28" class="edge">
<title>Node19&#45;&gt;Node6</title>
<path fill="none" stroke="#63b8ff" d="M190.19,-258.37C189.45,-250.49 188.32,-238.45 187.31,-227.6"/>
<polygon fill="#63b8ff" stroke="#63b8ff" points="190.76,-226.99 186.35,-217.36 183.8,-227.64 190.76,-226.99"/>
</g>
<!-- Node19&#45;&gt;Node11 -->
<g id="edge27" class="edge">
<title>Node19&#45;&gt;Node11</title>
<path fill="none" stroke="#63b8ff" d="M204.76,-258.37C221.64,-247.78 250.49,-229.67 270.59,-217.06"/>
<polygon fill="#63b8ff" stroke="#63b8ff" points="272.53,-219.98 279.14,-211.7 268.81,-214.05 272.53,-219.98"/>
</g>
</g>
</svg>
        <g id="navigator" transform="translate(0 0)" fill="#404254">
                <rect fill="#f2f5e9" fill-opacity="0.5" stroke="#606060" stroke-width=".5" x="0" y="0" width="60" height="60"/>
                <use id="zoomplus" xlink:href="#zoomPlus" x="17" y="9" onmousedown="handleZoom(evt,'in')"/>
                <use id="zoomminus" xlink:href="#zoomMin" x="42" y="9" onmousedown="handleZoom(evt,'out')"/>
                <use id="reset" xlink:href="#resetDef" x="30" y="36" onmousedown="handleReset()"/>
                <g id="arrowUp" xlink:href="#dirArrow" transform="translate(30 24)" onmousedown="handlePan(0,-1)">
                  <use xlink:href="#rim" fill="#404040">
                        <set attributeName="fill" to="#808080" begin="arrowUp.mouseover" end="arrowUp.mouseout"/>
                  </use>
                  <path fill="none" stroke="white" stroke-width="1.5" d="M0,-3.0v7 M-2.5,-0.5L0,-3.0L2.5,-0.5"/>
                </g>
                <g id="arrowRight" xlink:href="#dirArrow" transform="rotate(90) translate(36 -43)" onmousedown="handlePan(1,0)">
                  <use xlink:href="#rim" fill="#404040">
                        <set attributeName="fill" to="#808080" begin="arrowRight.mouseover" end="arrowRight.mouseout"/>
                  </use>
                  <path fill="none" stroke="white" stroke-width="1.5" d="M0,-3.0v7 M-2.5,-0.5L0,-3.0L2.5,-0.5"/>
                </g>
                <g id="arrowDown" xlink:href="#dirArrow" transform="rotate(180) translate(-30 -48)" onmousedown="handlePan(0,1)">
                  <use xlink:href="#rim" fill="#404040">
                        <set attributeName="fill" to="#808080" begin="arrowDown.mouseover" end="arrowDown.mouseout"/>
                  </use>
                  <path fill="none" stroke="white" stroke-width="1.5" d="M0,-3.0v7 M-2.5,-0.5L0,-3.0L2.5,-0.5"/>
                </g>
                <g id="arrowLeft" xlink:href="#dirArrow" transform="rotate(270) translate(-36 17)" onmousedown="handlePan(-1,0)">
                  <use xlink:href="#rim" fill="#404040">
                        <set attributeName="fill" to="#808080" begin="arrowLeft.mouseover" end="arrowLeft.mouseout"/>
                  </use>
                  <path fill="none" stroke="white" stroke-width="1.5" d="M0,-3.0v7 M-2.5,-0.5L0,-3.0L2.5,-0.5"/>
                </g>
        </g>
        <svg viewBox="0 0 15 15" width="100%" height="30px" preserveAspectRatio="xMaxYMin meet">
         <g id="arrow_out" transform="scale(0.3 0.3)">
          <a xlink:href="TShop_8cpp__incl_org.svg" target="_base">
           <rect id="button" ry="5" rx="5" y="6" x="6" height="38" width="38"
                fill="#f2f5e9" fill-opacity="0.5" stroke="#606060" stroke-width="1.0"/>
           <path id="arrow"
             d="M 11.500037,31.436501 C 11.940474,20.09759 22.043105,11.32322 32.158766,21.979434 L 37.068811,17.246167 C 37.068811,17.246167 37.088388,32 37.088388,32 L 22.160133,31.978069 C 22.160133,31.978069 26.997745,27.140456 26.997745,27.140456 C 18.528582,18.264221 13.291696,25.230495 11.500037,31.436501 z"
             style="fill:#404040;"/>
          </a>
         </g>
        </svg>
</svg>
