<?xml version="1.0" encoding="UTF-8" standalone="no"?>
<!DOCTYPE svg PUBLIC "-//W3C//DTD SVG 1.1//EN"
 "http://www.w3.org/Graphics/SVG/1.1/DTD/svg11.dtd">
<!-- Generated by graphviz version 2.43.0 (0)
 -->
<!-- Title: TEST Pages: 1 -->
<svg width="347pt" height="119pt"
 viewBox="0.00 0.00 347.00 119.00" xmlns="http://www.w3.org/2000/svg" xmlns:xlink="http://www.w3.org/1999/xlink">
<g id="graph0" class="graph" transform="scale(1 1) rotate(0) translate(4 115)">
<title>TEST</title>
<!-- Node1 -->
<g id="node1" class="node">
<title>Node1</title>
<g id="a_node1"><a xlink:title=" ">
<polygon fill="#999999" stroke="#666666" points="41,-74 0,-74 0,-55 41,-55 41,-74"/>
<text text-anchor="middle" x="20.5" y="-62" font-family="Helvetica,sans-Serif" font-size="10.00">TEST</text>
</a>
</g>
</g>
<!-- Node2 -->
<g id="node2" class="node">
<title>Node2</title>
<g id="a_node2"><a xlink:href="../../d7/d10/TestTSpawnDescriptor_8cpp.html#a93785f1846e55fd76f966f49a790e128" target="_top" xlink:title=" ">
<polygon fill="white" stroke="#666666" points="206,-111 91,-111 91,-92 206,-92 206,-111"/>
<text text-anchor="middle" x="148.5" y="-99" font-family="Helvetica,sans-Serif" font-size="10.00">makeWeaponHolder</text>
</a>
</g>
</g>
<!-- Node1&#45;&gt;Node2 -->
<g id="edge1" class="edge">
<title>Node1&#45;&gt;Node2</title>
<path fill="none" stroke="#63b8ff" d="M41.15,-71.66C51.71,-75.39 65,-79.92 77,-83.5 83.67,-85.49 90.73,-87.46 97.71,-89.32"/>
<polygon fill="#63b8ff" stroke="#63b8ff" points="97.26,-92.82 107.82,-91.96 99.03,-86.05 97.26,-92.82"/>
</g>
<!-- Node3 -->
<g id="node3" class="node">
<title>Node3</title>
<g id="a_node3"><a xlink:href="../../d8/d51/classMyList.html#a37366fbfd16acad1dfa69a141b339095" target="_top" xlink:title=" ">
<polygon fill="white" stroke="#666666" points="185.5,-74 111.5,-74 111.5,-55 185.5,-55 185.5,-74"/>
<text text-anchor="middle" x="148.5" y="-62" font-family="Helvetica,sans-Serif" font-size="10.00">MyList::size</text>
</a>
</g>
</g>
<!-- Node1&#45;&gt;Node3 -->
<g id="edge2" class="edge">
<title>Node1&#45;&gt;Node3</title>
<path fill="none" stroke="#63b8ff" d="M41.19,-64.5C57.23,-64.5 80.55,-64.5 101.25,-64.5"/>
<polygon fill="#63b8ff" stroke="#63b8ff" points="101.48,-68 111.48,-64.5 101.48,-61 101.48,-68"/>
</g>
<!-- Node4 -->
<g id="node4" class="node">
<title>Node4</title>
<g id="a_node4"><a xlink:href="../../d2/da3/classTSpawnDescriptor.html#a115ff7e494d2997651192e6d69bb4689" target="_top" xlink:title=" ">
<polygon fill="white" stroke="#666666" points="220,-37 77,-37 77,-18 220,-18 220,-37"/>
<text text-anchor="middle" x="148.5" y="-25" font-family="Helvetica,sans-Serif" font-size="10.00">TSpawnDescriptor::Spawn</text>
</a>
</g>
</g>
<!-- Node1&#45;&gt;Node4 -->
<g id="edge3" class="edge">
<title>Node1&#45;&gt;Node4</title>
<path fill="none" stroke="#63b8ff" d="M41.2,-57.84C51.78,-54.34 65.06,-50.04 77,-46.5 84.78,-44.19 93.07,-41.85 101.13,-39.64"/>
<polygon fill="#63b8ff" stroke="#63b8ff" points="102.08,-43.01 110.81,-37.01 100.24,-36.25 102.08,-43.01"/>
</g>
<!-- Node5 -->
<g id="node5" class="node">
<title>Node5</title>
<g id="a_node5"><a xlink:href="../../d8/d51/classMyList.html#a281f359e28eb5d6014ba3405cf0e6895" target="_top" xlink:title=" ">
<polygon fill="white" stroke="#666666" points="338.5,-56 256.5,-56 256.5,-37 338.5,-37 338.5,-56"/>
<text text-anchor="middle" x="297.5" y="-44" font-family="Helvetica,sans-Serif" font-size="10.00">MyList::begin</text>
</a>
</g>
</g>
<!-- Node4&#45;&gt;Node5 -->
<g id="edge4" class="edge">
<title>Node4&#45;&gt;Node5</title>
<path fill="none" stroke="#63b8ff" d="M220.42,-36.67C229.19,-37.8 238,-38.94 246.37,-40.02"/>
<polygon fill="#63b8ff" stroke="#63b8ff" points="245.95,-43.5 256.32,-41.31 246.85,-36.55 245.95,-43.5"/>
</g>
<!-- Node6 -->
<g id="node6" class="node">
<title>Node6</title>
<g id="a_node6"><a xlink:href="../../d8/d51/classMyList.html#ab5e189776aca91f01ee5fe930318c289" target="_top" xlink:title=" ">
<polygon fill="white" stroke="#666666" points="339,-19 256,-19 256,0 339,0 339,-19"/>
<text text-anchor="middle" x="297.5" y="-7" font-family="Helvetica,sans-Serif" font-size="10.00">MyList::insert</text>
</a>
</g>
</g>
<!-- Node4&#45;&gt;Node6 -->
<g id="edge5" class="edge">
<title>Node4&#45;&gt;Node6</title>
<path fill="none" stroke="#63b8ff" d="M220.42,-18.82C228.99,-17.77 237.6,-16.71 245.8,-15.71"/>
<polygon fill="#63b8ff" stroke="#63b8ff" points="246.42,-19.16 255.92,-14.47 245.57,-12.21 246.42,-19.16"/>
</g>
</g>
</svg>
