<?xml version="1.0" encoding="UTF-8" standalone="no"?>
<!DOCTYPE svg PUBLIC "-//W3C//DTD SVG 1.1//EN"
 "http://www.w3.org/Graphics/SVG/1.1/DTD/svg11.dtd">
<!-- Generated by graphviz version 2.43.0 (0)
 -->
<!-- Title: TSpawnDescriptor::SetXY Pages: 1 -->
<svg width="301pt" height="64pt"
 viewBox="0.00 0.00 301.00 64.00" xmlns="http://www.w3.org/2000/svg" xmlns:xlink="http://www.w3.org/1999/xlink">
<g id="graph0" class="graph" transform="scale(1 1) rotate(0) translate(4 60)">
<title>TSpawnDescriptor::SetXY</title>
<!-- Node1 -->
<g id="node1" class="node">
<title>Node1</title>
<g id="a_node1"><a xlink:title=" ">
<polygon fill="#999999" stroke="#666666" points="140,-37 0,-37 0,-18 140,-18 140,-37"/>
<text text-anchor="middle" x="70" y="-25" font-family="Helvetica,sans-Serif" font-size="10.00">TSpawnDescriptor::SetXY</text>
</a>
</g>
</g>
<!-- Node2 -->
<g id="node2" class="node">
<title>Node2</title>
<g id="a_node2"><a xlink:href="../../d5/d55/classTObjectOnMap.html#a6ac7843a5010f103e09a0098f4a0ca73" target="_top" xlink:title=" ">
<polygon fill="white" stroke="#666666" points="293,-56 176,-56 176,-37 293,-37 293,-56"/>
<text text-anchor="middle" x="234.5" y="-44" font-family="Helvetica,sans-Serif" font-size="10.00">TObjectOnMap::SetX</text>
</a>
</g>
</g>
<!-- Node1&#45;&gt;Node2 -->
<g id="edge1" class="edge">
<title>Node1&#45;&gt;Node2</title>
<path fill="none" stroke="#63b8ff" d="M140.39,-35.61C148.79,-36.6 157.36,-37.6 165.74,-38.58"/>
<polygon fill="#63b8ff" stroke="#63b8ff" points="165.5,-42.07 175.84,-39.76 166.31,-35.12 165.5,-42.07"/>
</g>
<!-- Node3 -->
<g id="node3" class="node">
<title>Node3</title>
<g id="a_node3"><a xlink:href="../../d5/d55/classTObjectOnMap.html#a527b67fe12c7789343c6f5ed21009d5d" target="_top" xlink:title=" ">
<polygon fill="white" stroke="#666666" points="292.5,-19 176.5,-19 176.5,0 292.5,0 292.5,-19"/>
<text text-anchor="middle" x="234.5" y="-7" font-family="Helvetica,sans-Serif" font-size="10.00">TObjectOnMap::SetY</text>
</a>
</g>
</g>
<!-- Node1&#45;&gt;Node3 -->
<g id="edge2" class="edge">
<title>Node1&#45;&gt;Node3</title>
<path fill="none" stroke="#63b8ff" d="M140.39,-19.81C149,-18.86 157.8,-17.88 166.39,-16.93"/>
<polygon fill="#63b8ff" stroke="#63b8ff" points="166.79,-20.41 176.34,-15.83 166.02,-13.45 166.79,-20.41"/>
</g>
</g>
</svg>
