<?xml version="1.0" encoding="UTF-8" standalone="no"?>
<!DOCTYPE svg PUBLIC "-//W3C//DTD SVG 1.1//EN"
 "http://www.w3.org/Graphics/SVG/1.1/DTD/svg11.dtd">
<!-- Generated by graphviz version 2.43.0 (0)
 -->
<!-- Title: TSpawnDescriptor::Spawn Pages: 1 -->
<svg width="270pt" height="64pt"
 viewBox="0.00 0.00 270.00 64.00" xmlns="http://www.w3.org/2000/svg" xmlns:xlink="http://www.w3.org/1999/xlink">
<g id="graph0" class="graph" transform="scale(1 1) rotate(0) translate(4 60)">
<title>TSpawnDescriptor::Spawn</title>
<!-- Node1 -->
<g id="node1" class="node">
<title>Node1</title>
<g id="a_node1"><a xlink:title=" ">
<polygon fill="#999999" stroke="#666666" points="143,-37 0,-37 0,-18 143,-18 143,-37"/>
<text text-anchor="middle" x="71.5" y="-25" font-family="Helvetica,sans-Serif" font-size="10.00">TSpawnDescriptor::Spawn</text>
</a>
</g>
</g>
<!-- Node2 -->
<g id="node2" class="node">
<title>Node2</title>
<g id="a_node2"><a xlink:href="../../d8/d51/classMyList.html#a281f359e28eb5d6014ba3405cf0e6895" target="_top" xlink:title=" ">
<polygon fill="white" stroke="#666666" points="261.5,-56 179.5,-56 179.5,-37 261.5,-37 261.5,-56"/>
<text text-anchor="middle" x="220.5" y="-44" font-family="Helvetica,sans-Serif" font-size="10.00">MyList::begin</text>
</a>
</g>
</g>
<!-- Node1&#45;&gt;Node2 -->
<g id="edge1" class="edge">
<title>Node1&#45;&gt;Node2</title>
<path fill="none" stroke="#63b8ff" d="M143.42,-36.67C152.19,-37.8 161,-38.94 169.37,-40.02"/>
<polygon fill="#63b8ff" stroke="#63b8ff" points="168.95,-43.5 179.32,-41.31 169.85,-36.55 168.95,-43.5"/>
</g>
<!-- Node3 -->
<g id="node3" class="node">
<title>Node3</title>
<g id="a_node3"><a xlink:href="../../d8/d51/classMyList.html#ab5e189776aca91f01ee5fe930318c289" target="_top" xlink:title=" ">
<polygon fill="white" stroke="#666666" points="262,-19 179,-19 179,0 262,0 262,-19"/>
<text text-anchor="middle" x="220.5" y="-7" font-family="Helvetica,sans-Serif" font-size="10.00">MyList::insert</text>
</a>
</g>
</g>
<!-- Node1&#45;&gt;Node3 -->
<g id="edge2" class="edge">
<title>Node1&#45;&gt;Node3</title>
<path fill="none" stroke="#63b8ff" d="M143.42,-18.82C151.99,-17.77 160.6,-16.71 168.8,-15.71"/>
<polygon fill="#63b8ff" stroke="#63b8ff" points="169.42,-19.16 178.92,-14.47 168.57,-12.21 169.42,-19.16"/>
</g>
</g>
</svg>
