<?xml version="1.0" encoding="UTF-8" standalone="no"?>
<!DOCTYPE svg PUBLIC "-//W3C//DTD SVG 1.1//EN"
 "http://www.w3.org/Graphics/SVG/1.1/DTD/svg11.dtd">
<!-- Generated by graphviz version 2.43.0 (0)
 -->
<!-- Title: TEST Pages: 1 -->
<svg width="201pt" height="64pt"
 viewBox="0.00 0.00 201.00 64.00" xmlns="http://www.w3.org/2000/svg" xmlns:xlink="http://www.w3.org/1999/xlink">
<g id="graph0" class="graph" transform="scale(1 1) rotate(0) translate(4 60)">
<title>TEST</title>
<!-- Node1 -->
<g id="node1" class="node">
<title>Node1</title>
<g id="a_node1"><a xlink:title=" ">
<polygon fill="#999999" stroke="#666666" points="41,-37 0,-37 0,-18 41,-18 41,-37"/>
<text text-anchor="middle" x="20.5" y="-25" font-family="Helvetica,sans-Serif" font-size="10.00">TEST</text>
</a>
</g>
</g>
<!-- Node2 -->
<g id="node2" class="node">
<title>Node2</title>
<g id="a_node2"><a xlink:href="../../d9/d38/classTBase.html#a66f564ea6287b2392bd593a9a8722e87" target="_top" xlink:title=" ">
<polygon fill="white" stroke="#666666" points="193,-56 77,-56 77,-37 193,-37 193,-56"/>
<text text-anchor="middle" x="135" y="-44" font-family="Helvetica,sans-Serif" font-size="10.00">TBase::GetBaseType</text>
</a>
</g>
</g>
<!-- Node1&#45;&gt;Node2 -->
<g id="edge1" class="edge">
<title>Node1&#45;&gt;Node2</title>
<path fill="none" stroke="#63b8ff" d="M41.1,-30.81C48.67,-32.09 57.8,-33.63 67.35,-35.24"/>
<polygon fill="#63b8ff" stroke="#63b8ff" points="66.97,-38.73 77.41,-36.94 68.13,-31.83 66.97,-38.73"/>
</g>
<!-- Node3 -->
<g id="node3" class="node">
<title>Node3</title>
<g id="a_node3"><a xlink:href="../../d9/d38/classTBase.html#acded593c9a7b27d53d8699e87bc5518b" target="_top" xlink:title=" ">
<polygon fill="white" stroke="#666666" points="192.5,-19 77.5,-19 77.5,0 192.5,0 192.5,-19"/>
<text text-anchor="middle" x="135" y="-7" font-family="Helvetica,sans-Serif" font-size="10.00">TBase::SetBaseType</text>
</a>
</g>
</g>
<!-- Node1&#45;&gt;Node3 -->
<g id="edge2" class="edge">
<title>Node1&#45;&gt;Node3</title>
<path fill="none" stroke="#63b8ff" d="M41.1,-24.36C48.67,-23.15 57.8,-21.69 67.35,-20.16"/>
<polygon fill="#63b8ff" stroke="#63b8ff" points="68.09,-23.59 77.41,-18.55 66.98,-16.68 68.09,-23.59"/>
</g>
</g>
</svg>
