<?xml version="1.0" encoding="UTF-8" standalone="no"?>
<!DOCTYPE svg PUBLIC "-//W3C//DTD SVG 1.1//EN"
 "http://www.w3.org/Graphics/SVG/1.1/DTD/svg11.dtd">
<!-- Generated by graphviz version 2.43.0 (0)
 -->
<!-- Title: ships/code/TShip.cpp Pages: 1 -->
<svg width="342pt" height="203pt"
 viewBox="0.00 0.00 341.86 203.00" xmlns="http://www.w3.org/2000/svg" xmlns:xlink="http://www.w3.org/1999/xlink">
<g id="graph0" class="graph" transform="scale(1 1) rotate(0) translate(4 199)">
<title>ships/code/TShip.cpp</title>
<!-- Node1 -->
<g id="node1" class="node">
<title>Node1</title>
<g id="a_node1"><a xlink:title=" ">
<polygon fill="#999999" stroke="#666666" points="184.36,-195 65.36,-195 65.36,-176 184.36,-176 184.36,-195"/>
<text text-anchor="middle" x="124.86" y="-183" font-family="Helvetica,sans-Serif" font-size="10.00">ships/code/TShip.cpp</text>
</a>
</g>
</g>
<!-- Node2 -->
<g id="node2" class="node">
<title>Node2</title>
<g id="a_node2"><a xlink:href="../../d0/d93/TShip_8h.html" target="_top" xlink:title=" ">
<polygon fill="white" stroke="#666666" points="114.36,-140 61.36,-140 61.36,-121 114.36,-121 114.36,-140"/>
<text text-anchor="middle" x="87.86" y="-128" font-family="Helvetica,sans-Serif" font-size="10.00">TShip.h</text>
</a>
</g>
</g>
<!-- Node1&#45;&gt;Node2 -->
<g id="edge1" class="edge">
<title>Node1&#45;&gt;Node2</title>
<path fill="none" stroke="#63b8ff" d="M118.75,-175.75C113.58,-168.34 106.01,-157.5 99.66,-148.41"/>
<polygon fill="#63b8ff" stroke="#63b8ff" points="102.45,-146.29 93.86,-140.09 96.71,-150.29 102.45,-146.29"/>
</g>
<!-- Node7 -->
<g id="node7" class="node">
<title>Node7</title>
<g id="a_node7"><a xlink:title=" ">
<polygon fill="#e0e0e0" stroke="#999999" points="192.86,-140 132.86,-140 132.86,-121 192.86,-121 192.86,-140"/>
<text text-anchor="middle" x="162.86" y="-128" font-family="Helvetica,sans-Serif" font-size="10.00">iostream</text>
</a>
</g>
</g>
<!-- Node1&#45;&gt;Node7 -->
<g id="edge7" class="edge">
<title>Node1&#45;&gt;Node7</title>
<path fill="none" stroke="#63b8ff" d="M131.13,-175.75C136.45,-168.34 144.21,-157.5 150.73,-148.41"/>
<polygon fill="#63b8ff" stroke="#63b8ff" points="153.72,-150.26 156.7,-140.09 148.03,-146.18 153.72,-150.26"/>
</g>
<!-- Node3 -->
<g id="node3" class="node">
<title>Node3</title>
<g id="a_node3"><a xlink:title=" ">
<polygon fill="#e0e0e0" stroke="#999999" points="81.86,-19 37.86,-19 37.86,0 81.86,0 81.86,-19"/>
<text text-anchor="middle" x="59.86" y="-7" font-family="Helvetica,sans-Serif" font-size="10.00">string</text>
</a>
</g>
</g>
<!-- Node2&#45;&gt;Node3 -->
<g id="edge2" class="edge">
<title>Node2&#45;&gt;Node3</title>
<path fill="none" stroke="#63b8ff" d="M61.04,-123C41.7,-116.76 16.95,-105.2 4.86,-85 -1.99,-73.56 -0.88,-67.03 4.86,-55 10.95,-42.23 22.7,-31.94 33.78,-24.49"/>
<polygon fill="#63b8ff" stroke="#63b8ff" points="35.76,-27.38 42.4,-19.12 32.06,-21.43 35.76,-27.38"/>
</g>
<!-- Node4 -->
<g id="node4" class="node">
<title>Node4</title>
<g id="a_node4"><a xlink:title=" ">
<polygon fill="#e0e0e0" stroke="#999999" points="71.86,-79.5 13.86,-79.5 13.86,-60.5 71.86,-60.5 71.86,-79.5"/>
<text text-anchor="middle" x="42.86" y="-67.5" font-family="Helvetica,sans-Serif" font-size="10.00">memory</text>
</a>
</g>
</g>
<!-- Node2&#45;&gt;Node4 -->
<g id="edge3" class="edge">
<title>Node2&#45;&gt;Node4</title>
<path fill="none" stroke="#63b8ff" d="M81.22,-120.87C74.57,-112.23 64.17,-98.7 55.87,-87.92"/>
<polygon fill="#63b8ff" stroke="#63b8ff" points="58.4,-85.46 49.53,-79.67 52.85,-89.73 58.4,-85.46"/>
</g>
<!-- Node5 -->
<g id="node5" class="node">
<title>Node5</title>
<g id="a_node5"><a xlink:href="../../de/da2/TCapitanInfo_8h.html" target="_top" xlink:title=" ">
<polygon fill="white" stroke="#666666" points="177.36,-79.5 90.36,-79.5 90.36,-60.5 177.36,-60.5 177.36,-79.5"/>
<text text-anchor="middle" x="133.86" y="-67.5" font-family="Helvetica,sans-Serif" font-size="10.00">TCapitanInfo.h</text>
</a>
</g>
</g>
<!-- Node2&#45;&gt;Node5 -->
<g id="edge4" class="edge">
<title>Node2&#45;&gt;Node5</title>
<path fill="none" stroke="#63b8ff" d="M94.65,-120.87C101.51,-112.14 112.29,-98.43 120.81,-87.59"/>
<polygon fill="#63b8ff" stroke="#63b8ff" points="123.61,-89.69 127.04,-79.67 118.11,-85.36 123.61,-89.69"/>
</g>
<!-- Node6 -->
<g id="node6" class="node">
<title>Node6</title>
<g id="a_node6"><a xlink:href="../../dc/d06/TObjectOnMap_8h.html" target="_top" xlink:title=" ">
<polygon fill="white" stroke="#666666" points="333.86,-85 195.86,-85 195.86,-55 333.86,-55 333.86,-85"/>
<text text-anchor="start" x="203.86" y="-73" font-family="Helvetica,sans-Serif" font-size="10.00">../../base/code/TObjectOn</text>
<text text-anchor="middle" x="264.86" y="-62" font-family="Helvetica,sans-Serif" font-size="10.00">Map.h</text>
</a>
</g>
</g>
<!-- Node2&#45;&gt;Node6 -->
<g id="edge6" class="edge">
<title>Node2&#45;&gt;Node6</title>
<path fill="none" stroke="#63b8ff" d="M113.6,-120.99C139.4,-112.46 179.88,-99.09 212.47,-88.32"/>
<polygon fill="#63b8ff" stroke="#63b8ff" points="213.91,-91.53 222.31,-85.06 211.71,-84.88 213.91,-91.53"/>
</g>
<!-- Node5&#45;&gt;Node3 -->
<g id="edge5" class="edge">
<title>Node5&#45;&gt;Node3</title>
<path fill="none" stroke="#63b8ff" d="M122.94,-60.37C111.35,-51.21 92.83,-36.56 78.84,-25.51"/>
<polygon fill="#63b8ff" stroke="#63b8ff" points="80.84,-22.62 70.82,-19.17 76.5,-28.11 80.84,-22.62"/>
</g>
</g>
</svg>
