<?xml version="1.0" encoding="UTF-8" standalone="no"?>
<!DOCTYPE svg PUBLIC "-//W3C//DTD SVG 1.1//EN"
 "http://www.w3.org/Graphics/SVG/1.1/DTD/svg11.dtd">
<!-- Generated by graphviz version 2.43.0 (0)
 -->
<!-- Title: code/weapons/tests/TestTWeaponHolder.cpp Pages: 1 -->
<svg width="382pt" height="159pt"
 viewBox="0.00 0.00 381.50 159.00" xmlns="http://www.w3.org/2000/svg" xmlns:xlink="http://www.w3.org/1999/xlink">
<g id="graph0" class="graph" transform="scale(1 1) rotate(0) translate(4 155)">
<title>code/weapons/tests/TestTWeaponHolder.cpp</title>
<!-- Node1 -->
<g id="node1" class="node">
<title>Node1</title>
<g id="a_node1"><a xlink:title=" ">
<polygon fill="#999999" stroke="#666666" points="170,-151 34,-151 34,-121 170,-121 170,-151"/>
<text text-anchor="start" x="42" y="-139" font-family="Helvetica,sans-Serif" font-size="10.00">code/weapons/tests</text>
<text text-anchor="middle" x="102" y="-128" font-family="Helvetica,sans-Serif" font-size="10.00">/TestTWeaponHolder.cpp</text>
</a>
</g>
</g>
<!-- Node2 -->
<g id="node2" class="node">
<title>Node2</title>
<g id="a_node2"><a xlink:title=" ">
<polygon fill="#e0e0e0" stroke="#999999" points="78,-85 0,-85 0,-66 78,-66 78,-85"/>
<text text-anchor="middle" x="39" y="-73" font-family="Helvetica,sans-Serif" font-size="10.00">gtest/gtest.h</text>
</a>
</g>
</g>
<!-- Node1&#45;&gt;Node2 -->
<g id="edge1" class="edge">
<title>Node1&#45;&gt;Node2</title>
<path fill="none" stroke="#63b8ff" d="M86.75,-120.84C77.42,-112.17 65.47,-101.08 55.85,-92.15"/>
<polygon fill="#63b8ff" stroke="#63b8ff" points="58.15,-89.51 48.44,-85.27 53.39,-94.64 58.15,-89.51"/>
</g>
<!-- Node3 -->
<g id="node3" class="node">
<title>Node3</title>
<g id="a_node3"><a xlink:href="../../dc/d2c/TWeaponHolder_8h.html" target="_top" xlink:title=" ">
<polygon fill="white" stroke="#666666" points="233.5,-85 96.5,-85 96.5,-66 233.5,-66 233.5,-85"/>
<text text-anchor="middle" x="165" y="-73" font-family="Helvetica,sans-Serif" font-size="10.00">../code/TWeaponHolder.h</text>
</a>
</g>
</g>
<!-- Node1&#45;&gt;Node3 -->
<g id="edge2" class="edge">
<title>Node1&#45;&gt;Node3</title>
<path fill="none" stroke="#63b8ff" d="M117.25,-120.84C126.58,-112.17 138.53,-101.08 148.15,-92.15"/>
<polygon fill="#63b8ff" stroke="#63b8ff" points="150.61,-94.64 155.56,-85.27 145.85,-89.51 150.61,-94.64"/>
</g>
<!-- Node4 -->
<g id="node4" class="node">
<title>Node4</title>
<g id="a_node4"><a xlink:title=" ">
<polygon fill="#e0e0e0" stroke="#999999" points="70,-24.5 12,-24.5 12,-5.5 70,-5.5 70,-24.5"/>
<text text-anchor="middle" x="41" y="-12.5" font-family="Helvetica,sans-Serif" font-size="10.00">memory</text>
</a>
</g>
</g>
<!-- Node3&#45;&gt;Node4 -->
<g id="edge3" class="edge">
<title>Node3&#45;&gt;Node4</title>
<path fill="none" stroke="#63b8ff" d="M146.97,-65.99C126.31,-56.25 92.22,-40.16 68.3,-28.88"/>
<polygon fill="#63b8ff" stroke="#63b8ff" points="69.59,-25.62 59.05,-24.52 66.6,-31.95 69.59,-25.62"/>
</g>
<!-- Node5 -->
<g id="node5" class="node">
<title>Node5</title>
<g id="a_node5"><a xlink:title=" ">
<polygon fill="#e0e0e0" stroke="#999999" points="135.5,-24.5 88.5,-24.5 88.5,-5.5 135.5,-5.5 135.5,-24.5"/>
<text text-anchor="middle" x="112" y="-12.5" font-family="Helvetica,sans-Serif" font-size="10.00">vector</text>
</a>
</g>
</g>
<!-- Node3&#45;&gt;Node5 -->
<g id="edge4" class="edge">
<title>Node3&#45;&gt;Node5</title>
<path fill="none" stroke="#63b8ff" d="M157.18,-65.87C149.19,-57.05 136.61,-43.16 126.74,-32.27"/>
<polygon fill="#63b8ff" stroke="#63b8ff" points="129.16,-29.73 119.85,-24.67 123.97,-34.43 129.16,-29.73"/>
</g>
<!-- Node6 -->
<g id="node6" class="node">
<title>Node6</title>
<g id="a_node6"><a xlink:href="../../d8/d66/enum__place__on__ship_8h.html" target="_top" xlink:title=" ">
<polygon fill="white" stroke="#666666" points="284,-30 154,-30 154,0 284,0 284,-30"/>
<text text-anchor="start" x="162" y="-18" font-family="Helvetica,sans-Serif" font-size="10.00">../../enums/enum_place</text>
<text text-anchor="middle" x="219" y="-7" font-family="Helvetica,sans-Serif" font-size="10.00">_on_ship.h</text>
</a>
</g>
</g>
<!-- Node3&#45;&gt;Node6 -->
<g id="edge5" class="edge">
<title>Node3&#45;&gt;Node6</title>
<path fill="none" stroke="#63b8ff" d="M172.97,-65.87C179.82,-58.44 190,-47.42 199.05,-37.62"/>
<polygon fill="#63b8ff" stroke="#63b8ff" points="201.76,-39.84 205.97,-30.11 196.62,-35.09 201.76,-39.84"/>
</g>
<!-- Node7 -->
<g id="node7" class="node">
<title>Node7</title>
<g id="a_node7"><a xlink:href="../../d0/df8/TWeapon_8h.html" target="_top" xlink:title=" ">
<polygon fill="white" stroke="#666666" points="373.5,-24.5 302.5,-24.5 302.5,-5.5 373.5,-5.5 373.5,-24.5"/>
<text text-anchor="middle" x="338" y="-12.5" font-family="Helvetica,sans-Serif" font-size="10.00">TWeapon.h</text>
</a>
</g>
</g>
<!-- Node3&#45;&gt;Node7 -->
<g id="edge6" class="edge">
<title>Node3&#45;&gt;Node7</title>
<path fill="none" stroke="#63b8ff" d="M190.16,-65.99C219.88,-55.94 269.52,-39.16 302.99,-27.84"/>
<polygon fill="#63b8ff" stroke="#63b8ff" points="304.46,-31.04 312.81,-24.52 302.22,-24.4 304.46,-31.04"/>
</g>
</g>
</svg>
