<?xml version="1.0" encoding="UTF-8" standalone="no"?>
<!DOCTYPE svg PUBLIC "-//W3C//DTD SVG 1.1//EN"
 "http://www.w3.org/Graphics/SVG/1.1/DTD/svg11.dtd">
<!-- Generated by graphviz version 2.43.0 (0)
 -->
<!-- Title: TEST Pages: 1 -->
<svg width="237pt" height="434pt"
 viewBox="0.00 0.00 237.00 434.00" xmlns="http://www.w3.org/2000/svg" xmlns:xlink="http://www.w3.org/1999/xlink">
<g id="graph0" class="graph" transform="scale(1 1) rotate(0) translate(4 430)">
<title>TEST</title>
<!-- Node1 -->
<g id="node1" class="node">
<title>Node1</title>
<g id="a_node1"><a xlink:title=" ">
<polygon fill="#999999" stroke="#666666" points="41,-222 0,-222 0,-203 41,-203 41,-222"/>
<text text-anchor="middle" x="20.5" y="-210" font-family="Helvetica,sans-Serif" font-size="10.00">TEST</text>
</a>
</g>
</g>
<!-- Node2 -->
<g id="node2" class="node">
<title>Node2</title>
<g id="a_node2"><a xlink:href="../../d3/d81/classTCargoShip.html#ad6518f045b33ef07a6f84014d7921b4e" target="_top" xlink:title=" ">
<polygon fill="white" stroke="#666666" points="205.5,-426 100.5,-426 100.5,-407 205.5,-407 205.5,-426"/>
<text text-anchor="middle" x="153" y="-414" font-family="Helvetica,sans-Serif" font-size="10.00">TCargoShip::Clone</text>
</a>
</g>
</g>
<!-- Node1&#45;&gt;Node2 -->
<g id="edge1" class="edge">
<title>Node1&#45;&gt;Node2</title>
<path fill="none" stroke="#63b8ff" d="M21.26,-222.3C21.07,-253.16 24.88,-349.15 77,-398.5 81.07,-402.36 85.82,-405.43 90.91,-407.88"/>
<polygon fill="#63b8ff" stroke="#63b8ff" points="89.79,-411.2 100.37,-411.64 92.37,-404.7 89.79,-411.2"/>
</g>
<!-- Node3 -->
<g id="node3" class="node">
<title>Node3</title>
<g id="a_node3"><a xlink:href="../../d1/d07/classTShip.html#aa9ede65f6d5b238b077438769bee3132" target="_top" xlink:title=" ">
<polygon fill="white" stroke="#666666" points="214.5,-389 91.5,-389 91.5,-370 214.5,-370 214.5,-389"/>
<text text-anchor="middle" x="153" y="-377" font-family="Helvetica,sans-Serif" font-size="10.00">TShip::GetCapitanInfo</text>
</a>
</g>
</g>
<!-- Node1&#45;&gt;Node3 -->
<g id="edge2" class="edge">
<title>Node1&#45;&gt;Node3</title>
<path fill="none" stroke="#63b8ff" d="M22.09,-222.24C24.24,-248.86 34.02,-323.43 77,-361.5 78.71,-363.01 80.53,-364.41 82.42,-365.69"/>
<polygon fill="#63b8ff" stroke="#63b8ff" points="80.78,-368.78 91.22,-370.61 84.2,-362.67 80.78,-368.78"/>
</g>
<!-- Node4 -->
<g id="node4" class="node">
<title>Node4</title>
<g id="a_node4"><a xlink:href="../../d1/d07/classTShip.html#ab9eb49417d6be99d181e74a9327d9136" target="_top" xlink:title=" ">
<polygon fill="white" stroke="#666666" points="197.5,-352 108.5,-352 108.5,-333 197.5,-333 197.5,-352"/>
<text text-anchor="middle" x="153" y="-340" font-family="Helvetica,sans-Serif" font-size="10.00">TShip::GetCost</text>
</a>
</g>
</g>
<!-- Node1&#45;&gt;Node4 -->
<g id="edge3" class="edge">
<title>Node1&#45;&gt;Node4</title>
<path fill="none" stroke="#63b8ff" d="M23.36,-222.02C28.13,-243.77 42.9,-297.31 77,-324.5 83.26,-329.49 90.68,-333.13 98.38,-335.78"/>
<polygon fill="#63b8ff" stroke="#63b8ff" points="97.65,-339.21 108.23,-338.63 99.6,-332.49 97.65,-339.21"/>
</g>
<!-- Node5 -->
<g id="node5" class="node">
<title>Node5</title>
<g id="a_node5"><a xlink:href="../../d1/d07/classTShip.html#a4a57aac91bcd0b7ac413b30d228162cb" target="_top" xlink:title=" ">
<polygon fill="white" stroke="#666666" points="204,-315 102,-315 102,-296 204,-296 204,-315"/>
<text text-anchor="middle" x="153" y="-303" font-family="Helvetica,sans-Serif" font-size="10.00">TShip::GetHPNow</text>
</a>
</g>
</g>
<!-- Node1&#45;&gt;Node5 -->
<g id="edge4" class="edge">
<title>Node1&#45;&gt;Node5</title>
<path fill="none" stroke="#63b8ff" d="M25.79,-222.01C33.58,-238.12 51.61,-270.69 77,-287.5 81.68,-290.59 86.83,-293.16 92.18,-295.28"/>
<polygon fill="#63b8ff" stroke="#63b8ff" points="91.36,-298.7 101.96,-298.65 93.64,-292.08 91.36,-298.7"/>
</g>
<!-- Node6 -->
<g id="node6" class="node">
<title>Node6</title>
<g id="a_node6"><a xlink:href="../../d1/d07/classTShip.html#a0bec10d9d6f98500e99821ffab20e9d3" target="_top" xlink:title=" ">
<polygon fill="white" stroke="#666666" points="205,-278 101,-278 101,-259 205,-259 205,-278"/>
<text text-anchor="middle" x="153" y="-266" font-family="Helvetica,sans-Serif" font-size="10.00">TShip::GetHPTotal</text>
</a>
</g>
</g>
<!-- Node1&#45;&gt;Node6 -->
<g id="edge5" class="edge">
<title>Node1&#45;&gt;Node6</title>
<path fill="none" stroke="#63b8ff" d="M33.08,-222.31C43.82,-230.93 60.56,-243.2 77,-250.5 81.62,-252.55 86.52,-254.39 91.5,-256.04"/>
<polygon fill="#63b8ff" stroke="#63b8ff" points="90.55,-259.41 101.14,-258.96 92.59,-252.71 90.55,-259.41"/>
</g>
<!-- Node7 -->
<g id="node7" class="node">
<title>Node7</title>
<g id="a_node7"><a xlink:href="../../d1/d07/classTShip.html#a6176faf62af1a95fef2440e119afb717" target="_top" xlink:title=" ">
<polygon fill="white" stroke="#666666" points="212,-241 94,-241 94,-222 212,-222 212,-241"/>
<text text-anchor="middle" x="153" y="-229" font-family="Helvetica,sans-Serif" font-size="10.00">TShip::GetMaxSpeed</text>
</a>
</g>
</g>
<!-- Node1&#45;&gt;Node7 -->
<g id="edge6" class="edge">
<title>Node1&#45;&gt;Node7</title>
<path fill="none" stroke="#63b8ff" d="M41.04,-215.34C52.59,-217.03 67.97,-219.27 83.6,-221.54"/>
<polygon fill="#63b8ff" stroke="#63b8ff" points="83.47,-225.06 93.87,-223.04 84.48,-218.13 83.47,-225.06"/>
</g>
<!-- Node8 -->
<g id="node8" class="node">
<title>Node8</title>
<g id="a_node8"><a xlink:href="../../d1/d07/classTShip.html#a17546c8543198bd7a937c2b025c6d5e9" target="_top" xlink:title=" ">
<polygon fill="white" stroke="#666666" points="212.5,-204 93.5,-204 93.5,-185 212.5,-185 212.5,-204"/>
<text text-anchor="middle" x="153" y="-192" font-family="Helvetica,sans-Serif" font-size="10.00">TShip::GetNowSpeed</text>
</a>
</g>
</g>
<!-- Node1&#45;&gt;Node8 -->
<g id="edge7" class="edge">
<title>Node1&#45;&gt;Node8</title>
<path fill="none" stroke="#63b8ff" d="M41.04,-209.81C52.47,-208.23 67.66,-206.13 83.13,-204"/>
<polygon fill="#63b8ff" stroke="#63b8ff" points="83.87,-207.43 93.3,-202.6 82.91,-200.5 83.87,-207.43"/>
</g>
<!-- Node9 -->
<g id="node9" class="node">
<title>Node9</title>
<g id="a_node9"><a xlink:href="../../d1/d07/classTShip.html#acce1d32955675a0258d5c78bd323f7cc" target="_top" xlink:title=" ">
<polygon fill="white" stroke="#666666" points="211.5,-167 94.5,-167 94.5,-148 211.5,-148 211.5,-167"/>
<text text-anchor="middle" x="153" y="-155" font-family="Helvetica,sans-Serif" font-size="10.00">TShip::GetShipName</text>
</a>
</g>
</g>
<!-- Node1&#45;&gt;Node9 -->
<g id="edge8" class="edge">
<title>Node1&#45;&gt;Node9</title>
<path fill="none" stroke="#63b8ff" d="M33.62,-202.96C44.44,-194.87 61,-183.49 77,-176.5 82.65,-174.03 88.69,-171.84 94.8,-169.9"/>
<polygon fill="#63b8ff" stroke="#63b8ff" points="95.81,-173.25 104.4,-167.06 93.82,-166.54 95.81,-173.25"/>
</g>
<!-- Node10 -->
<g id="node10" class="node">
<title>Node10</title>
<g id="a_node10"><a xlink:href="../../d1/d07/classTShip.html#afa32e3f3b93a2749de2734914896bdbc" target="_top" xlink:title=" ">
<polygon fill="white" stroke="#666666" points="208,-130 98,-130 98,-111 208,-111 208,-130"/>
<text text-anchor="middle" x="153" y="-118" font-family="Helvetica,sans-Serif" font-size="10.00">TShip::GetShipType</text>
</a>
</g>
</g>
<!-- Node1&#45;&gt;Node10 -->
<g id="edge9" class="edge">
<title>Node1&#45;&gt;Node10</title>
<path fill="none" stroke="#63b8ff" d="M26.14,-202.78C34.2,-186.97 52.3,-155.84 77,-139.5 80.53,-137.17 84.32,-135.12 88.27,-133.32"/>
<polygon fill="#63b8ff" stroke="#63b8ff" points="89.69,-136.52 97.68,-129.57 87.1,-130.02 89.69,-136.52"/>
</g>
<!-- Node11 -->
<g id="node11" class="node">
<title>Node11</title>
<g id="a_node11"><a xlink:href="../../d3/d81/classTCargoShip.html#a28ddc9fa25ff3cccaeddd385f5003cc1" target="_top" xlink:title=" ">
<polygon fill="white" stroke="#666666" points="215.5,-93 90.5,-93 90.5,-74 215.5,-74 215.5,-93"/>
<text text-anchor="middle" x="153" y="-81" font-family="Helvetica,sans-Serif" font-size="10.00">TCargoShip::GetSlowK</text>
</a>
</g>
</g>
<!-- Node1&#45;&gt;Node11 -->
<g id="edge10" class="edge">
<title>Node1&#45;&gt;Node11</title>
<path fill="none" stroke="#63b8ff" d="M23.51,-202.85C28.52,-181.35 43.62,-129.26 77,-102.5 79.18,-100.75 81.51,-99.16 83.94,-97.71"/>
<polygon fill="#63b8ff" stroke="#63b8ff" points="85.77,-100.71 93.13,-93.08 82.62,-94.45 85.77,-100.71"/>
</g>
<!-- Node12 -->
<g id="node12" class="node">
<title>Node12</title>
<g id="a_node12"><a xlink:href="../../d3/d81/classTCargoShip.html#aac8aa5512f4e7ea9641f3a5812cc8722" target="_top" xlink:title=" ">
<polygon fill="white" stroke="#666666" points="228,-56 78,-56 78,-37 228,-37 228,-56"/>
<text text-anchor="middle" x="153" y="-44" font-family="Helvetica,sans-Serif" font-size="10.00">TCargoShip::GetWeightNow</text>
</a>
</g>
</g>
<!-- Node1&#45;&gt;Node12 -->
<g id="edge11" class="edge">
<title>Node1&#45;&gt;Node12</title>
<path fill="none" stroke="#63b8ff" d="M22.16,-202.92C24.49,-176.72 34.68,-103.29 77,-65.5 78.75,-63.94 80.61,-62.5 82.56,-61.18"/>
<polygon fill="#63b8ff" stroke="#63b8ff" points="84.6,-64.05 91.58,-56.08 81.16,-57.95 84.6,-64.05"/>
</g>
<!-- Node13 -->
<g id="node13" class="node">
<title>Node13</title>
<g id="a_node13"><a xlink:href="../../d3/d81/classTCargoShip.html#af864094175baefdf2e6f8c88a53ad716" target="_top" xlink:title=" ">
<polygon fill="white" stroke="#666666" points="229,-19 77,-19 77,0 229,0 229,-19"/>
<text text-anchor="middle" x="153" y="-7" font-family="Helvetica,sans-Serif" font-size="10.00">TCargoShip::GetWeightTotal</text>
</a>
</g>
</g>
<!-- Node1&#45;&gt;Node13 -->
<g id="edge12" class="edge">
<title>Node1&#45;&gt;Node13</title>
<path fill="none" stroke="#63b8ff" d="M21.32,-202.83C21.32,-172.38 25.63,-77.61 77,-28.5 78.49,-27.07 80.08,-25.75 81.74,-24.52"/>
<polygon fill="#63b8ff" stroke="#63b8ff" points="83.85,-27.33 90.58,-19.14 80.22,-21.35 83.85,-27.33"/>
</g>
</g>
</svg>
