<?xml version="1.0" encoding="UTF-8" standalone="no"?>
<!DOCTYPE svg PUBLIC "-//W3C//DTD SVG 1.1//EN"
 "http://www.w3.org/Graphics/SVG/1.1/DTD/svg11.dtd">
<!-- Generated by graphviz version 2.43.0 (0)
 -->
<!-- Title: TEST Pages: 1 -->
<svg width="237pt" height="212pt"
 viewBox="0.00 0.00 237.00 212.00" xmlns="http://www.w3.org/2000/svg" xmlns:xlink="http://www.w3.org/1999/xlink">
<g id="graph0" class="graph" transform="scale(1 1) rotate(0) translate(4 208)">
<title>TEST</title>
<!-- Node1 -->
<g id="node1" class="node">
<title>Node1</title>
<g id="a_node1"><a xlink:title=" ">
<polygon fill="#999999" stroke="#666666" points="41,-111 0,-111 0,-92 41,-92 41,-111"/>
<text text-anchor="middle" x="20.5" y="-99" font-family="Helvetica,sans-Serif" font-size="10.00">TEST</text>
</a>
</g>
</g>
<!-- Node2 -->
<g id="node2" class="node">
<title>Node2</title>
<g id="a_node2"><a xlink:href="../../d3/d81/classTCargoShip.html#a28ddc9fa25ff3cccaeddd385f5003cc1" target="_top" xlink:title=" ">
<polygon fill="white" stroke="#666666" points="215.5,-204 90.5,-204 90.5,-185 215.5,-185 215.5,-204"/>
<text text-anchor="middle" x="153" y="-192" font-family="Helvetica,sans-Serif" font-size="10.00">TCargoShip::GetSlowK</text>
</a>
</g>
</g>
<!-- Node1&#45;&gt;Node2 -->
<g id="edge1" class="edge">
<title>Node1&#45;&gt;Node2</title>
<path fill="none" stroke="#63b8ff" d="M25.79,-111.01C33.58,-127.12 51.61,-159.69 77,-176.5 79.41,-178.09 81.94,-179.55 84.56,-180.87"/>
<polygon fill="#63b8ff" stroke="#63b8ff" points="83.2,-184.09 93.76,-184.9 86.01,-177.68 83.2,-184.09"/>
</g>
<!-- Node3 -->
<g id="node3" class="node">
<title>Node3</title>
<g id="a_node3"><a xlink:href="../../d3/d81/classTCargoShip.html#aac8aa5512f4e7ea9641f3a5812cc8722" target="_top" xlink:title=" ">
<polygon fill="white" stroke="#666666" points="228,-167 78,-167 78,-148 228,-148 228,-167"/>
<text text-anchor="middle" x="153" y="-155" font-family="Helvetica,sans-Serif" font-size="10.00">TCargoShip::GetWeightNow</text>
</a>
</g>
</g>
<!-- Node1&#45;&gt;Node3 -->
<g id="edge2" class="edge">
<title>Node1&#45;&gt;Node3</title>
<path fill="none" stroke="#63b8ff" d="M33.08,-111.31C43.82,-119.93 60.56,-132.2 77,-139.5 81.62,-141.55 86.52,-143.39 91.5,-145.04"/>
<polygon fill="#63b8ff" stroke="#63b8ff" points="90.55,-148.41 101.14,-147.96 92.59,-141.71 90.55,-148.41"/>
</g>
<!-- Node4 -->
<g id="node4" class="node">
<title>Node4</title>
<g id="a_node4"><a xlink:href="../../d3/d81/classTCargoShip.html#af864094175baefdf2e6f8c88a53ad716" target="_top" xlink:title=" ">
<polygon fill="white" stroke="#666666" points="229,-130 77,-130 77,-111 229,-111 229,-130"/>
<text text-anchor="middle" x="153" y="-118" font-family="Helvetica,sans-Serif" font-size="10.00">TCargoShip::GetWeightTotal</text>
</a>
</g>
</g>
<!-- Node1&#45;&gt;Node4 -->
<g id="edge3" class="edge">
<title>Node1&#45;&gt;Node4</title>
<path fill="none" stroke="#63b8ff" d="M41.04,-104.34C50.84,-105.77 63.41,-107.6 76.54,-109.51"/>
<polygon fill="#63b8ff" stroke="#63b8ff" points="76.26,-113.01 86.66,-110.99 77.27,-106.08 76.26,-113.01"/>
</g>
<!-- Node5 -->
<g id="node5" class="node">
<title>Node5</title>
<g id="a_node5"><a xlink:href="../../d3/d81/classTCargoShip.html#ace0c59c661248f3e8f4623c24a345150" target="_top" xlink:title=" ">
<polygon fill="white" stroke="#666666" points="214.5,-93 91.5,-93 91.5,-74 214.5,-74 214.5,-93"/>
<text text-anchor="middle" x="153" y="-81" font-family="Helvetica,sans-Serif" font-size="10.00">TCargoShip::SetSlowK</text>
</a>
</g>
</g>
<!-- Node1&#45;&gt;Node5 -->
<g id="edge4" class="edge">
<title>Node1&#45;&gt;Node5</title>
<path fill="none" stroke="#63b8ff" d="M41.04,-98.81C51.96,-97.3 66.31,-95.32 81.05,-93.29"/>
<polygon fill="#63b8ff" stroke="#63b8ff" points="81.85,-96.71 91.28,-91.88 80.9,-89.77 81.85,-96.71"/>
</g>
<!-- Node6 -->
<g id="node6" class="node">
<title>Node6</title>
<g id="a_node6"><a xlink:href="../../d3/d81/classTCargoShip.html#a9a12a2c02b7b32f49c952f4c13e74a77" target="_top" xlink:title=" ">
<polygon fill="white" stroke="#666666" points="227.5,-56 78.5,-56 78.5,-37 227.5,-37 227.5,-56"/>
<text text-anchor="middle" x="153" y="-44" font-family="Helvetica,sans-Serif" font-size="10.00">TCargoShip::SetWeightNow</text>
</a>
</g>
</g>
<!-- Node1&#45;&gt;Node6 -->
<g id="edge5" class="edge">
<title>Node1&#45;&gt;Node6</title>
<path fill="none" stroke="#63b8ff" d="M33.62,-91.96C44.44,-83.87 61,-72.49 77,-65.5 82.65,-63.03 88.69,-60.84 94.8,-58.9"/>
<polygon fill="#63b8ff" stroke="#63b8ff" points="95.81,-62.25 104.4,-56.06 93.82,-55.54 95.81,-62.25"/>
</g>
<!-- Node7 -->
<g id="node7" class="node">
<title>Node7</title>
<g id="a_node7"><a xlink:href="../../d3/d81/classTCargoShip.html#a15e744d84fa3dab4954b59e9d4caf254" target="_top" xlink:title=" ">
<polygon fill="white" stroke="#666666" points="228,-19 78,-19 78,0 228,0 228,-19"/>
<text text-anchor="middle" x="153" y="-7" font-family="Helvetica,sans-Serif" font-size="10.00">TCargoShip::SetWeightTotal</text>
</a>
</g>
</g>
<!-- Node1&#45;&gt;Node7 -->
<g id="edge6" class="edge">
<title>Node1&#45;&gt;Node7</title>
<path fill="none" stroke="#63b8ff" d="M26.14,-91.78C34.2,-75.97 52.3,-44.84 77,-28.5 80.09,-26.45 83.39,-24.63 86.82,-23"/>
<polygon fill="#63b8ff" stroke="#63b8ff" points="88.24,-26.2 96.12,-19.13 85.55,-19.74 88.24,-26.2"/>
</g>
</g>
</svg>
