<?xml version="1.0" encoding="UTF-8" standalone="no"?>
<!DOCTYPE svg PUBLIC "-//W3C//DTD SVG 1.1//EN"
 "http://www.w3.org/Graphics/SVG/1.1/DTD/svg11.dtd">
<!-- Generated by graphviz version 2.43.0 (0)
 -->
<!-- Title: TEST Pages: 1 -->
<svg width="219pt" height="64pt"
 viewBox="0.00 0.00 219.00 64.00" xmlns="http://www.w3.org/2000/svg" xmlns:xlink="http://www.w3.org/1999/xlink">
<g id="graph0" class="graph" transform="scale(1 1) rotate(0) translate(4 60)">
<title>TEST</title>
<!-- Node1 -->
<g id="node1" class="node">
<title>Node1</title>
<g id="a_node1"><a xlink:title=" ">
<polygon fill="#999999" stroke="#666666" points="41,-37 0,-37 0,-18 41,-18 41,-37"/>
<text text-anchor="middle" x="20.5" y="-25" font-family="Helvetica,sans-Serif" font-size="10.00">TEST</text>
</a>
</g>
</g>
<!-- Node2 -->
<g id="node2" class="node">
<title>Node2</title>
<g id="a_node2"><a xlink:href="../../d1/d3d/classTWeapon.html#a552b334667ca95387af82df662334f72" target="_top" xlink:title=" ">
<polygon fill="white" stroke="#666666" points="211,-56 77,-56 77,-37 211,-37 211,-56"/>
<text text-anchor="middle" x="144" y="-44" font-family="Helvetica,sans-Serif" font-size="10.00">TWeapon::GetShotsNow</text>
</a>
</g>
</g>
<!-- Node1&#45;&gt;Node2 -->
<g id="edge1" class="edge">
<title>Node1&#45;&gt;Node2</title>
<path fill="none" stroke="#63b8ff" d="M41.02,-30.55C49.74,-31.92 60.6,-33.61 71.95,-35.39"/>
<polygon fill="#63b8ff" stroke="#63b8ff" points="71.6,-38.88 82.02,-36.96 72.68,-31.96 71.6,-38.88"/>
</g>
<!-- Node3 -->
<g id="node3" class="node">
<title>Node3</title>
<g id="a_node3"><a xlink:href="../../d1/d3d/classTWeapon.html#a2bf519e492f0236067ee217b618483e8" target="_top" xlink:title=" ">
<polygon fill="white" stroke="#666666" points="202,-19 86,-19 86,0 202,0 202,-19"/>
<text text-anchor="middle" x="144" y="-7" font-family="Helvetica,sans-Serif" font-size="10.00">TWeapon::MakeShot</text>
</a>
</g>
</g>
<!-- Node1&#45;&gt;Node3 -->
<g id="edge2" class="edge">
<title>Node1&#45;&gt;Node3</title>
<path fill="none" stroke="#63b8ff" d="M41.02,-24.61C50.71,-23.17 63.04,-21.35 75.76,-19.46"/>
<polygon fill="#63b8ff" stroke="#63b8ff" points="76.62,-22.87 86,-17.94 75.59,-15.95 76.62,-22.87"/>
</g>
</g>
</svg>
