<?xml version="1.0" encoding="UTF-8" standalone="no"?>
<!DOCTYPE svg PUBLIC "-//W3C//DTD SVG 1.1//EN"
 "http://www.w3.org/Graphics/SVG/1.1/DTD/svg11.dtd">
<!-- Generated by graphviz version 2.43.0 (0)
 -->
<!-- Title: TEST Pages: 1 -->
<!--zoomable 582 -->
<svg id="main" version="1.1" xmlns="http://www.w3.org/2000/svg" xmlns:xlink="http://www.w3.org/1999/xlink" xml:space="preserve" onload="init(evt)">
<style type="text/css"><![CDATA[
.edge:hover path { stroke: red; }
.edge:hover polygon { stroke: red; fill: red; }
]]></style>
<script type="text/javascript"><![CDATA[
var edges = document.getElementsByTagName('g');
if (edges && edges.length) {
  for (var i=0;i<edges.length;i++) {
    if (edges[i].id.substr(0,4)=='edge') {
      edges[i].setAttribute('class','edge');
    }
  }
}
]]></script>
        <defs>
                <circle id="rim" cx="0" cy="0" r="7"/>
                <circle id="rim2" cx="0" cy="0" r="3.5"/>
                <g id="zoomPlus">
                        <use xlink:href="#rim" fill="#404040">
                                <set attributeName="fill" to="#808080" begin="zoomplus.mouseover" end="zoomplus.mouseout"/>
                        </use>
                        <path d="M-4,0h8M0,-4v8" fill="none" stroke="white" stroke-width="1.5" pointer-events="none"/>
                </g>
                <g id="zoomMin">
                        <use xlink:href="#rim" fill="#404040">
                                <set attributeName="fill" to="#808080" begin="zoomminus.mouseover" end="zoomminus.mouseout"/>
                        </use>
                        <path d="M-4,0h8" fill="none" stroke="white" stroke-width="1.5" pointer-events="none"/>
                </g>
                <g id="dirArrow">
                        <path fill="none" stroke="white" stroke-width="1.5" d="M0,-3.0v7 M-2.5,-0.5L0,-3.0L2.5,-0.5"/>
                </g>
               <g id="resetDef">
                       <use xlink:href="#rim2" fill="#404040">
                               <set attributeName="fill" to="#808080" begin="reset.mouseover" end="reset.mouseout"/>
                       </use>
               </g>
        </defs>

<script type="text/javascript">
var viewWidth = 231;
var viewHeight = 582;
var sectionId = 'dynsection-3';
</script>
<script xlink:href="../../svgpan.js"/>
<svg id="graph" class="graph">
<g id="viewport">
<title>TEST</title>
<!-- Node1 -->
<g id="node1" class="node">
<title>Node1</title>
<g id="a_node1"><a xlink:title=" ">
<polygon fill="#999999" stroke="#666666" points="41,-296 0,-296 0,-277 41,-277 41,-296"/>
<text text-anchor="middle" x="20.5" y="-284" font-family="Helvetica,sans-Serif" font-size="10.00">TEST</text>
</a>
</g>
</g>
<!-- Node2 -->
<g id="node2" class="node">
<title>Node2</title>
<g id="a_node2"><a xlink:href="../../d1/d3d/classTWeapon.html#ae92ec3b0c63bd45b32550e102f46b6e0" target="_top" xlink:title=" ">
<polygon fill="white" stroke="#666666" points="215.5,-574 84.5,-574 84.5,-555 215.5,-555 215.5,-574"/>
<text text-anchor="middle" x="150" y="-562" font-family="Helvetica,sans-Serif" font-size="10.00">TWeapon::GetCallDown</text>
</a>
</g>
</g>
<!-- Node1&#45;&gt;Node2 -->
<g id="edge1" class="edge">
<title>Node1&#45;&gt;Node2</title>
<path fill="none" stroke="#63b8ff" d="M22.22,-296.21C25.6,-338.91 41.17,-509.4 77,-546.5 77.81,-547.33 78.64,-548.13 79.51,-548.89"/>
<polygon fill="#63b8ff" stroke="#63b8ff" points="77.81,-551.98 88.01,-554.86 81.84,-546.25 77.81,-551.98"/>
</g>
<!-- Node3 -->
<g id="node3" class="node">
<title>Node3</title>
<g id="a_node3"><a xlink:href="../../d1/d3d/classTWeapon.html#a2074e5b5b326730d5212a3dc00df06f4" target="_top" xlink:title=" ">
<polygon fill="white" stroke="#666666" points="203.5,-537 96.5,-537 96.5,-518 203.5,-518 203.5,-537"/>
<text text-anchor="middle" x="150" y="-525" font-family="Helvetica,sans-Serif" font-size="10.00">TWeapon::GetCost</text>
</a>
</g>
</g>
<!-- Node1&#45;&gt;Node3 -->
<g id="edge2" class="edge">
<title>Node1&#45;&gt;Node3</title>
<path fill="none" stroke="#63b8ff" d="M22.58,-296.12C27.12,-334.78 45.84,-478.31 77,-509.5 80.02,-512.53 83.47,-515.07 87.18,-517.2"/>
<polygon fill="#63b8ff" stroke="#63b8ff" points="85.72,-520.38 96.25,-521.48 88.7,-514.05 85.72,-520.38"/>
</g>
<!-- Node4 -->
<g id="node4" class="node">
<title>Node4</title>
<g id="a_node4"><a xlink:href="../../d1/d3d/classTWeapon.html#ad3dabcddb3f17a8e0cec427b30df1f50" target="_top" xlink:title=" ">
<polygon fill="white" stroke="#666666" points="213,-500 87,-500 87,-481 213,-481 213,-500"/>
<text text-anchor="middle" x="150" y="-488" font-family="Helvetica,sans-Serif" font-size="10.00">TWeapon::GetDamage</text>
</a>
</g>
</g>
<!-- Node1&#45;&gt;Node4 -->
<g id="edge3" class="edge">
<title>Node1&#45;&gt;Node4</title>
<path fill="none" stroke="#63b8ff" d="M21.28,-296.28C21.15,-327.07 25.12,-422.9 77,-472.5 78.11,-473.56 79.26,-474.56 80.47,-475.5"/>
<polygon fill="#63b8ff" stroke="#63b8ff" points="78.67,-478.5 88.99,-480.93 82.44,-472.6 78.67,-478.5"/>
</g>
<!-- Node5 -->
<g id="node5" class="node">
<title>Node5</title>
<g id="a_node5"><a xlink:href="../../d1/d3d/classTWeapon.html#a3cd2bb843a107a28dfa55ed33e3f5a85" target="_top" xlink:title=" ">
<polygon fill="white" stroke="#666666" points="213.5,-463 86.5,-463 86.5,-444 213.5,-444 213.5,-463"/>
<text text-anchor="middle" x="150" y="-451" font-family="Helvetica,sans-Serif" font-size="10.00">TWeapon::GetLastShot</text>
</a>
</g>
</g>
<!-- Node1&#45;&gt;Node5 -->
<g id="edge4" class="edge">
<title>Node1&#45;&gt;Node5</title>
<path fill="none" stroke="#63b8ff" d="M22.11,-296.21C24.31,-322.78 34.2,-397.23 77,-435.5 78.17,-436.55 79.39,-437.53 80.66,-438.47"/>
<polygon fill="#63b8ff" stroke="#63b8ff" points="79.21,-441.68 89.58,-443.85 82.82,-435.68 79.21,-441.68"/>
</g>
<!-- Node6 -->
<g id="node6" class="node">
<title>Node6</title>
<g id="a_node6"><a xlink:href="../../d1/d3d/classTWeapon.html#acfec269f458a55f449332f84849b80d5" target="_top" xlink:title=" ">
<polygon fill="white" stroke="#666666" points="208,-426 92,-426 92,-407 208,-407 208,-426"/>
<text text-anchor="middle" x="150" y="-414" font-family="Helvetica,sans-Serif" font-size="10.00">TWeapon::GetRange</text>
</a>
</g>
</g>
<!-- Node1&#45;&gt;Node6 -->
<g id="edge5" class="edge">
<title>Node1&#45;&gt;Node6</title>
<path fill="none" stroke="#63b8ff" d="M23.45,-296.33C28.34,-318.23 43.19,-371.28 77,-398.5 78.79,-399.94 80.69,-401.27 82.66,-402.5"/>
<polygon fill="#63b8ff" stroke="#63b8ff" points="81.25,-405.71 91.73,-407.23 84.48,-399.5 81.25,-405.71"/>
</g>
<!-- Node7 -->
<g id="node7" class="node">
<title>Node7</title>
<g id="a_node7"><a xlink:href="../../d1/d3d/classTWeapon.html#a552b334667ca95387af82df662334f72" target="_top" xlink:title=" ">
<polygon fill="white" stroke="#666666" points="217,-389 83,-389 83,-370 217,-370 217,-389"/>
<text text-anchor="middle" x="150" y="-377" font-family="Helvetica,sans-Serif" font-size="10.00">TWeapon::GetShotsNow</text>
</a>
</g>
</g>
<!-- Node1&#45;&gt;Node7 -->
<g id="edge6" class="edge">
<title>Node1&#45;&gt;Node7</title>
<path fill="none" stroke="#63b8ff" d="M25.93,-296.24C33.81,-312.41 51.82,-344.66 77,-361.5 79.41,-363.11 81.95,-364.58 84.59,-365.91"/>
<polygon fill="#63b8ff" stroke="#63b8ff" points="83.26,-369.16 93.83,-369.97 86.08,-362.75 83.26,-369.16"/>
</g>
<!-- Node8 -->
<g id="node8" class="node">
<title>Node8</title>
<g id="a_node8"><a xlink:href="../../d1/d3d/classTWeapon.html#a87ca4fe2cd5ce2aaceda038bab216fd0" target="_top" xlink:title=" ">
<polygon fill="white" stroke="#666666" points="217.5,-352 82.5,-352 82.5,-333 217.5,-333 217.5,-352"/>
<text text-anchor="middle" x="150" y="-340" font-family="Helvetica,sans-Serif" font-size="10.00">TWeapon::GetShotsTotal</text>
</a>
</g>
</g>
<!-- Node1&#45;&gt;Node8 -->
<g id="edge7" class="edge">
<title>Node1&#45;&gt;Node8</title>
<path fill="none" stroke="#63b8ff" d="M33.1,-296.28C43.85,-304.87 60.6,-317.12 77,-324.5 81.4,-326.48 86.04,-328.26 90.78,-329.87"/>
<polygon fill="#63b8ff" stroke="#63b8ff" points="89.97,-333.28 100.56,-332.91 92.05,-326.6 89.97,-333.28"/>
</g>
<!-- Node9 -->
<g id="node9" class="node">
<title>Node9</title>
<g id="a_node9"><a xlink:href="../../d1/d3d/classTWeapon.html#af5165ccb82aed7d3852f0e6f7f936148" target="_top" xlink:title=" ">
<polygon fill="white" stroke="#666666" points="223,-315 77,-315 77,-296 223,-296 223,-315"/>
<text text-anchor="middle" x="150" y="-303" font-family="Helvetica,sans-Serif" font-size="10.00">TWeapon::GetWeaponType</text>
</a>
</g>
</g>
<!-- Node1&#45;&gt;Node9 -->
<g id="edge8" class="edge">
<title>Node1&#45;&gt;Node9</title>
<path fill="none" stroke="#63b8ff" d="M41.14,-289.43C50.57,-290.83 62.52,-292.61 75,-294.47"/>
<polygon fill="#63b8ff" stroke="#63b8ff" points="74.69,-297.96 85.09,-295.98 75.72,-291.04 74.69,-297.96"/>
</g>
<!-- Node10 -->
<g id="node10" class="node">
<title>Node10</title>
<g id="a_node10"><a xlink:href="../../d1/d3d/classTWeapon.html#a8203fa767f0be727fd4aa43bc3d54d8d" target="_top" xlink:title=" ">
<polygon fill="white" stroke="#666666" points="215,-278 85,-278 85,-259 215,-259 215,-278"/>
<text text-anchor="middle" x="150" y="-266" font-family="Helvetica,sans-Serif" font-size="10.00">TWeapon::SetCallDown</text>
</a>
</g>
</g>
<!-- Node1&#45;&gt;Node10 -->
<g id="edge9" class="edge">
<title>Node1&#45;&gt;Node10</title>
<path fill="none" stroke="#63b8ff" d="M41.14,-283.73C50.51,-282.4 62.38,-280.73 74.78,-278.98"/>
<polygon fill="#63b8ff" stroke="#63b8ff" points="75.4,-282.43 84.81,-277.56 74.42,-275.49 75.4,-282.43"/>
</g>
<!-- Node11 -->
<g id="node11" class="node">
<title>Node11</title>
<g id="a_node11"><a xlink:href="../../d1/d3d/classTWeapon.html#ac4fea7ba700a0ea83af7b3469b8a1fd9" target="_top" xlink:title=" ">
<polygon fill="white" stroke="#666666" points="202.5,-241 97.5,-241 97.5,-222 202.5,-222 202.5,-241"/>
<text text-anchor="middle" x="150" y="-229" font-family="Helvetica,sans-Serif" font-size="10.00">TWeapon::SetCost</text>
</a>
</g>
</g>
<!-- Node1&#45;&gt;Node11 -->
<g id="edge10" class="edge">
<title>Node1&#45;&gt;Node11</title>
<path fill="none" stroke="#63b8ff" d="M34.06,-276.68C44.9,-268.63 61.25,-257.47 77,-250.5 82.38,-248.12 88.12,-245.99 93.92,-244.09"/>
<polygon fill="#63b8ff" stroke="#63b8ff" points="95.15,-247.37 103.69,-241.11 93.11,-240.67 95.15,-247.37"/>
</g>
<!-- Node12 -->
<g id="node12" class="node">
<title>Node12</title>
<g id="a_node12"><a xlink:href="../../d1/d3d/classTWeapon.html#ac69ac49187c45f5bb347b178d6068e2d" target="_top" xlink:title=" ">
<polygon fill="white" stroke="#666666" points="212.5,-204 87.5,-204 87.5,-185 212.5,-185 212.5,-204"/>
<text text-anchor="middle" x="150" y="-192" font-family="Helvetica,sans-Serif" font-size="10.00">TWeapon::SetDamage</text>
</a>
</g>
</g>
<!-- Node1&#45;&gt;Node12 -->
<g id="edge11" class="edge">
<title>Node1&#45;&gt;Node12</title>
<path fill="none" stroke="#63b8ff" d="M26.16,-276.8C34.24,-261.04 52.38,-229.96 77,-213.5 80.08,-211.44 83.38,-209.6 86.8,-207.96"/>
<polygon fill="#63b8ff" stroke="#63b8ff" points="88.22,-211.16 96.1,-204.07 85.52,-204.7 88.22,-211.16"/>
</g>
<!-- Node13 -->
<g id="node13" class="node">
<title>Node13</title>
<g id="a_node13"><a xlink:href="../../d1/d3d/classTWeapon.html#ac3598f27952d282a4afb5adc1f98ef6c" target="_top" xlink:title=" ">
<polygon fill="white" stroke="#666666" points="212.5,-167 87.5,-167 87.5,-148 212.5,-148 212.5,-167"/>
<text text-anchor="middle" x="150" y="-155" font-family="Helvetica,sans-Serif" font-size="10.00">TWeapon::SetLastShot</text>
</a>
</g>
</g>
<!-- Node1&#45;&gt;Node13 -->
<g id="edge12" class="edge">
<title>Node1&#45;&gt;Node13</title>
<path fill="none" stroke="#63b8ff" d="M23.53,-276.88C28.58,-255.42 43.76,-203.43 77,-176.5 79.26,-174.67 81.68,-173.01 84.21,-171.52"/>
<polygon fill="#63b8ff" stroke="#63b8ff" points="85.82,-174.62 93.19,-167.01 82.69,-168.37 85.82,-174.62"/>
</g>
<!-- Node14 -->
<g id="node14" class="node">
<title>Node14</title>
<g id="a_node14"><a xlink:href="../../d1/d3d/classTWeapon.html#a072c99bb30315d650640fe8283f3b181" target="_top" xlink:title=" ">
<polygon fill="white" stroke="#666666" points="207,-130 93,-130 93,-111 207,-111 207,-130"/>
<text text-anchor="middle" x="150" y="-118" font-family="Helvetica,sans-Serif" font-size="10.00">TWeapon::SetRange</text>
</a>
</g>
</g>
<!-- Node1&#45;&gt;Node14 -->
<g id="edge13" class="edge">
<title>Node1&#45;&gt;Node14</title>
<path fill="none" stroke="#63b8ff" d="M22.18,-276.94C24.56,-250.79 34.87,-177.5 77,-139.5 79.02,-137.68 81.19,-136.03 83.47,-134.54"/>
<polygon fill="#63b8ff" stroke="#63b8ff" points="85.64,-137.35 92.77,-129.52 82.31,-131.19 85.64,-137.35"/>
</g>
<!-- Node15 -->
<g id="node15" class="node">
<title>Node15</title>
<g id="a_node15"><a xlink:href="../../d1/d3d/classTWeapon.html#afb6cca8a42446761cc6fef8656392269" target="_top" xlink:title=" ">
<polygon fill="white" stroke="#666666" points="216,-93 84,-93 84,-74 216,-74 216,-93"/>
<text text-anchor="middle" x="150" y="-81" font-family="Helvetica,sans-Serif" font-size="10.00">TWeapon::SetShotsNow</text>
</a>
</g>
</g>
<!-- Node1&#45;&gt;Node15 -->
<g id="edge14" class="edge">
<title>Node1&#45;&gt;Node15</title>
<path fill="none" stroke="#63b8ff" d="M21.34,-276.85C21.4,-246.46 25.88,-151.87 77,-102.5 78.5,-101.05 80.1,-99.71 81.77,-98.47"/>
<polygon fill="#63b8ff" stroke="#63b8ff" points="83.98,-101.23 90.72,-93.05 80.35,-95.24 83.98,-101.23"/>
</g>
<!-- Node16 -->
<g id="node16" class="node">
<title>Node16</title>
<g id="a_node16"><a xlink:href="../../d1/d3d/classTWeapon.html#ac4dc7b5d57c1e0c818671a7353a33171" target="_top" xlink:title=" ">
<polygon fill="white" stroke="#666666" points="217,-56 83,-56 83,-37 217,-37 217,-56"/>
<text text-anchor="middle" x="150" y="-44" font-family="Helvetica,sans-Serif" font-size="10.00">TWeapon::SetShotsTotal</text>
</a>
</g>
</g>
<!-- Node1&#45;&gt;Node16 -->
<g id="edge15" class="edge">
<title>Node1&#45;&gt;Node16</title>
<path fill="none" stroke="#63b8ff" d="M22.61,-276.98C27.24,-238.7 46.28,-96.59 77,-65.5 78.43,-64.05 79.96,-62.71 81.57,-61.47"/>
<polygon fill="#63b8ff" stroke="#63b8ff" points="83.59,-64.33 90.18,-56.04 79.85,-58.41 83.59,-64.33"/>
</g>
<!-- Node17 -->
<g id="node17" class="node">
<title>Node17</title>
<g id="a_node17"><a xlink:href="../../d1/d3d/classTWeapon.html#a7df03e5ad6b3e1031dd8ad37d3f300cd" target="_top" xlink:title=" ">
<polygon fill="white" stroke="#666666" points="222.5,-19 77.5,-19 77.5,0 222.5,0 222.5,-19"/>
<text text-anchor="middle" x="150" y="-7" font-family="Helvetica,sans-Serif" font-size="10.00">TWeapon::SetWeaponType</text>
</a>
</g>
</g>
<!-- Node1&#45;&gt;Node17 -->
<g id="edge16" class="edge">
<title>Node1&#45;&gt;Node17</title>
<path fill="none" stroke="#63b8ff" d="M22.25,-276.87C25.72,-234.55 41.64,-65.53 77,-28.5 78.26,-27.18 79.6,-25.95 81,-24.8"/>
<polygon fill="#63b8ff" stroke="#63b8ff" points="83.27,-27.5 89.69,-19.08 79.42,-21.66 83.27,-27.5"/>
</g>
</g>
</svg>
        <g id="navigator" transform="translate(0 0)" fill="#404254">
                <rect fill="#f2f5e9" fill-opacity="0.5" stroke="#606060" stroke-width=".5" x="0" y="0" width="60" height="60"/>
                <use id="zoomplus" xlink:href="#zoomPlus" x="17" y="9" onmousedown="handleZoom(evt,'in')"/>
                <use id="zoomminus" xlink:href="#zoomMin" x="42" y="9" onmousedown="handleZoom(evt,'out')"/>
                <use id="reset" xlink:href="#resetDef" x="30" y="36" onmousedown="handleReset()"/>
                <g id="arrowUp" xlink:href="#dirArrow" transform="translate(30 24)" onmousedown="handlePan(0,-1)">
                  <use xlink:href="#rim" fill="#404040">
                        <set attributeName="fill" to="#808080" begin="arrowUp.mouseover" end="arrowUp.mouseout"/>
                  </use>
                  <path fill="none" stroke="white" stroke-width="1.5" d="M0,-3.0v7 M-2.5,-0.5L0,-3.0L2.5,-0.5"/>
                </g>
                <g id="arrowRight" xlink:href="#dirArrow" transform="rotate(90) translate(36 -43)" onmousedown="handlePan(1,0)">
                  <use xlink:href="#rim" fill="#404040">
                        <set attributeName="fill" to="#808080" begin="arrowRight.mouseover" end="arrowRight.mouseout"/>
                  </use>
                  <path fill="none" stroke="white" stroke-width="1.5" d="M0,-3.0v7 M-2.5,-0.5L0,-3.0L2.5,-0.5"/>
                </g>
                <g id="arrowDown" xlink:href="#dirArrow" transform="rotate(180) translate(-30 -48)" onmousedown="handlePan(0,1)">
                  <use xlink:href="#rim" fill="#404040">
                        <set attributeName="fill" to="#808080" begin="arrowDown.mouseover" end="arrowDown.mouseout"/>
                  </use>
                  <path fill="none" stroke="white" stroke-width="1.5" d="M0,-3.0v7 M-2.5,-0.5L0,-3.0L2.5,-0.5"/>
                </g>
                <g id="arrowLeft" xlink:href="#dirArrow" transform="rotate(270) translate(-36 17)" onmousedown="handlePan(-1,0)">
                  <use xlink:href="#rim" fill="#404040">
                        <set attributeName="fill" to="#808080" begin="arrowLeft.mouseover" end="arrowLeft.mouseout"/>
                  </use>
                  <path fill="none" stroke="white" stroke-width="1.5" d="M0,-3.0v7 M-2.5,-0.5L0,-3.0L2.5,-0.5"/>
                </g>
        </g>
        <svg viewBox="0 0 15 15" width="100%" height="30px" preserveAspectRatio="xMaxYMin meet">
         <g id="arrow_out" transform="scale(0.3 0.3)">
          <a xlink:href="TestTWeapon_8cpp_a0b70ec9d1fc7df74b3bde45702292317_cgraph_org.svg" target="_base">
           <rect id="button" ry="5" rx="5" y="6" x="6" height="38" width="38"
                fill="#f2f5e9" fill-opacity="0.5" stroke="#606060" stroke-width="1.0"/>
           <path id="arrow"
             d="M 11.500037,31.436501 C 11.940474,20.09759 22.043105,11.32322 32.158766,21.979434 L 37.068811,17.246167 C 37.068811,17.246167 37.088388,32 37.088388,32 L 22.160133,31.978069 C 22.160133,31.978069 26.997745,27.140456 26.997745,27.140456 C 18.528582,18.264221 13.291696,25.230495 11.500037,31.436501 z"
             style="fill:#404040;"/>
          </a>
         </g>
        </svg>
</svg>
