<?xml version="1.0" encoding="UTF-8" standalone="no"?>
<!DOCTYPE svg PUBLIC "-//W3C//DTD SVG 1.1//EN"
 "http://www.w3.org/Graphics/SVG/1.1/DTD/svg11.dtd">
<!-- Generated by graphviz version 2.43.0 (0)
 -->
<!-- Title: TEST Pages: 1 -->
<svg width="231pt" height="286pt"
 viewBox="0.00 0.00 231.00 286.00" xmlns="http://www.w3.org/2000/svg" xmlns:xlink="http://www.w3.org/1999/xlink">
<g id="graph0" class="graph" transform="scale(1 1) rotate(0) translate(4 282)">
<title>TEST</title>
<!-- Node1 -->
<g id="node1" class="node">
<title>Node1</title>
<g id="a_node1"><a xlink:title=" ">
<polygon fill="#999999" stroke="#666666" points="41,-148 0,-148 0,-129 41,-129 41,-148"/>
<text text-anchor="middle" x="20.5" y="-136" font-family="Helvetica,sans-Serif" font-size="10.00">TEST</text>
</a>
</g>
</g>
<!-- Node2 -->
<g id="node2" class="node">
<title>Node2</title>
<g id="a_node2"><a xlink:href="../../d1/d3d/classTWeapon.html#ae92ec3b0c63bd45b32550e102f46b6e0" target="_top" xlink:title=" ">
<polygon fill="white" stroke="#666666" points="215.5,-278 84.5,-278 84.5,-259 215.5,-259 215.5,-278"/>
<text text-anchor="middle" x="150" y="-266" font-family="Helvetica,sans-Serif" font-size="10.00">TWeapon::GetCallDown</text>
</a>
</g>
</g>
<!-- Node1&#45;&gt;Node2 -->
<g id="edge1" class="edge">
<title>Node1&#45;&gt;Node2</title>
<path fill="none" stroke="#63b8ff" d="M23.45,-148.33C28.34,-170.23 43.19,-223.28 77,-250.5 78.58,-251.77 80.24,-252.96 81.96,-254.06"/>
<polygon fill="#63b8ff" stroke="#63b8ff" points="80.55,-257.27 91.01,-258.91 83.85,-251.1 80.55,-257.27"/>
</g>
<!-- Node3 -->
<g id="node3" class="node">
<title>Node3</title>
<g id="a_node3"><a xlink:href="../../d1/d3d/classTWeapon.html#a2074e5b5b326730d5212a3dc00df06f4" target="_top" xlink:title=" ">
<polygon fill="white" stroke="#666666" points="203.5,-241 96.5,-241 96.5,-222 203.5,-222 203.5,-241"/>
<text text-anchor="middle" x="150" y="-229" font-family="Helvetica,sans-Serif" font-size="10.00">TWeapon::GetCost</text>
</a>
</g>
</g>
<!-- Node1&#45;&gt;Node3 -->
<g id="edge2" class="edge">
<title>Node1&#45;&gt;Node3</title>
<path fill="none" stroke="#63b8ff" d="M25.93,-148.24C33.81,-164.41 51.82,-196.66 77,-213.5 80.13,-215.59 83.48,-217.44 86.97,-219.08"/>
<polygon fill="#63b8ff" stroke="#63b8ff" points="85.85,-222.4 96.44,-222.92 88.49,-215.92 85.85,-222.4"/>
</g>
<!-- Node4 -->
<g id="node4" class="node">
<title>Node4</title>
<g id="a_node4"><a xlink:href="../../d1/d3d/classTWeapon.html#ad3dabcddb3f17a8e0cec427b30df1f50" target="_top" xlink:title=" ">
<polygon fill="white" stroke="#666666" points="213,-204 87,-204 87,-185 213,-185 213,-204"/>
<text text-anchor="middle" x="150" y="-192" font-family="Helvetica,sans-Serif" font-size="10.00">TWeapon::GetDamage</text>
</a>
</g>
</g>
<!-- Node1&#45;&gt;Node4 -->
<g id="edge3" class="edge">
<title>Node1&#45;&gt;Node4</title>
<path fill="none" stroke="#63b8ff" d="M33.1,-148.28C43.85,-156.87 60.6,-169.12 77,-176.5 81.4,-178.48 86.04,-180.26 90.78,-181.87"/>
<polygon fill="#63b8ff" stroke="#63b8ff" points="89.97,-185.28 100.56,-184.91 92.05,-178.6 89.97,-185.28"/>
</g>
<!-- Node5 -->
<g id="node5" class="node">
<title>Node5</title>
<g id="a_node5"><a xlink:href="../../d1/d3d/classTWeapon.html#a3cd2bb843a107a28dfa55ed33e3f5a85" target="_top" xlink:title=" ">
<polygon fill="white" stroke="#666666" points="213.5,-167 86.5,-167 86.5,-148 213.5,-148 213.5,-167"/>
<text text-anchor="middle" x="150" y="-155" font-family="Helvetica,sans-Serif" font-size="10.00">TWeapon::GetLastShot</text>
</a>
</g>
</g>
<!-- Node1&#45;&gt;Node5 -->
<g id="edge4" class="edge">
<title>Node1&#45;&gt;Node5</title>
<path fill="none" stroke="#63b8ff" d="M41.14,-141.43C50.94,-142.89 63.46,-144.75 76.48,-146.69"/>
<polygon fill="#63b8ff" stroke="#63b8ff" points="76.09,-150.17 86.5,-148.19 77.12,-143.25 76.09,-150.17"/>
</g>
<!-- Node6 -->
<g id="node6" class="node">
<title>Node6</title>
<g id="a_node6"><a xlink:href="../../d1/d3d/classTWeapon.html#acfec269f458a55f449332f84849b80d5" target="_top" xlink:title=" ">
<polygon fill="white" stroke="#666666" points="208,-130 92,-130 92,-111 208,-111 208,-130"/>
<text text-anchor="middle" x="150" y="-118" font-family="Helvetica,sans-Serif" font-size="10.00">TWeapon::GetRange</text>
</a>
</g>
</g>
<!-- Node1&#45;&gt;Node6 -->
<g id="edge5" class="edge">
<title>Node1&#45;&gt;Node6</title>
<path fill="none" stroke="#63b8ff" d="M41.14,-135.73C52.21,-134.16 66.76,-132.11 81.57,-130.02"/>
<polygon fill="#63b8ff" stroke="#63b8ff" points="82.41,-133.44 91.83,-128.57 81.43,-126.5 82.41,-133.44"/>
</g>
<!-- Node7 -->
<g id="node7" class="node">
<title>Node7</title>
<g id="a_node7"><a xlink:href="../../d1/d3d/classTWeapon.html#a552b334667ca95387af82df662334f72" target="_top" xlink:title=" ">
<polygon fill="white" stroke="#666666" points="217,-93 83,-93 83,-74 217,-74 217,-93"/>
<text text-anchor="middle" x="150" y="-81" font-family="Helvetica,sans-Serif" font-size="10.00">TWeapon::GetShotsNow</text>
</a>
</g>
</g>
<!-- Node1&#45;&gt;Node7 -->
<g id="edge6" class="edge">
<title>Node1&#45;&gt;Node7</title>
<path fill="none" stroke="#63b8ff" d="M34.06,-128.68C44.9,-120.63 61.25,-109.47 77,-102.5 82.38,-100.12 88.12,-97.99 93.92,-96.09"/>
<polygon fill="#63b8ff" stroke="#63b8ff" points="95.15,-99.37 103.69,-93.11 93.11,-92.67 95.15,-99.37"/>
</g>
<!-- Node8 -->
<g id="node8" class="node">
<title>Node8</title>
<g id="a_node8"><a xlink:href="../../d1/d3d/classTWeapon.html#a87ca4fe2cd5ce2aaceda038bab216fd0" target="_top" xlink:title=" ">
<polygon fill="white" stroke="#666666" points="217.5,-56 82.5,-56 82.5,-37 217.5,-37 217.5,-56"/>
<text text-anchor="middle" x="150" y="-44" font-family="Helvetica,sans-Serif" font-size="10.00">TWeapon::GetShotsTotal</text>
</a>
</g>
</g>
<!-- Node1&#45;&gt;Node8 -->
<g id="edge7" class="edge">
<title>Node1&#45;&gt;Node8</title>
<path fill="none" stroke="#63b8ff" d="M26.16,-128.8C34.24,-113.04 52.38,-81.96 77,-65.5 80.08,-63.44 83.38,-61.6 86.8,-59.96"/>
<polygon fill="#63b8ff" stroke="#63b8ff" points="88.22,-63.16 96.1,-56.07 85.52,-56.7 88.22,-63.16"/>
</g>
<!-- Node9 -->
<g id="node9" class="node">
<title>Node9</title>
<g id="a_node9"><a xlink:href="../../d1/d3d/classTWeapon.html#af5165ccb82aed7d3852f0e6f7f936148" target="_top" xlink:title=" ">
<polygon fill="white" stroke="#666666" points="223,-19 77,-19 77,0 223,0 223,-19"/>
<text text-anchor="middle" x="150" y="-7" font-family="Helvetica,sans-Serif" font-size="10.00">TWeapon::GetWeaponType</text>
</a>
</g>
</g>
<!-- Node1&#45;&gt;Node9 -->
<g id="edge8" class="edge">
<title>Node1&#45;&gt;Node9</title>
<path fill="none" stroke="#63b8ff" d="M23.53,-128.88C28.58,-107.42 43.76,-55.43 77,-28.5 79.26,-26.67 81.68,-25.01 84.21,-23.52"/>
<polygon fill="#63b8ff" stroke="#63b8ff" points="85.82,-26.62 93.19,-19.01 82.69,-20.37 85.82,-26.62"/>
</g>
</g>
</svg>
