<?xml version="1.0" encoding="UTF-8" standalone="no"?>
<!DOCTYPE svg PUBLIC "-//W3C//DTD SVG 1.1//EN"
 "http://www.w3.org/Graphics/SVG/1.1/DTD/svg11.dtd">
<!-- Generated by graphviz version 2.43.0 (0)
 -->
<!-- Title: TEST Pages: 1 -->
<!--zoomable 547 -->
<svg id="main" version="1.1" xmlns="http://www.w3.org/2000/svg" xmlns:xlink="http://www.w3.org/1999/xlink" xml:space="preserve" onload="init(evt)">
<style type="text/css"><![CDATA[
.edge:hover path { stroke: red; }
.edge:hover polygon { stroke: red; fill: red; }
]]></style>
<script type="text/javascript"><![CDATA[
var edges = document.getElementsByTagName('g');
if (edges && edges.length) {
  for (var i=0;i<edges.length;i++) {
    if (edges[i].id.substr(0,4)=='edge') {
      edges[i].setAttribute('class','edge');
    }
  }
}
]]></script>
        <defs>
                <circle id="rim" cx="0" cy="0" r="7"/>
                <circle id="rim2" cx="0" cy="0" r="3.5"/>
                <g id="zoomPlus">
                        <use xlink:href="#rim" fill="#404040">
                                <set attributeName="fill" to="#808080" begin="zoomplus.mouseover" end="zoomplus.mouseout"/>
                        </use>
                        <path d="M-4,0h8M0,-4v8" fill="none" stroke="white" stroke-width="1.5" pointer-events="none"/>
                </g>
                <g id="zoomMin">
                        <use xlink:href="#rim" fill="#404040">
                                <set attributeName="fill" to="#808080" begin="zoomminus.mouseover" end="zoomminus.mouseout"/>
                        </use>
                        <path d="M-4,0h8" fill="none" stroke="white" stroke-width="1.5" pointer-events="none"/>
                </g>
                <g id="dirArrow">
                        <path fill="none" stroke="white" stroke-width="1.5" d="M0,-3.0v7 M-2.5,-0.5L0,-3.0L2.5,-0.5"/>
                </g>
               <g id="resetDef">
                       <use xlink:href="#rim2" fill="#404040">
                               <set attributeName="fill" to="#808080" begin="reset.mouseover" end="reset.mouseout"/>
                       </use>
               </g>
        </defs>

<script type="text/javascript">
var viewWidth = 754;
var viewHeight = 547;
var sectionId = 'dynsection-22';
</script>
<script xlink:href="../../svgpan.js"/>
<svg id="graph" class="graph">
<g id="viewport">
<title>TEST</title>
<!-- Node1 -->
<g id="node1" class="node">
<title>Node1</title>
<g id="a_node1"><a xlink:title=" ">
<polygon fill="#999999" stroke="#666666" points="41,-167 0,-167 0,-148 41,-148 41,-167"/>
<text text-anchor="middle" x="20.5" y="-155" font-family="Helvetica,sans-Serif" font-size="10.00">TEST</text>
</a>
</g>
</g>
<!-- Node2 -->
<g id="node2" class="node">
<title>Node2</title>
<g id="a_node2"><a xlink:href="../../dc/de8/classTShop.html#ac463d2ee0ef76283f4dac87a51353c36" target="_top" xlink:title=" ">
<polygon fill="white" stroke="#666666" points="168,-372 77,-372 77,-353 168,-353 168,-372"/>
<text text-anchor="middle" x="122.5" y="-360" font-family="Helvetica,sans-Serif" font-size="10.00">TShop::BuyGun</text>
</a>
</g>
</g>
<!-- Node1&#45;&gt;Node2 -->
<g id="edge1" class="edge">
<title>Node1&#45;&gt;Node2</title>
<path fill="none" stroke="#63b8ff" d="M26.19,-167.11C41.7,-198.92 91.56,-301.13 112.31,-343.66"/>
<polygon fill="#63b8ff" stroke="#63b8ff" points="109.17,-345.22 116.7,-352.67 115.47,-342.15 109.17,-345.22"/>
</g>
<!-- Node15 -->
<g id="node15" class="node">
<title>Node15</title>
<g id="a_node15"><a xlink:href="../../d6/de3/TestTShop_8cpp.html#a943e89378179371c951c54c476040453" target="_top" xlink:title=" ">
<polygon fill="white" stroke="#666666" points="152,-167 93,-167 93,-148 152,-148 152,-167"/>
<text text-anchor="middle" x="122.5" y="-155" font-family="Helvetica,sans-Serif" font-size="10.00">GetGuns</text>
</a>
</g>
</g>
<!-- Node1&#45;&gt;Node15 -->
<g id="edge14" class="edge">
<title>Node1&#45;&gt;Node15</title>
<path fill="none" stroke="#63b8ff" d="M41.26,-157.5C53.07,-157.5 68.5,-157.5 82.67,-157.5"/>
<polygon fill="#63b8ff" stroke="#63b8ff" points="82.69,-161 92.69,-157.5 82.69,-154 82.69,-161"/>
</g>
<!-- Node19 -->
<g id="node19" class="node">
<title>Node19</title>
<g id="a_node19"><a xlink:href="../../d6/de3/TestTShop_8cpp.html#a98ee64221600db3809453989f6bf69eb" target="_top" xlink:title=" ">
<polygon fill="white" stroke="#666666" points="162.5,-112 82.5,-112 82.5,-93 162.5,-93 162.5,-112"/>
<text text-anchor="middle" x="122.5" y="-100" font-family="Helvetica,sans-Serif" font-size="10.00">MakeMission</text>
</a>
</g>
</g>
<!-- Node1&#45;&gt;Node19 -->
<g id="edge18" class="edge">
<title>Node1&#45;&gt;Node19</title>
<path fill="none" stroke="#63b8ff" d="M38.92,-147.92C54.31,-139.45 77,-126.98 94.7,-117.24"/>
<polygon fill="#63b8ff" stroke="#63b8ff" points="96.87,-120.04 103.95,-112.16 93.5,-113.91 96.87,-120.04"/>
</g>
<!-- Node3 -->
<g id="node3" class="node">
<title>Node3</title>
<g id="a_node3"><a xlink:href="../../d8/d51/classMyList.html#a281f359e28eb5d6014ba3405cf0e6895" target="_top" xlink:title=" ">
<polygon fill="white" stroke="#666666" points="333,-539 251,-539 251,-520 333,-520 333,-539"/>
<text text-anchor="middle" x="292" y="-527" font-family="Helvetica,sans-Serif" font-size="10.00">MyList::begin</text>
</a>
</g>
</g>
<!-- Node2&#45;&gt;Node3 -->
<g id="edge2" class="edge">
<title>Node2&#45;&gt;Node3</title>
<path fill="none" stroke="#63b8ff" d="M125.66,-372.01C132.24,-398.72 154.7,-474.82 204,-511.5 214.54,-519.35 227.71,-523.96 240.58,-526.63"/>
<polygon fill="#63b8ff" stroke="#63b8ff" points="240.34,-530.14 250.79,-528.38 241.52,-523.24 240.34,-530.14"/>
</g>
<!-- Node4 -->
<g id="node4" class="node">
<title>Node4</title>
<g id="a_node4"><a xlink:href="../../d8/d51/classMyList.html#a80edb252c7e71107fac78c29647be513" target="_top" xlink:title=" ">
<polygon fill="white" stroke="#666666" points="338,-502 246,-502 246,-483 338,-483 338,-502"/>
<text text-anchor="middle" x="292" y="-490" font-family="Helvetica,sans-Serif" font-size="10.00">MyList::getById</text>
</a>
</g>
</g>
<!-- Node2&#45;&gt;Node4 -->
<g id="edge3" class="edge">
<title>Node2&#45;&gt;Node4</title>
<path fill="none" stroke="#63b8ff" d="M127.46,-372.16C137.03,-394.19 163.63,-448.29 204,-474.5 213.41,-480.61 224.5,-484.7 235.55,-487.43"/>
<polygon fill="#63b8ff" stroke="#63b8ff" points="235.13,-490.91 245.63,-489.56 236.58,-484.07 235.13,-490.91"/>
</g>
<!-- Node5 -->
<g id="node5" class="node">
<title>Node5</title>
<g id="a_node5"><a xlink:href="../../d1/d3d/classTWeapon.html#a2074e5b5b326730d5212a3dc00df06f4" target="_top" xlink:title=" ">
<polygon fill="white" stroke="#666666" points="345.5,-465 238.5,-465 238.5,-446 345.5,-446 345.5,-465"/>
<text text-anchor="middle" x="292" y="-453" font-family="Helvetica,sans-Serif" font-size="10.00">TWeapon::GetCost</text>
</a>
</g>
</g>
<!-- Node2&#45;&gt;Node5 -->
<g id="edge4" class="edge">
<title>Node2&#45;&gt;Node5</title>
<path fill="none" stroke="#63b8ff" d="M130.77,-372.07C143.64,-388.29 172.1,-421.01 204,-437.5 211.58,-441.42 219.95,-444.49 228.42,-446.88"/>
<polygon fill="#63b8ff" stroke="#63b8ff" points="227.8,-450.34 238.35,-449.4 229.52,-443.55 227.8,-450.34"/>
</g>
<!-- Node6 -->
<g id="node6" class="node">
<title>Node6</title>
<g id="a_node6"><a xlink:href="../../d4/de2/classTWeaponHolder.html#a1c57748293f9f082f1598c51b288de34" target="_top" xlink:title=" ">
<polygon fill="white" stroke="#666666" points="380,-428 204,-428 204,-409 380,-409 380,-428"/>
<text text-anchor="middle" x="292" y="-416" font-family="Helvetica,sans-Serif" font-size="10.00">TWeaponHolder::GetGunByPlace</text>
</a>
</g>
</g>
<!-- Node2&#45;&gt;Node6 -->
<g id="edge5" class="edge">
<title>Node2&#45;&gt;Node6</title>
<path fill="none" stroke="#63b8ff" d="M140.59,-372.03C156.56,-380.58 181.28,-392.91 204,-400.5 210.74,-402.75 217.87,-404.78 225.03,-406.58"/>
<polygon fill="#63b8ff" stroke="#63b8ff" points="224.25,-409.99 234.79,-408.91 225.87,-403.18 224.25,-409.99"/>
</g>
<!-- Node7 -->
<g id="node7" class="node">
<title>Node7</title>
<g id="a_node7"><a xlink:href="../../db/df3/classTWarShip.html#a6498ce65a99aba4649774151442b3637" target="_top" xlink:title=" ">
<polygon fill="white" stroke="#666666" points="351,-391 233,-391 233,-372 351,-372 351,-391"/>
<text text-anchor="middle" x="292" y="-379" font-family="Helvetica,sans-Serif" font-size="10.00">TWarShip::GetHolder</text>
</a>
</g>
</g>
<!-- Node2&#45;&gt;Node7 -->
<g id="edge6" class="edge">
<title>Node2&#45;&gt;Node7</title>
<path fill="none" stroke="#63b8ff" d="M168.39,-367.59C185.07,-369.48 204.39,-371.68 222.69,-373.75"/>
<polygon fill="#63b8ff" stroke="#63b8ff" points="222.4,-377.24 232.73,-374.89 223.19,-370.29 222.4,-377.24"/>
</g>
<!-- Node8 -->
<g id="node8" class="node">
<title>Node8</title>
<g id="a_node8"><a xlink:href="../../db/df3/classTWarShip.html#a1728538cd00c77fb09b08357e491bca8" target="_top" xlink:title=" ">
<polygon fill="white" stroke="#666666" points="337.5,-354 246.5,-354 246.5,-335 337.5,-335 337.5,-354"/>
<text text-anchor="middle" x="292" y="-342" font-family="Helvetica,sans-Serif" font-size="10.00">TWarShip::Print</text>
</a>
</g>
</g>
<!-- Node2&#45;&gt;Node8 -->
<g id="edge7" class="edge">
<title>Node2&#45;&gt;Node8</title>
<path fill="none" stroke="#63b8ff" d="M168.39,-357.68C189.22,-355.44 214.17,-352.76 236.11,-350.4"/>
<polygon fill="#63b8ff" stroke="#63b8ff" points="236.71,-353.85 246.28,-349.31 235.96,-346.89 236.71,-353.85"/>
</g>
<!-- Node12 -->
<g id="node12" class="node">
<title>Node12</title>
<g id="a_node12"><a xlink:href="../../dc/de8/classTShop.html#a46d86376a3b839bf3299639a9bb844a7" target="_top" xlink:title=" ">
<polygon fill="white" stroke="#666666" points="339,-317 245,-317 245,-298 339,-298 339,-317"/>
<text text-anchor="middle" x="292" y="-305" font-family="Helvetica,sans-Serif" font-size="10.00">TShop::PrintInfo</text>
</a>
</g>
</g>
<!-- Node2&#45;&gt;Node12 -->
<g id="edge11" class="edge">
<title>Node2&#45;&gt;Node12</title>
<path fill="none" stroke="#63b8ff" d="M141.94,-352.94C157.98,-344.95 182.04,-333.72 204,-326.5 213.91,-323.24 224.63,-320.38 235.05,-317.94"/>
<polygon fill="#63b8ff" stroke="#63b8ff" points="235.93,-321.33 244.92,-315.72 234.4,-314.5 235.93,-321.33"/>
</g>
<!-- Node13 -->
<g id="node13" class="node">
<title>Node13</title>
<g id="a_node13"><a xlink:href="../../dc/de8/classTShop.html#aa10e5887f689e5928cce716aa1bf9ea6" target="_top" xlink:title=" ">
<polygon fill="white" stroke="#666666" points="337,-280 247,-280 247,-261 337,-261 337,-280"/>
<text text-anchor="middle" x="292" y="-268" font-family="Helvetica,sans-Serif" font-size="10.00">TShop::ReadInt</text>
</a>
</g>
</g>
<!-- Node2&#45;&gt;Node13 -->
<g id="edge12" class="edge">
<title>Node2&#45;&gt;Node13</title>
<path fill="none" stroke="#63b8ff" d="M131.06,-352.97C144.14,-337.16 172.64,-305.66 204,-289.5 214.2,-284.24 225.81,-280.44 237.14,-277.68"/>
<polygon fill="#63b8ff" stroke="#63b8ff" points="237.97,-281.08 246.99,-275.52 236.47,-274.25 237.97,-281.08"/>
</g>
<!-- Node14 -->
<g id="node14" class="node">
<title>Node14</title>
<g id="a_node14"><a xlink:href="../../d8/d51/classMyList.html#a37366fbfd16acad1dfa69a141b339095" target="_top" xlink:title=" ">
<polygon fill="white" stroke="#666666" points="329,-243 255,-243 255,-224 329,-224 329,-243"/>
<text text-anchor="middle" x="292" y="-231" font-family="Helvetica,sans-Serif" font-size="10.00">MyList::size</text>
</a>
</g>
</g>
<!-- Node2&#45;&gt;Node14 -->
<g id="edge13" class="edge">
<title>Node2&#45;&gt;Node14</title>
<path fill="none" stroke="#63b8ff" d="M127.68,-352.72C137.51,-330.93 164.33,-278.32 204,-252.5 216.09,-244.63 230.94,-239.97 244.91,-237.23"/>
<polygon fill="#63b8ff" stroke="#63b8ff" points="245.6,-240.66 254.89,-235.55 244.44,-233.76 245.6,-240.66"/>
</g>
<!-- Node9 -->
<g id="node9" class="node">
<title>Node9</title>
<g id="a_node9"><a xlink:href="../../db/df3/classTWarShip.html#a1deb0d2b3eee3d1a4a9976ae55300307" target="_top" xlink:title=" ">
<polygon fill="white" stroke="#666666" points="571,-372 416,-372 416,-353 571,-353 571,-372"/>
<text text-anchor="middle" x="493.5" y="-360" font-family="Helvetica,sans-Serif" font-size="10.00">TWarShip::GetCostWithGuns</text>
</a>
</g>
</g>
<!-- Node8&#45;&gt;Node9 -->
<g id="edge8" class="edge">
<title>Node8&#45;&gt;Node9</title>
<path fill="none" stroke="#63b8ff" d="M337.77,-348.54C357.88,-350.35 382.31,-352.56 405.77,-354.67"/>
<polygon fill="#63b8ff" stroke="#63b8ff" points="405.48,-358.16 415.75,-355.58 406.11,-351.19 405.48,-358.16"/>
</g>
<!-- Node11 -->
<g id="node11" class="node">
<title>Node11</title>
<g id="a_node11"><a xlink:href="../../d4/de2/classTWeaponHolder.html#ac1330fe768fc0ea732f579c166650dc5" target="_top" xlink:title=" ">
<polygon fill="white" stroke="#666666" points="554.5,-335 432.5,-335 432.5,-316 554.5,-316 554.5,-335"/>
<text text-anchor="middle" x="493.5" y="-323" font-family="Helvetica,sans-Serif" font-size="10.00">TWeaponHolder::Print</text>
</a>
</g>
</g>
<!-- Node8&#45;&gt;Node11 -->
<g id="edge10" class="edge">
<title>Node8&#45;&gt;Node11</title>
<path fill="none" stroke="#63b8ff" d="M337.77,-340.24C362.63,-337.87 394.12,-334.87 422.2,-332.2"/>
<polygon fill="#63b8ff" stroke="#63b8ff" points="422.74,-335.66 432.37,-331.23 422.08,-328.69 422.74,-335.66"/>
</g>
<!-- Node10 -->
<g id="node10" class="node">
<title>Node10</title>
<g id="a_node10"><a xlink:href="../../d4/de2/classTWeaponHolder.html#a41344ca59e32b01ba31c08ee5d609731" target="_top" xlink:title=" ">
<polygon fill="white" stroke="#666666" points="746,-372 607,-372 607,-353 746,-353 746,-372"/>
<text text-anchor="middle" x="676.5" y="-360" font-family="Helvetica,sans-Serif" font-size="10.00">TWeaponHolder::GetCost</text>
</a>
</g>
</g>
<!-- Node9&#45;&gt;Node10 -->
<g id="edge9" class="edge">
<title>Node9&#45;&gt;Node10</title>
<path fill="none" stroke="#63b8ff" d="M571.26,-362.5C579.69,-362.5 588.27,-362.5 596.72,-362.5"/>
<polygon fill="#63b8ff" stroke="#63b8ff" points="596.94,-366 606.94,-362.5 596.94,-359 596.94,-366"/>
</g>
<!-- Node16 -->
<g id="node16" class="node">
<title>Node16</title>
<g id="a_node16"><a xlink:href="../../d8/d51/classMyList.html#a723c00a8380b8fd0705cb286cdd179d2" target="_top" xlink:title=" ">
<polygon fill="white" stroke="#666666" points="328.5,-130 255.5,-130 255.5,-111 328.5,-111 328.5,-130"/>
<text text-anchor="middle" x="292" y="-118" font-family="Helvetica,sans-Serif" font-size="10.00">MyList::end</text>
</a>
</g>
</g>
<!-- Node15&#45;&gt;Node16 -->
<g id="edge15" class="edge">
<title>Node15&#45;&gt;Node16</title>
<path fill="none" stroke="#63b8ff" d="M152.18,-151.05C167.55,-147.6 186.8,-143.3 204,-139.5 217.47,-136.52 232.13,-133.31 245.5,-130.39"/>
<polygon fill="#63b8ff" stroke="#63b8ff" points="246.41,-133.78 255.44,-128.23 244.92,-126.94 246.41,-133.78"/>
</g>
<!-- Node17 -->
<g id="node17" class="node">
<title>Node17</title>
<g id="a_node17"><a xlink:href="../../d8/d51/classMyList.html#ab5e189776aca91f01ee5fe930318c289" target="_top" xlink:title=" ">
<polygon fill="white" stroke="#666666" points="333.5,-167 250.5,-167 250.5,-148 333.5,-148 333.5,-167"/>
<text text-anchor="middle" x="292" y="-155" font-family="Helvetica,sans-Serif" font-size="10.00">MyList::insert</text>
</a>
</g>
</g>
<!-- Node15&#45;&gt;Node17 -->
<g id="edge16" class="edge">
<title>Node15&#45;&gt;Node17</title>
<path fill="none" stroke="#63b8ff" d="M152.29,-157.5C176.37,-157.5 211.29,-157.5 240.07,-157.5"/>
<polygon fill="#63b8ff" stroke="#63b8ff" points="240.37,-161 250.37,-157.5 240.37,-154 240.37,-161"/>
</g>
<!-- Node18 -->
<g id="node18" class="node">
<title>Node18</title>
<g id="a_node18"><a xlink:href="../../d6/de3/TestTShop_8cpp.html#aa640d265bfe0b60b6dcce43c1c1d0bd7" target="_top" xlink:title=" ">
<polygon fill="white" stroke="#666666" points="718.5,-131 634.5,-131 634.5,-112 718.5,-112 718.5,-131"/>
<text text-anchor="middle" x="676.5" y="-119" font-family="Helvetica,sans-Serif" font-size="10.00">weaponByTag</text>
</a>
</g>
</g>
<!-- Node15&#45;&gt;Node18 -->
<g id="edge17" class="edge">
<title>Node15&#45;&gt;Node18</title>
<path fill="none" stroke="#63b8ff" d="M152.27,-166C167.5,-170.06 186.6,-174.47 204,-176.5 360.97,-194.77 547.32,-154.81 630.97,-133.61"/>
<polygon fill="#63b8ff" stroke="#63b8ff" points="632.08,-136.94 640.9,-131.06 630.34,-130.16 632.08,-136.94"/>
</g>
<!-- Node19&#45;&gt;Node16 -->
<g id="edge23" class="edge">
<title>Node19&#45;&gt;Node16</title>
<path fill="none" stroke="#63b8ff" d="M162.77,-106.72C187.53,-109.38 219.59,-112.83 245.46,-115.61"/>
<polygon fill="#63b8ff" stroke="#63b8ff" points="245.08,-119.09 255.4,-116.67 245.83,-112.13 245.08,-119.09"/>
</g>
<!-- Node19&#45;&gt;Node17 -->
<g id="edge24" class="edge">
<title>Node19&#45;&gt;Node17</title>
<path fill="none" stroke="#63b8ff" d="M141.25,-112.08C157.26,-120.37 181.64,-132.15 204,-139.5 215.56,-143.3 228.26,-146.47 240.3,-149.03"/>
<polygon fill="#63b8ff" stroke="#63b8ff" points="239.72,-152.48 250.22,-151.04 241.11,-145.62 239.72,-152.48"/>
</g>
<!-- Node20 -->
<g id="node20" class="node">
<title>Node20</title>
<g id="a_node20"><a xlink:href="../../d6/de3/TestTShop_8cpp.html#a91b1072b73146edaa17d465723f7e752" target="_top" xlink:title=" ">
<polygon fill="white" stroke="#666666" points="339.5,-93 244.5,-93 244.5,-74 339.5,-74 339.5,-93"/>
<text text-anchor="middle" x="292" y="-81" font-family="Helvetica,sans-Serif" font-size="10.00">CargoShipByTag</text>
</a>
</g>
</g>
<!-- Node19&#45;&gt;Node20 -->
<g id="edge19" class="edge">
<title>Node19&#45;&gt;Node20</title>
<path fill="none" stroke="#63b8ff" d="M162.77,-98.05C184,-95.64 210.59,-92.62 234.05,-89.96"/>
<polygon fill="#63b8ff" stroke="#63b8ff" points="234.69,-93.41 244.23,-88.8 233.9,-86.45 234.69,-93.41"/>
</g>
<!-- Node21 -->
<g id="node21" class="node">
<title>Node21</title>
<g id="a_node21"><a xlink:href="../../d6/de3/TestTShop_8cpp.html#a4656159259c8555e9734cbedce4e2646" target="_top" xlink:title=" ">
<polygon fill="white" stroke="#666666" points="349,-19 235,-19 235,0 349,0 349,-19"/>
<text text-anchor="middle" x="292" y="-7" font-family="Helvetica,sans-Serif" font-size="10.00">CargoWarShipByTag</text>
</a>
</g>
</g>
<!-- Node19&#45;&gt;Node21 -->
<g id="edge20" class="edge">
<title>Node19&#45;&gt;Node21</title>
<path fill="none" stroke="#63b8ff" d="M130.77,-92.93C143.64,-76.71 172.1,-43.99 204,-27.5 210.5,-24.14 217.58,-21.41 224.8,-19.19"/>
<polygon fill="#63b8ff" stroke="#63b8ff" points="225.98,-22.49 234.69,-16.46 224.12,-15.74 225.98,-22.49"/>
</g>
<!-- Node23 -->
<g id="node23" class="node">
<title>Node23</title>
<g id="a_node23"><a xlink:href="../../d6/de3/TestTShop_8cpp.html#afff93d5bf1558a5c4f5e44394b804afb" target="_top" xlink:title=" ">
<polygon fill="white" stroke="#666666" points="335,-56 249,-56 249,-37 335,-37 335,-56"/>
<text text-anchor="middle" x="292" y="-44" font-family="Helvetica,sans-Serif" font-size="10.00">WarShipByTag</text>
</a>
</g>
</g>
<!-- Node19&#45;&gt;Node23 -->
<g id="edge25" class="edge">
<title>Node19&#45;&gt;Node23</title>
<path fill="none" stroke="#63b8ff" d="M140.59,-92.97C156.56,-84.42 181.28,-72.09 204,-64.5 215.09,-60.79 227.24,-57.71 238.85,-55.19"/>
<polygon fill="#63b8ff" stroke="#63b8ff" points="239.78,-58.57 248.87,-53.13 238.37,-51.72 239.78,-58.57"/>
</g>
<!-- Node22 -->
<g id="node22" class="node">
<title>Node22</title>
<g id="a_node22"><a xlink:href="../../d6/de3/TestTShop_8cpp.html#a93785f1846e55fd76f966f49a790e128" target="_top" xlink:title=" ">
<polygon fill="white" stroke="#666666" points="551,-56 436,-56 436,-37 551,-37 551,-56"/>
<text text-anchor="middle" x="493.5" y="-44" font-family="Helvetica,sans-Serif" font-size="10.00">makeWeaponHolder</text>
</a>
</g>
</g>
<!-- Node21&#45;&gt;Node22 -->
<g id="edge21" class="edge">
<title>Node21&#45;&gt;Node22</title>
<path fill="none" stroke="#63b8ff" d="M344.38,-19.03C370.8,-23.93 403.2,-29.94 430.96,-35.09"/>
<polygon fill="#63b8ff" stroke="#63b8ff" points="430.48,-38.56 440.95,-36.94 431.76,-31.67 430.48,-38.56"/>
</g>
<!-- Node22&#45;&gt;Node18 -->
<g id="edge22" class="edge">
<title>Node22&#45;&gt;Node18</title>
<path fill="none" stroke="#63b8ff" d="M517.79,-56.15C549.56,-69.31 606.64,-92.97 642.72,-107.92"/>
<polygon fill="#63b8ff" stroke="#63b8ff" points="641.72,-111.29 652.3,-111.89 644.4,-104.82 641.72,-111.29"/>
</g>
<!-- Node23&#45;&gt;Node22 -->
<g id="edge26" class="edge">
<title>Node23&#45;&gt;Node22</title>
<path fill="none" stroke="#63b8ff" d="M335.31,-46.5C361.5,-46.5 395.71,-46.5 425.52,-46.5"/>
<polygon fill="#63b8ff" stroke="#63b8ff" points="425.86,-50 435.86,-46.5 425.86,-43 425.86,-50"/>
</g>
</g>
</svg>
        <g id="navigator" transform="translate(0 0)" fill="#404254">
                <rect fill="#f2f5e9" fill-opacity="0.5" stroke="#606060" stroke-width=".5" x="0" y="0" width="60" height="60"/>
                <use id="zoomplus" xlink:href="#zoomPlus" x="17" y="9" onmousedown="handleZoom(evt,'in')"/>
                <use id="zoomminus" xlink:href="#zoomMin" x="42" y="9" onmousedown="handleZoom(evt,'out')"/>
                <use id="reset" xlink:href="#resetDef" x="30" y="36" onmousedown="handleReset()"/>
                <g id="arrowUp" xlink:href="#dirArrow" transform="translate(30 24)" onmousedown="handlePan(0,-1)">
                  <use xlink:href="#rim" fill="#404040">
                        <set attributeName="fill" to="#808080" begin="arrowUp.mouseover" end="arrowUp.mouseout"/>
                  </use>
                  <path fill="none" stroke="white" stroke-width="1.5" d="M0,-3.0v7 M-2.5,-0.5L0,-3.0L2.5,-0.5"/>
                </g>
                <g id="arrowRight" xlink:href="#dirArrow" transform="rotate(90) translate(36 -43)" onmousedown="handlePan(1,0)">
                  <use xlink:href="#rim" fill="#404040">
                        <set attributeName="fill" to="#808080" begin="arrowRight.mouseover" end="arrowRight.mouseout"/>
                  </use>
                  <path fill="none" stroke="white" stroke-width="1.5" d="M0,-3.0v7 M-2.5,-0.5L0,-3.0L2.5,-0.5"/>
                </g>
                <g id="arrowDown" xlink:href="#dirArrow" transform="rotate(180) translate(-30 -48)" onmousedown="handlePan(0,1)">
                  <use xlink:href="#rim" fill="#404040">
                        <set attributeName="fill" to="#808080" begin="arrowDown.mouseover" end="arrowDown.mouseout"/>
                  </use>
                  <path fill="none" stroke="white" stroke-width="1.5" d="M0,-3.0v7 M-2.5,-0.5L0,-3.0L2.5,-0.5"/>
                </g>
                <g id="arrowLeft" xlink:href="#dirArrow" transform="rotate(270) translate(-36 17)" onmousedown="handlePan(-1,0)">
                  <use xlink:href="#rim" fill="#404040">
                        <set attributeName="fill" to="#808080" begin="arrowLeft.mouseover" end="arrowLeft.mouseout"/>
                  </use>
                  <path fill="none" stroke="white" stroke-width="1.5" d="M0,-3.0v7 M-2.5,-0.5L0,-3.0L2.5,-0.5"/>
                </g>
        </g>
        <svg viewBox="0 0 15 15" width="100%" height="30px" preserveAspectRatio="xMaxYMin meet">
         <g id="arrow_out" transform="scale(0.3 0.3)">
          <a xlink:href="TestTShop_8cpp_a9090d51b3bf731e31e72a99c51bb40c1_cgraph_org.svg" target="_base">
           <rect id="button" ry="5" rx="5" y="6" x="6" height="38" width="38"
                fill="#f2f5e9" fill-opacity="0.5" stroke="#606060" stroke-width="1.0"/>
           <path id="arrow"
             d="M 11.500037,31.436501 C 11.940474,20.09759 22.043105,11.32322 32.158766,21.979434 L 37.068811,17.246167 C 37.068811,17.246167 37.088388,32 37.088388,32 L 22.160133,31.978069 C 22.160133,31.978069 26.997745,27.140456 26.997745,27.140456 C 18.528582,18.264221 13.291696,25.230495 11.500037,31.436501 z"
             style="fill:#404040;"/>
          </a>
         </g>
        </svg>
</svg>
