<?xml version="1.0" encoding="UTF-8" standalone="no"?>
<!DOCTYPE svg PUBLIC "-//W3C//DTD SVG 1.1//EN"
 "http://www.w3.org/Graphics/SVG/1.1/DTD/svg11.dtd">
<!-- Generated by graphviz version 2.43.0 (0)
 -->
<!-- Title: weaponByTag Pages: 1 -->
<svg width="586pt" height="101pt"
 viewBox="0.00 0.00 586.00 101.00" xmlns="http://www.w3.org/2000/svg" xmlns:xlink="http://www.w3.org/1999/xlink">
<g id="graph0" class="graph" transform="scale(1 1) rotate(0) translate(4 97)">
<title>weaponByTag</title>
<!-- Node1 -->
<g id="node1" class="node">
<title>Node1</title>
<g id="a_node1"><a xlink:title=" ">
<polygon fill="#999999" stroke="#666666" points="578,-74 494,-74 494,-55 578,-55 578,-74"/>
<text text-anchor="middle" x="536" y="-62" font-family="Helvetica,sans-Serif" font-size="10.00">weaponByTag</text>
</a>
</g>
</g>
<!-- Node2 -->
<g id="node2" class="node">
<title>Node2</title>
<g id="a_node2"><a xlink:href="../../d6/de3/TestTShop_8cpp.html#a943e89378179371c951c54c476040453" target="_top" xlink:title=" ">
<polygon fill="white" stroke="#666666" points="430,-93 371,-93 371,-74 430,-74 430,-93"/>
<text text-anchor="middle" x="400.5" y="-81" font-family="Helvetica,sans-Serif" font-size="10.00">GetGuns</text>
</a>
</g>
</g>
<!-- Node1&#45;&gt;Node2 -->
<g id="edge1" class="edge">
<title>Node1&#45;&gt;Node2</title>
<path fill="none" stroke="#63b8ff" d="M483.91,-71.77C465.64,-74.37 445.71,-77.21 430.03,-79.44"/>
<polygon fill="#63b8ff" stroke="#63b8ff" points="484.45,-75.23 493.86,-70.36 483.46,-68.3 484.45,-75.23"/>
</g>
<!-- Node4 -->
<g id="node4" class="node">
<title>Node4</title>
<g id="a_node4"><a xlink:href="../../d6/de3/TestTShop_8cpp.html#a93785f1846e55fd76f966f49a790e128" target="_top" xlink:title=" ">
<polygon fill="white" stroke="#666666" points="458,-56 343,-56 343,-37 458,-37 458,-56"/>
<text text-anchor="middle" x="400.5" y="-44" font-family="Helvetica,sans-Serif" font-size="10.00">makeWeaponHolder</text>
</a>
</g>
</g>
<!-- Node1&#45;&gt;Node4 -->
<g id="edge3" class="edge">
<title>Node1&#45;&gt;Node4</title>
<path fill="none" stroke="#63b8ff" d="M483.91,-57.61C475.59,-56.49 466.92,-55.32 458.46,-54.18"/>
<polygon fill="#63b8ff" stroke="#63b8ff" points="483.48,-61.08 493.86,-58.95 484.41,-54.15 483.48,-61.08"/>
</g>
<!-- Node3 -->
<g id="node3" class="node">
<title>Node3</title>
<g id="a_node3"><a xlink:href="../../d6/de3/TestTShop_8cpp.html#a9090d51b3bf731e31e72a99c51bb40c1" target="_top" xlink:title=" ">
<polygon fill="white" stroke="#666666" points="270.5,-93 229.5,-93 229.5,-74 270.5,-74 270.5,-93"/>
<text text-anchor="middle" x="250" y="-81" font-family="Helvetica,sans-Serif" font-size="10.00">TEST</text>
</a>
</g>
</g>
<!-- Node2&#45;&gt;Node3 -->
<g id="edge2" class="edge">
<title>Node2&#45;&gt;Node3</title>
<path fill="none" stroke="#63b8ff" d="M360.67,-83.5C331.72,-83.5 293.38,-83.5 270.55,-83.5"/>
<polygon fill="#63b8ff" stroke="#63b8ff" points="360.87,-87 370.87,-83.5 360.87,-80 360.87,-87"/>
</g>
<!-- Node5 -->
<g id="node5" class="node">
<title>Node5</title>
<g id="a_node5"><a xlink:href="../../d6/de3/TestTShop_8cpp.html#a4656159259c8555e9734cbedce4e2646" target="_top" xlink:title=" ">
<polygon fill="white" stroke="#666666" points="307,-56 193,-56 193,-37 307,-37 307,-56"/>
<text text-anchor="middle" x="250" y="-44" font-family="Helvetica,sans-Serif" font-size="10.00">CargoWarShipByTag</text>
</a>
</g>
</g>
<!-- Node4&#45;&gt;Node5 -->
<g id="edge4" class="edge">
<title>Node4&#45;&gt;Node5</title>
<path fill="none" stroke="#63b8ff" d="M332.72,-46.5C324.26,-46.5 315.68,-46.5 307.41,-46.5"/>
<polygon fill="#63b8ff" stroke="#63b8ff" points="332.93,-50 342.93,-46.5 332.93,-43 332.93,-50"/>
</g>
<!-- Node9 -->
<g id="node9" class="node">
<title>Node9</title>
<g id="a_node9"><a xlink:href="../../d6/de3/TestTShop_8cpp.html#afff93d5bf1558a5c4f5e44394b804afb" target="_top" xlink:title=" ">
<polygon fill="white" stroke="#666666" points="293,-19 207,-19 207,0 293,0 293,-19"/>
<text text-anchor="middle" x="250" y="-7" font-family="Helvetica,sans-Serif" font-size="10.00">WarShipByTag</text>
</a>
</g>
</g>
<!-- Node4&#45;&gt;Node9 -->
<g id="edge8" class="edge">
<title>Node4&#45;&gt;Node9</title>
<path fill="none" stroke="#63b8ff" d="M351.36,-34.51C331.28,-29.5 308.28,-23.77 289.37,-19.06"/>
<polygon fill="#63b8ff" stroke="#63b8ff" points="350.71,-37.95 361.26,-36.97 352.4,-31.16 350.71,-37.95"/>
</g>
<!-- Node6 -->
<g id="node6" class="node">
<title>Node6</title>
<g id="a_node6"><a xlink:href="../../d6/de3/TestTShop_8cpp.html#acc124bf06c40325957436a2853bad584" target="_top" xlink:title=" ">
<polygon fill="white" stroke="#666666" points="147,-56 87,-56 87,-37 147,-37 147,-56"/>
<text text-anchor="middle" x="117" y="-44" font-family="Helvetica,sans-Serif" font-size="10.00">GetShips</text>
</a>
</g>
</g>
<!-- Node5&#45;&gt;Node6 -->
<g id="edge5" class="edge">
<title>Node5&#45;&gt;Node6</title>
<path fill="none" stroke="#63b8ff" d="M182.33,-46.5C169.98,-46.5 157.69,-46.5 147.21,-46.5"/>
<polygon fill="#63b8ff" stroke="#63b8ff" points="182.68,-50 192.68,-46.5 182.68,-43 182.68,-50"/>
</g>
<!-- Node7 -->
<g id="node7" class="node">
<title>Node7</title>
<g id="a_node7"><a xlink:href="../../d6/de3/TestTShop_8cpp.html#a98ee64221600db3809453989f6bf69eb" target="_top" xlink:title=" ">
<polygon fill="white" stroke="#666666" points="157,-19 77,-19 77,0 157,0 157,-19"/>
<text text-anchor="middle" x="117" y="-7" font-family="Helvetica,sans-Serif" font-size="10.00">MakeMission</text>
</a>
</g>
</g>
<!-- Node5&#45;&gt;Node7 -->
<g id="edge6" class="edge">
<title>Node5&#45;&gt;Node7</title>
<path fill="none" stroke="#63b8ff" d="M205.36,-34.17C188.01,-29.27 168.35,-23.72 152.08,-19.12"/>
<polygon fill="#63b8ff" stroke="#63b8ff" points="204.69,-37.62 215.26,-36.97 206.59,-30.89 204.69,-37.62"/>
</g>
<!-- Node8 -->
<g id="node8" class="node">
<title>Node8</title>
<g id="a_node8"><a xlink:href="../../d6/de3/TestTShop_8cpp.html#a937e13c3ba627f9a4aaa50df1b38f793" target="_top" xlink:title=" ">
<polygon fill="white" stroke="#666666" points="41,-19 0,-19 0,0 41,0 41,-19"/>
<text text-anchor="middle" x="20.5" y="-7" font-family="Helvetica,sans-Serif" font-size="10.00">TEST</text>
</a>
</g>
</g>
<!-- Node7&#45;&gt;Node8 -->
<g id="edge7" class="edge">
<title>Node7&#45;&gt;Node8</title>
<path fill="none" stroke="#63b8ff" d="M66.58,-9.5C57.56,-9.5 48.64,-9.5 41.15,-9.5"/>
<polygon fill="#63b8ff" stroke="#63b8ff" points="66.74,-13 76.74,-9.5 66.74,-6 66.74,-13"/>
</g>
<!-- Node9&#45;&gt;Node6 -->
<g id="edge9" class="edge">
<title>Node9&#45;&gt;Node6</title>
<path fill="none" stroke="#63b8ff" d="M205.54,-21.78C186.36,-27.19 164.33,-33.41 147.17,-38.26"/>
<polygon fill="#63b8ff" stroke="#63b8ff" points="206.59,-25.11 215.26,-19.03 204.69,-18.38 206.59,-25.11"/>
</g>
<!-- Node9&#45;&gt;Node7 -->
<g id="edge10" class="edge">
<title>Node9&#45;&gt;Node7</title>
<path fill="none" stroke="#63b8ff" d="M196.56,-9.5C183.5,-9.5 169.73,-9.5 157.42,-9.5"/>
<polygon fill="#63b8ff" stroke="#63b8ff" points="196.83,-13 206.83,-9.5 196.83,-6 196.83,-13"/>
</g>
</g>
</svg>
