<?xml version="1.0" encoding="UTF-8" standalone="no"?>
<!DOCTYPE svg PUBLIC "-//W3C//DTD SVG 1.1//EN"
 "http://www.w3.org/Graphics/SVG/1.1/DTD/svg11.dtd">
<!-- Generated by graphviz version 2.43.0 (0)
 -->
<!-- Title: MakeMission Pages: 1 -->
<svg width="509pt" height="175pt"
 viewBox="0.00 0.00 509.00 175.00" xmlns="http://www.w3.org/2000/svg" xmlns:xlink="http://www.w3.org/1999/xlink">
<g id="graph0" class="graph" transform="scale(1 1) rotate(0) translate(4 171)">
<title>MakeMission</title>
<!-- Node1 -->
<g id="node1" class="node">
<title>Node1</title>
<g id="a_node1"><a xlink:title=" ">
<polygon fill="#999999" stroke="#666666" points="80,-93 0,-93 0,-74 80,-74 80,-93"/>
<text text-anchor="middle" x="40" y="-81" font-family="Helvetica,sans-Serif" font-size="10.00">MakeMission</text>
</a>
</g>
</g>
<!-- Node2 -->
<g id="node2" class="node">
<title>Node2</title>
<g id="a_node2"><a xlink:href="../../d6/de3/TestTShop_8cpp.html#a91b1072b73146edaa17d465723f7e752" target="_top" xlink:title=" ">
<polygon fill="white" stroke="#666666" points="220.5,-167 125.5,-167 125.5,-148 220.5,-148 220.5,-167"/>
<text text-anchor="middle" x="173" y="-155" font-family="Helvetica,sans-Serif" font-size="10.00">CargoShipByTag</text>
</a>
</g>
</g>
<!-- Node1&#45;&gt;Node2 -->
<g id="edge1" class="edge">
<title>Node1&#45;&gt;Node2</title>
<path fill="none" stroke="#63b8ff" d="M51.42,-93.07C65.25,-105.33 90.87,-126.54 116,-139.5 119.47,-141.29 123.16,-142.95 126.92,-144.48"/>
<polygon fill="#63b8ff" stroke="#63b8ff" points="125.74,-147.77 136.33,-147.99 128.19,-141.21 125.74,-147.77"/>
</g>
<!-- Node3 -->
<g id="node3" class="node">
<title>Node3</title>
<g id="a_node3"><a xlink:href="../../d6/de3/TestTShop_8cpp.html#a4656159259c8555e9734cbedce4e2646" target="_top" xlink:title=" ">
<polygon fill="white" stroke="#666666" points="230,-130 116,-130 116,-111 230,-111 230,-130"/>
<text text-anchor="middle" x="173" y="-118" font-family="Helvetica,sans-Serif" font-size="10.00">CargoWarShipByTag</text>
</a>
</g>
</g>
<!-- Node1&#45;&gt;Node3 -->
<g id="edge2" class="edge">
<title>Node1&#45;&gt;Node3</title>
<path fill="none" stroke="#63b8ff" d="M74.74,-93.03C90.96,-97.61 110.61,-103.16 127.99,-108.07"/>
<polygon fill="#63b8ff" stroke="#63b8ff" points="127.35,-111.53 137.92,-110.88 129.25,-104.79 127.35,-111.53"/>
</g>
<!-- Node6 -->
<g id="node6" class="node">
<title>Node6</title>
<g id="a_node6"><a xlink:href="../../d8/d51/classMyList.html#a723c00a8380b8fd0705cb286cdd179d2" target="_top" xlink:title=" ">
<polygon fill="white" stroke="#666666" points="209.5,-93 136.5,-93 136.5,-74 209.5,-74 209.5,-93"/>
<text text-anchor="middle" x="173" y="-81" font-family="Helvetica,sans-Serif" font-size="10.00">MyList::end</text>
</a>
</g>
</g>
<!-- Node1&#45;&gt;Node6 -->
<g id="edge5" class="edge">
<title>Node1&#45;&gt;Node6</title>
<path fill="none" stroke="#63b8ff" d="M80.3,-83.5C94.76,-83.5 111.24,-83.5 126.22,-83.5"/>
<polygon fill="#63b8ff" stroke="#63b8ff" points="126.3,-87 136.3,-83.5 126.3,-80 126.3,-87"/>
</g>
<!-- Node7 -->
<g id="node7" class="node">
<title>Node7</title>
<g id="a_node7"><a xlink:href="../../d8/d51/classMyList.html#ab5e189776aca91f01ee5fe930318c289" target="_top" xlink:title=" ">
<polygon fill="white" stroke="#666666" points="214.5,-56 131.5,-56 131.5,-37 214.5,-37 214.5,-56"/>
<text text-anchor="middle" x="173" y="-44" font-family="Helvetica,sans-Serif" font-size="10.00">MyList::insert</text>
</a>
</g>
</g>
<!-- Node1&#45;&gt;Node7 -->
<g id="edge6" class="edge">
<title>Node1&#45;&gt;Node7</title>
<path fill="none" stroke="#63b8ff" d="M74.74,-73.97C90.96,-69.39 110.61,-63.84 127.99,-58.93"/>
<polygon fill="#63b8ff" stroke="#63b8ff" points="129.25,-62.21 137.92,-56.12 127.35,-55.47 129.25,-62.21"/>
</g>
<!-- Node8 -->
<g id="node8" class="node">
<title>Node8</title>
<g id="a_node8"><a xlink:href="../../d6/de3/TestTShop_8cpp.html#afff93d5bf1558a5c4f5e44394b804afb" target="_top" xlink:title=" ">
<polygon fill="white" stroke="#666666" points="216,-19 130,-19 130,0 216,0 216,-19"/>
<text text-anchor="middle" x="173" y="-7" font-family="Helvetica,sans-Serif" font-size="10.00">WarShipByTag</text>
</a>
</g>
</g>
<!-- Node1&#45;&gt;Node8 -->
<g id="edge7" class="edge">
<title>Node1&#45;&gt;Node8</title>
<path fill="none" stroke="#63b8ff" d="M51.97,-73.76C65.98,-61.74 91.37,-41.32 116,-28.5 120.05,-26.39 124.39,-24.44 128.79,-22.66"/>
<polygon fill="#63b8ff" stroke="#63b8ff" points="130.31,-25.82 138.44,-19.02 127.84,-19.27 130.31,-25.82"/>
</g>
<!-- Node4 -->
<g id="node4" class="node">
<title>Node4</title>
<g id="a_node4"><a xlink:href="../../d6/de3/TestTShop_8cpp.html#a93785f1846e55fd76f966f49a790e128" target="_top" xlink:title=" ">
<polygon fill="white" stroke="#666666" points="381,-74 266,-74 266,-55 381,-55 381,-74"/>
<text text-anchor="middle" x="323.5" y="-62" font-family="Helvetica,sans-Serif" font-size="10.00">makeWeaponHolder</text>
</a>
</g>
</g>
<!-- Node3&#45;&gt;Node4 -->
<g id="edge3" class="edge">
<title>Node3&#45;&gt;Node4</title>
<path fill="none" stroke="#63b8ff" d="M205.25,-110.94C213.35,-108.32 222.04,-105.41 230,-102.5 250.64,-94.96 273.48,-85.58 291.3,-78.04"/>
<polygon fill="#63b8ff" stroke="#63b8ff" points="292.81,-81.19 300.64,-74.05 290.07,-74.76 292.81,-81.19"/>
</g>
<!-- Node5 -->
<g id="node5" class="node">
<title>Node5</title>
<g id="a_node5"><a xlink:href="../../d6/de3/TestTShop_8cpp.html#aa640d265bfe0b60b6dcce43c1c1d0bd7" target="_top" xlink:title=" ">
<polygon fill="white" stroke="#666666" points="501,-74 417,-74 417,-55 501,-55 501,-74"/>
<text text-anchor="middle" x="459" y="-62" font-family="Helvetica,sans-Serif" font-size="10.00">weaponByTag</text>
</a>
</g>
</g>
<!-- Node4&#45;&gt;Node5 -->
<g id="edge4" class="edge">
<title>Node4&#45;&gt;Node5</title>
<path fill="none" stroke="#63b8ff" d="M381.12,-64.5C389.6,-64.5 398.32,-64.5 406.68,-64.5"/>
<polygon fill="#63b8ff" stroke="#63b8ff" points="406.69,-68 416.69,-64.5 406.69,-61 406.69,-68"/>
</g>
<!-- Node8&#45;&gt;Node4 -->
<g id="edge8" class="edge">
<title>Node8&#45;&gt;Node4</title>
<path fill="none" stroke="#63b8ff" d="M202.86,-19.02C211.61,-21.98 221.22,-25.3 230,-28.5 249.63,-35.65 271.41,-44.09 288.9,-51.01"/>
<polygon fill="#63b8ff" stroke="#63b8ff" points="288.07,-54.45 298.65,-54.89 290.65,-47.94 288.07,-54.45"/>
</g>
</g>
</svg>
