<?xml version="1.0" encoding="UTF-8" standalone="no"?>
<!DOCTYPE svg PUBLIC "-//W3C//DTD SVG 1.1//EN"
 "http://www.w3.org/Graphics/SVG/1.1/DTD/svg11.dtd">
<!-- Generated by graphviz version 2.43.0 (0)
 -->
<!-- Title: TEST Pages: 1 -->
<svg width="649pt" height="434pt"
 viewBox="0.00 0.00 649.00 434.00" xmlns="http://www.w3.org/2000/svg" xmlns:xlink="http://www.w3.org/1999/xlink">
<g id="graph0" class="graph" transform="scale(1 1) rotate(0) translate(4 430)">
<title>TEST</title>
<!-- Node1 -->
<g id="node1" class="node">
<title>Node1</title>
<g id="a_node1"><a xlink:title=" ">
<polygon fill="#999999" stroke="#666666" points="41,-186 0,-186 0,-167 41,-167 41,-186"/>
<text text-anchor="middle" x="20.5" y="-174" font-family="Helvetica,sans-Serif" font-size="10.00">TEST</text>
</a>
</g>
</g>
<!-- Node2 -->
<g id="node2" class="node">
<title>Node2</title>
<g id="a_node2"><a xlink:href="../../dc/de8/classTShop.html#aef476da75c7312f1d68373c4883b20b0" target="_top" xlink:title=" ">
<polygon fill="white" stroke="#666666" points="182,-296 77,-296 77,-277 182,-277 182,-296"/>
<text text-anchor="middle" x="129.5" y="-284" font-family="Helvetica,sans-Serif" font-size="10.00">TShop::AddWeight</text>
</a>
</g>
</g>
<!-- Node1&#45;&gt;Node2 -->
<g id="edge1" class="edge">
<title>Node1&#45;&gt;Node2</title>
<path fill="none" stroke="#63b8ff" d="M31,-186.26C49.2,-204.98 89.24,-246.13 111.94,-269.47"/>
<polygon fill="#63b8ff" stroke="#63b8ff" points="109.7,-272.19 119.18,-276.92 114.71,-267.31 109.7,-272.19"/>
</g>
<!-- Node10 -->
<g id="node10" class="node">
<title>Node10</title>
<g id="a_node10"><a xlink:href="../../d8/d51/classMyList.html#a80edb252c7e71107fac78c29647be513" target="_top" xlink:title=" ">
<polygon fill="white" stroke="#666666" points="175.5,-186 83.5,-186 83.5,-167 175.5,-167 175.5,-186"/>
<text text-anchor="middle" x="129.5" y="-174" font-family="Helvetica,sans-Serif" font-size="10.00">MyList::getById</text>
</a>
</g>
</g>
<!-- Node1&#45;&gt;Node10 -->
<g id="edge9" class="edge">
<title>Node1&#45;&gt;Node10</title>
<path fill="none" stroke="#63b8ff" d="M41.13,-176.5C50.27,-176.5 61.66,-176.5 73.16,-176.5"/>
<polygon fill="#63b8ff" stroke="#63b8ff" points="73.25,-180 83.25,-176.5 73.25,-173 73.25,-180"/>
</g>
<!-- Node11 -->
<g id="node11" class="node">
<title>Node11</title>
<g id="a_node11"><a xlink:href="../../d6/de3/TestTShop_8cpp.html#a98ee64221600db3809453989f6bf69eb" target="_top" xlink:title=" ">
<polygon fill="white" stroke="#666666" points="169.5,-112 89.5,-112 89.5,-93 169.5,-93 169.5,-112"/>
<text text-anchor="middle" x="129.5" y="-100" font-family="Helvetica,sans-Serif" font-size="10.00">MakeMission</text>
</a>
</g>
</g>
<!-- Node1&#45;&gt;Node11 -->
<g id="edge10" class="edge">
<title>Node1&#45;&gt;Node11</title>
<path fill="none" stroke="#63b8ff" d="M35.49,-166.83C53.43,-154.42 84.77,-132.74 106.07,-118.02"/>
<polygon fill="#63b8ff" stroke="#63b8ff" points="108.27,-120.74 114.51,-112.18 104.29,-114.99 108.27,-120.74"/>
</g>
<!-- Node3 -->
<g id="node3" class="node">
<title>Node3</title>
<g id="a_node3"><a xlink:href="../../d8/d51/classMyList.html#a281f359e28eb5d6014ba3405cf0e6895" target="_top" xlink:title=" ">
<polygon fill="white" stroke="#666666" points="335,-426 253,-426 253,-407 335,-407 335,-426"/>
<text text-anchor="middle" x="294" y="-414" font-family="Helvetica,sans-Serif" font-size="10.00">MyList::begin</text>
</a>
</g>
</g>
<!-- Node2&#45;&gt;Node3 -->
<g id="edge2" class="edge">
<title>Node2&#45;&gt;Node3</title>
<path fill="none" stroke="#63b8ff" d="M135.1,-296.07C146.14,-317.93 176.29,-371.67 218,-398.5 225.53,-403.34 234.24,-406.88 243,-409.47"/>
<polygon fill="#63b8ff" stroke="#63b8ff" points="242.3,-412.9 252.85,-412.01 244.04,-406.13 242.3,-412.9"/>
</g>
<!-- Node4 -->
<g id="node4" class="node">
<title>Node4</title>
<g id="a_node4"><a xlink:href="../../d3/d81/classTCargoShip.html#aac8aa5512f4e7ea9641f3a5812cc8722" target="_top" xlink:title=" ">
<polygon fill="white" stroke="#666666" points="369,-389 219,-389 219,-370 369,-370 369,-389"/>
<text text-anchor="middle" x="294" y="-377" font-family="Helvetica,sans-Serif" font-size="10.00">TCargoShip::GetWeightNow</text>
</a>
</g>
</g>
<!-- Node2&#45;&gt;Node4 -->
<g id="edge3" class="edge">
<title>Node2&#45;&gt;Node4</title>
<path fill="none" stroke="#63b8ff" d="M138.88,-296.2C153.35,-312.31 184.68,-344.49 218,-361.5 221.76,-363.42 225.72,-365.14 229.79,-366.68"/>
<polygon fill="#63b8ff" stroke="#63b8ff" points="228.83,-370.05 239.43,-369.95 231.08,-363.42 228.83,-370.05"/>
</g>
<!-- Node5 -->
<g id="node5" class="node">
<title>Node5</title>
<g id="a_node5"><a xlink:href="../../d3/d81/classTCargoShip.html#af864094175baefdf2e6f8c88a53ad716" target="_top" xlink:title=" ">
<polygon fill="white" stroke="#666666" points="370,-352 218,-352 218,-333 370,-333 370,-352"/>
<text text-anchor="middle" x="294" y="-340" font-family="Helvetica,sans-Serif" font-size="10.00">TCargoShip::GetWeightTotal</text>
</a>
</g>
</g>
<!-- Node2&#45;&gt;Node5 -->
<g id="edge4" class="edge">
<title>Node2&#45;&gt;Node5</title>
<path fill="none" stroke="#63b8ff" d="M149.92,-296.1C167.41,-304.46 193.97,-316.47 218,-324.5 224.31,-326.61 231,-328.58 237.69,-330.38"/>
<polygon fill="#63b8ff" stroke="#63b8ff" points="236.87,-333.79 247.43,-332.91 238.62,-327.01 236.87,-333.79"/>
</g>
<!-- Node6 -->
<g id="node6" class="node">
<title>Node6</title>
<g id="a_node6"><a xlink:href="../../dc/de8/classTShop.html#a46d86376a3b839bf3299639a9bb844a7" target="_top" xlink:title=" ">
<polygon fill="white" stroke="#666666" points="341,-315 247,-315 247,-296 341,-296 341,-315"/>
<text text-anchor="middle" x="294" y="-303" font-family="Helvetica,sans-Serif" font-size="10.00">TShop::PrintInfo</text>
</a>
</g>
</g>
<!-- Node2&#45;&gt;Node6 -->
<g id="edge5" class="edge">
<title>Node2&#45;&gt;Node6</title>
<path fill="none" stroke="#63b8ff" d="M182.36,-292.56C199.68,-294.59 219.05,-296.85 236.69,-298.92"/>
<polygon fill="#63b8ff" stroke="#63b8ff" points="236.5,-302.42 246.84,-300.1 237.32,-295.47 236.5,-302.42"/>
</g>
<!-- Node7 -->
<g id="node7" class="node">
<title>Node7</title>
<g id="a_node7"><a xlink:href="../../dc/de8/classTShop.html#aa10e5887f689e5928cce716aa1bf9ea6" target="_top" xlink:title=" ">
<polygon fill="white" stroke="#666666" points="339,-278 249,-278 249,-259 339,-259 339,-278"/>
<text text-anchor="middle" x="294" y="-266" font-family="Helvetica,sans-Serif" font-size="10.00">TShop::ReadInt</text>
</a>
</g>
</g>
<!-- Node2&#45;&gt;Node7 -->
<g id="edge6" class="edge">
<title>Node2&#45;&gt;Node7</title>
<path fill="none" stroke="#63b8ff" d="M182.36,-280.76C200.38,-278.76 220.63,-276.52 238.83,-274.5"/>
<polygon fill="#63b8ff" stroke="#63b8ff" points="239.44,-277.95 248.99,-273.37 238.67,-271 239.44,-277.95"/>
</g>
<!-- Node8 -->
<g id="node8" class="node">
<title>Node8</title>
<g id="a_node8"><a xlink:href="../../d3/d81/classTCargoShip.html#a9a12a2c02b7b32f49c952f4c13e74a77" target="_top" xlink:title=" ">
<polygon fill="white" stroke="#666666" points="368.5,-241 219.5,-241 219.5,-222 368.5,-222 368.5,-241"/>
<text text-anchor="middle" x="294" y="-229" font-family="Helvetica,sans-Serif" font-size="10.00">TCargoShip::SetWeightNow</text>
</a>
</g>
</g>
<!-- Node2&#45;&gt;Node8 -->
<g id="edge7" class="edge">
<title>Node2&#45;&gt;Node8</title>
<path fill="none" stroke="#63b8ff" d="M151.4,-276.92C168.93,-269.12 194.76,-258.18 218,-250.5 225.44,-248.04 233.39,-245.71 241.22,-243.59"/>
<polygon fill="#63b8ff" stroke="#63b8ff" points="242.26,-246.94 251.04,-241.01 240.48,-240.17 242.26,-246.94"/>
</g>
<!-- Node9 -->
<g id="node9" class="node">
<title>Node9</title>
<g id="a_node9"><a xlink:href="../../d8/d51/classMyList.html#a37366fbfd16acad1dfa69a141b339095" target="_top" xlink:title=" ">
<polygon fill="white" stroke="#666666" points="331,-204 257,-204 257,-185 331,-185 331,-204"/>
<text text-anchor="middle" x="294" y="-192" font-family="Helvetica,sans-Serif" font-size="10.00">MyList::size</text>
</a>
</g>
</g>
<!-- Node2&#45;&gt;Node9 -->
<g id="edge8" class="edge">
<title>Node2&#45;&gt;Node9</title>
<path fill="none" stroke="#63b8ff" d="M139.2,-276.86C153.88,-261.18 185.22,-230.22 218,-213.5 226.97,-208.92 237.13,-205.4 247,-202.7"/>
<polygon fill="#63b8ff" stroke="#63b8ff" points="247.87,-206.09 256.72,-200.27 246.17,-199.3 247.87,-206.09"/>
</g>
<!-- Node12 -->
<g id="node12" class="node">
<title>Node12</title>
<g id="a_node12"><a xlink:href="../../d6/de3/TestTShop_8cpp.html#a91b1072b73146edaa17d465723f7e752" target="_top" xlink:title=" ">
<polygon fill="white" stroke="#666666" points="341.5,-167 246.5,-167 246.5,-148 341.5,-148 341.5,-167"/>
<text text-anchor="middle" x="294" y="-155" font-family="Helvetica,sans-Serif" font-size="10.00">CargoShipByTag</text>
</a>
</g>
</g>
<!-- Node11&#45;&gt;Node12 -->
<g id="edge11" class="edge">
<title>Node11&#45;&gt;Node12</title>
<path fill="none" stroke="#63b8ff" d="M150.65,-112.14C168.15,-120.24 194.34,-131.72 218,-139.5 224.41,-141.61 231.2,-143.58 237.98,-145.4"/>
<polygon fill="#63b8ff" stroke="#63b8ff" points="237.29,-148.84 247.85,-147.94 239.03,-142.06 237.29,-148.84"/>
</g>
<!-- Node13 -->
<g id="node13" class="node">
<title>Node13</title>
<g id="a_node13"><a xlink:href="../../d6/de3/TestTShop_8cpp.html#a4656159259c8555e9734cbedce4e2646" target="_top" xlink:title=" ">
<polygon fill="white" stroke="#666666" points="351,-130 237,-130 237,-111 351,-111 351,-130"/>
<text text-anchor="middle" x="294" y="-118" font-family="Helvetica,sans-Serif" font-size="10.00">CargoWarShipByTag</text>
</a>
</g>
</g>
<!-- Node11&#45;&gt;Node13 -->
<g id="edge12" class="edge">
<title>Node11&#45;&gt;Node13</title>
<path fill="none" stroke="#63b8ff" d="M169.84,-106.86C186.95,-108.75 207.49,-111.03 226.84,-113.17"/>
<polygon fill="#63b8ff" stroke="#63b8ff" points="226.5,-116.66 236.83,-114.28 227.27,-109.7 226.5,-116.66"/>
</g>
<!-- Node16 -->
<g id="node16" class="node">
<title>Node16</title>
<g id="a_node16"><a xlink:href="../../d8/d51/classMyList.html#a723c00a8380b8fd0705cb286cdd179d2" target="_top" xlink:title=" ">
<polygon fill="white" stroke="#666666" points="330.5,-93 257.5,-93 257.5,-74 330.5,-74 330.5,-93"/>
<text text-anchor="middle" x="294" y="-81" font-family="Helvetica,sans-Serif" font-size="10.00">MyList::end</text>
</a>
</g>
</g>
<!-- Node11&#45;&gt;Node16 -->
<g id="edge15" class="edge">
<title>Node11&#45;&gt;Node16</title>
<path fill="none" stroke="#63b8ff" d="M169.84,-97.9C193.18,-95.17 222.88,-91.7 247.26,-88.85"/>
<polygon fill="#63b8ff" stroke="#63b8ff" points="247.83,-92.31 257.35,-87.67 247.01,-85.35 247.83,-92.31"/>
</g>
<!-- Node17 -->
<g id="node17" class="node">
<title>Node17</title>
<g id="a_node17"><a xlink:href="../../d8/d51/classMyList.html#ab5e189776aca91f01ee5fe930318c289" target="_top" xlink:title=" ">
<polygon fill="white" stroke="#666666" points="335.5,-56 252.5,-56 252.5,-37 335.5,-37 335.5,-56"/>
<text text-anchor="middle" x="294" y="-44" font-family="Helvetica,sans-Serif" font-size="10.00">MyList::insert</text>
</a>
</g>
</g>
<!-- Node11&#45;&gt;Node17 -->
<g id="edge16" class="edge">
<title>Node11&#45;&gt;Node17</title>
<path fill="none" stroke="#63b8ff" d="M150.67,-92.94C168.19,-84.88 194.39,-73.43 218,-65.5 225.78,-62.88 234.13,-60.44 242.32,-58.22"/>
<polygon fill="#63b8ff" stroke="#63b8ff" points="243.4,-61.56 252.19,-55.64 241.63,-54.78 243.4,-61.56"/>
</g>
<!-- Node18 -->
<g id="node18" class="node">
<title>Node18</title>
<g id="a_node18"><a xlink:href="../../d6/de3/TestTShop_8cpp.html#afff93d5bf1558a5c4f5e44394b804afb" target="_top" xlink:title=" ">
<polygon fill="white" stroke="#666666" points="337,-19 251,-19 251,0 337,0 337,-19"/>
<text text-anchor="middle" x="294" y="-7" font-family="Helvetica,sans-Serif" font-size="10.00">WarShipByTag</text>
</a>
</g>
</g>
<!-- Node11&#45;&gt;Node18 -->
<g id="edge17" class="edge">
<title>Node11&#45;&gt;Node18</title>
<path fill="none" stroke="#63b8ff" d="M138.93,-92.98C153.48,-77.16 184.92,-45.52 218,-28.5 225.22,-24.79 233.21,-21.77 241.2,-19.32"/>
<polygon fill="#63b8ff" stroke="#63b8ff" points="242.21,-22.68 250.9,-16.62 240.33,-15.93 242.21,-22.68"/>
</g>
<!-- Node14 -->
<g id="node14" class="node">
<title>Node14</title>
<g id="a_node14"><a xlink:href="../../d6/de3/TestTShop_8cpp.html#a93785f1846e55fd76f966f49a790e128" target="_top" xlink:title=" ">
<polygon fill="white" stroke="#666666" points="521,-74 406,-74 406,-55 521,-55 521,-74"/>
<text text-anchor="middle" x="463.5" y="-62" font-family="Helvetica,sans-Serif" font-size="10.00">makeWeaponHolder</text>
</a>
</g>
</g>
<!-- Node13&#45;&gt;Node14 -->
<g id="edge13" class="edge">
<title>Node13&#45;&gt;Node14</title>
<path fill="none" stroke="#63b8ff" d="M339.73,-110.96C349.77,-108.49 360.32,-105.63 370,-102.5 391.33,-95.61 414.67,-86 432.56,-78.17"/>
<polygon fill="#63b8ff" stroke="#63b8ff" points="434.18,-81.29 441.9,-74.04 431.34,-74.89 434.18,-81.29"/>
</g>
<!-- Node15 -->
<g id="node15" class="node">
<title>Node15</title>
<g id="a_node15"><a xlink:href="../../d6/de3/TestTShop_8cpp.html#aa640d265bfe0b60b6dcce43c1c1d0bd7" target="_top" xlink:title=" ">
<polygon fill="white" stroke="#666666" points="641,-74 557,-74 557,-55 641,-55 641,-74"/>
<text text-anchor="middle" x="599" y="-62" font-family="Helvetica,sans-Serif" font-size="10.00">weaponByTag</text>
</a>
</g>
</g>
<!-- Node14&#45;&gt;Node15 -->
<g id="edge14" class="edge">
<title>Node14&#45;&gt;Node15</title>
<path fill="none" stroke="#63b8ff" d="M521.12,-64.5C529.6,-64.5 538.32,-64.5 546.68,-64.5"/>
<polygon fill="#63b8ff" stroke="#63b8ff" points="546.69,-68 556.69,-64.5 546.69,-61 546.69,-68"/>
</g>
<!-- Node18&#45;&gt;Node14 -->
<g id="edge18" class="edge">
<title>Node18&#45;&gt;Node14</title>
<path fill="none" stroke="#63b8ff" d="M336.52,-19.05C347.48,-21.83 359.25,-25.06 370,-28.5 390.63,-35.1 413.31,-43.9 431.05,-51.15"/>
<polygon fill="#63b8ff" stroke="#63b8ff" points="429.77,-54.41 440.35,-54.99 432.44,-47.94 429.77,-54.41"/>
</g>
</g>
</svg>
