<?xml version="1.0" encoding="UTF-8" standalone="no"?>
<!DOCTYPE svg PUBLIC "-//W3C//DTD SVG 1.1//EN"
 "http://www.w3.org/Graphics/SVG/1.1/DTD/svg11.dtd">
<!-- Generated by graphviz version 2.43.0 (0)
 -->
<!-- Title: makeWeaponHolder Pages: 1 -->
<svg width="466pt" height="64pt"
 viewBox="0.00 0.00 466.00 64.00" xmlns="http://www.w3.org/2000/svg" xmlns:xlink="http://www.w3.org/1999/xlink">
<g id="graph0" class="graph" transform="scale(1 1) rotate(0) translate(4 60)">
<title>makeWeaponHolder</title>
<!-- Node1 -->
<g id="node1" class="node">
<title>Node1</title>
<g id="a_node1"><a xlink:title=" ">
<polygon fill="#999999" stroke="#666666" points="458,-37 343,-37 343,-18 458,-18 458,-37"/>
<text text-anchor="middle" x="400.5" y="-25" font-family="Helvetica,sans-Serif" font-size="10.00">makeWeaponHolder</text>
</a>
</g>
</g>
<!-- Node2 -->
<g id="node2" class="node">
<title>Node2</title>
<g id="a_node2"><a xlink:href="../../d6/de3/TestTShop_8cpp.html#a4656159259c8555e9734cbedce4e2646" target="_top" xlink:title=" ">
<polygon fill="white" stroke="#666666" points="307,-56 193,-56 193,-37 307,-37 307,-56"/>
<text text-anchor="middle" x="250" y="-44" font-family="Helvetica,sans-Serif" font-size="10.00">CargoWarShipByTag</text>
</a>
</g>
</g>
<!-- Node1&#45;&gt;Node2 -->
<g id="edge1" class="edge">
<title>Node1&#45;&gt;Node2</title>
<path fill="none" stroke="#63b8ff" d="M333,-36.01C324.45,-37.1 315.77,-38.21 307.41,-39.28"/>
<polygon fill="#63b8ff" stroke="#63b8ff" points="333.46,-39.48 342.93,-34.74 332.57,-32.53 333.46,-39.48"/>
</g>
<!-- Node6 -->
<g id="node6" class="node">
<title>Node6</title>
<g id="a_node6"><a xlink:href="../../d6/de3/TestTShop_8cpp.html#afff93d5bf1558a5c4f5e44394b804afb" target="_top" xlink:title=" ">
<polygon fill="white" stroke="#666666" points="293,-19 207,-19 207,0 293,0 293,-19"/>
<text text-anchor="middle" x="250" y="-7" font-family="Helvetica,sans-Serif" font-size="10.00">WarShipByTag</text>
</a>
</g>
</g>
<!-- Node1&#45;&gt;Node6 -->
<g id="edge5" class="edge">
<title>Node1&#45;&gt;Node6</title>
<path fill="none" stroke="#63b8ff" d="M332.72,-19.41C319.24,-17.77 305.43,-16.1 293.09,-14.6"/>
<polygon fill="#63b8ff" stroke="#63b8ff" points="332.59,-22.91 342.93,-20.64 333.43,-15.97 332.59,-22.91"/>
</g>
<!-- Node3 -->
<g id="node3" class="node">
<title>Node3</title>
<g id="a_node3"><a xlink:href="../../d6/de3/TestTShop_8cpp.html#acc124bf06c40325957436a2853bad584" target="_top" xlink:title=" ">
<polygon fill="white" stroke="#666666" points="147,-56 87,-56 87,-37 147,-37 147,-56"/>
<text text-anchor="middle" x="117" y="-44" font-family="Helvetica,sans-Serif" font-size="10.00">GetShips</text>
</a>
</g>
</g>
<!-- Node2&#45;&gt;Node3 -->
<g id="edge2" class="edge">
<title>Node2&#45;&gt;Node3</title>
<path fill="none" stroke="#63b8ff" d="M182.33,-46.5C169.98,-46.5 157.69,-46.5 147.21,-46.5"/>
<polygon fill="#63b8ff" stroke="#63b8ff" points="182.68,-50 192.68,-46.5 182.68,-43 182.68,-50"/>
</g>
<!-- Node4 -->
<g id="node4" class="node">
<title>Node4</title>
<g id="a_node4"><a xlink:href="../../d6/de3/TestTShop_8cpp.html#a98ee64221600db3809453989f6bf69eb" target="_top" xlink:title=" ">
<polygon fill="white" stroke="#666666" points="157,-19 77,-19 77,0 157,0 157,-19"/>
<text text-anchor="middle" x="117" y="-7" font-family="Helvetica,sans-Serif" font-size="10.00">MakeMission</text>
</a>
</g>
</g>
<!-- Node2&#45;&gt;Node4 -->
<g id="edge3" class="edge">
<title>Node2&#45;&gt;Node4</title>
<path fill="none" stroke="#63b8ff" d="M205.36,-34.17C188.01,-29.27 168.35,-23.72 152.08,-19.12"/>
<polygon fill="#63b8ff" stroke="#63b8ff" points="204.69,-37.62 215.26,-36.97 206.59,-30.89 204.69,-37.62"/>
</g>
<!-- Node5 -->
<g id="node5" class="node">
<title>Node5</title>
<g id="a_node5"><a xlink:href="../../d6/de3/TestTShop_8cpp.html#a937e13c3ba627f9a4aaa50df1b38f793" target="_top" xlink:title=" ">
<polygon fill="white" stroke="#666666" points="41,-19 0,-19 0,0 41,0 41,-19"/>
<text text-anchor="middle" x="20.5" y="-7" font-family="Helvetica,sans-Serif" font-size="10.00">TEST</text>
</a>
</g>
</g>
<!-- Node4&#45;&gt;Node5 -->
<g id="edge4" class="edge">
<title>Node4&#45;&gt;Node5</title>
<path fill="none" stroke="#63b8ff" d="M66.58,-9.5C57.56,-9.5 48.64,-9.5 41.15,-9.5"/>
<polygon fill="#63b8ff" stroke="#63b8ff" points="66.74,-13 76.74,-9.5 66.74,-6 66.74,-13"/>
</g>
<!-- Node6&#45;&gt;Node3 -->
<g id="edge6" class="edge">
<title>Node6&#45;&gt;Node3</title>
<path fill="none" stroke="#63b8ff" d="M205.54,-21.78C186.36,-27.19 164.33,-33.41 147.17,-38.26"/>
<polygon fill="#63b8ff" stroke="#63b8ff" points="206.59,-25.11 215.26,-19.03 204.69,-18.38 206.59,-25.11"/>
</g>
<!-- Node6&#45;&gt;Node4 -->
<g id="edge7" class="edge">
<title>Node6&#45;&gt;Node4</title>
<path fill="none" stroke="#63b8ff" d="M196.56,-9.5C183.5,-9.5 169.73,-9.5 157.42,-9.5"/>
<polygon fill="#63b8ff" stroke="#63b8ff" points="196.83,-13 206.83,-9.5 196.83,-6 196.83,-13"/>
</g>
</g>
</svg>
