<?xml version="1.0" encoding="UTF-8" standalone="no"?>
<!DOCTYPE svg PUBLIC "-//W3C//DTD SVG 1.1//EN"
 "http://www.w3.org/Graphics/SVG/1.1/DTD/svg11.dtd">
<!-- Generated by graphviz version 2.43.0 (0)
 -->
<!-- Title: WarShipByTag Pages: 1 -->
<svg width="365pt" height="27pt"
 viewBox="0.00 0.00 365.00 27.00" xmlns="http://www.w3.org/2000/svg" xmlns:xlink="http://www.w3.org/1999/xlink">
<g id="graph0" class="graph" transform="scale(1 1) rotate(0) translate(4 23)">
<title>WarShipByTag</title>
<!-- Node1 -->
<g id="node1" class="node">
<title>Node1</title>
<g id="a_node1"><a xlink:title=" ">
<polygon fill="#999999" stroke="#666666" points="86,-19 0,-19 0,0 86,0 86,-19"/>
<text text-anchor="middle" x="43" y="-7" font-family="Helvetica,sans-Serif" font-size="10.00">WarShipByTag</text>
</a>
</g>
</g>
<!-- Node2 -->
<g id="node2" class="node">
<title>Node2</title>
<g id="a_node2"><a xlink:href="../../d6/de3/TestTShop_8cpp.html#a93785f1846e55fd76f966f49a790e128" target="_top" xlink:title=" ">
<polygon fill="white" stroke="#666666" points="237,-19 122,-19 122,0 237,0 237,-19"/>
<text text-anchor="middle" x="179.5" y="-7" font-family="Helvetica,sans-Serif" font-size="10.00">makeWeaponHolder</text>
</a>
</g>
</g>
<!-- Node1&#45;&gt;Node2 -->
<g id="edge1" class="edge">
<title>Node1&#45;&gt;Node2</title>
<path fill="none" stroke="#63b8ff" d="M86.19,-9.5C94.27,-9.5 102.92,-9.5 111.56,-9.5"/>
<polygon fill="#63b8ff" stroke="#63b8ff" points="111.67,-13 121.67,-9.5 111.67,-6 111.67,-13"/>
</g>
<!-- Node3 -->
<g id="node3" class="node">
<title>Node3</title>
<g id="a_node3"><a xlink:href="../../d6/de3/TestTShop_8cpp.html#aa640d265bfe0b60b6dcce43c1c1d0bd7" target="_top" xlink:title=" ">
<polygon fill="white" stroke="#666666" points="357,-19 273,-19 273,0 357,0 357,-19"/>
<text text-anchor="middle" x="315" y="-7" font-family="Helvetica,sans-Serif" font-size="10.00">weaponByTag</text>
</a>
</g>
</g>
<!-- Node2&#45;&gt;Node3 -->
<g id="edge2" class="edge">
<title>Node2&#45;&gt;Node3</title>
<path fill="none" stroke="#63b8ff" d="M237.12,-9.5C245.6,-9.5 254.32,-9.5 262.68,-9.5"/>
<polygon fill="#63b8ff" stroke="#63b8ff" points="262.69,-13 272.69,-9.5 262.69,-6 262.69,-13"/>
</g>
</g>
</svg>
