<?xml version="1.0" encoding="UTF-8" standalone="no"?>
<!DOCTYPE svg PUBLIC "-//W3C//DTD SVG 1.1//EN"
 "http://www.w3.org/Graphics/SVG/1.1/DTD/svg11.dtd">
<!-- Generated by graphviz version 2.43.0 (0)
 -->
<!-- Title: GetShips Pages: 1 -->
<svg width="489pt" height="175pt"
 viewBox="0.00 0.00 489.00 175.00" xmlns="http://www.w3.org/2000/svg" xmlns:xlink="http://www.w3.org/1999/xlink">
<g id="graph0" class="graph" transform="scale(1 1) rotate(0) translate(4 171)">
<title>GetShips</title>
<!-- Node1 -->
<g id="node1" class="node">
<title>Node1</title>
<g id="a_node1"><a xlink:title=" ">
<polygon fill="#999999" stroke="#666666" points="60,-93 0,-93 0,-74 60,-74 60,-93"/>
<text text-anchor="middle" x="30" y="-81" font-family="Helvetica,sans-Serif" font-size="10.00">GetShips</text>
</a>
</g>
</g>
<!-- Node2 -->
<g id="node2" class="node">
<title>Node2</title>
<g id="a_node2"><a xlink:href="../../d6/de3/TestTShop_8cpp.html#a91b1072b73146edaa17d465723f7e752" target="_top" xlink:title=" ">
<polygon fill="white" stroke="#666666" points="200.5,-167 105.5,-167 105.5,-148 200.5,-148 200.5,-167"/>
<text text-anchor="middle" x="153" y="-155" font-family="Helvetica,sans-Serif" font-size="10.00">CargoShipByTag</text>
</a>
</g>
</g>
<!-- Node1&#45;&gt;Node2 -->
<g id="edge1" class="edge">
<title>Node1&#45;&gt;Node2</title>
<path fill="none" stroke="#63b8ff" d="M39.78,-93.15C51.49,-105.51 73.39,-126.82 96,-139.5 99.03,-141.2 102.25,-142.77 105.54,-144.2"/>
<polygon fill="#63b8ff" stroke="#63b8ff" points="104.38,-147.51 114.96,-147.92 106.94,-140.99 104.38,-147.51"/>
</g>
<!-- Node3 -->
<g id="node3" class="node">
<title>Node3</title>
<g id="a_node3"><a xlink:href="../../d6/de3/TestTShop_8cpp.html#a4656159259c8555e9734cbedce4e2646" target="_top" xlink:title=" ">
<polygon fill="white" stroke="#666666" points="210,-130 96,-130 96,-111 210,-111 210,-130"/>
<text text-anchor="middle" x="153" y="-118" font-family="Helvetica,sans-Serif" font-size="10.00">CargoWarShipByTag</text>
</a>
</g>
</g>
<!-- Node1&#45;&gt;Node3 -->
<g id="edge2" class="edge">
<title>Node1&#45;&gt;Node3</title>
<path fill="none" stroke="#63b8ff" d="M60.29,-92.46C75.47,-97.1 94.25,-102.84 110.86,-107.92"/>
<polygon fill="#63b8ff" stroke="#63b8ff" points="110.28,-111.4 120.86,-110.98 112.32,-104.71 110.28,-111.4"/>
</g>
<!-- Node6 -->
<g id="node6" class="node">
<title>Node6</title>
<g id="a_node6"><a xlink:href="../../d8/d51/classMyList.html#a723c00a8380b8fd0705cb286cdd179d2" target="_top" xlink:title=" ">
<polygon fill="white" stroke="#666666" points="189.5,-93 116.5,-93 116.5,-74 189.5,-74 189.5,-93"/>
<text text-anchor="middle" x="153" y="-81" font-family="Helvetica,sans-Serif" font-size="10.00">MyList::end</text>
</a>
</g>
</g>
<!-- Node1&#45;&gt;Node6 -->
<g id="edge5" class="edge">
<title>Node1&#45;&gt;Node6</title>
<path fill="none" stroke="#63b8ff" d="M60.29,-83.5C73.93,-83.5 90.48,-83.5 105.75,-83.5"/>
<polygon fill="#63b8ff" stroke="#63b8ff" points="106.06,-87 116.06,-83.5 106.06,-80 106.06,-87"/>
</g>
<!-- Node7 -->
<g id="node7" class="node">
<title>Node7</title>
<g id="a_node7"><a xlink:href="../../d8/d51/classMyList.html#ab5e189776aca91f01ee5fe930318c289" target="_top" xlink:title=" ">
<polygon fill="white" stroke="#666666" points="194.5,-56 111.5,-56 111.5,-37 194.5,-37 194.5,-56"/>
<text text-anchor="middle" x="153" y="-44" font-family="Helvetica,sans-Serif" font-size="10.00">MyList::insert</text>
</a>
</g>
</g>
<!-- Node1&#45;&gt;Node7 -->
<g id="edge6" class="edge">
<title>Node1&#45;&gt;Node7</title>
<path fill="none" stroke="#63b8ff" d="M60.29,-74.54C75.47,-69.9 94.25,-64.16 110.86,-59.08"/>
<polygon fill="#63b8ff" stroke="#63b8ff" points="112.32,-62.29 120.86,-56.02 110.28,-55.6 112.32,-62.29"/>
</g>
<!-- Node8 -->
<g id="node8" class="node">
<title>Node8</title>
<g id="a_node8"><a xlink:href="../../d6/de3/TestTShop_8cpp.html#afff93d5bf1558a5c4f5e44394b804afb" target="_top" xlink:title=" ">
<polygon fill="white" stroke="#666666" points="196,-19 110,-19 110,0 196,0 196,-19"/>
<text text-anchor="middle" x="153" y="-7" font-family="Helvetica,sans-Serif" font-size="10.00">WarShipByTag</text>
</a>
</g>
</g>
<!-- Node1&#45;&gt;Node8 -->
<g id="edge7" class="edge">
<title>Node1&#45;&gt;Node8</title>
<path fill="none" stroke="#63b8ff" d="M40.25,-73.66C52.13,-61.54 73.87,-41.02 96,-28.5 99.67,-26.42 103.6,-24.53 107.62,-22.8"/>
<polygon fill="#63b8ff" stroke="#63b8ff" points="109.04,-26.01 117.06,-19.09 106.48,-19.49 109.04,-26.01"/>
</g>
<!-- Node4 -->
<g id="node4" class="node">
<title>Node4</title>
<g id="a_node4"><a xlink:href="../../d6/de3/TestTShop_8cpp.html#a93785f1846e55fd76f966f49a790e128" target="_top" xlink:title=" ">
<polygon fill="white" stroke="#666666" points="361,-74 246,-74 246,-55 361,-55 361,-74"/>
<text text-anchor="middle" x="303.5" y="-62" font-family="Helvetica,sans-Serif" font-size="10.00">makeWeaponHolder</text>
</a>
</g>
</g>
<!-- Node3&#45;&gt;Node4 -->
<g id="edge3" class="edge">
<title>Node3&#45;&gt;Node4</title>
<path fill="none" stroke="#63b8ff" d="M185.25,-110.94C193.35,-108.32 202.04,-105.41 210,-102.5 230.64,-94.96 253.48,-85.58 271.3,-78.04"/>
<polygon fill="#63b8ff" stroke="#63b8ff" points="272.81,-81.19 280.64,-74.05 270.07,-74.76 272.81,-81.19"/>
</g>
<!-- Node5 -->
<g id="node5" class="node">
<title>Node5</title>
<g id="a_node5"><a xlink:href="../../d6/de3/TestTShop_8cpp.html#aa640d265bfe0b60b6dcce43c1c1d0bd7" target="_top" xlink:title=" ">
<polygon fill="white" stroke="#666666" points="481,-74 397,-74 397,-55 481,-55 481,-74"/>
<text text-anchor="middle" x="439" y="-62" font-family="Helvetica,sans-Serif" font-size="10.00">weaponByTag</text>
</a>
</g>
</g>
<!-- Node4&#45;&gt;Node5 -->
<g id="edge4" class="edge">
<title>Node4&#45;&gt;Node5</title>
<path fill="none" stroke="#63b8ff" d="M361.12,-64.5C369.6,-64.5 378.32,-64.5 386.68,-64.5"/>
<polygon fill="#63b8ff" stroke="#63b8ff" points="386.69,-68 396.69,-64.5 386.69,-61 386.69,-68"/>
</g>
<!-- Node8&#45;&gt;Node4 -->
<g id="edge8" class="edge">
<title>Node8&#45;&gt;Node4</title>
<path fill="none" stroke="#63b8ff" d="M182.86,-19.02C191.61,-21.98 201.22,-25.3 210,-28.5 229.63,-35.65 251.41,-44.09 268.9,-51.01"/>
<polygon fill="#63b8ff" stroke="#63b8ff" points="268.07,-54.45 278.65,-54.89 270.65,-47.94 268.07,-54.45"/>
</g>
</g>
</svg>
