<?xml version="1.0" encoding="UTF-8" standalone="no"?>
<!DOCTYPE svg PUBLIC "-//W3C//DTD SVG 1.1//EN"
 "http://www.w3.org/Graphics/SVG/1.1/DTD/svg11.dtd">
<!-- Generated by graphviz version 2.43.0 (0)
 -->
<!-- Title: TEST Pages: 1 -->
<svg width="715pt" height="323pt"
 viewBox="0.00 0.00 715.00 323.00" xmlns="http://www.w3.org/2000/svg" xmlns:xlink="http://www.w3.org/1999/xlink">
<g id="graph0" class="graph" transform="scale(1 1) rotate(0) translate(4 319)">
<title>TEST</title>
<!-- Node1 -->
<g id="node1" class="node">
<title>Node1</title>
<g id="a_node1"><a xlink:title=" ">
<polygon fill="#999999" stroke="#666666" points="41,-167 0,-167 0,-148 41,-148 41,-167"/>
<text text-anchor="middle" x="20.5" y="-155" font-family="Helvetica,sans-Serif" font-size="10.00">TEST</text>
</a>
</g>
</g>
<!-- Node2 -->
<g id="node2" class="node">
<title>Node2</title>
<g id="a_node2"><a xlink:href="../../dc/de8/classTShop.html#aa31244972d1d22e92673e8446ef50f2d" target="_top" xlink:title=" ">
<polygon fill="white" stroke="#666666" points="186,-241 77,-241 77,-222 186,-222 186,-241"/>
<text text-anchor="middle" x="131.5" y="-229" font-family="Helvetica,sans-Serif" font-size="10.00">TShop::AutoWeight</text>
</a>
</g>
</g>
<!-- Node1&#45;&gt;Node2 -->
<g id="edge1" class="edge">
<title>Node1&#45;&gt;Node2</title>
<path fill="none" stroke="#63b8ff" d="M35.75,-167.17C54.11,-179.64 86.24,-201.45 107.94,-216.18"/>
<polygon fill="#63b8ff" stroke="#63b8ff" points="106.01,-219.1 116.25,-221.82 109.94,-213.31 106.01,-219.1"/>
</g>
<!-- Node9 -->
<g id="node9" class="node">
<title>Node9</title>
<g id="a_node9"><a xlink:href="../../d6/de3/TestTShop_8cpp.html#a98ee64221600db3809453989f6bf69eb" target="_top" xlink:title=" ">
<polygon fill="white" stroke="#666666" points="171.5,-112 91.5,-112 91.5,-93 171.5,-93 171.5,-112"/>
<text text-anchor="middle" x="131.5" y="-100" font-family="Helvetica,sans-Serif" font-size="10.00">MakeMission</text>
</a>
</g>
</g>
<!-- Node1&#45;&gt;Node9 -->
<g id="edge9" class="edge">
<title>Node1&#45;&gt;Node9</title>
<path fill="none" stroke="#63b8ff" d="M40.49,-147.92C57.57,-139.3 82.91,-126.51 102.36,-116.7"/>
<polygon fill="#63b8ff" stroke="#63b8ff" points="104.01,-119.78 111.37,-112.16 100.86,-113.54 104.01,-119.78"/>
</g>
<!-- Node3 -->
<g id="node3" class="node">
<title>Node3</title>
<g id="a_node3"><a xlink:href="../../d3/d81/classTCargoShip.html#af864094175baefdf2e6f8c88a53ad716" target="_top" xlink:title=" ">
<polygon fill="white" stroke="#666666" points="375,-315 223,-315 223,-296 375,-296 375,-315"/>
<text text-anchor="middle" x="299" y="-303" font-family="Helvetica,sans-Serif" font-size="10.00">TCargoShip::GetWeightTotal</text>
</a>
</g>
</g>
<!-- Node2&#45;&gt;Node3 -->
<g id="edge2" class="edge">
<title>Node2&#45;&gt;Node3</title>
<path fill="none" stroke="#63b8ff" d="M144.82,-241.06C161.45,-253.5 192.4,-275.13 222,-287.5 227,-289.59 232.3,-291.47 237.67,-293.15"/>
<polygon fill="#63b8ff" stroke="#63b8ff" points="236.81,-296.54 247.39,-295.96 238.75,-289.82 236.81,-296.54"/>
</g>
<!-- Node4 -->
<g id="node4" class="node">
<title>Node4</title>
<g id="a_node4"><a xlink:href="../../dc/de8/classTShop.html#abe63a0587be037f14a2e04e62fd1fc60" target="_top" xlink:title=" ">
<polygon fill="white" stroke="#666666" points="364.5,-278 233.5,-278 233.5,-259 364.5,-259 364.5,-278"/>
<text text-anchor="middle" x="299" y="-266" font-family="Helvetica,sans-Serif" font-size="10.00">TShop::IsSpeedPossible</text>
</a>
</g>
</g>
<!-- Node2&#45;&gt;Node4 -->
<g id="edge3" class="edge">
<title>Node2&#45;&gt;Node4</title>
<path fill="none" stroke="#63b8ff" d="M175.12,-241.03C196.56,-245.82 222.75,-251.68 245.43,-256.75"/>
<polygon fill="#63b8ff" stroke="#63b8ff" points="244.71,-260.17 255.24,-258.94 246.24,-253.34 244.71,-260.17"/>
</g>
<!-- Node6 -->
<g id="node6" class="node">
<title>Node6</title>
<g id="a_node6"><a xlink:href="../../dc/de8/classTShop.html#ae77eb41b055433f33b63810b32dfb88c" target="_top" xlink:title=" ">
<polygon fill="white" stroke="#666666" points="371.5,-241 226.5,-241 226.5,-222 371.5,-222 371.5,-241"/>
<text text-anchor="middle" x="299" y="-229" font-family="Helvetica,sans-Serif" font-size="10.00">TShop::SetWeightBySpeed</text>
</a>
</g>
</g>
<!-- Node2&#45;&gt;Node6 -->
<g id="edge5" class="edge">
<title>Node2&#45;&gt;Node6</title>
<path fill="none" stroke="#63b8ff" d="M186.23,-231.5C195.86,-231.5 206.09,-231.5 216.29,-231.5"/>
<polygon fill="#63b8ff" stroke="#63b8ff" points="216.47,-235 226.47,-231.5 216.47,-228 216.47,-235"/>
</g>
<!-- Node8 -->
<g id="node8" class="node">
<title>Node8</title>
<g id="a_node8"><a xlink:href="../../d3/d81/classTCargoShip.html#a2058989e985027329e36e55be4d83cc9" target="_top" xlink:title=" ">
<polygon fill="white" stroke="#666666" points="376,-204 222,-204 222,-185 376,-185 376,-204"/>
<text text-anchor="middle" x="299" y="-192" font-family="Helvetica,sans-Serif" font-size="10.00">TCargoShip::SpeedByWeight</text>
</a>
</g>
</g>
<!-- Node2&#45;&gt;Node8 -->
<g id="edge8" class="edge">
<title>Node2&#45;&gt;Node8</title>
<path fill="none" stroke="#63b8ff" d="M175.12,-221.97C196.56,-217.18 222.75,-211.32 245.43,-206.25"/>
<polygon fill="#63b8ff" stroke="#63b8ff" points="246.24,-209.66 255.24,-204.06 244.71,-202.83 246.24,-209.66"/>
</g>
<!-- Node5 -->
<g id="node5" class="node">
<title>Node5</title>
<g id="a_node5"><a xlink:href="../../d3/d81/classTCargoShip.html#a1f4cbd4a7effa3987f1298da081e8aec" target="_top" xlink:title=" ">
<polygon fill="white" stroke="#666666" points="587,-278 412,-278 412,-259 587,-259 587,-278"/>
<text text-anchor="middle" x="499.5" y="-266" font-family="Helvetica,sans-Serif" font-size="10.00">TCargoShip::WeightMaxBySpeed</text>
</a>
</g>
</g>
<!-- Node4&#45;&gt;Node5 -->
<g id="edge4" class="edge">
<title>Node4&#45;&gt;Node5</title>
<path fill="none" stroke="#63b8ff" d="M364.72,-268.5C376.59,-268.5 389.22,-268.5 401.79,-268.5"/>
<polygon fill="#63b8ff" stroke="#63b8ff" points="401.85,-272 411.85,-268.5 401.85,-265 401.85,-272"/>
</g>
<!-- Node6&#45;&gt;Node5 -->
<g id="edge7" class="edge">
<title>Node6&#45;&gt;Node5</title>
<path fill="none" stroke="#63b8ff" d="M351.12,-241.03C377.41,-245.93 409.65,-251.94 437.27,-257.09"/>
<polygon fill="#63b8ff" stroke="#63b8ff" points="436.74,-260.55 447.21,-258.94 438.02,-253.67 436.74,-260.55"/>
</g>
<!-- Node7 -->
<g id="node7" class="node">
<title>Node7</title>
<g id="a_node7"><a xlink:href="../../d3/d81/classTCargoShip.html#a9a12a2c02b7b32f49c952f4c13e74a77" target="_top" xlink:title=" ">
<polygon fill="white" stroke="#666666" points="574,-241 425,-241 425,-222 574,-222 574,-241"/>
<text text-anchor="middle" x="499.5" y="-229" font-family="Helvetica,sans-Serif" font-size="10.00">TCargoShip::SetWeightNow</text>
</a>
</g>
</g>
<!-- Node6&#45;&gt;Node7 -->
<g id="edge6" class="edge">
<title>Node6&#45;&gt;Node7</title>
<path fill="none" stroke="#63b8ff" d="M371.66,-231.5C385.6,-231.5 400.33,-231.5 414.63,-231.5"/>
<polygon fill="#63b8ff" stroke="#63b8ff" points="414.94,-235 424.94,-231.5 414.94,-228 414.94,-235"/>
</g>
<!-- Node10 -->
<g id="node10" class="node">
<title>Node10</title>
<g id="a_node10"><a xlink:href="../../d6/de3/TestTShop_8cpp.html#a91b1072b73146edaa17d465723f7e752" target="_top" xlink:title=" ">
<polygon fill="white" stroke="#666666" points="346.5,-167 251.5,-167 251.5,-148 346.5,-148 346.5,-167"/>
<text text-anchor="middle" x="299" y="-155" font-family="Helvetica,sans-Serif" font-size="10.00">CargoShipByTag</text>
</a>
</g>
</g>
<!-- Node9&#45;&gt;Node10 -->
<g id="edge10" class="edge">
<title>Node9&#45;&gt;Node10</title>
<path fill="none" stroke="#63b8ff" d="M153.12,-112.13C171.04,-120.23 197.84,-131.7 222,-139.5 228.5,-141.6 235.39,-143.57 242.26,-145.38"/>
<polygon fill="#63b8ff" stroke="#63b8ff" points="241.71,-148.85 252.26,-147.92 243.43,-142.07 241.71,-148.85"/>
</g>
<!-- Node11 -->
<g id="node11" class="node">
<title>Node11</title>
<g id="a_node11"><a xlink:href="../../d6/de3/TestTShop_8cpp.html#a4656159259c8555e9734cbedce4e2646" target="_top" xlink:title=" ">
<polygon fill="white" stroke="#666666" points="356,-130 242,-130 242,-111 356,-111 356,-130"/>
<text text-anchor="middle" x="299" y="-118" font-family="Helvetica,sans-Serif" font-size="10.00">CargoWarShipByTag</text>
</a>
</g>
</g>
<!-- Node9&#45;&gt;Node11 -->
<g id="edge11" class="edge">
<title>Node9&#45;&gt;Node11</title>
<path fill="none" stroke="#63b8ff" d="M171.72,-106.77C189.63,-108.71 211.34,-111.07 231.67,-113.29"/>
<polygon fill="#63b8ff" stroke="#63b8ff" points="231.51,-116.79 241.83,-114.39 232.27,-109.83 231.51,-116.79"/>
</g>
<!-- Node14 -->
<g id="node14" class="node">
<title>Node14</title>
<g id="a_node14"><a xlink:href="../../d8/d51/classMyList.html#a723c00a8380b8fd0705cb286cdd179d2" target="_top" xlink:title=" ">
<polygon fill="white" stroke="#666666" points="335.5,-93 262.5,-93 262.5,-74 335.5,-74 335.5,-93"/>
<text text-anchor="middle" x="299" y="-81" font-family="Helvetica,sans-Serif" font-size="10.00">MyList::end</text>
</a>
</g>
</g>
<!-- Node9&#45;&gt;Node14 -->
<g id="edge14" class="edge">
<title>Node9&#45;&gt;Node14</title>
<path fill="none" stroke="#63b8ff" d="M171.72,-98C195.92,-95.22 227.05,-91.64 252.35,-88.74"/>
<polygon fill="#63b8ff" stroke="#63b8ff" points="252.91,-92.2 262.45,-87.58 252.11,-85.25 252.91,-92.2"/>
</g>
<!-- Node15 -->
<g id="node15" class="node">
<title>Node15</title>
<g id="a_node15"><a xlink:href="../../d8/d51/classMyList.html#ab5e189776aca91f01ee5fe930318c289" target="_top" xlink:title=" ">
<polygon fill="white" stroke="#666666" points="340.5,-56 257.5,-56 257.5,-37 340.5,-37 340.5,-56"/>
<text text-anchor="middle" x="299" y="-44" font-family="Helvetica,sans-Serif" font-size="10.00">MyList::insert</text>
</a>
</g>
</g>
<!-- Node9&#45;&gt;Node15 -->
<g id="edge15" class="edge">
<title>Node9&#45;&gt;Node15</title>
<path fill="none" stroke="#63b8ff" d="M153.15,-92.94C171.08,-84.89 197.89,-73.45 222,-65.5 230.17,-62.81 238.94,-60.28 247.52,-58.01"/>
<polygon fill="#63b8ff" stroke="#63b8ff" points="248.64,-61.34 257.45,-55.47 246.9,-54.56 248.64,-61.34"/>
</g>
<!-- Node16 -->
<g id="node16" class="node">
<title>Node16</title>
<g id="a_node16"><a xlink:href="../../d6/de3/TestTShop_8cpp.html#afff93d5bf1558a5c4f5e44394b804afb" target="_top" xlink:title=" ">
<polygon fill="white" stroke="#666666" points="342,-19 256,-19 256,0 342,0 342,-19"/>
<text text-anchor="middle" x="299" y="-7" font-family="Helvetica,sans-Serif" font-size="10.00">WarShipByTag</text>
</a>
</g>
</g>
<!-- Node9&#45;&gt;Node16 -->
<g id="edge16" class="edge">
<title>Node9&#45;&gt;Node16</title>
<path fill="none" stroke="#63b8ff" d="M141.17,-92.98C156.11,-77.15 188.35,-45.51 222,-28.5 229.5,-24.71 237.81,-21.64 246.1,-19.17"/>
<polygon fill="#63b8ff" stroke="#63b8ff" points="247.05,-22.54 255.78,-16.53 245.21,-15.78 247.05,-22.54"/>
</g>
<!-- Node12 -->
<g id="node12" class="node">
<title>Node12</title>
<g id="a_node12"><a xlink:href="../../d6/de3/TestTShop_8cpp.html#a93785f1846e55fd76f966f49a790e128" target="_top" xlink:title=" ">
<polygon fill="white" stroke="#666666" points="557,-75 442,-75 442,-56 557,-56 557,-75"/>
<text text-anchor="middle" x="499.5" y="-63" font-family="Helvetica,sans-Serif" font-size="10.00">makeWeaponHolder</text>
</a>
</g>
</g>
<!-- Node11&#45;&gt;Node12 -->
<g id="edge12" class="edge">
<title>Node11&#45;&gt;Node12</title>
<path fill="none" stroke="#63b8ff" d="M342.32,-110.96C353.32,-108.35 365.13,-105.43 376,-102.5 403.78,-95.02 434.8,-85.64 458.68,-78.2"/>
<polygon fill="#63b8ff" stroke="#63b8ff" points="459.95,-81.47 468.44,-75.14 457.85,-74.79 459.95,-81.47"/>
</g>
<!-- Node13 -->
<g id="node13" class="node">
<title>Node13</title>
<g id="a_node13"><a xlink:href="../../d6/de3/TestTShop_8cpp.html#aa640d265bfe0b60b6dcce43c1c1d0bd7" target="_top" xlink:title=" ">
<polygon fill="white" stroke="#666666" points="707,-75 623,-75 623,-56 707,-56 707,-75"/>
<text text-anchor="middle" x="665" y="-63" font-family="Helvetica,sans-Serif" font-size="10.00">weaponByTag</text>
</a>
</g>
</g>
<!-- Node12&#45;&gt;Node13 -->
<g id="edge13" class="edge">
<title>Node12&#45;&gt;Node13</title>
<path fill="none" stroke="#63b8ff" d="M557.23,-65.5C575.27,-65.5 595.11,-65.5 612.74,-65.5"/>
<polygon fill="#63b8ff" stroke="#63b8ff" points="612.84,-69 622.84,-65.5 612.84,-62 612.84,-69"/>
</g>
<!-- Node16&#45;&gt;Node12 -->
<g id="edge17" class="edge">
<title>Node16&#45;&gt;Node12</title>
<path fill="none" stroke="#63b8ff" d="M339.54,-19C351.3,-21.93 364.2,-25.25 376,-28.5 403.73,-36.15 434.76,-45.53 458.64,-52.93"/>
<polygon fill="#63b8ff" stroke="#63b8ff" points="457.82,-56.34 468.41,-55.97 459.9,-49.66 457.82,-56.34"/>
</g>
</g>
</svg>
