<?xml version="1.0" encoding="UTF-8" standalone="no"?>
<!DOCTYPE svg PUBLIC "-//W3C//DTD SVG 1.1//EN"
 "http://www.w3.org/Graphics/SVG/1.1/DTD/svg11.dtd">
<!-- Generated by graphviz version 2.43.0 (0)
 -->
<!-- Title: TEST Pages: 1 -->
<svg width="663pt" height="397pt"
 viewBox="0.00 0.00 663.00 397.00" xmlns="http://www.w3.org/2000/svg" xmlns:xlink="http://www.w3.org/1999/xlink">
<g id="graph0" class="graph" transform="scale(1 1) rotate(0) translate(4 393)">
<title>TEST</title>
<!-- Node1 -->
<g id="node1" class="node">
<title>Node1</title>
<g id="a_node1"><a xlink:title=" ">
<polygon fill="#999999" stroke="#666666" points="41,-204 0,-204 0,-185 41,-185 41,-204"/>
<text text-anchor="middle" x="20.5" y="-192" font-family="Helvetica,sans-Serif" font-size="10.00">TEST</text>
</a>
</g>
</g>
<!-- Node2 -->
<g id="node2" class="node">
<title>Node2</title>
<g id="a_node2"><a xlink:href="../../d6/de3/TestTShop_8cpp.html#a98ee64221600db3809453989f6bf69eb" target="_top" xlink:title=" ">
<polygon fill="white" stroke="#666666" points="163,-296 83,-296 83,-277 163,-277 163,-296"/>
<text text-anchor="middle" x="123" y="-284" font-family="Helvetica,sans-Serif" font-size="10.00">MakeMission</text>
</a>
</g>
</g>
<!-- Node1&#45;&gt;Node2 -->
<g id="edge1" class="edge">
<title>Node1&#45;&gt;Node2</title>
<path fill="none" stroke="#63b8ff" d="M32.26,-204.35C49.33,-219.98 82.85,-250.66 103.74,-269.78"/>
<polygon fill="#63b8ff" stroke="#63b8ff" points="101.58,-272.55 111.32,-276.73 106.31,-267.39 101.58,-272.55"/>
</g>
<!-- Node10 -->
<g id="node10" class="node">
<title>Node10</title>
<g id="a_node10"><a xlink:href="../../dc/de8/classTShop.html#ae39747c12e22b3bd4641affc0be979e3" target="_top" xlink:title=" ">
<polygon fill="white" stroke="#666666" points="169,-130 77,-130 77,-111 169,-111 169,-130"/>
<text text-anchor="middle" x="123" y="-118" font-family="Helvetica,sans-Serif" font-size="10.00">TShop::SellShip</text>
</a>
</g>
</g>
<!-- Node1&#45;&gt;Node10 -->
<g id="edge10" class="edge">
<title>Node1&#45;&gt;Node10</title>
<path fill="none" stroke="#63b8ff" d="M34.64,-184.83C51.42,-172.47 80.67,-150.94 100.66,-136.21"/>
<polygon fill="#63b8ff" stroke="#63b8ff" points="102.88,-138.92 108.86,-130.18 98.73,-133.29 102.88,-138.92"/>
</g>
<!-- Node3 -->
<g id="node3" class="node">
<title>Node3</title>
<g id="a_node3"><a xlink:href="../../d6/de3/TestTShop_8cpp.html#a91b1072b73146edaa17d465723f7e752" target="_top" xlink:title=" ">
<polygon fill="white" stroke="#666666" points="330,-389 235,-389 235,-370 330,-370 330,-389"/>
<text text-anchor="middle" x="282.5" y="-377" font-family="Helvetica,sans-Serif" font-size="10.00">CargoShipByTag</text>
</a>
</g>
</g>
<!-- Node2&#45;&gt;Node3 -->
<g id="edge2" class="edge">
<title>Node2&#45;&gt;Node3</title>
<path fill="none" stroke="#63b8ff" d="M131.59,-296.24C144.72,-312.41 173.36,-344.66 205,-361.5 211.15,-364.77 217.89,-367.46 224.74,-369.65"/>
<polygon fill="#63b8ff" stroke="#63b8ff" points="224.22,-373.15 234.8,-372.54 226.15,-366.42 224.22,-373.15"/>
</g>
<!-- Node4 -->
<g id="node4" class="node">
<title>Node4</title>
<g id="a_node4"><a xlink:href="../../d6/de3/TestTShop_8cpp.html#a4656159259c8555e9734cbedce4e2646" target="_top" xlink:title=" ">
<polygon fill="white" stroke="#666666" points="339.5,-352 225.5,-352 225.5,-333 339.5,-333 339.5,-352"/>
<text text-anchor="middle" x="282.5" y="-340" font-family="Helvetica,sans-Serif" font-size="10.00">CargoWarShipByTag</text>
</a>
</g>
</g>
<!-- Node2&#45;&gt;Node4 -->
<g id="edge3" class="edge">
<title>Node2&#45;&gt;Node4</title>
<path fill="none" stroke="#63b8ff" d="M141.57,-296.05C157.68,-304.48 182.41,-316.64 205,-324.5 211.09,-326.62 217.54,-328.57 224,-330.34"/>
<polygon fill="#63b8ff" stroke="#63b8ff" points="223.57,-333.84 234.13,-332.97 225.33,-327.07 223.57,-333.84"/>
</g>
<!-- Node7 -->
<g id="node7" class="node">
<title>Node7</title>
<g id="a_node7"><a xlink:href="../../d8/d51/classMyList.html#a723c00a8380b8fd0705cb286cdd179d2" target="_top" xlink:title=" ">
<polygon fill="white" stroke="#666666" points="319,-315 246,-315 246,-296 319,-296 319,-315"/>
<text text-anchor="middle" x="282.5" y="-303" font-family="Helvetica,sans-Serif" font-size="10.00">MyList::end</text>
</a>
</g>
</g>
<!-- Node2&#45;&gt;Node7 -->
<g id="edge6" class="edge">
<title>Node2&#45;&gt;Node7</title>
<path fill="none" stroke="#63b8ff" d="M163.34,-291.25C185.3,-293.9 212.78,-297.21 235.71,-299.98"/>
<polygon fill="#63b8ff" stroke="#63b8ff" points="235.54,-303.48 245.89,-301.2 236.38,-296.53 235.54,-303.48"/>
</g>
<!-- Node8 -->
<g id="node8" class="node">
<title>Node8</title>
<g id="a_node8"><a xlink:href="../../d8/d51/classMyList.html#ab5e189776aca91f01ee5fe930318c289" target="_top" xlink:title=" ">
<polygon fill="white" stroke="#666666" points="324,-278 241,-278 241,-259 324,-259 324,-278"/>
<text text-anchor="middle" x="282.5" y="-266" font-family="Helvetica,sans-Serif" font-size="10.00">MyList::insert</text>
</a>
</g>
</g>
<!-- Node2&#45;&gt;Node8 -->
<g id="edge7" class="edge">
<title>Node2&#45;&gt;Node8</title>
<path fill="none" stroke="#63b8ff" d="M163.34,-282C183.71,-279.68 208.82,-276.81 230.65,-274.31"/>
<polygon fill="#63b8ff" stroke="#63b8ff" points="231.21,-277.77 240.74,-273.16 230.41,-270.82 231.21,-277.77"/>
</g>
<!-- Node9 -->
<g id="node9" class="node">
<title>Node9</title>
<g id="a_node9"><a xlink:href="../../d6/de3/TestTShop_8cpp.html#afff93d5bf1558a5c4f5e44394b804afb" target="_top" xlink:title=" ">
<polygon fill="white" stroke="#666666" points="325.5,-241 239.5,-241 239.5,-222 325.5,-222 325.5,-241"/>
<text text-anchor="middle" x="282.5" y="-229" font-family="Helvetica,sans-Serif" font-size="10.00">WarShipByTag</text>
</a>
</g>
</g>
<!-- Node2&#45;&gt;Node9 -->
<g id="edge8" class="edge">
<title>Node2&#45;&gt;Node9</title>
<path fill="none" stroke="#63b8ff" d="M142.93,-276.95C159.11,-269.07 183.17,-258 205,-250.5 212.91,-247.78 221.4,-245.28 229.74,-243.05"/>
<polygon fill="#63b8ff" stroke="#63b8ff" points="230.62,-246.44 239.43,-240.55 228.87,-239.66 230.62,-246.44"/>
</g>
<!-- Node5 -->
<g id="node5" class="node">
<title>Node5</title>
<g id="a_node5"><a xlink:href="../../d6/de3/TestTShop_8cpp.html#a93785f1846e55fd76f966f49a790e128" target="_top" xlink:title=" ">
<polygon fill="white" stroke="#666666" points="523,-296 408,-296 408,-277 523,-277 523,-296"/>
<text text-anchor="middle" x="465.5" y="-284" font-family="Helvetica,sans-Serif" font-size="10.00">makeWeaponHolder</text>
</a>
</g>
</g>
<!-- Node4&#45;&gt;Node5 -->
<g id="edge4" class="edge">
<title>Node4&#45;&gt;Node5</title>
<path fill="none" stroke="#63b8ff" d="M328.23,-332.91C338.72,-330.4 349.8,-327.54 360,-324.5 384.16,-317.29 410.88,-307.55 431.24,-299.73"/>
<polygon fill="#63b8ff" stroke="#63b8ff" points="432.64,-302.94 440.69,-296.07 430.11,-296.42 432.64,-302.94"/>
</g>
<!-- Node6 -->
<g id="node6" class="node">
<title>Node6</title>
<g id="a_node6"><a xlink:href="../../d6/de3/TestTShop_8cpp.html#aa640d265bfe0b60b6dcce43c1c1d0bd7" target="_top" xlink:title=" ">
<polygon fill="white" stroke="#666666" points="655,-296 571,-296 571,-277 655,-277 655,-296"/>
<text text-anchor="middle" x="613" y="-284" font-family="Helvetica,sans-Serif" font-size="10.00">weaponByTag</text>
</a>
</g>
</g>
<!-- Node5&#45;&gt;Node6 -->
<g id="edge5" class="edge">
<title>Node5&#45;&gt;Node6</title>
<path fill="none" stroke="#63b8ff" d="M523.17,-286.5C535.39,-286.5 548.25,-286.5 560.27,-286.5"/>
<polygon fill="#63b8ff" stroke="#63b8ff" points="560.58,-290 570.58,-286.5 560.58,-283 560.58,-290"/>
</g>
<!-- Node9&#45;&gt;Node5 -->
<g id="edge9" class="edge">
<title>Node9&#45;&gt;Node5</title>
<path fill="none" stroke="#63b8ff" d="M324.97,-241.09C336.38,-243.92 348.71,-247.16 360,-250.5 383.4,-257.42 409.35,-266.35 429.53,-273.59"/>
<polygon fill="#63b8ff" stroke="#63b8ff" points="428.34,-276.88 438.94,-276.99 430.72,-270.3 428.34,-276.88"/>
</g>
<!-- Node11 -->
<g id="node11" class="node">
<title>Node11</title>
<g id="a_node11"><a xlink:href="../../d8/d51/classMyList.html#a281f359e28eb5d6014ba3405cf0e6895" target="_top" xlink:title=" ">
<polygon fill="white" stroke="#666666" points="323.5,-204 241.5,-204 241.5,-185 323.5,-185 323.5,-204"/>
<text text-anchor="middle" x="282.5" y="-192" font-family="Helvetica,sans-Serif" font-size="10.00">MyList::begin</text>
</a>
</g>
</g>
<!-- Node10&#45;&gt;Node11 -->
<g id="edge11" class="edge">
<title>Node10&#45;&gt;Node11</title>
<path fill="none" stroke="#63b8ff" d="M134.98,-130.12C149.85,-142.65 177.66,-164.36 205,-176.5 213.24,-180.16 222.33,-183.13 231.28,-185.53"/>
<polygon fill="#63b8ff" stroke="#63b8ff" points="230.72,-188.99 241.27,-187.99 232.4,-182.2 230.72,-188.99"/>
</g>
<!-- Node12 -->
<g id="node12" class="node">
<title>Node12</title>
<g id="a_node12"><a xlink:href="../../d8/d51/classMyList.html#a0bf752e12a79f715ac37ed5e03255833" target="_top" xlink:title=" ">
<polygon fill="white" stroke="#666666" points="323.5,-167 241.5,-167 241.5,-148 323.5,-148 323.5,-167"/>
<text text-anchor="middle" x="282.5" y="-155" font-family="Helvetica,sans-Serif" font-size="10.00">MyList::erase</text>
</a>
</g>
</g>
<!-- Node10&#45;&gt;Node12 -->
<g id="edge12" class="edge">
<title>Node10&#45;&gt;Node12</title>
<path fill="none" stroke="#63b8ff" d="M164.56,-130.03C184.94,-134.82 209.82,-140.66 231.39,-145.73"/>
<polygon fill="#63b8ff" stroke="#63b8ff" points="230.81,-149.19 241.35,-148.07 232.42,-142.37 230.81,-149.19"/>
</g>
<!-- Node13 -->
<g id="node13" class="node">
<title>Node13</title>
<g id="a_node13"><a xlink:href="../../db/df3/classTWarShip.html#a1deb0d2b3eee3d1a4a9976ae55300307" target="_top" xlink:title=" ">
<polygon fill="white" stroke="#666666" points="360,-130 205,-130 205,-111 360,-111 360,-130"/>
<text text-anchor="middle" x="282.5" y="-118" font-family="Helvetica,sans-Serif" font-size="10.00">TWarShip::GetCostWithGuns</text>
</a>
</g>
</g>
<!-- Node10&#45;&gt;Node13 -->
<g id="edge13" class="edge">
<title>Node10&#45;&gt;Node13</title>
<path fill="none" stroke="#63b8ff" d="M169.13,-120.5C177.26,-120.5 185.97,-120.5 194.81,-120.5"/>
<polygon fill="#63b8ff" stroke="#63b8ff" points="194.83,-124 204.83,-120.5 194.83,-117 194.83,-124"/>
</g>
<!-- Node15 -->
<g id="node15" class="node">
<title>Node15</title>
<g id="a_node15"><a xlink:href="../../dc/de8/classTShop.html#a46d86376a3b839bf3299639a9bb844a7" target="_top" xlink:title=" ">
<polygon fill="white" stroke="#666666" points="329.5,-93 235.5,-93 235.5,-74 329.5,-74 329.5,-93"/>
<text text-anchor="middle" x="282.5" y="-81" font-family="Helvetica,sans-Serif" font-size="10.00">TShop::PrintInfo</text>
</a>
</g>
</g>
<!-- Node10&#45;&gt;Node15 -->
<g id="edge15" class="edge">
<title>Node10&#45;&gt;Node15</title>
<path fill="none" stroke="#63b8ff" d="M164.56,-110.97C184.78,-106.22 209.44,-100.43 230.88,-95.39"/>
<polygon fill="#63b8ff" stroke="#63b8ff" points="231.87,-98.75 240.8,-93.06 230.27,-91.94 231.87,-98.75"/>
</g>
<!-- Node16 -->
<g id="node16" class="node">
<title>Node16</title>
<g id="a_node16"><a xlink:href="../../dc/de8/classTShop.html#aa10e5887f689e5928cce716aa1bf9ea6" target="_top" xlink:title=" ">
<polygon fill="white" stroke="#666666" points="327.5,-56 237.5,-56 237.5,-37 327.5,-37 327.5,-56"/>
<text text-anchor="middle" x="282.5" y="-44" font-family="Helvetica,sans-Serif" font-size="10.00">TShop::ReadInt</text>
</a>
</g>
</g>
<!-- Node10&#45;&gt;Node16 -->
<g id="edge16" class="edge">
<title>Node10&#45;&gt;Node16</title>
<path fill="none" stroke="#63b8ff" d="M135.3,-110.9C150.28,-98.63 177.99,-77.56 205,-65.5 212.12,-62.32 219.85,-59.62 227.58,-57.33"/>
<polygon fill="#63b8ff" stroke="#63b8ff" points="228.6,-60.68 237.32,-54.66 226.75,-53.93 228.6,-60.68"/>
</g>
<!-- Node17 -->
<g id="node17" class="node">
<title>Node17</title>
<g id="a_node17"><a xlink:href="../../d8/d51/classMyList.html#a37366fbfd16acad1dfa69a141b339095" target="_top" xlink:title=" ">
<polygon fill="white" stroke="#666666" points="319.5,-19 245.5,-19 245.5,0 319.5,0 319.5,-19"/>
<text text-anchor="middle" x="282.5" y="-7" font-family="Helvetica,sans-Serif" font-size="10.00">MyList::size</text>
</a>
</g>
</g>
<!-- Node10&#45;&gt;Node17 -->
<g id="edge17" class="edge">
<title>Node10&#45;&gt;Node17</title>
<path fill="none" stroke="#63b8ff" d="M129.57,-110.99C141.1,-92.15 169.54,-50.05 205,-28.5 214.22,-22.9 225.01,-18.94 235.53,-16.16"/>
<polygon fill="#63b8ff" stroke="#63b8ff" points="236.54,-19.51 245.48,-13.82 234.95,-12.7 236.54,-19.51"/>
</g>
<!-- Node14 -->
<g id="node14" class="node">
<title>Node14</title>
<g id="a_node14"><a xlink:href="../../d4/de2/classTWeaponHolder.html#a41344ca59e32b01ba31c08ee5d609731" target="_top" xlink:title=" ">
<polygon fill="white" stroke="#666666" points="535,-130 396,-130 396,-111 535,-111 535,-130"/>
<text text-anchor="middle" x="465.5" y="-118" font-family="Helvetica,sans-Serif" font-size="10.00">TWeaponHolder::GetCost</text>
</a>
</g>
</g>
<!-- Node13&#45;&gt;Node14 -->
<g id="edge14" class="edge">
<title>Node13&#45;&gt;Node14</title>
<path fill="none" stroke="#63b8ff" d="M360.26,-120.5C368.69,-120.5 377.27,-120.5 385.72,-120.5"/>
<polygon fill="#63b8ff" stroke="#63b8ff" points="385.94,-124 395.94,-120.5 385.94,-117 385.94,-124"/>
</g>
</g>
</svg>
