<?xml version="1.0" encoding="UTF-8" standalone="no"?>
<!DOCTYPE svg PUBLIC "-//W3C//DTD SVG 1.1//EN"
 "http://www.w3.org/Graphics/SVG/1.1/DTD/svg11.dtd">
<!-- Generated by graphviz version 2.43.0 (0)
 -->
<!-- Title: GetGuns Pages: 1 -->
<svg width="187pt" height="101pt"
 viewBox="0.00 0.00 187.00 101.00" xmlns="http://www.w3.org/2000/svg" xmlns:xlink="http://www.w3.org/1999/xlink">
<g id="graph0" class="graph" transform="scale(1 1) rotate(0) translate(4 97)">
<title>GetGuns</title>
<!-- Node1 -->
<g id="node1" class="node">
<title>Node1</title>
<g id="a_node1"><a xlink:title=" ">
<polygon fill="#999999" stroke="#666666" points="59,-56 0,-56 0,-37 59,-37 59,-56"/>
<text text-anchor="middle" x="29.5" y="-44" font-family="Helvetica,sans-Serif" font-size="10.00">GetGuns</text>
</a>
</g>
</g>
<!-- Node2 -->
<g id="node2" class="node">
<title>Node2</title>
<g id="a_node2"><a xlink:href="../../d8/d51/classMyList.html#a723c00a8380b8fd0705cb286cdd179d2" target="_top" xlink:title=" ">
<polygon fill="white" stroke="#666666" points="173.5,-93 100.5,-93 100.5,-74 173.5,-74 173.5,-93"/>
<text text-anchor="middle" x="137" y="-81" font-family="Helvetica,sans-Serif" font-size="10.00">MyList::end</text>
</a>
</g>
</g>
<!-- Node1&#45;&gt;Node2 -->
<g id="edge1" class="edge">
<title>Node1&#45;&gt;Node2</title>
<path fill="none" stroke="#63b8ff" d="M57.67,-56.03C70.25,-60.44 85.38,-65.75 98.98,-70.52"/>
<polygon fill="#63b8ff" stroke="#63b8ff" points="97.96,-73.87 108.56,-73.88 100.28,-67.26 97.96,-73.87"/>
</g>
<!-- Node3 -->
<g id="node3" class="node">
<title>Node3</title>
<g id="a_node3"><a xlink:href="../../d8/d51/classMyList.html#ab5e189776aca91f01ee5fe930318c289" target="_top" xlink:title=" ">
<polygon fill="white" stroke="#666666" points="178.5,-56 95.5,-56 95.5,-37 178.5,-37 178.5,-56"/>
<text text-anchor="middle" x="137" y="-44" font-family="Helvetica,sans-Serif" font-size="10.00">MyList::insert</text>
</a>
</g>
</g>
<!-- Node1&#45;&gt;Node3 -->
<g id="edge2" class="edge">
<title>Node1&#45;&gt;Node3</title>
<path fill="none" stroke="#63b8ff" d="M59.05,-46.5C67.12,-46.5 76.15,-46.5 85.12,-46.5"/>
<polygon fill="#63b8ff" stroke="#63b8ff" points="85.15,-50 95.15,-46.5 85.15,-43 85.15,-50"/>
</g>
<!-- Node4 -->
<g id="node4" class="node">
<title>Node4</title>
<g id="a_node4"><a xlink:href="../../d6/de3/TestTShop_8cpp.html#aa640d265bfe0b60b6dcce43c1c1d0bd7" target="_top" xlink:title=" ">
<polygon fill="white" stroke="#666666" points="179,-19 95,-19 95,0 179,0 179,-19"/>
<text text-anchor="middle" x="137" y="-7" font-family="Helvetica,sans-Serif" font-size="10.00">weaponByTag</text>
</a>
</g>
</g>
<!-- Node1&#45;&gt;Node4 -->
<g id="edge3" class="edge">
<title>Node1&#45;&gt;Node4</title>
<path fill="none" stroke="#63b8ff" d="M57.67,-36.97C70.25,-32.56 85.38,-27.25 98.98,-22.48"/>
<polygon fill="#63b8ff" stroke="#63b8ff" points="100.28,-25.74 108.56,-19.12 97.96,-19.13 100.28,-25.74"/>
</g>
</g>
</svg>
