<?xml version="1.0" encoding="UTF-8" standalone="no"?>
<!DOCTYPE svg PUBLIC "-//W3C//DTD SVG 1.1//EN"
 "http://www.w3.org/Graphics/SVG/1.1/DTD/svg11.dtd">
<!-- Generated by graphviz version 2.43.0 (0)
 -->
<!-- Title: TEST Pages: 1 -->
<svg width="726pt" height="420pt"
 viewBox="0.00 0.00 726.00 420.00" xmlns="http://www.w3.org/2000/svg" xmlns:xlink="http://www.w3.org/1999/xlink">
<g id="graph0" class="graph" transform="scale(1 1) rotate(0) translate(4 416)">
<title>TEST</title>
<!-- Node1 -->
<g id="node1" class="node">
<title>Node1</title>
<g id="a_node1"><a xlink:title=" ">
<polygon fill="#999999" stroke="#666666" points="41,-168 0,-168 0,-149 41,-149 41,-168"/>
<text text-anchor="middle" x="20.5" y="-156" font-family="Helvetica,sans-Serif" font-size="10.00">TEST</text>
</a>
</g>
</g>
<!-- Node2 -->
<g id="node2" class="node">
<title>Node2</title>
<g id="a_node2"><a xlink:href="../../dc/de8/classTShop.html#aecceb42ffe39e9e0e9f1e152fa0c258d" target="_top" xlink:title=" ">
<polygon fill="white" stroke="#666666" points="169,-319 77,-319 77,-300 169,-300 169,-319"/>
<text text-anchor="middle" x="123" y="-307" font-family="Helvetica,sans-Serif" font-size="10.00">TShop::BuyShip</text>
</a>
</g>
</g>
<!-- Node1&#45;&gt;Node2 -->
<g id="edge1" class="edge">
<title>Node1&#45;&gt;Node2</title>
<path fill="none" stroke="#63b8ff" d="M28.09,-168.41C44.71,-193.37 88.48,-259.14 109.88,-291.29"/>
<polygon fill="#63b8ff" stroke="#63b8ff" points="107.06,-293.37 115.51,-299.75 112.89,-289.49 107.06,-293.37"/>
</g>
<!-- Node8 -->
<g id="node8" class="node">
<title>Node8</title>
<g id="a_node8"><a xlink:href="../../df/dbf/TestTLevelReader_8cpp.html#a32e07d67b7efd1d03d13a110958eece8" target="_top" xlink:title=" ">
<polygon fill="white" stroke="#666666" points="153,-168 93,-168 93,-149 153,-149 153,-168"/>
<text text-anchor="middle" x="123" y="-156" font-family="Helvetica,sans-Serif" font-size="10.00">GetShips</text>
</a>
</g>
</g>
<!-- Node1&#45;&gt;Node8 -->
<g id="edge7" class="edge">
<title>Node1&#45;&gt;Node8</title>
<path fill="none" stroke="#63b8ff" d="M41.36,-158.5C53.14,-158.5 68.5,-158.5 82.64,-158.5"/>
<polygon fill="#63b8ff" stroke="#63b8ff" points="82.66,-162 92.66,-158.5 82.66,-155 82.66,-162"/>
</g>
<!-- Node12 -->
<g id="node12" class="node">
<title>Node12</title>
<g id="a_node12"><a xlink:href="../../d6/de3/TestTShop_8cpp.html#a98ee64221600db3809453989f6bf69eb" target="_top" xlink:title=" ">
<polygon fill="white" stroke="#666666" points="291,-74 211,-74 211,-55 291,-55 291,-74"/>
<text text-anchor="middle" x="251" y="-62" font-family="Helvetica,sans-Serif" font-size="10.00">MakeMission</text>
</a>
</g>
</g>
<!-- Node1&#45;&gt;Node12 -->
<g id="edge14" class="edge">
<title>Node1&#45;&gt;Node12</title>
<path fill="none" stroke="#63b8ff" d="M41.38,-150.32C80.79,-134.11 169.18,-97.75 217.29,-77.96"/>
<polygon fill="#63b8ff" stroke="#63b8ff" points="218.71,-81.16 226.63,-74.11 216.05,-74.68 218.71,-81.16"/>
</g>
<!-- Node3 -->
<g id="node3" class="node">
<title>Node3</title>
<g id="a_node3"><a xlink:href="../../d8/d51/classMyList.html#a281f359e28eb5d6014ba3405cf0e6895" target="_top" xlink:title=" ">
<polygon fill="white" stroke="#666666" points="292,-412 210,-412 210,-393 292,-393 292,-412"/>
<text text-anchor="middle" x="251" y="-400" font-family="Helvetica,sans-Serif" font-size="10.00">MyList::begin</text>
</a>
</g>
</g>
<!-- Node2&#45;&gt;Node3 -->
<g id="edge2" class="edge">
<title>Node2&#45;&gt;Node3</title>
<path fill="none" stroke="#63b8ff" d="M132.54,-319.49C146.39,-335.16 175.19,-365.66 205,-384.5 207.32,-385.97 209.78,-387.35 212.31,-388.65"/>
<polygon fill="#63b8ff" stroke="#63b8ff" points="211.07,-391.94 221.61,-392.99 214.03,-385.59 211.07,-391.94"/>
</g>
<!-- Node4 -->
<g id="node4" class="node">
<title>Node4</title>
<g id="a_node4"><a xlink:href="../../d1/d07/classTShip.html#a36838d6bbb57ef7e04818c5965a562ad" target="_top" xlink:title=" ">
<polygon fill="white" stroke="#666666" points="289.5,-375 212.5,-375 212.5,-356 289.5,-356 289.5,-375"/>
<text text-anchor="middle" x="251" y="-363" font-family="Helvetica,sans-Serif" font-size="10.00">TShip::Clone</text>
</a>
</g>
</g>
<!-- Node2&#45;&gt;Node4 -->
<g id="edge3" class="edge">
<title>Node2&#45;&gt;Node4</title>
<path fill="none" stroke="#63b8ff" d="M143.5,-319.04C159.81,-326.92 183.77,-338.28 205,-347.5 208.44,-349 212.06,-350.52 215.67,-352.01"/>
<polygon fill="#63b8ff" stroke="#63b8ff" points="214.55,-355.33 225.14,-355.85 217.19,-348.85 214.55,-355.33"/>
</g>
<!-- Node5 -->
<g id="node5" class="node">
<title>Node5</title>
<g id="a_node5"><a xlink:href="../../d1/d07/classTShip.html#ab9eb49417d6be99d181e74a9327d9136" target="_top" xlink:title=" ">
<polygon fill="white" stroke="#666666" points="295.5,-338 206.5,-338 206.5,-319 295.5,-319 295.5,-338"/>
<text text-anchor="middle" x="251" y="-326" font-family="Helvetica,sans-Serif" font-size="10.00">TShip::GetCost</text>
</a>
</g>
</g>
<!-- Node2&#45;&gt;Node5 -->
<g id="edge4" class="edge">
<title>Node2&#45;&gt;Node5</title>
<path fill="none" stroke="#63b8ff" d="M169.13,-316.31C177.96,-317.64 187.29,-319.04 196.36,-320.41"/>
<polygon fill="#63b8ff" stroke="#63b8ff" points="196.04,-323.9 206.45,-321.93 197.08,-316.98 196.04,-323.9"/>
</g>
<!-- Node6 -->
<g id="node6" class="node">
<title>Node6</title>
<g id="a_node6"><a xlink:href="../../d8/d51/classMyList.html#ab5e189776aca91f01ee5fe930318c289" target="_top" xlink:title=" ">
<polygon fill="white" stroke="#666666" points="431.5,-187 348.5,-187 348.5,-168 431.5,-168 431.5,-187"/>
<text text-anchor="middle" x="390" y="-175" font-family="Helvetica,sans-Serif" font-size="10.00">MyList::insert</text>
</a>
</g>
</g>
<!-- Node2&#45;&gt;Node6 -->
<g id="edge5" class="edge">
<title>Node2&#45;&gt;Node6</title>
<path fill="none" stroke="#63b8ff" d="M143.49,-299.79C189.83,-276.71 306.78,-218.46 360.82,-191.54"/>
<polygon fill="#63b8ff" stroke="#63b8ff" points="362.45,-194.63 369.84,-187.04 359.33,-188.37 362.45,-194.63"/>
</g>
<!-- Node7 -->
<g id="node7" class="node">
<title>Node7</title>
<g id="a_node7"><a xlink:href="../../dc/de8/classTShop.html#aa10e5887f689e5928cce716aa1bf9ea6" target="_top" xlink:title=" ">
<polygon fill="white" stroke="#666666" points="296,-301 206,-301 206,-282 296,-282 296,-301"/>
<text text-anchor="middle" x="251" y="-289" font-family="Helvetica,sans-Serif" font-size="10.00">TShop::ReadInt</text>
</a>
</g>
</g>
<!-- Node2&#45;&gt;Node7 -->
<g id="edge6" class="edge">
<title>Node2&#45;&gt;Node7</title>
<path fill="none" stroke="#63b8ff" d="M169.13,-303.05C177.66,-301.83 186.66,-300.55 195.44,-299.29"/>
<polygon fill="#63b8ff" stroke="#63b8ff" points="196.2,-302.72 205.6,-297.84 195.21,-295.79 196.2,-302.72"/>
</g>
<!-- Node8&#45;&gt;Node6 -->
<g id="edge13" class="edge">
<title>Node8&#45;&gt;Node6</title>
<path fill="none" stroke="#63b8ff" d="M139.1,-168.07C154.85,-177.43 180.59,-191.06 205,-196.5 252.85,-207.17 309.06,-198.36 346.64,-189.51"/>
<polygon fill="#63b8ff" stroke="#63b8ff" points="347.85,-192.81 356.73,-187.02 346.18,-186.01 347.85,-192.81"/>
</g>
<!-- Node9 -->
<g id="node9" class="node">
<title>Node9</title>
<g id="a_node9"><a xlink:href="../../d8/d51/classMyList.html#a723c00a8380b8fd0705cb286cdd179d2" target="_top" xlink:title=" ">
<polygon fill="white" stroke="#666666" points="426.5,-130 353.5,-130 353.5,-111 426.5,-111 426.5,-130"/>
<text text-anchor="middle" x="390" y="-118" font-family="Helvetica,sans-Serif" font-size="10.00">MyList::end</text>
</a>
</g>
</g>
<!-- Node8&#45;&gt;Node9 -->
<g id="edge8" class="edge">
<title>Node8&#45;&gt;Node9</title>
<path fill="none" stroke="#63b8ff" d="M139.74,-148.87C155.56,-139.78 180.99,-126.79 205,-121.5 251.19,-111.32 305.51,-112.58 343.1,-115.45"/>
<polygon fill="#63b8ff" stroke="#63b8ff" points="342.98,-118.96 353.24,-116.3 343.56,-111.98 342.98,-118.96"/>
</g>
<!-- Node10 -->
<g id="node10" class="node">
<title>Node10</title>
<g id="a_node10"><a xlink:href="../../d8/d51/classMyList.html#a80edb252c7e71107fac78c29647be513" target="_top" xlink:title=" ">
<polygon fill="white" stroke="#666666" points="297,-187 205,-187 205,-168 297,-168 297,-187"/>
<text text-anchor="middle" x="251" y="-175" font-family="Helvetica,sans-Serif" font-size="10.00">MyList::getById</text>
</a>
</g>
</g>
<!-- Node8&#45;&gt;Node10 -->
<g id="edge9" class="edge">
<title>Node8&#45;&gt;Node10</title>
<path fill="none" stroke="#63b8ff" d="M153.22,-162.91C165.51,-164.76 180.23,-166.98 194.43,-169.12"/>
<polygon fill="#63b8ff" stroke="#63b8ff" points="194.23,-172.63 204.64,-170.66 195.28,-165.71 194.23,-172.63"/>
</g>
<!-- Node11 -->
<g id="node11" class="node">
<title>Node11</title>
<g id="a_node11"><a xlink:href="../../df/dbf/TestTLevelReader_8cpp.html#a04829e963b7ea7cf309dfa703ceb950e" target="_top" xlink:title=" ">
<polygon fill="white" stroke="#666666" points="296,-150 206,-150 206,-131 296,-131 296,-150"/>
<text text-anchor="middle" x="251" y="-138" font-family="Helvetica,sans-Serif" font-size="10.00">GetCapitanInfo</text>
</a>
</g>
</g>
<!-- Node8&#45;&gt;Node11 -->
<g id="edge10" class="edge">
<title>Node8&#45;&gt;Node11</title>
<path fill="none" stroke="#63b8ff" d="M153.22,-154.33C165.86,-152.52 181.08,-150.35 195.66,-148.26"/>
<polygon fill="#63b8ff" stroke="#63b8ff" points="196.22,-151.72 205.62,-146.84 195.23,-144.79 196.22,-151.72"/>
</g>
<!-- Node11&#45;&gt;Node6 -->
<g id="edge12" class="edge">
<title>Node11&#45;&gt;Node6</title>
<path fill="none" stroke="#63b8ff" d="M287.28,-150.03C304.41,-154.65 325.19,-160.27 343.49,-165.21"/>
<polygon fill="#63b8ff" stroke="#63b8ff" points="342.8,-168.65 353.36,-167.88 344.62,-161.89 342.8,-168.65"/>
</g>
<!-- Node11&#45;&gt;Node9 -->
<g id="edge11" class="edge">
<title>Node11&#45;&gt;Node9</title>
<path fill="none" stroke="#63b8ff" d="M296.1,-134.06C311.1,-131.87 327.89,-129.42 343.04,-127.21"/>
<polygon fill="#63b8ff" stroke="#63b8ff" points="343.82,-130.63 353.21,-125.72 342.81,-123.71 343.82,-130.63"/>
</g>
<!-- Node12&#45;&gt;Node6 -->
<g id="edge20" class="edge">
<title>Node12&#45;&gt;Node6</title>
<path fill="none" stroke="#63b8ff" d="M261.6,-74.05C276.4,-88.59 305.92,-116.86 333,-138.5 343.31,-146.74 355.25,-155.19 365.44,-162.11"/>
<polygon fill="#63b8ff" stroke="#63b8ff" points="363.62,-165.1 373.88,-167.75 367.51,-159.28 363.62,-165.1"/>
</g>
<!-- Node12&#45;&gt;Node9 -->
<g id="edge19" class="edge">
<title>Node12&#45;&gt;Node9</title>
<path fill="none" stroke="#63b8ff" d="M271.4,-74.03C287.66,-81.86 311.59,-93 333,-101.5 338.25,-103.58 343.83,-105.65 349.35,-107.61"/>
<polygon fill="#63b8ff" stroke="#63b8ff" points="348.56,-111.04 359.15,-111 350.85,-104.42 348.56,-111.04"/>
</g>
<!-- Node13 -->
<g id="node13" class="node">
<title>Node13</title>
<g id="a_node13"><a xlink:href="../../d6/de3/TestTShop_8cpp.html#a91b1072b73146edaa17d465723f7e752" target="_top" xlink:title=" ">
<polygon fill="white" stroke="#666666" points="437.5,-93 342.5,-93 342.5,-74 437.5,-74 437.5,-93"/>
<text text-anchor="middle" x="390" y="-81" font-family="Helvetica,sans-Serif" font-size="10.00">CargoShipByTag</text>
</a>
</g>
</g>
<!-- Node12&#45;&gt;Node13 -->
<g id="edge15" class="edge">
<title>Node12&#45;&gt;Node13</title>
<path fill="none" stroke="#63b8ff" d="M291.26,-69.94C304.11,-71.73 318.65,-73.74 332.52,-75.67"/>
<polygon fill="#63b8ff" stroke="#63b8ff" points="332.08,-79.14 342.46,-77.05 333.04,-72.21 332.08,-79.14"/>
</g>
<!-- Node14 -->
<g id="node14" class="node">
<title>Node14</title>
<g id="a_node14"><a xlink:href="../../d6/de3/TestTShop_8cpp.html#a4656159259c8555e9734cbedce4e2646" target="_top" xlink:title=" ">
<polygon fill="white" stroke="#666666" points="447,-19 333,-19 333,0 447,0 447,-19"/>
<text text-anchor="middle" x="390" y="-7" font-family="Helvetica,sans-Serif" font-size="10.00">CargoWarShipByTag</text>
</a>
</g>
</g>
<!-- Node12&#45;&gt;Node14 -->
<g id="edge16" class="edge">
<title>Node12&#45;&gt;Node14</title>
<path fill="none" stroke="#63b8ff" d="M271.37,-54.87C287.61,-46.99 311.52,-35.82 333,-27.5 337.58,-25.73 342.41,-23.98 347.25,-22.32"/>
<polygon fill="#63b8ff" stroke="#63b8ff" points="348.7,-25.53 357.08,-19.04 346.49,-18.88 348.7,-25.53"/>
</g>
<!-- Node17 -->
<g id="node17" class="node">
<title>Node17</title>
<g id="a_node17"><a xlink:href="../../d6/de3/TestTShop_8cpp.html#afff93d5bf1558a5c4f5e44394b804afb" target="_top" xlink:title=" ">
<polygon fill="white" stroke="#666666" points="433,-56 347,-56 347,-37 433,-37 433,-56"/>
<text text-anchor="middle" x="390" y="-44" font-family="Helvetica,sans-Serif" font-size="10.00">WarShipByTag</text>
</a>
</g>
</g>
<!-- Node12&#45;&gt;Node17 -->
<g id="edge21" class="edge">
<title>Node12&#45;&gt;Node17</title>
<path fill="none" stroke="#63b8ff" d="M291.26,-59.34C305.39,-57.48 321.57,-55.36 336.64,-53.38"/>
<polygon fill="#63b8ff" stroke="#63b8ff" points="337.4,-56.81 346.86,-52.04 336.49,-49.87 337.4,-56.81"/>
</g>
<!-- Node15 -->
<g id="node15" class="node">
<title>Node15</title>
<g id="a_node15"><a xlink:href="../../d6/de3/TestTShop_8cpp.html#a93785f1846e55fd76f966f49a790e128" target="_top" xlink:title=" ">
<polygon fill="white" stroke="#666666" points="598,-37 483,-37 483,-18 598,-18 598,-37"/>
<text text-anchor="middle" x="540.5" y="-25" font-family="Helvetica,sans-Serif" font-size="10.00">makeWeaponHolder</text>
</a>
</g>
</g>
<!-- Node14&#45;&gt;Node15 -->
<g id="edge17" class="edge">
<title>Node14&#45;&gt;Node15</title>
<path fill="none" stroke="#63b8ff" d="M447.14,-16.31C455.52,-17.32 464.24,-18.38 472.81,-19.42"/>
<polygon fill="#63b8ff" stroke="#63b8ff" points="472.44,-22.9 482.79,-20.63 473.28,-15.95 472.44,-22.9"/>
</g>
<!-- Node16 -->
<g id="node16" class="node">
<title>Node16</title>
<g id="a_node16"><a xlink:href="../../d6/de3/TestTShop_8cpp.html#aa640d265bfe0b60b6dcce43c1c1d0bd7" target="_top" xlink:title=" ">
<polygon fill="white" stroke="#666666" points="718,-37 634,-37 634,-18 718,-18 718,-37"/>
<text text-anchor="middle" x="676" y="-25" font-family="Helvetica,sans-Serif" font-size="10.00">weaponByTag</text>
</a>
</g>
</g>
<!-- Node15&#45;&gt;Node16 -->
<g id="edge18" class="edge">
<title>Node15&#45;&gt;Node16</title>
<path fill="none" stroke="#63b8ff" d="M598.12,-27.5C606.6,-27.5 615.32,-27.5 623.68,-27.5"/>
<polygon fill="#63b8ff" stroke="#63b8ff" points="623.69,-31 633.69,-27.5 623.69,-24 623.69,-31"/>
</g>
<!-- Node17&#45;&gt;Node15 -->
<g id="edge22" class="edge">
<title>Node17&#45;&gt;Node15</title>
<path fill="none" stroke="#63b8ff" d="M433.16,-41.11C445.46,-39.53 459.21,-37.77 472.64,-36.05"/>
<polygon fill="#63b8ff" stroke="#63b8ff" points="473.34,-39.49 482.82,-34.75 472.45,-32.55 473.34,-39.49"/>
</g>
</g>
</svg>
