<?xml version="1.0" encoding="UTF-8" standalone="no"?>
<!DOCTYPE svg PUBLIC "-//W3C//DTD SVG 1.1//EN"
 "http://www.w3.org/Graphics/SVG/1.1/DTD/svg11.dtd">
<!-- Generated by graphviz version 2.43.0 (0)
 -->
<!-- Title: TEST Pages: 1 -->
<!--zoomable 434 -->
<svg id="main" version="1.1" xmlns="http://www.w3.org/2000/svg" xmlns:xlink="http://www.w3.org/1999/xlink" xml:space="preserve" onload="init(evt)">
<style type="text/css"><![CDATA[
.edge:hover path { stroke: red; }
.edge:hover polygon { stroke: red; fill: red; }
]]></style>
<script type="text/javascript"><![CDATA[
var edges = document.getElementsByTagName('g');
if (edges && edges.length) {
  for (var i=0;i<edges.length;i++) {
    if (edges[i].id.substr(0,4)=='edge') {
      edges[i].setAttribute('class','edge');
    }
  }
}
]]></script>
        <defs>
                <circle id="rim" cx="0" cy="0" r="7"/>
                <circle id="rim2" cx="0" cy="0" r="3.5"/>
                <g id="zoomPlus">
                        <use xlink:href="#rim" fill="#404040">
                                <set attributeName="fill" to="#808080" begin="zoomplus.mouseover" end="zoomplus.mouseout"/>
                        </use>
                        <path d="M-4,0h8M0,-4v8" fill="none" stroke="white" stroke-width="1.5" pointer-events="none"/>
                </g>
                <g id="zoomMin">
                        <use xlink:href="#rim" fill="#404040">
                                <set attributeName="fill" to="#808080" begin="zoomminus.mouseover" end="zoomminus.mouseout"/>
                        </use>
                        <path d="M-4,0h8" fill="none" stroke="white" stroke-width="1.5" pointer-events="none"/>
                </g>
                <g id="dirArrow">
                        <path fill="none" stroke="white" stroke-width="1.5" d="M0,-3.0v7 M-2.5,-0.5L0,-3.0L2.5,-0.5"/>
                </g>
               <g id="resetDef">
                       <use xlink:href="#rim2" fill="#404040">
                               <set attributeName="fill" to="#808080" begin="reset.mouseover" end="reset.mouseout"/>
                       </use>
               </g>
        </defs>

<script type="text/javascript">
var viewWidth = 658;
var viewHeight = 434;
var sectionId = 'dynsection-34';
</script>
<script xlink:href="../../svgpan.js"/>
<svg id="graph" class="graph">
<g id="viewport">
<title>TEST</title>
<!-- Node1 -->
<g id="node1" class="node">
<title>Node1</title>
<g id="a_node1"><a xlink:title=" ">
<polygon fill="#999999" stroke="#666666" points="41,-223 0,-223 0,-204 41,-204 41,-223"/>
<text text-anchor="middle" x="20.5" y="-211" font-family="Helvetica,sans-Serif" font-size="10.00">TEST</text>
</a>
</g>
</g>
<!-- Node2 -->
<g id="node2" class="node">
<title>Node2</title>
<g id="a_node2"><a xlink:href="../../d6/de3/TestTShop_8cpp.html#a98ee64221600db3809453989f6bf69eb" target="_top" xlink:title=" ">
<polygon fill="white" stroke="#666666" points="162,-333 82,-333 82,-314 162,-314 162,-333"/>
<text text-anchor="middle" x="122" y="-321" font-family="Helvetica,sans-Serif" font-size="10.00">MakeMission</text>
</a>
</g>
</g>
<!-- Node1&#45;&gt;Node2 -->
<g id="edge1" class="edge">
<title>Node1&#45;&gt;Node2</title>
<path fill="none" stroke="#63b8ff" d="M30.33,-223.26C47.26,-241.98 84.49,-283.13 105.6,-306.47"/>
<polygon fill="#63b8ff" stroke="#63b8ff" points="103.03,-308.85 112.33,-313.92 108.22,-304.15 103.03,-308.85"/>
</g>
<!-- Node10 -->
<g id="node10" class="node">
<title>Node10</title>
<g id="a_node10"><a xlink:href="../../dc/de8/classTShop.html#a7c75fe3801c08795282fefc2baae29b8" target="_top" xlink:title=" ">
<polygon fill="white" stroke="#666666" points="167,-149 77,-149 77,-130 167,-130 167,-149"/>
<text text-anchor="middle" x="122" y="-137" font-family="Helvetica,sans-Serif" font-size="10.00">TShop::SellGun</text>
</a>
</g>
</g>
<!-- Node1&#45;&gt;Node10 -->
<g id="edge10" class="edge">
<title>Node1&#45;&gt;Node10</title>
<path fill="none" stroke="#63b8ff" d="M34.51,-203.83C51.12,-191.47 80.08,-169.94 99.87,-155.21"/>
<polygon fill="#63b8ff" stroke="#63b8ff" points="102.05,-157.95 107.99,-149.18 97.88,-152.34 102.05,-157.95"/>
</g>
<!-- Node3 -->
<g id="node3" class="node">
<title>Node3</title>
<g id="a_node3"><a xlink:href="../../d6/de3/TestTShop_8cpp.html#a91b1072b73146edaa17d465723f7e752" target="_top" xlink:title=" ">
<polygon fill="white" stroke="#666666" points="338.5,-426 243.5,-426 243.5,-407 338.5,-407 338.5,-426"/>
<text text-anchor="middle" x="291" y="-414" font-family="Helvetica,sans-Serif" font-size="10.00">CargoShipByTag</text>
</a>
</g>
</g>
<!-- Node2&#45;&gt;Node3 -->
<g id="edge2" class="edge">
<title>Node2&#45;&gt;Node3</title>
<path fill="none" stroke="#63b8ff" d="M130.21,-333.08C142.98,-349.3 171.23,-382.02 203,-398.5 212.34,-403.34 222.88,-406.89 233.31,-409.47"/>
<polygon fill="#63b8ff" stroke="#63b8ff" points="232.72,-412.93 243.24,-411.67 234.24,-406.09 232.72,-412.93"/>
</g>
<!-- Node4 -->
<g id="node4" class="node">
<title>Node4</title>
<g id="a_node4"><a xlink:href="../../d6/de3/TestTShop_8cpp.html#a4656159259c8555e9734cbedce4e2646" target="_top" xlink:title=" ">
<polygon fill="white" stroke="#666666" points="348,-389 234,-389 234,-370 348,-370 348,-389"/>
<text text-anchor="middle" x="291" y="-377" font-family="Helvetica,sans-Serif" font-size="10.00">CargoWarShipByTag</text>
</a>
</g>
</g>
<!-- Node2&#45;&gt;Node4 -->
<g id="edge3" class="edge">
<title>Node2&#45;&gt;Node4</title>
<path fill="none" stroke="#63b8ff" d="M139.98,-333.04C155.84,-341.59 180.41,-353.92 203,-361.5 209.74,-363.76 216.86,-365.79 224.03,-367.6"/>
<polygon fill="#63b8ff" stroke="#63b8ff" points="223.24,-371.01 233.78,-369.93 224.87,-364.2 223.24,-371.01"/>
</g>
<!-- Node7 -->
<g id="node7" class="node">
<title>Node7</title>
<g id="a_node7"><a xlink:href="../../d8/d51/classMyList.html#a723c00a8380b8fd0705cb286cdd179d2" target="_top" xlink:title=" ">
<polygon fill="white" stroke="#666666" points="327.5,-352 254.5,-352 254.5,-333 327.5,-333 327.5,-352"/>
<text text-anchor="middle" x="291" y="-340" font-family="Helvetica,sans-Serif" font-size="10.00">MyList::end</text>
</a>
</g>
</g>
<!-- Node2&#45;&gt;Node7 -->
<g id="edge6" class="edge">
<title>Node2&#45;&gt;Node7</title>
<path fill="none" stroke="#63b8ff" d="M162.15,-327.95C186.64,-330.74 218.3,-334.34 243.98,-337.26"/>
<polygon fill="#63b8ff" stroke="#63b8ff" points="243.89,-340.78 254.22,-338.43 244.68,-333.82 243.89,-340.78"/>
</g>
<!-- Node8 -->
<g id="node8" class="node">
<title>Node8</title>
<g id="a_node8"><a xlink:href="../../d8/d51/classMyList.html#ab5e189776aca91f01ee5fe930318c289" target="_top" xlink:title=" ">
<polygon fill="white" stroke="#666666" points="332.5,-315 249.5,-315 249.5,-296 332.5,-296 332.5,-315"/>
<text text-anchor="middle" x="291" y="-303" font-family="Helvetica,sans-Serif" font-size="10.00">MyList::insert</text>
</a>
</g>
</g>
<!-- Node2&#45;&gt;Node8 -->
<g id="edge7" class="edge">
<title>Node2&#45;&gt;Node8</title>
<path fill="none" stroke="#63b8ff" d="M162.15,-319.28C185.2,-316.8 214.6,-313.63 239.39,-310.95"/>
<polygon fill="#63b8ff" stroke="#63b8ff" points="239.78,-314.43 249.35,-309.88 239.03,-307.47 239.78,-314.43"/>
</g>
<!-- Node9 -->
<g id="node9" class="node">
<title>Node9</title>
<g id="a_node9"><a xlink:href="../../d6/de3/TestTShop_8cpp.html#afff93d5bf1558a5c4f5e44394b804afb" target="_top" xlink:title=" ">
<polygon fill="white" stroke="#666666" points="334,-278 248,-278 248,-259 334,-259 334,-278"/>
<text text-anchor="middle" x="291" y="-266" font-family="Helvetica,sans-Serif" font-size="10.00">WarShipByTag</text>
</a>
</g>
</g>
<!-- Node2&#45;&gt;Node9 -->
<g id="edge8" class="edge">
<title>Node2&#45;&gt;Node9</title>
<path fill="none" stroke="#63b8ff" d="M141.31,-313.94C157.25,-305.94 181.16,-294.71 203,-287.5 214.13,-283.83 226.29,-280.66 237.9,-278.03"/>
<polygon fill="#63b8ff" stroke="#63b8ff" points="238.9,-281.39 247.93,-275.85 237.41,-274.55 238.9,-281.39"/>
</g>
<!-- Node5 -->
<g id="node5" class="node">
<title>Node5</title>
<g id="a_node5"><a xlink:href="../../d6/de3/TestTShop_8cpp.html#a93785f1846e55fd76f966f49a790e128" target="_top" xlink:title=" ">
<polygon fill="white" stroke="#666666" points="530,-333 415,-333 415,-314 530,-314 530,-333"/>
<text text-anchor="middle" x="472.5" y="-321" font-family="Helvetica,sans-Serif" font-size="10.00">makeWeaponHolder</text>
</a>
</g>
</g>
<!-- Node4&#45;&gt;Node5 -->
<g id="edge4" class="edge">
<title>Node4&#45;&gt;Node5</title>
<path fill="none" stroke="#63b8ff" d="M346.23,-369.91C357.17,-367.52 368.53,-364.7 379,-361.5 400.57,-354.9 424.08,-345.21 441.99,-337.27"/>
<polygon fill="#63b8ff" stroke="#63b8ff" points="443.64,-340.36 451.32,-333.07 440.77,-333.98 443.64,-340.36"/>
</g>
<!-- Node6 -->
<g id="node6" class="node">
<title>Node6</title>
<g id="a_node6"><a xlink:href="../../d6/de3/TestTShop_8cpp.html#aa640d265bfe0b60b6dcce43c1c1d0bd7" target="_top" xlink:title=" ">
<polygon fill="white" stroke="#666666" points="650,-333 566,-333 566,-314 650,-314 650,-333"/>
<text text-anchor="middle" x="608" y="-321" font-family="Helvetica,sans-Serif" font-size="10.00">weaponByTag</text>
</a>
</g>
</g>
<!-- Node5&#45;&gt;Node6 -->
<g id="edge5" class="edge">
<title>Node5&#45;&gt;Node6</title>
<path fill="none" stroke="#63b8ff" d="M530.12,-323.5C538.6,-323.5 547.32,-323.5 555.68,-323.5"/>
<polygon fill="#63b8ff" stroke="#63b8ff" points="555.69,-327 565.69,-323.5 555.69,-320 555.69,-327"/>
</g>
<!-- Node9&#45;&gt;Node5 -->
<g id="edge9" class="edge">
<title>Node9&#45;&gt;Node5</title>
<path fill="none" stroke="#63b8ff" d="M334.38,-276.37C348.68,-279.39 364.64,-283.17 379,-287.5 399.88,-293.8 422.72,-302.67 440.48,-310.03"/>
<polygon fill="#63b8ff" stroke="#63b8ff" points="439.21,-313.29 449.78,-313.94 441.92,-306.84 439.21,-313.29"/>
</g>
<!-- Node11 -->
<g id="node11" class="node">
<title>Node11</title>
<g id="a_node11"><a xlink:href="../../d8/d51/classMyList.html#a281f359e28eb5d6014ba3405cf0e6895" target="_top" xlink:title=" ">
<polygon fill="white" stroke="#666666" points="332,-241 250,-241 250,-222 332,-222 332,-241"/>
<text text-anchor="middle" x="291" y="-229" font-family="Helvetica,sans-Serif" font-size="10.00">MyList::begin</text>
</a>
</g>
</g>
<!-- Node10&#45;&gt;Node11 -->
<g id="edge11" class="edge">
<title>Node10&#45;&gt;Node11</title>
<path fill="none" stroke="#63b8ff" d="M130.5,-149.03C143.48,-164.84 171.77,-196.35 203,-212.5 214.38,-218.38 227.5,-222.45 240.05,-225.26"/>
<polygon fill="#63b8ff" stroke="#63b8ff" points="239.46,-228.71 249.95,-227.25 240.84,-221.85 239.46,-228.71"/>
</g>
<!-- Node12 -->
<g id="node12" class="node">
<title>Node12</title>
<g id="a_node12"><a xlink:href="../../d1/d3d/classTWeapon.html#a2074e5b5b326730d5212a3dc00df06f4" target="_top" xlink:title=" ">
<polygon fill="white" stroke="#666666" points="344.5,-204 237.5,-204 237.5,-185 344.5,-185 344.5,-204"/>
<text text-anchor="middle" x="291" y="-192" font-family="Helvetica,sans-Serif" font-size="10.00">TWeapon::GetCost</text>
</a>
</g>
</g>
<!-- Node10&#45;&gt;Node12 -->
<g id="edge12" class="edge">
<title>Node10&#45;&gt;Node12</title>
<path fill="none" stroke="#63b8ff" d="M141.31,-149.06C157.25,-157.06 181.16,-168.29 203,-175.5 211.02,-178.15 219.58,-180.53 228.08,-182.64"/>
<polygon fill="#63b8ff" stroke="#63b8ff" points="227.46,-186.09 238,-184.99 229.08,-179.28 227.46,-186.09"/>
</g>
<!-- Node13 -->
<g id="node13" class="node">
<title>Node13</title>
<g id="a_node13"><a xlink:href="../../d4/de2/classTWeaponHolder.html#a1c57748293f9f082f1598c51b288de34" target="_top" xlink:title=" ">
<polygon fill="white" stroke="#666666" points="379,-167 203,-167 203,-148 379,-148 379,-167"/>
<text text-anchor="middle" x="291" y="-155" font-family="Helvetica,sans-Serif" font-size="10.00">TWeaponHolder::GetGunByPlace</text>
</a>
</g>
</g>
<!-- Node10&#45;&gt;Node13 -->
<g id="edge13" class="edge">
<title>Node10&#45;&gt;Node13</title>
<path fill="none" stroke="#63b8ff" d="M167.31,-144.28C175.32,-145.14 183.94,-146.07 192.78,-147.02"/>
<polygon fill="#63b8ff" stroke="#63b8ff" points="192.5,-150.51 202.82,-148.1 193.25,-143.55 192.5,-150.51"/>
</g>
<!-- Node14 -->
<g id="node14" class="node">
<title>Node14</title>
<g id="a_node14"><a xlink:href="../../db/df3/classTWarShip.html#a6498ce65a99aba4649774151442b3637" target="_top" xlink:title=" ">
<polygon fill="white" stroke="#666666" points="350,-130 232,-130 232,-111 350,-111 350,-130"/>
<text text-anchor="middle" x="291" y="-118" font-family="Helvetica,sans-Serif" font-size="10.00">TWarShip::GetHolder</text>
</a>
</g>
</g>
<!-- Node10&#45;&gt;Node14 -->
<g id="edge14" class="edge">
<title>Node10&#45;&gt;Node14</title>
<path fill="none" stroke="#63b8ff" d="M167.31,-134.46C184.03,-132.56 203.45,-130.35 221.85,-128.25"/>
<polygon fill="#63b8ff" stroke="#63b8ff" points="222.39,-131.71 231.93,-127.11 221.6,-124.76 222.39,-131.71"/>
</g>
<!-- Node15 -->
<g id="node15" class="node">
<title>Node15</title>
<g id="a_node15"><a xlink:href="../../dc/de8/classTShop.html#a46d86376a3b839bf3299639a9bb844a7" target="_top" xlink:title=" ">
<polygon fill="white" stroke="#666666" points="338,-93 244,-93 244,-74 338,-74 338,-93"/>
<text text-anchor="middle" x="291" y="-81" font-family="Helvetica,sans-Serif" font-size="10.00">TShop::PrintInfo</text>
</a>
</g>
</g>
<!-- Node10&#45;&gt;Node15 -->
<g id="edge15" class="edge">
<title>Node10&#45;&gt;Node15</title>
<path fill="none" stroke="#63b8ff" d="M139.98,-129.96C155.84,-121.41 180.41,-109.08 203,-101.5 212.86,-98.19 223.57,-95.38 233.99,-93.02"/>
<polygon fill="#63b8ff" stroke="#63b8ff" points="234.8,-96.43 243.85,-90.91 233.34,-89.58 234.8,-96.43"/>
</g>
<!-- Node16 -->
<g id="node16" class="node">
<title>Node16</title>
<g id="a_node16"><a xlink:href="../../dc/de8/classTShop.html#aa10e5887f689e5928cce716aa1bf9ea6" target="_top" xlink:title=" ">
<polygon fill="white" stroke="#666666" points="336,-56 246,-56 246,-37 336,-37 336,-56"/>
<text text-anchor="middle" x="291" y="-44" font-family="Helvetica,sans-Serif" font-size="10.00">TShop::ReadInt</text>
</a>
</g>
</g>
<!-- Node10&#45;&gt;Node16 -->
<g id="edge16" class="edge">
<title>Node10&#45;&gt;Node16</title>
<path fill="none" stroke="#63b8ff" d="M130.21,-129.92C142.98,-113.7 171.23,-80.98 203,-64.5 213.17,-59.23 224.75,-55.5 236.08,-52.86"/>
<polygon fill="#63b8ff" stroke="#63b8ff" points="236.85,-56.28 245.93,-50.81 235.43,-49.42 236.85,-56.28"/>
</g>
<!-- Node17 -->
<g id="node17" class="node">
<title>Node17</title>
<g id="a_node17"><a xlink:href="../../d8/d51/classMyList.html#a37366fbfd16acad1dfa69a141b339095" target="_top" xlink:title=" ">
<polygon fill="white" stroke="#666666" points="328,-19 254,-19 254,0 328,0 328,-19"/>
<text text-anchor="middle" x="291" y="-7" font-family="Helvetica,sans-Serif" font-size="10.00">MyList::size</text>
</a>
</g>
</g>
<!-- Node10&#45;&gt;Node17 -->
<g id="edge17" class="edge">
<title>Node10&#45;&gt;Node17</title>
<path fill="none" stroke="#63b8ff" d="M126.92,-129.84C136.39,-107.81 162.75,-53.71 203,-27.5 215.06,-19.64 229.9,-15.12 243.88,-12.55"/>
<polygon fill="#63b8ff" stroke="#63b8ff" points="244.51,-15.99 253.85,-11 243.43,-9.08 244.51,-15.99"/>
</g>
</g>
</svg>
        <g id="navigator" transform="translate(0 0)" fill="#404254">
                <rect fill="#f2f5e9" fill-opacity="0.5" stroke="#606060" stroke-width=".5" x="0" y="0" width="60" height="60"/>
                <use id="zoomplus" xlink:href="#zoomPlus" x="17" y="9" onmousedown="handleZoom(evt,'in')"/>
                <use id="zoomminus" xlink:href="#zoomMin" x="42" y="9" onmousedown="handleZoom(evt,'out')"/>
                <use id="reset" xlink:href="#resetDef" x="30" y="36" onmousedown="handleReset()"/>
                <g id="arrowUp" xlink:href="#dirArrow" transform="translate(30 24)" onmousedown="handlePan(0,-1)">
                  <use xlink:href="#rim" fill="#404040">
                        <set attributeName="fill" to="#808080" begin="arrowUp.mouseover" end="arrowUp.mouseout"/>
                  </use>
                  <path fill="none" stroke="white" stroke-width="1.5" d="M0,-3.0v7 M-2.5,-0.5L0,-3.0L2.5,-0.5"/>
                </g>
                <g id="arrowRight" xlink:href="#dirArrow" transform="rotate(90) translate(36 -43)" onmousedown="handlePan(1,0)">
                  <use xlink:href="#rim" fill="#404040">
                        <set attributeName="fill" to="#808080" begin="arrowRight.mouseover" end="arrowRight.mouseout"/>
                  </use>
                  <path fill="none" stroke="white" stroke-width="1.5" d="M0,-3.0v7 M-2.5,-0.5L0,-3.0L2.5,-0.5"/>
                </g>
                <g id="arrowDown" xlink:href="#dirArrow" transform="rotate(180) translate(-30 -48)" onmousedown="handlePan(0,1)">
                  <use xlink:href="#rim" fill="#404040">
                        <set attributeName="fill" to="#808080" begin="arrowDown.mouseover" end="arrowDown.mouseout"/>
                  </use>
                  <path fill="none" stroke="white" stroke-width="1.5" d="M0,-3.0v7 M-2.5,-0.5L0,-3.0L2.5,-0.5"/>
                </g>
                <g id="arrowLeft" xlink:href="#dirArrow" transform="rotate(270) translate(-36 17)" onmousedown="handlePan(-1,0)">
                  <use xlink:href="#rim" fill="#404040">
                        <set attributeName="fill" to="#808080" begin="arrowLeft.mouseover" end="arrowLeft.mouseout"/>
                  </use>
                  <path fill="none" stroke="white" stroke-width="1.5" d="M0,-3.0v7 M-2.5,-0.5L0,-3.0L2.5,-0.5"/>
                </g>
        </g>
        <svg viewBox="0 0 15 15" width="100%" height="30px" preserveAspectRatio="xMaxYMin meet">
         <g id="arrow_out" transform="scale(0.3 0.3)">
          <a xlink:href="TestTShop_8cpp_a99ee2f047e7cb3a8b35e4f41ad4cbd01_cgraph_org.svg" target="_base">
           <rect id="button" ry="5" rx="5" y="6" x="6" height="38" width="38"
                fill="#f2f5e9" fill-opacity="0.5" stroke="#606060" stroke-width="1.0"/>
           <path id="arrow"
             d="M 11.500037,31.436501 C 11.940474,20.09759 22.043105,11.32322 32.158766,21.979434 L 37.068811,17.246167 C 37.068811,17.246167 37.088388,32 37.088388,32 L 22.160133,31.978069 C 22.160133,31.978069 26.997745,27.140456 26.997745,27.140456 C 18.528582,18.264221 13.291696,25.230495 11.500037,31.436501 z"
             style="fill:#404040;"/>
          </a>
         </g>
        </svg>
</svg>
