<?xml version="1.0" encoding="UTF-8" standalone="no"?>
<!DOCTYPE svg PUBLIC "-//W3C//DTD SVG 1.1//EN"
 "http://www.w3.org/Graphics/SVG/1.1/DTD/svg11.dtd">
<!-- Generated by graphviz version 2.43.0 (0)
 -->
<!-- Title: TEST Pages: 1 -->
<!--zoomable 212 -->
<svg id="main" version="1.1" xmlns="http://www.w3.org/2000/svg" xmlns:xlink="http://www.w3.org/1999/xlink" xml:space="preserve" onload="init(evt)">
<style type="text/css"><![CDATA[
.edge:hover path { stroke: red; }
.edge:hover polygon { stroke: red; fill: red; }
]]></style>
<script type="text/javascript"><![CDATA[
var edges = document.getElementsByTagName('g');
if (edges && edges.length) {
  for (var i=0;i<edges.length;i++) {
    if (edges[i].id.substr(0,4)=='edge') {
      edges[i].setAttribute('class','edge');
    }
  }
}
]]></script>
        <defs>
                <circle id="rim" cx="0" cy="0" r="7"/>
                <circle id="rim2" cx="0" cy="0" r="3.5"/>
                <g id="zoomPlus">
                        <use xlink:href="#rim" fill="#404040">
                                <set attributeName="fill" to="#808080" begin="zoomplus.mouseover" end="zoomplus.mouseout"/>
                        </use>
                        <path d="M-4,0h8M0,-4v8" fill="none" stroke="white" stroke-width="1.5" pointer-events="none"/>
                </g>
                <g id="zoomMin">
                        <use xlink:href="#rim" fill="#404040">
                                <set attributeName="fill" to="#808080" begin="zoomminus.mouseover" end="zoomminus.mouseout"/>
                        </use>
                        <path d="M-4,0h8" fill="none" stroke="white" stroke-width="1.5" pointer-events="none"/>
                </g>
                <g id="dirArrow">
                        <path fill="none" stroke="white" stroke-width="1.5" d="M0,-3.0v7 M-2.5,-0.5L0,-3.0L2.5,-0.5"/>
                </g>
               <g id="resetDef">
                       <use xlink:href="#rim2" fill="#404040">
                               <set attributeName="fill" to="#808080" begin="reset.mouseover" end="reset.mouseout"/>
                       </use>
               </g>
        </defs>

<script type="text/javascript">
var viewWidth = 598;
var viewHeight = 212;
var sectionId = 'dynsection-15';
</script>
<script xlink:href="../../svgpan.js"/>
<svg id="graph" class="graph">
<g id="viewport">
<title>TEST</title>
<!-- Node1 -->
<g id="node1" class="node">
<title>Node1</title>
<g id="a_node1"><a xlink:title=" ">
<polygon fill="#999999" stroke="#666666" points="41,-129 0,-129 0,-110 41,-110 41,-129"/>
<text text-anchor="middle" x="20.5" y="-117" font-family="Helvetica,sans-Serif" font-size="10.00">TEST</text>
</a>
</g>
</g>
<!-- Node2 -->
<g id="node2" class="node">
<title>Node2</title>
<g id="a_node2"><a xlink:href="../../dc/de8/classTShop.html#a5e84a0c01c9d507bda6ce4a0de43eaa7" target="_top" xlink:title=" ">
<polygon fill="white" stroke="#666666" points="169,-176 77,-176 77,-157 169,-157 169,-176"/>
<text text-anchor="middle" x="123" y="-164" font-family="Helvetica,sans-Serif" font-size="10.00">TShop::AskPlay</text>
</a>
</g>
</g>
<!-- Node1&#45;&gt;Node2 -->
<g id="edge1" class="edge">
<title>Node1&#45;&gt;Node2</title>
<path fill="none" stroke="#63b8ff" d="M41.36,-128.79C55.89,-135.58 75.87,-144.92 92.3,-152.61"/>
<polygon fill="#63b8ff" stroke="#63b8ff" points="90.95,-155.85 101.5,-156.91 93.92,-149.5 90.95,-155.85"/>
</g>
<!-- Node4 -->
<g id="node4" class="node">
<title>Node4</title>
<g id="a_node4"><a xlink:href="../../d6/de3/TestTShop_8cpp.html#a98ee64221600db3809453989f6bf69eb" target="_top" xlink:title=" ">
<polygon fill="white" stroke="#666666" points="163,-111 83,-111 83,-92 163,-92 163,-111"/>
<text text-anchor="middle" x="123" y="-99" font-family="Helvetica,sans-Serif" font-size="10.00">MakeMission</text>
</a>
</g>
</g>
<!-- Node1&#45;&gt;Node4 -->
<g id="edge3" class="edge">
<title>Node1&#45;&gt;Node4</title>
<path fill="none" stroke="#63b8ff" d="M41.36,-115.94C50.38,-114.33 61.49,-112.34 72.56,-110.36"/>
<polygon fill="#63b8ff" stroke="#63b8ff" points="73.42,-113.76 82.64,-108.55 72.18,-106.87 73.42,-113.76"/>
</g>
<!-- Node3 -->
<g id="node3" class="node">
<title>Node3</title>
<g id="a_node3"><a xlink:href="../../dc/de8/classTShop.html#a46d86376a3b839bf3299639a9bb844a7" target="_top" xlink:title=" ">
<polygon fill="white" stroke="#666666" points="309,-204 215,-204 215,-185 309,-185 309,-204"/>
<text text-anchor="middle" x="262" y="-192" font-family="Helvetica,sans-Serif" font-size="10.00">TShop::PrintInfo</text>
</a>
</g>
</g>
<!-- Node2&#45;&gt;Node3 -->
<g id="edge2" class="edge">
<title>Node2&#45;&gt;Node3</title>
<path fill="none" stroke="#63b8ff" d="M169.24,-175.75C180.69,-178.09 193.12,-180.63 205.02,-183.06"/>
<polygon fill="#63b8ff" stroke="#63b8ff" points="204.37,-186.5 214.87,-185.07 205.78,-179.64 204.37,-186.5"/>
</g>
<!-- Node5 -->
<g id="node5" class="node">
<title>Node5</title>
<g id="a_node5"><a xlink:href="../../d6/de3/TestTShop_8cpp.html#a91b1072b73146edaa17d465723f7e752" target="_top" xlink:title=" ">
<polygon fill="white" stroke="#666666" points="309.5,-167 214.5,-167 214.5,-148 309.5,-148 309.5,-167"/>
<text text-anchor="middle" x="262" y="-155" font-family="Helvetica,sans-Serif" font-size="10.00">CargoShipByTag</text>
</a>
</g>
</g>
<!-- Node4&#45;&gt;Node5 -->
<g id="edge4" class="edge">
<title>Node4&#45;&gt;Node5</title>
<path fill="none" stroke="#63b8ff" d="M142.69,-111.1C158.91,-119.24 183.17,-130.91 205,-139.5 209.51,-141.28 214.28,-143.01 219.05,-144.66"/>
<polygon fill="#63b8ff" stroke="#63b8ff" points="218.17,-148.06 228.77,-147.92 220.4,-141.42 218.17,-148.06"/>
</g>
<!-- Node6 -->
<g id="node6" class="node">
<title>Node6</title>
<g id="a_node6"><a xlink:href="../../d6/de3/TestTShop_8cpp.html#a4656159259c8555e9734cbedce4e2646" target="_top" xlink:title=" ">
<polygon fill="white" stroke="#666666" points="319,-130 205,-130 205,-111 319,-111 319,-130"/>
<text text-anchor="middle" x="262" y="-118" font-family="Helvetica,sans-Serif" font-size="10.00">CargoWarShipByTag</text>
</a>
</g>
</g>
<!-- Node4&#45;&gt;Node6 -->
<g id="edge5" class="edge">
<title>Node4&#45;&gt;Node6</title>
<path fill="none" stroke="#63b8ff" d="M163.26,-106.94C173.19,-108.32 184.12,-109.84 194.98,-111.34"/>
<polygon fill="#63b8ff" stroke="#63b8ff" points="194.5,-114.81 204.89,-112.72 195.47,-107.88 194.5,-114.81"/>
</g>
<!-- Node9 -->
<g id="node9" class="node">
<title>Node9</title>
<g id="a_node9"><a xlink:href="../../d8/d51/classMyList.html#a723c00a8380b8fd0705cb286cdd179d2" target="_top" xlink:title=" ">
<polygon fill="white" stroke="#666666" points="298.5,-93 225.5,-93 225.5,-74 298.5,-74 298.5,-93"/>
<text text-anchor="middle" x="262" y="-81" font-family="Helvetica,sans-Serif" font-size="10.00">MyList::end</text>
</a>
</g>
</g>
<!-- Node4&#45;&gt;Node9 -->
<g id="edge8" class="edge">
<title>Node4&#45;&gt;Node9</title>
<path fill="none" stroke="#63b8ff" d="M163.26,-96.34C179.5,-94.21 198.44,-91.72 215.29,-89.51"/>
<polygon fill="#63b8ff" stroke="#63b8ff" points="216.02,-92.94 225.48,-88.17 215.11,-86 216.02,-92.94"/>
</g>
<!-- Node10 -->
<g id="node10" class="node">
<title>Node10</title>
<g id="a_node10"><a xlink:href="../../d8/d51/classMyList.html#ab5e189776aca91f01ee5fe930318c289" target="_top" xlink:title=" ">
<polygon fill="white" stroke="#666666" points="303.5,-56 220.5,-56 220.5,-37 303.5,-37 303.5,-56"/>
<text text-anchor="middle" x="262" y="-44" font-family="Helvetica,sans-Serif" font-size="10.00">MyList::insert</text>
</a>
</g>
</g>
<!-- Node4&#45;&gt;Node10 -->
<g id="edge9" class="edge">
<title>Node4&#45;&gt;Node10</title>
<path fill="none" stroke="#63b8ff" d="M144.09,-91.96C160.35,-84.38 183.93,-73.74 205,-65.5 210.26,-63.44 215.84,-61.39 221.37,-59.44"/>
<polygon fill="#63b8ff" stroke="#63b8ff" points="222.86,-62.63 231.17,-56.06 220.58,-56.01 222.86,-62.63"/>
</g>
<!-- Node11 -->
<g id="node11" class="node">
<title>Node11</title>
<g id="a_node11"><a xlink:href="../../d6/de3/TestTShop_8cpp.html#afff93d5bf1558a5c4f5e44394b804afb" target="_top" xlink:title=" ">
<polygon fill="white" stroke="#666666" points="305,-19 219,-19 219,0 305,0 305,-19"/>
<text text-anchor="middle" x="262" y="-7" font-family="Helvetica,sans-Serif" font-size="10.00">WarShipByTag</text>
</a>
</g>
</g>
<!-- Node4&#45;&gt;Node11 -->
<g id="edge10" class="edge">
<title>Node4&#45;&gt;Node11</title>
<path fill="none" stroke="#63b8ff" d="M132.49,-91.61C146.25,-76.12 174.95,-46.12 205,-28.5 208.59,-26.4 212.44,-24.48 216.39,-22.75"/>
<polygon fill="#63b8ff" stroke="#63b8ff" points="217.69,-26 225.68,-19.04 215.1,-19.5 217.69,-26"/>
</g>
<!-- Node7 -->
<g id="node7" class="node">
<title>Node7</title>
<g id="a_node7"><a xlink:href="../../d6/de3/TestTShop_8cpp.html#a93785f1846e55fd76f966f49a790e128" target="_top" xlink:title=" ">
<polygon fill="white" stroke="#666666" points="470,-74 355,-74 355,-55 470,-55 470,-74"/>
<text text-anchor="middle" x="412.5" y="-62" font-family="Helvetica,sans-Serif" font-size="10.00">makeWeaponHolder</text>
</a>
</g>
</g>
<!-- Node6&#45;&gt;Node7 -->
<g id="edge6" class="edge">
<title>Node6&#45;&gt;Node7</title>
<path fill="none" stroke="#63b8ff" d="M294.25,-110.94C302.35,-108.32 311.04,-105.41 319,-102.5 339.64,-94.96 362.48,-85.58 380.3,-78.04"/>
<polygon fill="#63b8ff" stroke="#63b8ff" points="381.81,-81.19 389.64,-74.05 379.07,-74.76 381.81,-81.19"/>
</g>
<!-- Node8 -->
<g id="node8" class="node">
<title>Node8</title>
<g id="a_node8"><a xlink:href="../../d6/de3/TestTShop_8cpp.html#aa640d265bfe0b60b6dcce43c1c1d0bd7" target="_top" xlink:title=" ">
<polygon fill="white" stroke="#666666" points="590,-74 506,-74 506,-55 590,-55 590,-74"/>
<text text-anchor="middle" x="548" y="-62" font-family="Helvetica,sans-Serif" font-size="10.00">weaponByTag</text>
</a>
</g>
</g>
<!-- Node7&#45;&gt;Node8 -->
<g id="edge7" class="edge">
<title>Node7&#45;&gt;Node8</title>
<path fill="none" stroke="#63b8ff" d="M470.12,-64.5C478.6,-64.5 487.32,-64.5 495.68,-64.5"/>
<polygon fill="#63b8ff" stroke="#63b8ff" points="495.69,-68 505.69,-64.5 495.69,-61 495.69,-68"/>
</g>
<!-- Node11&#45;&gt;Node7 -->
<g id="edge11" class="edge">
<title>Node11&#45;&gt;Node7</title>
<path fill="none" stroke="#63b8ff" d="M291.86,-19.02C300.61,-21.98 310.22,-25.3 319,-28.5 338.63,-35.65 360.41,-44.09 377.9,-51.01"/>
<polygon fill="#63b8ff" stroke="#63b8ff" points="377.07,-54.45 387.65,-54.89 379.65,-47.94 377.07,-54.45"/>
</g>
</g>
</svg>
        <g id="navigator" transform="translate(0 0)" fill="#404254">
                <rect fill="#f2f5e9" fill-opacity="0.5" stroke="#606060" stroke-width=".5" x="0" y="0" width="60" height="60"/>
                <use id="zoomplus" xlink:href="#zoomPlus" x="17" y="9" onmousedown="handleZoom(evt,'in')"/>
                <use id="zoomminus" xlink:href="#zoomMin" x="42" y="9" onmousedown="handleZoom(evt,'out')"/>
                <use id="reset" xlink:href="#resetDef" x="30" y="36" onmousedown="handleReset()"/>
                <g id="arrowUp" xlink:href="#dirArrow" transform="translate(30 24)" onmousedown="handlePan(0,-1)">
                  <use xlink:href="#rim" fill="#404040">
                        <set attributeName="fill" to="#808080" begin="arrowUp.mouseover" end="arrowUp.mouseout"/>
                  </use>
                  <path fill="none" stroke="white" stroke-width="1.5" d="M0,-3.0v7 M-2.5,-0.5L0,-3.0L2.5,-0.5"/>
                </g>
                <g id="arrowRight" xlink:href="#dirArrow" transform="rotate(90) translate(36 -43)" onmousedown="handlePan(1,0)">
                  <use xlink:href="#rim" fill="#404040">
                        <set attributeName="fill" to="#808080" begin="arrowRight.mouseover" end="arrowRight.mouseout"/>
                  </use>
                  <path fill="none" stroke="white" stroke-width="1.5" d="M0,-3.0v7 M-2.5,-0.5L0,-3.0L2.5,-0.5"/>
                </g>
                <g id="arrowDown" xlink:href="#dirArrow" transform="rotate(180) translate(-30 -48)" onmousedown="handlePan(0,1)">
                  <use xlink:href="#rim" fill="#404040">
                        <set attributeName="fill" to="#808080" begin="arrowDown.mouseover" end="arrowDown.mouseout"/>
                  </use>
                  <path fill="none" stroke="white" stroke-width="1.5" d="M0,-3.0v7 M-2.5,-0.5L0,-3.0L2.5,-0.5"/>
                </g>
                <g id="arrowLeft" xlink:href="#dirArrow" transform="rotate(270) translate(-36 17)" onmousedown="handlePan(-1,0)">
                  <use xlink:href="#rim" fill="#404040">
                        <set attributeName="fill" to="#808080" begin="arrowLeft.mouseover" end="arrowLeft.mouseout"/>
                  </use>
                  <path fill="none" stroke="white" stroke-width="1.5" d="M0,-3.0v7 M-2.5,-0.5L0,-3.0L2.5,-0.5"/>
                </g>
        </g>
        <svg viewBox="0 0 15 15" width="100%" height="30px" preserveAspectRatio="xMaxYMin meet">
         <g id="arrow_out" transform="scale(0.3 0.3)">
          <a xlink:href="TestTShop_8cpp_a937e13c3ba627f9a4aaa50df1b38f793_cgraph_org.svg" target="_base">
           <rect id="button" ry="5" rx="5" y="6" x="6" height="38" width="38"
                fill="#f2f5e9" fill-opacity="0.5" stroke="#606060" stroke-width="1.0"/>
           <path id="arrow"
             d="M 11.500037,31.436501 C 11.940474,20.09759 22.043105,11.32322 32.158766,21.979434 L 37.068811,17.246167 C 37.068811,17.246167 37.088388,32 37.088388,32 L 22.160133,31.978069 C 22.160133,31.978069 26.997745,27.140456 26.997745,27.140456 C 18.528582,18.264221 13.291696,25.230495 11.500037,31.436501 z"
             style="fill:#404040;"/>
          </a>
         </g>
        </svg>
</svg>
