<?xml version="1.0" encoding="UTF-8" standalone="no"?>
<!DOCTYPE svg PUBLIC "-//W3C//DTD SVG 1.1//EN"
 "http://www.w3.org/Graphics/SVG/1.1/DTD/svg11.dtd">
<!-- Generated by graphviz version 2.43.0 (0)
 -->
<!-- Title: TEST Pages: 1 -->
<!--zoomable 434 -->
<svg id="main" version="1.1" xmlns="http://www.w3.org/2000/svg" xmlns:xlink="http://www.w3.org/1999/xlink" xml:space="preserve" onload="init(evt)">
<style type="text/css"><![CDATA[
.edge:hover path { stroke: red; }
.edge:hover polygon { stroke: red; fill: red; }
]]></style>
<script type="text/javascript"><![CDATA[
var edges = document.getElementsByTagName('g');
if (edges && edges.length) {
  for (var i=0;i<edges.length;i++) {
    if (edges[i].id.substr(0,4)=='edge') {
      edges[i].setAttribute('class','edge');
    }
  }
}
]]></script>
        <defs>
                <circle id="rim" cx="0" cy="0" r="7"/>
                <circle id="rim2" cx="0" cy="0" r="3.5"/>
                <g id="zoomPlus">
                        <use xlink:href="#rim" fill="#404040">
                                <set attributeName="fill" to="#808080" begin="zoomplus.mouseover" end="zoomplus.mouseout"/>
                        </use>
                        <path d="M-4,0h8M0,-4v8" fill="none" stroke="white" stroke-width="1.5" pointer-events="none"/>
                </g>
                <g id="zoomMin">
                        <use xlink:href="#rim" fill="#404040">
                                <set attributeName="fill" to="#808080" begin="zoomminus.mouseover" end="zoomminus.mouseout"/>
                        </use>
                        <path d="M-4,0h8" fill="none" stroke="white" stroke-width="1.5" pointer-events="none"/>
                </g>
                <g id="dirArrow">
                        <path fill="none" stroke="white" stroke-width="1.5" d="M0,-3.0v7 M-2.5,-0.5L0,-3.0L2.5,-0.5"/>
                </g>
               <g id="resetDef">
                       <use xlink:href="#rim2" fill="#404040">
                               <set attributeName="fill" to="#808080" begin="reset.mouseover" end="reset.mouseout"/>
                       </use>
               </g>
        </defs>

<script type="text/javascript">
var viewWidth = 649;
var viewHeight = 434;
var sectionId = 'dynsection-12';
</script>
<script xlink:href="../../svgpan.js"/>
<svg id="graph" class="graph">
<g id="viewport">
<title>TEST</title>
<!-- Node1 -->
<g id="node1" class="node">
<title>Node1</title>
<g id="a_node1"><a xlink:title=" ">
<polygon fill="#999999" stroke="#666666" points="41,-296 0,-296 0,-277 41,-277 41,-296"/>
<text text-anchor="middle" x="20.5" y="-284" font-family="Helvetica,sans-Serif" font-size="10.00">TEST</text>
</a>
</g>
</g>
<!-- Node2 -->
<g id="node2" class="node">
<title>Node2</title>
<g id="a_node2"><a xlink:href="../../dc/de8/classTShop.html#aef476da75c7312f1d68373c4883b20b0" target="_top" xlink:title=" ">
<polygon fill="white" stroke="#666666" points="182,-315 77,-315 77,-296 182,-296 182,-315"/>
<text text-anchor="middle" x="129.5" y="-303" font-family="Helvetica,sans-Serif" font-size="10.00">TShop::AddWeight</text>
</a>
</g>
</g>
<!-- Node1&#45;&gt;Node2 -->
<g id="edge1" class="edge">
<title>Node1&#45;&gt;Node2</title>
<path fill="none" stroke="#63b8ff" d="M41.13,-289.98C48.57,-291.31 57.5,-292.89 66.77,-294.54"/>
<polygon fill="#63b8ff" stroke="#63b8ff" points="66.44,-298.04 76.9,-296.34 67.67,-291.14 66.44,-298.04"/>
</g>
<!-- Node4 -->
<g id="node4" class="node">
<title>Node4</title>
<g id="a_node4"><a xlink:href="../../d3/d81/classTCargoShip.html#aac8aa5512f4e7ea9641f3a5812cc8722" target="_top" xlink:title=" ">
<polygon fill="white" stroke="#666666" points="369,-426 219,-426 219,-407 369,-407 369,-426"/>
<text text-anchor="middle" x="294" y="-414" font-family="Helvetica,sans-Serif" font-size="10.00">TCargoShip::GetWeightNow</text>
</a>
</g>
</g>
<!-- Node1&#45;&gt;Node4 -->
<g id="edge10" class="edge">
<title>Node1&#45;&gt;Node4</title>
<path fill="none" stroke="#63b8ff" d="M35.04,-296.27C65.9,-318.06 144.48,-370.88 218,-398.5 223.54,-400.58 229.4,-402.48 235.31,-404.2"/>
<polygon fill="#63b8ff" stroke="#63b8ff" points="234.68,-407.66 245.25,-406.92 236.53,-400.9 234.68,-407.66"/>
</g>
<!-- Node10 -->
<g id="node10" class="node">
<title>Node10</title>
<g id="a_node10"><a xlink:href="../../d8/d51/classMyList.html#a80edb252c7e71107fac78c29647be513" target="_top" xlink:title=" ">
<polygon fill="white" stroke="#666666" points="175.5,-278 83.5,-278 83.5,-259 175.5,-259 175.5,-278"/>
<text text-anchor="middle" x="129.5" y="-266" font-family="Helvetica,sans-Serif" font-size="10.00">MyList::getById</text>
</a>
</g>
</g>
<!-- Node1&#45;&gt;Node10 -->
<g id="edge9" class="edge">
<title>Node1&#45;&gt;Node10</title>
<path fill="none" stroke="#63b8ff" d="M41.13,-283.2C50.27,-281.66 61.66,-279.74 73.16,-277.81"/>
<polygon fill="#63b8ff" stroke="#63b8ff" points="73.97,-281.22 83.25,-276.11 72.81,-274.32 73.97,-281.22"/>
</g>
<!-- Node11 -->
<g id="node11" class="node">
<title>Node11</title>
<g id="a_node11"><a xlink:href="../../d6/de3/TestTShop_8cpp.html#a98ee64221600db3809453989f6bf69eb" target="_top" xlink:title=" ">
<polygon fill="white" stroke="#666666" points="169.5,-112 89.5,-112 89.5,-93 169.5,-93 169.5,-112"/>
<text text-anchor="middle" x="129.5" y="-100" font-family="Helvetica,sans-Serif" font-size="10.00">MakeMission</text>
</a>
</g>
</g>
<!-- Node1&#45;&gt;Node11 -->
<g id="edge11" class="edge">
<title>Node1&#45;&gt;Node11</title>
<path fill="none" stroke="#63b8ff" d="M27.1,-276.87C44.08,-247.68 95.14,-159.86 117.65,-121.16"/>
<polygon fill="#63b8ff" stroke="#63b8ff" points="120.95,-122.44 122.95,-112.04 114.9,-118.92 120.95,-122.44"/>
</g>
<!-- Node3 -->
<g id="node3" class="node">
<title>Node3</title>
<g id="a_node3"><a xlink:href="../../d8/d51/classMyList.html#a281f359e28eb5d6014ba3405cf0e6895" target="_top" xlink:title=" ">
<polygon fill="white" stroke="#666666" points="335,-389 253,-389 253,-370 335,-370 335,-389"/>
<text text-anchor="middle" x="294" y="-377" font-family="Helvetica,sans-Serif" font-size="10.00">MyList::begin</text>
</a>
</g>
</g>
<!-- Node2&#45;&gt;Node3 -->
<g id="edge2" class="edge">
<title>Node2&#45;&gt;Node3</title>
<path fill="none" stroke="#63b8ff" d="M142.51,-315.06C158.73,-327.51 188.96,-349.14 218,-361.5 225.88,-364.85 234.51,-367.66 243.01,-369.97"/>
<polygon fill="#63b8ff" stroke="#63b8ff" points="242.34,-373.41 252.89,-372.47 244.06,-366.63 242.34,-373.41"/>
</g>
<!-- Node2&#45;&gt;Node4 -->
<g id="edge3" class="edge">
<title>Node2&#45;&gt;Node4</title>
<path fill="none" stroke="#63b8ff" d="M138.48,-315.31C156.21,-336.87 198.82,-387.38 218,-398.5 221.05,-400.27 224.26,-401.86 227.57,-403.3"/>
<polygon fill="#63b8ff" stroke="#63b8ff" points="226.52,-406.64 237.11,-406.95 229.02,-400.11 226.52,-406.64"/>
</g>
<!-- Node5 -->
<g id="node5" class="node">
<title>Node5</title>
<g id="a_node5"><a xlink:href="../../d3/d81/classTCargoShip.html#af864094175baefdf2e6f8c88a53ad716" target="_top" xlink:title=" ">
<polygon fill="white" stroke="#666666" points="370,-352 218,-352 218,-333 370,-333 370,-352"/>
<text text-anchor="middle" x="294" y="-340" font-family="Helvetica,sans-Serif" font-size="10.00">TCargoShip::GetWeightTotal</text>
</a>
</g>
</g>
<!-- Node2&#45;&gt;Node5 -->
<g id="edge4" class="edge">
<title>Node2&#45;&gt;Node5</title>
<path fill="none" stroke="#63b8ff" d="M172.35,-315.03C193.31,-319.8 218.88,-325.62 241.08,-330.68"/>
<polygon fill="#63b8ff" stroke="#63b8ff" points="240.48,-334.13 251.01,-332.94 242.04,-327.31 240.48,-334.13"/>
</g>
<!-- Node6 -->
<g id="node6" class="node">
<title>Node6</title>
<g id="a_node6"><a xlink:href="../../dc/de8/classTShop.html#a46d86376a3b839bf3299639a9bb844a7" target="_top" xlink:title=" ">
<polygon fill="white" stroke="#666666" points="341,-315 247,-315 247,-296 341,-296 341,-315"/>
<text text-anchor="middle" x="294" y="-303" font-family="Helvetica,sans-Serif" font-size="10.00">TShop::PrintInfo</text>
</a>
</g>
</g>
<!-- Node2&#45;&gt;Node6 -->
<g id="edge5" class="edge">
<title>Node2&#45;&gt;Node6</title>
<path fill="none" stroke="#63b8ff" d="M182.36,-305.5C199.68,-305.5 219.05,-305.5 236.69,-305.5"/>
<polygon fill="#63b8ff" stroke="#63b8ff" points="236.84,-309 246.84,-305.5 236.84,-302 236.84,-309"/>
</g>
<!-- Node7 -->
<g id="node7" class="node">
<title>Node7</title>
<g id="a_node7"><a xlink:href="../../dc/de8/classTShop.html#aa10e5887f689e5928cce716aa1bf9ea6" target="_top" xlink:title=" ">
<polygon fill="white" stroke="#666666" points="339,-278 249,-278 249,-259 339,-259 339,-278"/>
<text text-anchor="middle" x="294" y="-266" font-family="Helvetica,sans-Serif" font-size="10.00">TShop::ReadInt</text>
</a>
</g>
</g>
<!-- Node2&#45;&gt;Node7 -->
<g id="edge6" class="edge">
<title>Node2&#45;&gt;Node7</title>
<path fill="none" stroke="#63b8ff" d="M172.35,-295.97C193.31,-291.2 218.88,-285.38 241.08,-280.32"/>
<polygon fill="#63b8ff" stroke="#63b8ff" points="242.04,-283.69 251.01,-278.06 240.48,-276.87 242.04,-283.69"/>
</g>
<!-- Node8 -->
<g id="node8" class="node">
<title>Node8</title>
<g id="a_node8"><a xlink:href="../../d3/d81/classTCargoShip.html#a9a12a2c02b7b32f49c952f4c13e74a77" target="_top" xlink:title=" ">
<polygon fill="white" stroke="#666666" points="368.5,-241 219.5,-241 219.5,-222 368.5,-222 368.5,-241"/>
<text text-anchor="middle" x="294" y="-229" font-family="Helvetica,sans-Serif" font-size="10.00">TCargoShip::SetWeightNow</text>
</a>
</g>
</g>
<!-- Node2&#45;&gt;Node8 -->
<g id="edge7" class="edge">
<title>Node2&#45;&gt;Node8</title>
<path fill="none" stroke="#63b8ff" d="M165.06,-295.92C170.93,-293.6 176.81,-290.81 182,-287.5 201.35,-275.16 198.13,-261.97 218,-250.5 221.9,-248.25 226.07,-246.26 230.36,-244.51"/>
<polygon fill="#63b8ff" stroke="#63b8ff" points="231.72,-247.74 239.91,-241.03 229.32,-241.16 231.72,-247.74"/>
</g>
<!-- Node9 -->
<g id="node9" class="node">
<title>Node9</title>
<g id="a_node9"><a xlink:href="../../d8/d51/classMyList.html#a37366fbfd16acad1dfa69a141b339095" target="_top" xlink:title=" ">
<polygon fill="white" stroke="#666666" points="331,-204 257,-204 257,-185 331,-185 331,-204"/>
<text text-anchor="middle" x="294" y="-192" font-family="Helvetica,sans-Serif" font-size="10.00">MyList::size</text>
</a>
</g>
</g>
<!-- Node2&#45;&gt;Node9 -->
<g id="edge8" class="edge">
<title>Node2&#45;&gt;Node9</title>
<path fill="none" stroke="#63b8ff" d="M168.96,-295.92C173.68,-293.67 178.18,-290.9 182,-287.5 209.32,-263.19 189.63,-236.58 218,-213.5 226.29,-206.75 236.67,-202.37 247.05,-199.52"/>
<polygon fill="#63b8ff" stroke="#63b8ff" points="247.96,-202.9 256.92,-197.24 246.39,-196.08 247.96,-202.9"/>
</g>
<!-- Node12 -->
<g id="node12" class="node">
<title>Node12</title>
<g id="a_node12"><a xlink:href="../../d6/de3/TestTShop_8cpp.html#a91b1072b73146edaa17d465723f7e752" target="_top" xlink:title=" ">
<polygon fill="white" stroke="#666666" points="341.5,-167 246.5,-167 246.5,-148 341.5,-148 341.5,-167"/>
<text text-anchor="middle" x="294" y="-155" font-family="Helvetica,sans-Serif" font-size="10.00">CargoShipByTag</text>
</a>
</g>
</g>
<!-- Node11&#45;&gt;Node12 -->
<g id="edge12" class="edge">
<title>Node11&#45;&gt;Node12</title>
<path fill="none" stroke="#63b8ff" d="M150.65,-112.14C168.15,-120.24 194.34,-131.72 218,-139.5 224.41,-141.61 231.2,-143.58 237.98,-145.4"/>
<polygon fill="#63b8ff" stroke="#63b8ff" points="237.29,-148.84 247.85,-147.94 239.03,-142.06 237.29,-148.84"/>
</g>
<!-- Node13 -->
<g id="node13" class="node">
<title>Node13</title>
<g id="a_node13"><a xlink:href="../../d6/de3/TestTShop_8cpp.html#a4656159259c8555e9734cbedce4e2646" target="_top" xlink:title=" ">
<polygon fill="white" stroke="#666666" points="351,-130 237,-130 237,-111 351,-111 351,-130"/>
<text text-anchor="middle" x="294" y="-118" font-family="Helvetica,sans-Serif" font-size="10.00">CargoWarShipByTag</text>
</a>
</g>
</g>
<!-- Node11&#45;&gt;Node13 -->
<g id="edge13" class="edge">
<title>Node11&#45;&gt;Node13</title>
<path fill="none" stroke="#63b8ff" d="M169.84,-106.86C186.95,-108.75 207.49,-111.03 226.84,-113.17"/>
<polygon fill="#63b8ff" stroke="#63b8ff" points="226.5,-116.66 236.83,-114.28 227.27,-109.7 226.5,-116.66"/>
</g>
<!-- Node16 -->
<g id="node16" class="node">
<title>Node16</title>
<g id="a_node16"><a xlink:href="../../d8/d51/classMyList.html#a723c00a8380b8fd0705cb286cdd179d2" target="_top" xlink:title=" ">
<polygon fill="white" stroke="#666666" points="330.5,-93 257.5,-93 257.5,-74 330.5,-74 330.5,-93"/>
<text text-anchor="middle" x="294" y="-81" font-family="Helvetica,sans-Serif" font-size="10.00">MyList::end</text>
</a>
</g>
</g>
<!-- Node11&#45;&gt;Node16 -->
<g id="edge16" class="edge">
<title>Node11&#45;&gt;Node16</title>
<path fill="none" stroke="#63b8ff" d="M169.84,-97.9C193.18,-95.17 222.88,-91.7 247.26,-88.85"/>
<polygon fill="#63b8ff" stroke="#63b8ff" points="247.83,-92.31 257.35,-87.67 247.01,-85.35 247.83,-92.31"/>
</g>
<!-- Node17 -->
<g id="node17" class="node">
<title>Node17</title>
<g id="a_node17"><a xlink:href="../../d8/d51/classMyList.html#ab5e189776aca91f01ee5fe930318c289" target="_top" xlink:title=" ">
<polygon fill="white" stroke="#666666" points="335.5,-56 252.5,-56 252.5,-37 335.5,-37 335.5,-56"/>
<text text-anchor="middle" x="294" y="-44" font-family="Helvetica,sans-Serif" font-size="10.00">MyList::insert</text>
</a>
</g>
</g>
<!-- Node11&#45;&gt;Node17 -->
<g id="edge17" class="edge">
<title>Node11&#45;&gt;Node17</title>
<path fill="none" stroke="#63b8ff" d="M149.92,-92.9C167.41,-84.54 193.97,-72.53 218,-64.5 225.76,-61.9 234.1,-59.52 242.29,-57.4"/>
<polygon fill="#63b8ff" stroke="#63b8ff" points="243.3,-60.75 252.15,-54.94 241.6,-53.96 243.3,-60.75"/>
</g>
<!-- Node18 -->
<g id="node18" class="node">
<title>Node18</title>
<g id="a_node18"><a xlink:href="../../d6/de3/TestTShop_8cpp.html#afff93d5bf1558a5c4f5e44394b804afb" target="_top" xlink:title=" ">
<polygon fill="white" stroke="#666666" points="337,-19 251,-19 251,0 337,0 337,-19"/>
<text text-anchor="middle" x="294" y="-7" font-family="Helvetica,sans-Serif" font-size="10.00">WarShipByTag</text>
</a>
</g>
</g>
<!-- Node11&#45;&gt;Node18 -->
<g id="edge18" class="edge">
<title>Node11&#45;&gt;Node18</title>
<path fill="none" stroke="#63b8ff" d="M138.88,-92.8C153.35,-76.69 184.68,-44.51 218,-27.5 225.21,-23.82 233.19,-20.87 241.18,-18.52"/>
<polygon fill="#63b8ff" stroke="#63b8ff" points="242.12,-21.89 250.88,-15.94 240.32,-15.13 242.12,-21.89"/>
</g>
<!-- Node14 -->
<g id="node14" class="node">
<title>Node14</title>
<g id="a_node14"><a xlink:href="../../d6/de3/TestTShop_8cpp.html#a93785f1846e55fd76f966f49a790e128" target="_top" xlink:title=" ">
<polygon fill="white" stroke="#666666" points="521,-74 406,-74 406,-55 521,-55 521,-74"/>
<text text-anchor="middle" x="463.5" y="-62" font-family="Helvetica,sans-Serif" font-size="10.00">makeWeaponHolder</text>
</a>
</g>
</g>
<!-- Node13&#45;&gt;Node14 -->
<g id="edge14" class="edge">
<title>Node13&#45;&gt;Node14</title>
<path fill="none" stroke="#63b8ff" d="M336.93,-110.92C347.79,-108.16 359.4,-104.95 370,-101.5 390.82,-94.73 413.66,-85.61 431.44,-78.12"/>
<polygon fill="#63b8ff" stroke="#63b8ff" points="432.92,-81.29 440.75,-74.15 430.18,-74.85 432.92,-81.29"/>
</g>
<!-- Node15 -->
<g id="node15" class="node">
<title>Node15</title>
<g id="a_node15"><a xlink:href="../../d6/de3/TestTShop_8cpp.html#aa640d265bfe0b60b6dcce43c1c1d0bd7" target="_top" xlink:title=" ">
<polygon fill="white" stroke="#666666" points="641,-74 557,-74 557,-55 641,-55 641,-74"/>
<text text-anchor="middle" x="599" y="-62" font-family="Helvetica,sans-Serif" font-size="10.00">weaponByTag</text>
</a>
</g>
</g>
<!-- Node14&#45;&gt;Node15 -->
<g id="edge15" class="edge">
<title>Node14&#45;&gt;Node15</title>
<path fill="none" stroke="#63b8ff" d="M521.12,-64.5C529.6,-64.5 538.32,-64.5 546.68,-64.5"/>
<polygon fill="#63b8ff" stroke="#63b8ff" points="546.69,-68 556.69,-64.5 546.69,-61 546.69,-68"/>
</g>
<!-- Node18&#45;&gt;Node14 -->
<g id="edge19" class="edge">
<title>Node18&#45;&gt;Node14</title>
<path fill="none" stroke="#63b8ff" d="M337.34,-18.53C348.08,-21.13 359.54,-24.17 370,-27.5 391,-34.18 414.01,-43.38 431.82,-50.93"/>
<polygon fill="#63b8ff" stroke="#63b8ff" points="430.57,-54.2 441.14,-54.93 433.33,-47.77 430.57,-54.2"/>
</g>
</g>
</svg>
        <g id="navigator" transform="translate(0 0)" fill="#404254">
                <rect fill="#f2f5e9" fill-opacity="0.5" stroke="#606060" stroke-width=".5" x="0" y="0" width="60" height="60"/>
                <use id="zoomplus" xlink:href="#zoomPlus" x="17" y="9" onmousedown="handleZoom(evt,'in')"/>
                <use id="zoomminus" xlink:href="#zoomMin" x="42" y="9" onmousedown="handleZoom(evt,'out')"/>
                <use id="reset" xlink:href="#resetDef" x="30" y="36" onmousedown="handleReset()"/>
                <g id="arrowUp" xlink:href="#dirArrow" transform="translate(30 24)" onmousedown="handlePan(0,-1)">
                  <use xlink:href="#rim" fill="#404040">
                        <set attributeName="fill" to="#808080" begin="arrowUp.mouseover" end="arrowUp.mouseout"/>
                  </use>
                  <path fill="none" stroke="white" stroke-width="1.5" d="M0,-3.0v7 M-2.5,-0.5L0,-3.0L2.5,-0.5"/>
                </g>
                <g id="arrowRight" xlink:href="#dirArrow" transform="rotate(90) translate(36 -43)" onmousedown="handlePan(1,0)">
                  <use xlink:href="#rim" fill="#404040">
                        <set attributeName="fill" to="#808080" begin="arrowRight.mouseover" end="arrowRight.mouseout"/>
                  </use>
                  <path fill="none" stroke="white" stroke-width="1.5" d="M0,-3.0v7 M-2.5,-0.5L0,-3.0L2.5,-0.5"/>
                </g>
                <g id="arrowDown" xlink:href="#dirArrow" transform="rotate(180) translate(-30 -48)" onmousedown="handlePan(0,1)">
                  <use xlink:href="#rim" fill="#404040">
                        <set attributeName="fill" to="#808080" begin="arrowDown.mouseover" end="arrowDown.mouseout"/>
                  </use>
                  <path fill="none" stroke="white" stroke-width="1.5" d="M0,-3.0v7 M-2.5,-0.5L0,-3.0L2.5,-0.5"/>
                </g>
                <g id="arrowLeft" xlink:href="#dirArrow" transform="rotate(270) translate(-36 17)" onmousedown="handlePan(-1,0)">
                  <use xlink:href="#rim" fill="#404040">
                        <set attributeName="fill" to="#808080" begin="arrowLeft.mouseover" end="arrowLeft.mouseout"/>
                  </use>
                  <path fill="none" stroke="white" stroke-width="1.5" d="M0,-3.0v7 M-2.5,-0.5L0,-3.0L2.5,-0.5"/>
                </g>
        </g>
        <svg viewBox="0 0 15 15" width="100%" height="30px" preserveAspectRatio="xMaxYMin meet">
         <g id="arrow_out" transform="scale(0.3 0.3)">
          <a xlink:href="TestTShop_8cpp_a01a658afd2a6634176d0c0039f6f9a7c_cgraph_org.svg" target="_base">
           <rect id="button" ry="5" rx="5" y="6" x="6" height="38" width="38"
                fill="#f2f5e9" fill-opacity="0.5" stroke="#606060" stroke-width="1.0"/>
           <path id="arrow"
             d="M 11.500037,31.436501 C 11.940474,20.09759 22.043105,11.32322 32.158766,21.979434 L 37.068811,17.246167 C 37.068811,17.246167 37.088388,32 37.088388,32 L 22.160133,31.978069 C 22.160133,31.978069 26.997745,27.140456 26.997745,27.140456 C 18.528582,18.264221 13.291696,25.230495 11.500037,31.436501 z"
             style="fill:#404040;"/>
          </a>
         </g>
        </svg>
</svg>
