<?xml version="1.0" encoding="UTF-8" standalone="no"?>
<!DOCTYPE svg PUBLIC "-//W3C//DTD SVG 1.1//EN"
 "http://www.w3.org/Graphics/SVG/1.1/DTD/svg11.dtd">
<!-- Generated by graphviz version 2.43.0 (0)
 -->
<!-- Title: code/game/code/TPlaying.h Pages: 1 -->
<svg width="713pt" height="456pt"
 viewBox="0.00 0.00 713.00 456.00" xmlns="http://www.w3.org/2000/svg" xmlns:xlink="http://www.w3.org/1999/xlink">
<g id="graph0" class="graph" transform="scale(1 1) rotate(0) translate(4 452)">
<title>code/game/code/TPlaying.h</title>
<!-- Node1 -->
<g id="node1" class="node">
<title>Node1</title>
<g id="a_node1"><a xlink:title=" ">
<polygon fill="#999999" stroke="#666666" points="598.5,-448 447.5,-448 447.5,-429 598.5,-429 598.5,-448"/>
<text text-anchor="middle" x="523" y="-436" font-family="Helvetica,sans-Serif" font-size="10.00">code/game/code/TPlaying.h</text>
</a>
</g>
</g>
<!-- Node2 -->
<g id="node2" class="node">
<title>Node2</title>
<g id="a_node2"><a xlink:href="../../d3/dd9/TMission_8h.html" target="_top" xlink:title=" ">
<polygon fill="white" stroke="#666666" points="397.5,-393 328.5,-393 328.5,-374 397.5,-374 397.5,-393"/>
<text text-anchor="middle" x="363" y="-381" font-family="Helvetica,sans-Serif" font-size="10.00">TMission.h</text>
</a>
</g>
</g>
<!-- Node1&#45;&gt;Node2 -->
<g id="edge1" class="edge">
<title>Node1&#45;&gt;Node2</title>
<path fill="none" stroke="#63b8ff" d="M497.29,-428.98C470.55,-420.13 428.47,-406.19 398.55,-396.28"/>
<polygon fill="#63b8ff" stroke="#63b8ff" points="399.5,-392.9 388.91,-393.08 397.3,-399.55 399.5,-392.9"/>
</g>
<!-- Node6 -->
<g id="node6" class="node">
<title>Node6</title>
<g id="a_node6"><a xlink:title=" ">
<polygon fill="#e0e0e0" stroke="#999999" points="705,-79.5 647,-79.5 647,-60.5 705,-60.5 705,-79.5"/>
<text text-anchor="middle" x="676" y="-67.5" font-family="Helvetica,sans-Serif" font-size="10.00">memory</text>
</a>
</g>
</g>
<!-- Node1&#45;&gt;Node6 -->
<g id="edge29" class="edge">
<title>Node1&#45;&gt;Node6</title>
<path fill="none" stroke="#63b8ff" d="M561.41,-428.96C607.89,-416.1 680,-386.9 680,-329.5 680,-329.5 680,-329.5 680,-201 680,-161.43 678.13,-115.12 676.94,-89.83"/>
<polygon fill="#63b8ff" stroke="#63b8ff" points="680.42,-89.33 676.44,-79.51 673.43,-89.67 680.42,-89.33"/>
</g>
<!-- Node3 -->
<g id="node3" class="node">
<title>Node3</title>
<g id="a_node3"><a xlink:href="../../de/da2/TCapitanInfo_8h.html" target="_top" xlink:title=" ">
<polygon fill="white" stroke="#666666" points="288,-85 156,-85 156,-55 288,-55 288,-85"/>
<text text-anchor="start" x="164" y="-73" font-family="Helvetica,sans-Serif" font-size="10.00">../../ships/code/TCapitan</text>
<text text-anchor="middle" x="222" y="-62" font-family="Helvetica,sans-Serif" font-size="10.00">Info.h</text>
</a>
</g>
</g>
<!-- Node2&#45;&gt;Node3 -->
<g id="edge2" class="edge">
<title>Node2&#45;&gt;Node3</title>
<path fill="none" stroke="#63b8ff" d="M353.92,-373.78C337.43,-357.47 302.5,-320.58 283,-283 250.04,-219.48 232.69,-135.73 225.73,-95.13"/>
<polygon fill="#63b8ff" stroke="#63b8ff" points="229.16,-94.4 224.07,-85.1 222.25,-95.54 229.16,-94.4"/>
</g>
<!-- Node5 -->
<g id="node5" class="node">
<title>Node5</title>
<g id="a_node5"><a xlink:href="../../d8/d06/MyList_8h.html" target="_top" xlink:title=" ">
<polygon fill="white" stroke="#666666" points="613.5,-217 506.5,-217 506.5,-187 613.5,-187 613.5,-217"/>
<text text-anchor="start" x="514.5" y="-205" font-family="Helvetica,sans-Serif" font-size="10.00">../../container/code</text>
<text text-anchor="middle" x="560" y="-194" font-family="Helvetica,sans-Serif" font-size="10.00">/MyList.h</text>
</a>
</g>
</g>
<!-- Node2&#45;&gt;Node5 -->
<g id="edge4" class="edge">
<title>Node2&#45;&gt;Node5</title>
<path fill="none" stroke="#63b8ff" d="M397.58,-377.73C446.89,-368.87 535.76,-344.77 575,-283 585.77,-266.05 579.96,-243.27 572.66,-226.35"/>
<polygon fill="#63b8ff" stroke="#63b8ff" points="575.75,-224.69 568.3,-217.15 569.42,-227.69 575.75,-224.69"/>
</g>
<!-- Node2&#45;&gt;Node6 -->
<g id="edge28" class="edge">
<title>Node2&#45;&gt;Node6</title>
<path fill="none" stroke="#63b8ff" d="M397.77,-375.98C472.56,-360.95 642,-321.16 642,-269 642,-269 642,-269 642,-201 642,-159.95 658.06,-113.91 668.11,-89.14"/>
<polygon fill="#63b8ff" stroke="#63b8ff" points="671.46,-90.2 672.1,-79.62 665,-87.49 671.46,-90.2"/>
</g>
<!-- Node9 -->
<g id="node9" class="node">
<title>Node9</title>
<g id="a_node9"><a xlink:href="../../db/d87/TCargoWarShip_8h.html" target="_top" xlink:title=" ">
<polygon fill="white" stroke="#666666" points="434,-283 292,-283 292,-253 434,-253 434,-283"/>
<text text-anchor="start" x="300" y="-271" font-family="Helvetica,sans-Serif" font-size="10.00">../../ships/code/TCargoWar</text>
<text text-anchor="middle" x="363" y="-260" font-family="Helvetica,sans-Serif" font-size="10.00">Ship.h</text>
</a>
</g>
</g>
<!-- Node2&#45;&gt;Node9 -->
<g id="edge11" class="edge">
<title>Node2&#45;&gt;Node9</title>
<path fill="none" stroke="#63b8ff" d="M363,-373.97C363,-357.08 363,-318.85 363,-293.48"/>
<polygon fill="#63b8ff" stroke="#63b8ff" points="366.5,-293.18 363,-283.18 359.5,-293.18 366.5,-293.18"/>
</g>
<!-- Node16 -->
<g id="node16" class="node">
<title>Node16</title>
<g id="a_node16"><a xlink:href="../../d1/d0c/TBase_8h.html" target="_top" xlink:title=" ">
<polygon fill="white" stroke="#666666" points="132,-277.5 6,-277.5 6,-258.5 132,-258.5 132,-277.5"/>
<text text-anchor="middle" x="69" y="-265.5" font-family="Helvetica,sans-Serif" font-size="10.00">../../base/code/TBase.h</text>
</a>
</g>
</g>
<!-- Node2&#45;&gt;Node16 -->
<g id="edge21" class="edge">
<title>Node2&#45;&gt;Node16</title>
<path fill="none" stroke="#63b8ff" d="M328.44,-382.22C259.79,-380.87 109.96,-373.8 76,-338 63.46,-324.78 63.3,-303.09 65.26,-287.56"/>
<polygon fill="#63b8ff" stroke="#63b8ff" points="68.74,-287.98 66.92,-277.54 61.83,-286.84 68.74,-287.98"/>
</g>
<!-- Node17 -->
<g id="node17" class="node">
<title>Node17</title>
<g id="a_node17"><a xlink:href="../../d1/d8a/TPirateBase_8h.html" target="_top" xlink:title=" ">
<polygon fill="white" stroke="#666666" points="240.5,-338 85.5,-338 85.5,-319 240.5,-319 240.5,-338"/>
<text text-anchor="middle" x="163" y="-326" font-family="Helvetica,sans-Serif" font-size="10.00">../../base/code/TPirateBase.h</text>
</a>
</g>
</g>
<!-- Node2&#45;&gt;Node17 -->
<g id="edge23" class="edge">
<title>Node2&#45;&gt;Node17</title>
<path fill="none" stroke="#63b8ff" d="M330.87,-373.98C296.85,-364.97 243,-350.7 205.5,-340.76"/>
<polygon fill="#63b8ff" stroke="#63b8ff" points="205.95,-337.26 195.39,-338.08 204.16,-344.03 205.95,-337.26"/>
</g>
<!-- Node4 -->
<g id="node4" class="node">
<title>Node4</title>
<g id="a_node4"><a xlink:title=" ">
<polygon fill="#e0e0e0" stroke="#999999" points="291,-19 247,-19 247,0 291,0 291,-19"/>
<text text-anchor="middle" x="269" y="-7" font-family="Helvetica,sans-Serif" font-size="10.00">string</text>
</a>
</g>
</g>
<!-- Node3&#45;&gt;Node4 -->
<g id="edge3" class="edge">
<title>Node3&#45;&gt;Node4</title>
<path fill="none" stroke="#63b8ff" d="M233.38,-54.84C240.06,-46.52 248.55,-35.96 255.56,-27.23"/>
<polygon fill="#63b8ff" stroke="#63b8ff" points="258.42,-29.25 261.96,-19.27 252.97,-24.87 258.42,-29.25"/>
</g>
<!-- Node5&#45;&gt;Node6 -->
<g id="edge5" class="edge">
<title>Node5&#45;&gt;Node6</title>
<path fill="none" stroke="#63b8ff" d="M571.54,-186.91C584.87,-170.75 607.59,-143.59 628,-121 638.46,-109.42 650.64,-96.74 660.12,-87.05"/>
<polygon fill="#63b8ff" stroke="#63b8ff" points="662.83,-89.28 667.34,-79.7 657.83,-84.38 662.83,-89.28"/>
</g>
<!-- Node7 -->
<g id="node7" class="node">
<title>Node7</title>
<g id="a_node7"><a xlink:href="../../d0/d93/TShip_8h.html" target="_top" xlink:title=" ">
<polygon fill="white" stroke="#666666" points="421.5,-145.5 296.5,-145.5 296.5,-126.5 421.5,-126.5 421.5,-145.5"/>
<text text-anchor="middle" x="359" y="-133.5" font-family="Helvetica,sans-Serif" font-size="10.00">../../ships/code/TShip.h</text>
</a>
</g>
</g>
<!-- Node5&#45;&gt;Node7 -->
<g id="edge6" class="edge">
<title>Node5&#45;&gt;Node7</title>
<path fill="none" stroke="#63b8ff" d="M515.89,-186.95C479.86,-175.48 429.54,-159.46 395.69,-148.68"/>
<polygon fill="#63b8ff" stroke="#63b8ff" points="396.34,-145.22 385.75,-145.52 394.22,-151.89 396.34,-145.22"/>
</g>
<!-- Node7&#45;&gt;Node3 -->
<g id="edge9" class="edge">
<title>Node7&#45;&gt;Node3</title>
<path fill="none" stroke="#63b8ff" d="M340.52,-126.37C320.36,-116.95 287.48,-101.59 261.46,-89.43"/>
<polygon fill="#63b8ff" stroke="#63b8ff" points="262.76,-86.18 252.22,-85.12 259.8,-92.52 262.76,-86.18"/>
</g>
<!-- Node7&#45;&gt;Node4 -->
<g id="edge7" class="edge">
<title>Node7&#45;&gt;Node4</title>
<path fill="none" stroke="#63b8ff" d="M352.81,-126.44C338.11,-106.1 300.83,-54.53 281.32,-27.54"/>
<polygon fill="#63b8ff" stroke="#63b8ff" points="283.92,-25.17 275.23,-19.12 278.25,-29.27 283.92,-25.17"/>
</g>
<!-- Node7&#45;&gt;Node6 -->
<g id="edge8" class="edge">
<title>Node7&#45;&gt;Node6</title>
<path fill="none" stroke="#63b8ff" d="M421.75,-126.97C478.76,-118.92 564.87,-104.86 638,-85 640.43,-84.34 642.93,-83.59 645.43,-82.79"/>
<polygon fill="#63b8ff" stroke="#63b8ff" points="646.6,-86.09 654.91,-79.52 644.31,-79.47 646.6,-86.09"/>
</g>
<!-- Node8 -->
<g id="node8" class="node">
<title>Node8</title>
<g id="a_node8"><a xlink:href="../../dc/d06/TObjectOnMap_8h.html" target="_top" xlink:title=" ">
<polygon fill="white" stroke="#666666" points="138,-85 0,-85 0,-55 138,-55 138,-85"/>
<text text-anchor="start" x="8" y="-73" font-family="Helvetica,sans-Serif" font-size="10.00">../../base/code/TObjectOn</text>
<text text-anchor="middle" x="69" y="-62" font-family="Helvetica,sans-Serif" font-size="10.00">Map.h</text>
</a>
</g>
</g>
<!-- Node7&#45;&gt;Node8 -->
<g id="edge10" class="edge">
<title>Node7&#45;&gt;Node8</title>
<path fill="none" stroke="#63b8ff" d="M320.19,-126.44C274.91,-116.44 199.04,-99.7 142.51,-87.22"/>
<polygon fill="#63b8ff" stroke="#63b8ff" points="143.07,-83.76 132.55,-85.02 141.56,-90.6 143.07,-83.76"/>
</g>
<!-- Node10 -->
<g id="node10" class="node">
<title>Node10</title>
<g id="a_node10"><a xlink:href="../../d0/d2a/TWarShip_8h.html" target="_top" xlink:title=" ">
<polygon fill="white" stroke="#666666" points="488.5,-211.5 417.5,-211.5 417.5,-192.5 488.5,-192.5 488.5,-211.5"/>
<text text-anchor="middle" x="453" y="-199.5" font-family="Helvetica,sans-Serif" font-size="10.00">TWarShip.h</text>
</a>
</g>
</g>
<!-- Node9&#45;&gt;Node10 -->
<g id="edge12" class="edge">
<title>Node9&#45;&gt;Node10</title>
<path fill="none" stroke="#63b8ff" d="M382.97,-252.8C397.64,-242.37 417.51,-228.24 432.34,-217.69"/>
<polygon fill="#63b8ff" stroke="#63b8ff" points="434.7,-220.31 440.82,-211.66 430.65,-214.6 434.7,-220.31"/>
</g>
<!-- Node15 -->
<g id="node15" class="node">
<title>Node15</title>
<g id="a_node15"><a xlink:href="../../d3/d7f/TCargoShip_8h.html" target="_top" xlink:title=" ">
<polygon fill="white" stroke="#666666" points="399,-211.5 319,-211.5 319,-192.5 399,-192.5 399,-211.5"/>
<text text-anchor="middle" x="359" y="-199.5" font-family="Helvetica,sans-Serif" font-size="10.00">TCargoShip.h</text>
</a>
</g>
</g>
<!-- Node9&#45;&gt;Node15 -->
<g id="edge19" class="edge">
<title>Node9&#45;&gt;Node15</title>
<path fill="none" stroke="#63b8ff" d="M362.11,-252.8C361.54,-243.7 360.8,-231.79 360.18,-221.9"/>
<polygon fill="#63b8ff" stroke="#63b8ff" points="363.67,-221.61 359.55,-211.84 356.68,-222.04 363.67,-221.61"/>
</g>
<!-- Node10&#45;&gt;Node7 -->
<g id="edge18" class="edge">
<title>Node10&#45;&gt;Node7</title>
<path fill="none" stroke="#63b8ff" d="M440.32,-192.37C424.91,-181.87 398.65,-164 380.15,-151.4"/>
<polygon fill="#63b8ff" stroke="#63b8ff" points="382.01,-148.43 371.78,-145.7 378.07,-154.22 382.01,-148.43"/>
</g>
<!-- Node11 -->
<g id="node11" class="node">
<title>Node11</title>
<g id="a_node11"><a xlink:href="../../dc/d2c/TWeaponHolder_8h.html" target="_top" xlink:title=" ">
<polygon fill="white" stroke="#666666" points="575.5,-151 470.5,-151 470.5,-121 575.5,-121 575.5,-151"/>
<text text-anchor="start" x="478.5" y="-139" font-family="Helvetica,sans-Serif" font-size="10.00">../../weapons/code</text>
<text text-anchor="middle" x="523" y="-128" font-family="Helvetica,sans-Serif" font-size="10.00">/TWeaponHolder.h</text>
</a>
</g>
</g>
<!-- Node10&#45;&gt;Node11 -->
<g id="edge13" class="edge">
<title>Node10&#45;&gt;Node11</title>
<path fill="none" stroke="#63b8ff" d="M462.44,-192.37C472.02,-183.61 487.22,-169.71 499.99,-158.04"/>
<polygon fill="#63b8ff" stroke="#63b8ff" points="502.54,-160.45 507.56,-151.12 497.82,-155.28 502.54,-160.45"/>
</g>
<!-- Node11&#45;&gt;Node6 -->
<g id="edge14" class="edge">
<title>Node11&#45;&gt;Node6</title>
<path fill="none" stroke="#63b8ff" d="M556.58,-120.95C583.41,-109.73 620.66,-94.15 646.39,-83.39"/>
<polygon fill="#63b8ff" stroke="#63b8ff" points="647.76,-86.61 655.64,-79.52 645.06,-80.15 647.76,-86.61"/>
</g>
<!-- Node12 -->
<g id="node12" class="node">
<title>Node12</title>
<g id="a_node12"><a xlink:title=" ">
<polygon fill="#e0e0e0" stroke="#999999" points="628.5,-79.5 581.5,-79.5 581.5,-60.5 628.5,-60.5 628.5,-79.5"/>
<text text-anchor="middle" x="605" y="-67.5" font-family="Helvetica,sans-Serif" font-size="10.00">vector</text>
</a>
</g>
</g>
<!-- Node11&#45;&gt;Node12 -->
<g id="edge15" class="edge">
<title>Node11&#45;&gt;Node12</title>
<path fill="none" stroke="#63b8ff" d="M541.2,-120.8C554.36,-110.53 572.11,-96.67 585.55,-86.18"/>
<polygon fill="#63b8ff" stroke="#63b8ff" points="587.94,-88.76 593.67,-79.84 583.63,-83.24 587.94,-88.76"/>
</g>
<!-- Node13 -->
<g id="node13" class="node">
<title>Node13</title>
<g id="a_node13"><a xlink:href="../../d8/d66/enum__place__on__ship_8h.html" target="_top" xlink:title=" ">
<polygon fill="white" stroke="#666666" points="474,-85 344,-85 344,-55 474,-55 474,-85"/>
<text text-anchor="start" x="352" y="-73" font-family="Helvetica,sans-Serif" font-size="10.00">../../enums/enum_place</text>
<text text-anchor="middle" x="409" y="-62" font-family="Helvetica,sans-Serif" font-size="10.00">_on_ship.h</text>
</a>
</g>
</g>
<!-- Node11&#45;&gt;Node13 -->
<g id="edge16" class="edge">
<title>Node11&#45;&gt;Node13</title>
<path fill="none" stroke="#63b8ff" d="M497.98,-120.95C481.8,-111.87 460.52,-99.93 442.84,-90"/>
<polygon fill="#63b8ff" stroke="#63b8ff" points="444.39,-86.86 433.96,-85.01 440.97,-92.96 444.39,-86.86"/>
</g>
<!-- Node14 -->
<g id="node14" class="node">
<title>Node14</title>
<g id="a_node14"><a xlink:href="../../d0/df8/TWeapon_8h.html" target="_top" xlink:title=" ">
<polygon fill="white" stroke="#666666" points="563.5,-79.5 492.5,-79.5 492.5,-60.5 563.5,-60.5 563.5,-79.5"/>
<text text-anchor="middle" x="528" y="-67.5" font-family="Helvetica,sans-Serif" font-size="10.00">TWeapon.h</text>
</a>
</g>
</g>
<!-- Node11&#45;&gt;Node14 -->
<g id="edge17" class="edge">
<title>Node11&#45;&gt;Node14</title>
<path fill="none" stroke="#63b8ff" d="M524.11,-120.8C524.82,-111.7 525.75,-99.79 526.52,-89.9"/>
<polygon fill="#63b8ff" stroke="#63b8ff" points="530.02,-90.09 527.31,-79.84 523.04,-89.54 530.02,-90.09"/>
</g>
<!-- Node15&#45;&gt;Node7 -->
<g id="edge20" class="edge">
<title>Node15&#45;&gt;Node7</title>
<path fill="none" stroke="#63b8ff" d="M359,-192.37C359,-183.16 359,-168.29 359,-156.27"/>
<polygon fill="#63b8ff" stroke="#63b8ff" points="362.5,-155.91 359,-145.91 355.5,-155.91 362.5,-155.91"/>
</g>
<!-- Node16&#45;&gt;Node8 -->
<g id="edge22" class="edge">
<title>Node16&#45;&gt;Node8</title>
<path fill="none" stroke="#63b8ff" d="M69,-258.33C69,-229.91 69,-138.97 69,-95.11"/>
<polygon fill="#63b8ff" stroke="#63b8ff" points="72.5,-95.04 69,-85.04 65.5,-95.04 72.5,-95.04"/>
</g>
<!-- Node17&#45;&gt;Node16 -->
<g id="edge24" class="edge">
<title>Node17&#45;&gt;Node16</title>
<path fill="none" stroke="#63b8ff" d="M149.13,-318.87C134,-309.45 109.54,-294.23 91.62,-283.08"/>
<polygon fill="#63b8ff" stroke="#63b8ff" points="93.27,-279.98 82.93,-277.67 89.57,-285.92 93.27,-279.98"/>
</g>
<!-- Node18 -->
<g id="node18" class="node">
<title>Node18</title>
<g id="a_node18"><a xlink:href="../../dc/d2f/TSpawnDescriptor_8h.html" target="_top" xlink:title=" ">
<polygon fill="white" stroke="#666666" points="565.5,-277.5 452.5,-277.5 452.5,-258.5 565.5,-258.5 565.5,-277.5"/>
<text text-anchor="middle" x="509" y="-265.5" font-family="Helvetica,sans-Serif" font-size="10.00">TSpawnDescriptor.h</text>
</a>
</g>
</g>
<!-- Node17&#45;&gt;Node18 -->
<g id="edge25" class="edge">
<title>Node17&#45;&gt;Node18</title>
<path fill="none" stroke="#63b8ff" d="M222.42,-318.96C279.2,-310.59 367.14,-297.06 443,-283 448.68,-281.95 454.62,-280.78 460.52,-279.58"/>
<polygon fill="#63b8ff" stroke="#63b8ff" points="461.24,-283 470.33,-277.55 459.83,-276.15 461.24,-283"/>
</g>
<!-- Node18&#45;&gt;Node5 -->
<g id="edge27" class="edge">
<title>Node18&#45;&gt;Node5</title>
<path fill="none" stroke="#63b8ff" d="M515.88,-258.37C522.62,-249.91 533.17,-236.67 542.27,-225.25"/>
<polygon fill="#63b8ff" stroke="#63b8ff" points="545.06,-227.36 548.56,-217.36 539.59,-223 545.06,-227.36"/>
</g>
<!-- Node18&#45;&gt;Node10 -->
<g id="edge26" class="edge">
<title>Node18&#45;&gt;Node10</title>
<path fill="none" stroke="#63b8ff" d="M501.45,-258.37C492.81,-248.5 478.47,-232.11 467.63,-219.72"/>
<polygon fill="#63b8ff" stroke="#63b8ff" points="470.01,-217.13 460.79,-211.91 464.74,-221.74 470.01,-217.13"/>
</g>
</g>
</svg>
