<?xml version="1.0" encoding="UTF-8" standalone="no"?>
<!DOCTYPE svg PUBLIC "-//W3C//DTD SVG 1.1//EN"
 "http://www.w3.org/Graphics/SVG/1.1/DTD/svg11.dtd">
<!-- Generated by graphviz version 2.43.0 (0)
 -->
<!-- Title: operator== Pages: 1 -->
<svg width="274pt" height="138pt"
 viewBox="0.00 0.00 274.00 138.00" xmlns="http://www.w3.org/2000/svg" xmlns:xlink="http://www.w3.org/1999/xlink">
<g id="graph0" class="graph" transform="scale(1 1) rotate(0) translate(4 134)">
<title>operator==</title>
<!-- Node1 -->
<g id="node1" class="node">
<title>Node1</title>
<g id="a_node1"><a xlink:title=" ">
<polygon fill="#999999" stroke="#666666" points="74,-74 0,-74 0,-55 74,-55 74,-74"/>
<text text-anchor="middle" x="37" y="-62" font-family="Helvetica,sans-Serif" font-size="10.00">operator==</text>
</a>
</g>
</g>
<!-- Node2 -->
<g id="node2" class="node">
<title>Node2</title>
<g id="a_node2"><a xlink:href="../../dd/dec/classTCapitanInfo.html#a3e350a78182703dc8c7edd38cfa92759" target="_top" xlink:title=" ">
<polygon fill="white" stroke="#666666" points="253.5,-130 122.5,-130 122.5,-111 253.5,-111 253.5,-130"/>
<text text-anchor="middle" x="188" y="-118" font-family="Helvetica,sans-Serif" font-size="10.00">TCapitanInfo::GetName</text>
</a>
</g>
</g>
<!-- Node1&#45;&gt;Node2 -->
<g id="edge1" class="edge">
<title>Node1&#45;&gt;Node2</title>
<path fill="none" stroke="#63b8ff" d="M53.47,-74.16C67.7,-82.68 89.61,-94.88 110,-102.5 115.6,-104.59 121.53,-106.5 127.5,-108.21"/>
<polygon fill="#63b8ff" stroke="#63b8ff" points="126.99,-111.7 137.56,-110.92 128.82,-104.94 126.99,-111.7"/>
</g>
<!-- Node3 -->
<g id="node3" class="node">
<title>Node3</title>
<g id="a_node3"><a xlink:href="../../dd/dec/classTCapitanInfo.html#abb3d3666807fc7975f86dc112be2d030" target="_top" xlink:title=" ">
<polygon fill="white" stroke="#666666" points="266,-93 110,-93 110,-74 266,-74 266,-93"/>
<text text-anchor="middle" x="188" y="-81" font-family="Helvetica,sans-Serif" font-size="10.00">TCapitanInfo::GetPatronymic</text>
</a>
</g>
</g>
<!-- Node1&#45;&gt;Node3 -->
<g id="edge2" class="edge">
<title>Node1&#45;&gt;Node3</title>
<path fill="none" stroke="#63b8ff" d="M74.07,-69.1C82.79,-70.21 92.48,-71.45 102.41,-72.71"/>
<polygon fill="#63b8ff" stroke="#63b8ff" points="102.03,-76.19 112.39,-73.99 102.92,-69.25 102.03,-76.19"/>
</g>
<!-- Node4 -->
<g id="node4" class="node">
<title>Node4</title>
<g id="a_node4"><a xlink:href="../../dd/dec/classTCapitanInfo.html#a8af2832e9b6d76b78d8b8854638d1e20" target="_top" xlink:title=" ">
<polygon fill="white" stroke="#666666" points="251,-56 125,-56 125,-37 251,-37 251,-56"/>
<text text-anchor="middle" x="188" y="-44" font-family="Helvetica,sans-Serif" font-size="10.00">TCapitanInfo::GetRank</text>
</a>
</g>
</g>
<!-- Node1&#45;&gt;Node4 -->
<g id="edge3" class="edge">
<title>Node1&#45;&gt;Node4</title>
<path fill="none" stroke="#63b8ff" d="M74.07,-60.14C86.34,-58.66 100.52,-56.95 114.6,-55.25"/>
<polygon fill="#63b8ff" stroke="#63b8ff" points="115.3,-58.69 124.81,-54.01 114.46,-51.74 115.3,-58.69"/>
</g>
<!-- Node5 -->
<g id="node5" class="node">
<title>Node5</title>
<g id="a_node5"><a xlink:href="../../dd/dec/classTCapitanInfo.html#a8ac0adc0e114f2a62d2b17b52b8a3ad9" target="_top" xlink:title=" ">
<polygon fill="white" stroke="#666666" points="260.5,-19 115.5,-19 115.5,0 260.5,0 260.5,-19"/>
<text text-anchor="middle" x="188" y="-7" font-family="Helvetica,sans-Serif" font-size="10.00">TCapitanInfo::GetSurname</text>
</a>
</g>
</g>
<!-- Node1&#45;&gt;Node5 -->
<g id="edge4" class="edge">
<title>Node1&#45;&gt;Node5</title>
<path fill="none" stroke="#63b8ff" d="M54.41,-54.98C68.71,-47.01 90.2,-35.79 110,-28.5 116.84,-25.98 124.14,-23.69 131.43,-21.64"/>
<polygon fill="#63b8ff" stroke="#63b8ff" points="132.54,-24.97 141.3,-19 130.74,-18.21 132.54,-24.97"/>
</g>
</g>
</svg>
