<?xml version="1.0" encoding="UTF-8" standalone="no"?>
<!DOCTYPE svg PUBLIC "-//W3C//DTD SVG 1.1//EN"
 "http://www.w3.org/Graphics/SVG/1.1/DTD/svg11.dtd">
<!-- Generated by graphviz version 2.43.0 (0)
 -->
<!-- Title: TEST Pages: 1 -->
<svg width="240pt" height="138pt"
 viewBox="0.00 0.00 240.00 138.00" xmlns="http://www.w3.org/2000/svg" xmlns:xlink="http://www.w3.org/1999/xlink">
<g id="graph0" class="graph" transform="scale(1 1) rotate(0) translate(4 134)">
<title>TEST</title>
<!-- Node1 -->
<g id="node1" class="node">
<title>Node1</title>
<g id="a_node1"><a xlink:title=" ">
<polygon fill="#999999" stroke="#666666" points="41,-74 0,-74 0,-55 41,-55 41,-74"/>
<text text-anchor="middle" x="20.5" y="-62" font-family="Helvetica,sans-Serif" font-size="10.00">TEST</text>
</a>
</g>
</g>
<!-- Node2 -->
<g id="node2" class="node">
<title>Node2</title>
<g id="a_node2"><a xlink:href="../../dd/dec/classTCapitanInfo.html#ab95b1bd2f37f231287e3a56a542bc9b1" target="_top" xlink:title=" ">
<polygon fill="white" stroke="#666666" points="219,-130 90,-130 90,-111 219,-111 219,-130"/>
<text text-anchor="middle" x="154.5" y="-118" font-family="Helvetica,sans-Serif" font-size="10.00">TCapitanInfo::SetName</text>
</a>
</g>
</g>
<!-- Node1&#45;&gt;Node2 -->
<g id="edge1" class="edge">
<title>Node1&#45;&gt;Node2</title>
<path fill="none" stroke="#63b8ff" d="M33.08,-74.33C43.81,-82.96 60.55,-95.24 77,-102.5 81.64,-104.55 86.54,-106.38 91.54,-108.02"/>
<polygon fill="#63b8ff" stroke="#63b8ff" points="90.63,-111.4 101.21,-110.93 92.65,-104.7 90.63,-111.4"/>
</g>
<!-- Node3 -->
<g id="node3" class="node">
<title>Node3</title>
<g id="a_node3"><a xlink:href="../../dd/dec/classTCapitanInfo.html#a5fc94c21b4236f9811714079a6d8342f" target="_top" xlink:title=" ">
<polygon fill="white" stroke="#666666" points="232,-93 77,-93 77,-74 232,-74 232,-93"/>
<text text-anchor="middle" x="154.5" y="-81" font-family="Helvetica,sans-Serif" font-size="10.00">TCapitanInfo::SetPatronymic</text>
</a>
</g>
</g>
<!-- Node1&#45;&gt;Node3 -->
<g id="edge2" class="edge">
<title>Node1&#45;&gt;Node3</title>
<path fill="none" stroke="#63b8ff" d="M41.26,-67.34C51.18,-68.77 63.89,-70.6 77.17,-72.51"/>
<polygon fill="#63b8ff" stroke="#63b8ff" points="77.01,-76.03 87.41,-73.99 78.01,-69.1 77.01,-76.03"/>
</g>
<!-- Node4 -->
<g id="node4" class="node">
<title>Node4</title>
<g id="a_node4"><a xlink:href="../../dd/dec/classTCapitanInfo.html#a5394c0484738d17b833d3dff3b4258d7" target="_top" xlink:title=" ">
<polygon fill="white" stroke="#666666" points="217,-56 92,-56 92,-37 217,-37 217,-56"/>
<text text-anchor="middle" x="154.5" y="-44" font-family="Helvetica,sans-Serif" font-size="10.00">TCapitanInfo::SetRank</text>
</a>
</g>
</g>
<!-- Node1&#45;&gt;Node4 -->
<g id="edge3" class="edge">
<title>Node1&#45;&gt;Node4</title>
<path fill="none" stroke="#63b8ff" d="M41.26,-61.81C52.25,-60.31 66.67,-58.34 81.5,-56.32"/>
<polygon fill="#63b8ff" stroke="#63b8ff" points="82.36,-59.73 91.79,-54.91 81.41,-52.8 82.36,-59.73"/>
</g>
<!-- Node5 -->
<g id="node5" class="node">
<title>Node5</title>
<g id="a_node5"><a xlink:href="../../dd/dec/classTCapitanInfo.html#a70c8b06658a126ff78da1bce960671c0" target="_top" xlink:title=" ">
<polygon fill="white" stroke="#666666" points="226,-19 83,-19 83,0 226,0 226,-19"/>
<text text-anchor="middle" x="154.5" y="-7" font-family="Helvetica,sans-Serif" font-size="10.00">TCapitanInfo::SetSurname</text>
</a>
</g>
</g>
<!-- Node1&#45;&gt;Node5 -->
<g id="edge4" class="edge">
<title>Node1&#45;&gt;Node5</title>
<path fill="none" stroke="#63b8ff" d="M33.61,-54.94C44.42,-46.84 60.99,-35.45 77,-28.5 82.68,-26.03 88.75,-23.84 94.89,-21.91"/>
<polygon fill="#63b8ff" stroke="#63b8ff" points="95.93,-25.26 104.54,-19.09 93.96,-18.54 95.93,-25.26"/>
</g>
</g>
</svg>
