<?xml version="1.0" encoding="UTF-8" standalone="no"?>
<!DOCTYPE svg PUBLIC "-//W3C//DTD SVG 1.1//EN"
 "http://www.w3.org/Graphics/SVG/1.1/DTD/svg11.dtd">
<!-- Generated by graphviz version 2.43.0 (0)
 -->
<!-- Title: game/code/TLevelSelector.cpp Pages: 1 -->
<!--zoomable 511 -->
<svg id="main" version="1.1" xmlns="http://www.w3.org/2000/svg" xmlns:xlink="http://www.w3.org/1999/xlink" xml:space="preserve" onload="init(evt)">
<style type="text/css"><![CDATA[
.edge:hover path { stroke: red; }
.edge:hover polygon { stroke: red; fill: red; }
]]></style>
<script type="text/javascript"><![CDATA[
var edges = document.getElementsByTagName('g');
if (edges && edges.length) {
  for (var i=0;i<edges.length;i++) {
    if (edges[i].id.substr(0,4)=='edge') {
      edges[i].setAttribute('class','edge');
    }
  }
}
]]></script>
        <defs>
                <circle id="rim" cx="0" cy="0" r="7"/>
                <circle id="rim2" cx="0" cy="0" r="3.5"/>
                <g id="zoomPlus">
                        <use xlink:href="#rim" fill="#404040">
                                <set attributeName="fill" to="#808080" begin="zoomplus.mouseover" end="zoomplus.mouseout"/>
                        </use>
                        <path d="M-4,0h8M0,-4v8" fill="none" stroke="white" stroke-width="1.5" pointer-events="none"/>
                </g>
                <g id="zoomMin">
                        <use xlink:href="#rim" fill="#404040">
                                <set attributeName="fill" to="#808080" begin="zoomminus.mouseover" end="zoomminus.mouseout"/>
                        </use>
                        <path d="M-4,0h8" fill="none" stroke="white" stroke-width="1.5" pointer-events="none"/>
                </g>
                <g id="dirArrow">
                        <path fill="none" stroke="white" stroke-width="1.5" d="M0,-3.0v7 M-2.5,-0.5L0,-3.0L2.5,-0.5"/>
                </g>
               <g id="resetDef">
                       <use xlink:href="#rim2" fill="#404040">
                               <set attributeName="fill" to="#808080" begin="reset.mouseover" end="reset.mouseout"/>
                       </use>
               </g>
        </defs>

<script type="text/javascript">
var viewWidth = 985;
var viewHeight = 511;
var sectionId = 'dynsection-0';
</script>
<script xlink:href="../../svgpan.js"/>
<svg id="graph" class="graph">
<g id="viewport">
<title>game/code/TLevelSelector.cpp</title>
<!-- Node1 -->
<g id="node1" class="node">
<title>Node1</title>
<g id="a_node1"><a xlink:title=" ">
<polygon fill="#999999" stroke="#666666" points="901.57,-503 736.57,-503 736.57,-484 901.57,-484 901.57,-503"/>
<text text-anchor="middle" x="819.07" y="-491" font-family="Helvetica,sans-Serif" font-size="10.00">game/code/TLevelSelector.cpp</text>
</a>
</g>
</g>
<!-- Node2 -->
<g id="node2" class="node">
<title>Node2</title>
<g id="a_node2"><a xlink:href="../../d1/d77/TLevelSelector_8h.html" target="_top" xlink:title=" ">
<polygon fill="white" stroke="#666666" points="754.57,-448 657.57,-448 657.57,-429 754.57,-429 754.57,-448"/>
<text text-anchor="middle" x="706.07" y="-436" font-family="Helvetica,sans-Serif" font-size="10.00">TLevelSelector.h</text>
</a>
</g>
</g>
<!-- Node1&#45;&gt;Node2 -->
<g id="edge1" class="edge">
<title>Node1&#45;&gt;Node2</title>
<path fill="none" stroke="#63b8ff" d="M800.92,-483.98C782.82,-475.5 754.79,-462.35 733.89,-452.54"/>
<polygon fill="#63b8ff" stroke="#63b8ff" points="735.1,-449.25 724.56,-448.17 732.13,-455.59 735.1,-449.25"/>
</g>
<!-- Node5 -->
<g id="node5" class="node">
<title>Node5</title>
<g id="a_node5"><a xlink:title=" ">
<polygon fill="#e0e0e0" stroke="#999999" points="421.07,-19 377.07,-19 377.07,0 421.07,0 421.07,-19"/>
<text text-anchor="middle" x="399.07" y="-7" font-family="Helvetica,sans-Serif" font-size="10.00">string</text>
</a>
</g>
</g>
<!-- Node1&#45;&gt;Node5 -->
<g id="edge36" class="edge">
<title>Node1&#45;&gt;Node5</title>
<path fill="none" stroke="#63b8ff" d="M736.24,-490.13C528.53,-483.09 2.07,-458 2.07,-384.5 2.07,-384.5 2.07,-384.5 2.07,-135 2.07,-98.46 -6.22,-79.3 21.07,-55 46.75,-32.14 280.4,-17.04 366.99,-12.19"/>
<polygon fill="#63b8ff" stroke="#63b8ff" points="367.24,-15.68 377.03,-11.64 366.85,-8.69 367.24,-15.68"/>
</g>
<!-- Node20 -->
<g id="node20" class="node">
<title>Node20</title>
<g id="a_node20"><a xlink:title=" ">
<polygon fill="#e0e0e0" stroke="#999999" points="915.07,-393 855.07,-393 855.07,-374 915.07,-374 915.07,-393"/>
<text text-anchor="middle" x="885.07" y="-381" font-family="Helvetica,sans-Serif" font-size="10.00">iostream</text>
</a>
</g>
</g>
<!-- Node1&#45;&gt;Node20 -->
<g id="edge37" class="edge">
<title>Node1&#45;&gt;Node20</title>
<path fill="none" stroke="#63b8ff" d="M835.01,-483.95C847.69,-476.27 864.81,-463.78 874.07,-448 881.96,-434.57 884.52,-416.97 885.22,-403.7"/>
<polygon fill="#63b8ff" stroke="#63b8ff" points="888.73,-403.45 885.44,-393.38 881.73,-403.3 888.73,-403.45"/>
</g>
<!-- Node21 -->
<g id="node21" class="node">
<title>Node21</title>
<g id="a_node21"><a xlink:href="../../d3/d32/TLevelReader_8h.html" target="_top" xlink:title=" ">
<polygon fill="white" stroke="#666666" points="865.07,-448 773.07,-448 773.07,-429 865.07,-429 865.07,-448"/>
<text text-anchor="middle" x="819.07" y="-436" font-family="Helvetica,sans-Serif" font-size="10.00">TLevelReader.h</text>
</a>
</g>
</g>
<!-- Node1&#45;&gt;Node21 -->
<g id="edge32" class="edge">
<title>Node1&#45;&gt;Node21</title>
<path fill="none" stroke="#63b8ff" d="M819.07,-483.75C819.07,-476.8 819.07,-466.85 819.07,-458.13"/>
<polygon fill="#63b8ff" stroke="#63b8ff" points="822.57,-458.09 819.07,-448.09 815.57,-458.09 822.57,-458.09"/>
</g>
<!-- Node22 -->
<g id="node22" class="node">
<title>Node22</title>
<g id="a_node22"><a xlink:title=" ">
<polygon fill="#e0e0e0" stroke="#999999" points="976.57,-448 921.57,-448 921.57,-429 976.57,-429 976.57,-448"/>
<text text-anchor="middle" x="949.07" y="-436" font-family="Helvetica,sans-Serif" font-size="10.00">fstream</text>
</a>
</g>
</g>
<!-- Node1&#45;&gt;Node22 -->
<g id="edge38" class="edge">
<title>Node1&#45;&gt;Node22</title>
<path fill="none" stroke="#63b8ff" d="M839.96,-483.98C861.16,-475.34 894.2,-461.87 918.37,-452.02"/>
<polygon fill="#63b8ff" stroke="#63b8ff" points="919.87,-455.19 927.81,-448.17 917.23,-448.7 919.87,-455.19"/>
</g>
<!-- Node3 -->
<g id="node3" class="node">
<title>Node3</title>
<g id="a_node3"><a xlink:href="../../d3/dd9/TMission_8h.html" target="_top" xlink:title=" ">
<polygon fill="white" stroke="#666666" points="720.57,-393 651.57,-393 651.57,-374 720.57,-374 720.57,-393"/>
<text text-anchor="middle" x="686.07" y="-381" font-family="Helvetica,sans-Serif" font-size="10.00">TMission.h</text>
</a>
</g>
</g>
<!-- Node2&#45;&gt;Node3 -->
<g id="edge2" class="edge">
<title>Node2&#45;&gt;Node3</title>
<path fill="none" stroke="#63b8ff" d="M702.77,-428.75C700.09,-421.65 696.23,-411.4 692.89,-402.56"/>
<polygon fill="#63b8ff" stroke="#63b8ff" points="696.12,-401.21 689.31,-393.09 689.57,-403.68 696.12,-401.21"/>
</g>
<!-- Node7 -->
<g id="node7" class="node">
<title>Node7</title>
<g id="a_node7"><a xlink:title=" ">
<polygon fill="#e0e0e0" stroke="#999999" points="758.07,-79.5 700.07,-79.5 700.07,-60.5 758.07,-60.5 758.07,-79.5"/>
<text text-anchor="middle" x="729.07" y="-67.5" font-family="Helvetica,sans-Serif" font-size="10.00">memory</text>
</a>
</g>
</g>
<!-- Node2&#45;&gt;Node7 -->
<g id="edge30" class="edge">
<title>Node2&#45;&gt;Node7</title>
<path fill="none" stroke="#63b8ff" d="M719.41,-428.88C742.87,-412.56 789.07,-374.67 789.07,-329.5 789.07,-329.5 789.07,-329.5 789.07,-201 789.07,-156.7 759.99,-111.07 742.32,-87.44"/>
<polygon fill="#63b8ff" stroke="#63b8ff" points="745.08,-85.28 736.19,-79.5 739.54,-89.56 745.08,-85.28"/>
</g>
<!-- Node2&#45;&gt;Node20 -->
<g id="edge31" class="edge">
<title>Node2&#45;&gt;Node20</title>
<path fill="none" stroke="#63b8ff" d="M734.83,-428.98C765.02,-420.05 812.65,-405.94 846.17,-396.02"/>
<polygon fill="#63b8ff" stroke="#63b8ff" points="847.49,-399.28 856.09,-393.08 845.51,-392.57 847.49,-399.28"/>
</g>
<!-- Node4 -->
<g id="node4" class="node">
<title>Node4</title>
<g id="a_node4"><a xlink:href="../../de/da2/TCapitanInfo_8h.html" target="_top" xlink:title=" ">
<polygon fill="white" stroke="#666666" points="465.07,-85 333.07,-85 333.07,-55 465.07,-55 465.07,-85"/>
<text text-anchor="start" x="341.07" y="-73" font-family="Helvetica,sans-Serif" font-size="10.00">../../ships/code/TCapitan</text>
<text text-anchor="middle" x="399.07" y="-62" font-family="Helvetica,sans-Serif" font-size="10.00">Info.h</text>
</a>
</g>
</g>
<!-- Node3&#45;&gt;Node4 -->
<g id="edge3" class="edge">
<title>Node3&#45;&gt;Node4</title>
<path fill="none" stroke="#63b8ff" d="M651.37,-381.13C546.35,-376.06 239.07,-353.97 239.07,-269 239.07,-269 239.07,-269 239.07,-201 239.07,-144.58 299.74,-108.35 346.36,-88.84"/>
<polygon fill="#63b8ff" stroke="#63b8ff" points="347.81,-92.03 355.78,-85.04 345.19,-85.54 347.81,-92.03"/>
</g>
<!-- Node6 -->
<g id="node6" class="node">
<title>Node6</title>
<g id="a_node6"><a xlink:href="../../d8/d06/MyList_8h.html" target="_top" xlink:title=" ">
<polygon fill="white" stroke="#666666" points="722.57,-217 615.57,-217 615.57,-187 722.57,-187 722.57,-217"/>
<text text-anchor="start" x="623.57" y="-205" font-family="Helvetica,sans-Serif" font-size="10.00">../../container/code</text>
<text text-anchor="middle" x="669.07" y="-194" font-family="Helvetica,sans-Serif" font-size="10.00">/MyList.h</text>
</a>
</g>
</g>
<!-- Node3&#45;&gt;Node6 -->
<g id="edge5" class="edge">
<title>Node3&#45;&gt;Node6</title>
<path fill="none" stroke="#63b8ff" d="M688.31,-373.87C693.39,-352.86 704.58,-297.5 694.07,-253 691.89,-243.77 687.73,-234.3 683.42,-226.11"/>
<polygon fill="#63b8ff" stroke="#63b8ff" points="686.36,-224.19 678.4,-217.19 680.26,-227.62 686.36,-224.19"/>
</g>
<!-- Node3&#45;&gt;Node7 -->
<g id="edge29" class="edge">
<title>Node3&#45;&gt;Node7</title>
<path fill="none" stroke="#63b8ff" d="M695.39,-373.78C713.36,-355.96 751.07,-313.28 751.07,-269 751.07,-269 751.07,-269 751.07,-201 751.07,-160.9 740.77,-114.81 734.27,-89.7"/>
<polygon fill="#63b8ff" stroke="#63b8ff" points="737.57,-88.49 731.6,-79.74 730.81,-90.31 737.57,-88.49"/>
</g>
<!-- Node10 -->
<g id="node10" class="node">
<title>Node10</title>
<g id="a_node10"><a xlink:href="../../db/d87/TCargoWarShip_8h.html" target="_top" xlink:title=" ">
<polygon fill="white" stroke="#666666" points="409.07,-283 267.07,-283 267.07,-253 409.07,-253 409.07,-283"/>
<text text-anchor="start" x="275.07" y="-271" font-family="Helvetica,sans-Serif" font-size="10.00">../../ships/code/TCargoWar</text>
<text text-anchor="middle" x="338.07" y="-260" font-family="Helvetica,sans-Serif" font-size="10.00">Ship.h</text>
</a>
</g>
</g>
<!-- Node3&#45;&gt;Node10 -->
<g id="edge12" class="edge">
<title>Node3&#45;&gt;Node10</title>
<path fill="none" stroke="#63b8ff" d="M651.48,-377.47C610.36,-370.92 540.01,-357.9 482.07,-338 442.97,-324.57 400.56,-303.37 371.96,-288.01"/>
<polygon fill="#63b8ff" stroke="#63b8ff" points="373.27,-284.74 362.82,-283.05 369.93,-290.89 373.27,-284.74"/>
</g>
<!-- Node17 -->
<g id="node17" class="node">
<title>Node17</title>
<g id="a_node17"><a xlink:href="../../d1/d0c/TBase_8h.html" target="_top" xlink:title=" ">
<polygon fill="white" stroke="#666666" points="685.07,-277.5 559.07,-277.5 559.07,-258.5 685.07,-258.5 685.07,-277.5"/>
<text text-anchor="middle" x="622.07" y="-265.5" font-family="Helvetica,sans-Serif" font-size="10.00">../../base/code/TBase.h</text>
</a>
</g>
</g>
<!-- Node3&#45;&gt;Node17 -->
<g id="edge22" class="edge">
<title>Node3&#45;&gt;Node17</title>
<path fill="none" stroke="#63b8ff" d="M682.21,-373.69C676.66,-361.26 665.9,-337.96 655.07,-319 648.65,-307.75 640.67,-295.62 634.17,-286.12"/>
<polygon fill="#63b8ff" stroke="#63b8ff" points="636.85,-283.85 628.27,-277.63 631.1,-287.84 636.85,-283.85"/>
</g>
<!-- Node18 -->
<g id="node18" class="node">
<title>Node18</title>
<g id="a_node18"><a xlink:href="../../d1/d8a/TPirateBase_8h.html" target="_top" xlink:title=" ">
<polygon fill="white" stroke="#666666" points="646.57,-338 491.57,-338 491.57,-319 646.57,-319 646.57,-338"/>
<text text-anchor="middle" x="569.07" y="-326" font-family="Helvetica,sans-Serif" font-size="10.00">../../base/code/TPirateBase.h</text>
</a>
</g>
</g>
<!-- Node3&#45;&gt;Node18 -->
<g id="edge24" class="edge">
<title>Node3&#45;&gt;Node18</title>
<path fill="none" stroke="#63b8ff" d="M667.28,-373.98C648.45,-365.46 619.25,-352.23 597.58,-342.41"/>
<polygon fill="#63b8ff" stroke="#63b8ff" points="598.77,-339.11 588.21,-338.17 595.88,-345.48 598.77,-339.11"/>
</g>
<!-- Node4&#45;&gt;Node5 -->
<g id="edge4" class="edge">
<title>Node4&#45;&gt;Node5</title>
<path fill="none" stroke="#63b8ff" d="M399.07,-54.84C399.07,-47.21 399.07,-37.7 399.07,-29.45"/>
<polygon fill="#63b8ff" stroke="#63b8ff" points="402.57,-29.27 399.07,-19.27 395.57,-29.27 402.57,-29.27"/>
</g>
<!-- Node6&#45;&gt;Node7 -->
<g id="edge6" class="edge">
<title>Node6&#45;&gt;Node7</title>
<path fill="none" stroke="#63b8ff" d="M675.61,-186.84C686.6,-163.02 708.77,-114.99 720.82,-88.88"/>
<polygon fill="#63b8ff" stroke="#63b8ff" points="724.02,-90.29 725.04,-79.75 717.67,-87.36 724.02,-90.29"/>
</g>
<!-- Node8 -->
<g id="node8" class="node">
<title>Node8</title>
<g id="a_node8"><a xlink:href="../../d0/d93/TShip_8h.html" target="_top" xlink:title=" ">
<polygon fill="white" stroke="#666666" points="555.57,-145.5 430.57,-145.5 430.57,-126.5 555.57,-126.5 555.57,-145.5"/>
<text text-anchor="middle" x="493.07" y="-133.5" font-family="Helvetica,sans-Serif" font-size="10.00">../../ships/code/TShip.h</text>
</a>
</g>
</g>
<!-- Node6&#45;&gt;Node8 -->
<g id="edge7" class="edge">
<title>Node6&#45;&gt;Node8</title>
<path fill="none" stroke="#63b8ff" d="M630.45,-186.95C599.18,-175.58 555.6,-159.74 525.97,-148.96"/>
<polygon fill="#63b8ff" stroke="#63b8ff" points="527.09,-145.65 516.5,-145.52 524.7,-152.22 527.09,-145.65"/>
</g>
<!-- Node8&#45;&gt;Node4 -->
<g id="edge10" class="edge">
<title>Node8&#45;&gt;Node4</title>
<path fill="none" stroke="#63b8ff" d="M480.4,-126.37C467.17,-117.36 445.96,-102.92 428.52,-91.05"/>
<polygon fill="#63b8ff" stroke="#63b8ff" points="430.04,-87.85 419.81,-85.12 426.1,-93.64 430.04,-87.85"/>
</g>
<!-- Node8&#45;&gt;Node5 -->
<g id="edge8" class="edge">
<title>Node8&#45;&gt;Node5</title>
<path fill="none" stroke="#63b8ff" d="M493.15,-126.39C492.85,-110.69 490.23,-76.96 474.07,-55 463.15,-40.15 445.66,-29.36 430.31,-22.13"/>
<polygon fill="#63b8ff" stroke="#63b8ff" points="431.68,-18.91 421.11,-18.08 428.86,-25.31 431.68,-18.91"/>
</g>
<!-- Node8&#45;&gt;Node7 -->
<g id="edge9" class="edge">
<title>Node8&#45;&gt;Node7</title>
<path fill="none" stroke="#63b8ff" d="M524.9,-126.37C567.8,-114.73 644.12,-94.04 690.31,-81.51"/>
<polygon fill="#63b8ff" stroke="#63b8ff" points="691.23,-84.89 699.97,-78.89 689.4,-78.13 691.23,-84.89"/>
</g>
<!-- Node9 -->
<g id="node9" class="node">
<title>Node9</title>
<g id="a_node9"><a xlink:href="../../dc/d06/TObjectOnMap_8h.html" target="_top" xlink:title=" ">
<polygon fill="white" stroke="#666666" points="659.07,-85 521.07,-85 521.07,-55 659.07,-55 659.07,-85"/>
<text text-anchor="start" x="529.07" y="-73" font-family="Helvetica,sans-Serif" font-size="10.00">../../base/code/TObjectOn</text>
<text text-anchor="middle" x="590.07" y="-62" font-family="Helvetica,sans-Serif" font-size="10.00">Map.h</text>
</a>
</g>
</g>
<!-- Node8&#45;&gt;Node9 -->
<g id="edge11" class="edge">
<title>Node8&#45;&gt;Node9</title>
<path fill="none" stroke="#63b8ff" d="M506.16,-126.37C519.93,-117.28 542.09,-102.66 560.18,-90.72"/>
<polygon fill="#63b8ff" stroke="#63b8ff" points="562.26,-93.54 568.68,-85.12 558.41,-87.7 562.26,-93.54"/>
</g>
<!-- Node11 -->
<g id="node11" class="node">
<title>Node11</title>
<g id="a_node11"><a xlink:href="../../d0/d2a/TWarShip_8h.html" target="_top" xlink:title=" ">
<polygon fill="white" stroke="#666666" points="403.57,-211.5 332.57,-211.5 332.57,-192.5 403.57,-192.5 403.57,-211.5"/>
<text text-anchor="middle" x="368.07" y="-199.5" font-family="Helvetica,sans-Serif" font-size="10.00">TWarShip.h</text>
</a>
</g>
</g>
<!-- Node10&#45;&gt;Node11 -->
<g id="edge13" class="edge">
<title>Node10&#45;&gt;Node11</title>
<path fill="none" stroke="#63b8ff" d="M344.73,-252.8C349.13,-243.41 354.94,-231.02 359.66,-220.95"/>
<polygon fill="#63b8ff" stroke="#63b8ff" points="362.85,-222.38 363.93,-211.84 356.51,-219.41 362.85,-222.38"/>
</g>
<!-- Node16 -->
<g id="node16" class="node">
<title>Node16</title>
<g id="a_node16"><a xlink:href="../../d3/d7f/TCargoShip_8h.html" target="_top" xlink:title=" ">
<polygon fill="white" stroke="#666666" points="518.07,-211.5 438.07,-211.5 438.07,-192.5 518.07,-192.5 518.07,-211.5"/>
<text text-anchor="middle" x="478.07" y="-199.5" font-family="Helvetica,sans-Serif" font-size="10.00">TCargoShip.h</text>
</a>
</g>
</g>
<!-- Node10&#45;&gt;Node16 -->
<g id="edge20" class="edge">
<title>Node10&#45;&gt;Node16</title>
<path fill="none" stroke="#63b8ff" d="M368.8,-252.95C393.03,-241.88 426.53,-226.56 450.04,-215.82"/>
<polygon fill="#63b8ff" stroke="#63b8ff" points="451.8,-218.86 459.44,-211.52 448.89,-212.49 451.8,-218.86"/>
</g>
<!-- Node11&#45;&gt;Node8 -->
<g id="edge19" class="edge">
<title>Node11&#45;&gt;Node8</title>
<path fill="none" stroke="#63b8ff" d="M384.93,-192.37C405.99,-181.59 442.26,-163.02 466.93,-150.38"/>
<polygon fill="#63b8ff" stroke="#63b8ff" points="468.78,-153.37 476.08,-145.7 465.59,-147.14 468.78,-153.37"/>
</g>
<!-- Node12 -->
<g id="node12" class="node">
<title>Node12</title>
<g id="a_node12"><a xlink:href="../../dc/d2c/TWeaponHolder_8h.html" target="_top" xlink:title=" ">
<polygon fill="white" stroke="#666666" points="210.57,-151 105.57,-151 105.57,-121 210.57,-121 210.57,-151"/>
<text text-anchor="start" x="113.57" y="-139" font-family="Helvetica,sans-Serif" font-size="10.00">../../weapons/code</text>
<text text-anchor="middle" x="158.07" y="-128" font-family="Helvetica,sans-Serif" font-size="10.00">/TWeaponHolder.h</text>
</a>
</g>
</g>
<!-- Node11&#45;&gt;Node12 -->
<g id="edge14" class="edge">
<title>Node11&#45;&gt;Node12</title>
<path fill="none" stroke="#63b8ff" d="M339.75,-192.37C307.69,-182.6 254.65,-166.43 214.14,-154.09"/>
<polygon fill="#63b8ff" stroke="#63b8ff" points="214.98,-150.68 204.39,-151.12 212.94,-157.38 214.98,-150.68"/>
</g>
<!-- Node12&#45;&gt;Node7 -->
<g id="edge15" class="edge">
<title>Node12&#45;&gt;Node7</title>
<path fill="none" stroke="#63b8ff" d="M210.86,-132.06C303.75,-126.38 502.34,-112.03 668.07,-85 675.3,-83.82 682.95,-82.29 690.29,-80.68"/>
<polygon fill="#63b8ff" stroke="#63b8ff" points="691.08,-84.09 700.06,-78.46 689.53,-77.27 691.08,-84.09"/>
</g>
<!-- Node13 -->
<g id="node13" class="node">
<title>Node13</title>
<g id="a_node13"><a xlink:title=" ">
<polygon fill="#e0e0e0" stroke="#999999" points="166.57,-79.5 119.57,-79.5 119.57,-60.5 166.57,-60.5 166.57,-79.5"/>
<text text-anchor="middle" x="143.07" y="-67.5" font-family="Helvetica,sans-Serif" font-size="10.00">vector</text>
</a>
</g>
</g>
<!-- Node12&#45;&gt;Node13 -->
<g id="edge16" class="edge">
<title>Node12&#45;&gt;Node13</title>
<path fill="none" stroke="#63b8ff" d="M154.74,-120.8C152.61,-111.7 149.82,-99.79 147.5,-89.9"/>
<polygon fill="#63b8ff" stroke="#63b8ff" points="150.84,-88.78 145.15,-79.84 144.02,-90.38 150.84,-88.78"/>
</g>
<!-- Node14 -->
<g id="node14" class="node">
<title>Node14</title>
<g id="a_node14"><a xlink:href="../../d8/d66/enum__place__on__ship_8h.html" target="_top" xlink:title=" ">
<polygon fill="white" stroke="#666666" points="315.07,-85 185.07,-85 185.07,-55 315.07,-55 315.07,-85"/>
<text text-anchor="start" x="193.07" y="-73" font-family="Helvetica,sans-Serif" font-size="10.00">../../enums/enum_place</text>
<text text-anchor="middle" x="250.07" y="-62" font-family="Helvetica,sans-Serif" font-size="10.00">_on_ship.h</text>
</a>
</g>
</g>
<!-- Node12&#45;&gt;Node14 -->
<g id="edge17" class="edge">
<title>Node12&#45;&gt;Node14</title>
<path fill="none" stroke="#63b8ff" d="M178.49,-120.8C191.12,-112.01 207.51,-100.61 221.43,-90.93"/>
<polygon fill="#63b8ff" stroke="#63b8ff" points="223.5,-93.75 229.71,-85.16 219.51,-88 223.5,-93.75"/>
</g>
<!-- Node15 -->
<g id="node15" class="node">
<title>Node15</title>
<g id="a_node15"><a xlink:href="../../d0/df8/TWeapon_8h.html" target="_top" xlink:title=" ">
<polygon fill="white" stroke="#666666" points="101.57,-79.5 30.57,-79.5 30.57,-60.5 101.57,-60.5 101.57,-79.5"/>
<text text-anchor="middle" x="66.07" y="-67.5" font-family="Helvetica,sans-Serif" font-size="10.00">TWeapon.h</text>
</a>
</g>
</g>
<!-- Node12&#45;&gt;Node15 -->
<g id="edge18" class="edge">
<title>Node12&#45;&gt;Node15</title>
<path fill="none" stroke="#63b8ff" d="M137.66,-120.8C122.52,-110.27 101.97,-95.97 86.77,-85.4"/>
<polygon fill="#63b8ff" stroke="#63b8ff" points="88.73,-82.5 78.52,-79.66 84.73,-88.24 88.73,-82.5"/>
</g>
<!-- Node16&#45;&gt;Node8 -->
<g id="edge21" class="edge">
<title>Node16&#45;&gt;Node8</title>
<path fill="none" stroke="#63b8ff" d="M480.1,-192.37C482.28,-183.07 485.81,-167.98 488.64,-155.9"/>
<polygon fill="#63b8ff" stroke="#63b8ff" points="492.11,-156.44 490.99,-145.91 485.3,-154.84 492.11,-156.44"/>
</g>
<!-- Node17&#45;&gt;Node9 -->
<g id="edge23" class="edge">
<title>Node17&#45;&gt;Node9</title>
<path fill="none" stroke="#63b8ff" d="M618.7,-258.29C615.01,-248.43 609.22,-231.8 606.07,-217 597.1,-174.76 592.99,-124.51 591.25,-95.33"/>
<polygon fill="#63b8ff" stroke="#63b8ff" points="594.74,-95.03 590.69,-85.24 587.75,-95.42 594.74,-95.03"/>
</g>
<!-- Node18&#45;&gt;Node17 -->
<g id="edge25" class="edge">
<title>Node18&#45;&gt;Node17</title>
<path fill="none" stroke="#63b8ff" d="M576.89,-318.87C584.88,-310.05 597.47,-296.16 607.33,-285.27"/>
<polygon fill="#63b8ff" stroke="#63b8ff" points="610.1,-287.43 614.22,-277.67 604.91,-282.73 610.1,-287.43"/>
</g>
<!-- Node19 -->
<g id="node19" class="node">
<title>Node19</title>
<g id="a_node19"><a xlink:href="../../dc/d2f/TSpawnDescriptor_8h.html" target="_top" xlink:title=" ">
<polygon fill="white" stroke="#666666" points="540.57,-277.5 427.57,-277.5 427.57,-258.5 540.57,-258.5 540.57,-277.5"/>
<text text-anchor="middle" x="484.07" y="-265.5" font-family="Helvetica,sans-Serif" font-size="10.00">TSpawnDescriptor.h</text>
</a>
</g>
</g>
<!-- Node18&#45;&gt;Node19 -->
<g id="edge26" class="edge">
<title>Node18&#45;&gt;Node19</title>
<path fill="none" stroke="#63b8ff" d="M556.53,-318.87C542.97,-309.54 521.13,-294.51 504.97,-283.38"/>
<polygon fill="#63b8ff" stroke="#63b8ff" points="506.89,-280.45 496.67,-277.67 502.92,-286.22 506.89,-280.45"/>
</g>
<!-- Node19&#45;&gt;Node6 -->
<g id="edge28" class="edge">
<title>Node19&#45;&gt;Node6</title>
<path fill="none" stroke="#63b8ff" d="M509.02,-258.37C536.97,-248.7 583.01,-232.77 618.55,-220.48"/>
<polygon fill="#63b8ff" stroke="#63b8ff" points="619.96,-223.69 628.27,-217.12 617.68,-217.08 619.96,-223.69"/>
</g>
<!-- Node19&#45;&gt;Node11 -->
<g id="edge27" class="edge">
<title>Node19&#45;&gt;Node11</title>
<path fill="none" stroke="#63b8ff" d="M468.43,-258.37C448.97,-247.63 415.53,-229.18 392.64,-216.55"/>
<polygon fill="#63b8ff" stroke="#63b8ff" points="394.29,-213.47 383.84,-211.7 390.91,-219.59 394.29,-213.47"/>
</g>
<!-- Node21&#45;&gt;Node3 -->
<g id="edge33" class="edge">
<title>Node21&#45;&gt;Node3</title>
<path fill="none" stroke="#63b8ff" d="M797.71,-428.98C775.92,-420.3 741.91,-406.75 717.15,-396.88"/>
<polygon fill="#63b8ff" stroke="#63b8ff" points="718.42,-393.62 707.83,-393.17 715.83,-400.12 718.42,-393.62"/>
</g>
<!-- Node21&#45;&gt;Node7 -->
<g id="edge34" class="edge">
<title>Node21&#45;&gt;Node7</title>
<path fill="none" stroke="#63b8ff" d="M820.15,-428.84C822.34,-410.53 827.07,-366.54 827.07,-329.5 827.07,-329.5 827.07,-329.5 827.07,-201 827.07,-150.54 779.41,-107.23 750.57,-85.65"/>
<polygon fill="#63b8ff" stroke="#63b8ff" points="752.44,-82.69 742.29,-79.66 748.34,-88.36 752.44,-82.69"/>
</g>
<!-- Node21&#45;&gt;Node20 -->
<g id="edge35" class="edge">
<title>Node21&#45;&gt;Node20</title>
<path fill="none" stroke="#63b8ff" d="M829.68,-428.98C839.53,-421.07 854.42,-409.11 866.29,-399.58"/>
<polygon fill="#63b8ff" stroke="#63b8ff" points="868.67,-402.16 874.28,-393.17 864.29,-396.7 868.67,-402.16"/>
</g>
</g>
</svg>
        <g id="navigator" transform="translate(0 0)" fill="#404254">
                <rect fill="#f2f5e9" fill-opacity="0.5" stroke="#606060" stroke-width=".5" x="0" y="0" width="60" height="60"/>
                <use id="zoomplus" xlink:href="#zoomPlus" x="17" y="9" onmousedown="handleZoom(evt,'in')"/>
                <use id="zoomminus" xlink:href="#zoomMin" x="42" y="9" onmousedown="handleZoom(evt,'out')"/>
                <use id="reset" xlink:href="#resetDef" x="30" y="36" onmousedown="handleReset()"/>
                <g id="arrowUp" xlink:href="#dirArrow" transform="translate(30 24)" onmousedown="handlePan(0,-1)">
                  <use xlink:href="#rim" fill="#404040">
                        <set attributeName="fill" to="#808080" begin="arrowUp.mouseover" end="arrowUp.mouseout"/>
                  </use>
                  <path fill="none" stroke="white" stroke-width="1.5" d="M0,-3.0v7 M-2.5,-0.5L0,-3.0L2.5,-0.5"/>
                </g>
                <g id="arrowRight" xlink:href="#dirArrow" transform="rotate(90) translate(36 -43)" onmousedown="handlePan(1,0)">
                  <use xlink:href="#rim" fill="#404040">
                        <set attributeName="fill" to="#808080" begin="arrowRight.mouseover" end="arrowRight.mouseout"/>
                  </use>
                  <path fill="none" stroke="white" stroke-width="1.5" d="M0,-3.0v7 M-2.5,-0.5L0,-3.0L2.5,-0.5"/>
                </g>
                <g id="arrowDown" xlink:href="#dirArrow" transform="rotate(180) translate(-30 -48)" onmousedown="handlePan(0,1)">
                  <use xlink:href="#rim" fill="#404040">
                        <set attributeName="fill" to="#808080" begin="arrowDown.mouseover" end="arrowDown.mouseout"/>
                  </use>
                  <path fill="none" stroke="white" stroke-width="1.5" d="M0,-3.0v7 M-2.5,-0.5L0,-3.0L2.5,-0.5"/>
                </g>
                <g id="arrowLeft" xlink:href="#dirArrow" transform="rotate(270) translate(-36 17)" onmousedown="handlePan(-1,0)">
                  <use xlink:href="#rim" fill="#404040">
                        <set attributeName="fill" to="#808080" begin="arrowLeft.mouseover" end="arrowLeft.mouseout"/>
                  </use>
                  <path fill="none" stroke="white" stroke-width="1.5" d="M0,-3.0v7 M-2.5,-0.5L0,-3.0L2.5,-0.5"/>
                </g>
        </g>
        <svg viewBox="0 0 15 15" width="100%" height="30px" preserveAspectRatio="xMaxYMin meet">
         <g id="arrow_out" transform="scale(0.3 0.3)">
          <a xlink:href="TLevelSelector_8cpp__incl_org.svg" target="_base">
           <rect id="button" ry="5" rx="5" y="6" x="6" height="38" width="38"
                fill="#f2f5e9" fill-opacity="0.5" stroke="#606060" stroke-width="1.0"/>
           <path id="arrow"
             d="M 11.500037,31.436501 C 11.940474,20.09759 22.043105,11.32322 32.158766,21.979434 L 37.068811,17.246167 C 37.068811,17.246167 37.088388,32 37.088388,32 L 22.160133,31.978069 C 22.160133,31.978069 26.997745,27.140456 26.997745,27.140456 C 18.528582,18.264221 13.291696,25.230495 11.500037,31.436501 z"
             style="fill:#404040;"/>
          </a>
         </g>
        </svg>
</svg>
