<?xml version="1.0" encoding="UTF-8" standalone="no"?>
<!DOCTYPE svg PUBLIC "-//W3C//DTD SVG 1.1//EN"
 "http://www.w3.org/Graphics/SVG/1.1/DTD/svg11.dtd">
<!-- Generated by graphviz version 2.43.0 (0)
 -->
<!-- Title: MyList::insert Pages: 1 -->
<svg width="900pt" height="645pt"
 viewBox="0.00 0.00 900.00 645.00" xmlns="http://www.w3.org/2000/svg" xmlns:xlink="http://www.w3.org/1999/xlink">
<g id="graph0" class="graph" transform="scale(1 1) rotate(0) translate(4 641)">
<title>MyList::insert</title>
<!-- Node1 -->
<g id="node1" class="node">
<title>Node1</title>
<g id="a_node1"><a xlink:title=" ">
<polygon fill="#999999" stroke="#666666" points="892,-316 809,-316 809,-297 892,-297 892,-316"/>
<text text-anchor="middle" x="850.5" y="-304" font-family="Helvetica,sans-Serif" font-size="10.00">MyList::insert</text>
</a>
</g>
</g>
<!-- Node2 -->
<g id="node2" class="node">
<title>Node2</title>
<g id="a_node2"><a xlink:href="../../dc/de8/classTShop.html#aecceb42ffe39e9e0e9f1e152fa0c258d" target="_top" xlink:title=" ">
<polygon fill="white" stroke="#666666" points="718,-600 626,-600 626,-581 718,-581 718,-600"/>
<text text-anchor="middle" x="672" y="-588" font-family="Helvetica,sans-Serif" font-size="10.00">TShop::BuyShip</text>
</a>
</g>
</g>
<!-- Node1&#45;&gt;Node2 -->
<g id="edge1" class="edge">
<title>Node1&#45;&gt;Node2</title>
<path fill="none" stroke="#63b8ff" d="M849.92,-326.37C849.82,-374.94 842.46,-500.47 773,-566.5 758.38,-580.4 737.18,-586.71 718.06,-589.41"/>
<polygon fill="#63b8ff" stroke="#63b8ff" points="853.42,-326.22 849.84,-316.25 846.42,-326.28 853.42,-326.22"/>
</g>
<!-- Node6 -->
<g id="node6" class="node">
<title>Node6</title>
<g id="a_node6"><a xlink:href="../../df/dbf/TestTLevelReader_8cpp.html#a04829e963b7ea7cf309dfa703ceb950e" target="_top" xlink:title=" ">
<polygon fill="white" stroke="#666666" points="717,-486 627,-486 627,-467 717,-467 717,-486"/>
<text text-anchor="middle" x="672" y="-474" font-family="Helvetica,sans-Serif" font-size="10.00">GetCapitanInfo</text>
</a>
</g>
</g>
<!-- Node1&#45;&gt;Node6 -->
<g id="edge5" class="edge">
<title>Node1&#45;&gt;Node6</title>
<path fill="none" stroke="#63b8ff" d="M845.57,-326.06C837.85,-359.03 817.45,-425.31 773,-458.5 757.1,-470.37 735.86,-475.29 717.05,-477.06"/>
<polygon fill="#63b8ff" stroke="#63b8ff" points="848.99,-326.77 847.71,-316.25 842.16,-325.27 848.99,-326.77"/>
</g>
<!-- Node7 -->
<g id="node7" class="node">
<title>Node7</title>
<g id="a_node7"><a xlink:href="../../df/dbf/TestTLevelReader_8cpp.html#a32e07d67b7efd1d03d13a110958eece8" target="_top" xlink:title=" ">
<polygon fill="white" stroke="#666666" points="489,-524 429,-524 429,-505 489,-505 489,-524"/>
<text text-anchor="middle" x="459" y="-512" font-family="Helvetica,sans-Serif" font-size="10.00">GetShips</text>
</a>
</g>
</g>
<!-- Node1&#45;&gt;Node7 -->
<g id="edge14" class="edge">
<title>Node1&#45;&gt;Node7</title>
<path fill="none" stroke="#63b8ff" d="M848.15,-326.04C844.26,-365.63 829.36,-454.97 773,-495.5 686.37,-557.79 548.92,-535.84 489.24,-522.12"/>
<polygon fill="#63b8ff" stroke="#63b8ff" points="851.64,-326.33 849,-316.07 844.66,-325.74 851.64,-326.33"/>
</g>
<!-- Node8 -->
<g id="node8" class="node">
<title>Node8</title>
<g id="a_node8"><a xlink:href="../../df/dbf/TestTLevelReader_8cpp.html#ac86806b1ea40e9e267dcb76e291d2c89" target="_top" xlink:title=" ">
<polygon fill="white" stroke="#666666" points="314.5,-562 225.5,-562 225.5,-543 314.5,-543 314.5,-562"/>
<text text-anchor="middle" x="270" y="-550" font-family="Helvetica,sans-Serif" font-size="10.00">GetDescriptors</text>
</a>
</g>
</g>
<!-- Node1&#45;&gt;Node8 -->
<g id="edge11" class="edge">
<title>Node1&#45;&gt;Node8</title>
<path fill="none" stroke="#63b8ff" d="M849.53,-326.43C848.41,-371.33 838.69,-480.28 773,-529.5 701.52,-583.06 423.26,-565.66 314.71,-556.54"/>
<polygon fill="#63b8ff" stroke="#63b8ff" points="853.04,-326.29 849.66,-316.25 846.04,-326.2 853.04,-326.29"/>
</g>
<!-- Node12 -->
<g id="node12" class="node">
<title>Node12</title>
<g id="a_node12"><a xlink:href="../../d6/de3/TestTShop_8cpp.html#a943e89378179371c951c54c476040453" target="_top" xlink:title=" ">
<polygon fill="white" stroke="#666666" points="701.5,-412 642.5,-412 642.5,-393 701.5,-393 701.5,-412"/>
<text text-anchor="middle" x="672" y="-400" font-family="Helvetica,sans-Serif" font-size="10.00">GetGuns</text>
</a>
</g>
</g>
<!-- Node1&#45;&gt;Node12 -->
<g id="edge12" class="edge">
<title>Node1&#45;&gt;Node12</title>
<path fill="none" stroke="#63b8ff" d="M837.07,-324.58C823.52,-342.78 800.13,-370.15 773,-384.5 750.86,-396.21 722.51,-400.47 701.66,-401.94"/>
<polygon fill="#63b8ff" stroke="#63b8ff" points="840.23,-326.18 843.22,-316.02 834.54,-322.1 840.23,-326.18"/>
</g>
<!-- Node14 -->
<g id="node14" class="node">
<title>Node14</title>
<g id="a_node14"><a xlink:href="../../df/dbf/TestTLevelReader_8cpp.html#a75c05778cfeaafda2b661762c0a22de8" target="_top" xlink:title=" ">
<polygon fill="white" stroke="#666666" points="711,-449 633,-449 633,-430 711,-430 711,-449"/>
<text text-anchor="middle" x="672" y="-437" font-family="Helvetica,sans-Serif" font-size="10.00">GetWeapons</text>
</a>
</g>
</g>
<!-- Node1&#45;&gt;Node14 -->
<g id="edge15" class="edge">
<title>Node1&#45;&gt;Node14</title>
<path fill="none" stroke="#63b8ff" d="M842.38,-325.7C831.61,-351.87 808.59,-398.14 773,-421.5 754.86,-433.41 731.07,-438.03 711.24,-439.62"/>
<polygon fill="#63b8ff" stroke="#63b8ff" points="845.73,-326.73 846.13,-316.14 839.22,-324.17 845.73,-326.73"/>
</g>
<!-- Node15 -->
<g id="node15" class="node">
<title>Node15</title>
<g id="a_node15"><a xlink:href="../../d6/de3/TestTShop_8cpp.html#a98ee64221600db3809453989f6bf69eb" target="_top" xlink:title=" ">
<polygon fill="white" stroke="#666666" points="712,-375 632,-375 632,-356 712,-356 712,-375"/>
<text text-anchor="middle" x="672" y="-363" font-family="Helvetica,sans-Serif" font-size="10.00">MakeMission</text>
</a>
</g>
</g>
<!-- Node1&#45;&gt;Node15 -->
<g id="edge17" class="edge">
<title>Node1&#45;&gt;Node15</title>
<path fill="none" stroke="#63b8ff" d="M826.01,-321.59C811.31,-330.39 791.68,-341 773,-347.5 753.51,-354.29 730.95,-358.63 712.19,-361.34"/>
<polygon fill="#63b8ff" stroke="#63b8ff" points="828.21,-324.34 834.9,-316.13 824.55,-318.38 828.21,-324.34"/>
</g>
<!-- Node17 -->
<g id="node17" class="node">
<title>Node17</title>
<g id="a_node17"><a xlink:href="../../db/dab/classTPlaying.html#ab30b266040a5de9cebdebc0e6130e2ac" target="_top" xlink:title=" ">
<polygon fill="white" stroke="#666666" points="733.5,-338 610.5,-338 610.5,-319 733.5,-319 733.5,-338"/>
<text text-anchor="middle" x="672" y="-326" font-family="Helvetica,sans-Serif" font-size="10.00">TPlaying::MakeSpawn</text>
</a>
</g>
</g>
<!-- Node1&#45;&gt;Node17 -->
<g id="edge19" class="edge">
<title>Node1&#45;&gt;Node17</title>
<path fill="none" stroke="#63b8ff" d="M798.61,-312.84C778.37,-315.37 754.92,-318.29 733.8,-320.92"/>
<polygon fill="#63b8ff" stroke="#63b8ff" points="799.07,-316.31 808.56,-311.6 798.21,-309.37 799.07,-316.31"/>
</g>
<!-- Node20 -->
<g id="node20" class="node">
<title>Node20</title>
<g id="a_node20"><a xlink:href="../../d5/d99/classTLevelReader.html#a68c3199258c974d81e965a715a61e7e2" target="_top" xlink:title=" ">
<polygon fill="white" stroke="#666666" points="748,-252.5 596,-252.5 596,-222.5 748,-222.5 748,-252.5"/>
<text text-anchor="start" x="604" y="-240.5" font-family="Helvetica,sans-Serif" font-size="10.00">TLevelReader::ReadCapitan</text>
<text text-anchor="middle" x="672" y="-229.5" font-family="Helvetica,sans-Serif" font-size="10.00">Infos</text>
</a>
</g>
</g>
<!-- Node1&#45;&gt;Node20 -->
<g id="edge22" class="edge">
<title>Node1&#45;&gt;Node20</title>
<path fill="none" stroke="#63b8ff" d="M827.58,-291.24C812.75,-281.52 792.41,-269.33 773,-261.5 764.64,-258.13 755.69,-255.15 746.7,-252.54"/>
<polygon fill="#63b8ff" stroke="#63b8ff" points="825.78,-294.25 836.04,-296.91 829.68,-288.43 825.78,-294.25"/>
</g>
<!-- Node26 -->
<g id="node26" class="node">
<title>Node26</title>
<g id="a_node26"><a xlink:href="../../d5/d99/classTLevelReader.html#ac6e2fd6477af4205d0c85433bdb02985" target="_top" xlink:title=" ">
<polygon fill="white" stroke="#666666" points="738,-93 606,-93 606,-74 738,-74 738,-93"/>
<text text-anchor="middle" x="672" y="-81" font-family="Helvetica,sans-Serif" font-size="10.00">TLevelReader::ReadInts</text>
</a>
</g>
</g>
<!-- Node1&#45;&gt;Node26 -->
<g id="edge28" class="edge">
<title>Node1&#45;&gt;Node26</title>
<path fill="none" stroke="#63b8ff" d="M848.29,-286.91C844.64,-245.85 830.12,-150.6 773,-102.5 763.13,-94.19 750.76,-89.07 738.12,-86.01"/>
<polygon fill="#63b8ff" stroke="#63b8ff" points="844.81,-287.27 849.06,-296.97 851.79,-286.73 844.81,-287.27"/>
</g>
<!-- Node28 -->
<g id="node28" class="node">
<title>Node28</title>
<g id="a_node28"><a xlink:href="../../d5/d99/classTLevelReader.html#ae7a5a65dfddd9c939dbdf18846054725" target="_top" xlink:title=" ">
<polygon fill="white" stroke="#666666" points="743.5,-300.5 600.5,-300.5 600.5,-270.5 743.5,-270.5 743.5,-300.5"/>
<text text-anchor="start" x="608.5" y="-288.5" font-family="Helvetica,sans-Serif" font-size="10.00">TLevelReader::ReadPirate</text>
<text text-anchor="middle" x="672" y="-277.5" font-family="Helvetica,sans-Serif" font-size="10.00">Bases</text>
</a>
</g>
</g>
<!-- Node1&#45;&gt;Node28 -->
<g id="edge30" class="edge">
<title>Node1&#45;&gt;Node28</title>
<path fill="none" stroke="#63b8ff" d="M798.29,-300.41C781.28,-298.38 762.03,-296.09 743.8,-293.92"/>
<polygon fill="#63b8ff" stroke="#63b8ff" points="798.22,-303.92 808.56,-301.63 799.05,-296.97 798.22,-303.92"/>
</g>
<!-- Node30 -->
<g id="node30" class="node">
<title>Node30</title>
<g id="a_node30"><a xlink:href="../../d5/d99/classTLevelReader.html#a06cbe367f372ca443af250d9c581b58b" target="_top" xlink:title=" ">
<polygon fill="white" stroke="#666666" points="742,-204 602,-204 602,-185 742,-185 742,-204"/>
<text text-anchor="middle" x="672" y="-192" font-family="Helvetica,sans-Serif" font-size="10.00">TLevelReader::ReadShips</text>
</a>
</g>
</g>
<!-- Node1&#45;&gt;Node30 -->
<g id="edge33" class="edge">
<title>Node1&#45;&gt;Node30</title>
<path fill="none" stroke="#63b8ff" d="M839.55,-287.86C827.03,-266.32 803.41,-231.53 773,-213.5 763.58,-207.91 752.85,-203.92 742.01,-201.07"/>
<polygon fill="#63b8ff" stroke="#63b8ff" points="836.57,-289.7 844.51,-296.72 842.68,-286.28 836.57,-289.7"/>
</g>
<!-- Node32 -->
<g id="node32" class="node">
<title>Node32</title>
<g id="a_node32"><a xlink:href="../../d5/d99/classTLevelReader.html#a6e0d6c10291d52c31f5c22b8673dbb98" target="_top" xlink:title=" ">
<polygon fill="white" stroke="#666666" points="773,-167 571,-167 571,-148 773,-148 773,-167"/>
<text text-anchor="middle" x="672" y="-155" font-family="Helvetica,sans-Serif" font-size="10.00">TLevelReader::ReadSpawnDescriptors</text>
</a>
</g>
</g>
<!-- Node1&#45;&gt;Node32 -->
<g id="edge36" class="edge">
<title>Node1&#45;&gt;Node32</title>
<path fill="none" stroke="#63b8ff" d="M843.75,-286.96C834.14,-257.93 811.93,-203.9 773,-176.5 767.58,-172.69 761.6,-169.58 755.35,-167.06"/>
<polygon fill="#63b8ff" stroke="#63b8ff" points="840.49,-288.26 846.83,-296.76 847.17,-286.17 840.49,-288.26"/>
</g>
<!-- Node34 -->
<g id="node34" class="node">
<title>Node34</title>
<g id="a_node34"><a xlink:href="../../d5/d99/classTLevelReader.html#a4467cdf7d7766981a6b8eeb23076b433" target="_top" xlink:title=" ">
<polygon fill="white" stroke="#666666" points="751,-130 593,-130 593,-111 751,-111 751,-130"/>
<text text-anchor="middle" x="672" y="-118" font-family="Helvetica,sans-Serif" font-size="10.00">TLevelReader::ReadWeapons</text>
</a>
</g>
</g>
<!-- Node1&#45;&gt;Node34 -->
<g id="edge39" class="edge">
<title>Node1&#45;&gt;Node34</title>
<path fill="none" stroke="#63b8ff" d="M846.42,-286.6C839.81,-251.06 820.8,-176.94 773,-139.5 766.46,-134.38 758.95,-130.5 751.05,-127.57"/>
<polygon fill="#63b8ff" stroke="#63b8ff" points="843.01,-287.42 848.15,-296.68 849.91,-286.23 843.01,-287.42"/>
</g>
<!-- Node36 -->
<g id="node36" class="node">
<title>Node36</title>
<g id="a_node36"><a xlink:href="../../d2/da3/classTSpawnDescriptor.html#a115ff7e494d2997651192e6d69bb4689" target="_top" xlink:title=" ">
<polygon fill="white" stroke="#666666" points="743.5,-56 600.5,-56 600.5,-37 743.5,-37 743.5,-56"/>
<text text-anchor="middle" x="672" y="-44" font-family="Helvetica,sans-Serif" font-size="10.00">TSpawnDescriptor::Spawn</text>
</a>
</g>
</g>
<!-- Node1&#45;&gt;Node36 -->
<g id="edge42" class="edge">
<title>Node1&#45;&gt;Node36</title>
<path fill="none" stroke="#63b8ff" d="M849.58,-286.63C848.61,-240.25 839.3,-124.31 773,-65.5 764.67,-58.11 754.39,-53.21 743.61,-50.02"/>
<polygon fill="#63b8ff" stroke="#63b8ff" points="846.08,-286.88 849.67,-296.85 853.08,-286.82 846.08,-286.88"/>
</g>
<!-- Node38 -->
<g id="node38" class="node">
<title>Node38</title>
<g id="a_node38"><a xlink:href="../../db/d41/TestMyList_8cpp.html#ad0d3a0bb13e93d1b3d51f58a8afcc9f4" target="_top" xlink:title=" ">
<polygon fill="white" stroke="#666666" points="692.5,-19 651.5,-19 651.5,0 692.5,0 692.5,-19"/>
<text text-anchor="middle" x="672" y="-7" font-family="Helvetica,sans-Serif" font-size="10.00">TEST</text>
</a>
</g>
</g>
<!-- Node1&#45;&gt;Node38 -->
<g id="edge44" class="edge">
<title>Node1&#45;&gt;Node38</title>
<path fill="none" stroke="#63b8ff" d="M846.86,-286.93C838.7,-229.51 812.1,-63.24 773,-27.5 751.13,-7.5 714.9,-6 692.57,-7.33"/>
<polygon fill="#63b8ff" stroke="#63b8ff" points="843.4,-287.47 848.24,-296.89 850.33,-286.51 843.4,-287.47"/>
</g>
<!-- Node3 -->
<g id="node3" class="node">
<title>Node3</title>
<g id="a_node3"><a xlink:href="../../dc/de8/classTShop.html#a1dcf7617180c288121288af2ed21909b" target="_top" xlink:title=" ">
<polygon fill="white" stroke="#666666" points="511,-637 407,-637 407,-618 511,-618 511,-637"/>
<text text-anchor="middle" x="459" y="-625" font-family="Helvetica,sans-Serif" font-size="10.00">TShop::MainMenu</text>
</a>
</g>
</g>
<!-- Node2&#45;&gt;Node3 -->
<g id="edge2" class="edge">
<title>Node2&#45;&gt;Node3</title>
<path fill="none" stroke="#63b8ff" d="M615.8,-600.18C583.46,-605.85 542.88,-612.97 511.24,-618.51"/>
<polygon fill="#63b8ff" stroke="#63b8ff" points="616.75,-603.57 625.99,-598.39 615.54,-596.67 616.75,-603.57"/>
</g>
<!-- Node5 -->
<g id="node5" class="node">
<title>Node5</title>
<g id="a_node5"><a xlink:href="../../d6/de3/TestTShop_8cpp.html#a5562ee70e33ebf86ef84ec90cc4a005b" target="_top" xlink:title=" ">
<polygon fill="white" stroke="#666666" points="479.5,-600 438.5,-600 438.5,-581 479.5,-581 479.5,-600"/>
<text text-anchor="middle" x="459" y="-588" font-family="Helvetica,sans-Serif" font-size="10.00">TEST</text>
</a>
</g>
</g>
<!-- Node2&#45;&gt;Node5 -->
<g id="edge4" class="edge">
<title>Node2&#45;&gt;Node5</title>
<path fill="none" stroke="#63b8ff" d="M615.82,-590.5C570.97,-590.5 510.27,-590.5 479.55,-590.5"/>
<polygon fill="#63b8ff" stroke="#63b8ff" points="615.99,-594 625.99,-590.5 615.99,-587 615.99,-594"/>
</g>
<!-- Node4 -->
<g id="node4" class="node">
<title>Node4</title>
<g id="a_node4"><a xlink:href="../../dc/de8/classTShop.html#a789d5e786476555b588aece81642f6f9" target="_top" xlink:title=" ">
<polygon fill="white" stroke="#666666" points="308.5,-637 231.5,-637 231.5,-618 308.5,-618 308.5,-637"/>
<text text-anchor="middle" x="270" y="-625" font-family="Helvetica,sans-Serif" font-size="10.00">TShop::Shop</text>
</a>
</g>
</g>
<!-- Node3&#45;&gt;Node4 -->
<g id="edge3" class="edge">
<title>Node3&#45;&gt;Node4</title>
<path fill="none" stroke="#63b8ff" d="M396.84,-627.5C367.77,-627.5 333.94,-627.5 308.69,-627.5"/>
<polygon fill="#63b8ff" stroke="#63b8ff" points="396.9,-631 406.9,-627.5 396.9,-624 396.9,-631"/>
</g>
<!-- Node6&#45;&gt;Node7 -->
<g id="edge6" class="edge">
<title>Node6&#45;&gt;Node7</title>
<path fill="none" stroke="#63b8ff" d="M616.75,-486.27C576.13,-493.58 522.13,-503.31 489.28,-509.23"/>
<polygon fill="#63b8ff" stroke="#63b8ff" points="617.55,-489.68 626.77,-484.47 616.31,-482.79 617.55,-489.68"/>
</g>
<!-- Node11 -->
<g id="node11" class="node">
<title>Node11</title>
<g id="a_node11"><a xlink:href="../../df/dbf/TestTLevelReader_8cpp.html#a0b38a70622c5f89d667fa6639c424089" target="_top" xlink:title=" ">
<polygon fill="white" stroke="#666666" points="479.5,-468 438.5,-468 438.5,-449 479.5,-449 479.5,-468"/>
<text text-anchor="middle" x="459" y="-456" font-family="Helvetica,sans-Serif" font-size="10.00">TEST</text>
</a>
</g>
</g>
<!-- Node6&#45;&gt;Node11 -->
<g id="edge10" class="edge">
<title>Node6&#45;&gt;Node11</title>
<path fill="none" stroke="#63b8ff" d="M616.6,-471.86C571.75,-468.03 510.64,-462.82 479.7,-460.18"/>
<polygon fill="#63b8ff" stroke="#63b8ff" points="616.51,-475.36 626.77,-472.73 617.1,-468.39 616.51,-475.36"/>
</g>
<!-- Node7&#45;&gt;Node8 -->
<g id="edge7" class="edge">
<title>Node7&#45;&gt;Node8</title>
<path fill="none" stroke="#63b8ff" d="M418.94,-522.44C388.47,-528.63 346.17,-537.22 314.61,-543.64"/>
<polygon fill="#63b8ff" stroke="#63b8ff" points="419.68,-525.86 428.78,-520.44 418.28,-519 419.68,-525.86"/>
</g>
<!-- Node10 -->
<g id="node10" class="node">
<title>Node10</title>
<g id="a_node10"><a xlink:href="../../df/dbf/TestTLevelReader_8cpp.html#a7345c8c1666adc3189772b4d8c854505" target="_top" xlink:title=" ">
<polygon fill="white" stroke="#666666" points="290.5,-524 249.5,-524 249.5,-505 290.5,-505 290.5,-524"/>
<text text-anchor="middle" x="270" y="-512" font-family="Helvetica,sans-Serif" font-size="10.00">TEST</text>
</a>
</g>
</g>
<!-- Node7&#45;&gt;Node10 -->
<g id="edge9" class="edge">
<title>Node7&#45;&gt;Node10</title>
<path fill="none" stroke="#63b8ff" d="M418.77,-514.5C379.54,-514.5 320.82,-514.5 290.57,-514.5"/>
<polygon fill="#63b8ff" stroke="#63b8ff" points="418.78,-518 428.78,-514.5 418.78,-511 418.78,-518"/>
</g>
<!-- Node9 -->
<g id="node9" class="node">
<title>Node9</title>
<g id="a_node9"><a xlink:href="../../df/dbf/TestTLevelReader_8cpp.html#a755cf3ec78fcb2c18a1579f855288e53" target="_top" xlink:title=" ">
<polygon fill="white" stroke="#666666" points="99,-562 58,-562 58,-543 99,-543 99,-562"/>
<text text-anchor="middle" x="78.5" y="-550" font-family="Helvetica,sans-Serif" font-size="10.00">TEST</text>
</a>
</g>
</g>
<!-- Node8&#45;&gt;Node9 -->
<g id="edge8" class="edge">
<title>Node8&#45;&gt;Node9</title>
<path fill="none" stroke="#63b8ff" d="M214.99,-552.5C176.4,-552.5 126.67,-552.5 99.47,-552.5"/>
<polygon fill="#63b8ff" stroke="#63b8ff" points="215.05,-556 225.05,-552.5 215.05,-549 215.05,-556"/>
</g>
<!-- Node13 -->
<g id="node13" class="node">
<title>Node13</title>
<g id="a_node13"><a xlink:href="../../d6/de3/TestTShop_8cpp.html#a9090d51b3bf731e31e72a99c51bb40c1" target="_top" xlink:title=" ">
<polygon fill="white" stroke="#666666" points="479.5,-412 438.5,-412 438.5,-393 479.5,-393 479.5,-412"/>
<text text-anchor="middle" x="459" y="-400" font-family="Helvetica,sans-Serif" font-size="10.00">TEST</text>
</a>
</g>
</g>
<!-- Node12&#45;&gt;Node13 -->
<g id="edge13" class="edge">
<title>Node12&#45;&gt;Node13</title>
<path fill="none" stroke="#63b8ff" d="M632.1,-402.5C587.01,-402.5 514.45,-402.5 479.74,-402.5"/>
<polygon fill="#63b8ff" stroke="#63b8ff" points="632.1,-406 642.1,-402.5 632.1,-399 632.1,-406"/>
</g>
<!-- Node14&#45;&gt;Node11 -->
<g id="edge16" class="edge">
<title>Node14&#45;&gt;Node11</title>
<path fill="none" stroke="#63b8ff" d="M622.59,-443.86C577.27,-447.94 511.83,-453.83 479.53,-456.74"/>
<polygon fill="#63b8ff" stroke="#63b8ff" points="623.14,-447.32 632.79,-442.94 622.52,-440.35 623.14,-447.32"/>
</g>
<!-- Node16 -->
<g id="node16" class="node">
<title>Node16</title>
<g id="a_node16"><a xlink:href="../../d6/de3/TestTShop_8cpp.html#a937e13c3ba627f9a4aaa50df1b38f793" target="_top" xlink:title=" ">
<polygon fill="white" stroke="#666666" points="479.5,-375 438.5,-375 438.5,-356 479.5,-356 479.5,-375"/>
<text text-anchor="middle" x="459" y="-363" font-family="Helvetica,sans-Serif" font-size="10.00">TEST</text>
</a>
</g>
</g>
<!-- Node15&#45;&gt;Node16 -->
<g id="edge18" class="edge">
<title>Node15&#45;&gt;Node16</title>
<path fill="none" stroke="#63b8ff" d="M621.61,-365.5C576.37,-365.5 511.7,-365.5 479.61,-365.5"/>
<polygon fill="#63b8ff" stroke="#63b8ff" points="621.81,-369 631.81,-365.5 621.81,-362 621.81,-369"/>
</g>
<!-- Node18 -->
<g id="node18" class="node">
<title>Node18</title>
<g id="a_node18"><a xlink:href="../../db/dab/classTPlaying.html#a8599ce61fd2748b737b054b0a5c62647" target="_top" xlink:title=" ">
<polygon fill="white" stroke="#666666" points="520.5,-338 397.5,-338 397.5,-319 520.5,-319 520.5,-338"/>
<text text-anchor="middle" x="459" y="-326" font-family="Helvetica,sans-Serif" font-size="10.00">TPlaying::MakeMoves</text>
</a>
</g>
</g>
<!-- Node17&#45;&gt;Node18 -->
<g id="edge20" class="edge">
<title>Node17&#45;&gt;Node18</title>
<path fill="none" stroke="#63b8ff" d="M600.17,-328.5C574.39,-328.5 545.5,-328.5 520.68,-328.5"/>
<polygon fill="#63b8ff" stroke="#63b8ff" points="600.25,-332 610.25,-328.5 600.25,-325 600.25,-332"/>
</g>
<!-- Node19 -->
<g id="node19" class="node">
<title>Node19</title>
<g id="a_node19"><a xlink:href="../../db/dab/classTPlaying.html#a55b9a1e2159468036c18440cd361c749" target="_top" xlink:title=" ">
<polygon fill="white" stroke="#666666" points="313,-338 227,-338 227,-319 313,-319 313,-338"/>
<text text-anchor="middle" x="270" y="-326" font-family="Helvetica,sans-Serif" font-size="10.00">TPlaying::Play</text>
</a>
</g>
</g>
<!-- Node18&#45;&gt;Node19 -->
<g id="edge21" class="edge">
<title>Node18&#45;&gt;Node19</title>
<path fill="none" stroke="#63b8ff" d="M387.12,-328.5C362.16,-328.5 334.91,-328.5 313.09,-328.5"/>
<polygon fill="#63b8ff" stroke="#63b8ff" points="387.29,-332 397.29,-328.5 387.29,-325 387.29,-332"/>
</g>
<!-- Node21 -->
<g id="node21" class="node">
<title>Node21</title>
<g id="a_node21"><a xlink:href="../../d5/d99/classTLevelReader.html#a5e3953bd0caf6e6c60d6750ff732150a" target="_top" xlink:title=" ">
<polygon fill="white" stroke="#666666" points="535,-226.5 383,-226.5 383,-196.5 535,-196.5 535,-226.5"/>
<text text-anchor="start" x="391" y="-214.5" font-family="Helvetica,sans-Serif" font-size="10.00">TLevelReader::ReadMission</text>
<text text-anchor="middle" x="459" y="-203.5" font-family="Helvetica,sans-Serif" font-size="10.00">InfoFromStream</text>
</a>
</g>
</g>
<!-- Node20&#45;&gt;Node21 -->
<g id="edge23" class="edge">
<title>Node20&#45;&gt;Node21</title>
<path fill="none" stroke="#63b8ff" d="M585.47,-226.96C568.84,-224.91 551.52,-222.78 535.25,-220.77"/>
<polygon fill="#63b8ff" stroke="#63b8ff" points="585.36,-230.47 595.72,-228.22 586.22,-223.53 585.36,-230.47"/>
</g>
<!-- Node25 -->
<g id="node25" class="node">
<title>Node25</title>
<g id="a_node25"><a xlink:href="../../df/dbf/TestTLevelReader_8cpp.html#a24daca223446d45d535988669914051e" target="_top" xlink:title=" ">
<polygon fill="white" stroke="#666666" points="479.5,-264 438.5,-264 438.5,-245 479.5,-245 479.5,-264"/>
<text text-anchor="middle" x="459" y="-252" font-family="Helvetica,sans-Serif" font-size="10.00">TEST</text>
</a>
</g>
</g>
<!-- Node20&#45;&gt;Node25 -->
<g id="edge27" class="edge">
<title>Node20&#45;&gt;Node25</title>
<path fill="none" stroke="#63b8ff" d="M585.4,-244.4C546.53,-247.53 503.92,-250.96 479.72,-252.91"/>
<polygon fill="#63b8ff" stroke="#63b8ff" points="586.03,-247.86 595.72,-243.57 585.47,-240.88 586.03,-247.86"/>
</g>
<!-- Node22 -->
<g id="node22" class="node">
<title>Node22</title>
<g id="a_node22"><a xlink:href="../../d2/dc1/classTLevelSelector.html#a1ce3be0dec7c17d6674837ff8742d5ee" target="_top" xlink:title=" ">
<polygon fill="white" stroke="#666666" points="347,-248.5 193,-248.5 193,-218.5 347,-218.5 347,-248.5"/>
<text text-anchor="start" x="201" y="-236.5" font-family="Helvetica,sans-Serif" font-size="10.00">TLevelSelector::readMission</text>
<text text-anchor="middle" x="270" y="-225.5" font-family="Helvetica,sans-Serif" font-size="10.00">InfoFromStream</text>
</a>
</g>
</g>
<!-- Node21&#45;&gt;Node22 -->
<g id="edge24" class="edge">
<title>Node21&#45;&gt;Node22</title>
<path fill="none" stroke="#63b8ff" d="M372.74,-221.53C364.16,-222.54 355.49,-223.56 347.01,-224.56"/>
<polygon fill="#63b8ff" stroke="#63b8ff" points="373.23,-225 382.75,-220.35 372.41,-218.05 373.23,-225"/>
</g>
<!-- Node24 -->
<g id="node24" class="node">
<title>Node24</title>
<g id="a_node24"><a xlink:href="../../df/dbf/TestTLevelReader_8cpp.html#a5b89023c1d74cccde2a4947bc710cd5b" target="_top" xlink:title=" ">
<polygon fill="white" stroke="#666666" points="290.5,-200 249.5,-200 249.5,-181 290.5,-181 290.5,-200"/>
<text text-anchor="middle" x="270" y="-188" font-family="Helvetica,sans-Serif" font-size="10.00">TEST</text>
</a>
</g>
</g>
<!-- Node21&#45;&gt;Node24 -->
<g id="edge26" class="edge">
<title>Node21&#45;&gt;Node24</title>
<path fill="none" stroke="#63b8ff" d="M372.46,-201.89C341.95,-198.47 310.29,-194.91 290.63,-192.7"/>
<polygon fill="#63b8ff" stroke="#63b8ff" points="372.42,-205.41 382.75,-203.05 373.2,-198.46 372.42,-205.41"/>
</g>
<!-- Node23 -->
<g id="node23" class="node">
<title>Node23</title>
<g id="a_node23"><a xlink:href="../../d2/dc1/classTLevelSelector.html#a8052aa13fccc78befaf7cd0cc95fbe97" target="_top" xlink:title=" ">
<polygon fill="white" stroke="#666666" points="157,-243 0,-243 0,-224 157,-224 157,-243"/>
<text text-anchor="middle" x="78.5" y="-231" font-family="Helvetica,sans-Serif" font-size="10.00">TLevelSelector::ChooseLevel</text>
</a>
</g>
</g>
<!-- Node22&#45;&gt;Node23 -->
<g id="edge25" class="edge">
<title>Node22&#45;&gt;Node23</title>
<path fill="none" stroke="#63b8ff" d="M182.49,-233.5C174.04,-233.5 165.5,-233.5 157.15,-233.5"/>
<polygon fill="#63b8ff" stroke="#63b8ff" points="182.74,-237 192.74,-233.5 182.74,-230 182.74,-237"/>
</g>
<!-- Node27 -->
<g id="node27" class="node">
<title>Node27</title>
<g id="a_node27"><a xlink:href="../../df/dbf/TestTLevelReader_8cpp.html#a6c36f508b1750d59e3ab18b7a77174ea" target="_top" xlink:title=" ">
<polygon fill="white" stroke="#666666" points="479.5,-67 438.5,-67 438.5,-48 479.5,-48 479.5,-67"/>
<text text-anchor="middle" x="459" y="-55" font-family="Helvetica,sans-Serif" font-size="10.00">TEST</text>
</a>
</g>
</g>
<!-- Node26&#45;&gt;Node27 -->
<g id="edge29" class="edge">
<title>Node26&#45;&gt;Node27</title>
<path fill="none" stroke="#63b8ff" d="M595.89,-74.25C554.53,-69.15 506.35,-63.21 479.91,-59.95"/>
<polygon fill="#63b8ff" stroke="#63b8ff" points="595.62,-77.74 605.97,-75.49 596.47,-70.79 595.62,-77.74"/>
</g>
<!-- Node28&#45;&gt;Node21 -->
<g id="edge31" class="edge">
<title>Node28&#45;&gt;Node21</title>
<path fill="none" stroke="#63b8ff" d="M590.4,-268.96C583.73,-266.75 577.19,-264.27 571,-261.5 553.22,-253.53 552.42,-245.22 535,-236.5 527.64,-232.81 519.61,-229.48 511.62,-226.54"/>
<polygon fill="#63b8ff" stroke="#63b8ff" points="589.65,-272.39 600.23,-272.01 591.72,-265.7 589.65,-272.39"/>
</g>
<!-- Node29 -->
<g id="node29" class="node">
<title>Node29</title>
<g id="a_node29"><a xlink:href="../../df/dbf/TestTLevelReader_8cpp.html#ae486e71c128cb1945779cfcc50810a9e" target="_top" xlink:title=" ">
<polygon fill="white" stroke="#666666" points="479.5,-301 438.5,-301 438.5,-282 479.5,-282 479.5,-301"/>
<text text-anchor="middle" x="459" y="-289" font-family="Helvetica,sans-Serif" font-size="10.00">TEST</text>
</a>
</g>
</g>
<!-- Node28&#45;&gt;Node29 -->
<g id="edge32" class="edge">
<title>Node28&#45;&gt;Node29</title>
<path fill="none" stroke="#63b8ff" d="M590.37,-287.79C550.23,-288.93 504.99,-290.22 479.75,-290.94"/>
<polygon fill="#63b8ff" stroke="#63b8ff" points="590.55,-291.29 600.45,-287.51 590.35,-284.29 590.55,-291.29"/>
</g>
<!-- Node30&#45;&gt;Node21 -->
<g id="edge34" class="edge">
<title>Node30&#45;&gt;Node21</title>
<path fill="none" stroke="#63b8ff" d="M591.73,-200.89C573.17,-202.38 553.44,-203.97 535.07,-205.45"/>
<polygon fill="#63b8ff" stroke="#63b8ff" points="592.22,-204.36 601.91,-200.07 591.66,-197.38 592.22,-204.36"/>
</g>
<!-- Node31 -->
<g id="node31" class="node">
<title>Node31</title>
<g id="a_node31"><a xlink:href="../../df/dbf/TestTLevelReader_8cpp.html#ae1685fd5cbbb95637c7623fffb0a0a7f" target="_top" xlink:title=" ">
<polygon fill="white" stroke="#666666" points="479.5,-178 438.5,-178 438.5,-159 479.5,-159 479.5,-178"/>
<text text-anchor="middle" x="459" y="-166" font-family="Helvetica,sans-Serif" font-size="10.00">TEST</text>
</a>
</g>
</g>
<!-- Node30&#45;&gt;Node31 -->
<g id="edge35" class="edge">
<title>Node30&#45;&gt;Node31</title>
<path fill="none" stroke="#63b8ff" d="M591.73,-184.73C551.16,-179.73 505.07,-174.05 479.58,-170.91"/>
<polygon fill="#63b8ff" stroke="#63b8ff" points="591.56,-188.24 601.91,-185.99 592.41,-181.29 591.56,-188.24"/>
</g>
<!-- Node32&#45;&gt;Node21 -->
<g id="edge37" class="edge">
<title>Node32&#45;&gt;Node21</title>
<path fill="none" stroke="#63b8ff" d="M604.27,-169.05C593.11,-171.3 581.69,-173.81 571,-176.5 564.41,-178.16 534.11,-187.74 506.82,-196.45"/>
<polygon fill="#63b8ff" stroke="#63b8ff" points="605.28,-172.41 614.42,-167.05 603.93,-165.55 605.28,-172.41"/>
</g>
<!-- Node33 -->
<g id="node33" class="node">
<title>Node33</title>
<g id="a_node33"><a xlink:href="../../df/dbf/TestTLevelReader_8cpp.html#a3d91a40a002dd06ad7a815653e1c1bfd" target="_top" xlink:title=" ">
<polygon fill="white" stroke="#666666" points="479.5,-141 438.5,-141 438.5,-122 479.5,-122 479.5,-141"/>
<text text-anchor="middle" x="459" y="-129" font-family="Helvetica,sans-Serif" font-size="10.00">TEST</text>
</a>
</g>
</g>
<!-- Node32&#45;&gt;Node33 -->
<g id="edge38" class="edge">
<title>Node32&#45;&gt;Node33</title>
<path fill="none" stroke="#63b8ff" d="M583.45,-146.71C545.13,-141.99 503.55,-136.87 479.75,-133.93"/>
<polygon fill="#63b8ff" stroke="#63b8ff" points="583.28,-150.22 593.63,-147.97 584.13,-143.27 583.28,-150.22"/>
</g>
<!-- Node34&#45;&gt;Node21 -->
<g id="edge40" class="edge">
<title>Node34&#45;&gt;Node21</title>
<path fill="none" stroke="#63b8ff" d="M583.33,-133.06C579.04,-134.93 574.9,-137.07 571,-139.5 548.37,-153.61 556.73,-172.04 535,-187.5 530.21,-190.91 524.91,-193.85 519.42,-196.38"/>
<polygon fill="#63b8ff" stroke="#63b8ff" points="584.86,-136.23 592.94,-129.37 582.35,-129.69 584.86,-136.23"/>
</g>
<!-- Node35 -->
<g id="node35" class="node">
<title>Node35</title>
<g id="a_node35"><a xlink:href="../../df/dbf/TestTLevelReader_8cpp.html#a5d44caed3904c1ef6c734477bed059f0" target="_top" xlink:title=" ">
<polygon fill="white" stroke="#666666" points="479.5,-104 438.5,-104 438.5,-85 479.5,-85 479.5,-104"/>
<text text-anchor="middle" x="459" y="-92" font-family="Helvetica,sans-Serif" font-size="10.00">TEST</text>
</a>
</g>
</g>
<!-- Node34&#45;&gt;Node35 -->
<g id="edge41" class="edge">
<title>Node34&#45;&gt;Node35</title>
<path fill="none" stroke="#63b8ff" d="M583.45,-109.71C545.13,-104.99 503.55,-99.87 479.75,-96.93"/>
<polygon fill="#63b8ff" stroke="#63b8ff" points="583.28,-113.22 593.63,-110.97 584.13,-106.27 583.28,-113.22"/>
</g>
<!-- Node37 -->
<g id="node37" class="node">
<title>Node37</title>
<g id="a_node37"><a xlink:href="../../d7/d10/TestTSpawnDescriptor_8cpp.html#a7f1801058178298fe72c82028b1d553f" target="_top" xlink:title=" ">
<polygon fill="white" stroke="#666666" points="479.5,-30 438.5,-30 438.5,-11 479.5,-11 479.5,-30"/>
<text text-anchor="middle" x="459" y="-18" font-family="Helvetica,sans-Serif" font-size="10.00">TEST</text>
</a>
</g>
</g>
<!-- Node36&#45;&gt;Node37 -->
<g id="edge43" class="edge">
<title>Node36&#45;&gt;Node37</title>
<path fill="none" stroke="#63b8ff" d="M590.37,-36.56C550.23,-31.62 504.99,-26.04 479.75,-22.93"/>
<polygon fill="#63b8ff" stroke="#63b8ff" points="590.09,-40.06 600.45,-37.81 590.95,-33.11 590.09,-40.06"/>
</g>
</g>
</svg>
