<?xml version="1.0" encoding="UTF-8" standalone="no"?>
<!DOCTYPE svg PUBLIC "-//W3C//DTD SVG 1.1//EN"
 "http://www.w3.org/Graphics/SVG/1.1/DTD/svg11.dtd">
<!-- Generated by graphviz version 2.43.0 (0)
 -->
<!-- Title: MyList::getById Pages: 1 -->
<svg width="1053pt" height="392pt"
 viewBox="0.00 0.00 1053.00 392.00" xmlns="http://www.w3.org/2000/svg" xmlns:xlink="http://www.w3.org/1999/xlink">
<g id="graph0" class="graph" transform="scale(1 1) rotate(0) translate(4 388)">
<title>MyList::getById</title>
<!-- Node1 -->
<g id="node1" class="node">
<title>Node1</title>
<g id="a_node1"><a xlink:title=" ">
<polygon fill="#999999" stroke="#666666" points="1045,-170 953,-170 953,-151 1045,-151 1045,-170"/>
<text text-anchor="middle" x="999" y="-158" font-family="Helvetica,sans-Serif" font-size="10.00">MyList::getById</text>
</a>
</g>
</g>
<!-- Node2 -->
<g id="node2" class="node">
<title>Node2</title>
<g id="a_node2"><a xlink:href="../../dc/de8/classTShop.html#ac463d2ee0ef76283f4dac87a51353c36" target="_top" xlink:title=" ">
<polygon fill="white" stroke="#666666" points="879,-347 788,-347 788,-328 879,-328 879,-347"/>
<text text-anchor="middle" x="833.5" y="-335" font-family="Helvetica,sans-Serif" font-size="10.00">TShop::BuyGun</text>
</a>
</g>
</g>
<!-- Node1&#45;&gt;Node2 -->
<g id="edge1" class="edge">
<title>Node1&#45;&gt;Node2</title>
<path fill="none" stroke="#63b8ff" d="M993.01,-180.14C983.7,-212.76 960.57,-278.02 917,-313.5 906.24,-322.26 892.41,-327.82 879.17,-331.36"/>
<polygon fill="#63b8ff" stroke="#63b8ff" points="996.5,-180.63 995.74,-170.07 989.75,-178.8 996.5,-180.63"/>
</g>
<!-- Node6 -->
<g id="node6" class="node">
<title>Node6</title>
<g id="a_node6"><a xlink:href="../../df/dbf/TestTLevelReader_8cpp.html#ac86806b1ea40e9e267dcb76e291d2c89" target="_top" xlink:title=" ">
<polygon fill="white" stroke="#666666" points="687,-310 598,-310 598,-291 687,-291 687,-310"/>
<text text-anchor="middle" x="642.5" y="-298" font-family="Helvetica,sans-Serif" font-size="10.00">GetDescriptors</text>
</a>
</g>
</g>
<!-- Node1&#45;&gt;Node6 -->
<g id="edge5" class="edge">
<title>Node1&#45;&gt;Node6</title>
<path fill="none" stroke="#63b8ff" d="M991.33,-179.54C980.53,-207.21 956.34,-257.71 917,-280.5 845.11,-322.14 744.15,-316.31 687.15,-308.37"/>
<polygon fill="#63b8ff" stroke="#63b8ff" points="994.62,-180.75 994.82,-170.16 988.06,-178.31 994.62,-180.75"/>
</g>
<!-- Node8 -->
<g id="node8" class="node">
<title>Node8</title>
<g id="a_node8"><a xlink:href="../../df/dbf/TestTLevelReader_8cpp.html#a32e07d67b7efd1d03d13a110958eece8" target="_top" xlink:title=" ">
<polygon fill="white" stroke="#666666" points="863.5,-271 803.5,-271 803.5,-252 863.5,-252 863.5,-271"/>
<text text-anchor="middle" x="833.5" y="-259" font-family="Helvetica,sans-Serif" font-size="10.00">GetShips</text>
</a>
</g>
</g>
<!-- Node1&#45;&gt;Node8 -->
<g id="edge7" class="edge">
<title>Node1&#45;&gt;Node8</title>
<path fill="none" stroke="#63b8ff" d="M973.77,-175.47C939.67,-196.53 878.5,-234.32 849.96,-251.95"/>
<polygon fill="#63b8ff" stroke="#63b8ff" points="975.95,-178.24 982.62,-170 972.27,-172.28 975.95,-178.24"/>
</g>
<!-- Node10 -->
<g id="node10" class="node">
<title>Node10</title>
<g id="a_node10"><a xlink:href="../../db/dab/classTPlaying.html#a029211b1dce0b41bb75ee19a8db34550" target="_top" xlink:title=" ">
<polygon fill="white" stroke="#666666" points="890,-56 777,-56 777,-37 890,-37 890,-56"/>
<text text-anchor="middle" x="833.5" y="-44" font-family="Helvetica,sans-Serif" font-size="10.00">TPlaying::MakeShot</text>
</a>
</g>
</g>
<!-- Node1&#45;&gt;Node10 -->
<g id="edge10" class="edge">
<title>Node1&#45;&gt;Node10</title>
<path fill="none" stroke="#63b8ff" d="M983.53,-143.37C968.34,-126.21 943.09,-99.93 917,-82.5 900.24,-71.3 879.42,-62.25 862.89,-56.02"/>
<polygon fill="#63b8ff" stroke="#63b8ff" points="980.94,-145.72 990.13,-150.98 986.22,-141.13 980.94,-145.72"/>
</g>
<!-- Node13 -->
<g id="node13" class="node">
<title>Node13</title>
<g id="a_node13"><a xlink:href="../../d5/d99/classTLevelReader.html#a5e3953bd0caf6e6c60d6750ff732150a" target="_top" xlink:title=" ">
<polygon fill="white" stroke="#666666" points="535,-154.5 383,-154.5 383,-124.5 535,-124.5 535,-154.5"/>
<text text-anchor="start" x="391" y="-142.5" font-family="Helvetica,sans-Serif" font-size="10.00">TLevelReader::ReadMission</text>
<text text-anchor="middle" x="459" y="-131.5" font-family="Helvetica,sans-Serif" font-size="10.00">InfoFromStream</text>
</a>
</g>
</g>
<!-- Node1&#45;&gt;Node13 -->
<g id="edge14" class="edge">
<title>Node1&#45;&gt;Node13</title>
<path fill="none" stroke="#63b8ff" d="M942.4,-158.33C845.26,-154.54 644.59,-146.71 535.17,-142.43"/>
<polygon fill="#63b8ff" stroke="#63b8ff" points="942.47,-161.83 952.59,-158.73 942.74,-154.84 942.47,-161.83"/>
</g>
<!-- Node17 -->
<g id="node17" class="node">
<title>Node17</title>
<g id="a_node17"><a xlink:href="../../d5/d99/classTLevelReader.html#a98a8afd39b4ade7d9e3843a51109ea1d" target="_top" xlink:title=" ">
<polygon fill="white" stroke="#666666" points="917,-192 750,-192 750,-173 917,-173 917,-192"/>
<text text-anchor="middle" x="833.5" y="-180" font-family="Helvetica,sans-Serif" font-size="10.00">TLevelReader::ReadPirateBase</text>
</a>
</g>
</g>
<!-- Node1&#45;&gt;Node17 -->
<g id="edge18" class="edge">
<title>Node1&#45;&gt;Node17</title>
<path fill="none" stroke="#63b8ff" d="M942.95,-167.91C930.84,-169.54 917.86,-171.28 905.23,-172.98"/>
<polygon fill="#63b8ff" stroke="#63b8ff" points="943.45,-171.37 952.89,-166.57 942.51,-164.43 943.45,-171.37"/>
</g>
<!-- Node20 -->
<g id="node20" class="node">
<title>Node20</title>
<g id="a_node20"><a xlink:href="../../d5/d99/classTLevelReader.html#a111bc6a9c4250c31a0689e62f7113254" target="_top" xlink:title=" ">
<polygon fill="white" stroke="#666666" points="901,-111 766,-111 766,-92 901,-92 901,-111"/>
<text text-anchor="middle" x="833.5" y="-99" font-family="Helvetica,sans-Serif" font-size="10.00">TLevelReader::ReadShip</text>
</a>
</g>
</g>
<!-- Node1&#45;&gt;Node20 -->
<g id="edge23" class="edge">
<title>Node1&#45;&gt;Node20</title>
<path fill="none" stroke="#63b8ff" d="M968.26,-146.59C953.1,-139.77 934.26,-131.71 917,-125.5 902.12,-120.15 885.42,-115.11 870.96,-111.05"/>
<polygon fill="#63b8ff" stroke="#63b8ff" points="967.09,-149.9 977.64,-150.86 969.99,-143.53 967.09,-149.9"/>
</g>
<!-- Node24 -->
<g id="node24" class="node">
<title>Node24</title>
<g id="a_node24"><a xlink:href="../../db/d41/TestMyList_8cpp.html#ae0658563523aeaf2785282b1b3beef48" target="_top" xlink:title=" ">
<polygon fill="white" stroke="#666666" points="854,-19 813,-19 813,0 854,0 854,-19"/>
<text text-anchor="middle" x="833.5" y="-7" font-family="Helvetica,sans-Serif" font-size="10.00">TEST</text>
</a>
</g>
</g>
<!-- Node1&#45;&gt;Node24 -->
<g id="edge28" class="edge">
<title>Node1&#45;&gt;Node24</title>
<path fill="none" stroke="#63b8ff" d="M991.9,-141.45C981.49,-112.13 957.39,-56.29 917,-27.5 898.5,-14.31 872.16,-10.49 854.25,-9.54"/>
<polygon fill="#63b8ff" stroke="#63b8ff" points="988.6,-142.61 995.13,-150.96 995.23,-140.37 988.6,-142.61"/>
</g>
<!-- Node3 -->
<g id="node3" class="node">
<title>Node3</title>
<g id="a_node3"><a xlink:href="../../dc/de8/classTShop.html#a1dcf7617180c288121288af2ed21909b" target="_top" xlink:title=" ">
<polygon fill="white" stroke="#666666" points="694.5,-384 590.5,-384 590.5,-365 694.5,-365 694.5,-384"/>
<text text-anchor="middle" x="642.5" y="-372" font-family="Helvetica,sans-Serif" font-size="10.00">TShop::MainMenu</text>
</a>
</g>
</g>
<!-- Node2&#45;&gt;Node3 -->
<g id="edge2" class="edge">
<title>Node2&#45;&gt;Node3</title>
<path fill="none" stroke="#63b8ff" d="M777.65,-348.24C750.66,-353.52 718.4,-359.84 692.28,-364.95"/>
<polygon fill="#63b8ff" stroke="#63b8ff" points="778.57,-351.62 787.71,-346.27 777.22,-344.75 778.57,-351.62"/>
</g>
<!-- Node5 -->
<g id="node5" class="node">
<title>Node5</title>
<g id="a_node5"><a xlink:href="../../d6/de3/TestTShop_8cpp.html#a9090d51b3bf731e31e72a99c51bb40c1" target="_top" xlink:title=" ">
<polygon fill="white" stroke="#666666" points="663,-347 622,-347 622,-328 663,-328 663,-347"/>
<text text-anchor="middle" x="642.5" y="-335" font-family="Helvetica,sans-Serif" font-size="10.00">TEST</text>
</a>
</g>
</g>
<!-- Node2&#45;&gt;Node5 -->
<g id="edge4" class="edge">
<title>Node2&#45;&gt;Node5</title>
<path fill="none" stroke="#63b8ff" d="M777.68,-337.5C739.23,-337.5 690.07,-337.5 663.21,-337.5"/>
<polygon fill="#63b8ff" stroke="#63b8ff" points="777.71,-341 787.71,-337.5 777.71,-334 777.71,-341"/>
</g>
<!-- Node4 -->
<g id="node4" class="node">
<title>Node4</title>
<g id="a_node4"><a xlink:href="../../dc/de8/classTShop.html#a789d5e786476555b588aece81642f6f9" target="_top" xlink:title=" ">
<polygon fill="white" stroke="#666666" points="497.5,-384 420.5,-384 420.5,-365 497.5,-365 497.5,-384"/>
<text text-anchor="middle" x="459" y="-372" font-family="Helvetica,sans-Serif" font-size="10.00">TShop::Shop</text>
</a>
</g>
</g>
<!-- Node3&#45;&gt;Node4 -->
<g id="edge3" class="edge">
<title>Node3&#45;&gt;Node4</title>
<path fill="none" stroke="#63b8ff" d="M580.2,-374.5C552.87,-374.5 521.53,-374.5 497.71,-374.5"/>
<polygon fill="#63b8ff" stroke="#63b8ff" points="580.46,-378 590.46,-374.5 580.46,-371 580.46,-378"/>
</g>
<!-- Node7 -->
<g id="node7" class="node">
<title>Node7</title>
<g id="a_node7"><a xlink:href="../../df/dbf/TestTLevelReader_8cpp.html#a755cf3ec78fcb2c18a1579f855288e53" target="_top" xlink:title=" ">
<polygon fill="white" stroke="#666666" points="479.5,-272 438.5,-272 438.5,-253 479.5,-253 479.5,-272"/>
<text text-anchor="middle" x="459" y="-260" font-family="Helvetica,sans-Serif" font-size="10.00">TEST</text>
</a>
</g>
</g>
<!-- Node6&#45;&gt;Node7 -->
<g id="edge6" class="edge">
<title>Node6&#45;&gt;Node7</title>
<path fill="none" stroke="#63b8ff" d="M587.58,-289.21C551.2,-281.59 505.3,-271.98 479.66,-266.62"/>
<polygon fill="#63b8ff" stroke="#63b8ff" points="587.06,-292.68 597.56,-291.3 588.49,-285.83 587.06,-292.68"/>
</g>
<!-- Node8&#45;&gt;Node6 -->
<g id="edge8" class="edge">
<title>Node8&#45;&gt;Node6</title>
<path fill="none" stroke="#63b8ff" d="M793.38,-269.57C762.4,-275.97 719.14,-284.89 687.06,-291.51"/>
<polygon fill="#63b8ff" stroke="#63b8ff" points="794.3,-272.96 803.38,-267.51 792.88,-266.1 794.3,-272.96"/>
</g>
<!-- Node9 -->
<g id="node9" class="node">
<title>Node9</title>
<g id="a_node9"><a xlink:href="../../df/dbf/TestTLevelReader_8cpp.html#a7345c8c1666adc3189772b4d8c854505" target="_top" xlink:title=" ">
<polygon fill="white" stroke="#666666" points="663,-273 622,-273 622,-254 663,-254 663,-273"/>
<text text-anchor="middle" x="642.5" y="-261" font-family="Helvetica,sans-Serif" font-size="10.00">TEST</text>
</a>
</g>
</g>
<!-- Node8&#45;&gt;Node9 -->
<g id="edge9" class="edge">
<title>Node8&#45;&gt;Node9</title>
<path fill="none" stroke="#63b8ff" d="M793.25,-261.92C753.53,-262.34 693.74,-262.97 663.11,-263.29"/>
<polygon fill="#63b8ff" stroke="#63b8ff" points="793.42,-265.41 803.38,-261.81 793.35,-258.41 793.42,-265.41"/>
</g>
<!-- Node10&#45;&gt;Node10 -->
<g id="edge13" class="edge">
<title>Node10&#45;&gt;Node10</title>
<path fill="none" stroke="#63b8ff" d="M864.11,-64.82C862.83,-70.01 852.63,-74 833.5,-74 804.35,-74 795.93,-64.73 808.22,-56.08"/>
<polygon fill="#63b8ff" stroke="#63b8ff" points="866.98,-62.79 858.78,-56.08 861,-66.44 866.98,-62.79"/>
</g>
<!-- Node11 -->
<g id="node11" class="node">
<title>Node11</title>
<g id="a_node11"><a xlink:href="../../db/dab/classTPlaying.html#a8599ce61fd2748b737b054b0a5c62647" target="_top" xlink:title=" ">
<polygon fill="white" stroke="#666666" points="704,-37 581,-37 581,-18 704,-18 704,-37"/>
<text text-anchor="middle" x="642.5" y="-25" font-family="Helvetica,sans-Serif" font-size="10.00">TPlaying::MakeMoves</text>
</a>
</g>
</g>
<!-- Node10&#45;&gt;Node11 -->
<g id="edge11" class="edge">
<title>Node10&#45;&gt;Node11</title>
<path fill="none" stroke="#63b8ff" d="M766.69,-39.88C746.35,-37.84 724.04,-35.6 704.06,-33.59"/>
<polygon fill="#63b8ff" stroke="#63b8ff" points="766.52,-43.38 776.82,-40.9 767.22,-36.42 766.52,-43.38"/>
</g>
<!-- Node12 -->
<g id="node12" class="node">
<title>Node12</title>
<g id="a_node12"><a xlink:href="../../db/dab/classTPlaying.html#a55b9a1e2159468036c18440cd361c749" target="_top" xlink:title=" ">
<polygon fill="white" stroke="#666666" points="502,-37 416,-37 416,-18 502,-18 502,-37"/>
<text text-anchor="middle" x="459" y="-25" font-family="Helvetica,sans-Serif" font-size="10.00">TPlaying::Play</text>
</a>
</g>
</g>
<!-- Node11&#45;&gt;Node12 -->
<g id="edge12" class="edge">
<title>Node11&#45;&gt;Node12</title>
<path fill="none" stroke="#63b8ff" d="M570.65,-27.5C547.43,-27.5 522.39,-27.5 502.01,-27.5"/>
<polygon fill="#63b8ff" stroke="#63b8ff" points="570.81,-31 580.81,-27.5 570.81,-24 570.81,-31"/>
</g>
<!-- Node14 -->
<g id="node14" class="node">
<title>Node14</title>
<g id="a_node14"><a xlink:href="../../d2/dc1/classTLevelSelector.html#a1ce3be0dec7c17d6674837ff8742d5ee" target="_top" xlink:title=" ">
<polygon fill="white" stroke="#666666" points="347,-175.5 193,-175.5 193,-145.5 347,-145.5 347,-175.5"/>
<text text-anchor="start" x="201" y="-163.5" font-family="Helvetica,sans-Serif" font-size="10.00">TLevelSelector::readMission</text>
<text text-anchor="middle" x="270" y="-152.5" font-family="Helvetica,sans-Serif" font-size="10.00">InfoFromStream</text>
</a>
</g>
</g>
<!-- Node13&#45;&gt;Node14 -->
<g id="edge15" class="edge">
<title>Node13&#45;&gt;Node14</title>
<path fill="none" stroke="#63b8ff" d="M372.74,-149.07C364.16,-150.04 355.49,-151.01 347.01,-151.96"/>
<polygon fill="#63b8ff" stroke="#63b8ff" points="373.2,-152.54 382.75,-147.95 372.42,-145.59 373.2,-152.54"/>
</g>
<!-- Node16 -->
<g id="node16" class="node">
<title>Node16</title>
<g id="a_node16"><a xlink:href="../../df/dbf/TestTLevelReader_8cpp.html#a5b89023c1d74cccde2a4947bc710cd5b" target="_top" xlink:title=" ">
<polygon fill="white" stroke="#666666" points="290.5,-127 249.5,-127 249.5,-108 290.5,-108 290.5,-127"/>
<text text-anchor="middle" x="270" y="-115" font-family="Helvetica,sans-Serif" font-size="10.00">TEST</text>
</a>
</g>
</g>
<!-- Node13&#45;&gt;Node16 -->
<g id="edge17" class="edge">
<title>Node13&#45;&gt;Node16</title>
<path fill="none" stroke="#63b8ff" d="M372.46,-129.44C341.95,-125.85 310.29,-122.12 290.63,-119.81"/>
<polygon fill="#63b8ff" stroke="#63b8ff" points="372.41,-132.95 382.75,-130.65 373.23,-126 372.41,-132.95"/>
</g>
<!-- Node15 -->
<g id="node15" class="node">
<title>Node15</title>
<g id="a_node15"><a xlink:href="../../d2/dc1/classTLevelSelector.html#a8052aa13fccc78befaf7cd0cc95fbe97" target="_top" xlink:title=" ">
<polygon fill="white" stroke="#666666" points="157,-170 0,-170 0,-151 157,-151 157,-170"/>
<text text-anchor="middle" x="78.5" y="-158" font-family="Helvetica,sans-Serif" font-size="10.00">TLevelSelector::ChooseLevel</text>
</a>
</g>
</g>
<!-- Node14&#45;&gt;Node15 -->
<g id="edge16" class="edge">
<title>Node14&#45;&gt;Node15</title>
<path fill="none" stroke="#63b8ff" d="M182.49,-160.5C174.04,-160.5 165.5,-160.5 157.15,-160.5"/>
<polygon fill="#63b8ff" stroke="#63b8ff" points="182.74,-164 192.74,-160.5 182.74,-157 182.74,-164"/>
</g>
<!-- Node17&#45;&gt;Node7 -->
<g id="edge22" class="edge">
<title>Node17&#45;&gt;Node7</title>
<path fill="none" stroke="#63b8ff" d="M778.02,-194.2C693.58,-212.34 535.06,-246.38 479.69,-258.27"/>
<polygon fill="#63b8ff" stroke="#63b8ff" points="778.9,-197.59 787.94,-192.07 777.43,-190.75 778.9,-197.59"/>
</g>
<!-- Node18 -->
<g id="node18" class="node">
<title>Node18</title>
<g id="a_node18"><a xlink:href="../../d5/d99/classTLevelReader.html#ae7a5a65dfddd9c939dbdf18846054725" target="_top" xlink:title=" ">
<polygon fill="white" stroke="#666666" points="714,-197.5 571,-197.5 571,-167.5 714,-167.5 714,-197.5"/>
<text text-anchor="start" x="579" y="-185.5" font-family="Helvetica,sans-Serif" font-size="10.00">TLevelReader::ReadPirate</text>
<text text-anchor="middle" x="642.5" y="-174.5" font-family="Helvetica,sans-Serif" font-size="10.00">Bases</text>
</a>
</g>
</g>
<!-- Node17&#45;&gt;Node18 -->
<g id="edge19" class="edge">
<title>Node17&#45;&gt;Node18</title>
<path fill="none" stroke="#63b8ff" d="M739.78,-182.5C731.15,-182.5 722.5,-182.5 714.12,-182.5"/>
<polygon fill="#63b8ff" stroke="#63b8ff" points="739.88,-186 749.88,-182.5 739.88,-179 739.88,-186"/>
</g>
<!-- Node18&#45;&gt;Node13 -->
<g id="edge20" class="edge">
<title>Node18&#45;&gt;Node13</title>
<path fill="none" stroke="#63b8ff" d="M567.93,-165.07C553.19,-161.58 537.81,-157.93 523.44,-154.53"/>
<polygon fill="#63b8ff" stroke="#63b8ff" points="567.48,-168.56 578.02,-167.46 569.1,-161.75 567.48,-168.56"/>
</g>
<!-- Node19 -->
<g id="node19" class="node">
<title>Node19</title>
<g id="a_node19"><a xlink:href="../../df/dbf/TestTLevelReader_8cpp.html#ae486e71c128cb1945779cfcc50810a9e" target="_top" xlink:title=" ">
<polygon fill="white" stroke="#666666" points="479.5,-192 438.5,-192 438.5,-173 479.5,-173 479.5,-192"/>
<text text-anchor="middle" x="459" y="-180" font-family="Helvetica,sans-Serif" font-size="10.00">TEST</text>
</a>
</g>
</g>
<!-- Node18&#45;&gt;Node19 -->
<g id="edge21" class="edge">
<title>Node18&#45;&gt;Node19</title>
<path fill="none" stroke="#63b8ff" d="M560.7,-182.5C530.69,-182.5 499.21,-182.5 479.6,-182.5"/>
<polygon fill="#63b8ff" stroke="#63b8ff" points="560.81,-186 570.81,-182.5 560.81,-179 560.81,-186"/>
</g>
<!-- Node21 -->
<g id="node21" class="node">
<title>Node21</title>
<g id="a_node21"><a xlink:href="../../d5/d99/classTLevelReader.html#a06cbe367f372ca443af250d9c581b58b" target="_top" xlink:title=" ">
<polygon fill="white" stroke="#666666" points="712.5,-111 572.5,-111 572.5,-92 712.5,-92 712.5,-111"/>
<text text-anchor="middle" x="642.5" y="-99" font-family="Helvetica,sans-Serif" font-size="10.00">TLevelReader::ReadShips</text>
</a>
</g>
</g>
<!-- Node20&#45;&gt;Node21 -->
<g id="edge24" class="edge">
<title>Node20&#45;&gt;Node21</title>
<path fill="none" stroke="#63b8ff" d="M755.64,-101.5C741.44,-101.5 726.69,-101.5 712.73,-101.5"/>
<polygon fill="#63b8ff" stroke="#63b8ff" points="755.87,-105 765.87,-101.5 755.87,-98 755.87,-105"/>
</g>
<!-- Node23 -->
<g id="node23" class="node">
<title>Node23</title>
<g id="a_node23"><a xlink:href="../../df/dbf/TestTLevelReader_8cpp.html#a0b38a70622c5f89d667fa6639c424089" target="_top" xlink:title=" ">
<polygon fill="white" stroke="#666666" points="663,-74 622,-74 622,-55 663,-55 663,-74"/>
<text text-anchor="middle" x="642.5" y="-62" font-family="Helvetica,sans-Serif" font-size="10.00">TEST</text>
</a>
</g>
</g>
<!-- Node20&#45;&gt;Node23 -->
<g id="edge27" class="edge">
<title>Node20&#45;&gt;Node23</title>
<path fill="none" stroke="#63b8ff" d="M773.93,-90.03C736.14,-82.64 689.34,-73.47 663.32,-68.38"/>
<polygon fill="#63b8ff" stroke="#63b8ff" points="773.34,-93.49 783.83,-91.97 774.69,-86.62 773.34,-93.49"/>
</g>
<!-- Node21&#45;&gt;Node13 -->
<g id="edge25" class="edge">
<title>Node21&#45;&gt;Node13</title>
<path fill="none" stroke="#63b8ff" d="M585.44,-113.24C568.53,-116.78 549.72,-120.71 531.93,-124.44"/>
<polygon fill="#63b8ff" stroke="#63b8ff" points="586.63,-116.56 595.7,-111.09 585.19,-109.71 586.63,-116.56"/>
</g>
<!-- Node22 -->
<g id="node22" class="node">
<title>Node22</title>
<g id="a_node22"><a xlink:href="../../df/dbf/TestTLevelReader_8cpp.html#ae1685fd5cbbb95637c7623fffb0a0a7f" target="_top" xlink:title=" ">
<polygon fill="white" stroke="#666666" points="479.5,-106 438.5,-106 438.5,-87 479.5,-87 479.5,-106"/>
<text text-anchor="middle" x="459" y="-94" font-family="Helvetica,sans-Serif" font-size="10.00">TEST</text>
</a>
</g>
</g>
<!-- Node21&#45;&gt;Node22 -->
<g id="edge26" class="edge">
<title>Node21&#45;&gt;Node22</title>
<path fill="none" stroke="#63b8ff" d="M562.12,-99.31C531.67,-98.47 499.48,-97.59 479.57,-97.04"/>
<polygon fill="#63b8ff" stroke="#63b8ff" points="562.27,-102.82 572.36,-99.6 562.47,-95.82 562.27,-102.82"/>
</g>
</g>
</svg>
