<?xml version="1.0" encoding="UTF-8" standalone="no"?>
<!DOCTYPE svg PUBLIC "-//W3C//DTD SVG 1.1//EN"
 "http://www.w3.org/Graphics/SVG/1.1/DTD/svg11.dtd">
<!-- Generated by graphviz version 2.43.0 (0)
 -->
<!-- Title: MyList::begin Pages: 1 -->
<!--zoomable 378 -->
<svg id="main" version="1.1" xmlns="http://www.w3.org/2000/svg" xmlns:xlink="http://www.w3.org/1999/xlink" xml:space="preserve" onload="init(evt)">
<style type="text/css"><![CDATA[
.edge:hover path { stroke: red; }
.edge:hover polygon { stroke: red; fill: red; }
]]></style>
<script type="text/javascript"><![CDATA[
var edges = document.getElementsByTagName('g');
if (edges && edges.length) {
  for (var i=0;i<edges.length;i++) {
    if (edges[i].id.substr(0,4)=='edge') {
      edges[i].setAttribute('class','edge');
    }
  }
}
]]></script>
        <defs>
                <circle id="rim" cx="0" cy="0" r="7"/>
                <circle id="rim2" cx="0" cy="0" r="3.5"/>
                <g id="zoomPlus">
                        <use xlink:href="#rim" fill="#404040">
                                <set attributeName="fill" to="#808080" begin="zoomplus.mouseover" end="zoomplus.mouseout"/>
                        </use>
                        <path d="M-4,0h8M0,-4v8" fill="none" stroke="white" stroke-width="1.5" pointer-events="none"/>
                </g>
                <g id="zoomMin">
                        <use xlink:href="#rim" fill="#404040">
                                <set attributeName="fill" to="#808080" begin="zoomminus.mouseover" end="zoomminus.mouseout"/>
                        </use>
                        <path d="M-4,0h8" fill="none" stroke="white" stroke-width="1.5" pointer-events="none"/>
                </g>
                <g id="dirArrow">
                        <path fill="none" stroke="white" stroke-width="1.5" d="M0,-3.0v7 M-2.5,-0.5L0,-3.0L2.5,-0.5"/>
                </g>
               <g id="resetDef">
                       <use xlink:href="#rim2" fill="#404040">
                               <set attributeName="fill" to="#808080" begin="reset.mouseover" end="reset.mouseout"/>
                       </use>
               </g>
        </defs>

<script type="text/javascript">
var viewWidth = 522;
var viewHeight = 378;
var sectionId = 'dynsection-3';
</script>
<script xlink:href="../../svgpan.js"/>
<svg id="graph" class="graph">
<g id="viewport">
<title>MyList::begin</title>
<!-- Node1 -->
<g id="node1" class="node">
<title>Node1</title>
<g id="a_node1"><a xlink:title=" ">
<polygon fill="#999999" stroke="#666666" points="514,-185 432,-185 432,-166 514,-166 514,-185"/>
<text text-anchor="middle" x="473" y="-173" font-family="Helvetica,sans-Serif" font-size="10.00">MyList::begin</text>
</a>
</g>
</g>
<!-- Node2 -->
<g id="node2" class="node">
<title>Node2</title>
<g id="a_node2"><a xlink:href="../../dc/de8/classTShop.html#aef476da75c7312f1d68373c4883b20b0" target="_top" xlink:title=" ">
<polygon fill="white" stroke="#666666" points="377,-315 272,-315 272,-296 377,-296 377,-315"/>
<text text-anchor="middle" x="324.5" y="-303" font-family="Helvetica,sans-Serif" font-size="10.00">TShop::AddWeight</text>
</a>
</g>
</g>
<!-- Node1&#45;&gt;Node2 -->
<g id="edge1" class="edge">
<title>Node1&#45;&gt;Node2</title>
<path fill="none" stroke="#63b8ff" d="M464.41,-194.23C453.25,-219.38 429.97,-263.64 396,-287.5 390.31,-291.49 383.82,-294.6 377.12,-297.02"/>
<polygon fill="#63b8ff" stroke="#63b8ff" points="467.63,-195.6 468.34,-185.03 461.2,-192.86 467.63,-195.6"/>
</g>
<!-- Node6 -->
<g id="node6" class="node">
<title>Node6</title>
<g id="a_node6"><a xlink:href="../../dc/de8/classTShop.html#ac463d2ee0ef76283f4dac87a51353c36" target="_top" xlink:title=" ">
<polygon fill="white" stroke="#666666" points="370,-352 279,-352 279,-333 370,-333 370,-352"/>
<text text-anchor="middle" x="324.5" y="-340" font-family="Helvetica,sans-Serif" font-size="10.00">TShop::BuyGun</text>
</a>
</g>
</g>
<!-- Node1&#45;&gt;Node6 -->
<g id="edge5" class="edge">
<title>Node1&#45;&gt;Node6</title>
<path fill="none" stroke="#63b8ff" d="M467.53,-195.23C459.2,-227.35 438.2,-290.76 396,-324.5 388.6,-330.42 379.49,-334.41 370.3,-337.1"/>
<polygon fill="#63b8ff" stroke="#63b8ff" points="470.99,-195.82 469.96,-185.27 464.19,-194.16 470.99,-195.82"/>
</g>
<!-- Node8 -->
<g id="node8" class="node">
<title>Node8</title>
<g id="a_node8"><a xlink:href="../../dc/de8/classTShop.html#aecceb42ffe39e9e0e9f1e152fa0c258d" target="_top" xlink:title=" ">
<polygon fill="white" stroke="#666666" points="370.5,-278 278.5,-278 278.5,-259 370.5,-259 370.5,-278"/>
<text text-anchor="middle" x="324.5" y="-266" font-family="Helvetica,sans-Serif" font-size="10.00">TShop::BuyShip</text>
</a>
</g>
</g>
<!-- Node1&#45;&gt;Node8 -->
<g id="edge8" class="edge">
<title>Node1&#45;&gt;Node8</title>
<path fill="none" stroke="#63b8ff" d="M458.65,-193.32C444.83,-210.5 421.7,-235.98 396,-250.5 388.19,-254.91 379.29,-258.26 370.51,-260.8"/>
<polygon fill="#63b8ff" stroke="#63b8ff" points="461.6,-195.23 464.99,-185.19 456.08,-190.92 461.6,-195.23"/>
</g>
<!-- Node10 -->
<g id="node10" class="node">
<title>Node10</title>
<g id="a_node10"><a xlink:href="../../d8/d51/classMyList.html#aca073a4bc1535a2a831f062f6c082e50" target="_top" xlink:title=" ">
<polygon fill="white" stroke="#666666" points="381,-167 268,-167 268,-148 381,-148 381,-167"/>
<text text-anchor="middle" x="324.5" y="-155" font-family="Helvetica,sans-Serif" font-size="10.00">MyList::operator==</text>
</a>
</g>
</g>
<!-- Node1&#45;&gt;Node10 -->
<g id="edge11" class="edge">
<title>Node1&#45;&gt;Node10</title>
<path fill="none" stroke="#63b8ff" d="M421.74,-169.33C408.66,-167.72 394.48,-165.98 381.13,-164.34"/>
<polygon fill="#63b8ff" stroke="#63b8ff" points="421.62,-172.84 431.97,-170.58 422.47,-165.89 421.62,-172.84"/>
</g>
<!-- Node11 -->
<g id="node11" class="node">
<title>Node11</title>
<g id="a_node11"><a xlink:href="../../db/dab/classTPlaying.html#a2f2f477130ea067b82ac292b96e5cf8d" target="_top" xlink:title=" ">
<polygon fill="white" stroke="#666666" points="394,-130 255,-130 255,-111 394,-111 394,-130"/>
<text text-anchor="middle" x="324.5" y="-118" font-family="Helvetica,sans-Serif" font-size="10.00">TPlaying::RemoveRipped</text>
</a>
</g>
</g>
<!-- Node1&#45;&gt;Node11 -->
<g id="edge12" class="edge">
<title>Node1&#45;&gt;Node11</title>
<path fill="none" stroke="#63b8ff" d="M446.08,-161.26C431.65,-153.74 413.18,-144.8 396,-138.5 387.34,-135.32 377.89,-132.5 368.8,-130.08"/>
<polygon fill="#63b8ff" stroke="#63b8ff" points="444.46,-164.35 454.93,-165.94 447.74,-158.17 444.46,-164.35"/>
</g>
<!-- Node12 -->
<g id="node12" class="node">
<title>Node12</title>
<g id="a_node12"><a xlink:href="../../dc/de8/classTShop.html#af5388fd8d61bac1887a93d9d52ebe482" target="_top" xlink:title=" ">
<polygon fill="white" stroke="#666666" points="388,-93 261,-93 261,-74 388,-74 388,-93"/>
<text text-anchor="middle" x="324.5" y="-81" font-family="Helvetica,sans-Serif" font-size="10.00">TShop::RemoveWeight</text>
</a>
</g>
</g>
<!-- Node1&#45;&gt;Node12 -->
<g id="edge13" class="edge">
<title>Node1&#45;&gt;Node12</title>
<path fill="none" stroke="#63b8ff" d="M458.6,-157.92C444.74,-140.97 421.58,-115.84 396,-101.5 389.94,-98.1 383.23,-95.33 376.43,-93.08"/>
<polygon fill="#63b8ff" stroke="#63b8ff" points="456,-160.28 464.96,-165.94 461.49,-155.93 456,-160.28"/>
</g>
<!-- Node13 -->
<g id="node13" class="node">
<title>Node13</title>
<g id="a_node13"><a xlink:href="../../dc/de8/classTShop.html#a7c75fe3801c08795282fefc2baae29b8" target="_top" xlink:title=" ">
<polygon fill="white" stroke="#666666" points="369.5,-241 279.5,-241 279.5,-222 369.5,-222 369.5,-241"/>
<text text-anchor="middle" x="324.5" y="-229" font-family="Helvetica,sans-Serif" font-size="10.00">TShop::SellGun</text>
</a>
</g>
</g>
<!-- Node1&#45;&gt;Node13 -->
<g id="edge14" class="edge">
<title>Node1&#45;&gt;Node13</title>
<path fill="none" stroke="#63b8ff" d="M446.7,-189.86C432.2,-197.65 413.46,-206.99 396,-213.5 387.36,-216.72 377.91,-219.57 368.83,-221.99"/>
<polygon fill="#63b8ff" stroke="#63b8ff" points="448.47,-192.88 455.56,-185.01 445.1,-186.74 448.47,-192.88"/>
</g>
<!-- Node15 -->
<g id="node15" class="node">
<title>Node15</title>
<g id="a_node15"><a xlink:href="../../dc/de8/classTShop.html#ae39747c12e22b3bd4641affc0be979e3" target="_top" xlink:title=" ">
<polygon fill="white" stroke="#666666" points="370.5,-204 278.5,-204 278.5,-185 370.5,-185 370.5,-204"/>
<text text-anchor="middle" x="324.5" y="-192" font-family="Helvetica,sans-Serif" font-size="10.00">TShop::SellShip</text>
</a>
</g>
</g>
<!-- Node1&#45;&gt;Node15 -->
<g id="edge17" class="edge">
<title>Node1&#45;&gt;Node15</title>
<path fill="none" stroke="#63b8ff" d="M421.88,-182C405.26,-184.16 386.87,-186.54 370.65,-188.64"/>
<polygon fill="#63b8ff" stroke="#63b8ff" points="422.5,-185.45 431.97,-180.69 421.6,-178.51 422.5,-185.45"/>
</g>
<!-- Node17 -->
<g id="node17" class="node">
<title>Node17</title>
<g id="a_node17"><a xlink:href="../../d2/da3/classTSpawnDescriptor.html#a115ff7e494d2997651192e6d69bb4689" target="_top" xlink:title=" ">
<polygon fill="white" stroke="#666666" points="396,-56 253,-56 253,-37 396,-37 396,-56"/>
<text text-anchor="middle" x="324.5" y="-44" font-family="Helvetica,sans-Serif" font-size="10.00">TSpawnDescriptor::Spawn</text>
</a>
</g>
</g>
<!-- Node1&#45;&gt;Node17 -->
<g id="edge20" class="edge">
<title>Node1&#45;&gt;Node17</title>
<path fill="none" stroke="#63b8ff" d="M464.05,-156.23C452.71,-131.19 429.5,-87.92 396,-64.5 391.13,-61.1 385.68,-58.34 380.01,-56.1"/>
<polygon fill="#63b8ff" stroke="#63b8ff" points="460.98,-157.95 468.18,-165.73 467.4,-155.17 460.98,-157.95"/>
</g>
<!-- Node19 -->
<g id="node19" class="node">
<title>Node19</title>
<g id="a_node19"><a xlink:href="../../db/d41/TestMyList_8cpp.html#ad0d3a0bb13e93d1b3d51f58a8afcc9f4" target="_top" xlink:title=" ">
<polygon fill="white" stroke="#666666" points="345,-19 304,-19 304,0 345,0 345,-19"/>
<text text-anchor="middle" x="324.5" y="-7" font-family="Helvetica,sans-Serif" font-size="10.00">TEST</text>
</a>
</g>
</g>
<!-- Node1&#45;&gt;Node19 -->
<g id="edge22" class="edge">
<title>Node1&#45;&gt;Node19</title>
<path fill="none" stroke="#63b8ff" d="M467.49,-155.9C459.1,-123.99 438.02,-61.01 396,-27.5 381.48,-15.92 360.39,-11.71 345.06,-10.21"/>
<polygon fill="#63b8ff" stroke="#63b8ff" points="464.14,-156.93 469.94,-165.79 470.93,-155.24 464.14,-156.93"/>
</g>
<!-- Node3 -->
<g id="node3" class="node">
<title>Node3</title>
<g id="a_node3"><a xlink:href="../../dc/de8/classTShop.html#a1dcf7617180c288121288af2ed21909b" target="_top" xlink:title=" ">
<polygon fill="white" stroke="#666666" points="217,-259 113,-259 113,-240 217,-240 217,-259"/>
<text text-anchor="middle" x="165" y="-247" font-family="Helvetica,sans-Serif" font-size="10.00">TShop::MainMenu</text>
</a>
</g>
</g>
<!-- Node2&#45;&gt;Node3 -->
<g id="edge2" class="edge">
<title>Node2&#45;&gt;Node3</title>
<path fill="none" stroke="#63b8ff" d="M269.34,-293.07C263.77,-291.37 258.23,-289.52 253,-287.5 236.12,-280.99 233.51,-275.9 217,-268.5 209.5,-265.14 201.2,-261.87 193.52,-259.01"/>
<polygon fill="#63b8ff" stroke="#63b8ff" points="268.8,-296.55 279.37,-295.94 270.72,-289.82 268.8,-296.55"/>
</g>
<!-- Node5 -->
<g id="node5" class="node">
<title>Node5</title>
<g id="a_node5"><a xlink:href="../../d6/de3/TestTShop_8cpp.html#a11b4c02681e228079a3d05ed1a5d3c99" target="_top" xlink:title=" ">
<polygon fill="white" stroke="#666666" points="185.5,-333 144.5,-333 144.5,-314 185.5,-314 185.5,-333"/>
<text text-anchor="middle" x="165" y="-321" font-family="Helvetica,sans-Serif" font-size="10.00">TEST</text>
</a>
</g>
</g>
<!-- Node2&#45;&gt;Node5 -->
<g id="edge4" class="edge">
<title>Node2&#45;&gt;Node5</title>
<path fill="none" stroke="#63b8ff" d="M261.73,-312.56C234.7,-315.65 204.87,-319.06 185.81,-321.24"/>
<polygon fill="#63b8ff" stroke="#63b8ff" points="262.39,-316.01 271.93,-311.39 261.6,-309.05 262.39,-316.01"/>
</g>
<!-- Node4 -->
<g id="node4" class="node">
<title>Node4</title>
<g id="a_node4"><a xlink:href="../../dc/de8/classTShop.html#a789d5e786476555b588aece81642f6f9" target="_top" xlink:title=" ">
<polygon fill="white" stroke="#666666" points="77,-259 0,-259 0,-240 77,-240 77,-259"/>
<text text-anchor="middle" x="38.5" y="-247" font-family="Helvetica,sans-Serif" font-size="10.00">TShop::Shop</text>
</a>
</g>
</g>
<!-- Node3&#45;&gt;Node4 -->
<g id="edge3" class="edge">
<title>Node3&#45;&gt;Node4</title>
<path fill="none" stroke="#63b8ff" d="M102.49,-249.5C93.8,-249.5 85.1,-249.5 77.05,-249.5"/>
<polygon fill="#63b8ff" stroke="#63b8ff" points="102.64,-253 112.64,-249.5 102.64,-246 102.64,-253"/>
</g>
<!-- Node6&#45;&gt;Node3 -->
<g id="edge6" class="edge">
<title>Node6&#45;&gt;Node3</title>
<path fill="none" stroke="#63b8ff" d="M269.03,-333.1C263.33,-330.83 257.86,-328 253,-324.5 229,-307.19 240.04,-287.06 217,-268.5 212.22,-264.65 206.57,-261.53 200.82,-259.01"/>
<polygon fill="#63b8ff" stroke="#63b8ff" points="268.17,-336.5 278.76,-336.43 270.44,-329.88 268.17,-336.5"/>
</g>
<!-- Node7 -->
<g id="node7" class="node">
<title>Node7</title>
<g id="a_node7"><a xlink:href="../../d6/de3/TestTShop_8cpp.html#a9090d51b3bf731e31e72a99c51bb40c1" target="_top" xlink:title=" ">
<polygon fill="white" stroke="#666666" points="185.5,-370 144.5,-370 144.5,-351 185.5,-351 185.5,-370"/>
<text text-anchor="middle" x="165" y="-358" font-family="Helvetica,sans-Serif" font-size="10.00">TEST</text>
</a>
</g>
</g>
<!-- Node6&#45;&gt;Node7 -->
<g id="edge7" class="edge">
<title>Node6&#45;&gt;Node7</title>
<path fill="none" stroke="#63b8ff" d="M268.81,-348.75C239.94,-352.05 206.3,-355.89 185.57,-358.26"/>
<polygon fill="#63b8ff" stroke="#63b8ff" points="269.25,-352.22 278.79,-347.61 268.46,-345.27 269.25,-352.22"/>
</g>
<!-- Node8&#45;&gt;Node3 -->
<g id="edge9" class="edge">
<title>Node8&#45;&gt;Node3</title>
<path fill="none" stroke="#63b8ff" d="M268.27,-261.84C251.68,-259.84 233.56,-257.65 217.24,-255.68"/>
<polygon fill="#63b8ff" stroke="#63b8ff" points="268.02,-265.33 278.37,-263.06 268.86,-258.38 268.02,-265.33"/>
</g>
<!-- Node9 -->
<g id="node9" class="node">
<title>Node9</title>
<g id="a_node9"><a xlink:href="../../d6/de3/TestTShop_8cpp.html#a5562ee70e33ebf86ef84ec90cc4a005b" target="_top" xlink:title=" ">
<polygon fill="white" stroke="#666666" points="185.5,-296 144.5,-296 144.5,-277 185.5,-277 185.5,-296"/>
<text text-anchor="middle" x="165" y="-284" font-family="Helvetica,sans-Serif" font-size="10.00">TEST</text>
</a>
</g>
</g>
<!-- Node8&#45;&gt;Node9 -->
<g id="edge10" class="edge">
<title>Node8&#45;&gt;Node9</title>
<path fill="none" stroke="#63b8ff" d="M268.08,-274.83C239.51,-278.1 206.45,-281.88 185.88,-284.23"/>
<polygon fill="#63b8ff" stroke="#63b8ff" points="268.83,-278.27 278.37,-273.66 268.03,-271.32 268.83,-278.27"/>
</g>
<!-- Node13&#45;&gt;Node3 -->
<g id="edge15" class="edge">
<title>Node13&#45;&gt;Node3</title>
<path fill="none" stroke="#63b8ff" d="M268.99,-237.73C252.19,-239.65 233.76,-241.76 217.19,-243.65"/>
<polygon fill="#63b8ff" stroke="#63b8ff" points="269.67,-241.17 279.21,-236.56 268.88,-234.22 269.67,-241.17"/>
</g>
<!-- Node14 -->
<g id="node14" class="node">
<title>Node14</title>
<g id="a_node14"><a xlink:href="../../d6/de3/TestTShop_8cpp.html#a99ee2f047e7cb3a8b35e4f41ad4cbd01" target="_top" xlink:title=" ">
<polygon fill="white" stroke="#666666" points="185.5,-222 144.5,-222 144.5,-203 185.5,-203 185.5,-222"/>
<text text-anchor="middle" x="165" y="-210" font-family="Helvetica,sans-Serif" font-size="10.00">TEST</text>
</a>
</g>
</g>
<!-- Node13&#45;&gt;Node14 -->
<g id="edge16" class="edge">
<title>Node13&#45;&gt;Node14</title>
<path fill="none" stroke="#63b8ff" d="M269.22,-224.95C240.31,-221.46 206.51,-217.39 185.68,-214.87"/>
<polygon fill="#63b8ff" stroke="#63b8ff" points="268.86,-228.43 279.21,-226.16 269.7,-221.48 268.86,-228.43"/>
</g>
<!-- Node15&#45;&gt;Node3 -->
<g id="edge18" class="edge">
<title>Node15&#45;&gt;Node3</title>
<path fill="none" stroke="#63b8ff" d="M272.69,-206.88C266,-208.89 259.29,-211.11 253,-213.5 236.28,-219.86 233.47,-224.51 217,-231.5 210,-234.47 202.32,-237.37 195.1,-239.93"/>
<polygon fill="#63b8ff" stroke="#63b8ff" points="273.78,-210.21 282.42,-204.08 271.84,-203.48 273.78,-210.21"/>
</g>
<!-- Node16 -->
<g id="node16" class="node">
<title>Node16</title>
<g id="a_node16"><a xlink:href="../../d6/de3/TestTShop_8cpp.html#ac97fb89041a078a29c13fe7c9a070fea" target="_top" xlink:title=" ">
<polygon fill="white" stroke="#666666" points="185.5,-185 144.5,-185 144.5,-166 185.5,-166 185.5,-185"/>
<text text-anchor="middle" x="165" y="-173" font-family="Helvetica,sans-Serif" font-size="10.00">TEST</text>
</a>
</g>
</g>
<!-- Node15&#45;&gt;Node16 -->
<g id="edge19" class="edge">
<title>Node15&#45;&gt;Node16</title>
<path fill="none" stroke="#63b8ff" d="M268.08,-187.81C239.51,-184.37 206.45,-180.38 185.88,-177.9"/>
<polygon fill="#63b8ff" stroke="#63b8ff" points="268.02,-191.33 278.37,-189.06 268.86,-184.38 268.02,-191.33"/>
</g>
<!-- Node18 -->
<g id="node18" class="node">
<title>Node18</title>
<g id="a_node18"><a xlink:href="../../d7/d10/TestTSpawnDescriptor_8cpp.html#a7f1801058178298fe72c82028b1d553f" target="_top" xlink:title=" ">
<polygon fill="white" stroke="#666666" points="185.5,-56 144.5,-56 144.5,-37 185.5,-37 185.5,-56"/>
<text text-anchor="middle" x="165" y="-44" font-family="Helvetica,sans-Serif" font-size="10.00">TEST</text>
</a>
</g>
</g>
<!-- Node17&#45;&gt;Node18 -->
<g id="edge21" class="edge">
<title>Node17&#45;&gt;Node18</title>
<path fill="none" stroke="#63b8ff" d="M242.5,-46.5C221.27,-46.5 200.26,-46.5 185.64,-46.5"/>
<polygon fill="#63b8ff" stroke="#63b8ff" points="242.58,-50 252.58,-46.5 242.58,-43 242.58,-50"/>
</g>
</g>
</svg>
        <g id="navigator" transform="translate(0 0)" fill="#404254">
                <rect fill="#f2f5e9" fill-opacity="0.5" stroke="#606060" stroke-width=".5" x="0" y="0" width="60" height="60"/>
                <use id="zoomplus" xlink:href="#zoomPlus" x="17" y="9" onmousedown="handleZoom(evt,'in')"/>
                <use id="zoomminus" xlink:href="#zoomMin" x="42" y="9" onmousedown="handleZoom(evt,'out')"/>
                <use id="reset" xlink:href="#resetDef" x="30" y="36" onmousedown="handleReset()"/>
                <g id="arrowUp" xlink:href="#dirArrow" transform="translate(30 24)" onmousedown="handlePan(0,-1)">
                  <use xlink:href="#rim" fill="#404040">
                        <set attributeName="fill" to="#808080" begin="arrowUp.mouseover" end="arrowUp.mouseout"/>
                  </use>
                  <path fill="none" stroke="white" stroke-width="1.5" d="M0,-3.0v7 M-2.5,-0.5L0,-3.0L2.5,-0.5"/>
                </g>
                <g id="arrowRight" xlink:href="#dirArrow" transform="rotate(90) translate(36 -43)" onmousedown="handlePan(1,0)">
                  <use xlink:href="#rim" fill="#404040">
                        <set attributeName="fill" to="#808080" begin="arrowRight.mouseover" end="arrowRight.mouseout"/>
                  </use>
                  <path fill="none" stroke="white" stroke-width="1.5" d="M0,-3.0v7 M-2.5,-0.5L0,-3.0L2.5,-0.5"/>
                </g>
                <g id="arrowDown" xlink:href="#dirArrow" transform="rotate(180) translate(-30 -48)" onmousedown="handlePan(0,1)">
                  <use xlink:href="#rim" fill="#404040">
                        <set attributeName="fill" to="#808080" begin="arrowDown.mouseover" end="arrowDown.mouseout"/>
                  </use>
                  <path fill="none" stroke="white" stroke-width="1.5" d="M0,-3.0v7 M-2.5,-0.5L0,-3.0L2.5,-0.5"/>
                </g>
                <g id="arrowLeft" xlink:href="#dirArrow" transform="rotate(270) translate(-36 17)" onmousedown="handlePan(-1,0)">
                  <use xlink:href="#rim" fill="#404040">
                        <set attributeName="fill" to="#808080" begin="arrowLeft.mouseover" end="arrowLeft.mouseout"/>
                  </use>
                  <path fill="none" stroke="white" stroke-width="1.5" d="M0,-3.0v7 M-2.5,-0.5L0,-3.0L2.5,-0.5"/>
                </g>
        </g>
        <svg viewBox="0 0 15 15" width="100%" height="30px" preserveAspectRatio="xMaxYMin meet">
         <g id="arrow_out" transform="scale(0.3 0.3)">
          <a xlink:href="classMyList_a281f359e28eb5d6014ba3405cf0e6895_icgraph_org.svg" target="_base">
           <rect id="button" ry="5" rx="5" y="6" x="6" height="38" width="38"
                fill="#f2f5e9" fill-opacity="0.5" stroke="#606060" stroke-width="1.0"/>
           <path id="arrow"
             d="M 11.500037,31.436501 C 11.940474,20.09759 22.043105,11.32322 32.158766,21.979434 L 37.068811,17.246167 C 37.068811,17.246167 37.088388,32 37.088388,32 L 22.160133,31.978069 C 22.160133,31.978069 26.997745,27.140456 26.997745,27.140456 C 18.528582,18.264221 13.291696,25.230495 11.500037,31.436501 z"
             style="fill:#404040;"/>
          </a>
         </g>
        </svg>
</svg>
