<?xml version="1.0" encoding="UTF-8" standalone="no"?>
<!DOCTYPE svg PUBLIC "-//W3C//DTD SVG 1.1//EN"
 "http://www.w3.org/Graphics/SVG/1.1/DTD/svg11.dtd">
<!-- Generated by graphviz version 2.43.0 (0)
 -->
<!-- Title: MyList::size Pages: 1 -->
<!--zoomable 332 -->
<svg id="main" version="1.1" xmlns="http://www.w3.org/2000/svg" xmlns:xlink="http://www.w3.org/1999/xlink" xml:space="preserve" onload="init(evt)">
<style type="text/css"><![CDATA[
.edge:hover path { stroke: red; }
.edge:hover polygon { stroke: red; fill: red; }
]]></style>
<script type="text/javascript"><![CDATA[
var edges = document.getElementsByTagName('g');
if (edges && edges.length) {
  for (var i=0;i<edges.length;i++) {
    if (edges[i].id.substr(0,4)=='edge') {
      edges[i].setAttribute('class','edge');
    }
  }
}
]]></script>
        <defs>
                <circle id="rim" cx="0" cy="0" r="7"/>
                <circle id="rim2" cx="0" cy="0" r="3.5"/>
                <g id="zoomPlus">
                        <use xlink:href="#rim" fill="#404040">
                                <set attributeName="fill" to="#808080" begin="zoomplus.mouseover" end="zoomplus.mouseout"/>
                        </use>
                        <path d="M-4,0h8M0,-4v8" fill="none" stroke="white" stroke-width="1.5" pointer-events="none"/>
                </g>
                <g id="zoomMin">
                        <use xlink:href="#rim" fill="#404040">
                                <set attributeName="fill" to="#808080" begin="zoomminus.mouseover" end="zoomminus.mouseout"/>
                        </use>
                        <path d="M-4,0h8" fill="none" stroke="white" stroke-width="1.5" pointer-events="none"/>
                </g>
                <g id="dirArrow">
                        <path fill="none" stroke="white" stroke-width="1.5" d="M0,-3.0v7 M-2.5,-0.5L0,-3.0L2.5,-0.5"/>
                </g>
               <g id="resetDef">
                       <use xlink:href="#rim2" fill="#404040">
                               <set attributeName="fill" to="#808080" begin="reset.mouseover" end="reset.mouseout"/>
                       </use>
               </g>
        </defs>

<script type="text/javascript">
var viewWidth = 526;
var viewHeight = 332;
var sectionId = 'dynsection-11';
</script>
<script xlink:href="../../svgpan.js"/>
<svg id="graph" class="graph">
<g id="viewport">
<title>MyList::size</title>
<!-- Node1 -->
<g id="node1" class="node">
<title>Node1</title>
<g id="a_node1"><a xlink:title=" ">
<polygon fill="#999999" stroke="#666666" points="518,-157 444,-157 444,-138 518,-138 518,-157"/>
<text text-anchor="middle" x="481" y="-145" font-family="Helvetica,sans-Serif" font-size="10.00">MyList::size</text>
</a>
</g>
</g>
<!-- Node2 -->
<g id="node2" class="node">
<title>Node2</title>
<g id="a_node2"><a xlink:href="../../dc/de8/classTShop.html#aef476da75c7312f1d68373c4883b20b0" target="_top" xlink:title=" ">
<polygon fill="white" stroke="#666666" points="397,-259 292,-259 292,-240 397,-240 397,-259"/>
<text text-anchor="middle" x="344.5" y="-247" font-family="Helvetica,sans-Serif" font-size="10.00">TShop::AddWeight</text>
</a>
</g>
</g>
<!-- Node1&#45;&gt;Node2 -->
<g id="edge1" class="edge">
<title>Node1&#45;&gt;Node2</title>
<path fill="none" stroke="#63b8ff" d="M468.92,-165.86C456.43,-185 434.4,-214.53 408,-231.5 402.68,-234.92 396.7,-237.7 390.6,-239.97"/>
<polygon fill="#63b8ff" stroke="#63b8ff" points="472.03,-167.49 474.4,-157.16 466.11,-163.75 472.03,-167.49"/>
</g>
<!-- Node6 -->
<g id="node6" class="node">
<title>Node6</title>
<g id="a_node6"><a xlink:href="../../dc/de8/classTShop.html#ac463d2ee0ef76283f4dac87a51353c36" target="_top" xlink:title=" ">
<polygon fill="white" stroke="#666666" points="390,-296 299,-296 299,-277 390,-277 390,-296"/>
<text text-anchor="middle" x="344.5" y="-284" font-family="Helvetica,sans-Serif" font-size="10.00">TShop::BuyGun</text>
</a>
</g>
</g>
<!-- Node1&#45;&gt;Node6 -->
<g id="edge5" class="edge">
<title>Node1&#45;&gt;Node6</title>
<path fill="none" stroke="#63b8ff" d="M473.68,-166.76C463.9,-193.58 442.53,-241.86 408,-268.5 402.73,-272.57 396.56,-275.72 390.2,-278.16"/>
<polygon fill="#63b8ff" stroke="#63b8ff" points="477.09,-167.61 477.07,-157.01 470.48,-165.31 477.09,-167.61"/>
</g>
<!-- Node8 -->
<g id="node8" class="node">
<title>Node8</title>
<g id="a_node8"><a xlink:href="../../db/dab/classTPlaying.html#a029211b1dce0b41bb75ee19a8db34550" target="_top" xlink:title=" ">
<polygon fill="white" stroke="#666666" points="401,-130 288,-130 288,-111 401,-111 401,-130"/>
<text text-anchor="middle" x="344.5" y="-118" font-family="Helvetica,sans-Serif" font-size="10.00">TPlaying::MakeShot</text>
</a>
</g>
</g>
<!-- Node1&#45;&gt;Node8 -->
<g id="edge8" class="edge">
<title>Node1&#45;&gt;Node8</title>
<path fill="none" stroke="#63b8ff" d="M433.77,-138.22C420.7,-135.6 406.45,-132.73 393.29,-130.09"/>
<polygon fill="#63b8ff" stroke="#63b8ff" points="433.46,-141.73 443.96,-140.26 434.84,-134.86 433.46,-141.73"/>
</g>
<!-- Node11 -->
<g id="node11" class="node">
<title>Node11</title>
<g id="a_node11"><a xlink:href="../../d8/d51/classMyList.html#aca073a4bc1535a2a831f062f6c082e50" target="_top" xlink:title=" ">
<polygon fill="white" stroke="#666666" points="401,-93 288,-93 288,-74 401,-74 401,-93"/>
<text text-anchor="middle" x="344.5" y="-81" font-family="Helvetica,sans-Serif" font-size="10.00">MyList::operator==</text>
</a>
</g>
</g>
<!-- Node1&#45;&gt;Node11 -->
<g id="edge12" class="edge">
<title>Node1&#45;&gt;Node11</title>
<path fill="none" stroke="#63b8ff" d="M458.69,-132.09C444.78,-122.57 425.94,-110.66 408,-102.5 400.05,-98.88 391.23,-95.73 382.78,-93.07"/>
<polygon fill="#63b8ff" stroke="#63b8ff" points="456.85,-135.08 467.06,-137.94 460.86,-129.34 456.85,-135.08"/>
</g>
<!-- Node12 -->
<g id="node12" class="node">
<title>Node12</title>
<g id="a_node12"><a xlink:href="../../dc/de8/classTShop.html#af5388fd8d61bac1887a93d9d52ebe482" target="_top" xlink:title=" ">
<polygon fill="white" stroke="#666666" points="408,-56 281,-56 281,-37 408,-37 408,-56"/>
<text text-anchor="middle" x="344.5" y="-44" font-family="Helvetica,sans-Serif" font-size="10.00">TShop::RemoveWeight</text>
</a>
</g>
</g>
<!-- Node1&#45;&gt;Node12 -->
<g id="edge13" class="edge">
<title>Node1&#45;&gt;Node12</title>
<path fill="none" stroke="#63b8ff" d="M468.86,-129.36C456.34,-110.45 434.27,-81.28 408,-64.5 402.67,-61.1 396.68,-58.32 390.58,-56.06"/>
<polygon fill="#63b8ff" stroke="#63b8ff" points="466.03,-131.42 474.37,-137.96 471.92,-127.65 466.03,-131.42"/>
</g>
<!-- Node13 -->
<g id="node13" class="node">
<title>Node13</title>
<g id="a_node13"><a xlink:href="../../dc/de8/classTShop.html#a7c75fe3801c08795282fefc2baae29b8" target="_top" xlink:title=" ">
<polygon fill="white" stroke="#666666" points="389.5,-222 299.5,-222 299.5,-203 389.5,-203 389.5,-222"/>
<text text-anchor="middle" x="344.5" y="-210" font-family="Helvetica,sans-Serif" font-size="10.00">TShop::SellGun</text>
</a>
</g>
</g>
<!-- Node1&#45;&gt;Node13 -->
<g id="edge14" class="edge">
<title>Node1&#45;&gt;Node13</title>
<path fill="none" stroke="#63b8ff" d="M459.59,-163.19C445.67,-173.28 426.48,-186.04 408,-194.5 400.92,-197.74 393.11,-200.55 385.49,-202.91"/>
<polygon fill="#63b8ff" stroke="#63b8ff" points="461.97,-165.79 467.91,-157.02 457.8,-160.16 461.97,-165.79"/>
</g>
<!-- Node15 -->
<g id="node15" class="node">
<title>Node15</title>
<g id="a_node15"><a xlink:href="../../dc/de8/classTShop.html#ae39747c12e22b3bd4641affc0be979e3" target="_top" xlink:title=" ">
<polygon fill="white" stroke="#666666" points="390.5,-185 298.5,-185 298.5,-166 390.5,-166 390.5,-185"/>
<text text-anchor="middle" x="344.5" y="-173" font-family="Helvetica,sans-Serif" font-size="10.00">TShop::SellShip</text>
</a>
</g>
</g>
<!-- Node1&#45;&gt;Node15 -->
<g id="edge17" class="edge">
<title>Node1&#45;&gt;Node15</title>
<path fill="none" stroke="#63b8ff" d="M434.06,-157.06C420.08,-159.97 404.73,-163.17 390.8,-166.07"/>
<polygon fill="#63b8ff" stroke="#63b8ff" points="434.88,-160.47 443.96,-155 433.45,-153.62 434.88,-160.47"/>
</g>
<!-- Node17 -->
<g id="node17" class="node">
<title>Node17</title>
<g id="a_node17"><a xlink:href="../../d7/d10/TestTSpawnDescriptor_8cpp.html#a7f1801058178298fe72c82028b1d553f" target="_top" xlink:title=" ">
<polygon fill="white" stroke="#666666" points="365,-19 324,-19 324,0 365,0 365,-19"/>
<text text-anchor="middle" x="344.5" y="-7" font-family="Helvetica,sans-Serif" font-size="10.00">TEST</text>
</a>
</g>
</g>
<!-- Node1&#45;&gt;Node17 -->
<g id="edge20" class="edge">
<title>Node1&#45;&gt;Node17</title>
<path fill="none" stroke="#63b8ff" d="M473.49,-128C463.59,-101.33 442.2,-53.79 408,-27.5 395.65,-18 378.45,-13.51 365.22,-11.39"/>
<polygon fill="#63b8ff" stroke="#63b8ff" points="470.3,-129.47 476.93,-137.73 476.9,-127.13 470.3,-129.47"/>
</g>
<!-- Node3 -->
<g id="node3" class="node">
<title>Node3</title>
<g id="a_node3"><a xlink:href="../../dc/de8/classTShop.html#a1dcf7617180c288121288af2ed21909b" target="_top" xlink:title=" ">
<polygon fill="white" stroke="#666666" points="235.5,-250 131.5,-250 131.5,-231 235.5,-231 235.5,-250"/>
<text text-anchor="middle" x="183.5" y="-238" font-family="Helvetica,sans-Serif" font-size="10.00">TShop::MainMenu</text>
</a>
</g>
</g>
<!-- Node2&#45;&gt;Node3 -->
<g id="edge2" class="edge">
<title>Node2&#45;&gt;Node3</title>
<path fill="none" stroke="#63b8ff" d="M281.52,-245.99C266.32,-245.13 250.22,-244.22 235.59,-243.39"/>
<polygon fill="#63b8ff" stroke="#63b8ff" points="281.7,-249.51 291.88,-246.58 282.09,-242.52 281.7,-249.51"/>
</g>
<!-- Node5 -->
<g id="node5" class="node">
<title>Node5</title>
<g id="a_node5"><a xlink:href="../../d6/de3/TestTShop_8cpp.html#a11b4c02681e228079a3d05ed1a5d3c99" target="_top" xlink:title=" ">
<polygon fill="white" stroke="#666666" points="204,-287 163,-287 163,-268 204,-268 204,-287"/>
<text text-anchor="middle" x="183.5" y="-275" font-family="Helvetica,sans-Serif" font-size="10.00">TEST</text>
</a>
</g>
</g>
<!-- Node2&#45;&gt;Node5 -->
<g id="edge4" class="edge">
<title>Node2&#45;&gt;Node5</title>
<path fill="none" stroke="#63b8ff" d="M281.87,-260.35C254.26,-265.22 223.61,-270.61 204.21,-274.03"/>
<polygon fill="#63b8ff" stroke="#63b8ff" points="282.64,-263.77 291.88,-258.59 281.42,-256.88 282.64,-263.77"/>
</g>
<!-- Node4 -->
<g id="node4" class="node">
<title>Node4</title>
<g id="a_node4"><a xlink:href="../../dc/de8/classTShop.html#a789d5e786476555b588aece81642f6f9" target="_top" xlink:title=" ">
<polygon fill="white" stroke="#666666" points="81.5,-250 4.5,-250 4.5,-231 81.5,-231 81.5,-250"/>
<text text-anchor="middle" x="43" y="-238" font-family="Helvetica,sans-Serif" font-size="10.00">TShop::Shop</text>
</a>
</g>
</g>
<!-- Node3&#45;&gt;Node4 -->
<g id="edge3" class="edge">
<title>Node3&#45;&gt;Node4</title>
<path fill="none" stroke="#63b8ff" d="M121.12,-240.5C107.64,-240.5 93.76,-240.5 81.55,-240.5"/>
<polygon fill="#63b8ff" stroke="#63b8ff" points="121.32,-244 131.32,-240.5 121.32,-237 121.32,-244"/>
</g>
<!-- Node6&#45;&gt;Node3 -->
<g id="edge6" class="edge">
<title>Node6&#45;&gt;Node3</title>
<path fill="none" stroke="#63b8ff" d="M300.38,-274.09C293.88,-272.22 287.26,-270.31 281,-268.5 259.88,-262.4 236.18,-255.52 217.55,-250.11"/>
<polygon fill="#63b8ff" stroke="#63b8ff" points="299.83,-277.58 310.41,-276.98 301.77,-270.85 299.83,-277.58"/>
</g>
<!-- Node7 -->
<g id="node7" class="node">
<title>Node7</title>
<g id="a_node7"><a xlink:href="../../d6/de3/TestTShop_8cpp.html#a9090d51b3bf731e31e72a99c51bb40c1" target="_top" xlink:title=" ">
<polygon fill="white" stroke="#666666" points="204,-324 163,-324 163,-305 204,-305 204,-324"/>
<text text-anchor="middle" x="183.5" y="-312" font-family="Helvetica,sans-Serif" font-size="10.00">TEST</text>
</a>
</g>
</g>
<!-- Node6&#45;&gt;Node7 -->
<g id="edge7" class="edge">
<title>Node6&#45;&gt;Node7</title>
<path fill="none" stroke="#63b8ff" d="M288.7,-296.15C259.51,-301.29 225.4,-307.3 204.37,-311"/>
<polygon fill="#63b8ff" stroke="#63b8ff" points="289.55,-299.56 298.79,-294.37 288.33,-292.66 289.55,-299.56"/>
</g>
<!-- Node8&#45;&gt;Node8 -->
<g id="edge11" class="edge">
<title>Node8&#45;&gt;Node8</title>
<path fill="none" stroke="#63b8ff" d="M369.8,-139.19C368.42,-144.2 359.99,-148 344.5,-148 320.33,-148 313.34,-138.73 323.54,-130.08"/>
<polygon fill="#63b8ff" stroke="#63b8ff" points="372.92,-137.61 365.46,-130.08 366.6,-140.62 372.92,-137.61"/>
</g>
<!-- Node9 -->
<g id="node9" class="node">
<title>Node9</title>
<g id="a_node9"><a xlink:href="../../db/dab/classTPlaying.html#a8599ce61fd2748b737b054b0a5c62647" target="_top" xlink:title=" ">
<polygon fill="white" stroke="#666666" points="245,-130 122,-130 122,-111 245,-111 245,-130"/>
<text text-anchor="middle" x="183.5" y="-118" font-family="Helvetica,sans-Serif" font-size="10.00">TPlaying::MakeMoves</text>
</a>
</g>
</g>
<!-- Node8&#45;&gt;Node9 -->
<g id="edge9" class="edge">
<title>Node8&#45;&gt;Node9</title>
<path fill="none" stroke="#63b8ff" d="M277.71,-120.5C266.95,-120.5 255.85,-120.5 245.23,-120.5"/>
<polygon fill="#63b8ff" stroke="#63b8ff" points="277.89,-124 287.89,-120.5 277.89,-117 277.89,-124"/>
</g>
<!-- Node10 -->
<g id="node10" class="node">
<title>Node10</title>
<g id="a_node10"><a xlink:href="../../db/dab/classTPlaying.html#a55b9a1e2159468036c18440cd361c749" target="_top" xlink:title=" ">
<polygon fill="white" stroke="#666666" points="86,-130 0,-130 0,-111 86,-111 86,-130"/>
<text text-anchor="middle" x="43" y="-118" font-family="Helvetica,sans-Serif" font-size="10.00">TPlaying::Play</text>
</a>
</g>
</g>
<!-- Node9&#45;&gt;Node10 -->
<g id="edge10" class="edge">
<title>Node9&#45;&gt;Node10</title>
<path fill="none" stroke="#63b8ff" d="M111.52,-120.5C102.79,-120.5 94.1,-120.5 86,-120.5"/>
<polygon fill="#63b8ff" stroke="#63b8ff" points="111.75,-124 121.75,-120.5 111.75,-117 111.75,-124"/>
</g>
<!-- Node13&#45;&gt;Node3 -->
<g id="edge15" class="edge">
<title>Node13&#45;&gt;Node3</title>
<path fill="none" stroke="#63b8ff" d="M289.22,-222.06C271.86,-225.12 252.7,-228.49 235.57,-231.51"/>
<polygon fill="#63b8ff" stroke="#63b8ff" points="289.97,-225.48 299.21,-220.3 288.75,-218.59 289.97,-225.48"/>
</g>
<!-- Node14 -->
<g id="node14" class="node">
<title>Node14</title>
<g id="a_node14"><a xlink:href="../../d6/de3/TestTShop_8cpp.html#a99ee2f047e7cb3a8b35e4f41ad4cbd01" target="_top" xlink:title=" ">
<polygon fill="white" stroke="#666666" points="204,-213 163,-213 163,-194 204,-194 204,-213"/>
<text text-anchor="middle" x="183.5" y="-201" font-family="Helvetica,sans-Serif" font-size="10.00">TEST</text>
</a>
</g>
</g>
<!-- Node13&#45;&gt;Node14 -->
<g id="edge16" class="edge">
<title>Node13&#45;&gt;Node14</title>
<path fill="none" stroke="#63b8ff" d="M289.05,-209.42C259.65,-207.75 225.15,-205.8 204.06,-204.61"/>
<polygon fill="#63b8ff" stroke="#63b8ff" points="289.03,-212.92 299.21,-209.99 289.42,-205.93 289.03,-212.92"/>
</g>
<!-- Node15&#45;&gt;Node3 -->
<g id="edge18" class="edge">
<title>Node15&#45;&gt;Node3</title>
<path fill="none" stroke="#63b8ff" d="M294.61,-188.44C289.91,-190.25 285.3,-192.27 281,-194.5 263,-203.83 263.02,-213.23 245,-222.5 238.57,-225.81 231.43,-228.61 224.38,-230.94"/>
<polygon fill="#63b8ff" stroke="#63b8ff" points="296.03,-191.65 304.29,-185.01 293.69,-185.06 296.03,-191.65"/>
</g>
<!-- Node16 -->
<g id="node16" class="node">
<title>Node16</title>
<g id="a_node16"><a xlink:href="../../d6/de3/TestTShop_8cpp.html#ac97fb89041a078a29c13fe7c9a070fea" target="_top" xlink:title=" ">
<polygon fill="white" stroke="#666666" points="204,-176 163,-176 163,-157 204,-157 204,-176"/>
<text text-anchor="middle" x="183.5" y="-164" font-family="Helvetica,sans-Serif" font-size="10.00">TEST</text>
</a>
</g>
</g>
<!-- Node15&#45;&gt;Node16 -->
<g id="edge19" class="edge">
<title>Node15&#45;&gt;Node16</title>
<path fill="none" stroke="#63b8ff" d="M288.28,-172.37C259.14,-170.72 225.18,-168.8 204.26,-167.62"/>
<polygon fill="#63b8ff" stroke="#63b8ff" points="288.18,-175.87 298.36,-172.95 288.58,-168.89 288.18,-175.87"/>
</g>
</g>
</svg>
        <g id="navigator" transform="translate(0 0)" fill="#404254">
                <rect fill="#f2f5e9" fill-opacity="0.5" stroke="#606060" stroke-width=".5" x="0" y="0" width="60" height="60"/>
                <use id="zoomplus" xlink:href="#zoomPlus" x="17" y="9" onmousedown="handleZoom(evt,'in')"/>
                <use id="zoomminus" xlink:href="#zoomMin" x="42" y="9" onmousedown="handleZoom(evt,'out')"/>
                <use id="reset" xlink:href="#resetDef" x="30" y="36" onmousedown="handleReset()"/>
                <g id="arrowUp" xlink:href="#dirArrow" transform="translate(30 24)" onmousedown="handlePan(0,-1)">
                  <use xlink:href="#rim" fill="#404040">
                        <set attributeName="fill" to="#808080" begin="arrowUp.mouseover" end="arrowUp.mouseout"/>
                  </use>
                  <path fill="none" stroke="white" stroke-width="1.5" d="M0,-3.0v7 M-2.5,-0.5L0,-3.0L2.5,-0.5"/>
                </g>
                <g id="arrowRight" xlink:href="#dirArrow" transform="rotate(90) translate(36 -43)" onmousedown="handlePan(1,0)">
                  <use xlink:href="#rim" fill="#404040">
                        <set attributeName="fill" to="#808080" begin="arrowRight.mouseover" end="arrowRight.mouseout"/>
                  </use>
                  <path fill="none" stroke="white" stroke-width="1.5" d="M0,-3.0v7 M-2.5,-0.5L0,-3.0L2.5,-0.5"/>
                </g>
                <g id="arrowDown" xlink:href="#dirArrow" transform="rotate(180) translate(-30 -48)" onmousedown="handlePan(0,1)">
                  <use xlink:href="#rim" fill="#404040">
                        <set attributeName="fill" to="#808080" begin="arrowDown.mouseover" end="arrowDown.mouseout"/>
                  </use>
                  <path fill="none" stroke="white" stroke-width="1.5" d="M0,-3.0v7 M-2.5,-0.5L0,-3.0L2.5,-0.5"/>
                </g>
                <g id="arrowLeft" xlink:href="#dirArrow" transform="rotate(270) translate(-36 17)" onmousedown="handlePan(-1,0)">
                  <use xlink:href="#rim" fill="#404040">
                        <set attributeName="fill" to="#808080" begin="arrowLeft.mouseover" end="arrowLeft.mouseout"/>
                  </use>
                  <path fill="none" stroke="white" stroke-width="1.5" d="M0,-3.0v7 M-2.5,-0.5L0,-3.0L2.5,-0.5"/>
                </g>
        </g>
        <svg viewBox="0 0 15 15" width="100%" height="30px" preserveAspectRatio="xMaxYMin meet">
         <g id="arrow_out" transform="scale(0.3 0.3)">
          <a xlink:href="classMyList_a37366fbfd16acad1dfa69a141b339095_icgraph_org.svg" target="_base">
           <rect id="button" ry="5" rx="5" y="6" x="6" height="38" width="38"
                fill="#f2f5e9" fill-opacity="0.5" stroke="#606060" stroke-width="1.0"/>
           <path id="arrow"
             d="M 11.500037,31.436501 C 11.940474,20.09759 22.043105,11.32322 32.158766,21.979434 L 37.068811,17.246167 C 37.068811,17.246167 37.088388,32 37.088388,32 L 22.160133,31.978069 C 22.160133,31.978069 26.997745,27.140456 26.997745,27.140456 C 18.528582,18.264221 13.291696,25.230495 11.500037,31.436501 z"
             style="fill:#404040;"/>
          </a>
         </g>
        </svg>
</svg>
