<?xml version="1.0" encoding="UTF-8" standalone="no"?>
<!DOCTYPE svg PUBLIC "-//W3C//DTD SVG 1.1//EN"
 "http://www.w3.org/Graphics/SVG/1.1/DTD/svg11.dtd">
<!-- Generated by graphviz version 2.43.0 (0)
 -->
<!-- Title: MyList::end Pages: 1 -->
<!--zoomable 600 -->
<svg id="main" version="1.1" xmlns="http://www.w3.org/2000/svg" xmlns:xlink="http://www.w3.org/1999/xlink" xml:space="preserve" onload="init(evt)">
<style type="text/css"><![CDATA[
.edge:hover path { stroke: red; }
.edge:hover polygon { stroke: red; fill: red; }
]]></style>
<script type="text/javascript"><![CDATA[
var edges = document.getElementsByTagName('g');
if (edges && edges.length) {
  for (var i=0;i<edges.length;i++) {
    if (edges[i].id.substr(0,4)=='edge') {
      edges[i].setAttribute('class','edge');
    }
  }
}
]]></script>
        <defs>
                <circle id="rim" cx="0" cy="0" r="7"/>
                <circle id="rim2" cx="0" cy="0" r="3.5"/>
                <g id="zoomPlus">
                        <use xlink:href="#rim" fill="#404040">
                                <set attributeName="fill" to="#808080" begin="zoomplus.mouseover" end="zoomplus.mouseout"/>
                        </use>
                        <path d="M-4,0h8M0,-4v8" fill="none" stroke="white" stroke-width="1.5" pointer-events="none"/>
                </g>
                <g id="zoomMin">
                        <use xlink:href="#rim" fill="#404040">
                                <set attributeName="fill" to="#808080" begin="zoomminus.mouseover" end="zoomminus.mouseout"/>
                        </use>
                        <path d="M-4,0h8" fill="none" stroke="white" stroke-width="1.5" pointer-events="none"/>
                </g>
                <g id="dirArrow">
                        <path fill="none" stroke="white" stroke-width="1.5" d="M0,-3.0v7 M-2.5,-0.5L0,-3.0L2.5,-0.5"/>
                </g>
               <g id="resetDef">
                       <use xlink:href="#rim2" fill="#404040">
                               <set attributeName="fill" to="#808080" begin="reset.mouseover" end="reset.mouseout"/>
                       </use>
               </g>
        </defs>

<script type="text/javascript">
var viewWidth = 890;
var viewHeight = 600;
var sectionId = 'dynsection-5';
</script>
<script xlink:href="../../svgpan.js"/>
<svg id="graph" class="graph">
<g id="viewport">
<title>MyList::end</title>
<!-- Node1 -->
<g id="node1" class="node">
<title>Node1</title>
<g id="a_node1"><a xlink:title=" ">
<polygon fill="#999999" stroke="#666666" points="882,-295 809,-295 809,-276 882,-276 882,-295"/>
<text text-anchor="middle" x="845.5" y="-283" font-family="Helvetica,sans-Serif" font-size="10.00">MyList::end</text>
</a>
</g>
</g>
<!-- Node2 -->
<g id="node2" class="node">
<title>Node2</title>
<g id="a_node2"><a xlink:href="../../df/dbf/TestTLevelReader_8cpp.html#a04829e963b7ea7cf309dfa703ceb950e" target="_top" xlink:title=" ">
<polygon fill="white" stroke="#666666" points="717,-486 627,-486 627,-467 717,-467 717,-486"/>
<text text-anchor="middle" x="672" y="-474" font-family="Helvetica,sans-Serif" font-size="10.00">GetCapitanInfo</text>
</a>
</g>
</g>
<!-- Node1&#45;&gt;Node2 -->
<g id="edge1" class="edge">
<title>Node1&#45;&gt;Node2</title>
<path fill="none" stroke="#63b8ff" d="M842.38,-305.59C837.39,-342.18 821.4,-419.48 773,-458.5 757.48,-471.01 736.18,-475.98 717.22,-477.64"/>
<polygon fill="#63b8ff" stroke="#63b8ff" points="845.91,-305.59 843.64,-295.24 838.96,-304.75 845.91,-305.59"/>
</g>
<!-- Node3 -->
<g id="node3" class="node">
<title>Node3</title>
<g id="a_node3"><a xlink:href="../../df/dbf/TestTLevelReader_8cpp.html#a32e07d67b7efd1d03d13a110958eece8" target="_top" xlink:title=" ">
<polygon fill="white" stroke="#666666" points="489,-524 429,-524 429,-505 489,-505 489,-524"/>
<text text-anchor="middle" x="459" y="-512" font-family="Helvetica,sans-Serif" font-size="10.00">GetShips</text>
</a>
</g>
</g>
<!-- Node1&#45;&gt;Node3 -->
<g id="edge10" class="edge">
<title>Node1&#45;&gt;Node3</title>
<path fill="none" stroke="#63b8ff" d="M844.5,-305.33C843.32,-348.13 833.87,-449.07 773,-495.5 729.07,-529.01 557.99,-521.32 489.04,-516.7"/>
<polygon fill="#63b8ff" stroke="#63b8ff" points="848.01,-305.16 844.65,-295.11 841.01,-305.05 848.01,-305.16"/>
</g>
<!-- Node4 -->
<g id="node4" class="node">
<title>Node4</title>
<g id="a_node4"><a xlink:href="../../df/dbf/TestTLevelReader_8cpp.html#ac86806b1ea40e9e267dcb76e291d2c89" target="_top" xlink:title=" ">
<polygon fill="white" stroke="#666666" points="314.5,-561 225.5,-561 225.5,-542 314.5,-542 314.5,-561"/>
<text text-anchor="middle" x="270" y="-549" font-family="Helvetica,sans-Serif" font-size="10.00">GetDescriptors</text>
</a>
</g>
</g>
<!-- Node1&#45;&gt;Node4 -->
<g id="edge7" class="edge">
<title>Node1&#45;&gt;Node4</title>
<path fill="none" stroke="#63b8ff" d="M845.36,-305.5C846.15,-352.08 840.85,-467.95 773,-521.5 631.31,-633.33 391.05,-584.1 303.86,-561.01"/>
<polygon fill="#63b8ff" stroke="#63b8ff" points="848.85,-305.12 845.06,-295.22 841.85,-305.32 848.85,-305.12"/>
</g>
<!-- Node8 -->
<g id="node8" class="node">
<title>Node8</title>
<g id="a_node8"><a xlink:href="../../d6/de3/TestTShop_8cpp.html#a943e89378179371c951c54c476040453" target="_top" xlink:title=" ">
<polygon fill="white" stroke="#666666" points="701.5,-412 642.5,-412 642.5,-393 701.5,-393 701.5,-412"/>
<text text-anchor="middle" x="672" y="-400" font-family="Helvetica,sans-Serif" font-size="10.00">GetGuns</text>
</a>
</g>
</g>
<!-- Node1&#45;&gt;Node8 -->
<g id="edge8" class="edge">
<title>Node1&#45;&gt;Node8</title>
<path fill="none" stroke="#63b8ff" d="M836.2,-304.67C825.24,-327.58 803.65,-365.21 773,-384.5 751.65,-397.94 722.95,-401.98 701.77,-402.93"/>
<polygon fill="#63b8ff" stroke="#63b8ff" points="839.51,-305.86 840.49,-295.31 833.15,-302.94 839.51,-305.86"/>
</g>
<!-- Node10 -->
<g id="node10" class="node">
<title>Node10</title>
<g id="a_node10"><a xlink:href="../../df/dbf/TestTLevelReader_8cpp.html#a75c05778cfeaafda2b661762c0a22de8" target="_top" xlink:title=" ">
<polygon fill="white" stroke="#666666" points="711,-449 633,-449 633,-430 711,-430 711,-449"/>
<text text-anchor="middle" x="672" y="-437" font-family="Helvetica,sans-Serif" font-size="10.00">GetWeapons</text>
</a>
</g>
</g>
<!-- Node1&#45;&gt;Node10 -->
<g id="edge11" class="edge">
<title>Node1&#45;&gt;Node10</title>
<path fill="none" stroke="#63b8ff" d="M840.04,-305.1C832.09,-335.25 812.48,-392.57 773,-421.5 755.36,-434.43 731.34,-439.06 711.27,-440.39"/>
<polygon fill="#63b8ff" stroke="#63b8ff" points="843.46,-305.87 842.46,-295.32 836.66,-304.19 843.46,-305.87"/>
</g>
<!-- Node11 -->
<g id="node11" class="node">
<title>Node11</title>
<g id="a_node11"><a xlink:href="../../d6/de3/TestTShop_8cpp.html#a98ee64221600db3809453989f6bf69eb" target="_top" xlink:title=" ">
<polygon fill="white" stroke="#666666" points="712,-375 632,-375 632,-356 712,-356 712,-375"/>
<text text-anchor="middle" x="672" y="-363" font-family="Helvetica,sans-Serif" font-size="10.00">MakeMission</text>
</a>
</g>
</g>
<!-- Node1&#45;&gt;Node11 -->
<g id="edge13" class="edge">
<title>Node1&#45;&gt;Node11</title>
<path fill="none" stroke="#63b8ff" d="M829.44,-302.98C816.09,-317.28 795.3,-336.83 773,-347.5 754.22,-356.48 731.51,-361.01 712.48,-363.28"/>
<polygon fill="#63b8ff" stroke="#63b8ff" points="832.29,-305.04 836.39,-295.27 827.09,-300.35 832.29,-305.04"/>
</g>
<!-- Node13 -->
<g id="node13" class="node">
<title>Node13</title>
<g id="a_node13"><a xlink:href="../../d8/d51/classMyList.html#aca073a4bc1535a2a831f062f6c082e50" target="_top" xlink:title=" ">
<polygon fill="white" stroke="#666666" points="728.5,-338 615.5,-338 615.5,-319 728.5,-319 728.5,-338"/>
<text text-anchor="middle" x="672" y="-326" font-family="Helvetica,sans-Serif" font-size="10.00">MyList::operator==</text>
</a>
</g>
</g>
<!-- Node1&#45;&gt;Node13 -->
<g id="edge15" class="edge">
<title>Node1&#45;&gt;Node13</title>
<path fill="none" stroke="#63b8ff" d="M809.28,-298.38C797.81,-302.29 784.95,-306.37 773,-309.5 758.72,-313.23 743.12,-316.55 728.58,-319.33"/>
<polygon fill="#63b8ff" stroke="#63b8ff" points="810.65,-301.61 818.94,-295.02 808.35,-295 810.65,-301.61"/>
</g>
<!-- Node14 -->
<g id="node14" class="node">
<title>Node14</title>
<g id="a_node14"><a xlink:href="../../d5/d99/classTLevelReader.html#a68c3199258c974d81e965a715a61e7e2" target="_top" xlink:title=" ">
<polygon fill="white" stroke="#666666" points="748,-252.5 596,-252.5 596,-222.5 748,-222.5 748,-252.5"/>
<text text-anchor="start" x="604" y="-240.5" font-family="Helvetica,sans-Serif" font-size="10.00">TLevelReader::ReadCapitan</text>
<text text-anchor="middle" x="672" y="-229.5" font-family="Helvetica,sans-Serif" font-size="10.00">Infos</text>
</a>
</g>
</g>
<!-- Node1&#45;&gt;Node14 -->
<g id="edge16" class="edge">
<title>Node1&#45;&gt;Node14</title>
<path fill="none" stroke="#63b8ff" d="M808.34,-272.67C797.08,-268.86 784.58,-264.83 773,-261.5 762.19,-258.39 750.64,-255.36 739.38,-252.56"/>
<polygon fill="#63b8ff" stroke="#63b8ff" points="807.26,-276 817.85,-275.93 809.53,-269.38 807.26,-276"/>
</g>
<!-- Node20 -->
<g id="node20" class="node">
<title>Node20</title>
<g id="a_node20"><a xlink:href="../../d5/d99/classTLevelReader.html#ac6e2fd6477af4205d0c85433bdb02985" target="_top" xlink:title=" ">
<polygon fill="white" stroke="#666666" points="738,-93 606,-93 606,-74 738,-74 738,-93"/>
<text text-anchor="middle" x="672" y="-81" font-family="Helvetica,sans-Serif" font-size="10.00">TLevelReader::ReadInts</text>
</a>
</g>
</g>
<!-- Node1&#45;&gt;Node20 -->
<g id="edge22" class="edge">
<title>Node1&#45;&gt;Node20</title>
<path fill="none" stroke="#63b8ff" d="M842.92,-265.21C838.77,-226.81 824.06,-143.57 773,-101.5 763.06,-93.31 750.66,-88.33 738.01,-85.39"/>
<polygon fill="#63b8ff" stroke="#63b8ff" points="839.47,-265.97 843.89,-275.6 846.44,-265.32 839.47,-265.97"/>
</g>
<!-- Node22 -->
<g id="node22" class="node">
<title>Node22</title>
<g id="a_node22"><a xlink:href="../../d5/d99/classTLevelReader.html#ae7a5a65dfddd9c939dbdf18846054725" target="_top" xlink:title=" ">
<polygon fill="white" stroke="#666666" points="743.5,-300.5 600.5,-300.5 600.5,-270.5 743.5,-270.5 743.5,-300.5"/>
<text text-anchor="start" x="608.5" y="-288.5" font-family="Helvetica,sans-Serif" font-size="10.00">TLevelReader::ReadPirate</text>
<text text-anchor="middle" x="672" y="-277.5" font-family="Helvetica,sans-Serif" font-size="10.00">Bases</text>
</a>
</g>
</g>
<!-- Node1&#45;&gt;Node22 -->
<g id="edge24" class="edge">
<title>Node1&#45;&gt;Node22</title>
<path fill="none" stroke="#63b8ff" d="M798.79,-285.5C781.83,-285.5 762.18,-285.5 743.52,-285.5"/>
<polygon fill="#63b8ff" stroke="#63b8ff" points="798.97,-289 808.97,-285.5 798.97,-282 798.97,-289"/>
</g>
<!-- Node24 -->
<g id="node24" class="node">
<title>Node24</title>
<g id="a_node24"><a xlink:href="../../d5/d99/classTLevelReader.html#a06cbe367f372ca443af250d9c581b58b" target="_top" xlink:title=" ">
<polygon fill="white" stroke="#666666" points="742,-204 602,-204 602,-185 742,-185 742,-204"/>
<text text-anchor="middle" x="672" y="-192" font-family="Helvetica,sans-Serif" font-size="10.00">TLevelReader::ReadShips</text>
</a>
</g>
</g>
<!-- Node1&#45;&gt;Node24 -->
<g id="edge27" class="edge">
<title>Node1&#45;&gt;Node24</title>
<path fill="none" stroke="#63b8ff" d="M831.84,-267.6C819,-250.86 797.55,-226.54 773,-213.5 763.48,-208.44 752.82,-204.72 742.1,-201.97"/>
<polygon fill="#63b8ff" stroke="#63b8ff" points="829.3,-270.04 838.06,-276 834.92,-265.88 829.3,-270.04"/>
</g>
<!-- Node26 -->
<g id="node26" class="node">
<title>Node26</title>
<g id="a_node26"><a xlink:href="../../d5/d99/classTLevelReader.html#a6e0d6c10291d52c31f5c22b8673dbb98" target="_top" xlink:title=" ">
<polygon fill="white" stroke="#666666" points="773,-167 571,-167 571,-148 773,-148 773,-167"/>
<text text-anchor="middle" x="672" y="-155" font-family="Helvetica,sans-Serif" font-size="10.00">TLevelReader::ReadSpawnDescriptors</text>
</a>
</g>
</g>
<!-- Node1&#45;&gt;Node26 -->
<g id="edge30" class="edge">
<title>Node1&#45;&gt;Node26</title>
<path fill="none" stroke="#63b8ff" d="M837.45,-266.28C827.25,-241.36 805.93,-198.5 773,-176.5 767.27,-172.67 760.96,-169.57 754.39,-167.06"/>
<polygon fill="#63b8ff" stroke="#63b8ff" points="834.24,-267.7 841.14,-275.74 840.77,-265.16 834.24,-267.7"/>
</g>
<!-- Node28 -->
<g id="node28" class="node">
<title>Node28</title>
<g id="a_node28"><a xlink:href="../../d5/d99/classTLevelReader.html#a4467cdf7d7766981a6b8eeb23076b433" target="_top" xlink:title=" ">
<polygon fill="white" stroke="#666666" points="751,-130 593,-130 593,-111 751,-111 751,-130"/>
<text text-anchor="middle" x="672" y="-118" font-family="Helvetica,sans-Serif" font-size="10.00">TLevelReader::ReadWeapons</text>
</a>
</g>
</g>
<!-- Node1&#45;&gt;Node28 -->
<g id="edge33" class="edge">
<title>Node1&#45;&gt;Node28</title>
<path fill="none" stroke="#63b8ff" d="M840.76,-265.89C833.58,-234.02 814.75,-171.35 773,-139.5 766.47,-134.52 759.01,-130.72 751.17,-127.83"/>
<polygon fill="#63b8ff" stroke="#63b8ff" points="837.35,-266.71 842.82,-275.78 844.2,-265.28 837.35,-266.71"/>
</g>
<!-- Node30 -->
<g id="node30" class="node">
<title>Node30</title>
<g id="a_node30"><a xlink:href="../../db/dab/classTPlaying.html#a2f2f477130ea067b82ac292b96e5cf8d" target="_top" xlink:title=" ">
<polygon fill="white" stroke="#666666" points="741.5,-56 602.5,-56 602.5,-37 741.5,-37 741.5,-56"/>
<text text-anchor="middle" x="672" y="-44" font-family="Helvetica,sans-Serif" font-size="10.00">TPlaying::RemoveRipped</text>
</a>
</g>
</g>
<!-- Node1&#45;&gt;Node30 -->
<g id="edge36" class="edge">
<title>Node1&#45;&gt;Node30</title>
<path fill="none" stroke="#63b8ff" d="M844.44,-265.49C843.14,-221.76 833.5,-117.35 773,-64.5 764.17,-56.78 753.17,-51.86 741.74,-48.8"/>
<polygon fill="#63b8ff" stroke="#63b8ff" points="840.94,-265.75 844.62,-275.68 847.94,-265.62 840.94,-265.75"/>
</g>
<!-- Node31 -->
<g id="node31" class="node">
<title>Node31</title>
<g id="a_node31"><a xlink:href="../../db/d41/TestMyList_8cpp.html#ad0d3a0bb13e93d1b3d51f58a8afcc9f4" target="_top" xlink:title=" ">
<polygon fill="white" stroke="#666666" points="692.5,-19 651.5,-19 651.5,0 692.5,0 692.5,-19"/>
<text text-anchor="middle" x="672" y="-7" font-family="Helvetica,sans-Serif" font-size="10.00">TEST</text>
</a>
</g>
</g>
<!-- Node1&#45;&gt;Node31 -->
<g id="edge37" class="edge">
<title>Node1&#45;&gt;Node31</title>
<path fill="none" stroke="#63b8ff" d="M841.75,-265.65C833.75,-210.98 808.83,-60.17 773,-27.5 751.1,-7.53 714.88,-6.02 692.56,-7.34"/>
<polygon fill="#63b8ff" stroke="#63b8ff" points="838.31,-266.37 843.19,-275.77 845.24,-265.38 838.31,-266.37"/>
</g>
<!-- Node2&#45;&gt;Node3 -->
<g id="edge2" class="edge">
<title>Node2&#45;&gt;Node3</title>
<path fill="none" stroke="#63b8ff" d="M616.75,-486.27C576.13,-493.58 522.13,-503.31 489.28,-509.23"/>
<polygon fill="#63b8ff" stroke="#63b8ff" points="617.55,-489.68 626.77,-484.47 616.31,-482.79 617.55,-489.68"/>
</g>
<!-- Node7 -->
<g id="node7" class="node">
<title>Node7</title>
<g id="a_node7"><a xlink:href="../../df/dbf/TestTLevelReader_8cpp.html#a0b38a70622c5f89d667fa6639c424089" target="_top" xlink:title=" ">
<polygon fill="white" stroke="#666666" points="479.5,-468 438.5,-468 438.5,-449 479.5,-449 479.5,-468"/>
<text text-anchor="middle" x="459" y="-456" font-family="Helvetica,sans-Serif" font-size="10.00">TEST</text>
</a>
</g>
</g>
<!-- Node2&#45;&gt;Node7 -->
<g id="edge6" class="edge">
<title>Node2&#45;&gt;Node7</title>
<path fill="none" stroke="#63b8ff" d="M616.6,-471.86C571.75,-468.03 510.64,-462.82 479.7,-460.18"/>
<polygon fill="#63b8ff" stroke="#63b8ff" points="616.51,-475.36 626.77,-472.73 617.1,-468.39 616.51,-475.36"/>
</g>
<!-- Node3&#45;&gt;Node4 -->
<g id="edge3" class="edge">
<title>Node3&#45;&gt;Node4</title>
<path fill="none" stroke="#63b8ff" d="M418.94,-522.23C388.47,-528.26 346.17,-536.63 314.61,-542.87"/>
<polygon fill="#63b8ff" stroke="#63b8ff" points="419.65,-525.66 428.78,-520.28 418.29,-518.79 419.65,-525.66"/>
</g>
<!-- Node6 -->
<g id="node6" class="node">
<title>Node6</title>
<g id="a_node6"><a xlink:href="../../df/dbf/TestTLevelReader_8cpp.html#a7345c8c1666adc3189772b4d8c854505" target="_top" xlink:title=" ">
<polygon fill="white" stroke="#666666" points="290.5,-524 249.5,-524 249.5,-505 290.5,-505 290.5,-524"/>
<text text-anchor="middle" x="270" y="-512" font-family="Helvetica,sans-Serif" font-size="10.00">TEST</text>
</a>
</g>
</g>
<!-- Node3&#45;&gt;Node6 -->
<g id="edge5" class="edge">
<title>Node3&#45;&gt;Node6</title>
<path fill="none" stroke="#63b8ff" d="M418.77,-514.5C379.54,-514.5 320.82,-514.5 290.57,-514.5"/>
<polygon fill="#63b8ff" stroke="#63b8ff" points="418.78,-518 428.78,-514.5 418.78,-511 418.78,-518"/>
</g>
<!-- Node5 -->
<g id="node5" class="node">
<title>Node5</title>
<g id="a_node5"><a xlink:href="../../df/dbf/TestTLevelReader_8cpp.html#a755cf3ec78fcb2c18a1579f855288e53" target="_top" xlink:title=" ">
<polygon fill="white" stroke="#666666" points="99,-561 58,-561 58,-542 99,-542 99,-561"/>
<text text-anchor="middle" x="78.5" y="-549" font-family="Helvetica,sans-Serif" font-size="10.00">TEST</text>
</a>
</g>
</g>
<!-- Node4&#45;&gt;Node5 -->
<g id="edge4" class="edge">
<title>Node4&#45;&gt;Node5</title>
<path fill="none" stroke="#63b8ff" d="M214.99,-551.5C176.4,-551.5 126.67,-551.5 99.47,-551.5"/>
<polygon fill="#63b8ff" stroke="#63b8ff" points="215.05,-555 225.05,-551.5 215.05,-548 215.05,-555"/>
</g>
<!-- Node9 -->
<g id="node9" class="node">
<title>Node9</title>
<g id="a_node9"><a xlink:href="../../d6/de3/TestTShop_8cpp.html#a9090d51b3bf731e31e72a99c51bb40c1" target="_top" xlink:title=" ">
<polygon fill="white" stroke="#666666" points="479.5,-412 438.5,-412 438.5,-393 479.5,-393 479.5,-412"/>
<text text-anchor="middle" x="459" y="-400" font-family="Helvetica,sans-Serif" font-size="10.00">TEST</text>
</a>
</g>
</g>
<!-- Node8&#45;&gt;Node9 -->
<g id="edge9" class="edge">
<title>Node8&#45;&gt;Node9</title>
<path fill="none" stroke="#63b8ff" d="M632.1,-402.5C587.01,-402.5 514.45,-402.5 479.74,-402.5"/>
<polygon fill="#63b8ff" stroke="#63b8ff" points="632.1,-406 642.1,-402.5 632.1,-399 632.1,-406"/>
</g>
<!-- Node10&#45;&gt;Node7 -->
<g id="edge12" class="edge">
<title>Node10&#45;&gt;Node7</title>
<path fill="none" stroke="#63b8ff" d="M622.59,-443.86C577.27,-447.94 511.83,-453.83 479.53,-456.74"/>
<polygon fill="#63b8ff" stroke="#63b8ff" points="623.14,-447.32 632.79,-442.94 622.52,-440.35 623.14,-447.32"/>
</g>
<!-- Node12 -->
<g id="node12" class="node">
<title>Node12</title>
<g id="a_node12"><a xlink:href="../../d6/de3/TestTShop_8cpp.html#a937e13c3ba627f9a4aaa50df1b38f793" target="_top" xlink:title=" ">
<polygon fill="white" stroke="#666666" points="479.5,-375 438.5,-375 438.5,-356 479.5,-356 479.5,-375"/>
<text text-anchor="middle" x="459" y="-363" font-family="Helvetica,sans-Serif" font-size="10.00">TEST</text>
</a>
</g>
</g>
<!-- Node11&#45;&gt;Node12 -->
<g id="edge14" class="edge">
<title>Node11&#45;&gt;Node12</title>
<path fill="none" stroke="#63b8ff" d="M621.61,-365.5C576.37,-365.5 511.7,-365.5 479.61,-365.5"/>
<polygon fill="#63b8ff" stroke="#63b8ff" points="621.81,-369 631.81,-365.5 621.81,-362 621.81,-369"/>
</g>
<!-- Node15 -->
<g id="node15" class="node">
<title>Node15</title>
<g id="a_node15"><a xlink:href="../../d5/d99/classTLevelReader.html#a5e3953bd0caf6e6c60d6750ff732150a" target="_top" xlink:title=" ">
<polygon fill="white" stroke="#666666" points="535,-252.5 383,-252.5 383,-222.5 535,-222.5 535,-252.5"/>
<text text-anchor="start" x="391" y="-240.5" font-family="Helvetica,sans-Serif" font-size="10.00">TLevelReader::ReadMission</text>
<text text-anchor="middle" x="459" y="-229.5" font-family="Helvetica,sans-Serif" font-size="10.00">InfoFromStream</text>
</a>
</g>
</g>
<!-- Node14&#45;&gt;Node15 -->
<g id="edge17" class="edge">
<title>Node14&#45;&gt;Node15</title>
<path fill="none" stroke="#63b8ff" d="M585.47,-237.5C568.84,-237.5 551.52,-237.5 535.25,-237.5"/>
<polygon fill="#63b8ff" stroke="#63b8ff" points="585.72,-241 595.72,-237.5 585.72,-234 585.72,-241"/>
</g>
<!-- Node19 -->
<g id="node19" class="node">
<title>Node19</title>
<g id="a_node19"><a xlink:href="../../df/dbf/TestTLevelReader_8cpp.html#a24daca223446d45d535988669914051e" target="_top" xlink:title=" ">
<polygon fill="white" stroke="#666666" points="479.5,-290 438.5,-290 438.5,-271 479.5,-271 479.5,-290"/>
<text text-anchor="middle" x="459" y="-278" font-family="Helvetica,sans-Serif" font-size="10.00">TEST</text>
</a>
</g>
</g>
<!-- Node14&#45;&gt;Node19 -->
<g id="edge21" class="edge">
<title>Node14&#45;&gt;Node19</title>
<path fill="none" stroke="#63b8ff" d="M587.28,-254.56C547.83,-262.6 504.13,-271.51 479.57,-276.51"/>
<polygon fill="#63b8ff" stroke="#63b8ff" points="588.1,-257.97 597.2,-252.54 586.7,-251.11 588.1,-257.97"/>
</g>
<!-- Node16 -->
<g id="node16" class="node">
<title>Node16</title>
<g id="a_node16"><a xlink:href="../../d2/dc1/classTLevelSelector.html#a1ce3be0dec7c17d6674837ff8742d5ee" target="_top" xlink:title=" ">
<polygon fill="white" stroke="#666666" points="347,-274.5 193,-274.5 193,-244.5 347,-244.5 347,-274.5"/>
<text text-anchor="start" x="201" y="-262.5" font-family="Helvetica,sans-Serif" font-size="10.00">TLevelSelector::readMission</text>
<text text-anchor="middle" x="270" y="-251.5" font-family="Helvetica,sans-Serif" font-size="10.00">InfoFromStream</text>
</a>
</g>
</g>
<!-- Node15&#45;&gt;Node16 -->
<g id="edge18" class="edge">
<title>Node15&#45;&gt;Node16</title>
<path fill="none" stroke="#63b8ff" d="M372.74,-247.53C364.16,-248.54 355.49,-249.56 347.01,-250.56"/>
<polygon fill="#63b8ff" stroke="#63b8ff" points="373.23,-251 382.75,-246.35 372.41,-244.05 373.23,-251"/>
</g>
<!-- Node18 -->
<g id="node18" class="node">
<title>Node18</title>
<g id="a_node18"><a xlink:href="../../df/dbf/TestTLevelReader_8cpp.html#a5b89023c1d74cccde2a4947bc710cd5b" target="_top" xlink:title=" ">
<polygon fill="white" stroke="#666666" points="290.5,-226 249.5,-226 249.5,-207 290.5,-207 290.5,-226"/>
<text text-anchor="middle" x="270" y="-214" font-family="Helvetica,sans-Serif" font-size="10.00">TEST</text>
</a>
</g>
</g>
<!-- Node15&#45;&gt;Node18 -->
<g id="edge20" class="edge">
<title>Node15&#45;&gt;Node18</title>
<path fill="none" stroke="#63b8ff" d="M372.46,-227.89C341.95,-224.47 310.29,-220.91 290.63,-218.7"/>
<polygon fill="#63b8ff" stroke="#63b8ff" points="372.42,-231.41 382.75,-229.05 373.2,-224.46 372.42,-231.41"/>
</g>
<!-- Node17 -->
<g id="node17" class="node">
<title>Node17</title>
<g id="a_node17"><a xlink:href="../../d2/dc1/classTLevelSelector.html#a8052aa13fccc78befaf7cd0cc95fbe97" target="_top" xlink:title=" ">
<polygon fill="white" stroke="#666666" points="157,-269 0,-269 0,-250 157,-250 157,-269"/>
<text text-anchor="middle" x="78.5" y="-257" font-family="Helvetica,sans-Serif" font-size="10.00">TLevelSelector::ChooseLevel</text>
</a>
</g>
</g>
<!-- Node16&#45;&gt;Node17 -->
<g id="edge19" class="edge">
<title>Node16&#45;&gt;Node17</title>
<path fill="none" stroke="#63b8ff" d="M182.49,-259.5C174.04,-259.5 165.5,-259.5 157.15,-259.5"/>
<polygon fill="#63b8ff" stroke="#63b8ff" points="182.74,-263 192.74,-259.5 182.74,-256 182.74,-263"/>
</g>
<!-- Node21 -->
<g id="node21" class="node">
<title>Node21</title>
<g id="a_node21"><a xlink:href="../../df/dbf/TestTLevelReader_8cpp.html#a6c36f508b1750d59e3ab18b7a77174ea" target="_top" xlink:title=" ">
<polygon fill="white" stroke="#666666" points="479.5,-93 438.5,-93 438.5,-74 479.5,-74 479.5,-93"/>
<text text-anchor="middle" x="459" y="-81" font-family="Helvetica,sans-Serif" font-size="10.00">TEST</text>
</a>
</g>
</g>
<!-- Node20&#45;&gt;Node21 -->
<g id="edge23" class="edge">
<title>Node20&#45;&gt;Node21</title>
<path fill="none" stroke="#63b8ff" d="M595.89,-83.5C554.53,-83.5 506.35,-83.5 479.91,-83.5"/>
<polygon fill="#63b8ff" stroke="#63b8ff" points="595.97,-87 605.97,-83.5 595.97,-80 595.97,-87"/>
</g>
<!-- Node22&#45;&gt;Node15 -->
<g id="edge25" class="edge">
<title>Node22&#45;&gt;Node15</title>
<path fill="none" stroke="#63b8ff" d="M594.94,-268.2C572.36,-263.06 547.83,-257.48 525.95,-252.5"/>
<polygon fill="#63b8ff" stroke="#63b8ff" points="594.29,-271.64 604.82,-270.44 595.84,-264.81 594.29,-271.64"/>
</g>
<!-- Node23 -->
<g id="node23" class="node">
<title>Node23</title>
<g id="a_node23"><a xlink:href="../../df/dbf/TestTLevelReader_8cpp.html#ae486e71c128cb1945779cfcc50810a9e" target="_top" xlink:title=" ">
<polygon fill="white" stroke="#666666" points="479.5,-327 438.5,-327 438.5,-308 479.5,-308 479.5,-327"/>
<text text-anchor="middle" x="459" y="-315" font-family="Helvetica,sans-Serif" font-size="10.00">TEST</text>
</a>
</g>
</g>
<!-- Node22&#45;&gt;Node23 -->
<g id="edge26" class="edge">
<title>Node22&#45;&gt;Node23</title>
<path fill="none" stroke="#63b8ff" d="M590.37,-297.73C550.23,-303.82 504.99,-310.68 479.75,-314.5"/>
<polygon fill="#63b8ff" stroke="#63b8ff" points="591.08,-301.16 600.45,-296.2 590.03,-294.24 591.08,-301.16"/>
</g>
<!-- Node24&#45;&gt;Node15 -->
<g id="edge28" class="edge">
<title>Node24&#45;&gt;Node15</title>
<path fill="none" stroke="#63b8ff" d="M609.5,-205.93C596.76,-208.37 583.44,-210.97 571,-213.5 557.18,-216.31 542.43,-219.42 528.33,-222.44"/>
<polygon fill="#63b8ff" stroke="#63b8ff" points="610.4,-209.32 619.56,-204.02 609.09,-202.45 610.4,-209.32"/>
</g>
<!-- Node25 -->
<g id="node25" class="node">
<title>Node25</title>
<g id="a_node25"><a xlink:href="../../df/dbf/TestTLevelReader_8cpp.html#ae1685fd5cbbb95637c7623fffb0a0a7f" target="_top" xlink:title=" ">
<polygon fill="white" stroke="#666666" points="479.5,-204 438.5,-204 438.5,-185 479.5,-185 479.5,-204"/>
<text text-anchor="middle" x="459" y="-192" font-family="Helvetica,sans-Serif" font-size="10.00">TEST</text>
</a>
</g>
</g>
<!-- Node24&#45;&gt;Node25 -->
<g id="edge29" class="edge">
<title>Node24&#45;&gt;Node25</title>
<path fill="none" stroke="#63b8ff" d="M591.73,-194.5C551.16,-194.5 505.07,-194.5 479.58,-194.5"/>
<polygon fill="#63b8ff" stroke="#63b8ff" points="591.91,-198 601.91,-194.5 591.91,-191 591.91,-198"/>
</g>
<!-- Node26&#45;&gt;Node15 -->
<g id="edge31" class="edge">
<title>Node26&#45;&gt;Node15</title>
<path fill="none" stroke="#63b8ff" d="M584.5,-170.37C579.83,-172.16 575.3,-174.19 571,-176.5 550.79,-187.37 554.51,-201.42 535,-213.5 529.54,-216.88 523.55,-219.83 517.42,-222.39"/>
<polygon fill="#63b8ff" stroke="#63b8ff" points="585.92,-173.58 594.24,-167.03 583.65,-166.96 585.92,-173.58"/>
</g>
<!-- Node27 -->
<g id="node27" class="node">
<title>Node27</title>
<g id="a_node27"><a xlink:href="../../df/dbf/TestTLevelReader_8cpp.html#a3d91a40a002dd06ad7a815653e1c1bfd" target="_top" xlink:title=" ">
<polygon fill="white" stroke="#666666" points="479.5,-167 438.5,-167 438.5,-148 479.5,-148 479.5,-167"/>
<text text-anchor="middle" x="459" y="-155" font-family="Helvetica,sans-Serif" font-size="10.00">TEST</text>
</a>
</g>
</g>
<!-- Node26&#45;&gt;Node27 -->
<g id="edge32" class="edge">
<title>Node26&#45;&gt;Node27</title>
<path fill="none" stroke="#63b8ff" d="M560.59,-157.5C529.31,-157.5 498.6,-157.5 479.51,-157.5"/>
<polygon fill="#63b8ff" stroke="#63b8ff" points="560.75,-161 570.75,-157.5 560.75,-154 560.75,-161"/>
</g>
<!-- Node28&#45;&gt;Node15 -->
<g id="edge34" class="edge">
<title>Node28&#45;&gt;Node15</title>
<path fill="none" stroke="#63b8ff" d="M583.49,-131.81C579.08,-133.99 574.88,-136.54 571,-139.5 541.95,-161.72 562.64,-189.55 535,-213.5 531.07,-216.9 526.66,-219.82 521.99,-222.33"/>
<polygon fill="#63b8ff" stroke="#63b8ff" points="585,-134.97 592.81,-127.82 582.24,-128.54 585,-134.97"/>
</g>
<!-- Node29 -->
<g id="node29" class="node">
<title>Node29</title>
<g id="a_node29"><a xlink:href="../../df/dbf/TestTLevelReader_8cpp.html#a5d44caed3904c1ef6c734477bed059f0" target="_top" xlink:title=" ">
<polygon fill="white" stroke="#666666" points="479.5,-130 438.5,-130 438.5,-111 479.5,-111 479.5,-130"/>
<text text-anchor="middle" x="459" y="-118" font-family="Helvetica,sans-Serif" font-size="10.00">TEST</text>
</a>
</g>
</g>
<!-- Node28&#45;&gt;Node29 -->
<g id="edge35" class="edge">
<title>Node28&#45;&gt;Node29</title>
<path fill="none" stroke="#63b8ff" d="M582.58,-120.5C544.4,-120.5 503.16,-120.5 479.57,-120.5"/>
<polygon fill="#63b8ff" stroke="#63b8ff" points="582.73,-124 592.73,-120.5 582.73,-117 582.73,-124"/>
</g>
</g>
</svg>
        <g id="navigator" transform="translate(0 0)" fill="#404254">
                <rect fill="#f2f5e9" fill-opacity="0.5" stroke="#606060" stroke-width=".5" x="0" y="0" width="60" height="60"/>
                <use id="zoomplus" xlink:href="#zoomPlus" x="17" y="9" onmousedown="handleZoom(evt,'in')"/>
                <use id="zoomminus" xlink:href="#zoomMin" x="42" y="9" onmousedown="handleZoom(evt,'out')"/>
                <use id="reset" xlink:href="#resetDef" x="30" y="36" onmousedown="handleReset()"/>
                <g id="arrowUp" xlink:href="#dirArrow" transform="translate(30 24)" onmousedown="handlePan(0,-1)">
                  <use xlink:href="#rim" fill="#404040">
                        <set attributeName="fill" to="#808080" begin="arrowUp.mouseover" end="arrowUp.mouseout"/>
                  </use>
                  <path fill="none" stroke="white" stroke-width="1.5" d="M0,-3.0v7 M-2.5,-0.5L0,-3.0L2.5,-0.5"/>
                </g>
                <g id="arrowRight" xlink:href="#dirArrow" transform="rotate(90) translate(36 -43)" onmousedown="handlePan(1,0)">
                  <use xlink:href="#rim" fill="#404040">
                        <set attributeName="fill" to="#808080" begin="arrowRight.mouseover" end="arrowRight.mouseout"/>
                  </use>
                  <path fill="none" stroke="white" stroke-width="1.5" d="M0,-3.0v7 M-2.5,-0.5L0,-3.0L2.5,-0.5"/>
                </g>
                <g id="arrowDown" xlink:href="#dirArrow" transform="rotate(180) translate(-30 -48)" onmousedown="handlePan(0,1)">
                  <use xlink:href="#rim" fill="#404040">
                        <set attributeName="fill" to="#808080" begin="arrowDown.mouseover" end="arrowDown.mouseout"/>
                  </use>
                  <path fill="none" stroke="white" stroke-width="1.5" d="M0,-3.0v7 M-2.5,-0.5L0,-3.0L2.5,-0.5"/>
                </g>
                <g id="arrowLeft" xlink:href="#dirArrow" transform="rotate(270) translate(-36 17)" onmousedown="handlePan(-1,0)">
                  <use xlink:href="#rim" fill="#404040">
                        <set attributeName="fill" to="#808080" begin="arrowLeft.mouseover" end="arrowLeft.mouseout"/>
                  </use>
                  <path fill="none" stroke="white" stroke-width="1.5" d="M0,-3.0v7 M-2.5,-0.5L0,-3.0L2.5,-0.5"/>
                </g>
        </g>
        <svg viewBox="0 0 15 15" width="100%" height="30px" preserveAspectRatio="xMaxYMin meet">
         <g id="arrow_out" transform="scale(0.3 0.3)">
          <a xlink:href="classMyList_a723c00a8380b8fd0705cb286cdd179d2_icgraph_org.svg" target="_base">
           <rect id="button" ry="5" rx="5" y="6" x="6" height="38" width="38"
                fill="#f2f5e9" fill-opacity="0.5" stroke="#606060" stroke-width="1.0"/>
           <path id="arrow"
             d="M 11.500037,31.436501 C 11.940474,20.09759 22.043105,11.32322 32.158766,21.979434 L 37.068811,17.246167 C 37.068811,17.246167 37.088388,32 37.088388,32 L 22.160133,31.978069 C 22.160133,31.978069 26.997745,27.140456 26.997745,27.140456 C 18.528582,18.264221 13.291696,25.230495 11.500037,31.436501 z"
             style="fill:#404040;"/>
          </a>
         </g>
        </svg>
</svg>
