<?xml version="1.0" encoding="UTF-8" standalone="no"?>
<!DOCTYPE svg PUBLIC "-//W3C//DTD SVG 1.1//EN"
 "http://www.w3.org/Graphics/SVG/1.1/DTD/svg11.dtd">
<!-- Generated by graphviz version 2.43.0 (0)
 -->
<!-- Title: MyList::erase Pages: 1 -->
<svg width="518pt" height="101pt"
 viewBox="0.00 0.00 518.00 101.00" xmlns="http://www.w3.org/2000/svg" xmlns:xlink="http://www.w3.org/1999/xlink">
<g id="graph0" class="graph" transform="scale(1 1) rotate(0) translate(4 97)">
<title>MyList::erase</title>
<!-- Node1 -->
<g id="node1" class="node">
<title>Node1</title>
<g id="a_node1"><a xlink:title=" ">
<polygon fill="#999999" stroke="#666666" points="510,-56 428,-56 428,-37 510,-37 510,-56"/>
<text text-anchor="middle" x="469" y="-44" font-family="Helvetica,sans-Serif" font-size="10.00">MyList::erase</text>
</a>
</g>
</g>
<!-- Node2 -->
<g id="node2" class="node">
<title>Node2</title>
<g id="a_node2"><a xlink:href="../../db/dab/classTPlaying.html#a2f2f477130ea067b82ac292b96e5cf8d" target="_top" xlink:title=" ">
<polygon fill="white" stroke="#666666" points="392,-93 253,-93 253,-74 392,-74 392,-93"/>
<text text-anchor="middle" x="322.5" y="-81" font-family="Helvetica,sans-Serif" font-size="10.00">TPlaying::RemoveRipped</text>
</a>
</g>
</g>
<!-- Node1&#45;&gt;Node2 -->
<g id="edge1" class="edge">
<title>Node1&#45;&gt;Node2</title>
<path fill="none" stroke="#63b8ff" d="M420.89,-58.56C401.42,-63.55 379.16,-69.25 360.84,-73.94"/>
<polygon fill="#63b8ff" stroke="#63b8ff" points="421.97,-61.9 430.79,-56.03 420.23,-55.12 421.97,-61.9"/>
</g>
<!-- Node3 -->
<g id="node3" class="node">
<title>Node3</title>
<g id="a_node3"><a xlink:href="../../dc/de8/classTShop.html#ae39747c12e22b3bd4641affc0be979e3" target="_top" xlink:title=" ">
<polygon fill="white" stroke="#666666" points="368.5,-56 276.5,-56 276.5,-37 368.5,-37 368.5,-56"/>
<text text-anchor="middle" x="322.5" y="-44" font-family="Helvetica,sans-Serif" font-size="10.00">TShop::SellShip</text>
</a>
</g>
</g>
<!-- Node1&#45;&gt;Node3 -->
<g id="edge2" class="edge">
<title>Node1&#45;&gt;Node3</title>
<path fill="none" stroke="#63b8ff" d="M417.55,-46.5C401.63,-46.5 384.15,-46.5 368.62,-46.5"/>
<polygon fill="#63b8ff" stroke="#63b8ff" points="417.75,-50 427.75,-46.5 417.75,-43 417.75,-50"/>
</g>
<!-- Node7 -->
<g id="node7" class="node">
<title>Node7</title>
<g id="a_node7"><a xlink:href="../../db/d41/TestMyList_8cpp.html#ae0658563523aeaf2785282b1b3beef48" target="_top" xlink:title=" ">
<polygon fill="white" stroke="#666666" points="343,-19 302,-19 302,0 343,0 343,-19"/>
<text text-anchor="middle" x="322.5" y="-7" font-family="Helvetica,sans-Serif" font-size="10.00">TEST</text>
</a>
</g>
</g>
<!-- Node1&#45;&gt;Node7 -->
<g id="edge6" class="edge">
<title>Node1&#45;&gt;Node7</title>
<path fill="none" stroke="#63b8ff" d="M420.98,-34.46C394.63,-27.71 363.17,-19.66 343.26,-14.56"/>
<polygon fill="#63b8ff" stroke="#63b8ff" points="420.23,-37.88 430.79,-36.97 421.97,-31.1 420.23,-37.88"/>
</g>
<!-- Node4 -->
<g id="node4" class="node">
<title>Node4</title>
<g id="a_node4"><a xlink:href="../../dc/de8/classTShop.html#a1dcf7617180c288121288af2ed21909b" target="_top" xlink:title=" ">
<polygon fill="white" stroke="#666666" points="217,-74 113,-74 113,-55 217,-55 217,-74"/>
<text text-anchor="middle" x="165" y="-62" font-family="Helvetica,sans-Serif" font-size="10.00">TShop::MainMenu</text>
</a>
</g>
</g>
<!-- Node3&#45;&gt;Node4 -->
<g id="edge3" class="edge">
<title>Node3&#45;&gt;Node4</title>
<path fill="none" stroke="#63b8ff" d="M265.89,-52.94C250.01,-54.77 232.79,-56.77 217.19,-58.57"/>
<polygon fill="#63b8ff" stroke="#63b8ff" points="266.57,-56.38 276.1,-51.75 265.77,-49.43 266.57,-56.38"/>
</g>
<!-- Node6 -->
<g id="node6" class="node">
<title>Node6</title>
<g id="a_node6"><a xlink:href="../../d6/de3/TestTShop_8cpp.html#ac97fb89041a078a29c13fe7c9a070fea" target="_top" xlink:title=" ">
<polygon fill="white" stroke="#666666" points="185.5,-37 144.5,-37 144.5,-18 185.5,-18 185.5,-37"/>
<text text-anchor="middle" x="165" y="-25" font-family="Helvetica,sans-Serif" font-size="10.00">TEST</text>
</a>
</g>
</g>
<!-- Node3&#45;&gt;Node6 -->
<g id="edge5" class="edge">
<title>Node3&#45;&gt;Node6</title>
<path fill="none" stroke="#63b8ff" d="M266.03,-39.72C238.09,-36.31 205.96,-32.38 185.81,-29.92"/>
<polygon fill="#63b8ff" stroke="#63b8ff" points="265.75,-43.21 276.1,-40.95 266.6,-36.27 265.75,-43.21"/>
</g>
<!-- Node5 -->
<g id="node5" class="node">
<title>Node5</title>
<g id="a_node5"><a xlink:href="../../dc/de8/classTShop.html#a789d5e786476555b588aece81642f6f9" target="_top" xlink:title=" ">
<polygon fill="white" stroke="#666666" points="77,-74 0,-74 0,-55 77,-55 77,-74"/>
<text text-anchor="middle" x="38.5" y="-62" font-family="Helvetica,sans-Serif" font-size="10.00">TShop::Shop</text>
</a>
</g>
</g>
<!-- Node4&#45;&gt;Node5 -->
<g id="edge4" class="edge">
<title>Node4&#45;&gt;Node5</title>
<path fill="none" stroke="#63b8ff" d="M102.49,-64.5C93.8,-64.5 85.1,-64.5 77.05,-64.5"/>
<polygon fill="#63b8ff" stroke="#63b8ff" points="102.64,-68 112.64,-64.5 102.64,-61 102.64,-68"/>
</g>
</g>
</svg>
