<?xml version="1.0" encoding="UTF-8" standalone="no"?>
<!DOCTYPE svg PUBLIC "-//W3C//DTD SVG 1.1//EN"
 "http://www.w3.org/Graphics/SVG/1.1/DTD/svg11.dtd">
<!-- Generated by graphviz version 2.43.0 (0)
 -->
<!-- Title: MyList::Clear Pages: 1 -->
<svg width="228pt" height="64pt"
 viewBox="0.00 0.00 228.00 64.00" xmlns="http://www.w3.org/2000/svg" xmlns:xlink="http://www.w3.org/1999/xlink">
<g id="graph0" class="graph" transform="scale(1 1) rotate(0) translate(4 60)">
<title>MyList::Clear</title>
<!-- Node1 -->
<g id="node1" class="node">
<title>Node1</title>
<g id="a_node1"><a xlink:title=" ">
<polygon fill="#999999" stroke="#666666" points="220,-37 140,-37 140,-18 220,-18 220,-37"/>
<text text-anchor="middle" x="180" y="-25" font-family="Helvetica,sans-Serif" font-size="10.00">MyList::Clear</text>
</a>
</g>
</g>
<!-- Node2 -->
<g id="node2" class="node">
<title>Node2</title>
<g id="a_node2"><a xlink:href="../../d8/d51/classMyList.html#a73539ac9c4e822931c1e74b228867099" target="_top" xlink:title=" ">
<polygon fill="white" stroke="#666666" points="104,-56 0,-56 0,-37 104,-37 104,-56"/>
<text text-anchor="middle" x="52" y="-44" font-family="Helvetica,sans-Serif" font-size="10.00">MyList::operator=</text>
</a>
</g>
</g>
<!-- Node1&#45;&gt;Node2 -->
<g id="edge1" class="edge">
<title>Node1&#45;&gt;Node2</title>
<path fill="none" stroke="#63b8ff" d="M129.79,-34.92C121.4,-36.19 112.66,-37.5 104.21,-38.78"/>
<polygon fill="#63b8ff" stroke="#63b8ff" points="130.46,-38.36 139.82,-33.41 129.41,-31.44 130.46,-38.36"/>
</g>
<!-- Node3 -->
<g id="node3" class="node">
<title>Node3</title>
<g id="a_node3"><a xlink:href="../../d8/d51/classMyList.html#aa622b9fb3e108b8b8c298ef1996dd256" target="_top" xlink:title=" ">
<polygon fill="white" stroke="#666666" points="99.5,-19 4.5,-19 4.5,0 99.5,0 99.5,-19"/>
<text text-anchor="middle" x="52" y="-7" font-family="Helvetica,sans-Serif" font-size="10.00">MyList::~MyList</text>
</a>
</g>
</g>
<!-- Node1&#45;&gt;Node3 -->
<g id="edge2" class="edge">
<title>Node1&#45;&gt;Node3</title>
<path fill="none" stroke="#63b8ff" d="M129.73,-20.46C119.84,-19.05 109.47,-17.57 99.67,-16.17"/>
<polygon fill="#63b8ff" stroke="#63b8ff" points="129.43,-23.95 139.82,-21.9 130.42,-17.02 129.43,-23.95"/>
</g>
</g>
</svg>
