<?xml version="1.0" encoding="UTF-8" standalone="no"?>
<!DOCTYPE svg PUBLIC "-//W3C//DTD SVG 1.1//EN"
 "http://www.w3.org/Graphics/SVG/1.1/DTD/svg11.dtd">
<!-- Generated by graphviz version 2.43.0 (0)
 -->
<!-- Title: main Pages: 1 -->
<svg width="386pt" height="155pt"
 viewBox="0.00 0.00 386.00 155.00" xmlns="http://www.w3.org/2000/svg" xmlns:xlink="http://www.w3.org/1999/xlink">
<g id="graph0" class="graph" transform="scale(1 1) rotate(0) translate(4 151)">
<title>main</title>
<!-- Node1 -->
<g id="node1" class="node">
<title>Node1</title>
<g id="a_node1"><a xlink:title=" ">
<polygon fill="#999999" stroke="#666666" points="41,-74 0,-74 0,-55 41,-55 41,-74"/>
<text text-anchor="middle" x="20.5" y="-62" font-family="Helvetica,sans-Serif" font-size="10.00">main</text>
</a>
</g>
</g>
<!-- Node2 -->
<g id="node2" class="node">
<title>Node2</title>
<g id="a_node2"><a xlink:href="../../de/d6e/classTGameCenter.html#a0344cdc2b9027be9b5f56376f7c74ea5" target="_top" xlink:title=" ">
<polygon fill="white" stroke="#666666" points="190,-74 77,-74 77,-55 190,-55 190,-74"/>
<text text-anchor="middle" x="133.5" y="-62" font-family="Helvetica,sans-Serif" font-size="10.00">TGameCenter::Start</text>
</a>
</g>
</g>
<!-- Node1&#45;&gt;Node2 -->
<g id="edge1" class="edge">
<title>Node1&#45;&gt;Node2</title>
<path fill="none" stroke="#63b8ff" d="M41.09,-64.5C48.49,-64.5 57.39,-64.5 66.69,-64.5"/>
<polygon fill="#63b8ff" stroke="#63b8ff" points="66.89,-68 76.89,-64.5 66.89,-61 66.89,-68"/>
</g>
<!-- Node3 -->
<g id="node3" class="node">
<title>Node3</title>
<g id="a_node3"><a xlink:href="../../de/d6e/classTGameCenter.html#a70e0f4db06ab6b317c7aafcc8ce94c7b" target="_top" xlink:title=" ">
<polygon fill="white" stroke="#666666" points="378,-129 226,-129 226,-110 378,-110 378,-129"/>
<text text-anchor="middle" x="302" y="-117" font-family="Helvetica,sans-Serif" font-size="10.00">TGameCenter::ChooseLevel</text>
</a>
</g>
</g>
<!-- Node2&#45;&gt;Node3 -->
<g id="edge2" class="edge">
<title>Node2&#45;&gt;Node3</title>
<path fill="none" stroke="#63b8ff" d="M155.62,-74.08C173.95,-82.15 201.36,-93.61 226,-101.5 232.51,-103.59 239.41,-105.55 246.28,-107.37"/>
<polygon fill="#63b8ff" stroke="#63b8ff" points="245.73,-110.84 256.28,-109.92 247.45,-104.06 245.73,-110.84"/>
</g>
<!-- Node4 -->
<g id="node4" class="node">
<title>Node4</title>
<g id="a_node4"><a xlink:href="../../de/d6e/classTGameCenter.html#ae3e3bca9701c76d5e73e2a95ab809c5f" target="_top" xlink:title=" ">
<polygon fill="white" stroke="#666666" points="357.5,-74 246.5,-74 246.5,-55 357.5,-55 357.5,-74"/>
<text text-anchor="middle" x="302" y="-62" font-family="Helvetica,sans-Serif" font-size="10.00">TGameCenter::Play</text>
</a>
</g>
</g>
<!-- Node2&#45;&gt;Node4 -->
<g id="edge4" class="edge">
<title>Node2&#45;&gt;Node4</title>
<path fill="none" stroke="#63b8ff" d="M190.41,-64.5C205.07,-64.5 221,-64.5 236.09,-64.5"/>
<polygon fill="#63b8ff" stroke="#63b8ff" points="236.37,-68 246.37,-64.5 236.37,-61 236.37,-68"/>
</g>
<!-- Node5 -->
<g id="node5" class="node">
<title>Node5</title>
<g id="a_node5"><a xlink:href="../../de/d6e/classTGameCenter.html#a86ca139bcacad0fc4c04be44e1d399ad" target="_top" xlink:title=" ">
<polygon fill="white" stroke="#666666" points="359,-19 245,-19 245,0 359,0 359,-19"/>
<text text-anchor="middle" x="302" y="-7" font-family="Helvetica,sans-Serif" font-size="10.00">TGameCenter::Shop</text>
</a>
</g>
</g>
<!-- Node2&#45;&gt;Node5 -->
<g id="edge6" class="edge">
<title>Node2&#45;&gt;Node5</title>
<path fill="none" stroke="#63b8ff" d="M163.5,-54.92C190.87,-45.88 232.11,-32.26 262.28,-22.29"/>
<polygon fill="#63b8ff" stroke="#63b8ff" points="263.65,-25.52 272.05,-19.06 261.46,-18.88 263.65,-25.52"/>
</g>
<!-- Node3&#45;&gt;Node3 -->
<g id="edge3" class="edge">
<title>Node3&#45;&gt;Node3</title>
<path fill="none" stroke="#63b8ff" d="M276.11,-129.08C263.51,-137.73 272.14,-147 302,-147 322.06,-147 332.54,-142.82 333.44,-137.45"/>
<polygon fill="#63b8ff" stroke="#63b8ff" points="336.34,-135.49 327.89,-129.08 330.5,-139.35 336.34,-135.49"/>
</g>
<!-- Node4&#45;&gt;Node4 -->
<g id="edge5" class="edge">
<title>Node4&#45;&gt;Node4</title>
<path fill="none" stroke="#63b8ff" d="M276.11,-74.08C263.51,-82.73 272.14,-92 302,-92 322.06,-92 332.54,-87.82 333.44,-82.45"/>
<polygon fill="#63b8ff" stroke="#63b8ff" points="336.34,-80.49 327.89,-74.08 330.5,-84.35 336.34,-80.49"/>
</g>
<!-- Node5&#45;&gt;Node5 -->
<g id="edge7" class="edge">
<title>Node5&#45;&gt;Node5</title>
<path fill="none" stroke="#63b8ff" d="M276.11,-19.08C263.51,-27.73 272.14,-37 302,-37 322.06,-37 332.54,-32.82 333.44,-27.45"/>
<polygon fill="#63b8ff" stroke="#63b8ff" points="336.34,-25.49 327.89,-19.08 330.5,-29.35 336.34,-25.49"/>
</g>
</g>
</svg>
