<?xml version="1.0" encoding="UTF-8" standalone="no"?>
<!DOCTYPE svg PUBLIC "-//W3C//DTD SVG 1.1//EN"
 "http://www.w3.org/Graphics/SVG/1.1/DTD/svg11.dtd">
<!-- Generated by graphviz version 2.43.0 (0)
 -->
<!-- Title: code/base/code/TPirateBase.h Pages: 1 -->
<svg width="629pt" height="335pt"
 viewBox="0.00 0.00 629.00 335.00" xmlns="http://www.w3.org/2000/svg" xmlns:xlink="http://www.w3.org/1999/xlink">
<g id="graph0" class="graph" transform="scale(1 1) rotate(0) translate(4 331)">
<title>code/base/code/TPirateBase.h</title>
<!-- Node1 -->
<g id="node1" class="node">
<title>Node1</title>
<g id="a_node1"><a xlink:title=" ">
<polygon fill="#999999" stroke="#666666" points="239.5,-327 76.5,-327 76.5,-308 239.5,-308 239.5,-327"/>
<text text-anchor="middle" x="158" y="-315" font-family="Helvetica,sans-Serif" font-size="10.00">code/base/code/TPirateBase.h</text>
</a>
</g>
</g>
<!-- Node2 -->
<g id="node2" class="node">
<title>Node2</title>
<g id="a_node2"><a xlink:href="../../d1/d0c/TBase_8h.html" target="_top" xlink:title=" ">
<polygon fill="white" stroke="#666666" points="135,-272 79,-272 79,-253 135,-253 135,-272"/>
<text text-anchor="middle" x="107" y="-260" font-family="Helvetica,sans-Serif" font-size="10.00">TBase.h</text>
</a>
</g>
</g>
<!-- Node1&#45;&gt;Node2 -->
<g id="edge1" class="edge">
<title>Node1&#45;&gt;Node2</title>
<path fill="none" stroke="#63b8ff" d="M149.58,-307.75C142.23,-300.11 131.37,-288.82 122.46,-279.56"/>
<polygon fill="#63b8ff" stroke="#63b8ff" points="124.72,-276.87 115.26,-272.09 119.68,-281.72 124.72,-276.87"/>
</g>
<!-- Node4 -->
<g id="node4" class="node">
<title>Node4</title>
<g id="a_node4"><a xlink:href="../../dc/d2f/TSpawnDescriptor_8h.html" target="_top" xlink:title=" ">
<polygon fill="white" stroke="#666666" points="285.5,-272 172.5,-272 172.5,-253 285.5,-253 285.5,-272"/>
<text text-anchor="middle" x="229" y="-260" font-family="Helvetica,sans-Serif" font-size="10.00">TSpawnDescriptor.h</text>
</a>
</g>
</g>
<!-- Node1&#45;&gt;Node4 -->
<g id="edge3" class="edge">
<title>Node1&#45;&gt;Node4</title>
<path fill="none" stroke="#63b8ff" d="M169.41,-307.98C180.11,-300 196.34,-287.88 209.16,-278.31"/>
<polygon fill="#63b8ff" stroke="#63b8ff" points="211.47,-280.96 217.39,-272.17 207.28,-275.35 211.47,-280.96"/>
</g>
<!-- Node3 -->
<g id="node3" class="node">
<title>Node3</title>
<g id="a_node3"><a xlink:href="../../dc/d06/TObjectOnMap_8h.html" target="_top" xlink:title=" ">
<polygon fill="white" stroke="#666666" points="98,-79.5 0,-79.5 0,-60.5 98,-60.5 98,-79.5"/>
<text text-anchor="middle" x="49" y="-67.5" font-family="Helvetica,sans-Serif" font-size="10.00">TObjectOnMap.h</text>
</a>
</g>
</g>
<!-- Node2&#45;&gt;Node3 -->
<g id="edge2" class="edge">
<title>Node2&#45;&gt;Node3</title>
<path fill="none" stroke="#63b8ff" d="M104.36,-252.82C95.51,-223.75 66.78,-129.4 54.57,-89.3"/>
<polygon fill="#63b8ff" stroke="#63b8ff" points="57.92,-88.28 51.66,-79.73 51.22,-90.32 57.92,-88.28"/>
</g>
<!-- Node5 -->
<g id="node5" class="node">
<title>Node5</title>
<g id="a_node5"><a xlink:href="../../d0/d2a/TWarShip_8h.html" target="_top" xlink:title=" ">
<polygon fill="white" stroke="#666666" points="445,-211.5 301,-211.5 301,-192.5 445,-192.5 445,-211.5"/>
<text text-anchor="middle" x="373" y="-199.5" font-family="Helvetica,sans-Serif" font-size="10.00">../../ships/code/TWarShip.h</text>
</a>
</g>
</g>
<!-- Node4&#45;&gt;Node5 -->
<g id="edge4" class="edge">
<title>Node4&#45;&gt;Node5</title>
<path fill="none" stroke="#63b8ff" d="M249.94,-252.99C274.36,-243.07 314.93,-226.59 342.77,-215.28"/>
<polygon fill="#63b8ff" stroke="#63b8ff" points="344.09,-218.52 352.04,-211.52 341.45,-212.04 344.09,-218.52"/>
</g>
<!-- Node14 -->
<g id="node14" class="node">
<title>Node14</title>
<g id="a_node14"><a xlink:href="../../d8/d06/MyList_8h.html" target="_top" xlink:title=" ">
<polygon fill="white" stroke="#666666" points="282.5,-217 175.5,-217 175.5,-187 282.5,-187 282.5,-217"/>
<text text-anchor="start" x="183.5" y="-205" font-family="Helvetica,sans-Serif" font-size="10.00">../../container/code</text>
<text text-anchor="middle" x="229" y="-194" font-family="Helvetica,sans-Serif" font-size="10.00">/MyList.h</text>
</a>
</g>
</g>
<!-- Node4&#45;&gt;Node14 -->
<g id="edge16" class="edge">
<title>Node4&#45;&gt;Node14</title>
<path fill="none" stroke="#63b8ff" d="M229,-252.87C229,-246.11 229,-236.35 229,-227.26"/>
<polygon fill="#63b8ff" stroke="#63b8ff" points="232.5,-227.11 229,-217.11 225.5,-227.11 232.5,-227.11"/>
</g>
<!-- Node6 -->
<g id="node6" class="node">
<title>Node6</title>
<g id="a_node6"><a xlink:href="../../dc/d2c/TWeaponHolder_8h.html" target="_top" xlink:title=" ">
<polygon fill="white" stroke="#666666" points="425.5,-151 320.5,-151 320.5,-121 425.5,-121 425.5,-151"/>
<text text-anchor="start" x="328.5" y="-139" font-family="Helvetica,sans-Serif" font-size="10.00">../../weapons/code</text>
<text text-anchor="middle" x="373" y="-128" font-family="Helvetica,sans-Serif" font-size="10.00">/TWeaponHolder.h</text>
</a>
</g>
</g>
<!-- Node5&#45;&gt;Node6 -->
<g id="edge5" class="edge">
<title>Node5&#45;&gt;Node6</title>
<path fill="none" stroke="#63b8ff" d="M373,-192.37C373,-184.49 373,-172.45 373,-161.6"/>
<polygon fill="#63b8ff" stroke="#63b8ff" points="376.5,-161.36 373,-151.36 369.5,-161.36 376.5,-161.36"/>
</g>
<!-- Node11 -->
<g id="node11" class="node">
<title>Node11</title>
<g id="a_node11"><a xlink:href="../../d0/d93/TShip_8h.html" target="_top" xlink:title=" ">
<polygon fill="white" stroke="#666666" points="257.5,-145.5 204.5,-145.5 204.5,-126.5 257.5,-126.5 257.5,-145.5"/>
<text text-anchor="middle" x="231" y="-133.5" font-family="Helvetica,sans-Serif" font-size="10.00">TShip.h</text>
</a>
</g>
</g>
<!-- Node5&#45;&gt;Node11 -->
<g id="edge10" class="edge">
<title>Node5&#45;&gt;Node11</title>
<path fill="none" stroke="#63b8ff" d="M353.85,-192.37C329.61,-181.44 287.63,-162.52 259.59,-149.88"/>
<polygon fill="#63b8ff" stroke="#63b8ff" points="260.86,-146.62 250.3,-145.7 257.98,-153 260.86,-146.62"/>
</g>
<!-- Node7 -->
<g id="node7" class="node">
<title>Node7</title>
<g id="a_node7"><a xlink:title=" ">
<polygon fill="#e0e0e0" stroke="#999999" points="318,-79.5 260,-79.5 260,-60.5 318,-60.5 318,-79.5"/>
<text text-anchor="middle" x="289" y="-67.5" font-family="Helvetica,sans-Serif" font-size="10.00">memory</text>
</a>
</g>
</g>
<!-- Node6&#45;&gt;Node7 -->
<g id="edge6" class="edge">
<title>Node6&#45;&gt;Node7</title>
<path fill="none" stroke="#63b8ff" d="M354.36,-120.8C340.88,-110.53 322.69,-96.67 308.92,-86.18"/>
<polygon fill="#63b8ff" stroke="#63b8ff" points="310.68,-83.12 300.61,-79.84 306.44,-88.69 310.68,-83.12"/>
</g>
<!-- Node8 -->
<g id="node8" class="node">
<title>Node8</title>
<g id="a_node8"><a xlink:title=" ">
<polygon fill="#e0e0e0" stroke="#999999" points="472.5,-79.5 425.5,-79.5 425.5,-60.5 472.5,-60.5 472.5,-79.5"/>
<text text-anchor="middle" x="449" y="-67.5" font-family="Helvetica,sans-Serif" font-size="10.00">vector</text>
</a>
</g>
</g>
<!-- Node6&#45;&gt;Node8 -->
<g id="edge7" class="edge">
<title>Node6&#45;&gt;Node8</title>
<path fill="none" stroke="#63b8ff" d="M389.87,-120.8C401.95,-110.62 418.21,-96.93 430.62,-86.48"/>
<polygon fill="#63b8ff" stroke="#63b8ff" points="433.1,-88.96 438.5,-79.84 428.59,-83.61 433.1,-88.96"/>
</g>
<!-- Node9 -->
<g id="node9" class="node">
<title>Node9</title>
<g id="a_node9"><a xlink:href="../../d8/d66/enum__place__on__ship_8h.html" target="_top" xlink:title=" ">
<polygon fill="white" stroke="#666666" points="621,-85 491,-85 491,-55 621,-55 621,-85"/>
<text text-anchor="start" x="499" y="-73" font-family="Helvetica,sans-Serif" font-size="10.00">../../enums/enum_place</text>
<text text-anchor="middle" x="556" y="-62" font-family="Helvetica,sans-Serif" font-size="10.00">_on_ship.h</text>
</a>
</g>
</g>
<!-- Node6&#45;&gt;Node9 -->
<g id="edge8" class="edge">
<title>Node6&#45;&gt;Node9</title>
<path fill="none" stroke="#63b8ff" d="M413.16,-120.95C440.57,-111.37 477.08,-98.6 506.32,-88.37"/>
<polygon fill="#63b8ff" stroke="#63b8ff" points="507.65,-91.62 515.93,-85.01 505.34,-85.01 507.65,-91.62"/>
</g>
<!-- Node10 -->
<g id="node10" class="node">
<title>Node10</title>
<g id="a_node10"><a xlink:href="../../d0/df8/TWeapon_8h.html" target="_top" xlink:title=" ">
<polygon fill="white" stroke="#666666" points="407.5,-79.5 336.5,-79.5 336.5,-60.5 407.5,-60.5 407.5,-79.5"/>
<text text-anchor="middle" x="372" y="-67.5" font-family="Helvetica,sans-Serif" font-size="10.00">TWeapon.h</text>
</a>
</g>
</g>
<!-- Node6&#45;&gt;Node10 -->
<g id="edge9" class="edge">
<title>Node6&#45;&gt;Node10</title>
<path fill="none" stroke="#63b8ff" d="M372.78,-120.8C372.64,-111.7 372.45,-99.79 372.3,-89.9"/>
<polygon fill="#63b8ff" stroke="#63b8ff" points="375.79,-89.79 372.14,-79.84 368.79,-89.9 375.79,-89.79"/>
</g>
<!-- Node11&#45;&gt;Node3 -->
<g id="edge15" class="edge">
<title>Node11&#45;&gt;Node3</title>
<path fill="none" stroke="#63b8ff" d="M206.45,-126.37C174.62,-115.17 118.91,-95.58 83.01,-82.96"/>
<polygon fill="#63b8ff" stroke="#63b8ff" points="84.04,-79.61 73.45,-79.6 81.72,-86.22 84.04,-79.61"/>
</g>
<!-- Node11&#45;&gt;Node7 -->
<g id="edge12" class="edge">
<title>Node11&#45;&gt;Node7</title>
<path fill="none" stroke="#63b8ff" d="M238.82,-126.37C247.85,-116.4 262.91,-99.79 274.17,-87.36"/>
<polygon fill="#63b8ff" stroke="#63b8ff" points="276.81,-89.67 280.93,-79.91 271.62,-84.96 276.81,-89.67"/>
</g>
<!-- Node12 -->
<g id="node12" class="node">
<title>Node12</title>
<g id="a_node12"><a xlink:title=" ">
<polygon fill="#e0e0e0" stroke="#999999" points="218,-19 174,-19 174,0 218,0 218,-19"/>
<text text-anchor="middle" x="196" y="-7" font-family="Helvetica,sans-Serif" font-size="10.00">string</text>
</a>
</g>
</g>
<!-- Node11&#45;&gt;Node12 -->
<g id="edge11" class="edge">
<title>Node11&#45;&gt;Node12</title>
<path fill="none" stroke="#63b8ff" d="M229.5,-126.49C226.82,-111.76 220.73,-80.62 213,-55 210.34,-46.19 206.78,-36.64 203.61,-28.64"/>
<polygon fill="#63b8ff" stroke="#63b8ff" points="206.79,-27.17 199.77,-19.24 200.31,-29.82 206.79,-27.17"/>
</g>
<!-- Node13 -->
<g id="node13" class="node">
<title>Node13</title>
<g id="a_node13"><a xlink:href="../../de/da2/TCapitanInfo_8h.html" target="_top" xlink:title=" ">
<polygon fill="white" stroke="#666666" points="203.5,-79.5 116.5,-79.5 116.5,-60.5 203.5,-60.5 203.5,-79.5"/>
<text text-anchor="middle" x="160" y="-67.5" font-family="Helvetica,sans-Serif" font-size="10.00">TCapitanInfo.h</text>
</a>
</g>
</g>
<!-- Node11&#45;&gt;Node13 -->
<g id="edge13" class="edge">
<title>Node11&#45;&gt;Node13</title>
<path fill="none" stroke="#63b8ff" d="M221.42,-126.37C210.16,-116.21 191.24,-99.16 177.37,-86.65"/>
<polygon fill="#63b8ff" stroke="#63b8ff" points="179.65,-84 169.88,-79.91 174.96,-89.2 179.65,-84"/>
</g>
<!-- Node13&#45;&gt;Node12 -->
<g id="edge14" class="edge">
<title>Node13&#45;&gt;Node12</title>
<path fill="none" stroke="#63b8ff" d="M165.31,-60.37C170.58,-51.81 178.79,-38.47 185.39,-27.74"/>
<polygon fill="#63b8ff" stroke="#63b8ff" points="188.41,-29.52 190.67,-19.17 182.44,-25.85 188.41,-29.52"/>
</g>
<!-- Node14&#45;&gt;Node7 -->
<g id="edge17" class="edge">
<title>Node14&#45;&gt;Node7</title>
<path fill="none" stroke="#63b8ff" d="M242.25,-186.68C250.42,-177.18 260.53,-164.1 267,-151 276.75,-131.28 282.7,-106.61 285.91,-89.92"/>
<polygon fill="#63b8ff" stroke="#63b8ff" points="289.4,-90.25 287.71,-79.8 282.51,-89.03 289.4,-90.25"/>
</g>
<!-- Node14&#45;&gt;Node11 -->
<g id="edge18" class="edge">
<title>Node14&#45;&gt;Node11</title>
<path fill="none" stroke="#63b8ff" d="M229.44,-186.8C229.73,-177.7 230.1,-165.79 230.41,-155.9"/>
<polygon fill="#63b8ff" stroke="#63b8ff" points="233.91,-155.95 230.72,-145.84 226.91,-155.73 233.91,-155.95"/>
</g>
</g>
</svg>
