<?xml version="1.0" encoding="UTF-8" standalone="no"?>
<!DOCTYPE svg PUBLIC "-//W3C//DTD SVG 1.1//EN"
 "http://www.w3.org/Graphics/SVG/1.1/DTD/svg11.dtd">
<!-- Generated by graphviz version 2.43.0 (0)
 -->
<!-- Title: code/weapons/code/TWeaponHolder.cpp Pages: 1 -->
<svg width="415pt" height="159pt"
 viewBox="0.00 0.00 414.50 159.00" xmlns="http://www.w3.org/2000/svg" xmlns:xlink="http://www.w3.org/1999/xlink">
<g id="graph0" class="graph" transform="scale(1 1) rotate(0) translate(4 155)">
<title>code/weapons/code/TWeaponHolder.cpp</title>
<!-- Node1 -->
<g id="node1" class="node">
<title>Node1</title>
<g id="a_node1"><a xlink:title=" ">
<polygon fill="#999999" stroke="#666666" points="180.5,-151 19.5,-151 19.5,-121 180.5,-121 180.5,-151"/>
<text text-anchor="start" x="27.5" y="-139" font-family="Helvetica,sans-Serif" font-size="10.00">code/weapons/code/TWeapon</text>
<text text-anchor="middle" x="100" y="-128" font-family="Helvetica,sans-Serif" font-size="10.00">Holder.cpp</text>
</a>
</g>
</g>
<!-- Node2 -->
<g id="node2" class="node">
<title>Node2</title>
<g id="a_node2"><a xlink:title=" ">
<polygon fill="#e0e0e0" stroke="#999999" points="52,-85 0,-85 0,-66 52,-66 52,-85"/>
<text text-anchor="middle" x="26" y="-73" font-family="Helvetica,sans-Serif" font-size="10.00">cassert</text>
</a>
</g>
</g>
<!-- Node1&#45;&gt;Node2 -->
<g id="edge1" class="edge">
<title>Node1&#45;&gt;Node2</title>
<path fill="none" stroke="#63b8ff" d="M82.09,-120.84C70.91,-112 56.52,-100.63 45.12,-91.62"/>
<polygon fill="#63b8ff" stroke="#63b8ff" points="47.1,-88.72 37.09,-85.27 42.76,-94.21 47.1,-88.72"/>
</g>
<!-- Node3 -->
<g id="node3" class="node">
<title>Node3</title>
<g id="a_node3"><a xlink:title=" ">
<polygon fill="#e0e0e0" stroke="#999999" points="130,-85 70,-85 70,-66 130,-66 130,-85"/>
<text text-anchor="middle" x="100" y="-73" font-family="Helvetica,sans-Serif" font-size="10.00">iostream</text>
</a>
</g>
</g>
<!-- Node1&#45;&gt;Node3 -->
<g id="edge2" class="edge">
<title>Node1&#45;&gt;Node3</title>
<path fill="none" stroke="#63b8ff" d="M100,-120.84C100,-113.21 100,-103.7 100,-95.45"/>
<polygon fill="#63b8ff" stroke="#63b8ff" points="103.5,-95.27 100,-85.27 96.5,-95.27 103.5,-95.27"/>
</g>
<!-- Node4 -->
<g id="node4" class="node">
<title>Node4</title>
<g id="a_node4"><a xlink:href="../../dc/d2c/TWeaponHolder_8h.html" target="_top" xlink:title=" ">
<polygon fill="white" stroke="#666666" points="250,-85 148,-85 148,-66 250,-66 250,-85"/>
<text text-anchor="middle" x="199" y="-73" font-family="Helvetica,sans-Serif" font-size="10.00">TWeaponHolder.h</text>
</a>
</g>
</g>
<!-- Node1&#45;&gt;Node4 -->
<g id="edge3" class="edge">
<title>Node1&#45;&gt;Node4</title>
<path fill="none" stroke="#63b8ff" d="M123.71,-120.99C139.35,-111.75 159.74,-99.7 175.36,-90.47"/>
<polygon fill="#63b8ff" stroke="#63b8ff" points="177.55,-93.24 184.38,-85.14 173.99,-87.21 177.55,-93.24"/>
</g>
<!-- Node5 -->
<g id="node5" class="node">
<title>Node5</title>
<g id="a_node5"><a xlink:title=" ">
<polygon fill="#e0e0e0" stroke="#999999" points="103,-24.5 45,-24.5 45,-5.5 103,-5.5 103,-24.5"/>
<text text-anchor="middle" x="74" y="-12.5" font-family="Helvetica,sans-Serif" font-size="10.00">memory</text>
</a>
</g>
</g>
<!-- Node4&#45;&gt;Node5 -->
<g id="edge4" class="edge">
<title>Node4&#45;&gt;Node5</title>
<path fill="none" stroke="#63b8ff" d="M180.82,-65.99C159.99,-56.25 125.63,-40.16 101.52,-28.88"/>
<polygon fill="#63b8ff" stroke="#63b8ff" points="102.74,-25.59 92.2,-24.52 99.77,-31.93 102.74,-25.59"/>
</g>
<!-- Node6 -->
<g id="node6" class="node">
<title>Node6</title>
<g id="a_node6"><a xlink:title=" ">
<polygon fill="#e0e0e0" stroke="#999999" points="168.5,-24.5 121.5,-24.5 121.5,-5.5 168.5,-5.5 168.5,-24.5"/>
<text text-anchor="middle" x="145" y="-12.5" font-family="Helvetica,sans-Serif" font-size="10.00">vector</text>
</a>
</g>
</g>
<!-- Node4&#45;&gt;Node6 -->
<g id="edge5" class="edge">
<title>Node4&#45;&gt;Node6</title>
<path fill="none" stroke="#63b8ff" d="M191.03,-65.87C182.9,-57.05 170.07,-43.16 160.02,-32.27"/>
<polygon fill="#63b8ff" stroke="#63b8ff" points="162.36,-29.64 153,-24.67 157.21,-34.39 162.36,-29.64"/>
</g>
<!-- Node7 -->
<g id="node7" class="node">
<title>Node7</title>
<g id="a_node7"><a xlink:href="../../d8/d66/enum__place__on__ship_8h.html" target="_top" xlink:title=" ">
<polygon fill="white" stroke="#666666" points="317,-30 187,-30 187,0 317,0 317,-30"/>
<text text-anchor="start" x="195" y="-18" font-family="Helvetica,sans-Serif" font-size="10.00">../../enums/enum_place</text>
<text text-anchor="middle" x="252" y="-7" font-family="Helvetica,sans-Serif" font-size="10.00">_on_ship.h</text>
</a>
</g>
</g>
<!-- Node4&#45;&gt;Node7 -->
<g id="edge6" class="edge">
<title>Node4&#45;&gt;Node7</title>
<path fill="none" stroke="#63b8ff" d="M206.82,-65.87C213.55,-58.44 223.54,-47.42 232.41,-37.62"/>
<polygon fill="#63b8ff" stroke="#63b8ff" points="235.09,-39.88 239.21,-30.11 229.9,-35.18 235.09,-39.88"/>
</g>
<!-- Node8 -->
<g id="node8" class="node">
<title>Node8</title>
<g id="a_node8"><a xlink:href="../../d0/df8/TWeapon_8h.html" target="_top" xlink:title=" ">
<polygon fill="white" stroke="#666666" points="406.5,-24.5 335.5,-24.5 335.5,-5.5 406.5,-5.5 406.5,-24.5"/>
<text text-anchor="middle" x="371" y="-12.5" font-family="Helvetica,sans-Serif" font-size="10.00">TWeapon.h</text>
</a>
</g>
</g>
<!-- Node4&#45;&gt;Node8 -->
<g id="edge7" class="edge">
<title>Node4&#45;&gt;Node8</title>
<path fill="none" stroke="#63b8ff" d="M224.01,-65.99C253.56,-55.94 302.91,-39.16 336.19,-27.84"/>
<polygon fill="#63b8ff" stroke="#63b8ff" points="337.62,-31.05 345.96,-24.52 335.37,-24.42 337.62,-31.05"/>
</g>
</g>
</svg>
