<?xml version="1.0" encoding="UTF-8" standalone="no"?>
<!DOCTYPE svg PUBLIC "-//W3C//DTD SVG 1.1//EN"
 "http://www.w3.org/Graphics/SVG/1.1/DTD/svg11.dtd">
<!-- Generated by graphviz version 2.43.0 (0)
 -->
<!-- Title: TEST Pages: 1 -->
<svg width="208pt" height="397pt"
 viewBox="0.00 0.00 208.00 397.00" xmlns="http://www.w3.org/2000/svg" xmlns:xlink="http://www.w3.org/1999/xlink">
<g id="graph0" class="graph" transform="scale(1 1) rotate(0) translate(4 393)">
<title>TEST</title>
<!-- Node1 -->
<g id="node1" class="node">
<title>Node1</title>
<g id="a_node1"><a xlink:title=" ">
<polygon fill="#999999" stroke="#666666" points="41,-204 0,-204 0,-185 41,-185 41,-204"/>
<text text-anchor="middle" x="20.5" y="-192" font-family="Helvetica,sans-Serif" font-size="10.00">TEST</text>
</a>
</g>
</g>
<!-- Node2 -->
<g id="node2" class="node">
<title>Node2</title>
<g id="a_node2"><a xlink:href="../../db/df3/classTWarShip.html#a7069de33689498bfdcf2f2c7ed4af31e" target="_top" xlink:title=" ">
<polygon fill="white" stroke="#666666" points="186.5,-389 90.5,-389 90.5,-370 186.5,-370 186.5,-389"/>
<text text-anchor="middle" x="138.5" y="-377" font-family="Helvetica,sans-Serif" font-size="10.00">TWarShip::Clone</text>
</a>
</g>
</g>
<!-- Node1&#45;&gt;Node2 -->
<g id="edge1" class="edge">
<title>Node1&#45;&gt;Node2</title>
<path fill="none" stroke="#63b8ff" d="M21.75,-204.01C23.02,-232.28 30.7,-316.64 77,-361.5 78.45,-362.9 80,-364.19 81.63,-365.39"/>
<polygon fill="#63b8ff" stroke="#63b8ff" points="79.98,-368.48 90.37,-370.55 83.54,-362.45 79.98,-368.48"/>
</g>
<!-- Node3 -->
<g id="node3" class="node">
<title>Node3</title>
<g id="a_node3"><a xlink:href="../../d1/d07/classTShip.html#aa9ede65f6d5b238b077438769bee3132" target="_top" xlink:title=" ">
<polygon fill="white" stroke="#666666" points="200,-352 77,-352 77,-333 200,-333 200,-352"/>
<text text-anchor="middle" x="138.5" y="-340" font-family="Helvetica,sans-Serif" font-size="10.00">TShip::GetCapitanInfo</text>
</a>
</g>
</g>
<!-- Node1&#45;&gt;Node3 -->
<g id="edge2" class="edge">
<title>Node1&#45;&gt;Node3</title>
<path fill="none" stroke="#63b8ff" d="M22.81,-204.29C26.58,-228.41 39.64,-291.18 77,-324.5 78.32,-325.68 79.72,-326.78 81.17,-327.81"/>
<polygon fill="#63b8ff" stroke="#63b8ff" points="79.65,-330.97 90.06,-332.95 83.15,-324.91 79.65,-330.97"/>
</g>
<!-- Node4 -->
<g id="node4" class="node">
<title>Node4</title>
<g id="a_node4"><a xlink:href="../../d1/d07/classTShip.html#ab9eb49417d6be99d181e74a9327d9136" target="_top" xlink:title=" ">
<polygon fill="white" stroke="#666666" points="183,-315 94,-315 94,-296 183,-296 183,-315"/>
<text text-anchor="middle" x="138.5" y="-303" font-family="Helvetica,sans-Serif" font-size="10.00">TShip::GetCost</text>
</a>
</g>
</g>
<!-- Node1&#45;&gt;Node4 -->
<g id="edge3" class="edge">
<title>Node1&#45;&gt;Node4</title>
<path fill="none" stroke="#63b8ff" d="M24.62,-204.28C31.18,-223.25 48.21,-265.11 77,-287.5 79.43,-289.39 82.06,-291.08 84.8,-292.6"/>
<polygon fill="#63b8ff" stroke="#63b8ff" points="83.37,-295.79 93.91,-296.86 86.34,-289.45 83.37,-295.79"/>
</g>
<!-- Node5 -->
<g id="node5" class="node">
<title>Node5</title>
<g id="a_node5"><a xlink:href="../../db/df3/classTWarShip.html#a6498ce65a99aba4649774151442b3637" target="_top" xlink:title=" ">
<polygon fill="white" stroke="#666666" points="197.5,-278 79.5,-278 79.5,-259 197.5,-259 197.5,-278"/>
<text text-anchor="middle" x="138.5" y="-266" font-family="Helvetica,sans-Serif" font-size="10.00">TWarShip::GetHolder</text>
</a>
</g>
</g>
<!-- Node1&#45;&gt;Node5 -->
<g id="edge4" class="edge">
<title>Node1&#45;&gt;Node5</title>
<path fill="none" stroke="#63b8ff" d="M28.65,-204.29C38.27,-216.79 56.57,-238.26 77,-250.5 79.82,-252.19 82.81,-253.73 85.89,-255.13"/>
<polygon fill="#63b8ff" stroke="#63b8ff" points="84.75,-258.45 95.33,-258.94 87.37,-251.95 84.75,-258.45"/>
</g>
<!-- Node6 -->
<g id="node6" class="node">
<title>Node6</title>
<g id="a_node6"><a xlink:href="../../d1/d07/classTShip.html#a4a57aac91bcd0b7ac413b30d228162cb" target="_top" xlink:title=" ">
<polygon fill="white" stroke="#666666" points="189.5,-241 87.5,-241 87.5,-222 189.5,-222 189.5,-241"/>
<text text-anchor="middle" x="138.5" y="-229" font-family="Helvetica,sans-Serif" font-size="10.00">TShip::GetHPNow</text>
</a>
</g>
</g>
<!-- Node1&#45;&gt;Node6 -->
<g id="edge5" class="edge">
<title>Node1&#45;&gt;Node6</title>
<path fill="none" stroke="#63b8ff" d="M41.21,-201.47C51.79,-205.15 65.07,-209.68 77,-213.5 82.68,-215.32 88.69,-217.18 94.62,-218.98"/>
<polygon fill="#63b8ff" stroke="#63b8ff" points="93.87,-222.41 104.46,-221.93 95.89,-215.7 93.87,-222.41"/>
</g>
<!-- Node7 -->
<g id="node7" class="node">
<title>Node7</title>
<g id="a_node7"><a xlink:href="../../d1/d07/classTShip.html#a0bec10d9d6f98500e99821ffab20e9d3" target="_top" xlink:title=" ">
<polygon fill="white" stroke="#666666" points="190.5,-204 86.5,-204 86.5,-185 190.5,-185 190.5,-204"/>
<text text-anchor="middle" x="138.5" y="-192" font-family="Helvetica,sans-Serif" font-size="10.00">TShip::GetHPTotal</text>
</a>
</g>
</g>
<!-- Node1&#45;&gt;Node7 -->
<g id="edge6" class="edge">
<title>Node1&#45;&gt;Node7</title>
<path fill="none" stroke="#63b8ff" d="M41.18,-194.5C50.97,-194.5 63.4,-194.5 76.05,-194.5"/>
<polygon fill="#63b8ff" stroke="#63b8ff" points="76.2,-198 86.2,-194.5 76.2,-191 76.2,-198"/>
</g>
<!-- Node8 -->
<g id="node8" class="node">
<title>Node8</title>
<g id="a_node8"><a xlink:href="../../d1/d07/classTShip.html#a6176faf62af1a95fef2440e119afb717" target="_top" xlink:title=" ">
<polygon fill="white" stroke="#666666" points="197.5,-167 79.5,-167 79.5,-148 197.5,-148 197.5,-167"/>
<text text-anchor="middle" x="138.5" y="-155" font-family="Helvetica,sans-Serif" font-size="10.00">TShip::GetMaxSpeed</text>
</a>
</g>
</g>
<!-- Node1&#45;&gt;Node8 -->
<g id="edge7" class="edge">
<title>Node1&#45;&gt;Node8</title>
<path fill="none" stroke="#63b8ff" d="M41.01,-188.12C51.64,-184.66 65.03,-180.32 77,-176.5 83.55,-174.41 90.51,-172.21 97.29,-170.07"/>
<polygon fill="#63b8ff" stroke="#63b8ff" points="98.52,-173.35 107.01,-167.01 96.43,-166.67 98.52,-173.35"/>
</g>
<!-- Node9 -->
<g id="node9" class="node">
<title>Node9</title>
<g id="a_node9"><a xlink:href="../../d1/d07/classTShip.html#a17546c8543198bd7a937c2b025c6d5e9" target="_top" xlink:title=" ">
<polygon fill="white" stroke="#666666" points="198,-130 79,-130 79,-111 198,-111 198,-130"/>
<text text-anchor="middle" x="138.5" y="-118" font-family="Helvetica,sans-Serif" font-size="10.00">TShip::GetNowSpeed</text>
</a>
</g>
</g>
<!-- Node1&#45;&gt;Node9 -->
<g id="edge8" class="edge">
<title>Node1&#45;&gt;Node9</title>
<path fill="none" stroke="#63b8ff" d="M28.71,-184.94C38.41,-172.72 56.79,-151.69 77,-139.5 80.45,-137.42 84.16,-135.54 87.97,-133.86"/>
<polygon fill="#63b8ff" stroke="#63b8ff" points="89.58,-136.98 97.59,-130.05 87.01,-130.47 89.58,-136.98"/>
</g>
<!-- Node10 -->
<g id="node10" class="node">
<title>Node10</title>
<g id="a_node10"><a xlink:href="../../d1/d07/classTShip.html#acce1d32955675a0258d5c78bd323f7cc" target="_top" xlink:title=" ">
<polygon fill="white" stroke="#666666" points="197,-93 80,-93 80,-74 197,-74 197,-93"/>
<text text-anchor="middle" x="138.5" y="-81" font-family="Helvetica,sans-Serif" font-size="10.00">TShip::GetShipName</text>
</a>
</g>
</g>
<!-- Node1&#45;&gt;Node10 -->
<g id="edge9" class="edge">
<title>Node1&#45;&gt;Node10</title>
<path fill="none" stroke="#63b8ff" d="M24.68,-184.86C31.35,-166.17 48.55,-124.86 77,-102.5 79.31,-100.68 81.8,-99.04 84.4,-97.55"/>
<polygon fill="#63b8ff" stroke="#63b8ff" points="86.15,-100.59 93.61,-93.06 83.08,-94.3 86.15,-100.59"/>
</g>
<!-- Node11 -->
<g id="node11" class="node">
<title>Node11</title>
<g id="a_node11"><a xlink:href="../../d1/d07/classTShip.html#afa32e3f3b93a2749de2734914896bdbc" target="_top" xlink:title=" ">
<polygon fill="white" stroke="#666666" points="193.5,-56 83.5,-56 83.5,-37 193.5,-37 193.5,-56"/>
<text text-anchor="middle" x="138.5" y="-44" font-family="Helvetica,sans-Serif" font-size="10.00">TShip::GetShipType</text>
</a>
</g>
</g>
<!-- Node1&#45;&gt;Node11 -->
<g id="edge10" class="edge">
<title>Node1&#45;&gt;Node11</title>
<path fill="none" stroke="#63b8ff" d="M22.87,-184.82C26.76,-160.96 40.08,-98.83 77,-65.5 78.89,-63.79 80.94,-62.23 83.1,-60.82"/>
<polygon fill="#63b8ff" stroke="#63b8ff" points="84.78,-63.89 91.88,-56.02 81.42,-57.74 84.78,-63.89"/>
</g>
<!-- Node12 -->
<g id="node12" class="node">
<title>Node12</title>
<g id="a_node12"><a xlink:href="../../d2/d56/TestTWarShip_8cpp.html#a93785f1846e55fd76f966f49a790e128" target="_top" xlink:title=" ">
<polygon fill="white" stroke="#666666" points="196,-19 81,-19 81,0 196,0 196,-19"/>
<text text-anchor="middle" x="138.5" y="-7" font-family="Helvetica,sans-Serif" font-size="10.00">makeWeaponHolder</text>
</a>
</g>
</g>
<!-- Node1&#45;&gt;Node12 -->
<g id="edge11" class="edge">
<title>Node1&#45;&gt;Node12</title>
<path fill="none" stroke="#63b8ff" d="M21.82,-184.68C23.29,-156.27 31.46,-73.21 77,-28.5 78.47,-27.05 80.05,-25.72 81.72,-24.48"/>
<polygon fill="#63b8ff" stroke="#63b8ff" points="83.88,-27.27 90.65,-19.12 80.28,-21.27 83.88,-27.27"/>
</g>
</g>
</svg>
