<?xml version="1.0" encoding="UTF-8" standalone="no"?>
<!DOCTYPE svg PUBLIC "-//W3C//DTD SVG 1.1//EN"
 "http://www.w3.org/Graphics/SVG/1.1/DTD/svg11.dtd">
<!-- Generated by graphviz version 2.43.0 (0)
 -->
<!-- Title: TEST Pages: 1 -->
<svg width="386pt" height="139pt"
 viewBox="0.00 0.00 386.00 139.00" xmlns="http://www.w3.org/2000/svg" xmlns:xlink="http://www.w3.org/1999/xlink">
<g id="graph0" class="graph" transform="scale(1 1) rotate(0) translate(4 135)">
<title>TEST</title>
<!-- Node1 -->
<g id="node1" class="node">
<title>Node1</title>
<g id="a_node1"><a xlink:title=" ">
<polygon fill="#999999" stroke="#666666" points="41,-74 0,-74 0,-55 41,-55 41,-74"/>
<text text-anchor="middle" x="20.5" y="-62" font-family="Helvetica,sans-Serif" font-size="10.00">TEST</text>
</a>
</g>
</g>
<!-- Node2 -->
<g id="node2" class="node">
<title>Node2</title>
<g id="a_node2"><a xlink:href="../../d1/d07/classTShip.html#a4a57aac91bcd0b7ac413b30d228162cb" target="_top" xlink:title=" ">
<polygon fill="white" stroke="#666666" points="355,-131 253,-131 253,-112 355,-112 355,-131"/>
<text text-anchor="middle" x="304" y="-119" font-family="Helvetica,sans-Serif" font-size="10.00">TShip::GetHPNow</text>
</a>
</g>
</g>
<!-- Node1&#45;&gt;Node2 -->
<g id="edge1" class="edge">
<title>Node1&#45;&gt;Node2</title>
<path fill="none" stroke="#63b8ff" d="M32.03,-74.22C42.55,-83.29 59.62,-96.31 77,-102.5 130.8,-121.66 196.17,-125.21 242.74,-124.68"/>
<polygon fill="#63b8ff" stroke="#63b8ff" points="243.04,-128.18 252.97,-124.5 242.91,-121.18 243.04,-128.18"/>
</g>
<!-- Node3 -->
<g id="node3" class="node">
<title>Node3</title>
<g id="a_node3"><a xlink:href="../../db/df3/classTWarShip.html#a56e43d63b1ccd69ea277306ca0e2522c" target="_top" xlink:title=" ">
<polygon fill="white" stroke="#666666" points="193.5,-93 77.5,-93 77.5,-74 193.5,-74 193.5,-93"/>
<text text-anchor="middle" x="135.5" y="-81" font-family="Helvetica,sans-Serif" font-size="10.00">TWarShip::MakeShot</text>
</a>
</g>
</g>
<!-- Node1&#45;&gt;Node3 -->
<g id="edge2" class="edge">
<title>Node1&#45;&gt;Node3</title>
<path fill="none" stroke="#63b8ff" d="M41.18,-67.81C48.79,-69.09 57.96,-70.63 67.56,-72.24"/>
<polygon fill="#63b8ff" stroke="#63b8ff" points="67.22,-75.74 77.66,-73.94 68.38,-68.83 67.22,-75.74"/>
</g>
<!-- Node7 -->
<g id="node7" class="node">
<title>Node7</title>
<g id="a_node7"><a xlink:href="../../d2/d56/TestTWarShip_8cpp.html#a93785f1846e55fd76f966f49a790e128" target="_top" xlink:title=" ">
<polygon fill="white" stroke="#666666" points="193,-56 78,-56 78,-37 193,-37 193,-56"/>
<text text-anchor="middle" x="135.5" y="-44" font-family="Helvetica,sans-Serif" font-size="10.00">makeWeaponHolder</text>
</a>
</g>
</g>
<!-- Node1&#45;&gt;Node7 -->
<g id="edge7" class="edge">
<title>Node1&#45;&gt;Node7</title>
<path fill="none" stroke="#63b8ff" d="M41.18,-61.36C48.79,-60.15 57.96,-58.69 67.56,-57.16"/>
<polygon fill="#63b8ff" stroke="#63b8ff" points="68.33,-60.58 77.66,-55.55 67.23,-53.67 68.33,-60.58"/>
</g>
<!-- Node8 -->
<g id="node8" class="node">
<title>Node8</title>
<g id="a_node8"><a xlink:href="../../d5/d55/classTObjectOnMap.html#a6ac7843a5010f103e09a0098f4a0ca73" target="_top" xlink:title=" ">
<polygon fill="white" stroke="#666666" points="194,-19 77,-19 77,0 194,0 194,-19"/>
<text text-anchor="middle" x="135.5" y="-7" font-family="Helvetica,sans-Serif" font-size="10.00">TObjectOnMap::SetX</text>
</a>
</g>
</g>
<!-- Node1&#45;&gt;Node8 -->
<g id="edge8" class="edge">
<title>Node1&#45;&gt;Node8</title>
<path fill="none" stroke="#63b8ff" d="M33.67,-54.9C44.53,-46.71 61.12,-35.09 77,-27.5 80.77,-25.7 84.76,-24.02 88.82,-22.47"/>
<polygon fill="#63b8ff" stroke="#63b8ff" points="90.06,-25.75 98.31,-19.1 87.72,-19.15 90.06,-25.75"/>
</g>
<!-- Node3&#45;&gt;Node2 -->
<g id="edge5" class="edge">
<title>Node3&#45;&gt;Node2</title>
<path fill="none" stroke="#63b8ff" d="M178.51,-93.09C200.68,-98.15 228.07,-104.4 251.51,-109.75"/>
<polygon fill="#63b8ff" stroke="#63b8ff" points="250.76,-113.17 261.29,-111.98 252.32,-106.34 250.76,-113.17"/>
</g>
<!-- Node4 -->
<g id="node4" class="node">
<title>Node4</title>
<g id="a_node4"><a xlink:href="../../d1/d07/classTShip.html#acd163830df7d2e25fba46c9696ae8494" target="_top" xlink:title=" ">
<polygon fill="white" stroke="#666666" points="359,-94 249,-94 249,-75 359,-75 359,-94"/>
<text text-anchor="middle" x="304" y="-82" font-family="Helvetica,sans-Serif" font-size="10.00">TShip::BeDamaged</text>
</a>
</g>
</g>
<!-- Node3&#45;&gt;Node4 -->
<g id="edge3" class="edge">
<title>Node3&#45;&gt;Node4</title>
<path fill="none" stroke="#63b8ff" d="M193.8,-83.84C208.32,-83.93 224.01,-84.03 238.85,-84.11"/>
<polygon fill="#63b8ff" stroke="#63b8ff" points="238.94,-87.62 248.96,-84.18 238.98,-80.62 238.94,-87.62"/>
</g>
<!-- Node5 -->
<g id="node5" class="node">
<title>Node5</title>
<g id="a_node5"><a xlink:href="../../d5/d55/classTObjectOnMap.html#ac427e764b888613f234e51f1b97b8754" target="_top" xlink:title=" ">
<polygon fill="white" stroke="#666666" points="366.5,-57 241.5,-57 241.5,-38 366.5,-38 366.5,-57"/>
<text text-anchor="middle" x="304" y="-45" font-family="Helvetica,sans-Serif" font-size="10.00">TObjectOnMap::DistTo</text>
</a>
</g>
</g>
<!-- Node3&#45;&gt;Node5 -->
<g id="edge4" class="edge">
<title>Node3&#45;&gt;Node5</title>
<path fill="none" stroke="#63b8ff" d="M180.68,-73.95C201.65,-69.41 226.9,-63.95 249,-59.18"/>
<polygon fill="#63b8ff" stroke="#63b8ff" points="249.87,-62.57 258.9,-57.03 248.39,-55.73 249.87,-62.57"/>
</g>
<!-- Node6 -->
<g id="node6" class="node">
<title>Node6</title>
<g id="a_node6"><a xlink:href="../../d4/de2/classTWeaponHolder.html#aebd61b2cf0f9cc9f03a3868335a17adf" target="_top" xlink:title=" ">
<polygon fill="white" stroke="#666666" points="378,-20 230,-20 230,-1 378,-1 378,-20"/>
<text text-anchor="middle" x="304" y="-8" font-family="Helvetica,sans-Serif" font-size="10.00">TWeaponHolder::MakeShot</text>
</a>
</g>
</g>
<!-- Node3&#45;&gt;Node6 -->
<g id="edge6" class="edge">
<title>Node3&#45;&gt;Node6</title>
<path fill="none" stroke="#63b8ff" d="M176.3,-73.9C182.45,-71.61 188.56,-68.84 194,-65.5 213.55,-53.48 210.09,-39.91 230,-28.5 233.19,-26.67 236.56,-25.03 240.03,-23.55"/>
<polygon fill="#63b8ff" stroke="#63b8ff" points="241.29,-26.82 249.41,-20.02 238.82,-20.27 241.29,-26.82"/>
</g>
</g>
</svg>
