<?xml version="1.0" encoding="UTF-8" standalone="no"?>
<!DOCTYPE svg PUBLIC "-//W3C//DTD SVG 1.1//EN"
 "http://www.w3.org/Graphics/SVG/1.1/DTD/svg11.dtd">
<!-- Generated by graphviz version 2.43.0 (0)
 -->
<!-- Title: TEST Pages: 1 -->
<svg width="203pt" height="101pt"
 viewBox="0.00 0.00 203.00 101.00" xmlns="http://www.w3.org/2000/svg" xmlns:xlink="http://www.w3.org/1999/xlink">
<g id="graph0" class="graph" transform="scale(1 1) rotate(0) translate(4 97)">
<title>TEST</title>
<!-- Node1 -->
<g id="node1" class="node">
<title>Node1</title>
<g id="a_node1"><a xlink:title=" ">
<polygon fill="#999999" stroke="#666666" points="41,-56 0,-56 0,-37 41,-37 41,-56"/>
<text text-anchor="middle" x="20.5" y="-44" font-family="Helvetica,sans-Serif" font-size="10.00">TEST</text>
</a>
</g>
</g>
<!-- Node2 -->
<g id="node2" class="node">
<title>Node2</title>
<g id="a_node2"><a xlink:href="../../db/df3/classTWarShip.html#a6498ce65a99aba4649774151442b3637" target="_top" xlink:title=" ">
<polygon fill="white" stroke="#666666" points="195,-93 77,-93 77,-74 195,-74 195,-93"/>
<text text-anchor="middle" x="136" y="-81" font-family="Helvetica,sans-Serif" font-size="10.00">TWarShip::GetHolder</text>
</a>
</g>
</g>
<!-- Node1&#45;&gt;Node2 -->
<g id="edge1" class="edge">
<title>Node1&#45;&gt;Node2</title>
<path fill="none" stroke="#63b8ff" d="M41.23,-53.41C51.81,-57.08 65.09,-61.61 77,-65.5 82.39,-67.26 88.07,-69.07 93.68,-70.84"/>
<polygon fill="#63b8ff" stroke="#63b8ff" points="93.05,-74.31 103.64,-73.95 95.14,-67.63 93.05,-74.31"/>
</g>
<!-- Node3 -->
<g id="node3" class="node">
<title>Node3</title>
<g id="a_node3"><a xlink:href="../../d2/d56/TestTWarShip_8cpp.html#a93785f1846e55fd76f966f49a790e128" target="_top" xlink:title=" ">
<polygon fill="white" stroke="#666666" points="193.5,-56 78.5,-56 78.5,-37 193.5,-37 193.5,-56"/>
<text text-anchor="middle" x="136" y="-44" font-family="Helvetica,sans-Serif" font-size="10.00">makeWeaponHolder</text>
</a>
</g>
</g>
<!-- Node1&#45;&gt;Node3 -->
<g id="edge2" class="edge">
<title>Node1&#45;&gt;Node3</title>
<path fill="none" stroke="#63b8ff" d="M41.01,-46.5C48.73,-46.5 58.08,-46.5 67.87,-46.5"/>
<polygon fill="#63b8ff" stroke="#63b8ff" points="68.17,-50 78.17,-46.5 68.17,-43 68.17,-50"/>
</g>
<!-- Node4 -->
<g id="node4" class="node">
<title>Node4</title>
<g id="a_node4"><a xlink:href="../../db/df3/classTWarShip.html#a67184a3b3cdec019493cf077be2b8974" target="_top" xlink:title=" ">
<polygon fill="white" stroke="#666666" points="194,-19 78,-19 78,0 194,0 194,-19"/>
<text text-anchor="middle" x="136" y="-7" font-family="Helvetica,sans-Serif" font-size="10.00">TWarShip::SetHolder</text>
</a>
</g>
</g>
<!-- Node1&#45;&gt;Node4 -->
<g id="edge3" class="edge">
<title>Node1&#45;&gt;Node4</title>
<path fill="none" stroke="#63b8ff" d="M41.01,-40.14C56.05,-35.24 77.35,-28.29 95.86,-22.26"/>
<polygon fill="#63b8ff" stroke="#63b8ff" points="97.1,-25.54 105.53,-19.11 94.93,-18.88 97.1,-25.54"/>
</g>
</g>
</svg>
