<?xml version="1.0" encoding="UTF-8" standalone="no"?>
<!DOCTYPE svg PUBLIC "-//W3C//DTD SVG 1.1//EN"
 "http://www.w3.org/Graphics/SVG/1.1/DTD/svg11.dtd">
<!-- Generated by graphviz version 2.43.0 (0)
 -->
<!-- Title: TBase::GetBaseType Pages: 1 -->
<svg width="709pt" height="64pt"
 viewBox="0.00 0.00 709.00 64.00" xmlns="http://www.w3.org/2000/svg" xmlns:xlink="http://www.w3.org/1999/xlink">
<g id="graph0" class="graph" transform="scale(1 1) rotate(0) translate(4 60)">
<title>TBase::GetBaseType</title>
<!-- Node1 -->
<g id="node1" class="node">
<title>Node1</title>
<g id="a_node1"><a xlink:title=" ">
<polygon fill="#999999" stroke="#666666" points="701,-37 585,-37 585,-18 701,-18 701,-37"/>
<text text-anchor="middle" x="643" y="-25" font-family="Helvetica,sans-Serif" font-size="10.00">TBase::GetBaseType</text>
</a>
</g>
</g>
<!-- Node2 -->
<g id="node2" class="node">
<title>Node2</title>
<g id="a_node2"><a xlink:href="../../db/dab/classTPlaying.html#a2e156f71550516644fab0862e2599284" target="_top" xlink:title=" ">
<polygon fill="white" stroke="#666666" points="549,-56 435,-56 435,-37 549,-37 549,-56"/>
<text text-anchor="middle" x="492" y="-44" font-family="Helvetica,sans-Serif" font-size="10.00">TPlaying::DrawBase</text>
</a>
</g>
</g>
<!-- Node1&#45;&gt;Node2 -->
<g id="edge1" class="edge">
<title>Node1&#45;&gt;Node2</title>
<path fill="none" stroke="#63b8ff" d="M574.87,-36.06C566.32,-37.15 557.64,-38.26 549.29,-39.32"/>
<polygon fill="#63b8ff" stroke="#63b8ff" points="575.34,-39.53 584.82,-34.79 574.46,-32.58 575.34,-39.53"/>
</g>
<!-- Node6 -->
<g id="node6" class="node">
<title>Node6</title>
<g id="a_node6"><a xlink:href="../../d4/d11/TestTBase_8cpp.html#ac7a4e8261c84fcb99cb33d8cea2f716a" target="_top" xlink:title=" ">
<polygon fill="white" stroke="#666666" points="512.5,-19 471.5,-19 471.5,0 512.5,0 512.5,-19"/>
<text text-anchor="middle" x="492" y="-7" font-family="Helvetica,sans-Serif" font-size="10.00">TEST</text>
</a>
</g>
</g>
<!-- Node1&#45;&gt;Node6 -->
<g id="edge5" class="edge">
<title>Node1&#45;&gt;Node6</title>
<path fill="none" stroke="#63b8ff" d="M574.87,-19.39C552.25,-16.66 528.72,-13.81 512.72,-11.88"/>
<polygon fill="#63b8ff" stroke="#63b8ff" points="574.47,-22.87 584.82,-20.59 575.31,-15.92 574.47,-22.87"/>
</g>
<!-- Node3 -->
<g id="node3" class="node">
<title>Node3</title>
<g id="a_node3"><a xlink:href="../../db/dab/classTPlaying.html#a4cb98dff7d9a323fd893863f26b9c87d" target="_top" xlink:title=" ">
<polygon fill="white" stroke="#666666" points="399,-56 295,-56 295,-37 399,-37 399,-56"/>
<text text-anchor="middle" x="347" y="-44" font-family="Helvetica,sans-Serif" font-size="10.00">TPlaying::FillPoint</text>
</a>
</g>
</g>
<!-- Node2&#45;&gt;Node3 -->
<g id="edge2" class="edge">
<title>Node2&#45;&gt;Node3</title>
<path fill="none" stroke="#63b8ff" d="M424.88,-46.5C416.29,-46.5 407.59,-46.5 399.29,-46.5"/>
<polygon fill="#63b8ff" stroke="#63b8ff" points="424.89,-50 434.89,-46.5 424.89,-43 424.89,-50"/>
</g>
<!-- Node4 -->
<g id="node4" class="node">
<title>Node4</title>
<g id="a_node4"><a xlink:href="../../db/dab/classTPlaying.html#a42f315c7d636f9ed24fe716a591c8d5e" target="_top" xlink:title=" ">
<polygon fill="white" stroke="#666666" points="259,-56 122,-56 122,-37 259,-37 259,-56"/>
<text text-anchor="middle" x="190.5" y="-44" font-family="Helvetica,sans-Serif" font-size="10.00">TPlaying::ShowOnScreen</text>
</a>
</g>
</g>
<!-- Node3&#45;&gt;Node4 -->
<g id="edge3" class="edge">
<title>Node3&#45;&gt;Node4</title>
<path fill="none" stroke="#63b8ff" d="M284.88,-46.5C276.47,-46.5 267.8,-46.5 259.27,-46.5"/>
<polygon fill="#63b8ff" stroke="#63b8ff" points="284.98,-50 294.98,-46.5 284.98,-43 284.98,-50"/>
</g>
<!-- Node5 -->
<g id="node5" class="node">
<title>Node5</title>
<g id="a_node5"><a xlink:href="../../db/dab/classTPlaying.html#a55b9a1e2159468036c18440cd361c749" target="_top" xlink:title=" ">
<polygon fill="white" stroke="#666666" points="86,-56 0,-56 0,-37 86,-37 86,-56"/>
<text text-anchor="middle" x="43" y="-44" font-family="Helvetica,sans-Serif" font-size="10.00">TPlaying::Play</text>
</a>
</g>
</g>
<!-- Node4&#45;&gt;Node5 -->
<g id="edge4" class="edge">
<title>Node4&#45;&gt;Node5</title>
<path fill="none" stroke="#63b8ff" d="M111.58,-46.5C102.83,-46.5 94.18,-46.5 86.15,-46.5"/>
<polygon fill="#63b8ff" stroke="#63b8ff" points="111.86,-50 121.86,-46.5 111.86,-43 111.86,-50"/>
</g>
</g>
</svg>
