<?xml version="1.0" encoding="UTF-8" standalone="no"?>
<!DOCTYPE svg PUBLIC "-//W3C//DTD SVG 1.1//EN"
 "http://www.w3.org/Graphics/SVG/1.1/DTD/svg11.dtd">
<!-- Generated by graphviz version 2.43.0 (0)
 -->
<!-- Title: TEST Pages: 1 -->
<svg width="208pt" height="323pt"
 viewBox="0.00 0.00 208.00 323.00" xmlns="http://www.w3.org/2000/svg" xmlns:xlink="http://www.w3.org/1999/xlink">
<g id="graph0" class="graph" transform="scale(1 1) rotate(0) translate(4 319)">
<title>TEST</title>
<!-- Node1 -->
<g id="node1" class="node">
<title>Node1</title>
<g id="a_node1"><a xlink:title=" ">
<polygon fill="#999999" stroke="#666666" points="41,-167 0,-167 0,-148 41,-148 41,-167"/>
<text text-anchor="middle" x="20.5" y="-155" font-family="Helvetica,sans-Serif" font-size="10.00">TEST</text>
</a>
</g>
</g>
<!-- Node2 -->
<g id="node2" class="node">
<title>Node2</title>
<g id="a_node2"><a xlink:href="../../d1/d07/classTShip.html#a36838d6bbb57ef7e04818c5965a562ad" target="_top" xlink:title=" ">
<polygon fill="white" stroke="#666666" points="177,-315 100,-315 100,-296 177,-296 177,-315"/>
<text text-anchor="middle" x="138.5" y="-303" font-family="Helvetica,sans-Serif" font-size="10.00">TShip::Clone</text>
</a>
</g>
</g>
<!-- Node1&#45;&gt;Node2 -->
<g id="edge1" class="edge">
<title>Node1&#45;&gt;Node2</title>
<path fill="none" stroke="#63b8ff" d="M22.81,-167.29C26.58,-191.41 39.64,-254.18 77,-287.5 80.94,-291.01 85.53,-293.84 90.4,-296.11"/>
<polygon fill="#63b8ff" stroke="#63b8ff" points="89.41,-299.48 99.99,-299.85 91.94,-292.96 89.41,-299.48"/>
</g>
<!-- Node3 -->
<g id="node3" class="node">
<title>Node3</title>
<g id="a_node3"><a xlink:href="../../d1/d07/classTShip.html#aa9ede65f6d5b238b077438769bee3132" target="_top" xlink:title=" ">
<polygon fill="white" stroke="#666666" points="200,-278 77,-278 77,-259 200,-259 200,-278"/>
<text text-anchor="middle" x="138.5" y="-266" font-family="Helvetica,sans-Serif" font-size="10.00">TShip::GetCapitanInfo</text>
</a>
</g>
</g>
<!-- Node1&#45;&gt;Node3 -->
<g id="edge2" class="edge">
<title>Node1&#45;&gt;Node3</title>
<path fill="none" stroke="#63b8ff" d="M24.62,-167.28C31.18,-186.25 48.21,-228.11 77,-250.5 78.79,-251.89 80.69,-253.18 82.67,-254.37"/>
<polygon fill="#63b8ff" stroke="#63b8ff" points="81.23,-257.56 91.73,-258.96 84.39,-251.32 81.23,-257.56"/>
</g>
<!-- Node4 -->
<g id="node4" class="node">
<title>Node4</title>
<g id="a_node4"><a xlink:href="../../d1/d07/classTShip.html#ab9eb49417d6be99d181e74a9327d9136" target="_top" xlink:title=" ">
<polygon fill="white" stroke="#666666" points="183,-241 94,-241 94,-222 183,-222 183,-241"/>
<text text-anchor="middle" x="138.5" y="-229" font-family="Helvetica,sans-Serif" font-size="10.00">TShip::GetCost</text>
</a>
</g>
</g>
<!-- Node1&#45;&gt;Node4 -->
<g id="edge3" class="edge">
<title>Node1&#45;&gt;Node4</title>
<path fill="none" stroke="#63b8ff" d="M28.65,-167.29C38.27,-179.79 56.57,-201.26 77,-213.5 79.82,-215.19 82.81,-216.73 85.89,-218.13"/>
<polygon fill="#63b8ff" stroke="#63b8ff" points="84.75,-221.45 95.33,-221.94 87.37,-214.95 84.75,-221.45"/>
</g>
<!-- Node5 -->
<g id="node5" class="node">
<title>Node5</title>
<g id="a_node5"><a xlink:href="../../d1/d07/classTShip.html#a4a57aac91bcd0b7ac413b30d228162cb" target="_top" xlink:title=" ">
<polygon fill="white" stroke="#666666" points="189.5,-204 87.5,-204 87.5,-185 189.5,-185 189.5,-204"/>
<text text-anchor="middle" x="138.5" y="-192" font-family="Helvetica,sans-Serif" font-size="10.00">TShip::GetHPNow</text>
</a>
</g>
</g>
<!-- Node1&#45;&gt;Node5 -->
<g id="edge4" class="edge">
<title>Node1&#45;&gt;Node5</title>
<path fill="none" stroke="#63b8ff" d="M41.21,-164.47C51.79,-168.15 65.07,-172.68 77,-176.5 82.68,-178.32 88.69,-180.18 94.62,-181.98"/>
<polygon fill="#63b8ff" stroke="#63b8ff" points="93.87,-185.41 104.46,-184.93 95.89,-178.7 93.87,-185.41"/>
</g>
<!-- Node6 -->
<g id="node6" class="node">
<title>Node6</title>
<g id="a_node6"><a xlink:href="../../d1/d07/classTShip.html#a0bec10d9d6f98500e99821ffab20e9d3" target="_top" xlink:title=" ">
<polygon fill="white" stroke="#666666" points="190.5,-167 86.5,-167 86.5,-148 190.5,-148 190.5,-167"/>
<text text-anchor="middle" x="138.5" y="-155" font-family="Helvetica,sans-Serif" font-size="10.00">TShip::GetHPTotal</text>
</a>
</g>
</g>
<!-- Node1&#45;&gt;Node6 -->
<g id="edge5" class="edge">
<title>Node1&#45;&gt;Node6</title>
<path fill="none" stroke="#63b8ff" d="M41.18,-157.5C50.97,-157.5 63.4,-157.5 76.05,-157.5"/>
<polygon fill="#63b8ff" stroke="#63b8ff" points="76.2,-161 86.2,-157.5 76.2,-154 76.2,-161"/>
</g>
<!-- Node7 -->
<g id="node7" class="node">
<title>Node7</title>
<g id="a_node7"><a xlink:href="../../d1/d07/classTShip.html#a6176faf62af1a95fef2440e119afb717" target="_top" xlink:title=" ">
<polygon fill="white" stroke="#666666" points="197.5,-130 79.5,-130 79.5,-111 197.5,-111 197.5,-130"/>
<text text-anchor="middle" x="138.5" y="-118" font-family="Helvetica,sans-Serif" font-size="10.00">TShip::GetMaxSpeed</text>
</a>
</g>
</g>
<!-- Node1&#45;&gt;Node7 -->
<g id="edge6" class="edge">
<title>Node1&#45;&gt;Node7</title>
<path fill="none" stroke="#63b8ff" d="M41.01,-151.12C51.64,-147.66 65.03,-143.32 77,-139.5 83.55,-137.41 90.51,-135.21 97.29,-133.07"/>
<polygon fill="#63b8ff" stroke="#63b8ff" points="98.52,-136.35 107.01,-130.01 96.43,-129.67 98.52,-136.35"/>
</g>
<!-- Node8 -->
<g id="node8" class="node">
<title>Node8</title>
<g id="a_node8"><a xlink:href="../../d1/d07/classTShip.html#a17546c8543198bd7a937c2b025c6d5e9" target="_top" xlink:title=" ">
<polygon fill="white" stroke="#666666" points="198,-93 79,-93 79,-74 198,-74 198,-93"/>
<text text-anchor="middle" x="138.5" y="-81" font-family="Helvetica,sans-Serif" font-size="10.00">TShip::GetNowSpeed</text>
</a>
</g>
</g>
<!-- Node1&#45;&gt;Node8 -->
<g id="edge7" class="edge">
<title>Node1&#45;&gt;Node8</title>
<path fill="none" stroke="#63b8ff" d="M28.71,-147.94C38.41,-135.72 56.79,-114.69 77,-102.5 80.45,-100.42 84.16,-98.54 87.97,-96.86"/>
<polygon fill="#63b8ff" stroke="#63b8ff" points="89.58,-99.98 97.59,-93.05 87.01,-93.47 89.58,-99.98"/>
</g>
<!-- Node9 -->
<g id="node9" class="node">
<title>Node9</title>
<g id="a_node9"><a xlink:href="../../d1/d07/classTShip.html#acce1d32955675a0258d5c78bd323f7cc" target="_top" xlink:title=" ">
<polygon fill="white" stroke="#666666" points="197,-56 80,-56 80,-37 197,-37 197,-56"/>
<text text-anchor="middle" x="138.5" y="-44" font-family="Helvetica,sans-Serif" font-size="10.00">TShip::GetShipName</text>
</a>
</g>
</g>
<!-- Node1&#45;&gt;Node9 -->
<g id="edge8" class="edge">
<title>Node1&#45;&gt;Node9</title>
<path fill="none" stroke="#63b8ff" d="M24.68,-147.86C31.35,-129.17 48.55,-87.86 77,-65.5 79.31,-63.68 81.8,-62.04 84.4,-60.55"/>
<polygon fill="#63b8ff" stroke="#63b8ff" points="86.15,-63.59 93.61,-56.06 83.08,-57.3 86.15,-63.59"/>
</g>
<!-- Node10 -->
<g id="node10" class="node">
<title>Node10</title>
<g id="a_node10"><a xlink:href="../../d1/d07/classTShip.html#afa32e3f3b93a2749de2734914896bdbc" target="_top" xlink:title=" ">
<polygon fill="white" stroke="#666666" points="193.5,-19 83.5,-19 83.5,0 193.5,0 193.5,-19"/>
<text text-anchor="middle" x="138.5" y="-7" font-family="Helvetica,sans-Serif" font-size="10.00">TShip::GetShipType</text>
</a>
</g>
</g>
<!-- Node1&#45;&gt;Node10 -->
<g id="edge9" class="edge">
<title>Node1&#45;&gt;Node10</title>
<path fill="none" stroke="#63b8ff" d="M22.87,-147.82C26.76,-123.96 40.08,-61.83 77,-28.5 78.89,-26.79 80.94,-25.23 83.1,-23.82"/>
<polygon fill="#63b8ff" stroke="#63b8ff" points="84.78,-26.89 91.88,-19.02 81.42,-20.74 84.78,-26.89"/>
</g>
</g>
</svg>
