<?xml version="1.0" encoding="UTF-8" standalone="no"?>
<!DOCTYPE svg PUBLIC "-//W3C//DTD SVG 1.1//EN"
 "http://www.w3.org/Graphics/SVG/1.1/DTD/svg11.dtd">
<!-- Generated by graphviz version 2.43.0 (0)
 -->
<!-- Title: TEST Pages: 1 -->
<!--zoomable 582 -->
<svg id="main" version="1.1" xmlns="http://www.w3.org/2000/svg" xmlns:xlink="http://www.w3.org/1999/xlink" xml:space="preserve" onload="init(evt)">
<style type="text/css"><![CDATA[
.edge:hover path { stroke: red; }
.edge:hover polygon { stroke: red; fill: red; }
]]></style>
<script type="text/javascript"><![CDATA[
var edges = document.getElementsByTagName('g');
if (edges && edges.length) {
  for (var i=0;i<edges.length;i++) {
    if (edges[i].id.substr(0,4)=='edge') {
      edges[i].setAttribute('class','edge');
    }
  }
}
]]></script>
        <defs>
                <circle id="rim" cx="0" cy="0" r="7"/>
                <circle id="rim2" cx="0" cy="0" r="3.5"/>
                <g id="zoomPlus">
                        <use xlink:href="#rim" fill="#404040">
                                <set attributeName="fill" to="#808080" begin="zoomplus.mouseover" end="zoomplus.mouseout"/>
                        </use>
                        <path d="M-4,0h8M0,-4v8" fill="none" stroke="white" stroke-width="1.5" pointer-events="none"/>
                </g>
                <g id="zoomMin">
                        <use xlink:href="#rim" fill="#404040">
                                <set attributeName="fill" to="#808080" begin="zoomminus.mouseover" end="zoomminus.mouseout"/>
                        </use>
                        <path d="M-4,0h8" fill="none" stroke="white" stroke-width="1.5" pointer-events="none"/>
                </g>
                <g id="dirArrow">
                        <path fill="none" stroke="white" stroke-width="1.5" d="M0,-3.0v7 M-2.5,-0.5L0,-3.0L2.5,-0.5"/>
                </g>
               <g id="resetDef">
                       <use xlink:href="#rim2" fill="#404040">
                               <set attributeName="fill" to="#808080" begin="reset.mouseover" end="reset.mouseout"/>
                       </use>
               </g>
        </defs>

<script type="text/javascript">
var viewWidth = 208;
var viewHeight = 582;
var sectionId = 'dynsection-3';
</script>
<script xlink:href="../../svgpan.js"/>
<svg id="graph" class="graph">
<g id="viewport">
<title>TEST</title>
<!-- Node1 -->
<g id="node1" class="node">
<title>Node1</title>
<g id="a_node1"><a xlink:title=" ">
<polygon fill="#999999" stroke="#666666" points="41,-296 0,-296 0,-277 41,-277 41,-296"/>
<text text-anchor="middle" x="20.5" y="-284" font-family="Helvetica,sans-Serif" font-size="10.00">TEST</text>
</a>
</g>
</g>
<!-- Node2 -->
<g id="node2" class="node">
<title>Node2</title>
<g id="a_node2"><a xlink:href="../../d1/d07/classTShip.html#aa9ede65f6d5b238b077438769bee3132" target="_top" xlink:title=" ">
<polygon fill="white" stroke="#666666" points="200,-574 77,-574 77,-555 200,-555 200,-574"/>
<text text-anchor="middle" x="138.5" y="-562" font-family="Helvetica,sans-Serif" font-size="10.00">TShip::GetCapitanInfo</text>
</a>
</g>
</g>
<!-- Node1&#45;&gt;Node2 -->
<g id="edge1" class="edge">
<title>Node1&#45;&gt;Node2</title>
<path fill="none" stroke="#63b8ff" d="M22.26,-296.18C25.81,-338.71 41.99,-508.62 77,-546.5 77.78,-547.35 78.6,-548.15 79.45,-548.92"/>
<polygon fill="#63b8ff" stroke="#63b8ff" points="77.71,-551.98 87.9,-554.88 81.75,-546.26 77.71,-551.98"/>
</g>
<!-- Node3 -->
<g id="node3" class="node">
<title>Node3</title>
<g id="a_node3"><a xlink:href="../../d1/d07/classTShip.html#ab9eb49417d6be99d181e74a9327d9136" target="_top" xlink:title=" ">
<polygon fill="white" stroke="#666666" points="183,-537 94,-537 94,-518 183,-518 183,-537"/>
<text text-anchor="middle" x="138.5" y="-525" font-family="Helvetica,sans-Serif" font-size="10.00">TShip::GetCost</text>
</a>
</g>
</g>
<!-- Node1&#45;&gt;Node3 -->
<g id="edge2" class="edge">
<title>Node1&#45;&gt;Node3</title>
<path fill="none" stroke="#63b8ff" d="M22.62,-296.08C27.31,-334.59 46.54,-477.63 77,-509.5 79.31,-511.92 81.93,-514.01 84.75,-515.83"/>
<polygon fill="#63b8ff" stroke="#63b8ff" points="83.22,-518.98 93.71,-520.49 86.45,-512.77 83.22,-518.98"/>
</g>
<!-- Node4 -->
<g id="node4" class="node">
<title>Node4</title>
<g id="a_node4"><a xlink:href="../../d1/d07/classTShip.html#a4a57aac91bcd0b7ac413b30d228162cb" target="_top" xlink:title=" ">
<polygon fill="white" stroke="#666666" points="189.5,-500 87.5,-500 87.5,-481 189.5,-481 189.5,-500"/>
<text text-anchor="middle" x="138.5" y="-488" font-family="Helvetica,sans-Serif" font-size="10.00">TShip::GetHPNow</text>
</a>
</g>
</g>
<!-- Node1&#45;&gt;Node4 -->
<g id="edge3" class="edge">
<title>Node1&#45;&gt;Node4</title>
<path fill="none" stroke="#63b8ff" d="M21.37,-296.19C21.52,-326.69 26.23,-421.77 77,-472.5 77.96,-473.46 78.97,-474.37 80.02,-475.23"/>
<polygon fill="#63b8ff" stroke="#63b8ff" points="78.48,-478.4 88.76,-480.92 82.3,-472.53 78.48,-478.4"/>
</g>
<!-- Node5 -->
<g id="node5" class="node">
<title>Node5</title>
<g id="a_node5"><a xlink:href="../../d1/d07/classTShip.html#a0bec10d9d6f98500e99821ffab20e9d3" target="_top" xlink:title=" ">
<polygon fill="white" stroke="#666666" points="190.5,-463 86.5,-463 86.5,-444 190.5,-444 190.5,-463"/>
<text text-anchor="middle" x="138.5" y="-451" font-family="Helvetica,sans-Serif" font-size="10.00">TShip::GetHPTotal</text>
</a>
</g>
</g>
<!-- Node1&#45;&gt;Node5 -->
<g id="edge4" class="edge">
<title>Node1&#45;&gt;Node5</title>
<path fill="none" stroke="#63b8ff" d="M22.2,-296.12C24.63,-322.43 35.06,-396.29 77,-435.5 78.27,-436.68 79.61,-437.79 81.01,-438.82"/>
<polygon fill="#63b8ff" stroke="#63b8ff" points="79.22,-441.83 89.59,-443.98 82.83,-435.83 79.22,-441.83"/>
</g>
<!-- Node6 -->
<g id="node6" class="node">
<title>Node6</title>
<g id="a_node6"><a xlink:href="../../d1/d07/classTShip.html#a6176faf62af1a95fef2440e119afb717" target="_top" xlink:title=" ">
<polygon fill="white" stroke="#666666" points="197.5,-426 79.5,-426 79.5,-407 197.5,-407 197.5,-426"/>
<text text-anchor="middle" x="138.5" y="-414" font-family="Helvetica,sans-Serif" font-size="10.00">TShip::GetMaxSpeed</text>
</a>
</g>
</g>
<!-- Node1&#45;&gt;Node6 -->
<g id="edge5" class="edge">
<title>Node1&#45;&gt;Node6</title>
<path fill="none" stroke="#63b8ff" d="M23.54,-296.22C28.6,-317.91 43.8,-370.54 77,-398.5 78.51,-399.77 80.1,-400.95 81.77,-402.05"/>
<polygon fill="#63b8ff" stroke="#63b8ff" points="80.1,-405.13 90.55,-406.87 83.47,-398.99 80.1,-405.13"/>
</g>
<!-- Node7 -->
<g id="node7" class="node">
<title>Node7</title>
<g id="a_node7"><a xlink:href="../../d1/d07/classTShip.html#a17546c8543198bd7a937c2b025c6d5e9" target="_top" xlink:title=" ">
<polygon fill="white" stroke="#666666" points="198,-389 79,-389 79,-370 198,-370 198,-389"/>
<text text-anchor="middle" x="138.5" y="-377" font-family="Helvetica,sans-Serif" font-size="10.00">TShip::GetNowSpeed</text>
</a>
</g>
</g>
<!-- Node1&#45;&gt;Node7 -->
<g id="edge6" class="edge">
<title>Node1&#45;&gt;Node7</title>
<path fill="none" stroke="#63b8ff" d="M26.02,-296.12C34.02,-312.11 52.2,-344.11 77,-361.5 79.12,-362.99 81.36,-364.35 83.69,-365.61"/>
<polygon fill="#63b8ff" stroke="#63b8ff" points="82.45,-368.89 92.99,-369.91 85.39,-362.53 82.45,-368.89"/>
</g>
<!-- Node8 -->
<g id="node8" class="node">
<title>Node8</title>
<g id="a_node8"><a xlink:href="../../d1/d07/classTShip.html#acce1d32955675a0258d5c78bd323f7cc" target="_top" xlink:title=" ">
<polygon fill="white" stroke="#666666" points="197,-352 80,-352 80,-333 197,-333 197,-352"/>
<text text-anchor="middle" x="138.5" y="-340" font-family="Helvetica,sans-Serif" font-size="10.00">TShip::GetShipName</text>
</a>
</g>
</g>
<!-- Node1&#45;&gt;Node8 -->
<g id="edge7" class="edge">
<title>Node1&#45;&gt;Node8</title>
<path fill="none" stroke="#63b8ff" d="M33.18,-296.11C43.98,-304.58 60.77,-316.76 77,-324.5 80.84,-326.33 84.91,-328.02 89.04,-329.57"/>
<polygon fill="#63b8ff" stroke="#63b8ff" points="88.15,-332.96 98.74,-332.93 90.44,-326.35 88.15,-332.96"/>
</g>
<!-- Node9 -->
<g id="node9" class="node">
<title>Node9</title>
<g id="a_node9"><a xlink:href="../../d1/d07/classTShip.html#afa32e3f3b93a2749de2734914896bdbc" target="_top" xlink:title=" ">
<polygon fill="white" stroke="#666666" points="193.5,-315 83.5,-315 83.5,-296 193.5,-296 193.5,-315"/>
<text text-anchor="middle" x="138.5" y="-303" font-family="Helvetica,sans-Serif" font-size="10.00">TShip::GetShipType</text>
</a>
</g>
</g>
<!-- Node1&#45;&gt;Node9 -->
<g id="edge8" class="edge">
<title>Node1&#45;&gt;Node9</title>
<path fill="none" stroke="#63b8ff" d="M41.18,-289.72C50.32,-291.22 61.76,-293.09 73.53,-295.02"/>
<polygon fill="#63b8ff" stroke="#63b8ff" points="73.02,-298.48 83.45,-296.65 74.15,-291.58 73.02,-298.48"/>
</g>
<!-- Node10 -->
<g id="node10" class="node">
<title>Node10</title>
<g id="a_node10"><a xlink:href="../../d1/d07/classTShip.html#adc9d8b6025e235d0f552740cd06130e1" target="_top" xlink:title=" ">
<polygon fill="white" stroke="#666666" points="199.5,-278 77.5,-278 77.5,-259 199.5,-259 199.5,-278"/>
<text text-anchor="middle" x="138.5" y="-266" font-family="Helvetica,sans-Serif" font-size="10.00">TShip::SetCapitanInfo</text>
</a>
</g>
</g>
<!-- Node1&#45;&gt;Node10 -->
<g id="edge9" class="edge">
<title>Node1&#45;&gt;Node10</title>
<path fill="none" stroke="#63b8ff" d="M41.18,-283.45C48.71,-282.28 57.8,-280.87 67.36,-279.38"/>
<polygon fill="#63b8ff" stroke="#63b8ff" points="68.09,-282.81 77.43,-277.82 67.01,-275.9 68.09,-282.81"/>
</g>
<!-- Node11 -->
<g id="node11" class="node">
<title>Node11</title>
<g id="a_node11"><a xlink:href="../../d1/d07/classTShip.html#ab9ae47309dea81319ef8583fbf6ca1ac" target="_top" xlink:title=" ">
<polygon fill="white" stroke="#666666" points="182,-241 95,-241 95,-222 182,-222 182,-241"/>
<text text-anchor="middle" x="138.5" y="-229" font-family="Helvetica,sans-Serif" font-size="10.00">TShip::SetCost</text>
</a>
</g>
</g>
<!-- Node1&#45;&gt;Node11 -->
<g id="edge10" class="edge">
<title>Node1&#45;&gt;Node11</title>
<path fill="none" stroke="#63b8ff" d="M34.15,-276.87C45.04,-268.93 61.41,-257.84 77,-250.5 81.67,-248.3 86.67,-246.27 91.71,-244.42"/>
<polygon fill="#63b8ff" stroke="#63b8ff" points="93.06,-247.65 101.38,-241.08 90.78,-241.03 93.06,-247.65"/>
</g>
<!-- Node12 -->
<g id="node12" class="node">
<title>Node12</title>
<g id="a_node12"><a xlink:href="../../d1/d07/classTShip.html#a978c830c3ba51fecd4482819110a814e" target="_top" xlink:title=" ">
<polygon fill="white" stroke="#666666" points="189,-204 88,-204 88,-185 189,-185 189,-204"/>
<text text-anchor="middle" x="138.5" y="-192" font-family="Helvetica,sans-Serif" font-size="10.00">TShip::SetHPNow</text>
</a>
</g>
</g>
<!-- Node1&#45;&gt;Node12 -->
<g id="edge11" class="edge">
<title>Node1&#45;&gt;Node12</title>
<path fill="none" stroke="#63b8ff" d="M26.24,-276.93C34.45,-261.35 52.77,-230.53 77,-213.5 79.83,-211.51 82.88,-209.72 86.05,-208.11"/>
<polygon fill="#63b8ff" stroke="#63b8ff" points="87.5,-211.3 95.23,-204.06 84.67,-204.9 87.5,-211.3"/>
</g>
<!-- Node13 -->
<g id="node13" class="node">
<title>Node13</title>
<g id="a_node13"><a xlink:href="../../d1/d07/classTShip.html#ab6ac08507bac326fda11fa1c713b8562" target="_top" xlink:title=" ">
<polygon fill="white" stroke="#666666" points="189.5,-167 87.5,-167 87.5,-148 189.5,-148 189.5,-167"/>
<text text-anchor="middle" x="138.5" y="-155" font-family="Helvetica,sans-Serif" font-size="10.00">TShip::SetHPTotal</text>
</a>
</g>
</g>
<!-- Node1&#45;&gt;Node13 -->
<g id="edge12" class="edge">
<title>Node1&#45;&gt;Node13</title>
<path fill="none" stroke="#63b8ff" d="M23.62,-276.99C28.86,-255.75 44.39,-204.19 77,-176.5 78.98,-174.82 81.11,-173.28 83.35,-171.88"/>
<polygon fill="#63b8ff" stroke="#63b8ff" points="85.18,-174.88 92.41,-167.13 81.92,-168.68 85.18,-174.88"/>
</g>
<!-- Node14 -->
<g id="node14" class="node">
<title>Node14</title>
<g id="a_node14"><a xlink:href="../../d1/d07/classTShip.html#a478b3dbff8f7b1e35903bf12fd4d384b" target="_top" xlink:title=" ">
<polygon fill="white" stroke="#666666" points="196.5,-130 80.5,-130 80.5,-111 196.5,-111 196.5,-130"/>
<text text-anchor="middle" x="138.5" y="-118" font-family="Helvetica,sans-Serif" font-size="10.00">TShip::SetMaxSpeed</text>
</a>
</g>
</g>
<!-- Node1&#45;&gt;Node14 -->
<g id="edge13" class="edge">
<title>Node1&#45;&gt;Node14</title>
<path fill="none" stroke="#63b8ff" d="M22.31,-276.67C25,-250.46 35.96,-178.28 77,-139.5 78.66,-137.93 80.44,-136.5 82.33,-135.18"/>
<polygon fill="#63b8ff" stroke="#63b8ff" points="84.18,-138.15 91.1,-130.12 80.69,-132.08 84.18,-138.15"/>
</g>
<!-- Node15 -->
<g id="node15" class="node">
<title>Node15</title>
<g id="a_node15"><a xlink:href="../../d1/d07/classTShip.html#a6738b2e86941caadd0ac9dd98dd32f83" target="_top" xlink:title=" ">
<polygon fill="white" stroke="#666666" points="197,-93 80,-93 80,-74 197,-74 197,-93"/>
<text text-anchor="middle" x="138.5" y="-81" font-family="Helvetica,sans-Serif" font-size="10.00">TShip::SetNowSpeed</text>
</a>
</g>
</g>
<!-- Node1&#45;&gt;Node15 -->
<g id="edge14" class="edge">
<title>Node1&#45;&gt;Node15</title>
<path fill="none" stroke="#63b8ff" d="M21.44,-276.95C21.79,-246.86 27.03,-153.04 77,-102.5 78.45,-101.03 80.01,-99.68 81.67,-98.43"/>
<polygon fill="#63b8ff" stroke="#63b8ff" points="83.83,-101.21 90.54,-93 80.18,-95.23 83.83,-101.21"/>
</g>
<!-- Node16 -->
<g id="node16" class="node">
<title>Node16</title>
<g id="a_node16"><a xlink:href="../../d1/d07/classTShip.html#a2aeba03fb8955226c61990d230fd9b6e" target="_top" xlink:title=" ">
<polygon fill="white" stroke="#666666" points="196.5,-56 80.5,-56 80.5,-37 196.5,-37 196.5,-56"/>
<text text-anchor="middle" x="138.5" y="-44" font-family="Helvetica,sans-Serif" font-size="10.00">TShip::SetShipName</text>
</a>
</g>
</g>
<!-- Node1&#45;&gt;Node16 -->
<g id="edge15" class="edge">
<title>Node1&#45;&gt;Node16</title>
<path fill="none" stroke="#63b8ff" d="M22.68,-276.76C27.52,-238.26 47.07,-97.23 77,-65.5 78.25,-64.18 79.58,-62.95 80.99,-61.8"/>
<polygon fill="#63b8ff" stroke="#63b8ff" points="83.27,-64.5 89.76,-56.13 79.47,-58.62 83.27,-64.5"/>
</g>
<!-- Node17 -->
<g id="node17" class="node">
<title>Node17</title>
<g id="a_node17"><a xlink:href="../../d1/d07/classTShip.html#ac1e00339be3dbde29c4d1c4339c598b1" target="_top" xlink:title=" ">
<polygon fill="white" stroke="#666666" points="193,-19 84,-19 84,0 193,0 193,-19"/>
<text text-anchor="middle" x="138.5" y="-7" font-family="Helvetica,sans-Serif" font-size="10.00">TShip::SetShipType</text>
</a>
</g>
</g>
<!-- Node1&#45;&gt;Node17 -->
<g id="edge16" class="edge">
<title>Node1&#45;&gt;Node17</title>
<path fill="none" stroke="#63b8ff" d="M22.29,-276.91C25.94,-234.76 42.51,-66.34 77,-28.5 78.22,-27.16 79.54,-25.91 80.93,-24.75"/>
<polygon fill="#63b8ff" stroke="#63b8ff" points="83.21,-27.44 89.63,-19.01 79.36,-21.6 83.21,-27.44"/>
</g>
</g>
</svg>
        <g id="navigator" transform="translate(0 0)" fill="#404254">
                <rect fill="#f2f5e9" fill-opacity="0.5" stroke="#606060" stroke-width=".5" x="0" y="0" width="60" height="60"/>
                <use id="zoomplus" xlink:href="#zoomPlus" x="17" y="9" onmousedown="handleZoom(evt,'in')"/>
                <use id="zoomminus" xlink:href="#zoomMin" x="42" y="9" onmousedown="handleZoom(evt,'out')"/>
                <use id="reset" xlink:href="#resetDef" x="30" y="36" onmousedown="handleReset()"/>
                <g id="arrowUp" xlink:href="#dirArrow" transform="translate(30 24)" onmousedown="handlePan(0,-1)">
                  <use xlink:href="#rim" fill="#404040">
                        <set attributeName="fill" to="#808080" begin="arrowUp.mouseover" end="arrowUp.mouseout"/>
                  </use>
                  <path fill="none" stroke="white" stroke-width="1.5" d="M0,-3.0v7 M-2.5,-0.5L0,-3.0L2.5,-0.5"/>
                </g>
                <g id="arrowRight" xlink:href="#dirArrow" transform="rotate(90) translate(36 -43)" onmousedown="handlePan(1,0)">
                  <use xlink:href="#rim" fill="#404040">
                        <set attributeName="fill" to="#808080" begin="arrowRight.mouseover" end="arrowRight.mouseout"/>
                  </use>
                  <path fill="none" stroke="white" stroke-width="1.5" d="M0,-3.0v7 M-2.5,-0.5L0,-3.0L2.5,-0.5"/>
                </g>
                <g id="arrowDown" xlink:href="#dirArrow" transform="rotate(180) translate(-30 -48)" onmousedown="handlePan(0,1)">
                  <use xlink:href="#rim" fill="#404040">
                        <set attributeName="fill" to="#808080" begin="arrowDown.mouseover" end="arrowDown.mouseout"/>
                  </use>
                  <path fill="none" stroke="white" stroke-width="1.5" d="M0,-3.0v7 M-2.5,-0.5L0,-3.0L2.5,-0.5"/>
                </g>
                <g id="arrowLeft" xlink:href="#dirArrow" transform="rotate(270) translate(-36 17)" onmousedown="handlePan(-1,0)">
                  <use xlink:href="#rim" fill="#404040">
                        <set attributeName="fill" to="#808080" begin="arrowLeft.mouseover" end="arrowLeft.mouseout"/>
                  </use>
                  <path fill="none" stroke="white" stroke-width="1.5" d="M0,-3.0v7 M-2.5,-0.5L0,-3.0L2.5,-0.5"/>
                </g>
        </g>
        <svg viewBox="0 0 15 15" width="100%" height="30px" preserveAspectRatio="xMaxYMin meet">
         <g id="arrow_out" transform="scale(0.3 0.3)">
          <a xlink:href="TestTShip_8cpp_ac7a4e8261c84fcb99cb33d8cea2f716a_cgraph_org.svg" target="_base">
           <rect id="button" ry="5" rx="5" y="6" x="6" height="38" width="38"
                fill="#f2f5e9" fill-opacity="0.5" stroke="#606060" stroke-width="1.0"/>
           <path id="arrow"
             d="M 11.500037,31.436501 C 11.940474,20.09759 22.043105,11.32322 32.158766,21.979434 L 37.068811,17.246167 C 37.068811,17.246167 37.088388,32 37.088388,32 L 22.160133,31.978069 C 22.160133,31.978069 26.997745,27.140456 26.997745,27.140456 C 18.528582,18.264221 13.291696,25.230495 11.500037,31.436501 z"
             style="fill:#404040;"/>
          </a>
         </g>
        </svg>
</svg>
