<?xml version="1.0" encoding="UTF-8" standalone="no"?>
<!DOCTYPE svg PUBLIC "-//W3C//DTD SVG 1.1//EN"
 "http://www.w3.org/Graphics/SVG/1.1/DTD/svg11.dtd">
<!-- Generated by graphviz version 2.43.0 (0)
 -->
<!-- Title: TEST Pages: 1 -->
<svg width="195pt" height="64pt"
 viewBox="0.00 0.00 195.00 64.00" xmlns="http://www.w3.org/2000/svg" xmlns:xlink="http://www.w3.org/1999/xlink">
<g id="graph0" class="graph" transform="scale(1 1) rotate(0) translate(4 60)">
<title>TEST</title>
<!-- Node1 -->
<g id="node1" class="node">
<title>Node1</title>
<g id="a_node1"><a xlink:title=" ">
<polygon fill="#999999" stroke="#666666" points="41,-37 0,-37 0,-18 41,-18 41,-37"/>
<text text-anchor="middle" x="20.5" y="-25" font-family="Helvetica,sans-Serif" font-size="10.00">TEST</text>
</a>
</g>
</g>
<!-- Node2 -->
<g id="node2" class="node">
<title>Node2</title>
<g id="a_node2"><a xlink:href="../../d1/d07/classTShip.html#acd163830df7d2e25fba46c9696ae8494" target="_top" xlink:title=" ">
<polygon fill="white" stroke="#666666" points="187,-56 77,-56 77,-37 187,-37 187,-56"/>
<text text-anchor="middle" x="132" y="-44" font-family="Helvetica,sans-Serif" font-size="10.00">TShip::BeDamaged</text>
</a>
</g>
</g>
<!-- Node1&#45;&gt;Node2 -->
<g id="edge1" class="edge">
<title>Node1&#45;&gt;Node2</title>
<path fill="none" stroke="#63b8ff" d="M41.08,-30.9C48.56,-32.2 57.57,-33.76 66.96,-35.39"/>
<polygon fill="#63b8ff" stroke="#63b8ff" points="66.38,-38.84 76.83,-37.1 67.57,-31.94 66.38,-38.84"/>
</g>
<!-- Node3 -->
<g id="node3" class="node">
<title>Node3</title>
<g id="a_node3"><a xlink:href="../../d1/d07/classTShip.html#a4a57aac91bcd0b7ac413b30d228162cb" target="_top" xlink:title=" ">
<polygon fill="white" stroke="#666666" points="183,-19 81,-19 81,0 183,0 183,-19"/>
<text text-anchor="middle" x="132" y="-7" font-family="Helvetica,sans-Serif" font-size="10.00">TShip::GetHPNow</text>
</a>
</g>
</g>
<!-- Node1&#45;&gt;Node3 -->
<g id="edge2" class="edge">
<title>Node1&#45;&gt;Node3</title>
<path fill="none" stroke="#63b8ff" d="M41.08,-24.28C49.55,-22.89 59.98,-21.17 70.7,-19.41"/>
<polygon fill="#63b8ff" stroke="#63b8ff" points="71.27,-22.87 80.57,-17.79 70.14,-15.96 71.27,-22.87"/>
</g>
</g>
</svg>
