<?xml version="1.0" encoding="UTF-8" standalone="no"?>
<!DOCTYPE svg PUBLIC "-//W3C//DTD SVG 1.1//EN"
 "http://www.w3.org/Graphics/SVG/1.1/DTD/svg11.dtd">
<!-- Generated by graphviz version 2.43.0 (0)
 -->
<!-- Title: TLevelSelector::ReadLevelNumberFromKeyboard Pages: 1 -->
<svg width="558pt" height="38pt"
 viewBox="0.00 0.00 558.00 38.00" xmlns="http://www.w3.org/2000/svg" xmlns:xlink="http://www.w3.org/1999/xlink">
<g id="graph0" class="graph" transform="scale(1 1) rotate(0) translate(4 34)">
<title>TLevelSelector::ReadLevelNumberFromKeyboard</title>
<!-- Node1 -->
<g id="node1" class="node">
<title>Node1</title>
<g id="a_node1"><a xlink:title=" ">
<polygon fill="#999999" stroke="#666666" points="550,-30 404,-30 404,0 550,0 550,-30"/>
<text text-anchor="start" x="412" y="-18" font-family="Helvetica,sans-Serif" font-size="10.00">TLevelSelector::ReadLevel</text>
<text text-anchor="middle" x="477" y="-7" font-family="Helvetica,sans-Serif" font-size="10.00">NumberFromKeyboard</text>
</a>
</g>
</g>
<!-- Node2 -->
<g id="node2" class="node">
<title>Node2</title>
<g id="a_node2"><a xlink:href="../../d2/dc1/classTLevelSelector.html#a80979f7dca4479daec5fc9145c5710bf" target="_top" xlink:title=" ">
<polygon fill="white" stroke="#666666" points="368,-24.5 193,-24.5 193,-5.5 368,-5.5 368,-24.5"/>
<text text-anchor="middle" x="280.5" y="-12.5" font-family="Helvetica,sans-Serif" font-size="10.00">TLevelSelector::ReadLevelName</text>
</a>
</g>
</g>
<!-- Node1&#45;&gt;Node2 -->
<g id="edge1" class="edge">
<title>Node1&#45;&gt;Node2</title>
<path fill="none" stroke="#63b8ff" d="M393.61,-15C385.14,-15 376.52,-15 368.01,-15"/>
<polygon fill="#63b8ff" stroke="#63b8ff" points="393.85,-18.5 403.85,-15 393.85,-11.5 393.85,-18.5"/>
</g>
<!-- Node3 -->
<g id="node3" class="node">
<title>Node3</title>
<g id="a_node3"><a xlink:href="../../d2/dc1/classTLevelSelector.html#a8052aa13fccc78befaf7cd0cc95fbe97" target="_top" xlink:title=" ">
<polygon fill="white" stroke="#666666" points="157,-24.5 0,-24.5 0,-5.5 157,-5.5 157,-24.5"/>
<text text-anchor="middle" x="78.5" y="-12.5" font-family="Helvetica,sans-Serif" font-size="10.00">TLevelSelector::ChooseLevel</text>
</a>
</g>
</g>
<!-- Node2&#45;&gt;Node3 -->
<g id="edge2" class="edge">
<title>Node2&#45;&gt;Node3</title>
<path fill="none" stroke="#63b8ff" d="M182.83,-15C174.19,-15 165.52,-15 157.07,-15"/>
<polygon fill="#63b8ff" stroke="#63b8ff" points="182.94,-18.5 192.94,-15 182.94,-11.5 182.94,-18.5"/>
</g>
</g>
</svg>
