<?xml version="1.0" encoding="UTF-8" standalone="no"?>
<!DOCTYPE svg PUBLIC "-//W3C//DTD SVG 1.1//EN"
 "http://www.w3.org/Graphics/SVG/1.1/DTD/svg11.dtd">
<!-- Generated by graphviz version 2.43.0 (0)
 -->
<!-- Title: TLevelSelector::readMissionInfoFromStream Pages: 1 -->
<!--zoomable 591 -->
<svg id="main" version="1.1" xmlns="http://www.w3.org/2000/svg" xmlns:xlink="http://www.w3.org/1999/xlink" xml:space="preserve" onload="init(evt)">
<style type="text/css"><![CDATA[
.edge:hover path { stroke: red; }
.edge:hover polygon { stroke: red; fill: red; }
]]></style>
<script type="text/javascript"><![CDATA[
var edges = document.getElementsByTagName('g');
if (edges && edges.length) {
  for (var i=0;i<edges.length;i++) {
    if (edges[i].id.substr(0,4)=='edge') {
      edges[i].setAttribute('class','edge');
    }
  }
}
]]></script>
        <defs>
                <circle id="rim" cx="0" cy="0" r="7"/>
                <circle id="rim2" cx="0" cy="0" r="3.5"/>
                <g id="zoomPlus">
                        <use xlink:href="#rim" fill="#404040">
                                <set attributeName="fill" to="#808080" begin="zoomplus.mouseover" end="zoomplus.mouseout"/>
                        </use>
                        <path d="M-4,0h8M0,-4v8" fill="none" stroke="white" stroke-width="1.5" pointer-events="none"/>
                </g>
                <g id="zoomMin">
                        <use xlink:href="#rim" fill="#404040">
                                <set attributeName="fill" to="#808080" begin="zoomminus.mouseover" end="zoomminus.mouseout"/>
                        </use>
                        <path d="M-4,0h8" fill="none" stroke="white" stroke-width="1.5" pointer-events="none"/>
                </g>
                <g id="dirArrow">
                        <path fill="none" stroke="white" stroke-width="1.5" d="M0,-3.0v7 M-2.5,-0.5L0,-3.0L2.5,-0.5"/>
                </g>
               <g id="resetDef">
                       <use xlink:href="#rim2" fill="#404040">
                               <set attributeName="fill" to="#808080" begin="reset.mouseover" end="reset.mouseout"/>
                       </use>
               </g>
        </defs>

<script type="text/javascript">
var viewWidth = 1000;
var viewHeight = 591;
var sectionId = 'dynsection-6';
</script>
<script xlink:href="../../svgpan.js"/>
<svg id="graph" class="graph">
<g id="viewport">
<title>TLevelSelector::readMissionInfoFromStream</title>
<!-- Node1 -->
<g id="node1" class="node">
<title>Node1</title>
<g id="a_node1"><a xlink:title=" ">
<polygon fill="#999999" stroke="#666666" points="154,-301.07 0,-301.07 0,-271.07 154,-271.07 154,-301.07"/>
<text text-anchor="start" x="8" y="-289.07" font-family="Helvetica,sans-Serif" font-size="10.00">TLevelSelector::readMission</text>
<text text-anchor="middle" x="77" y="-278.07" font-family="Helvetica,sans-Serif" font-size="10.00">InfoFromStream</text>
</a>
</g>
</g>
<!-- Node2 -->
<g id="node2" class="node">
<title>Node2</title>
<g id="a_node2"><a xlink:href="../../d5/d99/classTLevelReader.html#a5e3953bd0caf6e6c60d6750ff732150a" target="_top" xlink:title=" ">
<polygon fill="white" stroke="#666666" points="342,-301.07 190,-301.07 190,-271.07 342,-271.07 342,-301.07"/>
<text text-anchor="start" x="198" y="-289.07" font-family="Helvetica,sans-Serif" font-size="10.00">TLevelReader::ReadMission</text>
<text text-anchor="middle" x="266" y="-278.07" font-family="Helvetica,sans-Serif" font-size="10.00">InfoFromStream</text>
</a>
</g>
</g>
<!-- Node1&#45;&gt;Node2 -->
<g id="edge1" class="edge">
<title>Node1&#45;&gt;Node2</title>
<path fill="none" stroke="#63b8ff" d="M154.06,-286.07C162.56,-286.07 171.27,-286.07 179.87,-286.07"/>
<polygon fill="#63b8ff" stroke="#63b8ff" points="179.92,-289.57 189.92,-286.07 179.92,-282.57 179.92,-289.57"/>
</g>
<!-- Node3 -->
<g id="node3" class="node">
<title>Node3</title>
<g id="a_node3"><a xlink:href="../../d8/d51/classMyList.html#a80edb252c7e71107fac78c29647be513" target="_top" xlink:title=" ">
<polygon fill="white" stroke="#666666" points="966.5,-560.57 874.5,-560.57 874.5,-541.57 966.5,-541.57 966.5,-560.57"/>
<text text-anchor="middle" x="920.5" y="-548.57" font-family="Helvetica,sans-Serif" font-size="10.00">MyList::getById</text>
</a>
</g>
</g>
<!-- Node2&#45;&gt;Node3 -->
<g id="edge2" class="edge">
<title>Node2&#45;&gt;Node3</title>
<path fill="none" stroke="#63b8ff" d="M276.16,-301.24C293.45,-328.95 333.17,-388.54 378,-428.07 470.39,-509.53 497.25,-537.33 616,-570.07 705.01,-594.6 814.04,-576.75 874.2,-562.97"/>
<polygon fill="#63b8ff" stroke="#63b8ff" points="875.21,-566.33 884.14,-560.63 873.61,-559.52 875.21,-566.33"/>
</g>
<!-- Node4 -->
<g id="node4" class="node">
<title>Node4</title>
<g id="a_node4"><a xlink:href="../../d5/d99/classTLevelReader.html#ac28bf996f8431c89710180136c30c180" target="_top" xlink:title=" ">
<polygon fill="white" stroke="#666666" points="548,-31.57 410,-31.57 410,-12.57 548,-12.57 548,-31.57"/>
<text text-anchor="middle" x="479" y="-19.57" font-family="Helvetica,sans-Serif" font-size="10.00">TLevelReader::ReadBase</text>
</a>
</g>
</g>
<!-- Node2&#45;&gt;Node4 -->
<g id="edge3" class="edge">
<title>Node2&#45;&gt;Node4</title>
<path fill="none" stroke="#63b8ff" d="M269.35,-270.92C276.77,-228.36 303.79,-106.89 378,-46.07 384.6,-40.66 392.22,-36.43 400.25,-33.13"/>
<polygon fill="#63b8ff" stroke="#63b8ff" points="401.61,-36.36 409.83,-29.68 399.24,-29.78 401.61,-36.36"/>
</g>
<!-- Node5 -->
<g id="node5" class="node">
<title>Node5</title>
<g id="a_node5"><a xlink:href="../../d5/d99/classTLevelReader.html#a82ec22fb9386deb547a0a0862bc90301" target="_top" xlink:title=" ">
<polygon fill="white" stroke="#666666" points="984,-296.57 857,-296.57 857,-277.57 984,-277.57 984,-296.57"/>
<text text-anchor="middle" x="920.5" y="-284.57" font-family="Helvetica,sans-Serif" font-size="10.00">TLevelReader::ReadInt</text>
</a>
</g>
</g>
<!-- Node2&#45;&gt;Node5 -->
<g id="edge13" class="edge">
<title>Node2&#45;&gt;Node5</title>
<path fill="none" stroke="#63b8ff" d="M279.99,-270.73C299.43,-248.54 338.09,-207.28 378,-181.07 474.18,-117.88 503.27,-102.21 616,-79.07 701.77,-61.46 738.3,-33.39 813,-79.07 848.4,-100.71 895.23,-220.58 912.62,-267.87"/>
<polygon fill="#63b8ff" stroke="#63b8ff" points="909.42,-269.32 916.13,-277.52 916,-266.93 909.42,-269.32"/>
</g>
<!-- Node6 -->
<g id="node6" class="node">
<title>Node6</title>
<g id="a_node6"><a xlink:href="../../d5/d99/classTLevelReader.html#a68c3199258c974d81e965a715a61e7e2" target="_top" xlink:title=" ">
<polygon fill="white" stroke="#666666" points="555,-220.07 403,-220.07 403,-190.07 555,-190.07 555,-220.07"/>
<text text-anchor="start" x="411" y="-208.07" font-family="Helvetica,sans-Serif" font-size="10.00">TLevelReader::ReadCapitan</text>
<text text-anchor="middle" x="479" y="-197.07" font-family="Helvetica,sans-Serif" font-size="10.00">Infos</text>
</a>
</g>
</g>
<!-- Node2&#45;&gt;Node6 -->
<g id="edge5" class="edge">
<title>Node2&#45;&gt;Node6</title>
<path fill="none" stroke="#63b8ff" d="M292.72,-271.02C314.76,-258.64 347.65,-241.35 378,-230.07 384.86,-227.51 392.08,-225.14 399.37,-222.95"/>
<polygon fill="#63b8ff" stroke="#63b8ff" points="400.69,-226.21 409.33,-220.08 398.76,-219.49 400.69,-226.21"/>
</g>
<!-- Node11 -->
<g id="node11" class="node">
<title>Node11</title>
<g id="a_node11"><a xlink:href="../../d5/d99/classTLevelReader.html#a25bd379fa12d624375f165251b9c1178" target="_top" xlink:title=" ">
<polygon fill="white" stroke="#666666" points="787.5,-259.57 641.5,-259.57 641.5,-240.57 787.5,-240.57 787.5,-259.57"/>
<text text-anchor="middle" x="714.5" y="-247.57" font-family="Helvetica,sans-Serif" font-size="10.00">TLevelReader::ReadEmpty</text>
</a>
</g>
</g>
<!-- Node2&#45;&gt;Node11 -->
<g id="edge12" class="edge">
<title>Node2&#45;&gt;Node11</title>
<path fill="none" stroke="#63b8ff" d="M342.05,-282.9C405.52,-279.9 498.83,-274.69 580,-267.07 598.06,-265.37 617.44,-263.14 635.68,-260.85"/>
<polygon fill="#63b8ff" stroke="#63b8ff" points="636.2,-264.32 645.68,-259.58 635.32,-257.37 636.2,-264.32"/>
</g>
<!-- Node12 -->
<g id="node12" class="node">
<title>Node12</title>
<g id="a_node12"><a xlink:href="../../d5/d99/classTLevelReader.html#ae7a5a65dfddd9c939dbdf18846054725" target="_top" xlink:title=" ">
<polygon fill="white" stroke="#666666" points="550.5,-419.07 407.5,-419.07 407.5,-389.07 550.5,-389.07 550.5,-419.07"/>
<text text-anchor="start" x="415.5" y="-407.07" font-family="Helvetica,sans-Serif" font-size="10.00">TLevelReader::ReadPirate</text>
<text text-anchor="middle" x="479" y="-396.07" font-family="Helvetica,sans-Serif" font-size="10.00">Bases</text>
</a>
</g>
</g>
<!-- Node2&#45;&gt;Node12 -->
<g id="edge14" class="edge">
<title>Node2&#45;&gt;Node12</title>
<path fill="none" stroke="#63b8ff" d="M280.47,-301.27C299.9,-322.24 337.91,-359.75 378,-380.07 384.15,-383.18 390.73,-385.91 397.45,-388.29"/>
<polygon fill="#63b8ff" stroke="#63b8ff" points="396.79,-391.75 407.39,-391.53 398.96,-385.1 396.79,-391.75"/>
</g>
<!-- Node14 -->
<g id="node14" class="node">
<title>Node14</title>
<g id="a_node14"><a xlink:href="../../d5/d99/classTLevelReader.html#a06cbe367f372ca443af250d9c581b58b" target="_top" xlink:title=" ">
<polygon fill="white" stroke="#666666" points="549,-370.57 409,-370.57 409,-351.57 549,-351.57 549,-370.57"/>
<text text-anchor="middle" x="479" y="-358.57" font-family="Helvetica,sans-Serif" font-size="10.00">TLevelReader::ReadShips</text>
</a>
</g>
</g>
<!-- Node2&#45;&gt;Node14 -->
<g id="edge22" class="edge">
<title>Node2&#45;&gt;Node14</title>
<path fill="none" stroke="#63b8ff" d="M291.2,-301.16C313.09,-314.16 346.6,-332.44 378,-343.07 384.97,-345.42 392.33,-347.49 399.75,-349.3"/>
<polygon fill="#63b8ff" stroke="#63b8ff" points="399.01,-352.72 409.54,-351.53 400.56,-345.9 399.01,-352.72"/>
</g>
<!-- Node16 -->
<g id="node16" class="node">
<title>Node16</title>
<g id="a_node16"><a xlink:href="../../d5/d99/classTLevelReader.html#a6e0d6c10291d52c31f5c22b8673dbb98" target="_top" xlink:title=" ">
<polygon fill="white" stroke="#666666" points="580,-333.57 378,-333.57 378,-314.57 580,-314.57 580,-333.57"/>
<text text-anchor="middle" x="479" y="-321.57" font-family="Helvetica,sans-Serif" font-size="10.00">TLevelReader::ReadSpawnDescriptors</text>
</a>
</g>
</g>
<!-- Node2&#45;&gt;Node16 -->
<g id="edge30" class="edge">
<title>Node2&#45;&gt;Node16</title>
<path fill="none" stroke="#63b8ff" d="M342.28,-299.62C366.1,-303.91 392.16,-308.61 415.02,-312.72"/>
<polygon fill="#63b8ff" stroke="#63b8ff" points="414.48,-316.18 424.94,-314.51 415.72,-309.29 414.48,-316.18"/>
</g>
<!-- Node18 -->
<g id="node18" class="node">
<title>Node18</title>
<g id="a_node18"><a xlink:href="../../d5/d99/classTLevelReader.html#a4467cdf7d7766981a6b8eeb23076b433" target="_top" xlink:title=" ">
<polygon fill="white" stroke="#666666" points="558,-257.57 400,-257.57 400,-238.57 558,-238.57 558,-257.57"/>
<text text-anchor="middle" x="479" y="-245.57" font-family="Helvetica,sans-Serif" font-size="10.00">TLevelReader::ReadWeapons</text>
</a>
</g>
</g>
<!-- Node2&#45;&gt;Node18 -->
<g id="edge37" class="edge">
<title>Node2&#45;&gt;Node18</title>
<path fill="none" stroke="#63b8ff" d="M342.28,-272.51C366.1,-268.22 392.16,-263.53 415.02,-259.41"/>
<polygon fill="#63b8ff" stroke="#63b8ff" points="415.72,-262.84 424.94,-257.62 414.48,-255.95 415.72,-262.84"/>
</g>
<!-- Node4&#45;&gt;Node5 -->
<g id="edge4" class="edge">
<title>Node4&#45;&gt;Node5</title>
<path fill="none" stroke="#63b8ff" d="M521.3,-12.55C589,0.54 724.84,15.99 813,-46.07 822.86,-53.01 888.76,-212.09 911.67,-267.91"/>
<polygon fill="#63b8ff" stroke="#63b8ff" points="908.51,-269.43 915.54,-277.35 914.98,-266.77 908.51,-269.43"/>
</g>
<!-- Node6&#45;&gt;Node5 -->
<g id="edge11" class="edge">
<title>Node6&#45;&gt;Node5</title>
<path fill="none" stroke="#63b8ff" d="M509.72,-189.93C570.04,-161.44 709.84,-106.98 813,-156.07 862.22,-179.49 896.13,-238.01 911,-268.28"/>
<polygon fill="#63b8ff" stroke="#63b8ff" points="907.86,-269.83 915.31,-277.37 914.19,-266.83 907.86,-269.83"/>
</g>
<!-- Node7 -->
<g id="node7" class="node">
<title>Node7</title>
<g id="a_node7"><a xlink:href="../../d8/d51/classMyList.html#a723c00a8380b8fd0705cb286cdd179d2" target="_top" xlink:title=" ">
<polygon fill="white" stroke="#666666" points="751,-370.57 678,-370.57 678,-351.57 751,-351.57 751,-370.57"/>
<text text-anchor="middle" x="714.5" y="-358.57" font-family="Helvetica,sans-Serif" font-size="10.00">MyList::end</text>
</a>
</g>
</g>
<!-- Node6&#45;&gt;Node7 -->
<g id="edge6" class="edge">
<title>Node6&#45;&gt;Node7</title>
<path fill="none" stroke="#63b8ff" d="M555.12,-214.74C564.27,-218.43 572.89,-223.39 580,-230.07 618.43,-266.14 576.46,-308.21 616,-343.07 629.99,-355.4 649.6,-360.52 667.57,-362.32"/>
<polygon fill="#63b8ff" stroke="#63b8ff" points="667.4,-365.81 677.62,-363.01 667.89,-358.83 667.4,-365.81"/>
</g>
<!-- Node8 -->
<g id="node8" class="node">
<title>Node8</title>
<g id="a_node8"><a xlink:href="../../d8/d51/classMyList.html#ab5e189776aca91f01ee5fe930318c289" target="_top" xlink:title=" ">
<polygon fill="white" stroke="#666666" points="756,-333.57 673,-333.57 673,-314.57 756,-314.57 756,-333.57"/>
<text text-anchor="middle" x="714.5" y="-321.57" font-family="Helvetica,sans-Serif" font-size="10.00">MyList::insert</text>
</a>
</g>
</g>
<!-- Node6&#45;&gt;Node8 -->
<g id="edge7" class="edge">
<title>Node6&#45;&gt;Node8</title>
<path fill="none" stroke="#63b8ff" d="M555.08,-215.95C564.08,-219.46 572.67,-224.05 580,-230.07 608.9,-253.76 586.37,-283.28 616,-306.07 629.22,-316.23 646.4,-321.28 662.65,-323.63"/>
<polygon fill="#63b8ff" stroke="#63b8ff" points="662.27,-327.11 672.6,-324.77 663.06,-320.16 662.27,-327.11"/>
</g>
<!-- Node9 -->
<g id="node9" class="node">
<title>Node9</title>
<g id="a_node9"><a xlink:href="../../d5/d99/classTLevelReader.html#aa3fd2b19c5d17f7e5b71d28780a7557c" target="_top" xlink:title=" ">
<polygon fill="white" stroke="#666666" points="799.5,-107.57 629.5,-107.57 629.5,-88.57 799.5,-88.57 799.5,-107.57"/>
<text text-anchor="middle" x="714.5" y="-95.57" font-family="Helvetica,sans-Serif" font-size="10.00">TLevelReader::ReadCapitanInfo</text>
</a>
</g>
</g>
<!-- Node6&#45;&gt;Node9 -->
<g id="edge8" class="edge">
<title>Node6&#45;&gt;Node9</title>
<path fill="none" stroke="#63b8ff" d="M500.13,-190.03C525.79,-171.54 572.08,-140.36 616,-122.07 627.49,-117.28 640.16,-113.3 652.45,-110.04"/>
<polygon fill="#63b8ff" stroke="#63b8ff" points="653.36,-113.42 662.2,-107.58 651.65,-106.63 653.36,-113.42"/>
</g>
<!-- Node6&#45;&gt;Node11 -->
<g id="edge10" class="edge">
<title>Node6&#45;&gt;Node11</title>
<path fill="none" stroke="#63b8ff" d="M555.17,-219.55C587.15,-225.72 623.92,-232.8 653.97,-238.59"/>
<polygon fill="#63b8ff" stroke="#63b8ff" points="653.4,-242.05 663.88,-240.5 654.73,-235.18 653.4,-242.05"/>
</g>
<!-- Node10 -->
<g id="node10" class="node">
<title>Node10</title>
<g id="a_node10"><a xlink:href="../../d5/d99/classTLevelReader.html#a2b97e074354c270b0502ec57d528d73b" target="_top" xlink:title=" ">
<polygon fill="white" stroke="#666666" points="992,-107.57 849,-107.57 849,-88.57 992,-88.57 992,-107.57"/>
<text text-anchor="middle" x="920.5" y="-95.57" font-family="Helvetica,sans-Serif" font-size="10.00">TLevelReader::ReadString</text>
</a>
</g>
</g>
<!-- Node9&#45;&gt;Node10 -->
<g id="edge9" class="edge">
<title>Node9&#45;&gt;Node10</title>
<path fill="none" stroke="#63b8ff" d="M799.65,-98.07C812.56,-98.07 825.85,-98.07 838.68,-98.07"/>
<polygon fill="#63b8ff" stroke="#63b8ff" points="838.86,-101.57 848.86,-98.07 838.85,-94.57 838.86,-101.57"/>
</g>
<!-- Node12&#45;&gt;Node5 -->
<g id="edge18" class="edge">
<title>Node12&#45;&gt;Node5</title>
<path fill="none" stroke="#63b8ff" d="M495.94,-419.27C519.79,-440.85 567.2,-479.38 616,-494.07 699.84,-519.3 738.26,-539.67 813,-494.07 881.73,-452.14 907.98,-350.13 916.25,-306.92"/>
<polygon fill="#63b8ff" stroke="#63b8ff" points="919.74,-307.29 918.05,-296.83 912.85,-306.06 919.74,-307.29"/>
</g>
<!-- Node12&#45;&gt;Node7 -->
<g id="edge15" class="edge">
<title>Node12&#45;&gt;Node7</title>
<path fill="none" stroke="#63b8ff" d="M550.69,-391.05C588.77,-384.04 634.62,-375.59 667.96,-369.45"/>
<polygon fill="#63b8ff" stroke="#63b8ff" points="668.67,-372.88 677.87,-367.63 667.41,-366 668.67,-372.88"/>
</g>
<!-- Node12&#45;&gt;Node8 -->
<g id="edge16" class="edge">
<title>Node12&#45;&gt;Node8</title>
<path fill="none" stroke="#63b8ff" d="M550.51,-392.48C560.77,-389.29 570.92,-385.23 580,-380.07 599.94,-368.72 595.82,-353.98 616,-343.07 630.19,-335.39 647.02,-330.79 662.67,-328.04"/>
<polygon fill="#63b8ff" stroke="#63b8ff" points="663.4,-331.47 672.75,-326.49 662.33,-324.55 663.4,-331.47"/>
</g>
<!-- Node12&#45;&gt;Node11 -->
<g id="edge17" class="edge">
<title>Node12&#45;&gt;Node11</title>
<path fill="none" stroke="#63b8ff" d="M550.73,-396.73C561.49,-393.03 571.74,-387.7 580,-380.07 618.08,-344.85 577.17,-303.45 616,-269.07 620.74,-264.86 626.14,-261.48 631.89,-258.76"/>
<polygon fill="#63b8ff" stroke="#63b8ff" points="633.22,-261.99 641.19,-255.01 630.61,-255.5 633.22,-261.99"/>
</g>
<!-- Node13 -->
<g id="node13" class="node">
<title>Node13</title>
<g id="a_node13"><a xlink:href="../../d5/d99/classTLevelReader.html#a98a8afd39b4ade7d9e3843a51109ea1d" target="_top" xlink:title=" ">
<polygon fill="white" stroke="#666666" points="798,-560.57 631,-560.57 631,-541.57 798,-541.57 798,-560.57"/>
<text text-anchor="middle" x="714.5" y="-548.57" font-family="Helvetica,sans-Serif" font-size="10.00">TLevelReader::ReadPirateBase</text>
</a>
</g>
</g>
<!-- Node12&#45;&gt;Node13 -->
<g id="edge19" class="edge">
<title>Node12&#45;&gt;Node13</title>
<path fill="none" stroke="#63b8ff" d="M492.15,-419.13C514.06,-445.25 562.86,-498.84 616,-527.07 624.89,-531.79 634.73,-535.6 644.64,-538.68"/>
<polygon fill="#63b8ff" stroke="#63b8ff" points="643.97,-542.12 654.54,-541.51 645.89,-535.39 643.97,-542.12"/>
</g>
<!-- Node13&#45;&gt;Node3 -->
<g id="edge20" class="edge">
<title>Node13&#45;&gt;Node3</title>
<path fill="none" stroke="#63b8ff" d="M798.18,-551.07C820.48,-551.07 844.06,-551.07 864.43,-551.07"/>
<polygon fill="#63b8ff" stroke="#63b8ff" points="864.47,-554.57 874.47,-551.07 864.47,-547.57 864.47,-554.57"/>
</g>
<!-- Node13&#45;&gt;Node5 -->
<g id="edge21" class="edge">
<title>Node13&#45;&gt;Node5</title>
<path fill="none" stroke="#63b8ff" d="M787.34,-541.49C796.64,-538.01 805.52,-533.33 813,-527.07 883.55,-467.97 909.06,-352.82 916.69,-306.78"/>
<polygon fill="#63b8ff" stroke="#63b8ff" points="920.19,-307.06 918.26,-296.64 913.27,-305.99 920.19,-307.06"/>
</g>
<!-- Node14&#45;&gt;Node5 -->
<g id="edge26" class="edge">
<title>Node14&#45;&gt;Node5</title>
<path fill="none" stroke="#63b8ff" d="M549.24,-370.11C559.77,-372.66 570.34,-375.91 580,-380.07 598.13,-387.87 597.22,-399.99 616,-406.07 699.31,-433 733.07,-441.8 813,-406.07 859.42,-385.32 893.98,-333.23 909.86,-305.35"/>
<polygon fill="#63b8ff" stroke="#63b8ff" points="912.92,-307.04 914.68,-296.59 906.79,-303.66 912.92,-307.04"/>
</g>
<!-- Node14&#45;&gt;Node7 -->
<g id="edge23" class="edge">
<title>Node14&#45;&gt;Node7</title>
<path fill="none" stroke="#63b8ff" d="M549.11,-361.07C587.38,-361.07 633.89,-361.07 667.66,-361.07"/>
<polygon fill="#63b8ff" stroke="#63b8ff" points="667.71,-364.57 677.71,-361.07 667.71,-357.57 667.71,-364.57"/>
</g>
<!-- Node14&#45;&gt;Node8 -->
<g id="edge24" class="edge">
<title>Node14&#45;&gt;Node8</title>
<path fill="none" stroke="#63b8ff" d="M540.13,-351.54C578.01,-345.54 626.38,-337.87 662.4,-332.16"/>
<polygon fill="#63b8ff" stroke="#63b8ff" points="663.36,-335.56 672.69,-330.53 662.26,-328.64 663.36,-335.56"/>
</g>
<!-- Node14&#45;&gt;Node11 -->
<g id="edge25" class="edge">
<title>Node14&#45;&gt;Node11</title>
<path fill="none" stroke="#63b8ff" d="M549.19,-357.38C560.25,-354.41 571,-349.88 580,-343.07 609.16,-320.99 587,-291.35 616,-269.07 620.82,-265.36 626.16,-262.32 631.78,-259.82"/>
<polygon fill="#63b8ff" stroke="#63b8ff" points="633.38,-262.96 641.48,-256.12 630.89,-256.42 633.38,-262.96"/>
</g>
<!-- Node15 -->
<g id="node15" class="node">
<title>Node15</title>
<g id="a_node15"><a xlink:href="../../d5/d99/classTLevelReader.html#a111bc6a9c4250c31a0689e62f7113254" target="_top" xlink:title=" ">
<polygon fill="white" stroke="#666666" points="782,-484.57 647,-484.57 647,-465.57 782,-465.57 782,-484.57"/>
<text text-anchor="middle" x="714.5" y="-472.57" font-family="Helvetica,sans-Serif" font-size="10.00">TLevelReader::ReadShip</text>
</a>
</g>
</g>
<!-- Node14&#45;&gt;Node15 -->
<g id="edge27" class="edge">
<title>Node14&#45;&gt;Node15</title>
<path fill="none" stroke="#63b8ff" d="M549.12,-365.63C560.19,-368.68 570.96,-373.27 580,-380.07 608.28,-401.33 588.3,-429.06 616,-451.07 622.4,-456.15 629.74,-460.18 637.44,-463.37"/>
<polygon fill="#63b8ff" stroke="#63b8ff" points="636.39,-466.72 646.99,-466.86 638.79,-460.14 636.39,-466.72"/>
</g>
<!-- Node15&#45;&gt;Node3 -->
<g id="edge28" class="edge">
<title>Node15&#45;&gt;Node3</title>
<path fill="none" stroke="#63b8ff" d="M741.34,-484.69C777.59,-498.2 843.66,-522.81 884.36,-537.97"/>
<polygon fill="#63b8ff" stroke="#63b8ff" points="883.28,-541.31 893.87,-541.52 885.72,-534.75 883.28,-541.31"/>
</g>
<!-- Node15&#45;&gt;Node5 -->
<g id="edge29" class="edge">
<title>Node15&#45;&gt;Node5</title>
<path fill="none" stroke="#63b8ff" d="M782.17,-465.81C793.1,-462.34 803.84,-457.58 813,-451.07 865.91,-413.45 899.2,-340.53 912.66,-306.03"/>
<polygon fill="#63b8ff" stroke="#63b8ff" points="915.94,-307.23 916.2,-296.64 909.39,-304.76 915.94,-307.23"/>
</g>
<!-- Node16&#45;&gt;Node5 -->
<g id="edge34" class="edge">
<title>Node16&#45;&gt;Node5</title>
<path fill="none" stroke="#63b8ff" d="M556.76,-333.59C564.86,-336.07 572.76,-339.17 580,-343.07 600.21,-353.93 594.86,-371.14 616,-380.07 696.66,-414.13 731.02,-410.82 813,-380.07 853.17,-364.99 888.14,-327.15 906.28,-304.65"/>
<polygon fill="#63b8ff" stroke="#63b8ff" points="909.18,-306.63 912.58,-296.6 903.66,-302.31 909.18,-306.63"/>
</g>
<!-- Node16&#45;&gt;Node7 -->
<g id="edge31" class="edge">
<title>Node16&#45;&gt;Node7</title>
<path fill="none" stroke="#63b8ff" d="M540.13,-333.59C579.86,-339.89 631.12,-348.01 667.57,-353.79"/>
<polygon fill="#63b8ff" stroke="#63b8ff" points="667.49,-357.32 677.91,-355.43 668.58,-350.4 667.49,-357.32"/>
</g>
<!-- Node16&#45;&gt;Node8 -->
<g id="edge32" class="edge">
<title>Node16&#45;&gt;Node8</title>
<path fill="none" stroke="#63b8ff" d="M580.04,-324.07C608.63,-324.07 638.59,-324.07 662.86,-324.07"/>
<polygon fill="#63b8ff" stroke="#63b8ff" points="662.9,-327.57 672.9,-324.07 662.9,-320.57 662.9,-327.57"/>
</g>
<!-- Node16&#45;&gt;Node11 -->
<g id="edge33" class="edge">
<title>Node16&#45;&gt;Node11</title>
<path fill="none" stroke="#63b8ff" d="M540.09,-314.53C553.66,-311.06 567.68,-306.37 580,-300.07 598.79,-290.44 597,-278.28 616,-269.07 621.04,-266.62 626.38,-264.49 631.85,-262.63"/>
<polygon fill="#63b8ff" stroke="#63b8ff" points="633.27,-265.86 641.8,-259.58 631.22,-259.16 633.27,-265.86"/>
</g>
<!-- Node17 -->
<g id="node17" class="node">
<title>Node17</title>
<g id="a_node17"><a xlink:href="../../d5/d99/classTLevelReader.html#a392f8ceec89e3ff9f3f87ea030c117d6" target="_top" xlink:title=" ">
<polygon fill="white" stroke="#666666" points="813,-296.57 616,-296.57 616,-277.57 813,-277.57 813,-296.57"/>
<text text-anchor="middle" x="714.5" y="-284.57" font-family="Helvetica,sans-Serif" font-size="10.00">TLevelReader::ReadSpawnDescriptor</text>
</a>
</g>
</g>
<!-- Node16&#45;&gt;Node17 -->
<g id="edge35" class="edge">
<title>Node16&#45;&gt;Node17</title>
<path fill="none" stroke="#63b8ff" d="M540.13,-314.54C571.6,-309.55 610.32,-303.42 643.17,-298.21"/>
<polygon fill="#63b8ff" stroke="#63b8ff" points="643.84,-301.65 653.17,-296.63 642.74,-294.73 643.84,-301.65"/>
</g>
<!-- Node17&#45;&gt;Node5 -->
<g id="edge36" class="edge">
<title>Node17&#45;&gt;Node5</title>
<path fill="none" stroke="#63b8ff" d="M813.02,-287.07C824.35,-287.07 835.76,-287.07 846.68,-287.07"/>
<polygon fill="#63b8ff" stroke="#63b8ff" points="846.98,-290.57 856.98,-287.07 846.98,-283.57 846.98,-290.57"/>
</g>
<!-- Node18&#45;&gt;Node5 -->
<g id="edge41" class="edge">
<title>Node18&#45;&gt;Node5</title>
<path fill="none" stroke="#63b8ff" d="M547.66,-238.52C569.43,-235.88 593.69,-233.37 616,-232.07 703.41,-226.94 727.92,-211.39 813,-232.07 844.53,-239.73 877.16,-258.46 897.85,-271.93"/>
<polygon fill="#63b8ff" stroke="#63b8ff" points="895.96,-274.88 906.22,-277.52 899.84,-269.05 895.96,-274.88"/>
</g>
<!-- Node18&#45;&gt;Node7 -->
<g id="edge38" class="edge">
<title>Node18&#45;&gt;Node7</title>
<path fill="none" stroke="#63b8ff" d="M500.18,-257.7C521.13,-268.16 554.36,-286.07 580,-306.07 598.09,-320.18 595.76,-332.25 616,-343.07 631.71,-351.46 650.66,-356.01 667.66,-358.45"/>
<polygon fill="#63b8ff" stroke="#63b8ff" points="667.59,-361.97 677.94,-359.72 668.44,-355.02 667.59,-361.97"/>
</g>
<!-- Node18&#45;&gt;Node8 -->
<g id="edge39" class="edge">
<title>Node18&#45;&gt;Node8</title>
<path fill="none" stroke="#63b8ff" d="M498.87,-257.7C524.69,-270.5 572.75,-293.02 616,-306.07 630.86,-310.55 647.35,-314.11 662.48,-316.83"/>
<polygon fill="#63b8ff" stroke="#63b8ff" points="662.25,-320.35 672.7,-318.59 663.44,-313.45 662.25,-320.35"/>
</g>
<!-- Node18&#45;&gt;Node11 -->
<g id="edge40" class="edge">
<title>Node18&#45;&gt;Node11</title>
<path fill="none" stroke="#63b8ff" d="M558.08,-248.73C581.63,-248.94 607.54,-249.16 631.35,-249.36"/>
<polygon fill="#63b8ff" stroke="#63b8ff" points="631.38,-252.86 641.41,-249.45 631.44,-245.86 631.38,-252.86"/>
</g>
<!-- Node19 -->
<g id="node19" class="node">
<title>Node19</title>
<g id="a_node19"><a xlink:href="../../d5/d99/classTLevelReader.html#ad7b63a611a8e08c9d9b38ee2972c82fc" target="_top" xlink:title=" ">
<polygon fill="white" stroke="#666666" points="791,-183.57 638,-183.57 638,-164.57 791,-164.57 791,-183.57"/>
<text text-anchor="middle" x="714.5" y="-171.57" font-family="Helvetica,sans-Serif" font-size="10.00">TLevelReader::ReadWeapon</text>
</a>
</g>
</g>
<!-- Node18&#45;&gt;Node19 -->
<g id="edge42" class="edge">
<title>Node18&#45;&gt;Node19</title>
<path fill="none" stroke="#63b8ff" d="M554.06,-238.56C563.03,-236.09 571.88,-232.98 580,-229.07 599.02,-219.89 597.23,-207.74 616,-198.07 625.28,-193.28 635.54,-189.42 645.84,-186.32"/>
<polygon fill="#63b8ff" stroke="#63b8ff" points="646.99,-189.63 655.68,-183.57 645.1,-182.89 646.99,-189.63"/>
</g>
<!-- Node19&#45;&gt;Node5 -->
<g id="edge43" class="edge">
<title>Node19&#45;&gt;Node5</title>
<path fill="none" stroke="#63b8ff" d="M772.74,-183.57C786.37,-187.06 800.56,-191.77 813,-198.07 849.46,-216.53 884.36,-249.6 903.76,-269.82"/>
<polygon fill="#63b8ff" stroke="#63b8ff" points="901.46,-272.48 910.86,-277.37 906.56,-267.68 901.46,-272.48"/>
</g>
</g>
</svg>
        <g id="navigator" transform="translate(0 0)" fill="#404254">
                <rect fill="#f2f5e9" fill-opacity="0.5" stroke="#606060" stroke-width=".5" x="0" y="0" width="60" height="60"/>
                <use id="zoomplus" xlink:href="#zoomPlus" x="17" y="9" onmousedown="handleZoom(evt,'in')"/>
                <use id="zoomminus" xlink:href="#zoomMin" x="42" y="9" onmousedown="handleZoom(evt,'out')"/>
                <use id="reset" xlink:href="#resetDef" x="30" y="36" onmousedown="handleReset()"/>
                <g id="arrowUp" xlink:href="#dirArrow" transform="translate(30 24)" onmousedown="handlePan(0,-1)">
                  <use xlink:href="#rim" fill="#404040">
                        <set attributeName="fill" to="#808080" begin="arrowUp.mouseover" end="arrowUp.mouseout"/>
                  </use>
                  <path fill="none" stroke="white" stroke-width="1.5" d="M0,-3.0v7 M-2.5,-0.5L0,-3.0L2.5,-0.5"/>
                </g>
                <g id="arrowRight" xlink:href="#dirArrow" transform="rotate(90) translate(36 -43)" onmousedown="handlePan(1,0)">
                  <use xlink:href="#rim" fill="#404040">
                        <set attributeName="fill" to="#808080" begin="arrowRight.mouseover" end="arrowRight.mouseout"/>
                  </use>
                  <path fill="none" stroke="white" stroke-width="1.5" d="M0,-3.0v7 M-2.5,-0.5L0,-3.0L2.5,-0.5"/>
                </g>
                <g id="arrowDown" xlink:href="#dirArrow" transform="rotate(180) translate(-30 -48)" onmousedown="handlePan(0,1)">
                  <use xlink:href="#rim" fill="#404040">
                        <set attributeName="fill" to="#808080" begin="arrowDown.mouseover" end="arrowDown.mouseout"/>
                  </use>
                  <path fill="none" stroke="white" stroke-width="1.5" d="M0,-3.0v7 M-2.5,-0.5L0,-3.0L2.5,-0.5"/>
                </g>
                <g id="arrowLeft" xlink:href="#dirArrow" transform="rotate(270) translate(-36 17)" onmousedown="handlePan(-1,0)">
                  <use xlink:href="#rim" fill="#404040">
                        <set attributeName="fill" to="#808080" begin="arrowLeft.mouseover" end="arrowLeft.mouseout"/>
                  </use>
                  <path fill="none" stroke="white" stroke-width="1.5" d="M0,-3.0v7 M-2.5,-0.5L0,-3.0L2.5,-0.5"/>
                </g>
        </g>
        <svg viewBox="0 0 15 15" width="100%" height="30px" preserveAspectRatio="xMaxYMin meet">
         <g id="arrow_out" transform="scale(0.3 0.3)">
          <a xlink:href="classTLevelSelector_a1ce3be0dec7c17d6674837ff8742d5ee_cgraph_org.svg" target="_base">
           <rect id="button" ry="5" rx="5" y="6" x="6" height="38" width="38"
                fill="#f2f5e9" fill-opacity="0.5" stroke="#606060" stroke-width="1.0"/>
           <path id="arrow"
             d="M 11.500037,31.436501 C 11.940474,20.09759 22.043105,11.32322 32.158766,21.979434 L 37.068811,17.246167 C 37.068811,17.246167 37.088388,32 37.088388,32 L 22.160133,31.978069 C 22.160133,31.978069 26.997745,27.140456 26.997745,27.140456 C 18.528582,18.264221 13.291696,25.230495 11.500037,31.436501 z"
             style="fill:#404040;"/>
          </a>
         </g>
        </svg>
</svg>
