<?xml version="1.0" encoding="UTF-8" standalone="no"?>
<!DOCTYPE svg PUBLIC "-//W3C//DTD SVG 1.1//EN"
 "http://www.w3.org/Graphics/SVG/1.1/DTD/svg11.dtd">
<!-- Generated by graphviz version 2.43.0 (0)
 -->
<!-- Title: TLevelSelector::ChooseLevel Pages: 1 -->
<svg width="1216pt" height="591pt"
 viewBox="0.00 0.00 1216.00 590.81" xmlns="http://www.w3.org/2000/svg" xmlns:xlink="http://www.w3.org/1999/xlink">
<g id="graph0" class="graph" transform="scale(1 1) rotate(0) translate(4 586.81)">
<title>TLevelSelector::ChooseLevel</title>
<!-- Node1 -->
<g id="node1" class="node">
<title>Node1</title>
<g id="a_node1"><a xlink:title=" ">
<polygon fill="#999999" stroke="#666666" points="157,-316.57 0,-316.57 0,-297.57 157,-297.57 157,-316.57"/>
<text text-anchor="middle" x="78.5" y="-304.57" font-family="Helvetica,sans-Serif" font-size="10.00">TLevelSelector::ChooseLevel</text>
</a>
</g>
</g>
<!-- Node2 -->
<g id="node2" class="node">
<title>Node2</title>
<g id="a_node2"><a xlink:href="../../d2/dc1/classTLevelSelector.html#a80979f7dca4479daec5fc9145c5710bf" target="_top" xlink:title=" ">
<polygon fill="white" stroke="#666666" points="368,-338.57 193,-338.57 193,-319.57 368,-319.57 368,-338.57"/>
<text text-anchor="middle" x="280.5" y="-326.57" font-family="Helvetica,sans-Serif" font-size="10.00">TLevelSelector::ReadLevelName</text>
</a>
</g>
</g>
<!-- Node1&#45;&gt;Node2 -->
<g id="edge1" class="edge">
<title>Node1&#45;&gt;Node2</title>
<path fill="none" stroke="#63b8ff" d="M157.11,-315.6C165.56,-316.53 174.22,-317.49 182.86,-318.44"/>
<polygon fill="#63b8ff" stroke="#63b8ff" points="182.64,-321.93 192.97,-319.55 183.41,-314.97 182.64,-321.93"/>
</g>
<!-- Node5 -->
<g id="node5" class="node">
<title>Node5</title>
<g id="a_node5"><a xlink:href="../../d2/dc1/classTLevelSelector.html#a1ce3be0dec7c17d6674837ff8742d5ee" target="_top" xlink:title=" ">
<polygon fill="white" stroke="#666666" points="357.5,-301.07 203.5,-301.07 203.5,-271.07 357.5,-271.07 357.5,-301.07"/>
<text text-anchor="start" x="211.5" y="-289.07" font-family="Helvetica,sans-Serif" font-size="10.00">TLevelSelector::readMission</text>
<text text-anchor="middle" x="280.5" y="-278.07" font-family="Helvetica,sans-Serif" font-size="10.00">InfoFromStream</text>
</a>
</g>
</g>
<!-- Node1&#45;&gt;Node5 -->
<g id="edge4" class="edge">
<title>Node1&#45;&gt;Node5</title>
<path fill="none" stroke="#63b8ff" d="M157.11,-298.92C168.95,-297.67 181.23,-296.38 193.24,-295.12"/>
<polygon fill="#63b8ff" stroke="#63b8ff" points="193.67,-298.6 203.25,-294.07 192.94,-291.64 193.67,-298.6"/>
</g>
<!-- Node3 -->
<g id="node3" class="node">
<title>Node3</title>
<g id="a_node3"><a xlink:href="../../d2/dc1/classTLevelSelector.html#a06fea104968332d1f13ef69d0cd403ea" target="_top" xlink:title=" ">
<polygon fill="white" stroke="#666666" points="558,-338.57 404,-338.57 404,-319.57 558,-319.57 558,-338.57"/>
<text text-anchor="middle" x="481" y="-326.57" font-family="Helvetica,sans-Serif" font-size="10.00">TLevelSelector::CheckExists</text>
</a>
</g>
</g>
<!-- Node2&#45;&gt;Node3 -->
<g id="edge2" class="edge">
<title>Node2&#45;&gt;Node3</title>
<path fill="none" stroke="#63b8ff" d="M368.28,-329.07C376.73,-329.07 385.31,-329.07 393.76,-329.07"/>
<polygon fill="#63b8ff" stroke="#63b8ff" points="393.99,-332.57 403.99,-329.07 393.99,-325.57 393.99,-332.57"/>
</g>
<!-- Node4 -->
<g id="node4" class="node">
<title>Node4</title>
<g id="a_node4"><a xlink:href="../../d2/dc1/classTLevelSelector.html#ac719b80a2836bee570fcedf85dd770f2" target="_top" xlink:title=" ">
<polygon fill="white" stroke="#666666" points="554,-387.07 408,-387.07 408,-357.07 554,-357.07 554,-387.07"/>
<text text-anchor="start" x="416" y="-375.07" font-family="Helvetica,sans-Serif" font-size="10.00">TLevelSelector::ReadLevel</text>
<text text-anchor="middle" x="481" y="-364.07" font-family="Helvetica,sans-Serif" font-size="10.00">NumberFromKeyboard</text>
</a>
</g>
</g>
<!-- Node2&#45;&gt;Node4 -->
<g id="edge3" class="edge">
<title>Node2&#45;&gt;Node4</title>
<path fill="none" stroke="#63b8ff" d="M325.55,-338.61C347.64,-343.39 375.06,-349.33 400.65,-354.88"/>
<polygon fill="#63b8ff" stroke="#63b8ff" points="400.21,-358.36 410.73,-357.06 401.69,-351.52 400.21,-358.36"/>
</g>
<!-- Node6 -->
<g id="node6" class="node">
<title>Node6</title>
<g id="a_node6"><a xlink:href="../../d5/d99/classTLevelReader.html#a5e3953bd0caf6e6c60d6750ff732150a" target="_top" xlink:title=" ">
<polygon fill="white" stroke="#666666" points="557,-301.07 405,-301.07 405,-271.07 557,-271.07 557,-301.07"/>
<text text-anchor="start" x="413" y="-289.07" font-family="Helvetica,sans-Serif" font-size="10.00">TLevelReader::ReadMission</text>
<text text-anchor="middle" x="481" y="-278.07" font-family="Helvetica,sans-Serif" font-size="10.00">InfoFromStream</text>
</a>
</g>
</g>
<!-- Node5&#45;&gt;Node6 -->
<g id="edge5" class="edge">
<title>Node5&#45;&gt;Node6</title>
<path fill="none" stroke="#63b8ff" d="M357.68,-286.07C369.72,-286.07 382.24,-286.07 394.48,-286.07"/>
<polygon fill="#63b8ff" stroke="#63b8ff" points="394.68,-289.57 404.68,-286.07 394.68,-282.57 394.68,-289.57"/>
</g>
<!-- Node7 -->
<g id="node7" class="node">
<title>Node7</title>
<g id="a_node7"><a xlink:href="../../d8/d51/classMyList.html#a80edb252c7e71107fac78c29647be513" target="_top" xlink:title=" ">
<polygon fill="white" stroke="#666666" points="1182.5,-560.57 1090.5,-560.57 1090.5,-541.57 1182.5,-541.57 1182.5,-560.57"/>
<text text-anchor="middle" x="1136.5" y="-548.57" font-family="Helvetica,sans-Serif" font-size="10.00">MyList::getById</text>
</a>
</g>
</g>
<!-- Node6&#45;&gt;Node7 -->
<g id="edge6" class="edge">
<title>Node6&#45;&gt;Node7</title>
<path fill="none" stroke="#63b8ff" d="M545.07,-301.17C549.81,-303.93 554.21,-307.2 558,-311.07 596.1,-349.91 560.4,-385.28 594,-428.07 670.07,-524.94 713.25,-537.33 832,-570.07 921.01,-594.6 1030.04,-576.75 1090.2,-562.97"/>
<polygon fill="#63b8ff" stroke="#63b8ff" points="1091.21,-566.33 1100.14,-560.63 1089.61,-559.52 1091.21,-566.33"/>
</g>
<!-- Node8 -->
<g id="node8" class="node">
<title>Node8</title>
<g id="a_node8"><a xlink:href="../../d5/d99/classTLevelReader.html#ac28bf996f8431c89710180136c30c180" target="_top" xlink:title=" ">
<polygon fill="white" stroke="#666666" points="764,-31.57 626,-31.57 626,-12.57 764,-12.57 764,-31.57"/>
<text text-anchor="middle" x="695" y="-19.57" font-family="Helvetica,sans-Serif" font-size="10.00">TLevelReader::ReadBase</text>
</a>
</g>
</g>
<!-- Node6&#45;&gt;Node8 -->
<g id="edge7" class="edge">
<title>Node6&#45;&gt;Node8</title>
<path fill="none" stroke="#63b8ff" d="M484.41,-270.91C492.02,-228.35 519.57,-106.85 594,-46.07 600.61,-40.67 608.24,-36.45 616.27,-33.16"/>
<polygon fill="#63b8ff" stroke="#63b8ff" points="617.63,-36.39 625.85,-29.7 615.26,-29.8 617.63,-36.39"/>
</g>
<!-- Node9 -->
<g id="node9" class="node">
<title>Node9</title>
<g id="a_node9"><a xlink:href="../../d5/d99/classTLevelReader.html#a82ec22fb9386deb547a0a0862bc90301" target="_top" xlink:title=" ">
<polygon fill="white" stroke="#666666" points="1200,-296.57 1073,-296.57 1073,-277.57 1200,-277.57 1200,-296.57"/>
<text text-anchor="middle" x="1136.5" y="-284.57" font-family="Helvetica,sans-Serif" font-size="10.00">TLevelReader::ReadInt</text>
</a>
</g>
</g>
<!-- Node6&#45;&gt;Node9 -->
<g id="edge17" class="edge">
<title>Node6&#45;&gt;Node9</title>
<path fill="none" stroke="#63b8ff" d="M495.14,-270.74C514.79,-248.56 553.84,-207.32 594,-181.07 690.32,-118.09 719.27,-102.21 832,-79.07 917.77,-61.46 954.3,-33.39 1029,-79.07 1064.4,-100.71 1111.23,-220.58 1128.62,-267.87"/>
<polygon fill="#63b8ff" stroke="#63b8ff" points="1125.42,-269.32 1132.13,-277.52 1132,-266.93 1125.42,-269.32"/>
</g>
<!-- Node10 -->
<g id="node10" class="node">
<title>Node10</title>
<g id="a_node10"><a xlink:href="../../d5/d99/classTLevelReader.html#a68c3199258c974d81e965a715a61e7e2" target="_top" xlink:title=" ">
<polygon fill="white" stroke="#666666" points="771,-220.07 619,-220.07 619,-190.07 771,-190.07 771,-220.07"/>
<text text-anchor="start" x="627" y="-208.07" font-family="Helvetica,sans-Serif" font-size="10.00">TLevelReader::ReadCapitan</text>
<text text-anchor="middle" x="695" y="-197.07" font-family="Helvetica,sans-Serif" font-size="10.00">Infos</text>
</a>
</g>
</g>
<!-- Node6&#45;&gt;Node10 -->
<g id="edge9" class="edge">
<title>Node6&#45;&gt;Node10</title>
<path fill="none" stroke="#63b8ff" d="M507.97,-271.03C530.22,-258.66 563.42,-241.38 594,-230.07 600.87,-227.53 608.09,-225.16 615.38,-222.98"/>
<polygon fill="#63b8ff" stroke="#63b8ff" points="616.7,-226.24 625.35,-220.11 614.77,-219.51 616.7,-226.24"/>
</g>
<!-- Node15 -->
<g id="node15" class="node">
<title>Node15</title>
<g id="a_node15"><a xlink:href="../../d5/d99/classTLevelReader.html#a25bd379fa12d624375f165251b9c1178" target="_top" xlink:title=" ">
<polygon fill="white" stroke="#666666" points="1003.5,-259.57 857.5,-259.57 857.5,-240.57 1003.5,-240.57 1003.5,-259.57"/>
<text text-anchor="middle" x="930.5" y="-247.57" font-family="Helvetica,sans-Serif" font-size="10.00">TLevelReader::ReadEmpty</text>
</a>
</g>
</g>
<!-- Node6&#45;&gt;Node15 -->
<g id="edge16" class="edge">
<title>Node6&#45;&gt;Node15</title>
<path fill="none" stroke="#63b8ff" d="M557.29,-282.91C620.97,-279.91 714.57,-274.71 796,-267.07 814.06,-265.37 833.44,-263.14 851.68,-260.86"/>
<polygon fill="#63b8ff" stroke="#63b8ff" points="852.2,-264.32 861.68,-259.59 851.32,-257.37 852.2,-264.32"/>
</g>
<!-- Node16 -->
<g id="node16" class="node">
<title>Node16</title>
<g id="a_node16"><a xlink:href="../../d5/d99/classTLevelReader.html#ae7a5a65dfddd9c939dbdf18846054725" target="_top" xlink:title=" ">
<polygon fill="white" stroke="#666666" points="766.5,-419.07 623.5,-419.07 623.5,-389.07 766.5,-389.07 766.5,-419.07"/>
<text text-anchor="start" x="631.5" y="-407.07" font-family="Helvetica,sans-Serif" font-size="10.00">TLevelReader::ReadPirate</text>
<text text-anchor="middle" x="695" y="-396.07" font-family="Helvetica,sans-Serif" font-size="10.00">Bases</text>
</a>
</g>
</g>
<!-- Node6&#45;&gt;Node16 -->
<g id="edge18" class="edge">
<title>Node6&#45;&gt;Node16</title>
<path fill="none" stroke="#63b8ff" d="M542.83,-301.16C548.28,-303.93 553.45,-307.2 558,-311.07 584.37,-333.45 566.73,-358.78 594,-380.07 599.9,-384.67 606.55,-388.41 613.55,-391.45"/>
<polygon fill="#63b8ff" stroke="#63b8ff" points="612.68,-394.86 623.27,-395.17 615.18,-388.33 612.68,-394.86"/>
</g>
<!-- Node18 -->
<g id="node18" class="node">
<title>Node18</title>
<g id="a_node18"><a xlink:href="../../d5/d99/classTLevelReader.html#a06cbe367f372ca443af250d9c581b58b" target="_top" xlink:title=" ">
<polygon fill="white" stroke="#666666" points="765,-370.57 625,-370.57 625,-351.57 765,-351.57 765,-370.57"/>
<text text-anchor="middle" x="695" y="-358.57" font-family="Helvetica,sans-Serif" font-size="10.00">TLevelReader::ReadShips</text>
</a>
</g>
</g>
<!-- Node6&#45;&gt;Node18 -->
<g id="edge26" class="edge">
<title>Node6&#45;&gt;Node18</title>
<path fill="none" stroke="#63b8ff" d="M537.14,-301.21C544.36,-304.05 551.5,-307.32 558,-311.07 576.55,-321.74 574.75,-333.71 594,-343.07 600.6,-346.27 607.69,-348.91 614.95,-351.09"/>
<polygon fill="#63b8ff" stroke="#63b8ff" points="614.34,-354.55 624.91,-353.77 616.16,-347.79 614.34,-354.55"/>
</g>
<!-- Node20 -->
<g id="node20" class="node">
<title>Node20</title>
<g id="a_node20"><a xlink:href="../../d5/d99/classTLevelReader.html#a6e0d6c10291d52c31f5c22b8673dbb98" target="_top" xlink:title=" ">
<polygon fill="white" stroke="#666666" points="796,-333.57 594,-333.57 594,-314.57 796,-314.57 796,-333.57"/>
<text text-anchor="middle" x="695" y="-321.57" font-family="Helvetica,sans-Serif" font-size="10.00">TLevelReader::ReadSpawnDescriptors</text>
</a>
</g>
</g>
<!-- Node6&#45;&gt;Node20 -->
<g id="edge34" class="edge">
<title>Node6&#45;&gt;Node20</title>
<path fill="none" stroke="#63b8ff" d="M557.04,-299.52C581.11,-303.83 607.52,-308.57 630.67,-312.71"/>
<polygon fill="#63b8ff" stroke="#63b8ff" points="630.25,-316.2 640.71,-314.51 631.49,-309.31 630.25,-316.2"/>
</g>
<!-- Node22 -->
<g id="node22" class="node">
<title>Node22</title>
<g id="a_node22"><a xlink:href="../../d5/d99/classTLevelReader.html#a4467cdf7d7766981a6b8eeb23076b433" target="_top" xlink:title=" ">
<polygon fill="white" stroke="#666666" points="774,-257.57 616,-257.57 616,-238.57 774,-238.57 774,-257.57"/>
<text text-anchor="middle" x="695" y="-245.57" font-family="Helvetica,sans-Serif" font-size="10.00">TLevelReader::ReadWeapons</text>
</a>
</g>
</g>
<!-- Node6&#45;&gt;Node22 -->
<g id="edge41" class="edge">
<title>Node6&#45;&gt;Node22</title>
<path fill="none" stroke="#63b8ff" d="M557.04,-272.62C581.11,-268.3 607.52,-263.57 630.67,-259.42"/>
<polygon fill="#63b8ff" stroke="#63b8ff" points="631.49,-262.83 640.71,-257.62 630.25,-255.94 631.49,-262.83"/>
</g>
<!-- Node8&#45;&gt;Node9 -->
<g id="edge8" class="edge">
<title>Node8&#45;&gt;Node9</title>
<path fill="none" stroke="#63b8ff" d="M737.3,-12.55C805,0.54 940.84,15.99 1029,-46.07 1038.86,-53.01 1104.76,-212.09 1127.67,-267.91"/>
<polygon fill="#63b8ff" stroke="#63b8ff" points="1124.51,-269.43 1131.54,-277.35 1130.98,-266.77 1124.51,-269.43"/>
</g>
<!-- Node10&#45;&gt;Node9 -->
<g id="edge15" class="edge">
<title>Node10&#45;&gt;Node9</title>
<path fill="none" stroke="#63b8ff" d="M725.72,-189.93C786.04,-161.44 925.84,-106.98 1029,-156.07 1078.22,-179.49 1112.13,-238.01 1127,-268.28"/>
<polygon fill="#63b8ff" stroke="#63b8ff" points="1123.86,-269.83 1131.31,-277.37 1130.19,-266.83 1123.86,-269.83"/>
</g>
<!-- Node11 -->
<g id="node11" class="node">
<title>Node11</title>
<g id="a_node11"><a xlink:href="../../d8/d51/classMyList.html#a723c00a8380b8fd0705cb286cdd179d2" target="_top" xlink:title=" ">
<polygon fill="white" stroke="#666666" points="967,-370.57 894,-370.57 894,-351.57 967,-351.57 967,-370.57"/>
<text text-anchor="middle" x="930.5" y="-358.57" font-family="Helvetica,sans-Serif" font-size="10.00">MyList::end</text>
</a>
</g>
</g>
<!-- Node10&#45;&gt;Node11 -->
<g id="edge10" class="edge">
<title>Node10&#45;&gt;Node11</title>
<path fill="none" stroke="#63b8ff" d="M771.12,-214.74C780.27,-218.43 788.89,-223.39 796,-230.07 834.43,-266.14 792.46,-308.21 832,-343.07 845.99,-355.4 865.6,-360.52 883.57,-362.32"/>
<polygon fill="#63b8ff" stroke="#63b8ff" points="883.4,-365.81 893.62,-363.01 883.89,-358.83 883.4,-365.81"/>
</g>
<!-- Node12 -->
<g id="node12" class="node">
<title>Node12</title>
<g id="a_node12"><a xlink:href="../../d8/d51/classMyList.html#ab5e189776aca91f01ee5fe930318c289" target="_top" xlink:title=" ">
<polygon fill="white" stroke="#666666" points="972,-333.57 889,-333.57 889,-314.57 972,-314.57 972,-333.57"/>
<text text-anchor="middle" x="930.5" y="-321.57" font-family="Helvetica,sans-Serif" font-size="10.00">MyList::insert</text>
</a>
</g>
</g>
<!-- Node10&#45;&gt;Node12 -->
<g id="edge11" class="edge">
<title>Node10&#45;&gt;Node12</title>
<path fill="none" stroke="#63b8ff" d="M771.08,-215.95C780.08,-219.46 788.67,-224.05 796,-230.07 824.9,-253.76 802.37,-283.28 832,-306.07 845.22,-316.23 862.4,-321.28 878.65,-323.63"/>
<polygon fill="#63b8ff" stroke="#63b8ff" points="878.27,-327.11 888.6,-324.77 879.06,-320.16 878.27,-327.11"/>
</g>
<!-- Node13 -->
<g id="node13" class="node">
<title>Node13</title>
<g id="a_node13"><a xlink:href="../../d5/d99/classTLevelReader.html#aa3fd2b19c5d17f7e5b71d28780a7557c" target="_top" xlink:title=" ">
<polygon fill="white" stroke="#666666" points="1015.5,-107.57 845.5,-107.57 845.5,-88.57 1015.5,-88.57 1015.5,-107.57"/>
<text text-anchor="middle" x="930.5" y="-95.57" font-family="Helvetica,sans-Serif" font-size="10.00">TLevelReader::ReadCapitanInfo</text>
</a>
</g>
</g>
<!-- Node10&#45;&gt;Node13 -->
<g id="edge12" class="edge">
<title>Node10&#45;&gt;Node13</title>
<path fill="none" stroke="#63b8ff" d="M716.13,-190.03C741.79,-171.54 788.08,-140.36 832,-122.07 843.49,-117.28 856.16,-113.3 868.45,-110.04"/>
<polygon fill="#63b8ff" stroke="#63b8ff" points="869.36,-113.42 878.2,-107.58 867.65,-106.63 869.36,-113.42"/>
</g>
<!-- Node10&#45;&gt;Node15 -->
<g id="edge14" class="edge">
<title>Node10&#45;&gt;Node15</title>
<path fill="none" stroke="#63b8ff" d="M771.17,-219.55C803.15,-225.72 839.92,-232.8 869.97,-238.59"/>
<polygon fill="#63b8ff" stroke="#63b8ff" points="869.4,-242.05 879.88,-240.5 870.73,-235.18 869.4,-242.05"/>
</g>
<!-- Node14 -->
<g id="node14" class="node">
<title>Node14</title>
<g id="a_node14"><a xlink:href="../../d5/d99/classTLevelReader.html#a2b97e074354c270b0502ec57d528d73b" target="_top" xlink:title=" ">
<polygon fill="white" stroke="#666666" points="1208,-107.57 1065,-107.57 1065,-88.57 1208,-88.57 1208,-107.57"/>
<text text-anchor="middle" x="1136.5" y="-95.57" font-family="Helvetica,sans-Serif" font-size="10.00">TLevelReader::ReadString</text>
</a>
</g>
</g>
<!-- Node13&#45;&gt;Node14 -->
<g id="edge13" class="edge">
<title>Node13&#45;&gt;Node14</title>
<path fill="none" stroke="#63b8ff" d="M1015.65,-98.07C1028.56,-98.07 1041.85,-98.07 1054.68,-98.07"/>
<polygon fill="#63b8ff" stroke="#63b8ff" points="1054.86,-101.57 1064.86,-98.07 1054.85,-94.57 1054.86,-101.57"/>
</g>
<!-- Node16&#45;&gt;Node9 -->
<g id="edge22" class="edge">
<title>Node16&#45;&gt;Node9</title>
<path fill="none" stroke="#63b8ff" d="M711.94,-419.27C735.79,-440.85 783.2,-479.38 832,-494.07 915.84,-519.3 954.26,-539.67 1029,-494.07 1097.73,-452.14 1123.98,-350.13 1132.25,-306.92"/>
<polygon fill="#63b8ff" stroke="#63b8ff" points="1135.74,-307.29 1134.05,-296.83 1128.85,-306.06 1135.74,-307.29"/>
</g>
<!-- Node16&#45;&gt;Node11 -->
<g id="edge19" class="edge">
<title>Node16&#45;&gt;Node11</title>
<path fill="none" stroke="#63b8ff" d="M766.69,-391.05C804.77,-384.04 850.62,-375.59 883.96,-369.45"/>
<polygon fill="#63b8ff" stroke="#63b8ff" points="884.67,-372.88 893.87,-367.63 883.41,-366 884.67,-372.88"/>
</g>
<!-- Node16&#45;&gt;Node12 -->
<g id="edge20" class="edge">
<title>Node16&#45;&gt;Node12</title>
<path fill="none" stroke="#63b8ff" d="M766.51,-392.48C776.77,-389.29 786.92,-385.23 796,-380.07 815.94,-368.72 811.82,-353.98 832,-343.07 846.19,-335.39 863.02,-330.79 878.67,-328.04"/>
<polygon fill="#63b8ff" stroke="#63b8ff" points="879.4,-331.47 888.75,-326.49 878.33,-324.55 879.4,-331.47"/>
</g>
<!-- Node16&#45;&gt;Node15 -->
<g id="edge21" class="edge">
<title>Node16&#45;&gt;Node15</title>
<path fill="none" stroke="#63b8ff" d="M766.73,-396.73C777.49,-393.03 787.74,-387.7 796,-380.07 834.08,-344.85 793.17,-303.45 832,-269.07 836.74,-264.86 842.14,-261.48 847.89,-258.76"/>
<polygon fill="#63b8ff" stroke="#63b8ff" points="849.22,-261.99 857.19,-255.01 846.61,-255.5 849.22,-261.99"/>
</g>
<!-- Node17 -->
<g id="node17" class="node">
<title>Node17</title>
<g id="a_node17"><a xlink:href="../../d5/d99/classTLevelReader.html#a98a8afd39b4ade7d9e3843a51109ea1d" target="_top" xlink:title=" ">
<polygon fill="white" stroke="#666666" points="1014,-560.57 847,-560.57 847,-541.57 1014,-541.57 1014,-560.57"/>
<text text-anchor="middle" x="930.5" y="-548.57" font-family="Helvetica,sans-Serif" font-size="10.00">TLevelReader::ReadPirateBase</text>
</a>
</g>
</g>
<!-- Node16&#45;&gt;Node17 -->
<g id="edge23" class="edge">
<title>Node16&#45;&gt;Node17</title>
<path fill="none" stroke="#63b8ff" d="M708.15,-419.13C730.06,-445.25 778.86,-498.84 832,-527.07 840.89,-531.79 850.73,-535.6 860.64,-538.68"/>
<polygon fill="#63b8ff" stroke="#63b8ff" points="859.97,-542.12 870.54,-541.51 861.89,-535.39 859.97,-542.12"/>
</g>
<!-- Node17&#45;&gt;Node7 -->
<g id="edge24" class="edge">
<title>Node17&#45;&gt;Node7</title>
<path fill="none" stroke="#63b8ff" d="M1014.18,-551.07C1036.48,-551.07 1060.06,-551.07 1080.43,-551.07"/>
<polygon fill="#63b8ff" stroke="#63b8ff" points="1080.47,-554.57 1090.47,-551.07 1080.47,-547.57 1080.47,-554.57"/>
</g>
<!-- Node17&#45;&gt;Node9 -->
<g id="edge25" class="edge">
<title>Node17&#45;&gt;Node9</title>
<path fill="none" stroke="#63b8ff" d="M1003.34,-541.49C1012.64,-538.01 1021.52,-533.33 1029,-527.07 1099.55,-467.97 1125.06,-352.82 1132.69,-306.78"/>
<polygon fill="#63b8ff" stroke="#63b8ff" points="1136.19,-307.06 1134.26,-296.64 1129.27,-305.99 1136.19,-307.06"/>
</g>
<!-- Node18&#45;&gt;Node9 -->
<g id="edge30" class="edge">
<title>Node18&#45;&gt;Node9</title>
<path fill="none" stroke="#63b8ff" d="M765.24,-370.11C775.77,-372.66 786.34,-375.91 796,-380.07 814.13,-387.87 813.22,-399.99 832,-406.07 915.31,-433 949.07,-441.8 1029,-406.07 1075.42,-385.32 1109.98,-333.23 1125.86,-305.35"/>
<polygon fill="#63b8ff" stroke="#63b8ff" points="1128.92,-307.04 1130.68,-296.59 1122.79,-303.66 1128.92,-307.04"/>
</g>
<!-- Node18&#45;&gt;Node11 -->
<g id="edge27" class="edge">
<title>Node18&#45;&gt;Node11</title>
<path fill="none" stroke="#63b8ff" d="M765.11,-361.07C803.38,-361.07 849.89,-361.07 883.66,-361.07"/>
<polygon fill="#63b8ff" stroke="#63b8ff" points="883.71,-364.57 893.71,-361.07 883.71,-357.57 883.71,-364.57"/>
</g>
<!-- Node18&#45;&gt;Node12 -->
<g id="edge28" class="edge">
<title>Node18&#45;&gt;Node12</title>
<path fill="none" stroke="#63b8ff" d="M756.13,-351.54C794.01,-345.54 842.38,-337.87 878.4,-332.16"/>
<polygon fill="#63b8ff" stroke="#63b8ff" points="879.36,-335.56 888.69,-330.53 878.26,-328.64 879.36,-335.56"/>
</g>
<!-- Node18&#45;&gt;Node15 -->
<g id="edge29" class="edge">
<title>Node18&#45;&gt;Node15</title>
<path fill="none" stroke="#63b8ff" d="M765.19,-357.38C776.25,-354.41 787,-349.88 796,-343.07 825.16,-320.99 803,-291.35 832,-269.07 836.82,-265.36 842.16,-262.32 847.78,-259.82"/>
<polygon fill="#63b8ff" stroke="#63b8ff" points="849.38,-262.96 857.48,-256.12 846.89,-256.42 849.38,-262.96"/>
</g>
<!-- Node19 -->
<g id="node19" class="node">
<title>Node19</title>
<g id="a_node19"><a xlink:href="../../d5/d99/classTLevelReader.html#a111bc6a9c4250c31a0689e62f7113254" target="_top" xlink:title=" ">
<polygon fill="white" stroke="#666666" points="998,-484.57 863,-484.57 863,-465.57 998,-465.57 998,-484.57"/>
<text text-anchor="middle" x="930.5" y="-472.57" font-family="Helvetica,sans-Serif" font-size="10.00">TLevelReader::ReadShip</text>
</a>
</g>
</g>
<!-- Node18&#45;&gt;Node19 -->
<g id="edge31" class="edge">
<title>Node18&#45;&gt;Node19</title>
<path fill="none" stroke="#63b8ff" d="M765.12,-365.63C776.19,-368.68 786.96,-373.27 796,-380.07 824.28,-401.33 804.3,-429.06 832,-451.07 838.4,-456.15 845.74,-460.18 853.44,-463.37"/>
<polygon fill="#63b8ff" stroke="#63b8ff" points="852.39,-466.72 862.99,-466.86 854.79,-460.14 852.39,-466.72"/>
</g>
<!-- Node19&#45;&gt;Node7 -->
<g id="edge32" class="edge">
<title>Node19&#45;&gt;Node7</title>
<path fill="none" stroke="#63b8ff" d="M957.34,-484.69C993.59,-498.2 1059.66,-522.81 1100.36,-537.97"/>
<polygon fill="#63b8ff" stroke="#63b8ff" points="1099.28,-541.31 1109.87,-541.52 1101.72,-534.75 1099.28,-541.31"/>
</g>
<!-- Node19&#45;&gt;Node9 -->
<g id="edge33" class="edge">
<title>Node19&#45;&gt;Node9</title>
<path fill="none" stroke="#63b8ff" d="M998.17,-465.81C1009.1,-462.34 1019.84,-457.58 1029,-451.07 1081.91,-413.45 1115.2,-340.53 1128.66,-306.03"/>
<polygon fill="#63b8ff" stroke="#63b8ff" points="1131.94,-307.23 1132.2,-296.64 1125.39,-304.76 1131.94,-307.23"/>
</g>
<!-- Node20&#45;&gt;Node9 -->
<g id="edge38" class="edge">
<title>Node20&#45;&gt;Node9</title>
<path fill="none" stroke="#63b8ff" d="M772.76,-333.59C780.86,-336.07 788.76,-339.17 796,-343.07 816.21,-353.93 810.86,-371.14 832,-380.07 912.66,-414.13 947.02,-410.82 1029,-380.07 1069.17,-364.99 1104.14,-327.15 1122.28,-304.65"/>
<polygon fill="#63b8ff" stroke="#63b8ff" points="1125.18,-306.63 1128.58,-296.6 1119.66,-302.31 1125.18,-306.63"/>
</g>
<!-- Node20&#45;&gt;Node11 -->
<g id="edge35" class="edge">
<title>Node20&#45;&gt;Node11</title>
<path fill="none" stroke="#63b8ff" d="M756.13,-333.59C795.86,-339.89 847.12,-348.01 883.57,-353.79"/>
<polygon fill="#63b8ff" stroke="#63b8ff" points="883.49,-357.32 893.91,-355.43 884.58,-350.4 883.49,-357.32"/>
</g>
<!-- Node20&#45;&gt;Node12 -->
<g id="edge36" class="edge">
<title>Node20&#45;&gt;Node12</title>
<path fill="none" stroke="#63b8ff" d="M796.04,-324.07C824.63,-324.07 854.59,-324.07 878.86,-324.07"/>
<polygon fill="#63b8ff" stroke="#63b8ff" points="878.9,-327.57 888.9,-324.07 878.9,-320.57 878.9,-327.57"/>
</g>
<!-- Node20&#45;&gt;Node15 -->
<g id="edge37" class="edge">
<title>Node20&#45;&gt;Node15</title>
<path fill="none" stroke="#63b8ff" d="M756.09,-314.53C769.66,-311.06 783.68,-306.37 796,-300.07 814.79,-290.44 813,-278.28 832,-269.07 837.04,-266.62 842.38,-264.49 847.85,-262.63"/>
<polygon fill="#63b8ff" stroke="#63b8ff" points="849.27,-265.86 857.8,-259.58 847.22,-259.16 849.27,-265.86"/>
</g>
<!-- Node21 -->
<g id="node21" class="node">
<title>Node21</title>
<g id="a_node21"><a xlink:href="../../d5/d99/classTLevelReader.html#a392f8ceec89e3ff9f3f87ea030c117d6" target="_top" xlink:title=" ">
<polygon fill="white" stroke="#666666" points="1029,-296.57 832,-296.57 832,-277.57 1029,-277.57 1029,-296.57"/>
<text text-anchor="middle" x="930.5" y="-284.57" font-family="Helvetica,sans-Serif" font-size="10.00">TLevelReader::ReadSpawnDescriptor</text>
</a>
</g>
</g>
<!-- Node20&#45;&gt;Node21 -->
<g id="edge39" class="edge">
<title>Node20&#45;&gt;Node21</title>
<path fill="none" stroke="#63b8ff" d="M756.13,-314.54C787.6,-309.55 826.32,-303.42 859.17,-298.21"/>
<polygon fill="#63b8ff" stroke="#63b8ff" points="859.84,-301.65 869.17,-296.63 858.74,-294.73 859.84,-301.65"/>
</g>
<!-- Node21&#45;&gt;Node9 -->
<g id="edge40" class="edge">
<title>Node21&#45;&gt;Node9</title>
<path fill="none" stroke="#63b8ff" d="M1029.02,-287.07C1040.35,-287.07 1051.76,-287.07 1062.68,-287.07"/>
<polygon fill="#63b8ff" stroke="#63b8ff" points="1062.98,-290.57 1072.98,-287.07 1062.98,-283.57 1062.98,-290.57"/>
</g>
<!-- Node22&#45;&gt;Node9 -->
<g id="edge45" class="edge">
<title>Node22&#45;&gt;Node9</title>
<path fill="none" stroke="#63b8ff" d="M763.66,-238.52C785.43,-235.88 809.69,-233.37 832,-232.07 919.41,-226.94 943.92,-211.39 1029,-232.07 1060.53,-239.73 1093.16,-258.46 1113.85,-271.93"/>
<polygon fill="#63b8ff" stroke="#63b8ff" points="1111.96,-274.88 1122.22,-277.52 1115.84,-269.05 1111.96,-274.88"/>
</g>
<!-- Node22&#45;&gt;Node11 -->
<g id="edge42" class="edge">
<title>Node22&#45;&gt;Node11</title>
<path fill="none" stroke="#63b8ff" d="M716.18,-257.7C737.13,-268.16 770.36,-286.07 796,-306.07 814.09,-320.18 811.76,-332.25 832,-343.07 847.71,-351.46 866.66,-356.01 883.66,-358.45"/>
<polygon fill="#63b8ff" stroke="#63b8ff" points="883.59,-361.97 893.94,-359.72 884.44,-355.02 883.59,-361.97"/>
</g>
<!-- Node22&#45;&gt;Node12 -->
<g id="edge43" class="edge">
<title>Node22&#45;&gt;Node12</title>
<path fill="none" stroke="#63b8ff" d="M714.87,-257.7C740.69,-270.5 788.75,-293.02 832,-306.07 846.86,-310.55 863.35,-314.11 878.48,-316.83"/>
<polygon fill="#63b8ff" stroke="#63b8ff" points="878.25,-320.35 888.7,-318.59 879.44,-313.45 878.25,-320.35"/>
</g>
<!-- Node22&#45;&gt;Node15 -->
<g id="edge44" class="edge">
<title>Node22&#45;&gt;Node15</title>
<path fill="none" stroke="#63b8ff" d="M774.08,-248.73C797.63,-248.94 823.54,-249.16 847.35,-249.36"/>
<polygon fill="#63b8ff" stroke="#63b8ff" points="847.38,-252.86 857.41,-249.45 847.44,-245.86 847.38,-252.86"/>
</g>
<!-- Node23 -->
<g id="node23" class="node">
<title>Node23</title>
<g id="a_node23"><a xlink:href="../../d5/d99/classTLevelReader.html#ad7b63a611a8e08c9d9b38ee2972c82fc" target="_top" xlink:title=" ">
<polygon fill="white" stroke="#666666" points="1007,-183.57 854,-183.57 854,-164.57 1007,-164.57 1007,-183.57"/>
<text text-anchor="middle" x="930.5" y="-171.57" font-family="Helvetica,sans-Serif" font-size="10.00">TLevelReader::ReadWeapon</text>
</a>
</g>
</g>
<!-- Node22&#45;&gt;Node23 -->
<g id="edge46" class="edge">
<title>Node22&#45;&gt;Node23</title>
<path fill="none" stroke="#63b8ff" d="M770.06,-238.56C779.03,-236.09 787.88,-232.98 796,-229.07 815.02,-219.89 813.23,-207.74 832,-198.07 841.28,-193.28 851.54,-189.42 861.84,-186.32"/>
<polygon fill="#63b8ff" stroke="#63b8ff" points="862.99,-189.63 871.68,-183.57 861.1,-182.89 862.99,-189.63"/>
</g>
<!-- Node23&#45;&gt;Node9 -->
<g id="edge47" class="edge">
<title>Node23&#45;&gt;Node9</title>
<path fill="none" stroke="#63b8ff" d="M988.74,-183.57C1002.37,-187.06 1016.56,-191.77 1029,-198.07 1065.46,-216.53 1100.36,-249.6 1119.76,-269.82"/>
<polygon fill="#63b8ff" stroke="#63b8ff" points="1117.46,-272.48 1126.86,-277.37 1122.56,-267.68 1117.46,-272.48"/>
</g>
</g>
</svg>
