<?xml version="1.0" encoding="UTF-8" standalone="no"?>
<!DOCTYPE svg PUBLIC "-//W3C//DTD SVG 1.1//EN"
 "http://www.w3.org/Graphics/SVG/1.1/DTD/svg11.dtd">
<!-- Generated by graphviz version 2.43.0 (0)
 -->
<!-- Title: TLevelSelector::ReadLevelName Pages: 1 -->
<svg width="373pt" height="76pt"
 viewBox="0.00 0.00 373.00 75.50" xmlns="http://www.w3.org/2000/svg" xmlns:xlink="http://www.w3.org/1999/xlink">
<g id="graph0" class="graph" transform="scale(1 1) rotate(0) translate(4 71.5)">
<title>TLevelSelector::ReadLevelName</title>
<!-- Node1 -->
<g id="node1" class="node">
<title>Node1</title>
<g id="a_node1"><a xlink:title=" ">
<polygon fill="#999999" stroke="#666666" points="175,-45.5 0,-45.5 0,-26.5 175,-26.5 175,-45.5"/>
<text text-anchor="middle" x="87.5" y="-33.5" font-family="Helvetica,sans-Serif" font-size="10.00">TLevelSelector::ReadLevelName</text>
</a>
</g>
</g>
<!-- Node2 -->
<g id="node2" class="node">
<title>Node2</title>
<g id="a_node2"><a xlink:href="../../d2/dc1/classTLevelSelector.html#a06fea104968332d1f13ef69d0cd403ea" target="_top" xlink:title=" ">
<polygon fill="white" stroke="#666666" points="365,-67.5 211,-67.5 211,-48.5 365,-48.5 365,-67.5"/>
<text text-anchor="middle" x="288" y="-55.5" font-family="Helvetica,sans-Serif" font-size="10.00">TLevelSelector::CheckExists</text>
</a>
</g>
</g>
<!-- Node1&#45;&gt;Node2 -->
<g id="edge1" class="edge">
<title>Node1&#45;&gt;Node2</title>
<path fill="none" stroke="#63b8ff" d="M174.41,-45.52C183.15,-46.49 192.02,-47.47 200.76,-48.44"/>
<polygon fill="#63b8ff" stroke="#63b8ff" points="200.62,-51.95 210.94,-49.57 201.39,-44.99 200.62,-51.95"/>
</g>
<!-- Node3 -->
<g id="node3" class="node">
<title>Node3</title>
<g id="a_node3"><a xlink:href="../../d2/dc1/classTLevelSelector.html#ac719b80a2836bee570fcedf85dd770f2" target="_top" xlink:title=" ">
<polygon fill="white" stroke="#666666" points="361,-30 215,-30 215,0 361,0 361,-30"/>
<text text-anchor="start" x="223" y="-18" font-family="Helvetica,sans-Serif" font-size="10.00">TLevelSelector::ReadLevel</text>
<text text-anchor="middle" x="288" y="-7" font-family="Helvetica,sans-Serif" font-size="10.00">NumberFromKeyboard</text>
</a>
</g>
</g>
<!-- Node1&#45;&gt;Node3 -->
<g id="edge2" class="edge">
<title>Node1&#45;&gt;Node3</title>
<path fill="none" stroke="#63b8ff" d="M175.28,-26.82C185.11,-25.78 195.11,-24.72 204.88,-23.69"/>
<polygon fill="#63b8ff" stroke="#63b8ff" points="205.39,-27.15 214.96,-22.62 204.65,-20.19 205.39,-27.15"/>
</g>
</g>
</svg>
