<?xml version="1.0" encoding="UTF-8" standalone="no"?>
<!DOCTYPE svg PUBLIC "-//W3C//DTD SVG 1.1//EN"
 "http://www.w3.org/Graphics/SVG/1.1/DTD/svg11.dtd">
<!-- Generated by graphviz version 2.43.0 (0)
 -->
<!-- Title: TLevelSelector::CheckExists Pages: 1 -->
<svg width="566pt" height="27pt"
 viewBox="0.00 0.00 566.00 27.00" xmlns="http://www.w3.org/2000/svg" xmlns:xlink="http://www.w3.org/1999/xlink">
<g id="graph0" class="graph" transform="scale(1 1) rotate(0) translate(4 23)">
<title>TLevelSelector::CheckExists</title>
<!-- Node1 -->
<g id="node1" class="node">
<title>Node1</title>
<g id="a_node1"><a xlink:title=" ">
<polygon fill="#999999" stroke="#666666" points="558,-19 404,-19 404,0 558,0 558,-19"/>
<text text-anchor="middle" x="481" y="-7" font-family="Helvetica,sans-Serif" font-size="10.00">TLevelSelector::CheckExists</text>
</a>
</g>
</g>
<!-- Node2 -->
<g id="node2" class="node">
<title>Node2</title>
<g id="a_node2"><a xlink:href="../../d2/dc1/classTLevelSelector.html#a80979f7dca4479daec5fc9145c5710bf" target="_top" xlink:title=" ">
<polygon fill="white" stroke="#666666" points="368,-19 193,-19 193,0 368,0 368,-19"/>
<text text-anchor="middle" x="280.5" y="-7" font-family="Helvetica,sans-Serif" font-size="10.00">TLevelSelector::ReadLevelName</text>
</a>
</g>
</g>
<!-- Node1&#45;&gt;Node2 -->
<g id="edge1" class="edge">
<title>Node1&#45;&gt;Node2</title>
<path fill="none" stroke="#63b8ff" d="M393.58,-9.5C385.12,-9.5 376.53,-9.5 368.07,-9.5"/>
<polygon fill="#63b8ff" stroke="#63b8ff" points="393.82,-13 403.82,-9.5 393.82,-6 393.82,-13"/>
</g>
<!-- Node3 -->
<g id="node3" class="node">
<title>Node3</title>
<g id="a_node3"><a xlink:href="../../d2/dc1/classTLevelSelector.html#a8052aa13fccc78befaf7cd0cc95fbe97" target="_top" xlink:title=" ">
<polygon fill="white" stroke="#666666" points="157,-19 0,-19 0,0 157,0 157,-19"/>
<text text-anchor="middle" x="78.5" y="-7" font-family="Helvetica,sans-Serif" font-size="10.00">TLevelSelector::ChooseLevel</text>
</a>
</g>
</g>
<!-- Node2&#45;&gt;Node3 -->
<g id="edge2" class="edge">
<title>Node2&#45;&gt;Node3</title>
<path fill="none" stroke="#63b8ff" d="M182.83,-9.5C174.19,-9.5 165.52,-9.5 157.07,-9.5"/>
<polygon fill="#63b8ff" stroke="#63b8ff" points="182.94,-13 192.94,-9.5 182.94,-6 182.94,-13"/>
</g>
</g>
</svg>
