<?xml version="1.0" encoding="UTF-8" standalone="no"?>
<!DOCTYPE svg PUBLIC "-//W3C//DTD SVG 1.1//EN"
 "http://www.w3.org/Graphics/SVG/1.1/DTD/svg11.dtd">
<!-- Generated by graphviz version 2.43.0 (0)
 -->
<!-- Title: TWarShip::MakeShot Pages: 1 -->
<svg width="308pt" height="138pt"
 viewBox="0.00 0.00 308.00 138.00" xmlns="http://www.w3.org/2000/svg" xmlns:xlink="http://www.w3.org/1999/xlink">
<g id="graph0" class="graph" transform="scale(1 1) rotate(0) translate(4 134)">
<title>TWarShip::MakeShot</title>
<!-- Node1 -->
<g id="node1" class="node">
<title>Node1</title>
<g id="a_node1"><a xlink:title=" ">
<polygon fill="#999999" stroke="#666666" points="116,-74 0,-74 0,-55 116,-55 116,-74"/>
<text text-anchor="middle" x="58" y="-62" font-family="Helvetica,sans-Serif" font-size="10.00">TWarShip::MakeShot</text>
</a>
</g>
</g>
<!-- Node2 -->
<g id="node2" class="node">
<title>Node2</title>
<g id="a_node2"><a xlink:href="../../d1/d07/classTShip.html#acd163830df7d2e25fba46c9696ae8494" target="_top" xlink:title=" ">
<polygon fill="white" stroke="#666666" points="281,-130 171,-130 171,-111 281,-111 281,-130"/>
<text text-anchor="middle" x="226" y="-118" font-family="Helvetica,sans-Serif" font-size="10.00">TShip::BeDamaged</text>
</a>
</g>
</g>
<!-- Node1&#45;&gt;Node2 -->
<g id="edge1" class="edge">
<title>Node1&#45;&gt;Node2</title>
<path fill="none" stroke="#63b8ff" d="M80.09,-74.15C98.73,-82.43 126.79,-94.29 152,-102.5 158.42,-104.59 165.23,-106.57 172,-108.4"/>
<polygon fill="#63b8ff" stroke="#63b8ff" points="171.3,-111.84 181.86,-110.97 173.06,-105.06 171.3,-111.84"/>
</g>
<!-- Node3 -->
<g id="node3" class="node">
<title>Node3</title>
<g id="a_node3"><a xlink:href="../../d5/d55/classTObjectOnMap.html#ac427e764b888613f234e51f1b97b8754" target="_top" xlink:title=" ">
<polygon fill="white" stroke="#666666" points="288.5,-93 163.5,-93 163.5,-74 288.5,-74 288.5,-93"/>
<text text-anchor="middle" x="226" y="-81" font-family="Helvetica,sans-Serif" font-size="10.00">TObjectOnMap::DistTo</text>
</a>
</g>
</g>
<!-- Node1&#45;&gt;Node3 -->
<g id="edge2" class="edge">
<title>Node1&#45;&gt;Node3</title>
<path fill="none" stroke="#63b8ff" d="M116.13,-71.04C128,-72.4 140.65,-73.85 152.98,-75.26"/>
<polygon fill="#63b8ff" stroke="#63b8ff" points="152.9,-78.77 163.23,-76.43 153.69,-71.82 152.9,-78.77"/>
</g>
<!-- Node4 -->
<g id="node4" class="node">
<title>Node4</title>
<g id="a_node4"><a xlink:href="../../d1/d07/classTShip.html#a4a57aac91bcd0b7ac413b30d228162cb" target="_top" xlink:title=" ">
<polygon fill="white" stroke="#666666" points="277,-56 175,-56 175,-37 277,-37 277,-56"/>
<text text-anchor="middle" x="226" y="-44" font-family="Helvetica,sans-Serif" font-size="10.00">TShip::GetHPNow</text>
</a>
</g>
</g>
<!-- Node1&#45;&gt;Node4 -->
<g id="edge3" class="edge">
<title>Node1&#45;&gt;Node4</title>
<path fill="none" stroke="#63b8ff" d="M116.13,-58.31C131.82,-56.6 148.89,-54.75 164.75,-53.03"/>
<polygon fill="#63b8ff" stroke="#63b8ff" points="165.41,-56.48 174.98,-51.92 164.66,-49.52 165.41,-56.48"/>
</g>
<!-- Node5 -->
<g id="node5" class="node">
<title>Node5</title>
<g id="a_node5"><a xlink:href="../../d4/de2/classTWeaponHolder.html#aebd61b2cf0f9cc9f03a3868335a17adf" target="_top" xlink:title=" ">
<polygon fill="white" stroke="#666666" points="300,-19 152,-19 152,0 300,0 300,-19"/>
<text text-anchor="middle" x="226" y="-7" font-family="Helvetica,sans-Serif" font-size="10.00">TWeaponHolder::MakeShot</text>
</a>
</g>
</g>
<!-- Node1&#45;&gt;Node5 -->
<g id="edge4" class="edge">
<title>Node1&#45;&gt;Node5</title>
<path fill="none" stroke="#63b8ff" d="M81.67,-54.88C100.34,-47.17 127.61,-36.37 152,-28.5 159.45,-26.1 167.4,-23.78 175.21,-21.64"/>
<polygon fill="#63b8ff" stroke="#63b8ff" points="176.22,-24.99 184.98,-19.03 174.42,-18.23 176.22,-24.99"/>
</g>
</g>
</svg>
