<?xml version="1.0" encoding="UTF-8" standalone="no"?>
<!DOCTYPE svg PUBLIC "-//W3C//DTD SVG 1.1//EN"
 "http://www.w3.org/Graphics/SVG/1.1/DTD/svg11.dtd">
<!-- Generated by graphviz version 2.43.0 (0)
 -->
<!-- Title: TWarShip::Print Pages: 1 -->
<svg width="465pt" height="64pt"
 viewBox="0.00 0.00 465.00 64.00" xmlns="http://www.w3.org/2000/svg" xmlns:xlink="http://www.w3.org/1999/xlink">
<g id="graph0" class="graph" transform="scale(1 1) rotate(0) translate(4 60)">
<title>TWarShip::Print</title>
<!-- Node1 -->
<g id="node1" class="node">
<title>Node1</title>
<g id="a_node1"><a xlink:title=" ">
<polygon fill="#999999" stroke="#666666" points="91,-37 0,-37 0,-18 91,-18 91,-37"/>
<text text-anchor="middle" x="45.5" y="-25" font-family="Helvetica,sans-Serif" font-size="10.00">TWarShip::Print</text>
</a>
</g>
</g>
<!-- Node2 -->
<g id="node2" class="node">
<title>Node2</title>
<g id="a_node2"><a xlink:href="../../db/df3/classTWarShip.html#a1deb0d2b3eee3d1a4a9976ae55300307" target="_top" xlink:title=" ">
<polygon fill="white" stroke="#666666" points="282,-56 127,-56 127,-37 282,-37 282,-56"/>
<text text-anchor="middle" x="204.5" y="-44" font-family="Helvetica,sans-Serif" font-size="10.00">TWarShip::GetCostWithGuns</text>
</a>
</g>
</g>
<!-- Node1&#45;&gt;Node2 -->
<g id="edge1" class="edge">
<title>Node1&#45;&gt;Node2</title>
<path fill="none" stroke="#63b8ff" d="M91.07,-32.89C99.17,-33.87 107.87,-34.93 116.71,-36"/>
<polygon fill="#63b8ff" stroke="#63b8ff" points="116.38,-39.48 126.73,-37.21 117.22,-32.53 116.38,-39.48"/>
</g>
<!-- Node4 -->
<g id="node4" class="node">
<title>Node4</title>
<g id="a_node4"><a xlink:href="../../d4/de2/classTWeaponHolder.html#ac1330fe768fc0ea732f579c166650dc5" target="_top" xlink:title=" ">
<polygon fill="white" stroke="#666666" points="265.5,-19 143.5,-19 143.5,0 265.5,0 265.5,-19"/>
<text text-anchor="middle" x="204.5" y="-7" font-family="Helvetica,sans-Serif" font-size="10.00">TWeaponHolder::Print</text>
</a>
</g>
</g>
<!-- Node1&#45;&gt;Node4 -->
<g id="edge3" class="edge">
<title>Node1&#45;&gt;Node4</title>
<path fill="none" stroke="#63b8ff" d="M91.07,-22.39C104.13,-20.89 118.74,-19.22 132.99,-17.58"/>
<polygon fill="#63b8ff" stroke="#63b8ff" points="133.74,-21.02 143.28,-16.4 132.95,-14.07 133.74,-21.02"/>
</g>
<!-- Node3 -->
<g id="node3" class="node">
<title>Node3</title>
<g id="a_node3"><a xlink:href="../../d4/de2/classTWeaponHolder.html#a41344ca59e32b01ba31c08ee5d609731" target="_top" xlink:title=" ">
<polygon fill="white" stroke="#666666" points="457,-56 318,-56 318,-37 457,-37 457,-56"/>
<text text-anchor="middle" x="387.5" y="-44" font-family="Helvetica,sans-Serif" font-size="10.00">TWeaponHolder::GetCost</text>
</a>
</g>
</g>
<!-- Node2&#45;&gt;Node3 -->
<g id="edge2" class="edge">
<title>Node2&#45;&gt;Node3</title>
<path fill="none" stroke="#63b8ff" d="M282.26,-46.5C290.69,-46.5 299.27,-46.5 307.72,-46.5"/>
<polygon fill="#63b8ff" stroke="#63b8ff" points="307.94,-50 317.94,-46.5 307.94,-43 307.94,-50"/>
</g>
</g>
</svg>
