<?xml version="1.0" encoding="UTF-8" standalone="no"?>
<!DOCTYPE svg PUBLIC "-//W3C//DTD SVG 1.1//EN"
 "http://www.w3.org/Graphics/SVG/1.1/DTD/svg11.dtd">
<!-- Generated by graphviz version 2.43.0 (0)
 -->
<!-- Title: TEST Pages: 1 -->
<!--zoomable 204 -->
<svg id="main" version="1.1" xmlns="http://www.w3.org/2000/svg" xmlns:xlink="http://www.w3.org/1999/xlink" xml:space="preserve" onload="init(evt)">
<style type="text/css"><![CDATA[
.edge:hover path { stroke: red; }
.edge:hover polygon { stroke: red; fill: red; }
]]></style>
<script type="text/javascript"><![CDATA[
var edges = document.getElementsByTagName('g');
if (edges && edges.length) {
  for (var i=0;i<edges.length;i++) {
    if (edges[i].id.substr(0,4)=='edge') {
      edges[i].setAttribute('class','edge');
    }
  }
}
]]></script>
        <defs>
                <circle id="rim" cx="0" cy="0" r="7"/>
                <circle id="rim2" cx="0" cy="0" r="3.5"/>
                <g id="zoomPlus">
                        <use xlink:href="#rim" fill="#404040">
                                <set attributeName="fill" to="#808080" begin="zoomplus.mouseover" end="zoomplus.mouseout"/>
                        </use>
                        <path d="M-4,0h8M0,-4v8" fill="none" stroke="white" stroke-width="1.5" pointer-events="none"/>
                </g>
                <g id="zoomMin">
                        <use xlink:href="#rim" fill="#404040">
                                <set attributeName="fill" to="#808080" begin="zoomminus.mouseover" end="zoomminus.mouseout"/>
                        </use>
                        <path d="M-4,0h8" fill="none" stroke="white" stroke-width="1.5" pointer-events="none"/>
                </g>
                <g id="dirArrow">
                        <path fill="none" stroke="white" stroke-width="1.5" d="M0,-3.0v7 M-2.5,-0.5L0,-3.0L2.5,-0.5"/>
                </g>
               <g id="resetDef">
                       <use xlink:href="#rim2" fill="#404040">
                               <set attributeName="fill" to="#808080" begin="reset.mouseover" end="reset.mouseout"/>
                       </use>
               </g>
        </defs>

<script type="text/javascript">
var viewWidth = 793;
var viewHeight = 204;
var sectionId = 'dynsection-40';
</script>
<script xlink:href="../../svgpan.js"/>
<svg id="graph" class="graph">
<g id="viewport">
<title>TEST</title>
<!-- Node1 -->
<g id="node1" class="node">
<title>Node1</title>
<g id="a_node1"><a xlink:title=" ">
<polygon fill="#999999" stroke="#666666" points="41,-75 0,-75 0,-56 41,-56 41,-75"/>
<text text-anchor="middle" x="20.5" y="-63" font-family="Helvetica,sans-Serif" font-size="10.00">TEST</text>
</a>
</g>
</g>
<!-- Node2 -->
<g id="node2" class="node">
<title>Node2</title>
<g id="a_node2"><a xlink:href="../../df/dbf/TestTLevelReader_8cpp.html#a32e07d67b7efd1d03d13a110958eece8" target="_top" xlink:title=" ">
<polygon fill="white" stroke="#666666" points="144,-132 84,-132 84,-113 144,-113 144,-132"/>
<text text-anchor="middle" x="114" y="-120" font-family="Helvetica,sans-Serif" font-size="10.00">GetShips</text>
</a>
</g>
</g>
<!-- Node1&#45;&gt;Node2 -->
<g id="edge1" class="edge">
<title>Node1&#45;&gt;Node2</title>
<path fill="none" stroke="#63b8ff" d="M37.02,-75.17C51.3,-84.07 72.7,-97.4 89.15,-107.64"/>
<polygon fill="#63b8ff" stroke="#63b8ff" points="87.37,-110.66 97.71,-112.97 91.07,-104.72 87.37,-110.66"/>
</g>
<!-- Node7 -->
<g id="node7" class="node">
<title>Node7</title>
<g id="a_node7"><a xlink:href="../../d5/d99/classTLevelReader.html#a6e0d6c10291d52c31f5c22b8673dbb98" target="_top" xlink:title=" ">
<polygon fill="white" stroke="#666666" points="389,-56 187,-56 187,-37 389,-37 389,-56"/>
<text text-anchor="middle" x="288" y="-44" font-family="Helvetica,sans-Serif" font-size="10.00">TLevelReader::ReadSpawnDescriptors</text>
</a>
</g>
</g>
<!-- Node1&#45;&gt;Node7 -->
<g id="edge8" class="edge">
<title>Node1&#45;&gt;Node7</title>
<path fill="none" stroke="#63b8ff" d="M41.02,-64.1C69.71,-62.05 125.39,-58.07 176.53,-54.41"/>
<polygon fill="#63b8ff" stroke="#63b8ff" points="176.96,-57.88 186.69,-53.68 176.46,-50.9 176.96,-57.88"/>
</g>
<!-- Node11 -->
<g id="node11" class="node">
<title>Node11</title>
<g id="a_node11"><a xlink:href="../../d8/d51/classMyList.html#a37366fbfd16acad1dfa69a141b339095" target="_top" xlink:title=" ">
<polygon fill="white" stroke="#666666" points="151,-37 77,-37 77,-18 151,-18 151,-37"/>
<text text-anchor="middle" x="114" y="-25" font-family="Helvetica,sans-Serif" font-size="10.00">MyList::size</text>
</a>
</g>
</g>
<!-- Node1&#45;&gt;Node11 -->
<g id="edge15" class="edge">
<title>Node1&#45;&gt;Node11</title>
<path fill="none" stroke="#63b8ff" d="M41.35,-57.25C52.75,-52.52 67.33,-46.47 80.37,-41.05"/>
<polygon fill="#63b8ff" stroke="#63b8ff" points="82.06,-44.14 89.95,-37.07 79.38,-37.67 82.06,-44.14"/>
</g>
<!-- Node3 -->
<g id="node3" class="node">
<title>Node3</title>
<g id="a_node3"><a xlink:href="../../d8/d51/classMyList.html#a723c00a8380b8fd0705cb286cdd179d2" target="_top" xlink:title=" ">
<polygon fill="white" stroke="#666666" points="560,-169 487,-169 487,-150 560,-150 560,-169"/>
<text text-anchor="middle" x="523.5" y="-157" font-family="Helvetica,sans-Serif" font-size="10.00">MyList::end</text>
</a>
</g>
</g>
<!-- Node2&#45;&gt;Node3 -->
<g id="edge2" class="edge">
<title>Node2&#45;&gt;Node3</title>
<path fill="none" stroke="#63b8ff" d="M123.55,-132.38C135.94,-145.85 160.34,-169.35 187,-178.5 288.09,-213.19 416.31,-188.5 481.06,-171.65"/>
<polygon fill="#63b8ff" stroke="#63b8ff" points="482.14,-174.99 490.89,-169.02 480.33,-168.22 482.14,-174.99"/>
</g>
<!-- Node4 -->
<g id="node4" class="node">
<title>Node4</title>
<g id="a_node4"><a xlink:href="../../d8/d51/classMyList.html#a80edb252c7e71107fac78c29647be513" target="_top" xlink:title=" ">
<polygon fill="white" stroke="#666666" points="334,-132 242,-132 242,-113 334,-113 334,-132"/>
<text text-anchor="middle" x="288" y="-120" font-family="Helvetica,sans-Serif" font-size="10.00">MyList::getById</text>
</a>
</g>
</g>
<!-- Node2&#45;&gt;Node4 -->
<g id="edge3" class="edge">
<title>Node2&#45;&gt;Node4</title>
<path fill="none" stroke="#63b8ff" d="M144.18,-122.5C168.1,-122.5 202.63,-122.5 231.75,-122.5"/>
<polygon fill="#63b8ff" stroke="#63b8ff" points="231.8,-126 241.8,-122.5 231.8,-119 231.8,-126"/>
</g>
<!-- Node5 -->
<g id="node5" class="node">
<title>Node5</title>
<g id="a_node5"><a xlink:href="../../df/dbf/TestTLevelReader_8cpp.html#a04829e963b7ea7cf309dfa703ceb950e" target="_top" xlink:title=" ">
<polygon fill="white" stroke="#666666" points="333,-169 243,-169 243,-150 333,-150 333,-169"/>
<text text-anchor="middle" x="288" y="-157" font-family="Helvetica,sans-Serif" font-size="10.00">GetCapitanInfo</text>
</a>
</g>
</g>
<!-- Node2&#45;&gt;Node5 -->
<g id="edge4" class="edge">
<title>Node2&#45;&gt;Node5</title>
<path fill="none" stroke="#63b8ff" d="M144.3,-130.8C157.32,-134.34 172.86,-138.37 187,-141.5 201.69,-144.76 217.7,-147.84 232.51,-150.51"/>
<polygon fill="#63b8ff" stroke="#63b8ff" points="232.09,-153.99 242.54,-152.28 233.31,-147.09 232.09,-153.99"/>
</g>
<!-- Node6 -->
<g id="node6" class="node">
<title>Node6</title>
<g id="a_node6"><a xlink:href="../../d8/d51/classMyList.html#ab5e189776aca91f01ee5fe930318c289" target="_top" xlink:title=" ">
<polygon fill="white" stroke="#666666" points="565,-112 482,-112 482,-93 565,-93 565,-112"/>
<text text-anchor="middle" x="523.5" y="-100" font-family="Helvetica,sans-Serif" font-size="10.00">MyList::insert</text>
</a>
</g>
</g>
<!-- Node2&#45;&gt;Node6 -->
<g id="edge7" class="edge">
<title>Node2&#45;&gt;Node6</title>
<path fill="none" stroke="#63b8ff" d="M144.12,-113.54C157.11,-109.98 172.68,-106.31 187,-104.5 287.25,-91.86 405.69,-95.43 471.63,-99.05"/>
<polygon fill="#63b8ff" stroke="#63b8ff" points="471.57,-102.55 481.75,-99.63 471.97,-95.56 471.57,-102.55"/>
</g>
<!-- Node5&#45;&gt;Node3 -->
<g id="edge5" class="edge">
<title>Node5&#45;&gt;Node3</title>
<path fill="none" stroke="#63b8ff" d="M333.19,-159.5C374.27,-159.5 435.2,-159.5 476.76,-159.5"/>
<polygon fill="#63b8ff" stroke="#63b8ff" points="476.89,-163 486.89,-159.5 476.89,-156 476.89,-163"/>
</g>
<!-- Node5&#45;&gt;Node6 -->
<g id="edge6" class="edge">
<title>Node5&#45;&gt;Node6</title>
<path fill="none" stroke="#63b8ff" d="M333.02,-152.61C350.53,-149.61 370.8,-145.78 389,-141.5 421.2,-133.92 457.17,-123.29 483.65,-115.03"/>
<polygon fill="#63b8ff" stroke="#63b8ff" points="484.82,-118.34 493.31,-112 482.72,-111.66 484.82,-118.34"/>
</g>
<!-- Node7&#45;&gt;Node3 -->
<g id="edge9" class="edge">
<title>Node7&#45;&gt;Node3</title>
<path fill="none" stroke="#63b8ff" d="M304.97,-56.21C330.02,-71.24 380.31,-100.58 425,-121.5 444.67,-130.71 467.22,-139.6 485.68,-146.46"/>
<polygon fill="#63b8ff" stroke="#63b8ff" points="484.6,-149.8 495.2,-149.96 487.02,-143.23 484.6,-149.8"/>
</g>
<!-- Node7&#45;&gt;Node6 -->
<g id="edge10" class="edge">
<title>Node7&#45;&gt;Node6</title>
<path fill="none" stroke="#63b8ff" d="M334.41,-56.03C351.64,-60 371.36,-64.98 389,-70.5 405.38,-75.63 408.49,-79.81 425,-84.5 439.93,-88.74 456.45,-92.23 471.57,-94.97"/>
<polygon fill="#63b8ff" stroke="#63b8ff" points="471.33,-98.48 481.78,-96.74 472.53,-91.58 471.33,-98.48"/>
</g>
<!-- Node8 -->
<g id="node8" class="node">
<title>Node8</title>
<g id="a_node8"><a xlink:href="../../d5/d99/classTLevelReader.html#a25bd379fa12d624375f165251b9c1178" target="_top" xlink:title=" ">
<polygon fill="white" stroke="#666666" points="596.5,-75 450.5,-75 450.5,-56 596.5,-56 596.5,-75"/>
<text text-anchor="middle" x="523.5" y="-63" font-family="Helvetica,sans-Serif" font-size="10.00">TLevelReader::ReadEmpty</text>
</a>
</g>
</g>
<!-- Node7&#45;&gt;Node8 -->
<g id="edge11" class="edge">
<title>Node7&#45;&gt;Node8</title>
<path fill="none" stroke="#63b8ff" d="M389.04,-54.64C406.06,-56.02 423.56,-57.45 440.05,-58.79"/>
<polygon fill="#63b8ff" stroke="#63b8ff" points="439.93,-62.29 450.18,-59.62 440.5,-55.32 439.93,-62.29"/>
</g>
<!-- Node9 -->
<g id="node9" class="node">
<title>Node9</title>
<g id="a_node9"><a xlink:href="../../d5/d99/classTLevelReader.html#a82ec22fb9386deb547a0a0862bc90301" target="_top" xlink:title=" ">
<polygon fill="white" stroke="#666666" points="785,-19 658,-19 658,0 785,0 785,-19"/>
<text text-anchor="middle" x="721.5" y="-7" font-family="Helvetica,sans-Serif" font-size="10.00">TLevelReader::ReadInt</text>
</a>
</g>
</g>
<!-- Node7&#45;&gt;Node9 -->
<g id="edge12" class="edge">
<title>Node7&#45;&gt;Node9</title>
<path fill="none" stroke="#63b8ff" d="M315.66,-36.98C342.77,-27.84 386.19,-14.68 425,-9.5 500.47,0.58 587.75,-1.03 647.78,-4.16"/>
<polygon fill="#63b8ff" stroke="#63b8ff" points="647.74,-7.66 657.92,-4.71 648.13,-0.67 647.74,-7.66"/>
</g>
<!-- Node10 -->
<g id="node10" class="node">
<title>Node10</title>
<g id="a_node10"><a xlink:href="../../d5/d99/classTLevelReader.html#a392f8ceec89e3ff9f3f87ea030c117d6" target="_top" xlink:title=" ">
<polygon fill="white" stroke="#666666" points="622,-38 425,-38 425,-19 622,-19 622,-38"/>
<text text-anchor="middle" x="523.5" y="-26" font-family="Helvetica,sans-Serif" font-size="10.00">TLevelReader::ReadSpawnDescriptor</text>
</a>
</g>
</g>
<!-- Node7&#45;&gt;Node10 -->
<g id="edge13" class="edge">
<title>Node7&#45;&gt;Node10</title>
<path fill="none" stroke="#63b8ff" d="M389.04,-38.79C397.58,-38.13 406.24,-37.46 414.84,-36.8"/>
<polygon fill="#63b8ff" stroke="#63b8ff" points="415.19,-40.28 424.89,-36.02 414.65,-33.3 415.19,-40.28"/>
</g>
<!-- Node10&#45;&gt;Node9 -->
<g id="edge14" class="edge">
<title>Node10&#45;&gt;Node9</title>
<path fill="none" stroke="#63b8ff" d="M622.21,-19.03C630.8,-18.2 639.4,-17.36 647.73,-16.55"/>
<polygon fill="#63b8ff" stroke="#63b8ff" points="648.13,-20.03 657.74,-15.58 647.45,-13.06 648.13,-20.03"/>
</g>
</g>
</svg>
        <g id="navigator" transform="translate(0 0)" fill="#404254">
                <rect fill="#f2f5e9" fill-opacity="0.5" stroke="#606060" stroke-width=".5" x="0" y="0" width="60" height="60"/>
                <use id="zoomplus" xlink:href="#zoomPlus" x="17" y="9" onmousedown="handleZoom(evt,'in')"/>
                <use id="zoomminus" xlink:href="#zoomMin" x="42" y="9" onmousedown="handleZoom(evt,'out')"/>
                <use id="reset" xlink:href="#resetDef" x="30" y="36" onmousedown="handleReset()"/>
                <g id="arrowUp" xlink:href="#dirArrow" transform="translate(30 24)" onmousedown="handlePan(0,-1)">
                  <use xlink:href="#rim" fill="#404040">
                        <set attributeName="fill" to="#808080" begin="arrowUp.mouseover" end="arrowUp.mouseout"/>
                  </use>
                  <path fill="none" stroke="white" stroke-width="1.5" d="M0,-3.0v7 M-2.5,-0.5L0,-3.0L2.5,-0.5"/>
                </g>
                <g id="arrowRight" xlink:href="#dirArrow" transform="rotate(90) translate(36 -43)" onmousedown="handlePan(1,0)">
                  <use xlink:href="#rim" fill="#404040">
                        <set attributeName="fill" to="#808080" begin="arrowRight.mouseover" end="arrowRight.mouseout"/>
                  </use>
                  <path fill="none" stroke="white" stroke-width="1.5" d="M0,-3.0v7 M-2.5,-0.5L0,-3.0L2.5,-0.5"/>
                </g>
                <g id="arrowDown" xlink:href="#dirArrow" transform="rotate(180) translate(-30 -48)" onmousedown="handlePan(0,1)">
                  <use xlink:href="#rim" fill="#404040">
                        <set attributeName="fill" to="#808080" begin="arrowDown.mouseover" end="arrowDown.mouseout"/>
                  </use>
                  <path fill="none" stroke="white" stroke-width="1.5" d="M0,-3.0v7 M-2.5,-0.5L0,-3.0L2.5,-0.5"/>
                </g>
                <g id="arrowLeft" xlink:href="#dirArrow" transform="rotate(270) translate(-36 17)" onmousedown="handlePan(-1,0)">
                  <use xlink:href="#rim" fill="#404040">
                        <set attributeName="fill" to="#808080" begin="arrowLeft.mouseover" end="arrowLeft.mouseout"/>
                  </use>
                  <path fill="none" stroke="white" stroke-width="1.5" d="M0,-3.0v7 M-2.5,-0.5L0,-3.0L2.5,-0.5"/>
                </g>
        </g>
        <svg viewBox="0 0 15 15" width="100%" height="30px" preserveAspectRatio="xMaxYMin meet">
         <g id="arrow_out" transform="scale(0.3 0.3)">
          <a xlink:href="TestTLevelReader_8cpp_a3d91a40a002dd06ad7a815653e1c1bfd_cgraph_org.svg" target="_base">
           <rect id="button" ry="5" rx="5" y="6" x="6" height="38" width="38"
                fill="#f2f5e9" fill-opacity="0.5" stroke="#606060" stroke-width="1.0"/>
           <path id="arrow"
             d="M 11.500037,31.436501 C 11.940474,20.09759 22.043105,11.32322 32.158766,21.979434 L 37.068811,17.246167 C 37.068811,17.246167 37.088388,32 37.088388,32 L 22.160133,31.978069 C 22.160133,31.978069 26.997745,27.140456 26.997745,27.140456 C 18.528582,18.264221 13.291696,25.230495 11.500037,31.436501 z"
             style="fill:#404040;"/>
          </a>
         </g>
        </svg>
</svg>
