<?xml version="1.0" encoding="UTF-8" standalone="no"?>
<!DOCTYPE svg PUBLIC "-//W3C//DTD SVG 1.1//EN"
 "http://www.w3.org/Graphics/SVG/1.1/DTD/svg11.dtd">
<!-- Generated by graphviz version 2.43.0 (0)
 -->
<!-- Title: TEST Pages: 1 -->
<svg width="887pt" height="591pt"
 viewBox="0.00 0.00 887.00 590.81" xmlns="http://www.w3.org/2000/svg" xmlns:xlink="http://www.w3.org/1999/xlink">
<g id="graph0" class="graph" transform="scale(1 1) rotate(0) translate(4 586.81)">
<title>TEST</title>
<!-- Node1 -->
<g id="node1" class="node">
<title>Node1</title>
<g id="a_node1"><a xlink:title=" ">
<polygon fill="#999999" stroke="#666666" points="41,-295.57 0,-295.57 0,-276.57 41,-276.57 41,-295.57"/>
<text text-anchor="middle" x="20.5" y="-283.57" font-family="Helvetica,sans-Serif" font-size="10.00">TEST</text>
</a>
</g>
</g>
<!-- Node2 -->
<g id="node2" class="node">
<title>Node2</title>
<g id="a_node2"><a xlink:href="../../d5/d99/classTLevelReader.html#a5e3953bd0caf6e6c60d6750ff732150a" target="_top" xlink:title=" ">
<polygon fill="white" stroke="#666666" points="229,-301.07 77,-301.07 77,-271.07 229,-271.07 229,-301.07"/>
<text text-anchor="start" x="85" y="-289.07" font-family="Helvetica,sans-Serif" font-size="10.00">TLevelReader::ReadMission</text>
<text text-anchor="middle" x="153" y="-278.07" font-family="Helvetica,sans-Serif" font-size="10.00">InfoFromStream</text>
</a>
</g>
</g>
<!-- Node1&#45;&gt;Node2 -->
<g id="edge1" class="edge">
<title>Node1&#45;&gt;Node2</title>
<path fill="none" stroke="#63b8ff" d="M41.04,-286.07C48.37,-286.07 57.26,-286.07 66.77,-286.07"/>
<polygon fill="#63b8ff" stroke="#63b8ff" points="66.87,-289.57 76.87,-286.07 66.87,-282.57 66.87,-289.57"/>
</g>
<!-- Node3 -->
<g id="node3" class="node">
<title>Node3</title>
<g id="a_node3"><a xlink:href="../../d8/d51/classMyList.html#a80edb252c7e71107fac78c29647be513" target="_top" xlink:title=" ">
<polygon fill="white" stroke="#666666" points="853.5,-560.57 761.5,-560.57 761.5,-541.57 853.5,-541.57 853.5,-560.57"/>
<text text-anchor="middle" x="807.5" y="-548.57" font-family="Helvetica,sans-Serif" font-size="10.00">MyList::getById</text>
</a>
</g>
</g>
<!-- Node2&#45;&gt;Node3 -->
<g id="edge2" class="edge">
<title>Node2&#45;&gt;Node3</title>
<path fill="none" stroke="#63b8ff" d="M163.16,-301.24C180.45,-328.95 220.17,-388.54 265,-428.07 357.39,-509.53 384.25,-537.33 503,-570.07 592.01,-594.6 701.04,-576.75 761.2,-562.97"/>
<polygon fill="#63b8ff" stroke="#63b8ff" points="762.21,-566.33 771.14,-560.63 760.61,-559.52 762.21,-566.33"/>
</g>
<!-- Node4 -->
<g id="node4" class="node">
<title>Node4</title>
<g id="a_node4"><a xlink:href="../../d5/d99/classTLevelReader.html#ac28bf996f8431c89710180136c30c180" target="_top" xlink:title=" ">
<polygon fill="white" stroke="#666666" points="435,-31.57 297,-31.57 297,-12.57 435,-12.57 435,-31.57"/>
<text text-anchor="middle" x="366" y="-19.57" font-family="Helvetica,sans-Serif" font-size="10.00">TLevelReader::ReadBase</text>
</a>
</g>
</g>
<!-- Node2&#45;&gt;Node4 -->
<g id="edge3" class="edge">
<title>Node2&#45;&gt;Node4</title>
<path fill="none" stroke="#63b8ff" d="M156.35,-270.92C163.77,-228.36 190.79,-106.89 265,-46.07 271.6,-40.66 279.22,-36.43 287.25,-33.13"/>
<polygon fill="#63b8ff" stroke="#63b8ff" points="288.61,-36.36 296.83,-29.68 286.24,-29.78 288.61,-36.36"/>
</g>
<!-- Node5 -->
<g id="node5" class="node">
<title>Node5</title>
<g id="a_node5"><a xlink:href="../../d5/d99/classTLevelReader.html#a82ec22fb9386deb547a0a0862bc90301" target="_top" xlink:title=" ">
<polygon fill="white" stroke="#666666" points="871,-296.57 744,-296.57 744,-277.57 871,-277.57 871,-296.57"/>
<text text-anchor="middle" x="807.5" y="-284.57" font-family="Helvetica,sans-Serif" font-size="10.00">TLevelReader::ReadInt</text>
</a>
</g>
</g>
<!-- Node2&#45;&gt;Node5 -->
<g id="edge13" class="edge">
<title>Node2&#45;&gt;Node5</title>
<path fill="none" stroke="#63b8ff" d="M166.99,-270.73C186.43,-248.54 225.09,-207.28 265,-181.07 361.18,-117.88 390.27,-102.21 503,-79.07 588.77,-61.46 625.3,-33.39 700,-79.07 735.4,-100.71 782.23,-220.58 799.62,-267.87"/>
<polygon fill="#63b8ff" stroke="#63b8ff" points="796.42,-269.32 803.13,-277.52 803,-266.93 796.42,-269.32"/>
</g>
<!-- Node6 -->
<g id="node6" class="node">
<title>Node6</title>
<g id="a_node6"><a xlink:href="../../d5/d99/classTLevelReader.html#a68c3199258c974d81e965a715a61e7e2" target="_top" xlink:title=" ">
<polygon fill="white" stroke="#666666" points="442,-220.07 290,-220.07 290,-190.07 442,-190.07 442,-220.07"/>
<text text-anchor="start" x="298" y="-208.07" font-family="Helvetica,sans-Serif" font-size="10.00">TLevelReader::ReadCapitan</text>
<text text-anchor="middle" x="366" y="-197.07" font-family="Helvetica,sans-Serif" font-size="10.00">Infos</text>
</a>
</g>
</g>
<!-- Node2&#45;&gt;Node6 -->
<g id="edge5" class="edge">
<title>Node2&#45;&gt;Node6</title>
<path fill="none" stroke="#63b8ff" d="M179.72,-271.02C201.76,-258.64 234.65,-241.35 265,-230.07 271.86,-227.51 279.08,-225.14 286.37,-222.95"/>
<polygon fill="#63b8ff" stroke="#63b8ff" points="287.69,-226.21 296.33,-220.08 285.76,-219.49 287.69,-226.21"/>
</g>
<!-- Node11 -->
<g id="node11" class="node">
<title>Node11</title>
<g id="a_node11"><a xlink:href="../../d5/d99/classTLevelReader.html#a25bd379fa12d624375f165251b9c1178" target="_top" xlink:title=" ">
<polygon fill="white" stroke="#666666" points="674.5,-259.57 528.5,-259.57 528.5,-240.57 674.5,-240.57 674.5,-259.57"/>
<text text-anchor="middle" x="601.5" y="-247.57" font-family="Helvetica,sans-Serif" font-size="10.00">TLevelReader::ReadEmpty</text>
</a>
</g>
</g>
<!-- Node2&#45;&gt;Node11 -->
<g id="edge12" class="edge">
<title>Node2&#45;&gt;Node11</title>
<path fill="none" stroke="#63b8ff" d="M229.05,-282.9C292.52,-279.9 385.83,-274.69 467,-267.07 485.06,-265.37 504.44,-263.14 522.68,-260.85"/>
<polygon fill="#63b8ff" stroke="#63b8ff" points="523.2,-264.32 532.68,-259.58 522.32,-257.37 523.2,-264.32"/>
</g>
<!-- Node12 -->
<g id="node12" class="node">
<title>Node12</title>
<g id="a_node12"><a xlink:href="../../d5/d99/classTLevelReader.html#ae7a5a65dfddd9c939dbdf18846054725" target="_top" xlink:title=" ">
<polygon fill="white" stroke="#666666" points="437.5,-419.07 294.5,-419.07 294.5,-389.07 437.5,-389.07 437.5,-419.07"/>
<text text-anchor="start" x="302.5" y="-407.07" font-family="Helvetica,sans-Serif" font-size="10.00">TLevelReader::ReadPirate</text>
<text text-anchor="middle" x="366" y="-396.07" font-family="Helvetica,sans-Serif" font-size="10.00">Bases</text>
</a>
</g>
</g>
<!-- Node2&#45;&gt;Node12 -->
<g id="edge14" class="edge">
<title>Node2&#45;&gt;Node12</title>
<path fill="none" stroke="#63b8ff" d="M167.47,-301.27C186.9,-322.24 224.91,-359.75 265,-380.07 271.15,-383.18 277.73,-385.91 284.45,-388.29"/>
<polygon fill="#63b8ff" stroke="#63b8ff" points="283.79,-391.75 294.39,-391.53 285.96,-385.1 283.79,-391.75"/>
</g>
<!-- Node14 -->
<g id="node14" class="node">
<title>Node14</title>
<g id="a_node14"><a xlink:href="../../d5/d99/classTLevelReader.html#a06cbe367f372ca443af250d9c581b58b" target="_top" xlink:title=" ">
<polygon fill="white" stroke="#666666" points="436,-370.57 296,-370.57 296,-351.57 436,-351.57 436,-370.57"/>
<text text-anchor="middle" x="366" y="-358.57" font-family="Helvetica,sans-Serif" font-size="10.00">TLevelReader::ReadShips</text>
</a>
</g>
</g>
<!-- Node2&#45;&gt;Node14 -->
<g id="edge22" class="edge">
<title>Node2&#45;&gt;Node14</title>
<path fill="none" stroke="#63b8ff" d="M178.2,-301.16C200.09,-314.16 233.6,-332.44 265,-343.07 271.97,-345.42 279.33,-347.49 286.75,-349.3"/>
<polygon fill="#63b8ff" stroke="#63b8ff" points="286.01,-352.72 296.54,-351.53 287.56,-345.9 286.01,-352.72"/>
</g>
<!-- Node16 -->
<g id="node16" class="node">
<title>Node16</title>
<g id="a_node16"><a xlink:href="../../d5/d99/classTLevelReader.html#a6e0d6c10291d52c31f5c22b8673dbb98" target="_top" xlink:title=" ">
<polygon fill="white" stroke="#666666" points="467,-333.57 265,-333.57 265,-314.57 467,-314.57 467,-333.57"/>
<text text-anchor="middle" x="366" y="-321.57" font-family="Helvetica,sans-Serif" font-size="10.00">TLevelReader::ReadSpawnDescriptors</text>
</a>
</g>
</g>
<!-- Node2&#45;&gt;Node16 -->
<g id="edge30" class="edge">
<title>Node2&#45;&gt;Node16</title>
<path fill="none" stroke="#63b8ff" d="M229.28,-299.62C253.1,-303.91 279.16,-308.61 302.02,-312.72"/>
<polygon fill="#63b8ff" stroke="#63b8ff" points="301.48,-316.18 311.94,-314.51 302.72,-309.29 301.48,-316.18"/>
</g>
<!-- Node18 -->
<g id="node18" class="node">
<title>Node18</title>
<g id="a_node18"><a xlink:href="../../d5/d99/classTLevelReader.html#a4467cdf7d7766981a6b8eeb23076b433" target="_top" xlink:title=" ">
<polygon fill="white" stroke="#666666" points="445,-257.57 287,-257.57 287,-238.57 445,-238.57 445,-257.57"/>
<text text-anchor="middle" x="366" y="-245.57" font-family="Helvetica,sans-Serif" font-size="10.00">TLevelReader::ReadWeapons</text>
</a>
</g>
</g>
<!-- Node2&#45;&gt;Node18 -->
<g id="edge37" class="edge">
<title>Node2&#45;&gt;Node18</title>
<path fill="none" stroke="#63b8ff" d="M229.28,-272.51C253.1,-268.22 279.16,-263.53 302.02,-259.41"/>
<polygon fill="#63b8ff" stroke="#63b8ff" points="302.72,-262.84 311.94,-257.62 301.48,-255.95 302.72,-262.84"/>
</g>
<!-- Node4&#45;&gt;Node5 -->
<g id="edge4" class="edge">
<title>Node4&#45;&gt;Node5</title>
<path fill="none" stroke="#63b8ff" d="M408.3,-12.55C476,0.54 611.84,15.99 700,-46.07 709.86,-53.01 775.76,-212.09 798.67,-267.91"/>
<polygon fill="#63b8ff" stroke="#63b8ff" points="795.51,-269.43 802.54,-277.35 801.98,-266.77 795.51,-269.43"/>
</g>
<!-- Node6&#45;&gt;Node5 -->
<g id="edge11" class="edge">
<title>Node6&#45;&gt;Node5</title>
<path fill="none" stroke="#63b8ff" d="M396.72,-189.93C457.04,-161.44 596.84,-106.98 700,-156.07 749.22,-179.49 783.13,-238.01 798,-268.28"/>
<polygon fill="#63b8ff" stroke="#63b8ff" points="794.86,-269.83 802.31,-277.37 801.19,-266.83 794.86,-269.83"/>
</g>
<!-- Node7 -->
<g id="node7" class="node">
<title>Node7</title>
<g id="a_node7"><a xlink:href="../../d8/d51/classMyList.html#a723c00a8380b8fd0705cb286cdd179d2" target="_top" xlink:title=" ">
<polygon fill="white" stroke="#666666" points="638,-370.57 565,-370.57 565,-351.57 638,-351.57 638,-370.57"/>
<text text-anchor="middle" x="601.5" y="-358.57" font-family="Helvetica,sans-Serif" font-size="10.00">MyList::end</text>
</a>
</g>
</g>
<!-- Node6&#45;&gt;Node7 -->
<g id="edge6" class="edge">
<title>Node6&#45;&gt;Node7</title>
<path fill="none" stroke="#63b8ff" d="M442.12,-214.74C451.27,-218.43 459.89,-223.39 467,-230.07 505.43,-266.14 463.46,-308.21 503,-343.07 516.99,-355.4 536.6,-360.52 554.57,-362.32"/>
<polygon fill="#63b8ff" stroke="#63b8ff" points="554.4,-365.81 564.62,-363.01 554.89,-358.83 554.4,-365.81"/>
</g>
<!-- Node8 -->
<g id="node8" class="node">
<title>Node8</title>
<g id="a_node8"><a xlink:href="../../d8/d51/classMyList.html#ab5e189776aca91f01ee5fe930318c289" target="_top" xlink:title=" ">
<polygon fill="white" stroke="#666666" points="643,-333.57 560,-333.57 560,-314.57 643,-314.57 643,-333.57"/>
<text text-anchor="middle" x="601.5" y="-321.57" font-family="Helvetica,sans-Serif" font-size="10.00">MyList::insert</text>
</a>
</g>
</g>
<!-- Node6&#45;&gt;Node8 -->
<g id="edge7" class="edge">
<title>Node6&#45;&gt;Node8</title>
<path fill="none" stroke="#63b8ff" d="M442.08,-215.95C451.08,-219.46 459.67,-224.05 467,-230.07 495.9,-253.76 473.37,-283.28 503,-306.07 516.22,-316.23 533.4,-321.28 549.65,-323.63"/>
<polygon fill="#63b8ff" stroke="#63b8ff" points="549.27,-327.11 559.6,-324.77 550.06,-320.16 549.27,-327.11"/>
</g>
<!-- Node9 -->
<g id="node9" class="node">
<title>Node9</title>
<g id="a_node9"><a xlink:href="../../d5/d99/classTLevelReader.html#aa3fd2b19c5d17f7e5b71d28780a7557c" target="_top" xlink:title=" ">
<polygon fill="white" stroke="#666666" points="686.5,-107.57 516.5,-107.57 516.5,-88.57 686.5,-88.57 686.5,-107.57"/>
<text text-anchor="middle" x="601.5" y="-95.57" font-family="Helvetica,sans-Serif" font-size="10.00">TLevelReader::ReadCapitanInfo</text>
</a>
</g>
</g>
<!-- Node6&#45;&gt;Node9 -->
<g id="edge8" class="edge">
<title>Node6&#45;&gt;Node9</title>
<path fill="none" stroke="#63b8ff" d="M387.13,-190.03C412.79,-171.54 459.08,-140.36 503,-122.07 514.49,-117.28 527.16,-113.3 539.45,-110.04"/>
<polygon fill="#63b8ff" stroke="#63b8ff" points="540.36,-113.42 549.2,-107.58 538.65,-106.63 540.36,-113.42"/>
</g>
<!-- Node6&#45;&gt;Node11 -->
<g id="edge10" class="edge">
<title>Node6&#45;&gt;Node11</title>
<path fill="none" stroke="#63b8ff" d="M442.17,-219.55C474.15,-225.72 510.92,-232.8 540.97,-238.59"/>
<polygon fill="#63b8ff" stroke="#63b8ff" points="540.4,-242.05 550.88,-240.5 541.73,-235.18 540.4,-242.05"/>
</g>
<!-- Node10 -->
<g id="node10" class="node">
<title>Node10</title>
<g id="a_node10"><a xlink:href="../../d5/d99/classTLevelReader.html#a2b97e074354c270b0502ec57d528d73b" target="_top" xlink:title=" ">
<polygon fill="white" stroke="#666666" points="879,-107.57 736,-107.57 736,-88.57 879,-88.57 879,-107.57"/>
<text text-anchor="middle" x="807.5" y="-95.57" font-family="Helvetica,sans-Serif" font-size="10.00">TLevelReader::ReadString</text>
</a>
</g>
</g>
<!-- Node9&#45;&gt;Node10 -->
<g id="edge9" class="edge">
<title>Node9&#45;&gt;Node10</title>
<path fill="none" stroke="#63b8ff" d="M686.65,-98.07C699.56,-98.07 712.85,-98.07 725.68,-98.07"/>
<polygon fill="#63b8ff" stroke="#63b8ff" points="725.86,-101.57 735.86,-98.07 725.85,-94.57 725.86,-101.57"/>
</g>
<!-- Node12&#45;&gt;Node5 -->
<g id="edge18" class="edge">
<title>Node12&#45;&gt;Node5</title>
<path fill="none" stroke="#63b8ff" d="M382.94,-419.27C406.79,-440.85 454.2,-479.38 503,-494.07 586.84,-519.3 625.26,-539.67 700,-494.07 768.73,-452.14 794.98,-350.13 803.25,-306.92"/>
<polygon fill="#63b8ff" stroke="#63b8ff" points="806.74,-307.29 805.05,-296.83 799.85,-306.06 806.74,-307.29"/>
</g>
<!-- Node12&#45;&gt;Node7 -->
<g id="edge15" class="edge">
<title>Node12&#45;&gt;Node7</title>
<path fill="none" stroke="#63b8ff" d="M437.69,-391.05C475.77,-384.04 521.62,-375.59 554.96,-369.45"/>
<polygon fill="#63b8ff" stroke="#63b8ff" points="555.67,-372.88 564.87,-367.63 554.41,-366 555.67,-372.88"/>
</g>
<!-- Node12&#45;&gt;Node8 -->
<g id="edge16" class="edge">
<title>Node12&#45;&gt;Node8</title>
<path fill="none" stroke="#63b8ff" d="M437.51,-392.48C447.77,-389.29 457.92,-385.23 467,-380.07 486.94,-368.72 482.82,-353.98 503,-343.07 517.19,-335.39 534.02,-330.79 549.67,-328.04"/>
<polygon fill="#63b8ff" stroke="#63b8ff" points="550.4,-331.47 559.75,-326.49 549.33,-324.55 550.4,-331.47"/>
</g>
<!-- Node12&#45;&gt;Node11 -->
<g id="edge17" class="edge">
<title>Node12&#45;&gt;Node11</title>
<path fill="none" stroke="#63b8ff" d="M437.73,-396.73C448.49,-393.03 458.74,-387.7 467,-380.07 505.08,-344.85 464.17,-303.45 503,-269.07 507.74,-264.86 513.14,-261.48 518.89,-258.76"/>
<polygon fill="#63b8ff" stroke="#63b8ff" points="520.22,-261.99 528.19,-255.01 517.61,-255.5 520.22,-261.99"/>
</g>
<!-- Node13 -->
<g id="node13" class="node">
<title>Node13</title>
<g id="a_node13"><a xlink:href="../../d5/d99/classTLevelReader.html#a98a8afd39b4ade7d9e3843a51109ea1d" target="_top" xlink:title=" ">
<polygon fill="white" stroke="#666666" points="685,-560.57 518,-560.57 518,-541.57 685,-541.57 685,-560.57"/>
<text text-anchor="middle" x="601.5" y="-548.57" font-family="Helvetica,sans-Serif" font-size="10.00">TLevelReader::ReadPirateBase</text>
</a>
</g>
</g>
<!-- Node12&#45;&gt;Node13 -->
<g id="edge19" class="edge">
<title>Node12&#45;&gt;Node13</title>
<path fill="none" stroke="#63b8ff" d="M379.15,-419.13C401.06,-445.25 449.86,-498.84 503,-527.07 511.89,-531.79 521.73,-535.6 531.64,-538.68"/>
<polygon fill="#63b8ff" stroke="#63b8ff" points="530.97,-542.12 541.54,-541.51 532.89,-535.39 530.97,-542.12"/>
</g>
<!-- Node13&#45;&gt;Node3 -->
<g id="edge20" class="edge">
<title>Node13&#45;&gt;Node3</title>
<path fill="none" stroke="#63b8ff" d="M685.18,-551.07C707.48,-551.07 731.06,-551.07 751.43,-551.07"/>
<polygon fill="#63b8ff" stroke="#63b8ff" points="751.47,-554.57 761.47,-551.07 751.47,-547.57 751.47,-554.57"/>
</g>
<!-- Node13&#45;&gt;Node5 -->
<g id="edge21" class="edge">
<title>Node13&#45;&gt;Node5</title>
<path fill="none" stroke="#63b8ff" d="M674.34,-541.49C683.64,-538.01 692.52,-533.33 700,-527.07 770.55,-467.97 796.06,-352.82 803.69,-306.78"/>
<polygon fill="#63b8ff" stroke="#63b8ff" points="807.19,-307.06 805.26,-296.64 800.27,-305.99 807.19,-307.06"/>
</g>
<!-- Node14&#45;&gt;Node5 -->
<g id="edge26" class="edge">
<title>Node14&#45;&gt;Node5</title>
<path fill="none" stroke="#63b8ff" d="M436.24,-370.11C446.77,-372.66 457.34,-375.91 467,-380.07 485.13,-387.87 484.22,-399.99 503,-406.07 586.31,-433 620.07,-441.8 700,-406.07 746.42,-385.32 780.98,-333.23 796.86,-305.35"/>
<polygon fill="#63b8ff" stroke="#63b8ff" points="799.92,-307.04 801.68,-296.59 793.79,-303.66 799.92,-307.04"/>
</g>
<!-- Node14&#45;&gt;Node7 -->
<g id="edge23" class="edge">
<title>Node14&#45;&gt;Node7</title>
<path fill="none" stroke="#63b8ff" d="M436.11,-361.07C474.38,-361.07 520.89,-361.07 554.66,-361.07"/>
<polygon fill="#63b8ff" stroke="#63b8ff" points="554.71,-364.57 564.71,-361.07 554.71,-357.57 554.71,-364.57"/>
</g>
<!-- Node14&#45;&gt;Node8 -->
<g id="edge24" class="edge">
<title>Node14&#45;&gt;Node8</title>
<path fill="none" stroke="#63b8ff" d="M427.13,-351.54C465.01,-345.54 513.38,-337.87 549.4,-332.16"/>
<polygon fill="#63b8ff" stroke="#63b8ff" points="550.36,-335.56 559.69,-330.53 549.26,-328.64 550.36,-335.56"/>
</g>
<!-- Node14&#45;&gt;Node11 -->
<g id="edge25" class="edge">
<title>Node14&#45;&gt;Node11</title>
<path fill="none" stroke="#63b8ff" d="M436.19,-357.38C447.25,-354.41 458,-349.88 467,-343.07 496.16,-320.99 474,-291.35 503,-269.07 507.82,-265.36 513.16,-262.32 518.78,-259.82"/>
<polygon fill="#63b8ff" stroke="#63b8ff" points="520.38,-262.96 528.48,-256.12 517.89,-256.42 520.38,-262.96"/>
</g>
<!-- Node15 -->
<g id="node15" class="node">
<title>Node15</title>
<g id="a_node15"><a xlink:href="../../d5/d99/classTLevelReader.html#a111bc6a9c4250c31a0689e62f7113254" target="_top" xlink:title=" ">
<polygon fill="white" stroke="#666666" points="669,-484.57 534,-484.57 534,-465.57 669,-465.57 669,-484.57"/>
<text text-anchor="middle" x="601.5" y="-472.57" font-family="Helvetica,sans-Serif" font-size="10.00">TLevelReader::ReadShip</text>
</a>
</g>
</g>
<!-- Node14&#45;&gt;Node15 -->
<g id="edge27" class="edge">
<title>Node14&#45;&gt;Node15</title>
<path fill="none" stroke="#63b8ff" d="M436.12,-365.63C447.19,-368.68 457.96,-373.27 467,-380.07 495.28,-401.33 475.3,-429.06 503,-451.07 509.4,-456.15 516.74,-460.18 524.44,-463.37"/>
<polygon fill="#63b8ff" stroke="#63b8ff" points="523.39,-466.72 533.99,-466.86 525.79,-460.14 523.39,-466.72"/>
</g>
<!-- Node15&#45;&gt;Node3 -->
<g id="edge28" class="edge">
<title>Node15&#45;&gt;Node3</title>
<path fill="none" stroke="#63b8ff" d="M628.34,-484.69C664.59,-498.2 730.66,-522.81 771.36,-537.97"/>
<polygon fill="#63b8ff" stroke="#63b8ff" points="770.28,-541.31 780.87,-541.52 772.72,-534.75 770.28,-541.31"/>
</g>
<!-- Node15&#45;&gt;Node5 -->
<g id="edge29" class="edge">
<title>Node15&#45;&gt;Node5</title>
<path fill="none" stroke="#63b8ff" d="M669.17,-465.81C680.1,-462.34 690.84,-457.58 700,-451.07 752.91,-413.45 786.2,-340.53 799.66,-306.03"/>
<polygon fill="#63b8ff" stroke="#63b8ff" points="802.94,-307.23 803.2,-296.64 796.39,-304.76 802.94,-307.23"/>
</g>
<!-- Node16&#45;&gt;Node5 -->
<g id="edge34" class="edge">
<title>Node16&#45;&gt;Node5</title>
<path fill="none" stroke="#63b8ff" d="M443.76,-333.59C451.86,-336.07 459.76,-339.17 467,-343.07 487.21,-353.93 481.86,-371.14 503,-380.07 583.66,-414.13 618.02,-410.82 700,-380.07 740.17,-364.99 775.14,-327.15 793.28,-304.65"/>
<polygon fill="#63b8ff" stroke="#63b8ff" points="796.18,-306.63 799.58,-296.6 790.66,-302.31 796.18,-306.63"/>
</g>
<!-- Node16&#45;&gt;Node7 -->
<g id="edge31" class="edge">
<title>Node16&#45;&gt;Node7</title>
<path fill="none" stroke="#63b8ff" d="M427.13,-333.59C466.86,-339.89 518.12,-348.01 554.57,-353.79"/>
<polygon fill="#63b8ff" stroke="#63b8ff" points="554.49,-357.32 564.91,-355.43 555.58,-350.4 554.49,-357.32"/>
</g>
<!-- Node16&#45;&gt;Node8 -->
<g id="edge32" class="edge">
<title>Node16&#45;&gt;Node8</title>
<path fill="none" stroke="#63b8ff" d="M467.04,-324.07C495.63,-324.07 525.59,-324.07 549.86,-324.07"/>
<polygon fill="#63b8ff" stroke="#63b8ff" points="549.9,-327.57 559.9,-324.07 549.9,-320.57 549.9,-327.57"/>
</g>
<!-- Node16&#45;&gt;Node11 -->
<g id="edge33" class="edge">
<title>Node16&#45;&gt;Node11</title>
<path fill="none" stroke="#63b8ff" d="M427.09,-314.53C440.66,-311.06 454.68,-306.37 467,-300.07 485.79,-290.44 484,-278.28 503,-269.07 508.04,-266.62 513.38,-264.49 518.85,-262.63"/>
<polygon fill="#63b8ff" stroke="#63b8ff" points="520.27,-265.86 528.8,-259.58 518.22,-259.16 520.27,-265.86"/>
</g>
<!-- Node17 -->
<g id="node17" class="node">
<title>Node17</title>
<g id="a_node17"><a xlink:href="../../d5/d99/classTLevelReader.html#a392f8ceec89e3ff9f3f87ea030c117d6" target="_top" xlink:title=" ">
<polygon fill="white" stroke="#666666" points="700,-296.57 503,-296.57 503,-277.57 700,-277.57 700,-296.57"/>
<text text-anchor="middle" x="601.5" y="-284.57" font-family="Helvetica,sans-Serif" font-size="10.00">TLevelReader::ReadSpawnDescriptor</text>
</a>
</g>
</g>
<!-- Node16&#45;&gt;Node17 -->
<g id="edge35" class="edge">
<title>Node16&#45;&gt;Node17</title>
<path fill="none" stroke="#63b8ff" d="M427.13,-314.54C458.6,-309.55 497.32,-303.42 530.17,-298.21"/>
<polygon fill="#63b8ff" stroke="#63b8ff" points="530.84,-301.65 540.17,-296.63 529.74,-294.73 530.84,-301.65"/>
</g>
<!-- Node17&#45;&gt;Node5 -->
<g id="edge36" class="edge">
<title>Node17&#45;&gt;Node5</title>
<path fill="none" stroke="#63b8ff" d="M700.02,-287.07C711.35,-287.07 722.76,-287.07 733.68,-287.07"/>
<polygon fill="#63b8ff" stroke="#63b8ff" points="733.98,-290.57 743.98,-287.07 733.98,-283.57 733.98,-290.57"/>
</g>
<!-- Node18&#45;&gt;Node5 -->
<g id="edge41" class="edge">
<title>Node18&#45;&gt;Node5</title>
<path fill="none" stroke="#63b8ff" d="M434.66,-238.52C456.43,-235.88 480.69,-233.37 503,-232.07 590.41,-226.94 614.92,-211.39 700,-232.07 731.53,-239.73 764.16,-258.46 784.85,-271.93"/>
<polygon fill="#63b8ff" stroke="#63b8ff" points="782.96,-274.88 793.22,-277.52 786.84,-269.05 782.96,-274.88"/>
</g>
<!-- Node18&#45;&gt;Node7 -->
<g id="edge38" class="edge">
<title>Node18&#45;&gt;Node7</title>
<path fill="none" stroke="#63b8ff" d="M387.18,-257.7C408.13,-268.16 441.36,-286.07 467,-306.07 485.09,-320.18 482.76,-332.25 503,-343.07 518.71,-351.46 537.66,-356.01 554.66,-358.45"/>
<polygon fill="#63b8ff" stroke="#63b8ff" points="554.59,-361.97 564.94,-359.72 555.44,-355.02 554.59,-361.97"/>
</g>
<!-- Node18&#45;&gt;Node8 -->
<g id="edge39" class="edge">
<title>Node18&#45;&gt;Node8</title>
<path fill="none" stroke="#63b8ff" d="M385.87,-257.7C411.69,-270.5 459.75,-293.02 503,-306.07 517.86,-310.55 534.35,-314.11 549.48,-316.83"/>
<polygon fill="#63b8ff" stroke="#63b8ff" points="549.25,-320.35 559.7,-318.59 550.44,-313.45 549.25,-320.35"/>
</g>
<!-- Node18&#45;&gt;Node11 -->
<g id="edge40" class="edge">
<title>Node18&#45;&gt;Node11</title>
<path fill="none" stroke="#63b8ff" d="M445.08,-248.73C468.63,-248.94 494.54,-249.16 518.35,-249.36"/>
<polygon fill="#63b8ff" stroke="#63b8ff" points="518.38,-252.86 528.41,-249.45 518.44,-245.86 518.38,-252.86"/>
</g>
<!-- Node19 -->
<g id="node19" class="node">
<title>Node19</title>
<g id="a_node19"><a xlink:href="../../d5/d99/classTLevelReader.html#ad7b63a611a8e08c9d9b38ee2972c82fc" target="_top" xlink:title=" ">
<polygon fill="white" stroke="#666666" points="678,-183.57 525,-183.57 525,-164.57 678,-164.57 678,-183.57"/>
<text text-anchor="middle" x="601.5" y="-171.57" font-family="Helvetica,sans-Serif" font-size="10.00">TLevelReader::ReadWeapon</text>
</a>
</g>
</g>
<!-- Node18&#45;&gt;Node19 -->
<g id="edge42" class="edge">
<title>Node18&#45;&gt;Node19</title>
<path fill="none" stroke="#63b8ff" d="M441.06,-238.56C450.03,-236.09 458.88,-232.98 467,-229.07 486.02,-219.89 484.23,-207.74 503,-198.07 512.28,-193.28 522.54,-189.42 532.84,-186.32"/>
<polygon fill="#63b8ff" stroke="#63b8ff" points="533.99,-189.63 542.68,-183.57 532.1,-182.89 533.99,-189.63"/>
</g>
<!-- Node19&#45;&gt;Node5 -->
<g id="edge43" class="edge">
<title>Node19&#45;&gt;Node5</title>
<path fill="none" stroke="#63b8ff" d="M659.74,-183.57C673.37,-187.06 687.56,-191.77 700,-198.07 736.46,-216.53 771.36,-249.6 790.76,-269.82"/>
<polygon fill="#63b8ff" stroke="#63b8ff" points="788.46,-272.48 797.86,-277.37 793.56,-267.68 788.46,-272.48"/>
</g>
</g>
</svg>
