<?xml version="1.0" encoding="UTF-8" standalone="no"?>
<!DOCTYPE svg PUBLIC "-//W3C//DTD SVG 1.1//EN"
 "http://www.w3.org/Graphics/SVG/1.1/DTD/svg11.dtd">
<!-- Generated by graphviz version 2.43.0 (0)
 -->
<!-- Title: TEST Pages: 1 -->
<svg width="570pt" height="177pt"
 viewBox="0.00 0.00 570.00 177.00" xmlns="http://www.w3.org/2000/svg" xmlns:xlink="http://www.w3.org/1999/xlink">
<g id="graph0" class="graph" transform="scale(1 1) rotate(0) translate(4 173)">
<title>TEST</title>
<!-- Node1 -->
<g id="node1" class="node">
<title>Node1</title>
<g id="a_node1"><a xlink:title=" ">
<polygon fill="#999999" stroke="#666666" points="41,-113 0,-113 0,-94 41,-94 41,-113"/>
<text text-anchor="middle" x="20.5" y="-101" font-family="Helvetica,sans-Serif" font-size="10.00">TEST</text>
</a>
</g>
</g>
<!-- Node2 -->
<g id="node2" class="node">
<title>Node2</title>
<g id="a_node2"><a xlink:href="../../df/dbf/TestTLevelReader_8cpp.html#a04829e963b7ea7cf309dfa703ceb950e" target="_top" xlink:title=" ">
<polygon fill="white" stroke="#666666" points="192,-169 102,-169 102,-150 192,-150 192,-169"/>
<text text-anchor="middle" x="147" y="-157" font-family="Helvetica,sans-Serif" font-size="10.00">GetCapitanInfo</text>
</a>
</g>
</g>
<!-- Node1&#45;&gt;Node2 -->
<g id="edge1" class="edge">
<title>Node1&#45;&gt;Node2</title>
<path fill="none" stroke="#63b8ff" d="M33.12,-113.24C43.88,-121.8 60.64,-134.04 77,-141.5 81.74,-143.66 86.78,-145.6 91.9,-147.32"/>
<polygon fill="#63b8ff" stroke="#63b8ff" points="91.19,-150.77 101.78,-150.39 93.27,-144.08 91.19,-150.77"/>
</g>
<!-- Node5 -->
<g id="node5" class="node">
<title>Node5</title>
<g id="a_node5"><a xlink:href="../../df/dbf/TestTLevelReader_8cpp.html#a75c05778cfeaafda2b661762c0a22de8" target="_top" xlink:title=" ">
<polygon fill="white" stroke="#666666" points="186,-132 108,-132 108,-113 186,-113 186,-132"/>
<text text-anchor="middle" x="147" y="-120" font-family="Helvetica,sans-Serif" font-size="10.00">GetWeapons</text>
</a>
</g>
</g>
<!-- Node1&#45;&gt;Node5 -->
<g id="edge4" class="edge">
<title>Node1&#45;&gt;Node5</title>
<path fill="none" stroke="#63b8ff" d="M41.23,-106.51C56.41,-108.83 78.05,-112.13 97.73,-115.13"/>
<polygon fill="#63b8ff" stroke="#63b8ff" points="97.38,-118.62 107.8,-116.67 98.44,-111.7 97.38,-118.62"/>
</g>
<!-- Node6 -->
<g id="node6" class="node">
<title>Node6</title>
<g id="a_node6"><a xlink:href="../../d5/d99/classTLevelReader.html#a06cbe367f372ca443af250d9c581b58b" target="_top" xlink:title=" ">
<polygon fill="white" stroke="#666666" points="217,-95 77,-95 77,-76 217,-76 217,-95"/>
<text text-anchor="middle" x="147" y="-83" font-family="Helvetica,sans-Serif" font-size="10.00">TLevelReader::ReadShips</text>
</a>
</g>
</g>
<!-- Node1&#45;&gt;Node6 -->
<g id="edge7" class="edge">
<title>Node1&#45;&gt;Node6</title>
<path fill="none" stroke="#63b8ff" d="M41.23,-100.65C49.47,-99.46 59.62,-97.99 70.32,-96.44"/>
<polygon fill="#63b8ff" stroke="#63b8ff" points="70.87,-99.9 80.27,-95 69.87,-92.97 70.87,-99.9"/>
</g>
<!-- Node11 -->
<g id="node11" class="node">
<title>Node11</title>
<g id="a_node11"><a xlink:href="../../d8/d51/classMyList.html#a37366fbfd16acad1dfa69a141b339095" target="_top" xlink:title=" ">
<polygon fill="white" stroke="#666666" points="184,-58 110,-58 110,-39 184,-39 184,-58"/>
<text text-anchor="middle" x="147" y="-46" font-family="Helvetica,sans-Serif" font-size="10.00">MyList::size</text>
</a>
</g>
</g>
<!-- Node1&#45;&gt;Node11 -->
<g id="edge15" class="edge">
<title>Node1&#45;&gt;Node11</title>
<path fill="none" stroke="#63b8ff" d="M34.08,-93.72C44.93,-85.7 61.28,-74.56 77,-67.5 84.25,-64.24 92.19,-61.43 100.02,-59.04"/>
<polygon fill="#63b8ff" stroke="#63b8ff" points="101.16,-62.35 109.81,-56.23 99.24,-55.62 101.16,-62.35"/>
</g>
<!-- Node3 -->
<g id="node3" class="node">
<title>Node3</title>
<g id="a_node3"><a xlink:href="../../d8/d51/classMyList.html#a723c00a8380b8fd0705cb286cdd179d2" target="_top" xlink:title=" ">
<polygon fill="white" stroke="#666666" points="362.5,-132 289.5,-132 289.5,-113 362.5,-113 362.5,-132"/>
<text text-anchor="middle" x="326" y="-120" font-family="Helvetica,sans-Serif" font-size="10.00">MyList::end</text>
</a>
</g>
</g>
<!-- Node2&#45;&gt;Node3 -->
<g id="edge2" class="edge">
<title>Node2&#45;&gt;Node3</title>
<path fill="none" stroke="#63b8ff" d="M192.21,-150.26C218.81,-144.7 252.61,-137.63 279.45,-132.02"/>
<polygon fill="#63b8ff" stroke="#63b8ff" points="280.29,-135.42 289.37,-129.95 278.86,-128.57 280.29,-135.42"/>
</g>
<!-- Node4 -->
<g id="node4" class="node">
<title>Node4</title>
<g id="a_node4"><a xlink:href="../../d8/d51/classMyList.html#ab5e189776aca91f01ee5fe930318c289" target="_top" xlink:title=" ">
<polygon fill="white" stroke="#666666" points="367.5,-169 284.5,-169 284.5,-150 367.5,-150 367.5,-169"/>
<text text-anchor="middle" x="326" y="-157" font-family="Helvetica,sans-Serif" font-size="10.00">MyList::insert</text>
</a>
</g>
</g>
<!-- Node2&#45;&gt;Node4 -->
<g id="edge3" class="edge">
<title>Node2&#45;&gt;Node4</title>
<path fill="none" stroke="#63b8ff" d="M192.21,-159.5C217.16,-159.5 248.43,-159.5 274.37,-159.5"/>
<polygon fill="#63b8ff" stroke="#63b8ff" points="274.38,-163 284.38,-159.5 274.38,-156 274.38,-163"/>
</g>
<!-- Node5&#45;&gt;Node3 -->
<g id="edge5" class="edge">
<title>Node5&#45;&gt;Node3</title>
<path fill="none" stroke="#63b8ff" d="M186.41,-122.5C213.66,-122.5 250.37,-122.5 279.16,-122.5"/>
<polygon fill="#63b8ff" stroke="#63b8ff" points="279.38,-126 289.38,-122.5 279.38,-119 279.38,-126"/>
</g>
<!-- Node5&#45;&gt;Node4 -->
<g id="edge6" class="edge">
<title>Node5&#45;&gt;Node4</title>
<path fill="none" stroke="#63b8ff" d="M186.41,-130.53C212.12,-135.9 246.26,-143.04 274.21,-148.88"/>
<polygon fill="#63b8ff" stroke="#63b8ff" points="273.7,-152.35 284.21,-150.97 275.13,-145.5 273.7,-152.35"/>
</g>
<!-- Node6&#45;&gt;Node3 -->
<g id="edge8" class="edge">
<title>Node6&#45;&gt;Node3</title>
<path fill="none" stroke="#63b8ff" d="M193.58,-95.03C219.9,-100.53 252.89,-107.43 279.23,-112.93"/>
<polygon fill="#63b8ff" stroke="#63b8ff" points="278.84,-116.43 289.34,-115.05 280.27,-109.57 278.84,-116.43"/>
</g>
<!-- Node6&#45;&gt;Node4 -->
<g id="edge9" class="edge">
<title>Node6&#45;&gt;Node4</title>
<path fill="none" stroke="#63b8ff" d="M195.76,-95.06C203.14,-97.55 210.48,-100.64 217,-104.5 236.75,-116.18 233.11,-130.06 253,-141.5 259.6,-145.3 266.99,-148.3 274.46,-150.67"/>
<polygon fill="#63b8ff" stroke="#63b8ff" points="273.67,-154.09 284.25,-153.45 275.58,-147.35 273.67,-154.09"/>
</g>
<!-- Node7 -->
<g id="node7" class="node">
<title>Node7</title>
<g id="a_node7"><a xlink:href="../../d5/d99/classTLevelReader.html#a25bd379fa12d624375f165251b9c1178" target="_top" xlink:title=" ">
<polygon fill="white" stroke="#666666" points="399,-95 253,-95 253,-76 399,-76 399,-95"/>
<text text-anchor="middle" x="326" y="-83" font-family="Helvetica,sans-Serif" font-size="10.00">TLevelReader::ReadEmpty</text>
</a>
</g>
</g>
<!-- Node6&#45;&gt;Node7 -->
<g id="edge10" class="edge">
<title>Node6&#45;&gt;Node7</title>
<path fill="none" stroke="#63b8ff" d="M217.19,-85.5C225.63,-85.5 234.3,-85.5 242.9,-85.5"/>
<polygon fill="#63b8ff" stroke="#63b8ff" points="242.94,-89 252.94,-85.5 242.94,-82 242.94,-89"/>
</g>
<!-- Node8 -->
<g id="node8" class="node">
<title>Node8</title>
<g id="a_node8"><a xlink:href="../../d5/d99/classTLevelReader.html#a82ec22fb9386deb547a0a0862bc90301" target="_top" xlink:title=" ">
<polygon fill="white" stroke="#666666" points="562,-56 435,-56 435,-37 562,-37 562,-56"/>
<text text-anchor="middle" x="498.5" y="-44" font-family="Helvetica,sans-Serif" font-size="10.00">TLevelReader::ReadInt</text>
</a>
</g>
</g>
<!-- Node6&#45;&gt;Node8 -->
<g id="edge11" class="edge">
<title>Node6&#45;&gt;Node8</title>
<path fill="none" stroke="#63b8ff" d="M198.34,-75.99C215.62,-72.96 235.11,-69.8 253,-67.5 310.5,-60.12 375.95,-54.65 424.66,-51.15"/>
<polygon fill="#63b8ff" stroke="#63b8ff" points="425.06,-54.63 434.79,-50.43 424.56,-47.64 425.06,-54.63"/>
</g>
<!-- Node9 -->
<g id="node9" class="node">
<title>Node9</title>
<g id="a_node9"><a xlink:href="../../d5/d99/classTLevelReader.html#a111bc6a9c4250c31a0689e62f7113254" target="_top" xlink:title=" ">
<polygon fill="white" stroke="#666666" points="393.5,-19 258.5,-19 258.5,0 393.5,0 393.5,-19"/>
<text text-anchor="middle" x="326" y="-7" font-family="Helvetica,sans-Serif" font-size="10.00">TLevelReader::ReadShip</text>
</a>
</g>
</g>
<!-- Node6&#45;&gt;Node9 -->
<g id="edge12" class="edge">
<title>Node6&#45;&gt;Node9</title>
<path fill="none" stroke="#63b8ff" d="M197.07,-75.98C203.98,-73.71 210.83,-70.92 217,-67.5 236.25,-56.83 234.12,-44.8 253,-33.5 260.31,-29.12 268.53,-25.43 276.72,-22.34"/>
<polygon fill="#63b8ff" stroke="#63b8ff" points="277.99,-25.61 286.28,-19.01 275.68,-19 277.99,-25.61"/>
</g>
<!-- Node9&#45;&gt;Node8 -->
<g id="edge14" class="edge">
<title>Node9&#45;&gt;Node8</title>
<path fill="none" stroke="#63b8ff" d="M370.91,-19.03C393.1,-23.84 420.21,-29.73 443.65,-34.81"/>
<polygon fill="#63b8ff" stroke="#63b8ff" points="442.93,-38.24 453.44,-36.94 444.41,-31.4 442.93,-38.24"/>
</g>
<!-- Node10 -->
<g id="node10" class="node">
<title>Node10</title>
<g id="a_node10"><a xlink:href="../../d8/d51/classMyList.html#a80edb252c7e71107fac78c29647be513" target="_top" xlink:title=" ">
<polygon fill="white" stroke="#666666" points="544.5,-19 452.5,-19 452.5,0 544.5,0 544.5,-19"/>
<text text-anchor="middle" x="498.5" y="-7" font-family="Helvetica,sans-Serif" font-size="10.00">MyList::getById</text>
</a>
</g>
</g>
<!-- Node9&#45;&gt;Node10 -->
<g id="edge13" class="edge">
<title>Node9&#45;&gt;Node10</title>
<path fill="none" stroke="#63b8ff" d="M393.9,-9.5C409.82,-9.5 426.63,-9.5 441.98,-9.5"/>
<polygon fill="#63b8ff" stroke="#63b8ff" points="442.34,-13 452.34,-9.5 442.34,-6 442.34,-13"/>
</g>
</g>
</svg>
