<?xml version="1.0" encoding="UTF-8" standalone="no"?>
<!DOCTYPE svg PUBLIC "-//W3C//DTD SVG 1.1//EN"
 "http://www.w3.org/Graphics/SVG/1.1/DTD/svg11.dtd">
<!-- Generated by graphviz version 2.43.0 (0)
 -->
<!-- Title: GetDescriptors Pages: 1 -->
<svg width="440pt" height="163pt"
 viewBox="0.00 0.00 440.00 163.46" xmlns="http://www.w3.org/2000/svg" xmlns:xlink="http://www.w3.org/1999/xlink">
<g id="graph0" class="graph" transform="scale(1 1) rotate(0) translate(4 159.46)">
<title>GetDescriptors</title>
<!-- Node1 -->
<g id="node1" class="node">
<title>Node1</title>
<g id="a_node1"><a xlink:title=" ">
<polygon fill="#999999" stroke="#666666" points="89,-116.31 0,-116.31 0,-97.31 89,-97.31 89,-116.31"/>
<text text-anchor="middle" x="44.5" y="-104.31" font-family="Helvetica,sans-Serif" font-size="10.00">GetDescriptors</text>
</a>
</g>
</g>
<!-- Node2 -->
<g id="node2" class="node">
<title>Node2</title>
<g id="a_node2"><a xlink:href="../../d8/d51/classMyList.html#a723c00a8380b8fd0705cb286cdd179d2" target="_top" xlink:title=" ">
<polygon fill="white" stroke="#666666" points="427,-97.31 354,-97.31 354,-78.31 427,-78.31 427,-97.31"/>
<text text-anchor="middle" x="390.5" y="-85.31" font-family="Helvetica,sans-Serif" font-size="10.00">MyList::end</text>
</a>
</g>
</g>
<!-- Node1&#45;&gt;Node2 -->
<g id="edge1" class="edge">
<title>Node1&#45;&gt;Node2</title>
<path fill="none" stroke="#63b8ff" d="M67.25,-116.43C113.6,-135.52 225.07,-173.97 313,-144.81 336.88,-136.9 359.35,-118.31 373.68,-104.5"/>
<polygon fill="#63b8ff" stroke="#63b8ff" points="376.16,-106.97 380.76,-97.42 371.21,-102.02 376.16,-106.97"/>
</g>
<!-- Node3 -->
<g id="node3" class="node">
<title>Node3</title>
<g id="a_node3"><a xlink:href="../../d8/d51/classMyList.html#a80edb252c7e71107fac78c29647be513" target="_top" xlink:title=" ">
<polygon fill="white" stroke="#666666" points="313,-135.31 221,-135.31 221,-116.31 313,-116.31 313,-135.31"/>
<text text-anchor="middle" x="267" y="-123.31" font-family="Helvetica,sans-Serif" font-size="10.00">MyList::getById</text>
</a>
</g>
</g>
<!-- Node1&#45;&gt;Node3 -->
<g id="edge2" class="edge">
<title>Node1&#45;&gt;Node3</title>
<path fill="none" stroke="#63b8ff" d="M89.06,-110.57C123.82,-113.56 172.75,-117.78 210.35,-121.02"/>
<polygon fill="#63b8ff" stroke="#63b8ff" points="210.37,-124.53 220.63,-121.9 210.97,-117.56 210.37,-124.53"/>
</g>
<!-- Node4 -->
<g id="node4" class="node">
<title>Node4</title>
<g id="a_node4"><a xlink:href="../../df/dbf/TestTLevelReader_8cpp.html#a32e07d67b7efd1d03d13a110958eece8" target="_top" xlink:title=" ">
<polygon fill="white" stroke="#666666" points="185,-97.31 125,-97.31 125,-78.31 185,-78.31 185,-97.31"/>
<text text-anchor="middle" x="155" y="-85.31" font-family="Helvetica,sans-Serif" font-size="10.00">GetShips</text>
</a>
</g>
</g>
<!-- Node1&#45;&gt;Node4 -->
<g id="edge3" class="edge">
<title>Node1&#45;&gt;Node4</title>
<path fill="none" stroke="#63b8ff" d="M89.01,-99.19C97.56,-97.7 106.48,-96.14 114.87,-94.66"/>
<polygon fill="#63b8ff" stroke="#63b8ff" points="115.55,-98.1 124.79,-92.93 114.34,-91.2 115.55,-98.1"/>
</g>
<!-- Node6 -->
<g id="node6" class="node">
<title>Node6</title>
<g id="a_node6"><a xlink:href="../../d8/d51/classMyList.html#ab5e189776aca91f01ee5fe930318c289" target="_top" xlink:title=" ">
<polygon fill="white" stroke="#666666" points="432,-21.31 349,-21.31 349,-2.31 432,-2.31 432,-21.31"/>
<text text-anchor="middle" x="390.5" y="-9.31" font-family="Helvetica,sans-Serif" font-size="10.00">MyList::insert</text>
</a>
</g>
</g>
<!-- Node1&#45;&gt;Node6 -->
<g id="edge10" class="edge">
<title>Node1&#45;&gt;Node6</title>
<path fill="none" stroke="#63b8ff" d="M57.31,-97.22C84.28,-76.01 153.33,-25.58 221,-7.81 259.6,2.32 304.9,0.52 338.8,-3.37"/>
<polygon fill="#63b8ff" stroke="#63b8ff" points="338.58,-6.87 348.94,-4.64 339.45,0.08 338.58,-6.87"/>
</g>
<!-- Node4&#45;&gt;Node2 -->
<g id="edge4" class="edge">
<title>Node4&#45;&gt;Node2</title>
<path fill="none" stroke="#63b8ff" d="M185.1,-87.81C224.88,-87.81 296.65,-87.81 343.69,-87.81"/>
<polygon fill="#63b8ff" stroke="#63b8ff" points="343.91,-91.31 353.91,-87.81 343.91,-84.31 343.91,-91.31"/>
</g>
<!-- Node4&#45;&gt;Node3 -->
<g id="edge5" class="edge">
<title>Node4&#45;&gt;Node3</title>
<path fill="none" stroke="#63b8ff" d="M183.76,-97.4C197.31,-102.08 213.81,-107.78 228.46,-112.84"/>
<polygon fill="#63b8ff" stroke="#63b8ff" points="227.66,-116.27 238.25,-116.23 229.94,-109.65 227.66,-116.27"/>
</g>
<!-- Node5 -->
<g id="node5" class="node">
<title>Node5</title>
<g id="a_node5"><a xlink:href="../../df/dbf/TestTLevelReader_8cpp.html#a04829e963b7ea7cf309dfa703ceb950e" target="_top" xlink:title=" ">
<polygon fill="white" stroke="#666666" points="312,-59.31 222,-59.31 222,-40.31 312,-40.31 312,-59.31"/>
<text text-anchor="middle" x="267" y="-47.31" font-family="Helvetica,sans-Serif" font-size="10.00">GetCapitanInfo</text>
</a>
</g>
</g>
<!-- Node4&#45;&gt;Node5 -->
<g id="edge6" class="edge">
<title>Node4&#45;&gt;Node5</title>
<path fill="none" stroke="#63b8ff" d="M183.76,-78.22C197.31,-73.54 213.81,-67.84 228.46,-62.78"/>
<polygon fill="#63b8ff" stroke="#63b8ff" points="229.94,-65.97 238.25,-59.4 227.66,-59.36 229.94,-65.97"/>
</g>
<!-- Node4&#45;&gt;Node6 -->
<g id="edge9" class="edge">
<title>Node4&#45;&gt;Node6</title>
<path fill="none" stroke="#63b8ff" d="M163.62,-78.17C174.68,-64.95 196.56,-41.61 221,-30.81 258.09,-14.42 304.05,-10.17 338.6,-9.74"/>
<polygon fill="#63b8ff" stroke="#63b8ff" points="338.94,-13.24 348.93,-9.72 338.93,-6.24 338.94,-13.24"/>
</g>
<!-- Node5&#45;&gt;Node2 -->
<g id="edge7" class="edge">
<title>Node5&#45;&gt;Node2</title>
<path fill="none" stroke="#63b8ff" d="M298.66,-59.4C313.91,-64.17 332.55,-70 348.97,-75.14"/>
<polygon fill="#63b8ff" stroke="#63b8ff" points="348.26,-78.58 358.85,-78.23 350.35,-71.9 348.26,-78.58"/>
</g>
<!-- Node5&#45;&gt;Node6 -->
<g id="edge8" class="edge">
<title>Node5&#45;&gt;Node6</title>
<path fill="none" stroke="#63b8ff" d="M298.66,-40.22C313.91,-35.45 332.55,-29.62 348.97,-24.49"/>
<polygon fill="#63b8ff" stroke="#63b8ff" points="350.35,-27.72 358.85,-21.4 348.26,-21.04 350.35,-27.72"/>
</g>
</g>
</svg>
