<?xml version="1.0" encoding="UTF-8" standalone="no"?>
<!DOCTYPE svg PUBLIC "-//W3C//DTD SVG 1.1//EN"
 "http://www.w3.org/Graphics/SVG/1.1/DTD/svg11.dtd">
<!-- Generated by graphviz version 2.43.0 (0)
 -->
<!-- Title: TEST Pages: 1 -->
<svg width="399pt" height="139pt"
 viewBox="0.00 0.00 399.00 139.00" xmlns="http://www.w3.org/2000/svg" xmlns:xlink="http://www.w3.org/1999/xlink">
<g id="graph0" class="graph" transform="scale(1 1) rotate(0) translate(4 135)">
<title>TEST</title>
<!-- Node1 -->
<g id="node1" class="node">
<title>Node1</title>
<g id="a_node1"><a xlink:title=" ">
<polygon fill="#999999" stroke="#666666" points="41,-93 0,-93 0,-74 41,-74 41,-93"/>
<text text-anchor="middle" x="20.5" y="-81" font-family="Helvetica,sans-Serif" font-size="10.00">TEST</text>
</a>
</g>
</g>
<!-- Node2 -->
<g id="node2" class="node">
<title>Node2</title>
<g id="a_node2"><a xlink:href="../../d8/d51/classMyList.html#a723c00a8380b8fd0705cb286cdd179d2" target="_top" xlink:title=" ">
<polygon fill="white" stroke="#666666" points="354.5,-131 281.5,-131 281.5,-112 354.5,-112 354.5,-131"/>
<text text-anchor="middle" x="318" y="-119" font-family="Helvetica,sans-Serif" font-size="10.00">MyList::end</text>
</a>
</g>
</g>
<!-- Node1&#45;&gt;Node2 -->
<g id="edge1" class="edge">
<title>Node1&#45;&gt;Node2</title>
<path fill="none" stroke="#63b8ff" d="M41.13,-89.2C51.68,-92.08 64.96,-95.39 77,-97.5 144.06,-109.24 222.73,-115.75 271.23,-118.94"/>
<polygon fill="#63b8ff" stroke="#63b8ff" points="271.2,-122.44 281.4,-119.58 271.64,-115.46 271.2,-122.44"/>
</g>
<!-- Node3 -->
<g id="node3" class="node">
<title>Node3</title>
<g id="a_node3"><a xlink:href="../../d8/d51/classMyList.html#ab5e189776aca91f01ee5fe930318c289" target="_top" xlink:title=" ">
<polygon fill="white" stroke="#666666" points="359.5,-93 276.5,-93 276.5,-74 359.5,-74 359.5,-93"/>
<text text-anchor="middle" x="318" y="-81" font-family="Helvetica,sans-Serif" font-size="10.00">MyList::insert</text>
</a>
</g>
</g>
<!-- Node1&#45;&gt;Node3 -->
<g id="edge2" class="edge">
<title>Node1&#45;&gt;Node3</title>
<path fill="none" stroke="#63b8ff" d="M41.35,-83.5C86.86,-83.5 199.9,-83.5 266.23,-83.5"/>
<polygon fill="#63b8ff" stroke="#63b8ff" points="266.46,-87 276.46,-83.5 266.46,-80 266.46,-87"/>
</g>
<!-- Node4 -->
<g id="node4" class="node">
<title>Node4</title>
<g id="a_node4"><a xlink:href="../../d5/d99/classTLevelReader.html#ac6e2fd6477af4205d0c85433bdb02985" target="_top" xlink:title=" ">
<polygon fill="white" stroke="#666666" points="209,-55 77,-55 77,-36 209,-36 209,-55"/>
<text text-anchor="middle" x="143" y="-43" font-family="Helvetica,sans-Serif" font-size="10.00">TLevelReader::ReadInts</text>
</a>
</g>
</g>
<!-- Node1&#45;&gt;Node4 -->
<g id="edge3" class="edge">
<title>Node1&#45;&gt;Node4</title>
<path fill="none" stroke="#63b8ff" d="M41.13,-77.31C57.52,-72.14 81.42,-64.6 101.84,-58.16"/>
<polygon fill="#63b8ff" stroke="#63b8ff" points="103.05,-61.45 111.54,-55.11 100.95,-54.78 103.05,-61.45"/>
</g>
<!-- Node4&#45;&gt;Node2 -->
<g id="edge4" class="edge">
<title>Node4&#45;&gt;Node2</title>
<path fill="none" stroke="#63b8ff" d="M158.13,-55.02C177.15,-67.47 212.36,-89.24 245,-102.5 253.35,-105.89 262.5,-108.85 271.39,-111.35"/>
<polygon fill="#63b8ff" stroke="#63b8ff" points="270.69,-114.79 281.26,-113.99 272.5,-108.03 270.69,-114.79"/>
</g>
<!-- Node4&#45;&gt;Node3 -->
<g id="edge5" class="edge">
<title>Node4&#45;&gt;Node3</title>
<path fill="none" stroke="#63b8ff" d="M187.66,-55.09C211.58,-60.35 241.37,-66.89 266.32,-72.37"/>
<polygon fill="#63b8ff" stroke="#63b8ff" points="265.81,-75.84 276.33,-74.57 267.31,-69 265.81,-75.84"/>
</g>
<!-- Node5 -->
<g id="node5" class="node">
<title>Node5</title>
<g id="a_node5"><a xlink:href="../../d5/d99/classTLevelReader.html#a25bd379fa12d624375f165251b9c1178" target="_top" xlink:title=" ">
<polygon fill="white" stroke="#666666" points="391,-56 245,-56 245,-37 391,-37 391,-56"/>
<text text-anchor="middle" x="318" y="-44" font-family="Helvetica,sans-Serif" font-size="10.00">TLevelReader::ReadEmpty</text>
</a>
</g>
</g>
<!-- Node4&#45;&gt;Node5 -->
<g id="edge6" class="edge">
<title>Node4&#45;&gt;Node5</title>
<path fill="none" stroke="#63b8ff" d="M209.4,-45.88C217.64,-45.93 226.14,-45.97 234.59,-46.02"/>
<polygon fill="#63b8ff" stroke="#63b8ff" points="234.83,-49.52 244.85,-46.08 234.87,-42.53 234.83,-49.52"/>
</g>
<!-- Node6 -->
<g id="node6" class="node">
<title>Node6</title>
<g id="a_node6"><a xlink:href="../../d5/d99/classTLevelReader.html#a82ec22fb9386deb547a0a0862bc90301" target="_top" xlink:title=" ">
<polygon fill="white" stroke="#666666" points="381.5,-19 254.5,-19 254.5,0 381.5,0 381.5,-19"/>
<text text-anchor="middle" x="318" y="-7" font-family="Helvetica,sans-Serif" font-size="10.00">TLevelReader::ReadInt</text>
</a>
</g>
</g>
<!-- Node4&#45;&gt;Node6 -->
<g id="edge7" class="edge">
<title>Node4&#45;&gt;Node6</title>
<path fill="none" stroke="#63b8ff" d="M189.91,-35.95C211.79,-31.39 238.16,-25.91 261.2,-21.11"/>
<polygon fill="#63b8ff" stroke="#63b8ff" points="262.1,-24.5 271.18,-19.03 260.68,-17.65 262.1,-24.5"/>
</g>
</g>
</svg>
