<?xml version="1.0" encoding="UTF-8" standalone="no"?>
<!DOCTYPE svg PUBLIC "-//W3C//DTD SVG 1.1//EN"
 "http://www.w3.org/Graphics/SVG/1.1/DTD/svg11.dtd">
<!-- Generated by graphviz version 2.43.0 (0)
 -->
<!-- Title: TEST Pages: 1 -->
<svg width="564pt" height="159pt"
 viewBox="0.00 0.00 564.00 158.62" xmlns="http://www.w3.org/2000/svg" xmlns:xlink="http://www.w3.org/1999/xlink">
<g id="graph0" class="graph" transform="scale(1 1) rotate(0) translate(4 154.62)">
<title>TEST</title>
<!-- Node1 -->
<g id="node1" class="node">
<title>Node1</title>
<g id="a_node1"><a xlink:title=" ">
<polygon fill="#999999" stroke="#666666" points="41,-57 0,-57 0,-38 41,-38 41,-57"/>
<text text-anchor="middle" x="20.5" y="-45" font-family="Helvetica,sans-Serif" font-size="10.00">TEST</text>
</a>
</g>
</g>
<!-- Node2 -->
<g id="node2" class="node">
<title>Node2</title>
<g id="a_node2"><a xlink:href="../../df/dbf/TestTLevelReader_8cpp.html#a32e07d67b7efd1d03d13a110958eece8" target="_top" xlink:title=" ">
<polygon fill="white" stroke="#666666" points="205.5,-95 145.5,-95 145.5,-76 205.5,-76 205.5,-95"/>
<text text-anchor="middle" x="175.5" y="-83" font-family="Helvetica,sans-Serif" font-size="10.00">GetShips</text>
</a>
</g>
</g>
<!-- Node1&#45;&gt;Node2 -->
<g id="edge1" class="edge">
<title>Node1&#45;&gt;Node2</title>
<path fill="none" stroke="#63b8ff" d="M41.19,-52.39C64.97,-58.3 105.54,-68.37 135.69,-75.86"/>
<polygon fill="#63b8ff" stroke="#63b8ff" points="134.93,-79.28 145.48,-78.29 136.62,-72.49 134.93,-79.28"/>
</g>
<!-- Node7 -->
<g id="node7" class="node">
<title>Node7</title>
<g id="a_node7"><a xlink:href="../../d5/d99/classTLevelReader.html#a392f8ceec89e3ff9f3f87ea030c117d6" target="_top" xlink:title=" ">
<polygon fill="white" stroke="#666666" points="274,-39 77,-39 77,-20 274,-20 274,-39"/>
<text text-anchor="middle" x="175.5" y="-27" font-family="Helvetica,sans-Serif" font-size="10.00">TLevelReader::ReadSpawnDescriptor</text>
</a>
</g>
</g>
<!-- Node1&#45;&gt;Node7 -->
<g id="edge8" class="edge">
<title>Node1&#45;&gt;Node7</title>
<path fill="none" stroke="#63b8ff" d="M41.19,-45.18C52.48,-43.85 67.57,-42.08 83.52,-40.2"/>
<polygon fill="#63b8ff" stroke="#63b8ff" points="84.02,-43.67 93.54,-39.02 83.2,-36.72 84.02,-43.67"/>
</g>
<!-- Node3 -->
<g id="node3" class="node">
<title>Node3</title>
<g id="a_node3"><a xlink:href="../../d8/d51/classMyList.html#a723c00a8380b8fd0705cb286cdd179d2" target="_top" xlink:title=" ">
<polygon fill="white" stroke="#666666" points="551,-113 478,-113 478,-94 551,-94 551,-113"/>
<text text-anchor="middle" x="514.5" y="-101" font-family="Helvetica,sans-Serif" font-size="10.00">MyList::end</text>
</a>
</g>
</g>
<!-- Node2&#45;&gt;Node3 -->
<g id="edge2" class="edge">
<title>Node2&#45;&gt;Node3</title>
<path fill="none" stroke="#63b8ff" d="M193.09,-95.02C217.67,-108.51 265.65,-132.57 310,-141.5 365.34,-152.64 382.05,-154.4 437,-141.5 456.07,-137.03 475.82,-127.05 490.48,-118.45"/>
<polygon fill="#63b8ff" stroke="#63b8ff" points="492.6,-121.25 499.32,-113.06 488.96,-115.28 492.6,-121.25"/>
</g>
<!-- Node4 -->
<g id="node4" class="node">
<title>Node4</title>
<g id="a_node4"><a xlink:href="../../d8/d51/classMyList.html#a80edb252c7e71107fac78c29647be513" target="_top" xlink:title=" ">
<polygon fill="white" stroke="#666666" points="419.5,-132 327.5,-132 327.5,-113 419.5,-113 419.5,-132"/>
<text text-anchor="middle" x="373.5" y="-120" font-family="Helvetica,sans-Serif" font-size="10.00">MyList::getById</text>
</a>
</g>
</g>
<!-- Node2&#45;&gt;Node4 -->
<g id="edge3" class="edge">
<title>Node2&#45;&gt;Node4</title>
<path fill="none" stroke="#63b8ff" d="M205.84,-91.04C235.23,-96.59 281.15,-105.26 317.36,-112.09"/>
<polygon fill="#63b8ff" stroke="#63b8ff" points="316.82,-115.55 327.29,-113.97 318.12,-108.67 316.82,-115.55"/>
</g>
<!-- Node5 -->
<g id="node5" class="node">
<title>Node5</title>
<g id="a_node5"><a xlink:href="../../df/dbf/TestTLevelReader_8cpp.html#a04829e963b7ea7cf309dfa703ceb950e" target="_top" xlink:title=" ">
<polygon fill="white" stroke="#666666" points="418.5,-95 328.5,-95 328.5,-76 418.5,-76 418.5,-95"/>
<text text-anchor="middle" x="373.5" y="-83" font-family="Helvetica,sans-Serif" font-size="10.00">GetCapitanInfo</text>
</a>
</g>
</g>
<!-- Node2&#45;&gt;Node5 -->
<g id="edge4" class="edge">
<title>Node2&#45;&gt;Node5</title>
<path fill="none" stroke="#63b8ff" d="M205.84,-85.5C235.39,-85.5 281.67,-85.5 317.97,-85.5"/>
<polygon fill="#63b8ff" stroke="#63b8ff" points="318.41,-89 328.41,-85.5 318.41,-82 318.41,-89"/>
</g>
<!-- Node6 -->
<g id="node6" class="node">
<title>Node6</title>
<g id="a_node6"><a xlink:href="../../d8/d51/classMyList.html#ab5e189776aca91f01ee5fe930318c289" target="_top" xlink:title=" ">
<polygon fill="white" stroke="#666666" points="556,-76 473,-76 473,-57 556,-57 556,-76"/>
<text text-anchor="middle" x="514.5" y="-64" font-family="Helvetica,sans-Serif" font-size="10.00">MyList::insert</text>
</a>
</g>
</g>
<!-- Node2&#45;&gt;Node6 -->
<g id="edge7" class="edge">
<title>Node2&#45;&gt;Node6</title>
<path fill="none" stroke="#63b8ff" d="M205.56,-80.48C232.53,-76.08 273.84,-70.02 310,-67.5 361.99,-63.88 421.62,-64.1 462.84,-64.94"/>
<polygon fill="#63b8ff" stroke="#63b8ff" points="462.83,-68.44 472.9,-65.16 462.98,-61.44 462.83,-68.44"/>
</g>
<!-- Node5&#45;&gt;Node3 -->
<g id="edge5" class="edge">
<title>Node5&#45;&gt;Node3</title>
<path fill="none" stroke="#63b8ff" d="M418.86,-91.24C434.5,-93.27 452.11,-95.55 467.86,-97.59"/>
<polygon fill="#63b8ff" stroke="#63b8ff" points="467.53,-101.08 477.9,-98.89 468.43,-94.13 467.53,-101.08"/>
</g>
<!-- Node5&#45;&gt;Node6 -->
<g id="edge6" class="edge">
<title>Node5&#45;&gt;Node6</title>
<path fill="none" stroke="#63b8ff" d="M418.86,-79.44C432.8,-77.53 448.3,-75.41 462.65,-73.45"/>
<polygon fill="#63b8ff" stroke="#63b8ff" points="463.42,-76.88 472.86,-72.06 462.47,-69.94 463.42,-76.88"/>
</g>
<!-- Node8 -->
<g id="node8" class="node">
<title>Node8</title>
<g id="a_node8"><a xlink:href="../../d5/d99/classTLevelReader.html#a82ec22fb9386deb547a0a0862bc90301" target="_top" xlink:title=" ">
<polygon fill="white" stroke="#666666" points="437,-19 310,-19 310,0 437,0 437,-19"/>
<text text-anchor="middle" x="373.5" y="-7" font-family="Helvetica,sans-Serif" font-size="10.00">TLevelReader::ReadInt</text>
</a>
</g>
</g>
<!-- Node7&#45;&gt;Node8 -->
<g id="edge9" class="edge">
<title>Node7&#45;&gt;Node8</title>
<path fill="none" stroke="#63b8ff" d="M269.62,-20C279.74,-18.97 289.92,-17.93 299.75,-16.92"/>
<polygon fill="#63b8ff" stroke="#63b8ff" points="300.24,-20.39 309.83,-15.89 299.53,-13.43 300.24,-20.39"/>
</g>
</g>
</svg>
