<?xml version="1.0" encoding="UTF-8" standalone="no"?>
<!DOCTYPE svg PUBLIC "-//W3C//DTD SVG 1.1//EN"
 "http://www.w3.org/Graphics/SVG/1.1/DTD/svg11.dtd">
<!-- Generated by graphviz version 2.43.0 (0)
 -->
<!-- Title: TEST Pages: 1 -->
<svg width="399pt" height="138pt"
 viewBox="0.00 0.00 399.00 138.00" xmlns="http://www.w3.org/2000/svg" xmlns:xlink="http://www.w3.org/1999/xlink">
<g id="graph0" class="graph" transform="scale(1 1) rotate(0) translate(4 134)">
<title>TEST</title>
<!-- Node1 -->
<g id="node1" class="node">
<title>Node1</title>
<g id="a_node1"><a xlink:title=" ">
<polygon fill="#999999" stroke="#666666" points="41,-74 0,-74 0,-55 41,-55 41,-74"/>
<text text-anchor="middle" x="20.5" y="-62" font-family="Helvetica,sans-Serif" font-size="10.00">TEST</text>
</a>
</g>
</g>
<!-- Node2 -->
<g id="node2" class="node">
<title>Node2</title>
<g id="a_node2"><a xlink:href="../../d5/d99/classTLevelReader.html#ac6e2fd6477af4205d0c85433bdb02985" target="_top" xlink:title=" ">
<polygon fill="white" stroke="#666666" points="209,-74 77,-74 77,-55 209,-55 209,-74"/>
<text text-anchor="middle" x="143" y="-62" font-family="Helvetica,sans-Serif" font-size="10.00">TLevelReader::ReadInts</text>
</a>
</g>
</g>
<!-- Node1&#45;&gt;Node2 -->
<g id="edge1" class="edge">
<title>Node1&#45;&gt;Node2</title>
<path fill="none" stroke="#63b8ff" d="M41.13,-64.5C48.43,-64.5 57.21,-64.5 66.52,-64.5"/>
<polygon fill="#63b8ff" stroke="#63b8ff" points="66.77,-68 76.77,-64.5 66.77,-61 66.77,-68"/>
</g>
<!-- Node3 -->
<g id="node3" class="node">
<title>Node3</title>
<g id="a_node3"><a xlink:href="../../d8/d51/classMyList.html#a723c00a8380b8fd0705cb286cdd179d2" target="_top" xlink:title=" ">
<polygon fill="white" stroke="#666666" points="354.5,-130 281.5,-130 281.5,-111 354.5,-111 354.5,-130"/>
<text text-anchor="middle" x="318" y="-118" font-family="Helvetica,sans-Serif" font-size="10.00">MyList::end</text>
</a>
</g>
</g>
<!-- Node2&#45;&gt;Node3 -->
<g id="edge2" class="edge">
<title>Node2&#45;&gt;Node3</title>
<path fill="none" stroke="#63b8ff" d="M167,-74.02C187.31,-82.21 217.82,-94.02 245,-102.5 253.49,-105.15 262.64,-107.68 271.47,-109.96"/>
<polygon fill="#63b8ff" stroke="#63b8ff" points="270.7,-113.37 281.25,-112.42 272.41,-106.59 270.7,-113.37"/>
</g>
<!-- Node4 -->
<g id="node4" class="node">
<title>Node4</title>
<g id="a_node4"><a xlink:href="../../d8/d51/classMyList.html#ab5e189776aca91f01ee5fe930318c289" target="_top" xlink:title=" ">
<polygon fill="white" stroke="#666666" points="359.5,-93 276.5,-93 276.5,-74 359.5,-74 359.5,-93"/>
<text text-anchor="middle" x="318" y="-81" font-family="Helvetica,sans-Serif" font-size="10.00">MyList::insert</text>
</a>
</g>
</g>
<!-- Node2&#45;&gt;Node4 -->
<g id="edge3" class="edge">
<title>Node2&#45;&gt;Node4</title>
<path fill="none" stroke="#63b8ff" d="M209.4,-71.68C228.2,-73.75 248.41,-75.97 266.19,-77.92"/>
<polygon fill="#63b8ff" stroke="#63b8ff" points="266.02,-81.42 276.34,-79.03 266.78,-74.46 266.02,-81.42"/>
</g>
<!-- Node5 -->
<g id="node5" class="node">
<title>Node5</title>
<g id="a_node5"><a xlink:href="../../d5/d99/classTLevelReader.html#a25bd379fa12d624375f165251b9c1178" target="_top" xlink:title=" ">
<polygon fill="white" stroke="#666666" points="391,-56 245,-56 245,-37 391,-37 391,-56"/>
<text text-anchor="middle" x="318" y="-44" font-family="Helvetica,sans-Serif" font-size="10.00">TLevelReader::ReadEmpty</text>
</a>
</g>
</g>
<!-- Node2&#45;&gt;Node5 -->
<g id="edge4" class="edge">
<title>Node2&#45;&gt;Node5</title>
<path fill="none" stroke="#63b8ff" d="M209.4,-57.69C217.73,-56.83 226.32,-55.93 234.87,-55.05"/>
<polygon fill="#63b8ff" stroke="#63b8ff" points="235.26,-58.52 244.85,-54.01 234.54,-51.56 235.26,-58.52"/>
</g>
<!-- Node6 -->
<g id="node6" class="node">
<title>Node6</title>
<g id="a_node6"><a xlink:href="../../d5/d99/classTLevelReader.html#a82ec22fb9386deb547a0a0862bc90301" target="_top" xlink:title=" ">
<polygon fill="white" stroke="#666666" points="381.5,-19 254.5,-19 254.5,0 381.5,0 381.5,-19"/>
<text text-anchor="middle" x="318" y="-7" font-family="Helvetica,sans-Serif" font-size="10.00">TLevelReader::ReadInt</text>
</a>
</g>
</g>
<!-- Node2&#45;&gt;Node6 -->
<g id="edge5" class="edge">
<title>Node2&#45;&gt;Node6</title>
<path fill="none" stroke="#63b8ff" d="M169.12,-54.88C189.44,-47.26 218.86,-36.59 245,-28.5 252.55,-26.16 260.61,-23.86 268.5,-21.7"/>
<polygon fill="#63b8ff" stroke="#63b8ff" points="269.59,-25.03 278.34,-19.06 267.78,-18.27 269.59,-25.03"/>
</g>
</g>
</svg>
