<?xml version="1.0" encoding="UTF-8" standalone="no"?>
<!DOCTYPE svg PUBLIC "-//W3C//DTD SVG 1.1//EN"
 "http://www.w3.org/Graphics/SVG/1.1/DTD/svg11.dtd">
<!-- Generated by graphviz version 2.43.0 (0)
 -->
<!-- Title: TEST Pages: 1 -->
<svg width="622pt" height="175pt"
 viewBox="0.00 0.00 622.00 175.00" xmlns="http://www.w3.org/2000/svg" xmlns:xlink="http://www.w3.org/1999/xlink">
<g id="graph0" class="graph" transform="scale(1 1) rotate(0) translate(4 171)">
<title>TEST</title>
<!-- Node1 -->
<g id="node1" class="node">
<title>Node1</title>
<g id="a_node1"><a xlink:title=" ">
<polygon fill="#999999" stroke="#666666" points="41,-93 0,-93 0,-74 41,-74 41,-93"/>
<text text-anchor="middle" x="20.5" y="-81" font-family="Helvetica,sans-Serif" font-size="10.00">TEST</text>
</a>
</g>
</g>
<!-- Node2 -->
<g id="node2" class="node">
<title>Node2</title>
<g id="a_node2"><a xlink:href="../../d8/d51/classMyList.html#a80edb252c7e71107fac78c29647be513" target="_top" xlink:title=" ">
<polygon fill="white" stroke="#666666" points="199,-136 107,-136 107,-117 199,-117 199,-136"/>
<text text-anchor="middle" x="153" y="-124" font-family="Helvetica,sans-Serif" font-size="10.00">MyList::getById</text>
</a>
</g>
</g>
<!-- Node1&#45;&gt;Node2 -->
<g id="edge1" class="edge">
<title>Node1&#45;&gt;Node2</title>
<path fill="none" stroke="#63b8ff" d="M41.23,-92.95C51.7,-97.73 64.88,-103.37 77,-107.5 84.16,-109.94 91.8,-112.22 99.36,-114.3"/>
<polygon fill="#63b8ff" stroke="#63b8ff" points="98.65,-117.74 109.21,-116.92 100.45,-110.97 98.65,-117.74"/>
</g>
<!-- Node3 -->
<g id="node3" class="node">
<title>Node3</title>
<g id="a_node3"><a xlink:href="../../d5/d99/classTLevelReader.html#a68c3199258c974d81e965a715a61e7e2" target="_top" xlink:title=" ">
<polygon fill="white" stroke="#666666" points="229,-98.5 77,-98.5 77,-68.5 229,-68.5 229,-98.5"/>
<text text-anchor="start" x="85" y="-86.5" font-family="Helvetica,sans-Serif" font-size="10.00">TLevelReader::ReadCapitan</text>
<text text-anchor="middle" x="153" y="-75.5" font-family="Helvetica,sans-Serif" font-size="10.00">Infos</text>
</a>
</g>
</g>
<!-- Node1&#45;&gt;Node3 -->
<g id="edge2" class="edge">
<title>Node1&#45;&gt;Node3</title>
<path fill="none" stroke="#63b8ff" d="M41.04,-83.5C48.37,-83.5 57.26,-83.5 66.77,-83.5"/>
<polygon fill="#63b8ff" stroke="#63b8ff" points="66.87,-87 76.87,-83.5 66.87,-80 66.87,-87"/>
</g>
<!-- Node10 -->
<g id="node10" class="node">
<title>Node10</title>
<g id="a_node10"><a xlink:href="../../d8/d51/classMyList.html#a37366fbfd16acad1dfa69a141b339095" target="_top" xlink:title=" ">
<polygon fill="white" stroke="#666666" points="190,-50 116,-50 116,-31 190,-31 190,-50"/>
<text text-anchor="middle" x="153" y="-38" font-family="Helvetica,sans-Serif" font-size="10.00">MyList::size</text>
</a>
</g>
</g>
<!-- Node1&#45;&gt;Node10 -->
<g id="edge9" class="edge">
<title>Node1&#45;&gt;Node10</title>
<path fill="none" stroke="#63b8ff" d="M41.23,-74.05C51.7,-69.27 64.88,-63.63 77,-59.5 86.25,-56.35 96.3,-53.46 105.94,-50.93"/>
<polygon fill="#63b8ff" stroke="#63b8ff" points="106.96,-54.28 115.8,-48.43 105.24,-47.5 106.96,-54.28"/>
</g>
<!-- Node4 -->
<g id="node4" class="node">
<title>Node4</title>
<g id="a_node4"><a xlink:href="../../d8/d51/classMyList.html#a723c00a8380b8fd0705cb286cdd179d2" target="_top" xlink:title=" ">
<polygon fill="white" stroke="#666666" points="386.5,-167 313.5,-167 313.5,-148 386.5,-148 386.5,-167"/>
<text text-anchor="middle" x="350" y="-155" font-family="Helvetica,sans-Serif" font-size="10.00">MyList::end</text>
</a>
</g>
</g>
<!-- Node3&#45;&gt;Node4 -->
<g id="edge3" class="edge">
<title>Node3&#45;&gt;Node4</title>
<path fill="none" stroke="#63b8ff" d="M207.96,-98.64C215.23,-101.49 222.44,-104.77 229,-108.5 247.36,-118.92 246.09,-130.11 265,-139.5 276.8,-145.36 290.47,-149.32 303.3,-152"/>
<polygon fill="#63b8ff" stroke="#63b8ff" points="302.89,-155.48 313.37,-153.87 304.18,-148.6 302.89,-155.48"/>
</g>
<!-- Node5 -->
<g id="node5" class="node">
<title>Node5</title>
<g id="a_node5"><a xlink:href="../../d8/d51/classMyList.html#ab5e189776aca91f01ee5fe930318c289" target="_top" xlink:title=" ">
<polygon fill="white" stroke="#666666" points="391.5,-130 308.5,-130 308.5,-111 391.5,-111 391.5,-130"/>
<text text-anchor="middle" x="350" y="-118" font-family="Helvetica,sans-Serif" font-size="10.00">MyList::insert</text>
</a>
</g>
</g>
<!-- Node3&#45;&gt;Node5 -->
<g id="edge4" class="edge">
<title>Node3&#45;&gt;Node5</title>
<path fill="none" stroke="#63b8ff" d="M229.11,-97.75C252.26,-102.14 277.18,-106.87 298.27,-110.87"/>
<polygon fill="#63b8ff" stroke="#63b8ff" points="297.82,-114.35 308.29,-112.78 299.12,-107.47 297.82,-114.35"/>
</g>
<!-- Node6 -->
<g id="node6" class="node">
<title>Node6</title>
<g id="a_node6"><a xlink:href="../../d5/d99/classTLevelReader.html#aa3fd2b19c5d17f7e5b71d28780a7557c" target="_top" xlink:title=" ">
<polygon fill="white" stroke="#666666" points="435,-93 265,-93 265,-74 435,-74 435,-93"/>
<text text-anchor="middle" x="350" y="-81" font-family="Helvetica,sans-Serif" font-size="10.00">TLevelReader::ReadCapitanInfo</text>
</a>
</g>
</g>
<!-- Node3&#45;&gt;Node6 -->
<g id="edge5" class="edge">
<title>Node3&#45;&gt;Node6</title>
<path fill="none" stroke="#63b8ff" d="M229.11,-83.5C237.52,-83.5 246.16,-83.5 254.76,-83.5"/>
<polygon fill="#63b8ff" stroke="#63b8ff" points="254.84,-87 264.84,-83.5 254.84,-80 254.84,-87"/>
</g>
<!-- Node8 -->
<g id="node8" class="node">
<title>Node8</title>
<g id="a_node8"><a xlink:href="../../d5/d99/classTLevelReader.html#a25bd379fa12d624375f165251b9c1178" target="_top" xlink:title=" ">
<polygon fill="white" stroke="#666666" points="423,-56 277,-56 277,-37 423,-37 423,-56"/>
<text text-anchor="middle" x="350" y="-44" font-family="Helvetica,sans-Serif" font-size="10.00">TLevelReader::ReadEmpty</text>
</a>
</g>
</g>
<!-- Node3&#45;&gt;Node8 -->
<g id="edge7" class="edge">
<title>Node3&#45;&gt;Node8</title>
<path fill="none" stroke="#63b8ff" d="M229.11,-69.25C248.85,-65.5 269.88,-61.51 288.72,-57.94"/>
<polygon fill="#63b8ff" stroke="#63b8ff" points="289.48,-61.36 298.65,-56.05 288.17,-54.48 289.48,-61.36"/>
</g>
<!-- Node9 -->
<g id="node9" class="node">
<title>Node9</title>
<g id="a_node9"><a xlink:href="../../d5/d99/classTLevelReader.html#a82ec22fb9386deb547a0a0862bc90301" target="_top" xlink:title=" ">
<polygon fill="white" stroke="#666666" points="413.5,-19 286.5,-19 286.5,0 413.5,0 413.5,-19"/>
<text text-anchor="middle" x="350" y="-7" font-family="Helvetica,sans-Serif" font-size="10.00">TLevelReader::ReadInt</text>
</a>
</g>
</g>
<!-- Node3&#45;&gt;Node9 -->
<g id="edge8" class="edge">
<title>Node3&#45;&gt;Node9</title>
<path fill="none" stroke="#63b8ff" d="M209.95,-68.37C216.54,-65.79 223.04,-62.84 229,-59.5 247.42,-49.19 246.14,-38 265,-28.5 269.84,-26.06 274.99,-23.93 280.28,-22.07"/>
<polygon fill="#63b8ff" stroke="#63b8ff" points="281.41,-25.38 289.88,-19.01 279.29,-18.72 281.41,-25.38"/>
</g>
<!-- Node7 -->
<g id="node7" class="node">
<title>Node7</title>
<g id="a_node7"><a xlink:href="../../d5/d99/classTLevelReader.html#a2b97e074354c270b0502ec57d528d73b" target="_top" xlink:title=" ">
<polygon fill="white" stroke="#666666" points="614,-93 471,-93 471,-74 614,-74 614,-93"/>
<text text-anchor="middle" x="542.5" y="-81" font-family="Helvetica,sans-Serif" font-size="10.00">TLevelReader::ReadString</text>
</a>
</g>
</g>
<!-- Node6&#45;&gt;Node7 -->
<g id="edge6" class="edge">
<title>Node6&#45;&gt;Node7</title>
<path fill="none" stroke="#63b8ff" d="M435.11,-83.5C443.61,-83.5 452.24,-83.5 460.7,-83.5"/>
<polygon fill="#63b8ff" stroke="#63b8ff" points="460.94,-87 470.94,-83.5 460.94,-80 460.94,-87"/>
</g>
</g>
</svg>
