<?xml version="1.0" encoding="UTF-8" standalone="no"?>
<!DOCTYPE svg PUBLIC "-//W3C//DTD SVG 1.1//EN"
 "http://www.w3.org/Graphics/SVG/1.1/DTD/svg11.dtd">
<!-- Generated by graphviz version 2.43.0 (0)
 -->
<!-- Title: TEST Pages: 1 -->
<svg width="713pt" height="410pt"
 viewBox="0.00 0.00 713.00 409.55" xmlns="http://www.w3.org/2000/svg" xmlns:xlink="http://www.w3.org/1999/xlink">
<g id="graph0" class="graph" transform="scale(1 1) rotate(0) translate(4 405.55)">
<title>TEST</title>
<!-- Node1 -->
<g id="node1" class="node">
<title>Node1</title>
<g id="a_node1"><a xlink:title=" ">
<polygon fill="#999999" stroke="#666666" points="41,-110.79 0,-110.79 0,-91.79 41,-91.79 41,-110.79"/>
<text text-anchor="middle" x="20.5" y="-98.79" font-family="Helvetica,sans-Serif" font-size="10.00">TEST</text>
</a>
</g>
</g>
<!-- Node2 -->
<g id="node2" class="node">
<title>Node2</title>
<g id="a_node2"><a xlink:href="../../df/dbf/TestTLevelReader_8cpp.html#ac86806b1ea40e9e267dcb76e291d2c89" target="_top" xlink:title=" ">
<polygon fill="white" stroke="#666666" points="193,-205.79 104,-205.79 104,-186.79 193,-186.79 193,-205.79"/>
<text text-anchor="middle" x="148.5" y="-193.79" font-family="Helvetica,sans-Serif" font-size="10.00">GetDescriptors</text>
</a>
</g>
</g>
<!-- Node1&#45;&gt;Node2 -->
<g id="edge1" class="edge">
<title>Node1&#45;&gt;Node2</title>
<path fill="none" stroke="#63b8ff" d="M34.51,-111.1C56.32,-127.54 100.42,-160.79 126.61,-180.54"/>
<polygon fill="#63b8ff" stroke="#63b8ff" points="124.66,-183.45 134.75,-186.68 128.87,-177.86 124.66,-183.45"/>
</g>
<!-- Node8 -->
<g id="node8" class="node">
<title>Node8</title>
<g id="a_node8"><a xlink:href="../../d5/d99/classTLevelReader.html#ae7a5a65dfddd9c939dbdf18846054725" target="_top" xlink:title=" ">
<polygon fill="white" stroke="#666666" points="220,-116.29 77,-116.29 77,-86.29 220,-86.29 220,-116.29"/>
<text text-anchor="start" x="85" y="-104.29" font-family="Helvetica,sans-Serif" font-size="10.00">TLevelReader::ReadPirate</text>
<text text-anchor="middle" x="148.5" y="-93.29" font-family="Helvetica,sans-Serif" font-size="10.00">Bases</text>
</a>
</g>
</g>
<!-- Node1&#45;&gt;Node8 -->
<g id="edge12" class="edge">
<title>Node1&#45;&gt;Node8</title>
<path fill="none" stroke="#63b8ff" d="M41.19,-101.29C48.53,-101.29 57.4,-101.29 66.85,-101.29"/>
<polygon fill="#63b8ff" stroke="#63b8ff" points="66.86,-104.79 76.86,-101.29 66.86,-97.79 66.86,-104.79"/>
</g>
<!-- Node12 -->
<g id="node12" class="node">
<title>Node12</title>
<g id="a_node12"><a xlink:href="../../d8/d51/classMyList.html#a37366fbfd16acad1dfa69a141b339095" target="_top" xlink:title=" ">
<polygon fill="white" stroke="#666666" points="185.5,-67.79 111.5,-67.79 111.5,-48.79 185.5,-48.79 185.5,-67.79"/>
<text text-anchor="middle" x="148.5" y="-55.79" font-family="Helvetica,sans-Serif" font-size="10.00">MyList::size</text>
</a>
</g>
</g>
<!-- Node1&#45;&gt;Node12 -->
<g id="edge20" class="edge">
<title>Node1&#45;&gt;Node12</title>
<path fill="none" stroke="#63b8ff" d="M41,-92.03C51.52,-87.25 64.81,-81.54 77,-77.29 84.83,-74.56 93.26,-71.98 101.47,-69.66"/>
<polygon fill="#63b8ff" stroke="#63b8ff" points="102.61,-72.98 111.33,-66.96 100.76,-66.23 102.61,-72.98"/>
</g>
<!-- Node3 -->
<g id="node3" class="node">
<title>Node3</title>
<g id="a_node3"><a xlink:href="../../d8/d51/classMyList.html#a723c00a8380b8fd0705cb286cdd179d2" target="_top" xlink:title=" ">
<polygon fill="white" stroke="#666666" points="700,-338.79 627,-338.79 627,-319.79 700,-319.79 700,-338.79"/>
<text text-anchor="middle" x="663.5" y="-326.79" font-family="Helvetica,sans-Serif" font-size="10.00">MyList::end</text>
</a>
</g>
</g>
<!-- Node2&#45;&gt;Node3 -->
<g id="edge2" class="edge">
<title>Node2&#45;&gt;Node3</title>
<path fill="none" stroke="#63b8ff" d="M152.09,-205.81C160.77,-235.62 192,-327.31 256,-362.29 384.7,-432.63 442.36,-391.95 586,-362.29 603.61,-358.65 622.16,-350.77 636.58,-343.62"/>
<polygon fill="#63b8ff" stroke="#63b8ff" points="638.55,-346.53 645.84,-338.84 635.35,-340.31 638.55,-346.53"/>
</g>
<!-- Node4 -->
<g id="node4" class="node">
<title>Node4</title>
<g id="a_node4"><a xlink:href="../../d8/d51/classMyList.html#a80edb252c7e71107fac78c29647be513" target="_top" xlink:title=" ">
<polygon fill="white" stroke="#666666" points="568.5,-167.79 476.5,-167.79 476.5,-148.79 568.5,-148.79 568.5,-167.79"/>
<text text-anchor="middle" x="522.5" y="-155.79" font-family="Helvetica,sans-Serif" font-size="10.00">MyList::getById</text>
</a>
</g>
</g>
<!-- Node2&#45;&gt;Node4 -->
<g id="edge3" class="edge">
<title>Node2&#45;&gt;Node4</title>
<path fill="none" stroke="#63b8ff" d="M193.24,-190.13C212.47,-187.53 235.33,-184.58 256,-182.29 328.6,-174.24 412.6,-166.99 466.34,-162.62"/>
<polygon fill="#63b8ff" stroke="#63b8ff" points="466.66,-166.1 476.35,-161.81 466.1,-159.13 466.66,-166.1"/>
</g>
<!-- Node5 -->
<g id="node5" class="node">
<title>Node5</title>
<g id="a_node5"><a xlink:href="../../df/dbf/TestTLevelReader_8cpp.html#a32e07d67b7efd1d03d13a110958eece8" target="_top" xlink:title=" ">
<polygon fill="white" stroke="#666666" points="369.5,-243.79 309.5,-243.79 309.5,-224.79 369.5,-224.79 369.5,-243.79"/>
<text text-anchor="middle" x="339.5" y="-231.79" font-family="Helvetica,sans-Serif" font-size="10.00">GetShips</text>
</a>
</g>
</g>
<!-- Node2&#45;&gt;Node5 -->
<g id="edge4" class="edge">
<title>Node2&#45;&gt;Node5</title>
<path fill="none" stroke="#63b8ff" d="M193.34,-205.1C225.37,-211.54 268.44,-220.2 299.33,-226.41"/>
<polygon fill="#63b8ff" stroke="#63b8ff" points="298.81,-229.88 309.31,-228.42 300.19,-223.02 298.81,-229.88"/>
</g>
<!-- Node7 -->
<g id="node7" class="node">
<title>Node7</title>
<g id="a_node7"><a xlink:href="../../d8/d51/classMyList.html#ab5e189776aca91f01ee5fe930318c289" target="_top" xlink:title=" ">
<polygon fill="white" stroke="#666666" points="705,-224.79 622,-224.79 622,-205.79 705,-205.79 705,-224.79"/>
<text text-anchor="middle" x="663.5" y="-212.79" font-family="Helvetica,sans-Serif" font-size="10.00">MyList::insert</text>
</a>
</g>
</g>
<!-- Node2&#45;&gt;Node7 -->
<g id="edge11" class="edge">
<title>Node2&#45;&gt;Node7</title>
<path fill="none" stroke="#63b8ff" d="M193.24,-197.91C287.78,-201.41 510.76,-209.67 611.51,-213.4"/>
<polygon fill="#63b8ff" stroke="#63b8ff" points="611.61,-216.91 621.74,-213.78 611.87,-209.91 611.61,-216.91"/>
</g>
<!-- Node5&#45;&gt;Node3 -->
<g id="edge5" class="edge">
<title>Node5&#45;&gt;Node3</title>
<path fill="none" stroke="#63b8ff" d="M356.8,-243.85C379.13,-256.53 420.82,-278.78 459,-291.29 511.74,-308.56 574.9,-318.82 616.71,-324.25"/>
<polygon fill="#63b8ff" stroke="#63b8ff" points="616.51,-327.75 626.87,-325.52 617.38,-320.8 616.51,-327.75"/>
</g>
<!-- Node5&#45;&gt;Node4 -->
<g id="edge6" class="edge">
<title>Node5&#45;&gt;Node4</title>
<path fill="none" stroke="#63b8ff" d="M363.42,-224.66C395.25,-211.3 452.97,-187.06 489.17,-171.87"/>
<polygon fill="#63b8ff" stroke="#63b8ff" points="490.9,-174.94 498.76,-167.84 488.19,-168.48 490.9,-174.94"/>
</g>
<!-- Node6 -->
<g id="node6" class="node">
<title>Node6</title>
<g id="a_node6"><a xlink:href="../../df/dbf/TestTLevelReader_8cpp.html#a04829e963b7ea7cf309dfa703ceb950e" target="_top" xlink:title=" ">
<polygon fill="white" stroke="#666666" points="567.5,-281.79 477.5,-281.79 477.5,-262.79 567.5,-262.79 567.5,-281.79"/>
<text text-anchor="middle" x="522.5" y="-269.79" font-family="Helvetica,sans-Serif" font-size="10.00">GetCapitanInfo</text>
</a>
</g>
</g>
<!-- Node5&#45;&gt;Node6 -->
<g id="edge7" class="edge">
<title>Node5&#45;&gt;Node6</title>
<path fill="none" stroke="#63b8ff" d="M369.58,-240.39C395.82,-245.9 435.1,-254.15 467.15,-260.88"/>
<polygon fill="#63b8ff" stroke="#63b8ff" points="466.77,-264.37 477.27,-263 468.21,-257.52 466.77,-264.37"/>
</g>
<!-- Node5&#45;&gt;Node7 -->
<g id="edge10" class="edge">
<title>Node5&#45;&gt;Node7</title>
<path fill="none" stroke="#63b8ff" d="M369.64,-232.57C424.49,-229.33 543.67,-222.3 611.88,-218.28"/>
<polygon fill="#63b8ff" stroke="#63b8ff" points="612.19,-221.76 621.97,-217.68 611.78,-214.78 612.19,-221.76"/>
</g>
<!-- Node6&#45;&gt;Node3 -->
<g id="edge8" class="edge">
<title>Node6&#45;&gt;Node3</title>
<path fill="none" stroke="#63b8ff" d="M549.14,-281.86C560.47,-286.17 573.94,-291.38 586,-296.29 600.98,-302.39 617.48,-309.46 631.3,-315.49"/>
<polygon fill="#63b8ff" stroke="#63b8ff" points="630.27,-318.86 640.84,-319.67 633.08,-312.45 630.27,-318.86"/>
</g>
<!-- Node6&#45;&gt;Node7 -->
<g id="edge9" class="edge">
<title>Node6&#45;&gt;Node7</title>
<path fill="none" stroke="#63b8ff" d="M549.14,-262.71C560.47,-258.41 573.94,-253.2 586,-248.29 600.98,-242.18 617.48,-235.11 631.3,-229.09"/>
<polygon fill="#63b8ff" stroke="#63b8ff" points="633.08,-232.13 640.84,-224.91 630.27,-225.72 633.08,-232.13"/>
</g>
<!-- Node8&#45;&gt;Node3 -->
<g id="edge13" class="edge">
<title>Node8&#45;&gt;Node3</title>
<path fill="none" stroke="#63b8ff" d="M166.16,-116.38C181.52,-130.9 204.26,-154.04 220,-177.29 240.95,-208.24 227.93,-228.61 256,-253.29 358.88,-343.78 534.27,-341.59 616.89,-334.61"/>
<polygon fill="#63b8ff" stroke="#63b8ff" points="617.33,-338.09 626.97,-333.7 616.7,-331.12 617.33,-338.09"/>
</g>
<!-- Node8&#45;&gt;Node7 -->
<g id="edge14" class="edge">
<title>Node8&#45;&gt;Node7</title>
<path fill="none" stroke="#63b8ff" d="M197.2,-86.19C204.95,-83.22 212.8,-79.9 220,-76.29 237.19,-67.68 237.69,-58.18 256,-52.29 395.65,-7.36 462.81,34.36 586,-45.29 638.46,-79.21 655.3,-158.63 660.41,-195.65"/>
<polygon fill="#63b8ff" stroke="#63b8ff" points="656.95,-196.18 661.65,-205.68 663.9,-195.33 656.95,-196.18"/>
</g>
<!-- Node9 -->
<g id="node9" class="node">
<title>Node9</title>
<g id="a_node9"><a xlink:href="../../d5/d99/classTLevelReader.html#a25bd379fa12d624375f165251b9c1178" target="_top" xlink:title=" ">
<polygon fill="white" stroke="#666666" points="412.5,-129.79 266.5,-129.79 266.5,-110.79 412.5,-110.79 412.5,-129.79"/>
<text text-anchor="middle" x="339.5" y="-117.79" font-family="Helvetica,sans-Serif" font-size="10.00">TLevelReader::ReadEmpty</text>
</a>
</g>
</g>
<!-- Node8&#45;&gt;Node9 -->
<g id="edge15" class="edge">
<title>Node8&#45;&gt;Node9</title>
<path fill="none" stroke="#63b8ff" d="M220.15,-108.39C231.94,-109.58 244.27,-110.82 256.32,-112.03"/>
<polygon fill="#63b8ff" stroke="#63b8ff" points="256.06,-115.52 266.36,-113.04 256.76,-108.55 256.06,-115.52"/>
</g>
<!-- Node10 -->
<g id="node10" class="node">
<title>Node10</title>
<g id="a_node10"><a xlink:href="../../d5/d99/classTLevelReader.html#a82ec22fb9386deb547a0a0862bc90301" target="_top" xlink:title=" ">
<polygon fill="white" stroke="#666666" points="586,-73.79 459,-73.79 459,-54.79 586,-54.79 586,-73.79"/>
<text text-anchor="middle" x="522.5" y="-61.79" font-family="Helvetica,sans-Serif" font-size="10.00">TLevelReader::ReadInt</text>
</a>
</g>
</g>
<!-- Node8&#45;&gt;Node10 -->
<g id="edge16" class="edge">
<title>Node8&#45;&gt;Node10</title>
<path fill="none" stroke="#63b8ff" d="M191.71,-86.26C219.95,-76.27 252.56,-64.87 256,-64.29 320.48,-53.41 395.02,-54.59 448.68,-57.8"/>
<polygon fill="#63b8ff" stroke="#63b8ff" points="448.58,-61.3 458.78,-58.44 449.03,-54.31 448.58,-61.3"/>
</g>
<!-- Node11 -->
<g id="node11" class="node">
<title>Node11</title>
<g id="a_node11"><a xlink:href="../../d5/d99/classTLevelReader.html#a98a8afd39b4ade7d9e3843a51109ea1d" target="_top" xlink:title=" ">
<polygon fill="white" stroke="#666666" points="423,-92.79 256,-92.79 256,-73.79 423,-73.79 423,-92.79"/>
<text text-anchor="middle" x="339.5" y="-80.79" font-family="Helvetica,sans-Serif" font-size="10.00">TLevelReader::ReadPirateBase</text>
</a>
</g>
</g>
<!-- Node8&#45;&gt;Node11 -->
<g id="edge17" class="edge">
<title>Node8&#45;&gt;Node11</title>
<path fill="none" stroke="#63b8ff" d="M220.15,-94.56C228.51,-93.76 237.14,-92.94 245.75,-92.12"/>
<polygon fill="#63b8ff" stroke="#63b8ff" points="246.22,-95.59 255.84,-91.16 245.55,-88.63 246.22,-95.59"/>
</g>
<!-- Node11&#45;&gt;Node4 -->
<g id="edge18" class="edge">
<title>Node11&#45;&gt;Node4</title>
<path fill="none" stroke="#63b8ff" d="M395.79,-92.86C405.02,-95.17 414.39,-97.95 423,-101.29 450.99,-112.14 480.45,-130.19 499.78,-143.07"/>
<polygon fill="#63b8ff" stroke="#63b8ff" points="497.91,-146.03 508.15,-148.75 501.84,-140.24 497.91,-146.03"/>
</g>
<!-- Node11&#45;&gt;Node10 -->
<g id="edge19" class="edge">
<title>Node11&#45;&gt;Node10</title>
<path fill="none" stroke="#63b8ff" d="M423.06,-74.62C431.61,-73.73 440.25,-72.82 448.68,-71.93"/>
<polygon fill="#63b8ff" stroke="#63b8ff" points="449.26,-75.39 458.84,-70.87 448.53,-68.43 449.26,-75.39"/>
</g>
</g>
</svg>
