<?xml version="1.0" encoding="UTF-8" standalone="no"?>
<!DOCTYPE svg PUBLIC "-//W3C//DTD SVG 1.1//EN"
 "http://www.w3.org/Graphics/SVG/1.1/DTD/svg11.dtd">
<!-- Generated by graphviz version 2.43.0 (0)
 -->
<!-- Title: TEST Pages: 1 -->
<svg width="383pt" height="138pt"
 viewBox="0.00 0.00 383.00 138.00" xmlns="http://www.w3.org/2000/svg" xmlns:xlink="http://www.w3.org/1999/xlink">
<g id="graph0" class="graph" transform="scale(1 1) rotate(0) translate(4 134)">
<title>TEST</title>
<!-- Node1 -->
<g id="node1" class="node">
<title>Node1</title>
<g id="a_node1"><a xlink:title=" ">
<polygon fill="#999999" stroke="#666666" points="41,-74 0,-74 0,-55 41,-55 41,-74"/>
<text text-anchor="middle" x="20.5" y="-62" font-family="Helvetica,sans-Serif" font-size="10.00">TEST</text>
</a>
</g>
</g>
<!-- Node2 -->
<g id="node2" class="node">
<title>Node2</title>
<g id="a_node2"><a xlink:href="../../d8/d51/classMyList.html#a80edb252c7e71107fac78c29647be513" target="_top" xlink:title=" ">
<polygon fill="white" stroke="#666666" points="357.5,-130 265.5,-130 265.5,-111 357.5,-111 357.5,-130"/>
<text text-anchor="middle" x="311.5" y="-118" font-family="Helvetica,sans-Serif" font-size="10.00">MyList::getById</text>
</a>
</g>
</g>
<!-- Node1&#45;&gt;Node2 -->
<g id="edge1" class="edge">
<title>Node1&#45;&gt;Node2</title>
<path fill="none" stroke="#63b8ff" d="M32.02,-74.25C42.54,-83.33 59.6,-96.37 77,-102.5 135.24,-123.01 206.55,-125.52 254.93,-124.17"/>
<polygon fill="#63b8ff" stroke="#63b8ff" points="255.32,-127.66 265.19,-123.82 255.08,-120.66 255.32,-127.66"/>
</g>
<!-- Node3 -->
<g id="node3" class="node">
<title>Node3</title>
<g id="a_node3"><a xlink:href="../../df/dbf/TestTLevelReader_8cpp.html#a04829e963b7ea7cf309dfa703ceb950e" target="_top" xlink:title=" ">
<polygon fill="white" stroke="#666666" points="189.5,-56 99.5,-56 99.5,-37 189.5,-37 189.5,-56"/>
<text text-anchor="middle" x="144.5" y="-44" font-family="Helvetica,sans-Serif" font-size="10.00">GetCapitanInfo</text>
</a>
</g>
</g>
<!-- Node1&#45;&gt;Node3 -->
<g id="edge2" class="edge">
<title>Node1&#45;&gt;Node3</title>
<path fill="none" stroke="#63b8ff" d="M41.1,-61.61C54.22,-59.67 72.18,-57.02 89.39,-54.48"/>
<polygon fill="#63b8ff" stroke="#63b8ff" points="90.02,-57.93 99.4,-53.01 89,-51 90.02,-57.93"/>
</g>
<!-- Node6 -->
<g id="node6" class="node">
<title>Node6</title>
<g id="a_node6"><a xlink:href="../../df/dbf/TestTLevelReader_8cpp.html#a75c05778cfeaafda2b661762c0a22de8" target="_top" xlink:title=" ">
<polygon fill="white" stroke="#666666" points="183.5,-19 105.5,-19 105.5,0 183.5,0 183.5,-19"/>
<text text-anchor="middle" x="144.5" y="-7" font-family="Helvetica,sans-Serif" font-size="10.00">GetWeapons</text>
</a>
</g>
</g>
<!-- Node1&#45;&gt;Node6 -->
<g id="edge5" class="edge">
<title>Node1&#45;&gt;Node6</title>
<path fill="none" stroke="#63b8ff" d="M33.6,-54.74C44.41,-46.46 60.97,-34.78 77,-27.5 82.86,-24.84 89.2,-22.5 95.55,-20.47"/>
<polygon fill="#63b8ff" stroke="#63b8ff" points="96.88,-23.72 105.47,-17.52 94.89,-17.01 96.88,-23.72"/>
</g>
<!-- Node7 -->
<g id="node7" class="node">
<title>Node7</title>
<g id="a_node7"><a xlink:href="../../d5/d99/classTLevelReader.html#a111bc6a9c4250c31a0689e62f7113254" target="_top" xlink:title=" ">
<polygon fill="white" stroke="#666666" points="212,-93 77,-93 77,-74 212,-74 212,-93"/>
<text text-anchor="middle" x="144.5" y="-81" font-family="Helvetica,sans-Serif" font-size="10.00">TLevelReader::ReadShip</text>
</a>
</g>
</g>
<!-- Node1&#45;&gt;Node7 -->
<g id="edge8" class="edge">
<title>Node1&#45;&gt;Node7</title>
<path fill="none" stroke="#63b8ff" d="M41.1,-67.55C49.85,-68.92 60.76,-70.61 72.16,-72.39"/>
<polygon fill="#63b8ff" stroke="#63b8ff" points="71.85,-75.88 82.27,-73.96 72.92,-68.97 71.85,-75.88"/>
</g>
<!-- Node4 -->
<g id="node4" class="node">
<title>Node4</title>
<g id="a_node4"><a xlink:href="../../d8/d51/classMyList.html#a723c00a8380b8fd0705cb286cdd179d2" target="_top" xlink:title=" ">
<polygon fill="white" stroke="#666666" points="348,-56 275,-56 275,-37 348,-37 348,-56"/>
<text text-anchor="middle" x="311.5" y="-44" font-family="Helvetica,sans-Serif" font-size="10.00">MyList::end</text>
</a>
</g>
</g>
<!-- Node3&#45;&gt;Node4 -->
<g id="edge3" class="edge">
<title>Node3&#45;&gt;Node4</title>
<path fill="none" stroke="#63b8ff" d="M189.72,-46.5C212.92,-46.5 241.31,-46.5 264.73,-46.5"/>
<polygon fill="#63b8ff" stroke="#63b8ff" points="264.77,-50 274.77,-46.5 264.77,-43 264.77,-50"/>
</g>
<!-- Node5 -->
<g id="node5" class="node">
<title>Node5</title>
<g id="a_node5"><a xlink:href="../../d8/d51/classMyList.html#ab5e189776aca91f01ee5fe930318c289" target="_top" xlink:title=" ">
<polygon fill="white" stroke="#666666" points="353,-19 270,-19 270,0 353,0 353,-19"/>
<text text-anchor="middle" x="311.5" y="-7" font-family="Helvetica,sans-Serif" font-size="10.00">MyList::insert</text>
</a>
</g>
</g>
<!-- Node3&#45;&gt;Node5 -->
<g id="edge4" class="edge">
<title>Node3&#45;&gt;Node5</title>
<path fill="none" stroke="#63b8ff" d="M187.99,-36.97C209.95,-32.05 236.9,-26 259.92,-20.84"/>
<polygon fill="#63b8ff" stroke="#63b8ff" points="260.87,-24.22 269.86,-18.61 259.34,-17.39 260.87,-24.22"/>
</g>
<!-- Node6&#45;&gt;Node4 -->
<g id="edge6" class="edge">
<title>Node6&#45;&gt;Node4</title>
<path fill="none" stroke="#63b8ff" d="M183.77,-18.08C208.06,-23.53 239.61,-30.6 265.15,-36.33"/>
<polygon fill="#63b8ff" stroke="#63b8ff" points="264.45,-39.76 274.98,-38.53 265.98,-32.93 264.45,-39.76"/>
</g>
<!-- Node6&#45;&gt;Node5 -->
<g id="edge7" class="edge">
<title>Node6&#45;&gt;Node5</title>
<path fill="none" stroke="#63b8ff" d="M183.77,-9.5C206.34,-9.5 235.19,-9.5 259.66,-9.5"/>
<polygon fill="#63b8ff" stroke="#63b8ff" points="259.85,-13 269.85,-9.5 259.85,-6 259.85,-13"/>
</g>
<!-- Node7&#45;&gt;Node2 -->
<g id="edge9" class="edge">
<title>Node7&#45;&gt;Node2</title>
<path fill="none" stroke="#63b8ff" d="M187.99,-93.03C209.37,-97.82 235.47,-103.68 258.08,-108.75"/>
<polygon fill="#63b8ff" stroke="#63b8ff" points="257.34,-112.17 267.87,-110.94 258.87,-105.34 257.34,-112.17"/>
</g>
<!-- Node8 -->
<g id="node8" class="node">
<title>Node8</title>
<g id="a_node8"><a xlink:href="../../d5/d99/classTLevelReader.html#a82ec22fb9386deb547a0a0862bc90301" target="_top" xlink:title=" ">
<polygon fill="white" stroke="#666666" points="375,-93 248,-93 248,-74 375,-74 375,-93"/>
<text text-anchor="middle" x="311.5" y="-81" font-family="Helvetica,sans-Serif" font-size="10.00">TLevelReader::ReadInt</text>
</a>
</g>
</g>
<!-- Node7&#45;&gt;Node8 -->
<g id="edge10" class="edge">
<title>Node7&#45;&gt;Node8</title>
<path fill="none" stroke="#63b8ff" d="M212.14,-83.5C220.53,-83.5 229.15,-83.5 237.63,-83.5"/>
<polygon fill="#63b8ff" stroke="#63b8ff" points="237.89,-87 247.89,-83.5 237.89,-80 237.89,-87"/>
</g>
</g>
</svg>
