<?xml version="1.0" encoding="UTF-8" standalone="no"?>
<!DOCTYPE svg PUBLIC "-//W3C//DTD SVG 1.1//EN"
 "http://www.w3.org/Graphics/SVG/1.1/DTD/svg11.dtd">
<!-- Generated by graphviz version 2.43.0 (0)
 -->
<!-- Title: GetCapitanInfo Pages: 1 -->
<svg width="396pt" height="82pt"
 viewBox="0.00 0.00 396.00 82.00" xmlns="http://www.w3.org/2000/svg" xmlns:xlink="http://www.w3.org/1999/xlink">
<g id="graph0" class="graph" transform="scale(1 1) rotate(0) translate(4 78)">
<title>GetCapitanInfo</title>
<!-- Node1 -->
<g id="node1" class="node">
<title>Node1</title>
<g id="a_node1"><a xlink:title=" ">
<polygon fill="#999999" stroke="#666666" points="388,-37 298,-37 298,-18 388,-18 388,-37"/>
<text text-anchor="middle" x="343" y="-25" font-family="Helvetica,sans-Serif" font-size="10.00">GetCapitanInfo</text>
</a>
</g>
</g>
<!-- Node2 -->
<g id="node2" class="node">
<title>Node2</title>
<g id="a_node2"><a xlink:href="../../df/dbf/TestTLevelReader_8cpp.html#a32e07d67b7efd1d03d13a110958eece8" target="_top" xlink:title=" ">
<polygon fill="white" stroke="#666666" points="262,-56 202,-56 202,-37 262,-37 262,-56"/>
<text text-anchor="middle" x="232" y="-44" font-family="Helvetica,sans-Serif" font-size="10.00">GetShips</text>
</a>
</g>
</g>
<!-- Node1&#45;&gt;Node2 -->
<g id="edge1" class="edge">
<title>Node1&#45;&gt;Node2</title>
<path fill="none" stroke="#63b8ff" d="M287.98,-36.92C279.08,-38.47 270.16,-40.02 262.17,-41.42"/>
<polygon fill="#63b8ff" stroke="#63b8ff" points="288.73,-40.34 297.98,-35.17 287.53,-33.44 288.73,-40.34"/>
</g>
<!-- Node6 -->
<g id="node6" class="node">
<title>Node6</title>
<g id="a_node6"><a xlink:href="../../df/dbf/TestTLevelReader_8cpp.html#a0b38a70622c5f89d667fa6639c424089" target="_top" xlink:title=" ">
<polygon fill="white" stroke="#666666" points="252.5,-19 211.5,-19 211.5,0 252.5,0 252.5,-19"/>
<text text-anchor="middle" x="232" y="-7" font-family="Helvetica,sans-Serif" font-size="10.00">TEST</text>
</a>
</g>
</g>
<!-- Node1&#45;&gt;Node6 -->
<g id="edge5" class="edge">
<title>Node1&#45;&gt;Node6</title>
<path fill="none" stroke="#63b8ff" d="M287.92,-18.57C275.31,-16.49 262.67,-14.4 252.7,-12.75"/>
<polygon fill="#63b8ff" stroke="#63b8ff" points="287.54,-22.05 297.98,-20.23 288.68,-15.15 287.54,-22.05"/>
</g>
<!-- Node3 -->
<g id="node3" class="node">
<title>Node3</title>
<g id="a_node3"><a xlink:href="../../df/dbf/TestTLevelReader_8cpp.html#ac86806b1ea40e9e267dcb76e291d2c89" target="_top" xlink:title=" ">
<polygon fill="white" stroke="#666666" points="166,-74 77,-74 77,-55 166,-55 166,-74"/>
<text text-anchor="middle" x="121.5" y="-62" font-family="Helvetica,sans-Serif" font-size="10.00">GetDescriptors</text>
</a>
</g>
</g>
<!-- Node2&#45;&gt;Node3 -->
<g id="edge2" class="edge">
<title>Node2&#45;&gt;Node3</title>
<path fill="none" stroke="#63b8ff" d="M191.8,-53C183.54,-54.37 174.78,-55.83 166.36,-57.22"/>
<polygon fill="#63b8ff" stroke="#63b8ff" points="192.63,-56.41 201.92,-51.32 191.49,-49.51 192.63,-56.41"/>
</g>
<!-- Node5 -->
<g id="node5" class="node">
<title>Node5</title>
<g id="a_node5"><a xlink:href="../../df/dbf/TestTLevelReader_8cpp.html#a7345c8c1666adc3189772b4d8c854505" target="_top" xlink:title=" ">
<polygon fill="white" stroke="#666666" points="142,-37 101,-37 101,-18 142,-18 142,-37"/>
<text text-anchor="middle" x="121.5" y="-25" font-family="Helvetica,sans-Serif" font-size="10.00">TEST</text>
</a>
</g>
</g>
<!-- Node2&#45;&gt;Node5 -->
<g id="edge4" class="edge">
<title>Node2&#45;&gt;Node5</title>
<path fill="none" stroke="#63b8ff" d="M191.75,-39.63C174.86,-36.67 155.87,-33.34 142.06,-30.92"/>
<polygon fill="#63b8ff" stroke="#63b8ff" points="191.47,-43.13 201.92,-41.41 192.68,-36.24 191.47,-43.13"/>
</g>
<!-- Node4 -->
<g id="node4" class="node">
<title>Node4</title>
<g id="a_node4"><a xlink:href="../../df/dbf/TestTLevelReader_8cpp.html#a755cf3ec78fcb2c18a1579f855288e53" target="_top" xlink:title=" ">
<polygon fill="white" stroke="#666666" points="41,-74 0,-74 0,-55 41,-55 41,-74"/>
<text text-anchor="middle" x="20.5" y="-62" font-family="Helvetica,sans-Serif" font-size="10.00">TEST</text>
</a>
</g>
</g>
<!-- Node3&#45;&gt;Node4 -->
<g id="edge3" class="edge">
<title>Node3&#45;&gt;Node4</title>
<path fill="none" stroke="#63b8ff" d="M66.55,-64.5C57.49,-64.5 48.64,-64.5 41.21,-64.5"/>
<polygon fill="#63b8ff" stroke="#63b8ff" points="66.79,-68 76.79,-64.5 66.79,-61 66.79,-68"/>
</g>
</g>
</svg>
