<?xml version="1.0" encoding="UTF-8" standalone="no"?>
<!DOCTYPE svg PUBLIC "-//W3C//DTD SVG 1.1//EN"
 "http://www.w3.org/Graphics/SVG/1.1/DTD/svg11.dtd">
<!-- Generated by graphviz version 2.43.0 (0)
 -->
<!-- Title: GetShips Pages: 1 -->
<svg width="315pt" height="100pt"
 viewBox="0.00 0.00 315.00 100.10" xmlns="http://www.w3.org/2000/svg" xmlns:xlink="http://www.w3.org/1999/xlink">
<g id="graph0" class="graph" transform="scale(1 1) rotate(0) translate(4 96.1)">
<title>GetShips</title>
<!-- Node1 -->
<g id="node1" class="node">
<title>Node1</title>
<g id="a_node1"><a xlink:title=" ">
<polygon fill="#999999" stroke="#666666" points="60,-56 0,-56 0,-37 60,-37 60,-56"/>
<text text-anchor="middle" x="30" y="-44" font-family="Helvetica,sans-Serif" font-size="10.00">GetShips</text>
</a>
</g>
</g>
<!-- Node2 -->
<g id="node2" class="node">
<title>Node2</title>
<g id="a_node2"><a xlink:href="../../d8/d51/classMyList.html#a723c00a8380b8fd0705cb286cdd179d2" target="_top" xlink:title=" ">
<polygon fill="white" stroke="#666666" points="302,-56 229,-56 229,-37 302,-37 302,-56"/>
<text text-anchor="middle" x="265.5" y="-44" font-family="Helvetica,sans-Serif" font-size="10.00">MyList::end</text>
</a>
</g>
</g>
<!-- Node1&#45;&gt;Node2 -->
<g id="edge1" class="edge">
<title>Node1&#45;&gt;Node2</title>
<path fill="none" stroke="#63b8ff" d="M43.05,-56.22C55.47,-65.56 75.81,-79.03 96,-84.5 135.47,-95.19 148.19,-93.84 188,-84.5 207.07,-80.03 226.82,-70.05 241.48,-61.45"/>
<polygon fill="#63b8ff" stroke="#63b8ff" points="243.6,-64.25 250.32,-56.06 239.96,-58.28 243.6,-64.25"/>
</g>
<!-- Node3 -->
<g id="node3" class="node">
<title>Node3</title>
<g id="a_node3"><a xlink:href="../../d8/d51/classMyList.html#a80edb252c7e71107fac78c29647be513" target="_top" xlink:title=" ">
<polygon fill="white" stroke="#666666" points="188,-75 96,-75 96,-56 188,-56 188,-75"/>
<text text-anchor="middle" x="142" y="-63" font-family="Helvetica,sans-Serif" font-size="10.00">MyList::getById</text>
</a>
</g>
</g>
<!-- Node1&#45;&gt;Node3 -->
<g id="edge2" class="edge">
<title>Node1&#45;&gt;Node3</title>
<path fill="none" stroke="#63b8ff" d="M60.19,-51.54C68.14,-52.92 77.03,-54.45 85.92,-55.99"/>
<polygon fill="#63b8ff" stroke="#63b8ff" points="85.45,-59.46 95.9,-57.71 86.65,-52.56 85.45,-59.46"/>
</g>
<!-- Node4 -->
<g id="node4" class="node">
<title>Node4</title>
<g id="a_node4"><a xlink:href="../../df/dbf/TestTLevelReader_8cpp.html#a04829e963b7ea7cf309dfa703ceb950e" target="_top" xlink:title=" ">
<polygon fill="white" stroke="#666666" points="187,-38 97,-38 97,-19 187,-19 187,-38"/>
<text text-anchor="middle" x="142" y="-26" font-family="Helvetica,sans-Serif" font-size="10.00">GetCapitanInfo</text>
</a>
</g>
</g>
<!-- Node1&#45;&gt;Node4 -->
<g id="edge3" class="edge">
<title>Node1&#45;&gt;Node4</title>
<path fill="none" stroke="#63b8ff" d="M60.19,-41.72C68.42,-40.38 77.64,-38.87 86.83,-37.36"/>
<polygon fill="#63b8ff" stroke="#63b8ff" points="87.44,-40.81 96.74,-35.74 86.31,-33.9 87.44,-40.81"/>
</g>
<!-- Node5 -->
<g id="node5" class="node">
<title>Node5</title>
<g id="a_node5"><a xlink:href="../../d8/d51/classMyList.html#ab5e189776aca91f01ee5fe930318c289" target="_top" xlink:title=" ">
<polygon fill="white" stroke="#666666" points="307,-19 224,-19 224,0 307,0 307,-19"/>
<text text-anchor="middle" x="265.5" y="-7" font-family="Helvetica,sans-Serif" font-size="10.00">MyList::insert</text>
</a>
</g>
</g>
<!-- Node1&#45;&gt;Node5 -->
<g id="edge6" class="edge">
<title>Node1&#45;&gt;Node5</title>
<path fill="none" stroke="#63b8ff" d="M43.56,-36.69C56.06,-27.61 76.17,-14.75 96,-9.5 134.57,0.71 179.87,0.04 213.78,-2.81"/>
<polygon fill="#63b8ff" stroke="#63b8ff" points="213.64,-6.32 223.92,-3.76 214.29,0.65 213.64,-6.32"/>
</g>
<!-- Node4&#45;&gt;Node2 -->
<g id="edge4" class="edge">
<title>Node4&#45;&gt;Node2</title>
<path fill="none" stroke="#63b8ff" d="M187.21,-35.05C197.49,-36.57 208.45,-38.2 218.79,-39.73"/>
<polygon fill="#63b8ff" stroke="#63b8ff" points="218.48,-43.22 228.88,-41.22 219.5,-36.3 218.48,-43.22"/>
</g>
<!-- Node4&#45;&gt;Node5 -->
<g id="edge5" class="edge">
<title>Node4&#45;&gt;Node5</title>
<path fill="none" stroke="#63b8ff" d="M187.21,-21.59C195.79,-20.24 204.85,-18.83 213.63,-17.46"/>
<polygon fill="#63b8ff" stroke="#63b8ff" points="214.42,-20.87 223.76,-15.87 213.34,-13.96 214.42,-20.87"/>
</g>
</g>
</svg>
