<?xml version="1.0" encoding="UTF-8" standalone="no"?>
<!DOCTYPE svg PUBLIC "-//W3C//DTD SVG 1.1//EN"
 "http://www.w3.org/Graphics/SVG/1.1/DTD/svg11.dtd">
<!-- Generated by graphviz version 2.43.0 (0)
 -->
<!-- Title: TEST Pages: 1 -->
<svg width="595pt" height="177pt"
 viewBox="0.00 0.00 595.00 177.00" xmlns="http://www.w3.org/2000/svg" xmlns:xlink="http://www.w3.org/1999/xlink">
<g id="graph0" class="graph" transform="scale(1 1) rotate(0) translate(4 173)">
<title>TEST</title>
<!-- Node1 -->
<g id="node1" class="node">
<title>Node1</title>
<g id="a_node1"><a xlink:title=" ">
<polygon fill="#999999" stroke="#666666" points="41,-76 0,-76 0,-57 41,-57 41,-76"/>
<text text-anchor="middle" x="20.5" y="-64" font-family="Helvetica,sans-Serif" font-size="10.00">TEST</text>
</a>
</g>
</g>
<!-- Node2 -->
<g id="node2" class="node">
<title>Node2</title>
<g id="a_node2"><a xlink:href="../../d5/d99/classTLevelReader.html#a4467cdf7d7766981a6b8eeb23076b433" target="_top" xlink:title=" ">
<polygon fill="white" stroke="#666666" points="235,-95 77,-95 77,-76 235,-76 235,-95"/>
<text text-anchor="middle" x="156" y="-83" font-family="Helvetica,sans-Serif" font-size="10.00">TLevelReader::ReadWeapons</text>
</a>
</g>
</g>
<!-- Node1&#45;&gt;Node2 -->
<g id="edge1" class="edge">
<title>Node1&#45;&gt;Node2</title>
<path fill="none" stroke="#63b8ff" d="M41.2,-69.3C51.35,-70.75 64.47,-72.61 78.16,-74.56"/>
<polygon fill="#63b8ff" stroke="#63b8ff" points="77.8,-78.05 88.19,-75.99 78.79,-71.12 77.8,-78.05"/>
</g>
<!-- Node8 -->
<g id="node8" class="node">
<title>Node8</title>
<g id="a_node8"><a xlink:href="../../d8/d51/classMyList.html#a37366fbfd16acad1dfa69a141b339095" target="_top" xlink:title=" ">
<polygon fill="white" stroke="#666666" points="193,-58 119,-58 119,-39 193,-39 193,-58"/>
<text text-anchor="middle" x="156" y="-46" font-family="Helvetica,sans-Serif" font-size="10.00">MyList::size</text>
</a>
</g>
</g>
<!-- Node1&#45;&gt;Node8 -->
<g id="edge8" class="edge">
<title>Node1&#45;&gt;Node8</title>
<path fill="none" stroke="#63b8ff" d="M41.2,-63.84C58.95,-61.45 85.74,-57.84 108.87,-54.72"/>
<polygon fill="#63b8ff" stroke="#63b8ff" points="109.41,-58.18 118.85,-53.37 108.48,-51.24 109.41,-58.18"/>
</g>
<!-- Node3 -->
<g id="node3" class="node">
<title>Node3</title>
<g id="a_node3"><a xlink:href="../../d8/d51/classMyList.html#a723c00a8380b8fd0705cb286cdd179d2" target="_top" xlink:title=" ">
<polygon fill="white" stroke="#666666" points="384,-169 311,-169 311,-150 384,-150 384,-169"/>
<text text-anchor="middle" x="347.5" y="-157" font-family="Helvetica,sans-Serif" font-size="10.00">MyList::end</text>
</a>
</g>
</g>
<!-- Node2&#45;&gt;Node3 -->
<g id="edge2" class="edge">
<title>Node2&#45;&gt;Node3</title>
<path fill="none" stroke="#63b8ff" d="M173.48,-95.06C195.21,-107.31 234.9,-128.51 271,-141.5 280.51,-144.92 290.93,-147.88 300.91,-150.36"/>
<polygon fill="#63b8ff" stroke="#63b8ff" points="300.15,-153.78 310.69,-152.68 301.76,-146.97 300.15,-153.78"/>
</g>
<!-- Node4 -->
<g id="node4" class="node">
<title>Node4</title>
<g id="a_node4"><a xlink:href="../../d8/d51/classMyList.html#ab5e189776aca91f01ee5fe930318c289" target="_top" xlink:title=" ">
<polygon fill="white" stroke="#666666" points="389,-132 306,-132 306,-113 389,-113 389,-132"/>
<text text-anchor="middle" x="347.5" y="-120" font-family="Helvetica,sans-Serif" font-size="10.00">MyList::insert</text>
</a>
</g>
</g>
<!-- Node2&#45;&gt;Node4 -->
<g id="edge3" class="edge">
<title>Node2&#45;&gt;Node4</title>
<path fill="none" stroke="#63b8ff" d="M205.8,-95.03C233.44,-100.43 267.96,-107.17 295.9,-112.62"/>
<polygon fill="#63b8ff" stroke="#63b8ff" points="295.38,-116.08 305.86,-114.57 296.72,-109.21 295.38,-116.08"/>
</g>
<!-- Node5 -->
<g id="node5" class="node">
<title>Node5</title>
<g id="a_node5"><a xlink:href="../../d5/d99/classTLevelReader.html#a25bd379fa12d624375f165251b9c1178" target="_top" xlink:title=" ">
<polygon fill="white" stroke="#666666" points="420.5,-95 274.5,-95 274.5,-76 420.5,-76 420.5,-95"/>
<text text-anchor="middle" x="347.5" y="-83" font-family="Helvetica,sans-Serif" font-size="10.00">TLevelReader::ReadEmpty</text>
</a>
</g>
</g>
<!-- Node2&#45;&gt;Node5 -->
<g id="edge4" class="edge">
<title>Node2&#45;&gt;Node5</title>
<path fill="none" stroke="#63b8ff" d="M235.17,-85.5C244.68,-85.5 254.42,-85.5 263.99,-85.5"/>
<polygon fill="#63b8ff" stroke="#63b8ff" points="264.29,-89 274.29,-85.5 264.29,-82 264.29,-89"/>
</g>
<!-- Node6 -->
<g id="node6" class="node">
<title>Node6</title>
<g id="a_node6"><a xlink:href="../../d5/d99/classTLevelReader.html#a82ec22fb9386deb547a0a0862bc90301" target="_top" xlink:title=" ">
<polygon fill="white" stroke="#666666" points="587,-38 460,-38 460,-19 587,-19 587,-38"/>
<text text-anchor="middle" x="523.5" y="-26" font-family="Helvetica,sans-Serif" font-size="10.00">TLevelReader::ReadInt</text>
</a>
</g>
</g>
<!-- Node2&#45;&gt;Node6 -->
<g id="edge5" class="edge">
<title>Node2&#45;&gt;Node6</title>
<path fill="none" stroke="#63b8ff" d="M217.05,-75.99C234.45,-73.24 253.48,-70.24 271,-67.5 331.55,-58.03 400.31,-47.37 450.61,-39.59"/>
<polygon fill="#63b8ff" stroke="#63b8ff" points="451.39,-43.02 460.74,-38.03 450.32,-36.1 451.39,-43.02"/>
</g>
<!-- Node7 -->
<g id="node7" class="node">
<title>Node7</title>
<g id="a_node7"><a xlink:href="../../d5/d99/classTLevelReader.html#ad7b63a611a8e08c9d9b38ee2972c82fc" target="_top" xlink:title=" ">
<polygon fill="white" stroke="#666666" points="424,-19 271,-19 271,0 424,0 424,-19"/>
<text text-anchor="middle" x="347.5" y="-7" font-family="Helvetica,sans-Serif" font-size="10.00">TLevelReader::ReadWeapon</text>
</a>
</g>
</g>
<!-- Node2&#45;&gt;Node7 -->
<g id="edge6" class="edge">
<title>Node2&#45;&gt;Node7</title>
<path fill="none" stroke="#63b8ff" d="M214.52,-75.93C221.63,-73.68 228.63,-70.91 235,-67.5 254.4,-57.11 252.04,-44.67 271,-33.5 278.58,-29.04 287.08,-25.31 295.57,-22.22"/>
<polygon fill="#63b8ff" stroke="#63b8ff" points="296.75,-25.52 305.1,-19.01 294.51,-18.88 296.75,-25.52"/>
</g>
<!-- Node7&#45;&gt;Node6 -->
<g id="edge7" class="edge">
<title>Node7&#45;&gt;Node6</title>
<path fill="none" stroke="#63b8ff" d="M424.06,-17.75C432.54,-18.68 441.16,-19.62 449.6,-20.54"/>
<polygon fill="#63b8ff" stroke="#63b8ff" points="449.47,-24.05 459.79,-21.65 450.23,-17.09 449.47,-24.05"/>
</g>
</g>
</svg>
