<?xml version="1.0" encoding="UTF-8" standalone="no"?>
<!DOCTYPE svg PUBLIC "-//W3C//DTD SVG 1.1//EN"
 "http://www.w3.org/Graphics/SVG/1.1/DTD/svg11.dtd">
<!-- Generated by graphviz version 2.43.0 (0)
 -->
<!-- Title: TEST Pages: 1 -->
<svg width="383pt" height="138pt"
 viewBox="0.00 0.00 383.00 138.00" xmlns="http://www.w3.org/2000/svg" xmlns:xlink="http://www.w3.org/1999/xlink">
<g id="graph0" class="graph" transform="scale(1 1) rotate(0) translate(4 134)">
<title>TEST</title>
<!-- Node1 -->
<g id="node1" class="node">
<title>Node1</title>
<g id="a_node1"><a xlink:title=" ">
<polygon fill="#999999" stroke="#666666" points="41,-93 0,-93 0,-74 41,-74 41,-93"/>
<text text-anchor="middle" x="20.5" y="-81" font-family="Helvetica,sans-Serif" font-size="10.00">TEST</text>
</a>
</g>
</g>
<!-- Node2 -->
<g id="node2" class="node">
<title>Node2</title>
<g id="a_node2"><a xlink:href="../../df/dbf/TestTLevelReader_8cpp.html#a04829e963b7ea7cf309dfa703ceb950e" target="_top" xlink:title=" ">
<polygon fill="white" stroke="#666666" points="189.5,-93 99.5,-93 99.5,-74 189.5,-74 189.5,-93"/>
<text text-anchor="middle" x="144.5" y="-81" font-family="Helvetica,sans-Serif" font-size="10.00">GetCapitanInfo</text>
</a>
</g>
</g>
<!-- Node1&#45;&gt;Node2 -->
<g id="edge1" class="edge">
<title>Node1&#45;&gt;Node2</title>
<path fill="none" stroke="#63b8ff" d="M41.1,-83.5C54.22,-83.5 72.18,-83.5 89.39,-83.5"/>
<polygon fill="#63b8ff" stroke="#63b8ff" points="89.4,-87 99.4,-83.5 89.4,-80 89.4,-87"/>
</g>
<!-- Node5 -->
<g id="node5" class="node">
<title>Node5</title>
<g id="a_node5"><a xlink:href="../../df/dbf/TestTLevelReader_8cpp.html#a75c05778cfeaafda2b661762c0a22de8" target="_top" xlink:title=" ">
<polygon fill="white" stroke="#666666" points="183.5,-130 105.5,-130 105.5,-111 183.5,-111 183.5,-130"/>
<text text-anchor="middle" x="144.5" y="-118" font-family="Helvetica,sans-Serif" font-size="10.00">GetWeapons</text>
</a>
</g>
</g>
<!-- Node1&#45;&gt;Node5 -->
<g id="edge4" class="edge">
<title>Node1&#45;&gt;Node5</title>
<path fill="none" stroke="#63b8ff" d="M41.18,-90.59C51.74,-94.3 65.02,-98.83 77,-102.5 83.38,-104.45 90.13,-106.41 96.8,-108.27"/>
<polygon fill="#63b8ff" stroke="#63b8ff" points="95.87,-111.65 106.44,-110.93 97.73,-104.9 95.87,-111.65"/>
</g>
<!-- Node6 -->
<g id="node6" class="node">
<title>Node6</title>
<g id="a_node6"><a xlink:href="../../d5/d99/classTLevelReader.html#a111bc6a9c4250c31a0689e62f7113254" target="_top" xlink:title=" ">
<polygon fill="white" stroke="#666666" points="212,-56 77,-56 77,-37 212,-37 212,-56"/>
<text text-anchor="middle" x="144.5" y="-44" font-family="Helvetica,sans-Serif" font-size="10.00">TLevelReader::ReadShip</text>
</a>
</g>
</g>
<!-- Node1&#45;&gt;Node6 -->
<g id="edge7" class="edge">
<title>Node1&#45;&gt;Node6</title>
<path fill="none" stroke="#63b8ff" d="M41.23,-76.92C51.8,-73.43 65.08,-69.13 77,-65.5 84.27,-63.28 92,-61 99.54,-58.82"/>
<polygon fill="#63b8ff" stroke="#63b8ff" points="100.61,-62.16 109.26,-56.03 98.68,-55.43 100.61,-62.16"/>
</g>
<!-- Node3 -->
<g id="node3" class="node">
<title>Node3</title>
<g id="a_node3"><a xlink:href="../../d8/d51/classMyList.html#a723c00a8380b8fd0705cb286cdd179d2" target="_top" xlink:title=" ">
<polygon fill="white" stroke="#666666" points="348,-130 275,-130 275,-111 348,-111 348,-130"/>
<text text-anchor="middle" x="311.5" y="-118" font-family="Helvetica,sans-Serif" font-size="10.00">MyList::end</text>
</a>
</g>
</g>
<!-- Node2&#45;&gt;Node3 -->
<g id="edge2" class="edge">
<title>Node2&#45;&gt;Node3</title>
<path fill="none" stroke="#63b8ff" d="M187.99,-93.03C211.55,-98.31 240.86,-104.88 264.9,-110.27"/>
<polygon fill="#63b8ff" stroke="#63b8ff" points="264.32,-113.73 274.85,-112.51 265.85,-106.9 264.32,-113.73"/>
</g>
<!-- Node4 -->
<g id="node4" class="node">
<title>Node4</title>
<g id="a_node4"><a xlink:href="../../d8/d51/classMyList.html#ab5e189776aca91f01ee5fe930318c289" target="_top" xlink:title=" ">
<polygon fill="white" stroke="#666666" points="353,-93 270,-93 270,-74 353,-74 353,-93"/>
<text text-anchor="middle" x="311.5" y="-81" font-family="Helvetica,sans-Serif" font-size="10.00">MyList::insert</text>
</a>
</g>
</g>
<!-- Node2&#45;&gt;Node4 -->
<g id="edge3" class="edge">
<title>Node2&#45;&gt;Node4</title>
<path fill="none" stroke="#63b8ff" d="M189.72,-83.5C211.32,-83.5 237.43,-83.5 259.84,-83.5"/>
<polygon fill="#63b8ff" stroke="#63b8ff" points="259.84,-87 269.84,-83.5 259.84,-80 259.84,-87"/>
</g>
<!-- Node5&#45;&gt;Node3 -->
<g id="edge5" class="edge">
<title>Node5&#45;&gt;Node3</title>
<path fill="none" stroke="#63b8ff" d="M183.77,-120.5C207.95,-120.5 239.33,-120.5 264.81,-120.5"/>
<polygon fill="#63b8ff" stroke="#63b8ff" points="264.98,-124 274.98,-120.5 264.98,-117 264.98,-124"/>
</g>
<!-- Node5&#45;&gt;Node4 -->
<g id="edge6" class="edge">
<title>Node5&#45;&gt;Node4</title>
<path fill="none" stroke="#63b8ff" d="M183.77,-111.92C206.44,-106.83 235.45,-100.33 259.99,-94.83"/>
<polygon fill="#63b8ff" stroke="#63b8ff" points="260.85,-98.22 269.85,-92.62 259.32,-91.39 260.85,-98.22"/>
</g>
<!-- Node7 -->
<g id="node7" class="node">
<title>Node7</title>
<g id="a_node7"><a xlink:href="../../d8/d51/classMyList.html#a80edb252c7e71107fac78c29647be513" target="_top" xlink:title=" ">
<polygon fill="white" stroke="#666666" points="357.5,-56 265.5,-56 265.5,-37 357.5,-37 357.5,-56"/>
<text text-anchor="middle" x="311.5" y="-44" font-family="Helvetica,sans-Serif" font-size="10.00">MyList::getById</text>
</a>
</g>
</g>
<!-- Node6&#45;&gt;Node7 -->
<g id="edge8" class="edge">
<title>Node6&#45;&gt;Node7</title>
<path fill="none" stroke="#63b8ff" d="M212.14,-46.5C226.39,-46.5 241.3,-46.5 255.08,-46.5"/>
<polygon fill="#63b8ff" stroke="#63b8ff" points="255.37,-50 265.37,-46.5 255.37,-43 255.37,-50"/>
</g>
<!-- Node8 -->
<g id="node8" class="node">
<title>Node8</title>
<g id="a_node8"><a xlink:href="../../d5/d99/classTLevelReader.html#a82ec22fb9386deb547a0a0862bc90301" target="_top" xlink:title=" ">
<polygon fill="white" stroke="#666666" points="375,-19 248,-19 248,0 375,0 375,-19"/>
<text text-anchor="middle" x="311.5" y="-7" font-family="Helvetica,sans-Serif" font-size="10.00">TLevelReader::ReadInt</text>
</a>
</g>
</g>
<!-- Node6&#45;&gt;Node8 -->
<g id="edge9" class="edge">
<title>Node6&#45;&gt;Node8</title>
<path fill="none" stroke="#63b8ff" d="M187.99,-36.97C209.37,-32.18 235.47,-26.32 258.08,-21.25"/>
<polygon fill="#63b8ff" stroke="#63b8ff" points="258.87,-24.66 267.87,-19.06 257.34,-17.83 258.87,-24.66"/>
</g>
</g>
</svg>
