<?xml version="1.0" encoding="UTF-8" standalone="no"?>
<!DOCTYPE svg PUBLIC "-//W3C//DTD SVG 1.1//EN"
 "http://www.w3.org/Graphics/SVG/1.1/DTD/svg11.dtd">
<!-- Generated by graphviz version 2.43.0 (0)
 -->
<!-- Title: TEST Pages: 1 -->
<svg width="434pt" height="27pt"
 viewBox="0.00 0.00 434.00 27.00" xmlns="http://www.w3.org/2000/svg" xmlns:xlink="http://www.w3.org/1999/xlink">
<g id="graph0" class="graph" transform="scale(1 1) rotate(0) translate(4 23)">
<title>TEST</title>
<!-- Node1 -->
<g id="node1" class="node">
<title>Node1</title>
<g id="a_node1"><a xlink:title=" ">
<polygon fill="#999999" stroke="#666666" points="41,-19 0,-19 0,0 41,0 41,-19"/>
<text text-anchor="middle" x="20.5" y="-7" font-family="Helvetica,sans-Serif" font-size="10.00">TEST</text>
</a>
</g>
</g>
<!-- Node2 -->
<g id="node2" class="node">
<title>Node2</title>
<g id="a_node2"><a xlink:href="../../d5/d99/classTLevelReader.html#aa3fd2b19c5d17f7e5b71d28780a7557c" target="_top" xlink:title=" ">
<polygon fill="white" stroke="#666666" points="247,-19 77,-19 77,0 247,0 247,-19"/>
<text text-anchor="middle" x="162" y="-7" font-family="Helvetica,sans-Serif" font-size="10.00">TLevelReader::ReadCapitanInfo</text>
</a>
</g>
</g>
<!-- Node1&#45;&gt;Node2 -->
<g id="edge1" class="edge">
<title>Node1&#45;&gt;Node2</title>
<path fill="none" stroke="#63b8ff" d="M41.19,-9.5C48.44,-9.5 57.21,-9.5 66.67,-9.5"/>
<polygon fill="#63b8ff" stroke="#63b8ff" points="66.75,-13 76.75,-9.5 66.75,-6 66.75,-13"/>
</g>
<!-- Node3 -->
<g id="node3" class="node">
<title>Node3</title>
<g id="a_node3"><a xlink:href="../../d5/d99/classTLevelReader.html#a2b97e074354c270b0502ec57d528d73b" target="_top" xlink:title=" ">
<polygon fill="white" stroke="#666666" points="426,-19 283,-19 283,0 426,0 426,-19"/>
<text text-anchor="middle" x="354.5" y="-7" font-family="Helvetica,sans-Serif" font-size="10.00">TLevelReader::ReadString</text>
</a>
</g>
</g>
<!-- Node2&#45;&gt;Node3 -->
<g id="edge2" class="edge">
<title>Node2&#45;&gt;Node3</title>
<path fill="none" stroke="#63b8ff" d="M247.11,-9.5C255.61,-9.5 264.24,-9.5 272.7,-9.5"/>
<polygon fill="#63b8ff" stroke="#63b8ff" points="272.94,-13 282.94,-9.5 272.94,-6 272.94,-13"/>
</g>
</g>
</svg>
