<?xml version="1.0" encoding="UTF-8" standalone="no"?>
<!DOCTYPE svg PUBLIC "-//W3C//DTD SVG 1.1//EN"
 "http://www.w3.org/Graphics/SVG/1.1/DTD/svg11.dtd">
<!-- Generated by graphviz version 2.43.0 (0)
 -->
<!-- Title: base/code Pages: 1 -->
<svg width="130pt" height="117pt"
 viewBox="0.00 0.00 130.00 117.00" xmlns="http://www.w3.org/2000/svg" xmlns:xlink="http://www.w3.org/1999/xlink">
<g id="graph0" class="graph" transform="scale(1 1) rotate(0) translate(4 113)">
<title>base/code</title>
<g id="clust1" class="cluster">
<title>clusterdir_e914ee4d4a44400f1fdb170cb4ead18a</title>
<g id="a_clust1"><a xlink:href="dir_e914ee4d4a44400f1fdb170cb4ead18a.html" target="_top" xlink:title="base">
<polygon fill="#edf0f7" stroke="#404040" stroke-dasharray="5,2" points="38,-47 38,-101 94,-101 94,-47 38,-47"/>
<text text-anchor="middle" x="66" y="-89" font-family="Helvetica,sans-Serif" font-size="10.00">base</text>
</a>
</g>
</g>
<!-- dir_8d75e99af85cff97a6d0d52e017181bc -->
<g id="node1" class="node">
<title>dir_8d75e99af85cff97a6d0d52e017181bc</title>
<g id="a_node1"><a xlink:href="dir_8d75e99af85cff97a6d0d52e017181bc.html" target="_top" xlink:title="code">
<polygon fill="#edf0f7" stroke="#404040" stroke-width="2" points="86,-74 46,-74 46,-55 86,-55 86,-74"/>
<text text-anchor="middle" x="66" y="-62" font-family="Helvetica,sans-Serif" font-size="10.00">code</text>
</a>
</g>
</g>
<!-- dir_32d7f900dfedca4f8c20cbc93b9303f2 -->
<g id="node2" class="node">
<title>dir_32d7f900dfedca4f8c20cbc93b9303f2</title>
<g id="a_node2"><a xlink:href="dir_32d7f900dfedca4f8c20cbc93b9303f2.html" target="_top" xlink:title="container">
<polygon fill="#edf0f7" stroke="red" points="62,-19 0,-19 0,0 62,0 62,-19"/>
<text text-anchor="middle" x="31" y="-7" font-family="Helvetica,sans-Serif" font-size="10.00">container</text>
</a>
</g>
</g>
<!-- dir_8d75e99af85cff97a6d0d52e017181bc&#45;&gt;dir_32d7f900dfedca4f8c20cbc93b9303f2 -->
<g id="edge1" class="edge">
<title>dir_8d75e99af85cff97a6d0d52e017181bc&#45;&gt;dir_32d7f900dfedca4f8c20cbc93b9303f2</title>
<path fill="none" stroke="#63b8ff" d="M60.22,-54.75C55.38,-47.42 48.32,-36.73 42.36,-27.7"/>
<polygon fill="#63b8ff" stroke="#63b8ff" points="45.1,-25.5 36.67,-19.09 39.26,-29.36 45.1,-25.5"/>
<g id="a_edge1&#45;headlabel"><a xlink:href="dir_000001_000008.html" target="_top" xlink:title="1">
<text text-anchor="middle" x="49.45" y="-24.44" font-family="Helvetica,sans-Serif" font-size="10.00" fill="#63b8ff">1</text>
</a>
</g>
</g>
<!-- dir_baee96d87e4ddaac6a32e0c5575e2245 -->
<g id="node3" class="node">
<title>dir_baee96d87e4ddaac6a32e0c5575e2245</title>
<g id="a_node3"><a xlink:href="dir_baee96d87e4ddaac6a32e0c5575e2245.html" target="_top" xlink:title="ships">
<polygon fill="#edf0f7" stroke="red" points="122,-19 80,-19 80,0 122,0 122,-19"/>
<text text-anchor="middle" x="101" y="-7" font-family="Helvetica,sans-Serif" font-size="10.00">ships</text>
</a>
</g>
</g>
<!-- dir_8d75e99af85cff97a6d0d52e017181bc&#45;&gt;dir_baee96d87e4ddaac6a32e0c5575e2245 -->
<g id="edge2" class="edge">
<title>dir_8d75e99af85cff97a6d0d52e017181bc&#45;&gt;dir_baee96d87e4ddaac6a32e0c5575e2245</title>
<path fill="none" stroke="#63b8ff" d="M71.78,-54.75C76.62,-47.42 83.68,-36.73 89.64,-27.7"/>
<polygon fill="#63b8ff" stroke="#63b8ff" points="92.74,-29.36 95.33,-19.09 86.9,-25.5 92.74,-29.36"/>
<g id="a_edge2&#45;headlabel"><a xlink:href="dir_000001_000011.html" target="_top" xlink:title="1">
<text text-anchor="middle" x="93.13" y="-31.43" font-family="Helvetica,sans-Serif" font-size="10.00" fill="#63b8ff">1</text>
</a>
</g>
</g>
</g>
</svg>
