<?xml version="1.0" encoding="UTF-8" standalone="no"?>
<!DOCTYPE svg PUBLIC "-//W3C//DTD SVG 1.1//EN"
 "http://www.w3.org/Graphics/SVG/1.1/DTD/svg11.dtd">
<!-- Generated by graphviz version 2.43.0 (0)
 -->
<!-- Title: /home/grigorijivanenko/MephiLabs/lab4/code/game/code Pages: 1 -->
<svg width="188pt" height="117pt"
 viewBox="0.00 0.00 188.00 117.00" xmlns="http://www.w3.org/2000/svg" xmlns:xlink="http://www.w3.org/1999/xlink">
<g id="graph0" class="graph" transform="scale(1 1) rotate(0) translate(4 113)">
<title>/home/grigorijivanenko/MephiLabs/lab4/code/game/code</title>
<g id="clust1" class="cluster">
<title>clusterdir_4efd5163d1ee3f9a7512f9af70643701</title>
<g id="a_clust1"><a xlink:href="dir_4efd5163d1ee3f9a7512f9af70643701.html" target="_top" xlink:title="game">
<polygon fill="#edf0f7" stroke="#7f7f7f" stroke-dasharray="5,2" points="52,-47 52,-101 108,-101 108,-47 52,-47"/>
<text text-anchor="middle" x="80" y="-89" font-family="Helvetica,sans-Serif" font-size="10.00">game</text>
</a>
</g>
</g>
<!-- dir_987d3ca7f0262b9b02bc7cc509eeed88 -->
<g id="node1" class="node">
<title>dir_987d3ca7f0262b9b02bc7cc509eeed88</title>
<g id="a_node1"><a xlink:href="dir_987d3ca7f0262b9b02bc7cc509eeed88.html" target="_top" xlink:title="code">
<polygon fill="#edf0f7" stroke="#404040" stroke-width="2" points="100,-74 60,-74 60,-55 100,-55 100,-74"/>
<text text-anchor="middle" x="80" y="-62" font-family="Helvetica,sans-Serif" font-size="10.00">code</text>
</a>
</g>
</g>
<!-- dir_3cc888f7c814468bc7c7d77cdcb67888 -->
<g id="node2" class="node">
<title>dir_3cc888f7c814468bc7c7d77cdcb67888</title>
<g id="a_node2"><a xlink:href="dir_3cc888f7c814468bc7c7d77cdcb67888.html" target="_top" xlink:title="ships">
<polygon fill="#edf0f7" stroke="red" stroke-dasharray="5,2" points="42,-19 0,-19 0,0 42,0 42,-19"/>
<text text-anchor="middle" x="21" y="-7" font-family="Helvetica,sans-Serif" font-size="10.00">ships</text>
</a>
</g>
</g>
<!-- dir_987d3ca7f0262b9b02bc7cc509eeed88&#45;&gt;dir_3cc888f7c814468bc7c7d77cdcb67888 -->
<g id="edge1" class="edge">
<title>dir_987d3ca7f0262b9b02bc7cc509eeed88&#45;&gt;dir_3cc888f7c814468bc7c7d77cdcb67888</title>
<path fill="none" stroke="#63b8ff" d="M70.52,-54.98C61.8,-47.15 48.66,-35.34 38.1,-25.86"/>
<polygon fill="#63b8ff" stroke="#63b8ff" points="40.43,-23.25 30.65,-19.17 35.75,-28.46 40.43,-23.25"/>
<g id="a_edge1&#45;headlabel"><a xlink:href="dir_000004_000012.html" target="_top" xlink:title="2">
<text text-anchor="middle" x="45" y="-21.04" font-family="Helvetica,sans-Serif" font-size="10.00" fill="#63b8ff">2</text>
</a>
</g>
</g>
<!-- dir_656ba8964e9bb427ac7dc4d2bea2e920 -->
<g id="node3" class="node">
<title>dir_656ba8964e9bb427ac7dc4d2bea2e920</title>
<g id="a_node3"><a xlink:href="dir_656ba8964e9bb427ac7dc4d2bea2e920.html" target="_top" xlink:title="base">
<polygon fill="#edf0f7" stroke="red" stroke-dasharray="5,2" points="100,-19 60,-19 60,0 100,0 100,-19"/>
<text text-anchor="middle" x="80" y="-7" font-family="Helvetica,sans-Serif" font-size="10.00">base</text>
</a>
</g>
</g>
<!-- dir_987d3ca7f0262b9b02bc7cc509eeed88&#45;&gt;dir_656ba8964e9bb427ac7dc4d2bea2e920 -->
<g id="edge2" class="edge">
<title>dir_987d3ca7f0262b9b02bc7cc509eeed88&#45;&gt;dir_656ba8964e9bb427ac7dc4d2bea2e920</title>
<path fill="none" stroke="#63b8ff" d="M80,-54.75C80,-47.8 80,-37.85 80,-29.13"/>
<polygon fill="#63b8ff" stroke="#63b8ff" points="83.5,-29.09 80,-19.09 76.5,-29.09 83.5,-29.09"/>
<g id="a_edge2&#45;headlabel"><a xlink:href="dir_000004_000000.html" target="_top" xlink:title="2">
<text text-anchor="middle" x="86.34" y="-30.18" font-family="Helvetica,sans-Serif" font-size="10.00" fill="#63b8ff">2</text>
</a>
</g>
</g>
<!-- dir_8cf1f9e2159416640eebecfadd6855c9 -->
<g id="node4" class="node">
<title>dir_8cf1f9e2159416640eebecfadd6855c9</title>
<g id="a_node4"><a xlink:href="dir_8cf1f9e2159416640eebecfadd6855c9.html" target="_top" xlink:title="container">
<polygon fill="#edf0f7" stroke="red" stroke-dasharray="5,2" points="180,-19 118,-19 118,0 180,0 180,-19"/>
<text text-anchor="middle" x="149" y="-7" font-family="Helvetica,sans-Serif" font-size="10.00">container</text>
</a>
</g>
</g>
<!-- dir_987d3ca7f0262b9b02bc7cc509eeed88&#45;&gt;dir_8cf1f9e2159416640eebecfadd6855c9 -->
<g id="edge3" class="edge">
<title>dir_987d3ca7f0262b9b02bc7cc509eeed88&#45;&gt;dir_8cf1f9e2159416640eebecfadd6855c9</title>
<path fill="none" stroke="#63b8ff" d="M91.09,-54.98C101.49,-47 117.26,-34.88 129.72,-25.31"/>
<polygon fill="#63b8ff" stroke="#63b8ff" points="131.91,-28.04 137.71,-19.17 127.65,-22.49 131.91,-28.04"/>
<g id="a_edge3&#45;headlabel"><a xlink:href="dir_000004_000009.html" target="_top" xlink:title="1">
<text text-anchor="middle" x="130.79" y="-29.98" font-family="Helvetica,sans-Serif" font-size="10.00" fill="#63b8ff">1</text>
</a>
</g>
</g>
</g>
</svg>
