<?xml version="1.0" encoding="UTF-8" standalone="no"?>
<!DOCTYPE svg PUBLIC "-//W3C//DTD SVG 1.1//EN"
 "http://www.w3.org/Graphics/SVG/1.1/DTD/svg11.dtd">
<!-- Generated by graphviz version 2.43.0 (0)
 -->
<!-- Title: code/weapons Pages: 1 -->
<svg width="176pt" height="196pt"
 viewBox="0.00 0.00 176.00 196.00" xmlns="http://www.w3.org/2000/svg" xmlns:xlink="http://www.w3.org/1999/xlink">
<g id="graph0" class="graph" transform="scale(1 1) rotate(0) translate(4 192)">
<title>code/weapons</title>
<g id="clust1" class="cluster">
<title>clusterdir_050edd66366d13764f98250ef6db77f6</title>
<g id="a_clust1"><a xlink:href="dir_050edd66366d13764f98250ef6db77f6.html" target="_top" xlink:title="code">
<polygon fill="#edf0f7" stroke="#404040" stroke-dasharray="5,2" points="8,-8 8,-180 160,-180 160,-8 8,-8"/>
<text text-anchor="middle" x="84" y="-168" font-family="Helvetica,sans-Serif" font-size="10.00">code</text>
</a>
</g>
</g>
<g id="clust2" class="cluster">
<title>clusterdir_c80c76215e4f682c35228176c929cd2e</title>
<g id="a_clust2"><a xlink:href="dir_c80c76215e4f682c35228176c929cd2e.html" target="_top">
<polygon fill="#edf0f7" stroke="#404040" stroke-width="2" points="16,-63 16,-153 152,-153 152,-63 16,-63"/>
</a>
</g>
</g>
<!-- dir_5b4c17c7e78c69085f479eca8286398a -->
<g id="node1" class="node">
<title>dir_5b4c17c7e78c69085f479eca8286398a</title>
<g id="a_node1"><a xlink:href="dir_5b4c17c7e78c69085f479eca8286398a.html" target="_top" xlink:title="enums">
<polygon fill="#a2b4d6" stroke="#404040" points="70,-35 20,-35 20,-16 70,-16 70,-35"/>
<text text-anchor="middle" x="45" y="-23" font-family="Helvetica,sans-Serif" font-size="10.00">enums</text>
</a>
</g>
</g>
<!-- dir_c80c76215e4f682c35228176c929cd2e -->
<g id="node2" class="node">
<title>dir_c80c76215e4f682c35228176c929cd2e</title>
<text text-anchor="middle" x="114" y="-133" font-family="Helvetica,sans-Serif" font-size="10.00">weapons</text>
</g>
<!-- dir_e7ec6a92a8100daabb72f63e07c72f27 -->
<g id="node3" class="node">
<title>dir_e7ec6a92a8100daabb72f63e07c72f27</title>
<g id="a_node3"><a xlink:href="dir_e7ec6a92a8100daabb72f63e07c72f27.html" target="_top" xlink:title="code">
<polygon fill="#a2b4d6" stroke="#404040" points="65,-90 25,-90 25,-71 65,-71 65,-90"/>
<text text-anchor="middle" x="45" y="-78" font-family="Helvetica,sans-Serif" font-size="10.00">code</text>
</a>
</g>
</g>
<!-- dir_e7ec6a92a8100daabb72f63e07c72f27&#45;&gt;dir_5b4c17c7e78c69085f479eca8286398a -->
<g id="edge1" class="edge">
<title>dir_e7ec6a92a8100daabb72f63e07c72f27&#45;&gt;dir_5b4c17c7e78c69085f479eca8286398a</title>
<path fill="none" stroke="#63b8ff" d="M45,-70.75C45,-63.8 45,-53.85 45,-45.13"/>
<polygon fill="#63b8ff" stroke="#63b8ff" points="48.5,-45.09 45,-35.09 41.5,-45.09 48.5,-45.09"/>
<g id="a_edge1&#45;headlabel"><a xlink:href="dir_000008_000010.html" target="_top" xlink:title="1">
<text text-anchor="middle" x="51.34" y="-46.18" font-family="Helvetica,sans-Serif" font-size="10.00" fill="#63b8ff">1</text>
</a>
</g>
</g>
<!-- dir_461b0c2d3319aadffad7d11f6ff79375 -->
<g id="node4" class="node">
<title>dir_461b0c2d3319aadffad7d11f6ff79375</title>
<g id="a_node4"><a xlink:href="dir_461b0c2d3319aadffad7d11f6ff79375.html" target="_top" xlink:title="tests">
<polygon fill="#a2b4d6" stroke="#404040" points="65.5,-145 24.5,-145 24.5,-126 65.5,-126 65.5,-145"/>
<text text-anchor="middle" x="45" y="-133" font-family="Helvetica,sans-Serif" font-size="10.00">tests</text>
</a>
</g>
</g>
<!-- dir_461b0c2d3319aadffad7d11f6ff79375&#45;&gt;dir_e7ec6a92a8100daabb72f63e07c72f27 -->
<g id="edge2" class="edge">
<title>dir_461b0c2d3319aadffad7d11f6ff79375&#45;&gt;dir_e7ec6a92a8100daabb72f63e07c72f27</title>
<path fill="none" stroke="#63b8ff" d="M45,-125.75C45,-118.8 45,-108.85 45,-100.13"/>
<polygon fill="#63b8ff" stroke="#63b8ff" points="48.5,-100.09 45,-90.09 41.5,-100.09 48.5,-100.09"/>
<g id="a_edge2&#45;headlabel"><a xlink:href="dir_000017_000008.html" target="_top" xlink:title="2">
<text text-anchor="middle" x="51.34" y="-101.18" font-family="Helvetica,sans-Serif" font-size="10.00" fill="#63b8ff">2</text>
</a>
</g>
</g>
</g>
</svg>
