<?xml version="1.0" encoding="UTF-8" standalone="no"?>
<!DOCTYPE svg PUBLIC "-//W3C//DTD SVG 1.1//EN"
 "http://www.w3.org/Graphics/SVG/1.1/DTD/svg11.dtd">
<!-- Generated by graphviz version 2.43.0 (0)
 -->
<!-- Title: base Pages: 1 -->
<svg width="159pt" height="153pt"
 viewBox="0.00 0.00 159.00 153.00" xmlns="http://www.w3.org/2000/svg" xmlns:xlink="http://www.w3.org/1999/xlink">
<g id="graph0" class="graph" transform="scale(1 1) rotate(0) translate(4 149)">
<title>base</title>
<g id="clust1" class="cluster">
<title>clusterdir_e914ee4d4a44400f1fdb170cb4ead18a</title>
<g id="a_clust1"><a xlink:href="dir_e914ee4d4a44400f1fdb170cb4ead18a.html" target="_top">
<polygon fill="#edf0f7" stroke="#404040" stroke-width="2" points="27,-47 27,-137 143,-137 143,-47 27,-47"/>
</a>
</g>
</g>
<!-- dir_e914ee4d4a44400f1fdb170cb4ead18a -->
<g id="node1" class="node">
<title>dir_e914ee4d4a44400f1fdb170cb4ead18a</title>
<text text-anchor="middle" x="115" y="-117" font-family="Helvetica,sans-Serif" font-size="10.00">base</text>
</g>
<!-- dir_8d75e99af85cff97a6d0d52e017181bc -->
<g id="node2" class="node">
<title>dir_8d75e99af85cff97a6d0d52e017181bc</title>
<g id="a_node2"><a xlink:href="dir_8d75e99af85cff97a6d0d52e017181bc.html" target="_top" xlink:title="code">
<polygon fill="#a2b4d6" stroke="#404040" points="76,-74 36,-74 36,-55 76,-55 76,-74"/>
<text text-anchor="middle" x="56" y="-62" font-family="Helvetica,sans-Serif" font-size="10.00">code</text>
</a>
</g>
</g>
<!-- dir_baee96d87e4ddaac6a32e0c5575e2245 -->
<g id="node4" class="node">
<title>dir_baee96d87e4ddaac6a32e0c5575e2245</title>
<g id="a_node4"><a xlink:href="dir_baee96d87e4ddaac6a32e0c5575e2245.html" target="_top" xlink:title="ships">
<polygon fill="#edf0f7" stroke="red" points="42,-19 0,-19 0,0 42,0 42,-19"/>
<text text-anchor="middle" x="21" y="-7" font-family="Helvetica,sans-Serif" font-size="10.00">ships</text>
</a>
</g>
</g>
<!-- dir_8d75e99af85cff97a6d0d52e017181bc&#45;&gt;dir_baee96d87e4ddaac6a32e0c5575e2245 -->
<g id="edge2" class="edge">
<title>dir_8d75e99af85cff97a6d0d52e017181bc&#45;&gt;dir_baee96d87e4ddaac6a32e0c5575e2245</title>
<path fill="none" stroke="#63b8ff" d="M50.22,-54.75C45.38,-47.42 38.32,-36.73 32.36,-27.7"/>
<polygon fill="#63b8ff" stroke="#63b8ff" points="35.1,-25.5 26.67,-19.09 29.26,-29.36 35.1,-25.5"/>
<g id="a_edge2&#45;headlabel"><a xlink:href="dir_000001_000011.html" target="_top" xlink:title="1">
<text text-anchor="middle" x="39.45" y="-24.44" font-family="Helvetica,sans-Serif" font-size="10.00" fill="#63b8ff">1</text>
</a>
</g>
</g>
<!-- dir_32d7f900dfedca4f8c20cbc93b9303f2 -->
<g id="node5" class="node">
<title>dir_32d7f900dfedca4f8c20cbc93b9303f2</title>
<g id="a_node5"><a xlink:href="dir_32d7f900dfedca4f8c20cbc93b9303f2.html" target="_top" xlink:title="container">
<polygon fill="#edf0f7" stroke="red" points="122,-19 60,-19 60,0 122,0 122,-19"/>
<text text-anchor="middle" x="91" y="-7" font-family="Helvetica,sans-Serif" font-size="10.00">container</text>
</a>
</g>
</g>
<!-- dir_8d75e99af85cff97a6d0d52e017181bc&#45;&gt;dir_32d7f900dfedca4f8c20cbc93b9303f2 -->
<g id="edge1" class="edge">
<title>dir_8d75e99af85cff97a6d0d52e017181bc&#45;&gt;dir_32d7f900dfedca4f8c20cbc93b9303f2</title>
<path fill="none" stroke="#63b8ff" d="M61.78,-54.75C66.62,-47.42 73.68,-36.73 79.64,-27.7"/>
<polygon fill="#63b8ff" stroke="#63b8ff" points="82.74,-29.36 85.33,-19.09 76.9,-25.5 82.74,-29.36"/>
<g id="a_edge1&#45;headlabel"><a xlink:href="dir_000001_000008.html" target="_top" xlink:title="1">
<text text-anchor="middle" x="83.13" y="-31.43" font-family="Helvetica,sans-Serif" font-size="10.00" fill="#63b8ff">1</text>
</a>
</g>
</g>
<!-- dir_4d3cd44b4518dd1495dd6fbfe72449e2 -->
<g id="node3" class="node">
<title>dir_4d3cd44b4518dd1495dd6fbfe72449e2</title>
<g id="a_node3"><a xlink:href="dir_4d3cd44b4518dd1495dd6fbfe72449e2.html" target="_top" xlink:title="tests">
<polygon fill="#a2b4d6" stroke="#404040" points="76.5,-129 35.5,-129 35.5,-110 76.5,-110 76.5,-129"/>
<text text-anchor="middle" x="56" y="-117" font-family="Helvetica,sans-Serif" font-size="10.00">tests</text>
</a>
</g>
</g>
<!-- dir_4d3cd44b4518dd1495dd6fbfe72449e2&#45;&gt;dir_8d75e99af85cff97a6d0d52e017181bc -->
<g id="edge3" class="edge">
<title>dir_4d3cd44b4518dd1495dd6fbfe72449e2&#45;&gt;dir_8d75e99af85cff97a6d0d52e017181bc</title>
<path fill="none" stroke="#63b8ff" d="M56,-109.75C56,-102.8 56,-92.85 56,-84.13"/>
<polygon fill="#63b8ff" stroke="#63b8ff" points="59.5,-84.09 56,-74.09 52.5,-84.09 59.5,-84.09"/>
<g id="a_edge3&#45;headlabel"><a xlink:href="dir_000012_000001.html" target="_top" xlink:title="4">
<text text-anchor="middle" x="62.34" y="-85.18" font-family="Helvetica,sans-Serif" font-size="10.00" fill="#63b8ff">4</text>
</a>
</g>
</g>
</g>
</svg>
