<?xml version="1.0" encoding="UTF-8" standalone="no"?>
<!DOCTYPE svg PUBLIC "-//W3C//DTD SVG 1.1//EN"
 "http://www.w3.org/Graphics/SVG/1.1/DTD/svg11.dtd">
<!-- Generated by graphviz version 2.43.0 (0)
 -->
<!-- Title: game Pages: 1 -->
<svg width="208pt" height="153pt"
 viewBox="0.00 0.00 208.00 153.00" xmlns="http://www.w3.org/2000/svg" xmlns:xlink="http://www.w3.org/1999/xlink">
<g id="graph0" class="graph" transform="scale(1 1) rotate(0) translate(4 149)">
<title>game</title>
<g id="clust1" class="cluster">
<title>clusterdir_37c6514aeece95293041e34c0f2e0784</title>
<g id="a_clust1"><a xlink:href="dir_37c6514aeece95293041e34c0f2e0784.html" target="_top">
<polygon fill="#edf0f7" stroke="#404040" stroke-width="2" points="72,-47 72,-137 192,-137 192,-47 72,-47"/>
</a>
</g>
</g>
<!-- dir_37c6514aeece95293041e34c0f2e0784 -->
<g id="node1" class="node">
<title>dir_37c6514aeece95293041e34c0f2e0784</title>
<text text-anchor="middle" x="162" y="-117" font-family="Helvetica,sans-Serif" font-size="10.00">game</text>
</g>
<!-- dir_5549ae4d90e701cfb8dfd694c37e87e5 -->
<g id="node2" class="node">
<title>dir_5549ae4d90e701cfb8dfd694c37e87e5</title>
<g id="a_node2"><a xlink:href="dir_5549ae4d90e701cfb8dfd694c37e87e5.html" target="_top" xlink:title="code">
<polygon fill="#a2b4d6" stroke="#404040" points="121,-74 81,-74 81,-55 121,-55 121,-74"/>
<text text-anchor="middle" x="101" y="-62" font-family="Helvetica,sans-Serif" font-size="10.00">code</text>
</a>
</g>
</g>
<!-- dir_32d7f900dfedca4f8c20cbc93b9303f2 -->
<g id="node4" class="node">
<title>dir_32d7f900dfedca4f8c20cbc93b9303f2</title>
<g id="a_node4"><a xlink:href="dir_32d7f900dfedca4f8c20cbc93b9303f2.html" target="_top" xlink:title="container">
<polygon fill="#edf0f7" stroke="red" points="62,-19 0,-19 0,0 62,0 62,-19"/>
<text text-anchor="middle" x="31" y="-7" font-family="Helvetica,sans-Serif" font-size="10.00">container</text>
</a>
</g>
</g>
<!-- dir_5549ae4d90e701cfb8dfd694c37e87e5&#45;&gt;dir_32d7f900dfedca4f8c20cbc93b9303f2 -->
<g id="edge1" class="edge">
<title>dir_5549ae4d90e701cfb8dfd694c37e87e5&#45;&gt;dir_32d7f900dfedca4f8c20cbc93b9303f2</title>
<path fill="none" stroke="#63b8ff" d="M89.75,-54.98C79.2,-47 63.2,-34.88 50.56,-25.31"/>
<polygon fill="#63b8ff" stroke="#63b8ff" points="52.54,-22.42 42.45,-19.17 48.31,-28 52.54,-22.42"/>
<g id="a_edge1&#45;headlabel"><a xlink:href="dir_000003_000008.html" target="_top" xlink:title="1">
<text text-anchor="middle" x="57.12" y="-19.82" font-family="Helvetica,sans-Serif" font-size="10.00" fill="#63b8ff">1</text>
</a>
</g>
</g>
<!-- dir_baee96d87e4ddaac6a32e0c5575e2245 -->
<g id="node5" class="node">
<title>dir_baee96d87e4ddaac6a32e0c5575e2245</title>
<g id="a_node5"><a xlink:href="dir_baee96d87e4ddaac6a32e0c5575e2245.html" target="_top" xlink:title="ships">
<polygon fill="#edf0f7" stroke="red" points="122,-19 80,-19 80,0 122,0 122,-19"/>
<text text-anchor="middle" x="101" y="-7" font-family="Helvetica,sans-Serif" font-size="10.00">ships</text>
</a>
</g>
</g>
<!-- dir_5549ae4d90e701cfb8dfd694c37e87e5&#45;&gt;dir_baee96d87e4ddaac6a32e0c5575e2245 -->
<g id="edge2" class="edge">
<title>dir_5549ae4d90e701cfb8dfd694c37e87e5&#45;&gt;dir_baee96d87e4ddaac6a32e0c5575e2245</title>
<path fill="none" stroke="#63b8ff" d="M101,-54.75C101,-47.8 101,-37.85 101,-29.13"/>
<polygon fill="#63b8ff" stroke="#63b8ff" points="104.5,-29.09 101,-19.09 97.5,-29.09 104.5,-29.09"/>
<g id="a_edge2&#45;headlabel"><a xlink:href="dir_000003_000011.html" target="_top" xlink:title="2">
<text text-anchor="middle" x="107.34" y="-30.18" font-family="Helvetica,sans-Serif" font-size="10.00" fill="#63b8ff">2</text>
</a>
</g>
</g>
<!-- dir_e914ee4d4a44400f1fdb170cb4ead18a -->
<g id="node6" class="node">
<title>dir_e914ee4d4a44400f1fdb170cb4ead18a</title>
<g id="a_node6"><a xlink:href="dir_e914ee4d4a44400f1fdb170cb4ead18a.html" target="_top" xlink:title="base">
<polygon fill="#edf0f7" stroke="red" points="180,-19 140,-19 140,0 180,0 180,-19"/>
<text text-anchor="middle" x="160" y="-7" font-family="Helvetica,sans-Serif" font-size="10.00">base</text>
</a>
</g>
</g>
<!-- dir_5549ae4d90e701cfb8dfd694c37e87e5&#45;&gt;dir_e914ee4d4a44400f1fdb170cb4ead18a -->
<g id="edge3" class="edge">
<title>dir_5549ae4d90e701cfb8dfd694c37e87e5&#45;&gt;dir_e914ee4d4a44400f1fdb170cb4ead18a</title>
<path fill="none" stroke="#63b8ff" d="M110.48,-54.98C119.2,-47.15 132.34,-35.34 142.9,-25.86"/>
<polygon fill="#63b8ff" stroke="#63b8ff" points="145.25,-28.46 150.35,-19.17 140.57,-23.25 145.25,-28.46"/>
<g id="a_edge3&#45;headlabel"><a xlink:href="dir_000003_000000.html" target="_top" xlink:title="2">
<text text-anchor="middle" x="144.47" y="-30.47" font-family="Helvetica,sans-Serif" font-size="10.00" fill="#63b8ff">2</text>
</a>
</g>
</g>
<!-- dir_2107a4fbf7a40784500ed808109a1164 -->
<g id="node3" class="node">
<title>dir_2107a4fbf7a40784500ed808109a1164</title>
<g id="a_node3"><a xlink:href="dir_2107a4fbf7a40784500ed808109a1164.html" target="_top" xlink:title="tests">
<polygon fill="#a2b4d6" stroke="#404040" points="121.5,-129 80.5,-129 80.5,-110 121.5,-110 121.5,-129"/>
<text text-anchor="middle" x="101" y="-117" font-family="Helvetica,sans-Serif" font-size="10.00">tests</text>
</a>
</g>
</g>
<!-- dir_2107a4fbf7a40784500ed808109a1164&#45;&gt;dir_5549ae4d90e701cfb8dfd694c37e87e5 -->
<g id="edge4" class="edge">
<title>dir_2107a4fbf7a40784500ed808109a1164&#45;&gt;dir_5549ae4d90e701cfb8dfd694c37e87e5</title>
<path fill="none" stroke="#63b8ff" d="M101,-109.75C101,-102.8 101,-92.85 101,-84.13"/>
<polygon fill="#63b8ff" stroke="#63b8ff" points="104.5,-84.09 101,-74.09 97.5,-84.09 104.5,-84.09"/>
<g id="a_edge4&#45;headlabel"><a xlink:href="dir_000014_000003.html" target="_top" xlink:title="2">
<text text-anchor="middle" x="107.34" y="-85.18" font-family="Helvetica,sans-Serif" font-size="10.00" fill="#63b8ff">2</text>
</a>
</g>
</g>
</g>
</svg>
