<?xml version="1.0" encoding="UTF-8" standalone="no"?>
<!DOCTYPE svg PUBLIC "-//W3C//DTD SVG 1.1//EN"
 "http://www.w3.org/Graphics/SVG/1.1/DTD/svg11.dtd">
<!-- Generated by graphviz version 2.43.0 (0)
 -->
<!-- Title: code/game Pages: 1 -->
<svg width="220pt" height="196pt"
 viewBox="0.00 0.00 220.00 196.00" xmlns="http://www.w3.org/2000/svg" xmlns:xlink="http://www.w3.org/1999/xlink">
<g id="graph0" class="graph" transform="scale(1 1) rotate(0) translate(4 192)">
<title>code/game</title>
<g id="clust1" class="cluster">
<title>clusterdir_050edd66366d13764f98250ef6db77f6</title>
<g id="a_clust1"><a xlink:href="dir_050edd66366d13764f98250ef6db77f6.html" target="_top" xlink:title="code">
<polygon fill="#edf0f7" stroke="#404040" stroke-dasharray="5,2" points="8,-8 8,-180 204,-180 204,-8 8,-8"/>
<text text-anchor="middle" x="106" y="-168" font-family="Helvetica,sans-Serif" font-size="10.00">code</text>
</a>
</g>
</g>
<g id="clust2" class="cluster">
<title>clusterdir_4efd5163d1ee3f9a7512f9af70643701</title>
<g id="a_clust2"><a xlink:href="dir_4efd5163d1ee3f9a7512f9af70643701.html" target="_top">
<polygon fill="#edf0f7" stroke="#404040" stroke-width="2" points="67,-63 67,-153 187,-153 187,-63 67,-63"/>
</a>
</g>
</g>
<!-- dir_3cc888f7c814468bc7c7d77cdcb67888 -->
<g id="node1" class="node">
<title>dir_3cc888f7c814468bc7c7d77cdcb67888</title>
<g id="a_node1"><a xlink:href="dir_3cc888f7c814468bc7c7d77cdcb67888.html" target="_top" xlink:title="ships">
<polygon fill="#a2b4d6" stroke="red" points="58,-35 16,-35 16,-16 58,-16 58,-35"/>
<text text-anchor="middle" x="37" y="-23" font-family="Helvetica,sans-Serif" font-size="10.00">ships</text>
</a>
</g>
</g>
<!-- dir_656ba8964e9bb427ac7dc4d2bea2e920 -->
<g id="node2" class="node">
<title>dir_656ba8964e9bb427ac7dc4d2bea2e920</title>
<g id="a_node2"><a xlink:href="dir_656ba8964e9bb427ac7dc4d2bea2e920.html" target="_top" xlink:title="base">
<polygon fill="#a2b4d6" stroke="red" points="116,-35 76,-35 76,-16 116,-16 116,-35"/>
<text text-anchor="middle" x="96" y="-23" font-family="Helvetica,sans-Serif" font-size="10.00">base</text>
</a>
</g>
</g>
<!-- dir_8cf1f9e2159416640eebecfadd6855c9 -->
<g id="node3" class="node">
<title>dir_8cf1f9e2159416640eebecfadd6855c9</title>
<g id="a_node3"><a xlink:href="dir_8cf1f9e2159416640eebecfadd6855c9.html" target="_top" xlink:title="container">
<polygon fill="#a2b4d6" stroke="red" points="196,-35 134,-35 134,-16 196,-16 196,-35"/>
<text text-anchor="middle" x="165" y="-23" font-family="Helvetica,sans-Serif" font-size="10.00">container</text>
</a>
</g>
</g>
<!-- dir_4efd5163d1ee3f9a7512f9af70643701 -->
<g id="node4" class="node">
<title>dir_4efd5163d1ee3f9a7512f9af70643701</title>
<text text-anchor="middle" x="157" y="-133" font-family="Helvetica,sans-Serif" font-size="10.00">game</text>
</g>
<!-- dir_987d3ca7f0262b9b02bc7cc509eeed88 -->
<g id="node5" class="node">
<title>dir_987d3ca7f0262b9b02bc7cc509eeed88</title>
<g id="a_node5"><a xlink:href="dir_987d3ca7f0262b9b02bc7cc509eeed88.html" target="_top" xlink:title="code">
<polygon fill="#a2b4d6" stroke="#404040" points="116,-90 76,-90 76,-71 116,-71 116,-90"/>
<text text-anchor="middle" x="96" y="-78" font-family="Helvetica,sans-Serif" font-size="10.00">code</text>
</a>
</g>
</g>
<!-- dir_987d3ca7f0262b9b02bc7cc509eeed88&#45;&gt;dir_3cc888f7c814468bc7c7d77cdcb67888 -->
<g id="edge1" class="edge">
<title>dir_987d3ca7f0262b9b02bc7cc509eeed88&#45;&gt;dir_3cc888f7c814468bc7c7d77cdcb67888</title>
<path fill="none" stroke="#63b8ff" d="M86.52,-70.98C77.8,-63.15 64.66,-51.34 54.1,-41.86"/>
<polygon fill="#63b8ff" stroke="#63b8ff" points="56.43,-39.25 46.65,-35.17 51.75,-44.46 56.43,-39.25"/>
<g id="a_edge1&#45;headlabel"><a xlink:href="dir_000004_000012.html" target="_top" xlink:title="2">
<text text-anchor="middle" x="61" y="-37.04" font-family="Helvetica,sans-Serif" font-size="10.00" fill="#63b8ff">2</text>
</a>
</g>
</g>
<!-- dir_987d3ca7f0262b9b02bc7cc509eeed88&#45;&gt;dir_656ba8964e9bb427ac7dc4d2bea2e920 -->
<g id="edge2" class="edge">
<title>dir_987d3ca7f0262b9b02bc7cc509eeed88&#45;&gt;dir_656ba8964e9bb427ac7dc4d2bea2e920</title>
<path fill="none" stroke="#63b8ff" d="M96,-70.75C96,-63.8 96,-53.85 96,-45.13"/>
<polygon fill="#63b8ff" stroke="#63b8ff" points="99.5,-45.09 96,-35.09 92.5,-45.09 99.5,-45.09"/>
<g id="a_edge2&#45;headlabel"><a xlink:href="dir_000004_000000.html" target="_top" xlink:title="2">
<text text-anchor="middle" x="102.34" y="-46.18" font-family="Helvetica,sans-Serif" font-size="10.00" fill="#63b8ff">2</text>
</a>
</g>
</g>
<!-- dir_987d3ca7f0262b9b02bc7cc509eeed88&#45;&gt;dir_8cf1f9e2159416640eebecfadd6855c9 -->
<g id="edge3" class="edge">
<title>dir_987d3ca7f0262b9b02bc7cc509eeed88&#45;&gt;dir_8cf1f9e2159416640eebecfadd6855c9</title>
<path fill="none" stroke="#63b8ff" d="M107.09,-70.98C117.49,-63 133.26,-50.88 145.72,-41.31"/>
<polygon fill="#63b8ff" stroke="#63b8ff" points="147.91,-44.04 153.71,-35.17 143.65,-38.49 147.91,-44.04"/>
<g id="a_edge3&#45;headlabel"><a xlink:href="dir_000004_000009.html" target="_top" xlink:title="1">
<text text-anchor="middle" x="146.79" y="-45.98" font-family="Helvetica,sans-Serif" font-size="10.00" fill="#63b8ff">1</text>
</a>
</g>
</g>
<!-- dir_c29a97b50c0dfdcfa18ab74b7880fcba -->
<g id="node6" class="node">
<title>dir_c29a97b50c0dfdcfa18ab74b7880fcba</title>
<g id="a_node6"><a xlink:href="dir_c29a97b50c0dfdcfa18ab74b7880fcba.html" target="_top" xlink:title="tests">
<polygon fill="#a2b4d6" stroke="#404040" points="116.5,-145 75.5,-145 75.5,-126 116.5,-126 116.5,-145"/>
<text text-anchor="middle" x="96" y="-133" font-family="Helvetica,sans-Serif" font-size="10.00">tests</text>
</a>
</g>
</g>
<!-- dir_c29a97b50c0dfdcfa18ab74b7880fcba&#45;&gt;dir_987d3ca7f0262b9b02bc7cc509eeed88 -->
<g id="edge4" class="edge">
<title>dir_c29a97b50c0dfdcfa18ab74b7880fcba&#45;&gt;dir_987d3ca7f0262b9b02bc7cc509eeed88</title>
<path fill="none" stroke="#63b8ff" d="M96,-125.75C96,-118.8 96,-108.85 96,-100.13"/>
<polygon fill="#63b8ff" stroke="#63b8ff" points="99.5,-100.09 96,-90.09 92.5,-100.09 99.5,-100.09"/>
<g id="a_edge4&#45;headlabel"><a xlink:href="dir_000015_000004.html" target="_top" xlink:title="2">
<text text-anchor="middle" x="102.34" y="-101.18" font-family="Helvetica,sans-Serif" font-size="10.00" fill="#63b8ff">2</text>
</a>
</g>
</g>
</g>
</svg>
