<?xml version="1.0" encoding="UTF-8" standalone="no"?>
<!DOCTYPE svg PUBLIC "-//W3C//DTD SVG 1.1//EN"
 "http://www.w3.org/Graphics/SVG/1.1/DTD/svg11.dtd">
<!-- Generated by graphviz version 2.43.0 (0)
 -->
<!-- Title: code Pages: 1 -->
<svg width="142pt" height="334pt"
 viewBox="0.00 0.00 142.00 334.00" xmlns="http://www.w3.org/2000/svg" xmlns:xlink="http://www.w3.org/1999/xlink">
<g id="graph0" class="graph" transform="scale(1 1) rotate(0) translate(4 330)">
<title>code</title>
<g id="clust1" class="cluster">
<title>clusterdir_050edd66366d13764f98250ef6db77f6</title>
<g id="a_clust1"><a xlink:href="dir_050edd66366d13764f98250ef6db77f6.html" target="_top">
<polygon fill="#edf0f7" stroke="#404040" stroke-width="2" points="8,-8 8,-318 126,-318 126,-8 8,-8"/>
</a>
</g>
</g>
<!-- dir_050edd66366d13764f98250ef6db77f6 -->
<g id="node1" class="node">
<title>dir_050edd66366d13764f98250ef6db77f6</title>
<text text-anchor="middle" x="98" y="-298" font-family="Helvetica,sans-Serif" font-size="10.00">code</text>
</g>
<!-- dir_656ba8964e9bb427ac7dc4d2bea2e920 -->
<g id="node2" class="node">
<title>dir_656ba8964e9bb427ac7dc4d2bea2e920</title>
<g id="a_node2"><a xlink:href="dir_656ba8964e9bb427ac7dc4d2bea2e920.html" target="_top" xlink:title="base">
<polygon fill="#a2b4d6" stroke="#404040" points="56,-255 16,-255 16,-236 56,-236 56,-255"/>
<text text-anchor="middle" x="36" y="-243" font-family="Helvetica,sans-Serif" font-size="10.00">base</text>
</a>
</g>
</g>
<!-- dir_8cf1f9e2159416640eebecfadd6855c9 -->
<g id="node3" class="node">
<title>dir_8cf1f9e2159416640eebecfadd6855c9</title>
<g id="a_node3"><a xlink:href="dir_8cf1f9e2159416640eebecfadd6855c9.html" target="_top" xlink:title="container">
<polygon fill="#a2b4d6" stroke="#404040" points="98,-200 36,-200 36,-181 98,-181 98,-200"/>
<text text-anchor="middle" x="67" y="-188" font-family="Helvetica,sans-Serif" font-size="10.00">container</text>
</a>
</g>
</g>
<!-- dir_656ba8964e9bb427ac7dc4d2bea2e920&#45;&gt;dir_8cf1f9e2159416640eebecfadd6855c9 -->
<g id="edge2" class="edge">
<title>dir_656ba8964e9bb427ac7dc4d2bea2e920&#45;&gt;dir_8cf1f9e2159416640eebecfadd6855c9</title>
<path fill="none" stroke="#63b8ff" d="M41.12,-235.75C45.36,-228.49 51.53,-217.95 56.78,-208.98"/>
<polygon fill="#63b8ff" stroke="#63b8ff" points="59.95,-210.49 61.98,-200.09 53.91,-206.95 59.95,-210.49"/>
<g id="a_edge2&#45;headlabel"><a xlink:href="dir_000000_000009.html" target="_top" xlink:title="1">
<text text-anchor="middle" x="60.58" y="-212.52" font-family="Helvetica,sans-Serif" font-size="10.00" fill="#63b8ff">1</text>
</a>
</g>
</g>
<!-- dir_3cc888f7c814468bc7c7d77cdcb67888 -->
<g id="node6" class="node">
<title>dir_3cc888f7c814468bc7c7d77cdcb67888</title>
<g id="a_node6"><a xlink:href="dir_3cc888f7c814468bc7c7d77cdcb67888.html" target="_top" xlink:title="ships">
<polygon fill="#a2b4d6" stroke="#404040" points="77,-145 35,-145 35,-126 77,-126 77,-145"/>
<text text-anchor="middle" x="56" y="-133" font-family="Helvetica,sans-Serif" font-size="10.00">ships</text>
</a>
</g>
</g>
<!-- dir_656ba8964e9bb427ac7dc4d2bea2e920&#45;&gt;dir_3cc888f7c814468bc7c7d77cdcb67888 -->
<g id="edge1" class="edge">
<title>dir_656ba8964e9bb427ac7dc4d2bea2e920&#45;&gt;dir_3cc888f7c814468bc7c7d77cdcb67888</title>
<path fill="none" stroke="#63b8ff" d="M26.46,-235.7C18.91,-223.28 12.36,-200 18,-181 21.04,-170.77 27.26,-160.69 34,-152.71"/>
<polygon fill="#63b8ff" stroke="#63b8ff" points="36.74,-154.91 41.09,-145.25 31.67,-150.09 36.74,-154.91"/>
<g id="a_edge1&#45;headlabel"><a xlink:href="dir_000000_000012.html" target="_top" xlink:title="1">
<text text-anchor="middle" x="36.32" y="-156.97" font-family="Helvetica,sans-Serif" font-size="10.00" fill="#63b8ff">1</text>
</a>
</g>
</g>
<!-- dir_8cf1f9e2159416640eebecfadd6855c9&#45;&gt;dir_3cc888f7c814468bc7c7d77cdcb67888 -->
<g id="edge3" class="edge">
<title>dir_8cf1f9e2159416640eebecfadd6855c9&#45;&gt;dir_3cc888f7c814468bc7c7d77cdcb67888</title>
<path fill="none" stroke="#63b8ff" d="M65.18,-180.75C63.74,-173.8 61.68,-163.85 59.87,-155.13"/>
<polygon fill="#63b8ff" stroke="#63b8ff" points="63.24,-154.17 57.78,-145.09 56.39,-155.59 63.24,-154.17"/>
<g id="a_edge3&#45;headlabel"><a xlink:href="dir_000009_000012.html" target="_top" xlink:title="1">
<text text-anchor="middle" x="66.75" y="-154.61" font-family="Helvetica,sans-Serif" font-size="10.00" fill="#63b8ff">1</text>
</a>
</g>
</g>
<!-- dir_5b4c17c7e78c69085f479eca8286398a -->
<g id="node4" class="node">
<title>dir_5b4c17c7e78c69085f479eca8286398a</title>
<g id="a_node4"><a xlink:href="dir_5b4c17c7e78c69085f479eca8286398a.html" target="_top" xlink:title="enums">
<polygon fill="#a2b4d6" stroke="#404040" points="81,-35 31,-35 31,-16 81,-16 81,-35"/>
<text text-anchor="middle" x="56" y="-23" font-family="Helvetica,sans-Serif" font-size="10.00">enums</text>
</a>
</g>
</g>
<!-- dir_4efd5163d1ee3f9a7512f9af70643701 -->
<g id="node5" class="node">
<title>dir_4efd5163d1ee3f9a7512f9af70643701</title>
<g id="a_node5"><a xlink:href="dir_4efd5163d1ee3f9a7512f9af70643701.html" target="_top" xlink:title="game">
<polygon fill="#a2b4d6" stroke="#404040" points="60,-310 16,-310 16,-291 60,-291 60,-310"/>
<text text-anchor="middle" x="38" y="-298" font-family="Helvetica,sans-Serif" font-size="10.00">game</text>
</a>
</g>
</g>
<!-- dir_4efd5163d1ee3f9a7512f9af70643701&#45;&gt;dir_656ba8964e9bb427ac7dc4d2bea2e920 -->
<g id="edge5" class="edge">
<title>dir_4efd5163d1ee3f9a7512f9af70643701&#45;&gt;dir_656ba8964e9bb427ac7dc4d2bea2e920</title>
<path fill="none" stroke="#63b8ff" d="M37.67,-290.75C37.41,-283.8 37.03,-273.85 36.7,-265.13"/>
<polygon fill="#63b8ff" stroke="#63b8ff" points="40.2,-264.95 36.32,-255.09 33.2,-265.21 40.2,-264.95"/>
<g id="a_edge5&#45;headlabel"><a xlink:href="dir_000011_000000.html" target="_top" xlink:title="2">
<text text-anchor="middle" x="43.17" y="-265.93" font-family="Helvetica,sans-Serif" font-size="10.00" fill="#63b8ff">2</text>
</a>
</g>
</g>
<!-- dir_4efd5163d1ee3f9a7512f9af70643701&#45;&gt;dir_8cf1f9e2159416640eebecfadd6855c9 -->
<g id="edge6" class="edge">
<title>dir_4efd5163d1ee3f9a7512f9af70643701&#45;&gt;dir_8cf1f9e2159416640eebecfadd6855c9</title>
<path fill="none" stroke="#63b8ff" d="M45.06,-290.95C51.61,-282.43 60.94,-268.69 65,-255 69.32,-240.44 69.57,-223.18 68.88,-210.33"/>
<polygon fill="#63b8ff" stroke="#63b8ff" points="72.37,-210.05 68.11,-200.35 65.39,-210.59 72.37,-210.05"/>
<g id="a_edge6&#45;headlabel"><a xlink:href="dir_000011_000009.html" target="_top" xlink:title="1">
<text text-anchor="middle" x="75.48" y="-210.92" font-family="Helvetica,sans-Serif" font-size="10.00" fill="#63b8ff">1</text>
</a>
</g>
</g>
<!-- dir_4efd5163d1ee3f9a7512f9af70643701&#45;&gt;dir_3cc888f7c814468bc7c7d77cdcb67888 -->
<g id="edge4" class="edge">
<title>dir_4efd5163d1ee3f9a7512f9af70643701&#45;&gt;dir_3cc888f7c814468bc7c7d77cdcb67888</title>
<path fill="none" stroke="#63b8ff" d="M46.87,-290.96C62.76,-274.93 95.53,-238.48 107,-200 109.41,-191.91 110.49,-188.69 107,-181 101.38,-168.63 90.43,-158.36 80.11,-150.81"/>
<polygon fill="#63b8ff" stroke="#63b8ff" points="81.97,-147.84 71.73,-145.12 78.04,-153.63 81.97,-147.84"/>
<g id="a_edge4&#45;headlabel"><a xlink:href="dir_000011_000012.html" target="_top" xlink:title="2">
<text text-anchor="middle" x="86.54" y="-145.01" font-family="Helvetica,sans-Serif" font-size="10.00" fill="#63b8ff">2</text>
</a>
</g>
</g>
<!-- dir_3cc888f7c814468bc7c7d77cdcb67888&#45;&gt;dir_656ba8964e9bb427ac7dc4d2bea2e920 -->
<g id="edge7" class="edge">
<title>dir_3cc888f7c814468bc7c7d77cdcb67888&#45;&gt;dir_656ba8964e9bb427ac7dc4d2bea2e920</title>
<path fill="none" stroke="#63b8ff" d="M55.02,-145.25C49.97,-153.7 40.1,-167.21 36,-181 31.63,-195.69 34.57,-212.95 36.81,-225.76"/>
<polygon fill="#63b8ff" stroke="#63b8ff" points="33.37,-226.38 38.41,-235.7 40.28,-225.27 33.37,-226.38"/>
<g id="a_edge7&#45;headlabel"><a xlink:href="dir_000012_000000.html" target="_top" xlink:title="1">
<text text-anchor="middle" x="29.99" y="-220.78" font-family="Helvetica,sans-Serif" font-size="10.00" fill="#63b8ff">1</text>
</a>
</g>
</g>
<!-- dir_c80c76215e4f682c35228176c929cd2e -->
<g id="node7" class="node">
<title>dir_c80c76215e4f682c35228176c929cd2e</title>
<g id="a_node7"><a xlink:href="dir_c80c76215e4f682c35228176c929cd2e.html" target="_top" xlink:title="weapons">
<polygon fill="#a2b4d6" stroke="#404040" points="86,-90 26,-90 26,-71 86,-71 86,-90"/>
<text text-anchor="middle" x="56" y="-78" font-family="Helvetica,sans-Serif" font-size="10.00">weapons</text>
</a>
</g>
</g>
<!-- dir_3cc888f7c814468bc7c7d77cdcb67888&#45;&gt;dir_c80c76215e4f682c35228176c929cd2e -->
<g id="edge8" class="edge">
<title>dir_3cc888f7c814468bc7c7d77cdcb67888&#45;&gt;dir_c80c76215e4f682c35228176c929cd2e</title>
<path fill="none" stroke="#63b8ff" d="M56,-125.75C56,-118.8 56,-108.85 56,-100.13"/>
<polygon fill="#63b8ff" stroke="#63b8ff" points="59.5,-100.09 56,-90.09 52.5,-100.09 59.5,-100.09"/>
<g id="a_edge8&#45;headlabel"><a xlink:href="dir_000012_000020.html" target="_top" xlink:title="1">
<text text-anchor="middle" x="62.34" y="-101.18" font-family="Helvetica,sans-Serif" font-size="10.00" fill="#63b8ff">1</text>
</a>
</g>
</g>
<!-- dir_c80c76215e4f682c35228176c929cd2e&#45;&gt;dir_5b4c17c7e78c69085f479eca8286398a -->
<g id="edge9" class="edge">
<title>dir_c80c76215e4f682c35228176c929cd2e&#45;&gt;dir_5b4c17c7e78c69085f479eca8286398a</title>
<path fill="none" stroke="#63b8ff" d="M56,-70.75C56,-63.8 56,-53.85 56,-45.13"/>
<polygon fill="#63b8ff" stroke="#63b8ff" points="59.5,-45.09 56,-35.09 52.5,-45.09 59.5,-45.09"/>
<g id="a_edge9&#45;headlabel"><a xlink:href="dir_000020_000010.html" target="_top" xlink:title="1">
<text text-anchor="middle" x="62.34" y="-46.18" font-family="Helvetica,sans-Serif" font-size="10.00" fill="#63b8ff">1</text>
</a>
</g>
</g>
</g>
</svg>
