<?xml version="1.0" encoding="UTF-8" standalone="no"?>
<!DOCTYPE svg PUBLIC "-//W3C//DTD SVG 1.1//EN"
 "http://www.w3.org/Graphics/SVG/1.1/DTD/svg11.dtd">
<!-- Generated by graphviz version 2.43.0 (0)
 -->
<!-- Title: code/ships Pages: 1 -->
<svg width="158pt" height="196pt"
 viewBox="0.00 0.00 158.00 196.00" xmlns="http://www.w3.org/2000/svg" xmlns:xlink="http://www.w3.org/1999/xlink">
<g id="graph0" class="graph" transform="scale(1 1) rotate(0) translate(4 192)">
<title>code/ships</title>
<g id="clust1" class="cluster">
<title>clusterdir_050edd66366d13764f98250ef6db77f6</title>
<g id="a_clust1"><a xlink:href="dir_050edd66366d13764f98250ef6db77f6.html" target="_top" xlink:title="code">
<polygon fill="#edf0f7" stroke="#404040" stroke-dasharray="5,2" points="8,-8 8,-180 142,-180 142,-8 8,-8"/>
<text text-anchor="middle" x="75" y="-168" font-family="Helvetica,sans-Serif" font-size="10.00">code</text>
</a>
</g>
</g>
<g id="clust2" class="cluster">
<title>clusterdir_3cc888f7c814468bc7c7d77cdcb67888</title>
<g id="a_clust2"><a xlink:href="dir_3cc888f7c814468bc7c7d77cdcb67888.html" target="_top">
<polygon fill="#edf0f7" stroke="#404040" stroke-width="2" points="16,-63 16,-153 134,-153 134,-63 16,-63"/>
</a>
</g>
</g>
<!-- dir_656ba8964e9bb427ac7dc4d2bea2e920 -->
<g id="node1" class="node">
<title>dir_656ba8964e9bb427ac7dc4d2bea2e920</title>
<g id="a_node1"><a xlink:href="dir_656ba8964e9bb427ac7dc4d2bea2e920.html" target="_top" xlink:title="base">
<polygon fill="#a2b4d6" stroke="red" points="56,-35 16,-35 16,-16 56,-16 56,-35"/>
<text text-anchor="middle" x="36" y="-23" font-family="Helvetica,sans-Serif" font-size="10.00">base</text>
</a>
</g>
</g>
<!-- dir_c80c76215e4f682c35228176c929cd2e -->
<g id="node2" class="node">
<title>dir_c80c76215e4f682c35228176c929cd2e</title>
<g id="a_node2"><a xlink:href="dir_c80c76215e4f682c35228176c929cd2e.html" target="_top" xlink:title="weapons">
<polygon fill="#a2b4d6" stroke="red" points="134,-35 74,-35 74,-16 134,-16 134,-35"/>
<text text-anchor="middle" x="104" y="-23" font-family="Helvetica,sans-Serif" font-size="10.00">weapons</text>
</a>
</g>
</g>
<!-- dir_3cc888f7c814468bc7c7d77cdcb67888 -->
<g id="node3" class="node">
<title>dir_3cc888f7c814468bc7c7d77cdcb67888</title>
<text text-anchor="middle" x="105" y="-133" font-family="Helvetica,sans-Serif" font-size="10.00">ships</text>
</g>
<!-- dir_7a26c909665eb0afe4fbe77d37903053 -->
<g id="node4" class="node">
<title>dir_7a26c909665eb0afe4fbe77d37903053</title>
<g id="a_node4"><a xlink:href="dir_7a26c909665eb0afe4fbe77d37903053.html" target="_top" xlink:title="code">
<polygon fill="#a2b4d6" stroke="#404040" points="65,-90 25,-90 25,-71 65,-71 65,-90"/>
<text text-anchor="middle" x="45" y="-78" font-family="Helvetica,sans-Serif" font-size="10.00">code</text>
</a>
</g>
</g>
<!-- dir_7a26c909665eb0afe4fbe77d37903053&#45;&gt;dir_656ba8964e9bb427ac7dc4d2bea2e920 -->
<g id="edge1" class="edge">
<title>dir_7a26c909665eb0afe4fbe77d37903053&#45;&gt;dir_656ba8964e9bb427ac7dc4d2bea2e920</title>
<path fill="none" stroke="#63b8ff" d="M43.51,-70.75C42.33,-63.8 40.64,-53.85 39.16,-45.13"/>
<polygon fill="#63b8ff" stroke="#63b8ff" points="42.58,-44.36 37.46,-35.09 35.68,-45.53 42.58,-44.36"/>
<g id="a_edge1&#45;headlabel"><a xlink:href="dir_000007_000000.html" target="_top" xlink:title="1">
<text text-anchor="middle" x="45.98" y="-44.93" font-family="Helvetica,sans-Serif" font-size="10.00" fill="#63b8ff">1</text>
</a>
</g>
</g>
<!-- dir_7a26c909665eb0afe4fbe77d37903053&#45;&gt;dir_c80c76215e4f682c35228176c929cd2e -->
<g id="edge2" class="edge">
<title>dir_7a26c909665eb0afe4fbe77d37903053&#45;&gt;dir_c80c76215e4f682c35228176c929cd2e</title>
<path fill="none" stroke="#63b8ff" d="M54.48,-70.98C63.2,-63.15 76.34,-51.34 86.9,-41.86"/>
<polygon fill="#63b8ff" stroke="#63b8ff" points="89.25,-44.46 94.35,-35.17 84.57,-39.25 89.25,-44.46"/>
<g id="a_edge2&#45;headlabel"><a xlink:href="dir_000007_000020.html" target="_top" xlink:title="1">
<text text-anchor="middle" x="88.47" y="-46.47" font-family="Helvetica,sans-Serif" font-size="10.00" fill="#63b8ff">1</text>
</a>
</g>
</g>
<!-- dir_62394970521111f5e5e2ccb04c0a0241 -->
<g id="node5" class="node">
<title>dir_62394970521111f5e5e2ccb04c0a0241</title>
<g id="a_node5"><a xlink:href="dir_62394970521111f5e5e2ccb04c0a0241.html" target="_top" xlink:title="tests">
<polygon fill="#a2b4d6" stroke="#404040" points="65.5,-145 24.5,-145 24.5,-126 65.5,-126 65.5,-145"/>
<text text-anchor="middle" x="45" y="-133" font-family="Helvetica,sans-Serif" font-size="10.00">tests</text>
</a>
</g>
</g>
<!-- dir_62394970521111f5e5e2ccb04c0a0241&#45;&gt;dir_7a26c909665eb0afe4fbe77d37903053 -->
<g id="edge3" class="edge">
<title>dir_62394970521111f5e5e2ccb04c0a0241&#45;&gt;dir_7a26c909665eb0afe4fbe77d37903053</title>
<path fill="none" stroke="#63b8ff" d="M45,-125.75C45,-118.8 45,-108.85 45,-100.13"/>
<polygon fill="#63b8ff" stroke="#63b8ff" points="48.5,-100.09 45,-90.09 41.5,-100.09 48.5,-100.09"/>
<g id="a_edge3&#45;headlabel"><a xlink:href="dir_000016_000007.html" target="_top" xlink:title="5">
<text text-anchor="middle" x="51.34" y="-101.18" font-family="Helvetica,sans-Serif" font-size="10.00" fill="#63b8ff">5</text>
</a>
</g>
</g>
</g>
</svg>
