<?xml version="1.0" encoding="UTF-8" standalone="no"?>
<!DOCTYPE svg PUBLIC "-//W3C//DTD SVG 1.1//EN"
 "http://www.w3.org/Graphics/SVG/1.1/DTD/svg11.dtd">
<!-- Generated by graphviz version 2.43.0 (0)
 -->
<!-- Title: code/base Pages: 1 -->
<svg width="162pt" height="196pt"
 viewBox="0.00 0.00 162.00 196.00" xmlns="http://www.w3.org/2000/svg" xmlns:xlink="http://www.w3.org/1999/xlink">
<g id="graph0" class="graph" transform="scale(1 1) rotate(0) translate(4 192)">
<title>code/base</title>
<g id="clust1" class="cluster">
<title>clusterdir_050edd66366d13764f98250ef6db77f6</title>
<g id="a_clust1"><a xlink:href="dir_050edd66366d13764f98250ef6db77f6.html" target="_top" xlink:title="code">
<polygon fill="#edf0f7" stroke="#404040" stroke-dasharray="5,2" points="8,-8 8,-180 146,-180 146,-8 8,-8"/>
<text text-anchor="middle" x="77" y="-168" font-family="Helvetica,sans-Serif" font-size="10.00">code</text>
</a>
</g>
</g>
<g id="clust2" class="cluster">
<title>clusterdir_656ba8964e9bb427ac7dc4d2bea2e920</title>
<g id="a_clust2"><a xlink:href="dir_656ba8964e9bb427ac7dc4d2bea2e920.html" target="_top">
<polygon fill="#edf0f7" stroke="#404040" stroke-width="2" points="19,-63 19,-153 135,-153 135,-63 19,-63"/>
</a>
</g>
</g>
<!-- dir_3cc888f7c814468bc7c7d77cdcb67888 -->
<g id="node1" class="node">
<title>dir_3cc888f7c814468bc7c7d77cdcb67888</title>
<g id="a_node1"><a xlink:href="dir_3cc888f7c814468bc7c7d77cdcb67888.html" target="_top" xlink:title="ships">
<polygon fill="#a2b4d6" stroke="red" points="58,-35 16,-35 16,-16 58,-16 58,-35"/>
<text text-anchor="middle" x="37" y="-23" font-family="Helvetica,sans-Serif" font-size="10.00">ships</text>
</a>
</g>
</g>
<!-- dir_8cf1f9e2159416640eebecfadd6855c9 -->
<g id="node2" class="node">
<title>dir_8cf1f9e2159416640eebecfadd6855c9</title>
<g id="a_node2"><a xlink:href="dir_8cf1f9e2159416640eebecfadd6855c9.html" target="_top" xlink:title="container">
<polygon fill="#a2b4d6" stroke="red" points="138,-35 76,-35 76,-16 138,-16 138,-35"/>
<text text-anchor="middle" x="107" y="-23" font-family="Helvetica,sans-Serif" font-size="10.00">container</text>
</a>
</g>
</g>
<!-- dir_656ba8964e9bb427ac7dc4d2bea2e920 -->
<g id="node3" class="node">
<title>dir_656ba8964e9bb427ac7dc4d2bea2e920</title>
<text text-anchor="middle" x="107" y="-133" font-family="Helvetica,sans-Serif" font-size="10.00">base</text>
</g>
<!-- dir_2038045c51b3a2af0d9487be6ccdade9 -->
<g id="node4" class="node">
<title>dir_2038045c51b3a2af0d9487be6ccdade9</title>
<g id="a_node4"><a xlink:href="dir_2038045c51b3a2af0d9487be6ccdade9.html" target="_top" xlink:title="code">
<polygon fill="#a2b4d6" stroke="#404040" points="68,-90 28,-90 28,-71 68,-71 68,-90"/>
<text text-anchor="middle" x="48" y="-78" font-family="Helvetica,sans-Serif" font-size="10.00">code</text>
</a>
</g>
</g>
<!-- dir_2038045c51b3a2af0d9487be6ccdade9&#45;&gt;dir_3cc888f7c814468bc7c7d77cdcb67888 -->
<g id="edge1" class="edge">
<title>dir_2038045c51b3a2af0d9487be6ccdade9&#45;&gt;dir_3cc888f7c814468bc7c7d77cdcb67888</title>
<path fill="none" stroke="#63b8ff" d="M46.18,-70.75C44.74,-63.8 42.68,-53.85 40.87,-45.13"/>
<polygon fill="#63b8ff" stroke="#63b8ff" points="44.24,-44.17 38.78,-35.09 37.39,-45.59 44.24,-44.17"/>
<g id="a_edge1&#45;headlabel"><a xlink:href="dir_000002_000012.html" target="_top" xlink:title="1">
<text text-anchor="middle" x="47.75" y="-44.61" font-family="Helvetica,sans-Serif" font-size="10.00" fill="#63b8ff">1</text>
</a>
</g>
</g>
<!-- dir_2038045c51b3a2af0d9487be6ccdade9&#45;&gt;dir_8cf1f9e2159416640eebecfadd6855c9 -->
<g id="edge2" class="edge">
<title>dir_2038045c51b3a2af0d9487be6ccdade9&#45;&gt;dir_8cf1f9e2159416640eebecfadd6855c9</title>
<path fill="none" stroke="#63b8ff" d="M57.48,-70.98C66.2,-63.15 79.34,-51.34 89.9,-41.86"/>
<polygon fill="#63b8ff" stroke="#63b8ff" points="92.25,-44.46 97.35,-35.17 87.57,-39.25 92.25,-44.46"/>
<g id="a_edge2&#45;headlabel"><a xlink:href="dir_000002_000009.html" target="_top" xlink:title="1">
<text text-anchor="middle" x="91.47" y="-46.47" font-family="Helvetica,sans-Serif" font-size="10.00" fill="#63b8ff">1</text>
</a>
</g>
</g>
<!-- dir_af7d125fa85018e66d7ffb8f681edfe8 -->
<g id="node5" class="node">
<title>dir_af7d125fa85018e66d7ffb8f681edfe8</title>
<g id="a_node5"><a xlink:href="dir_af7d125fa85018e66d7ffb8f681edfe8.html" target="_top" xlink:title="tests">
<polygon fill="#a2b4d6" stroke="#404040" points="68.5,-145 27.5,-145 27.5,-126 68.5,-126 68.5,-145"/>
<text text-anchor="middle" x="48" y="-133" font-family="Helvetica,sans-Serif" font-size="10.00">tests</text>
</a>
</g>
</g>
<!-- dir_af7d125fa85018e66d7ffb8f681edfe8&#45;&gt;dir_2038045c51b3a2af0d9487be6ccdade9 -->
<g id="edge3" class="edge">
<title>dir_af7d125fa85018e66d7ffb8f681edfe8&#45;&gt;dir_2038045c51b3a2af0d9487be6ccdade9</title>
<path fill="none" stroke="#63b8ff" d="M48,-125.75C48,-118.8 48,-108.85 48,-100.13"/>
<polygon fill="#63b8ff" stroke="#63b8ff" points="51.5,-100.09 48,-90.09 44.5,-100.09 51.5,-100.09"/>
<g id="a_edge3&#45;headlabel"><a xlink:href="dir_000013_000002.html" target="_top" xlink:title="4">
<text text-anchor="middle" x="54.34" y="-101.18" font-family="Helvetica,sans-Serif" font-size="10.00" fill="#63b8ff">4</text>
</a>
</g>
</g>
</g>
</svg>
