<?xml version="1.0" encoding="UTF-8" standalone="no"?>
<!DOCTYPE svg PUBLIC "-//W3C//DTD SVG 1.1//EN"
 "http://www.w3.org/Graphics/SVG/1.1/DTD/svg11.dtd">
<!-- Generated by graphviz version 2.43.0 (0)
 -->
<!-- Title: ships/code Pages: 1 -->
<svg width="126pt" height="117pt"
 viewBox="0.00 0.00 126.00 117.00" xmlns="http://www.w3.org/2000/svg" xmlns:xlink="http://www.w3.org/1999/xlink">
<g id="graph0" class="graph" transform="scale(1 1) rotate(0) translate(4 113)">
<title>ships/code</title>
<g id="clust1" class="cluster">
<title>clusterdir_baee96d87e4ddaac6a32e0c5575e2245</title>
<g id="a_clust1"><a xlink:href="dir_baee96d87e4ddaac6a32e0c5575e2245.html" target="_top" xlink:title="ships">
<polygon fill="#edf0f7" stroke="#404040" stroke-dasharray="5,2" points="26,-47 26,-101 82,-101 82,-47 26,-47"/>
<text text-anchor="middle" x="54" y="-89" font-family="Helvetica,sans-Serif" font-size="10.00">ships</text>
</a>
</g>
</g>
<!-- dir_08f3a1deae7fcbc3bfc24fda85c654ca -->
<g id="node1" class="node">
<title>dir_08f3a1deae7fcbc3bfc24fda85c654ca</title>
<g id="a_node1"><a xlink:href="dir_08f3a1deae7fcbc3bfc24fda85c654ca.html" target="_top" xlink:title="code">
<polygon fill="#edf0f7" stroke="#404040" stroke-width="2" points="74,-74 34,-74 34,-55 74,-55 74,-74"/>
<text text-anchor="middle" x="54" y="-62" font-family="Helvetica,sans-Serif" font-size="10.00">code</text>
</a>
</g>
</g>
<!-- dir_e914ee4d4a44400f1fdb170cb4ead18a -->
<g id="node2" class="node">
<title>dir_e914ee4d4a44400f1fdb170cb4ead18a</title>
<g id="a_node2"><a xlink:href="dir_e914ee4d4a44400f1fdb170cb4ead18a.html" target="_top" xlink:title="base">
<polygon fill="#edf0f7" stroke="red" points="40,-19 0,-19 0,0 40,0 40,-19"/>
<text text-anchor="middle" x="20" y="-7" font-family="Helvetica,sans-Serif" font-size="10.00">base</text>
</a>
</g>
</g>
<!-- dir_08f3a1deae7fcbc3bfc24fda85c654ca&#45;&gt;dir_e914ee4d4a44400f1fdb170cb4ead18a -->
<g id="edge1" class="edge">
<title>dir_08f3a1deae7fcbc3bfc24fda85c654ca&#45;&gt;dir_e914ee4d4a44400f1fdb170cb4ead18a</title>
<path fill="none" stroke="#63b8ff" d="M48.39,-54.75C43.68,-47.42 36.83,-36.73 31.03,-27.7"/>
<polygon fill="#63b8ff" stroke="#63b8ff" points="33.86,-25.62 25.51,-19.09 27.96,-29.4 33.86,-25.62"/>
<g id="a_edge1&#45;headlabel"><a xlink:href="dir_000006_000000.html" target="_top" xlink:title="1">
<text text-anchor="middle" x="38.19" y="-24.61" font-family="Helvetica,sans-Serif" font-size="10.00" fill="#63b8ff">1</text>
</a>
</g>
</g>
<!-- dir_f9c9c8c78e18fad7d63c56a86a71b7e5 -->
<g id="node3" class="node">
<title>dir_f9c9c8c78e18fad7d63c56a86a71b7e5</title>
<g id="a_node3"><a xlink:href="dir_f9c9c8c78e18fad7d63c56a86a71b7e5.html" target="_top" xlink:title="weapons">
<polygon fill="#edf0f7" stroke="red" points="118,-19 58,-19 58,0 118,0 118,-19"/>
<text text-anchor="middle" x="88" y="-7" font-family="Helvetica,sans-Serif" font-size="10.00">weapons</text>
</a>
</g>
</g>
<!-- dir_08f3a1deae7fcbc3bfc24fda85c654ca&#45;&gt;dir_f9c9c8c78e18fad7d63c56a86a71b7e5 -->
<g id="edge2" class="edge">
<title>dir_08f3a1deae7fcbc3bfc24fda85c654ca&#45;&gt;dir_f9c9c8c78e18fad7d63c56a86a71b7e5</title>
<path fill="none" stroke="#63b8ff" d="M59.61,-54.75C64.32,-47.42 71.17,-36.73 76.97,-27.7"/>
<polygon fill="#63b8ff" stroke="#63b8ff" points="80.04,-29.4 82.49,-19.09 74.14,-25.62 80.04,-29.4"/>
<g id="a_edge2&#45;headlabel"><a xlink:href="dir_000006_000019.html" target="_top" xlink:title="1">
<text text-anchor="middle" x="80.49" y="-31.45" font-family="Helvetica,sans-Serif" font-size="10.00" fill="#63b8ff">1</text>
</a>
</g>
</g>
</g>
</svg>
