<?xml version="1.0" encoding="UTF-8" standalone="no"?>
<!DOCTYPE svg PUBLIC "-//W3C//DTD SVG 1.1//EN"
 "http://www.w3.org/Graphics/SVG/1.1/DTD/svg11.dtd">
<!-- Generated by graphviz version 2.43.0 (0)
 -->
<!-- Title: Graphical Class Hierarchy Pages: 1 -->
<svg width="417pt" height="101pt"
 viewBox="0.00 0.00 417.00 101.00" xmlns="http://www.w3.org/2000/svg" xmlns:xlink="http://www.w3.org/1999/xlink">
<g id="graph0" class="graph" transform="scale(1 1) rotate(0) translate(4 97)">
<title>Graphical Class Hierarchy</title>
<!-- Node0 -->
<g id="node1" class="node">
<title>Node0</title>
<g id="a_node1"><a xlink:href="d5/d55/classTObjectOnMap.html" target="_top" xlink:title="Базовый класс для всех объектов на карте">
<polygon fill="white" stroke="#666666" points="89,-74 0,-74 0,-55 89,-55 89,-74"/>
<text text-anchor="middle" x="44.5" y="-62" font-family="Helvetica,sans-Serif" font-size="10.00">TObjectOnMap</text>
</a>
</g>
</g>
<!-- Node1 -->
<g id="node2" class="node">
<title>Node1</title>
<g id="a_node2"><a xlink:href="d9/d38/classTBase.html" target="_top" xlink:title="База на карте. Есть поле BaseType &#45; код базы: начальная точка маршрута(1), конечная(2) или же это баз...">
<polygon fill="white" stroke="#666666" points="172,-93 125,-93 125,-74 172,-74 172,-93"/>
<text text-anchor="middle" x="148.5" y="-81" font-family="Helvetica,sans-Serif" font-size="10.00">TBase</text>
</a>
</g>
</g>
<!-- Node0&#45;&gt;Node1 -->
<g id="edge1" class="edge">
<title>Node0&#45;&gt;Node1</title>
<path fill="none" stroke="#63b8ff" d="M98.96,-74.46C108.11,-76.16 117.14,-77.85 124.9,-79.29"/>
<polygon fill="#63b8ff" stroke="#63b8ff" points="99.52,-71 89.05,-72.61 98.24,-77.88 99.52,-71"/>
</g>
<!-- Node3 -->
<g id="node4" class="node">
<title>Node3</title>
<g id="a_node4"><a xlink:href="d1/d07/classTShip.html" target="_top" xlink:title="Базовый класс кораблей, содержащий и реализовывающий основную логику кораблей">
<polygon fill="white" stroke="#666666" points="170.5,-56 126.5,-56 126.5,-37 170.5,-37 170.5,-56"/>
<text text-anchor="middle" x="148.5" y="-44" font-family="Helvetica,sans-Serif" font-size="10.00">TShip</text>
</a>
</g>
</g>
<!-- Node0&#45;&gt;Node3 -->
<g id="edge3" class="edge">
<title>Node0&#45;&gt;Node3</title>
<path fill="none" stroke="#63b8ff" d="M99.09,-55.04C108.74,-53.34 118.26,-51.66 126.27,-50.25"/>
<polygon fill="#63b8ff" stroke="#63b8ff" points="98.29,-51.63 89.05,-56.81 99.51,-58.52 98.29,-51.63"/>
</g>
<!-- Node2 -->
<g id="node3" class="node">
<title>Node2</title>
<g id="a_node3"><a xlink:href="de/d4e/classTPirateBase.html" target="_top" xlink:title="Класс, описывающий базу пиратов. Есть поле &#45; спавнер">
<polygon fill="white" stroke="#666666" points="283,-93 208,-93 208,-74 283,-74 283,-93"/>
<text text-anchor="middle" x="245.5" y="-81" font-family="Helvetica,sans-Serif" font-size="10.00">TPirateBase</text>
</a>
</g>
</g>
<!-- Node1&#45;&gt;Node2 -->
<g id="edge2" class="edge">
<title>Node1&#45;&gt;Node2</title>
<path fill="none" stroke="#63b8ff" d="M182.03,-83.5C190.28,-83.5 199.21,-83.5 207.67,-83.5"/>
<polygon fill="#63b8ff" stroke="#63b8ff" points="182.01,-80 172.01,-83.5 182.01,-87 182.01,-80"/>
</g>
<!-- Node4 -->
<g id="node5" class="node">
<title>Node4</title>
<g id="a_node5"><a xlink:href="d3/d81/classTCargoShip.html" target="_top" xlink:title="Корабль, несущий груз. Добавляются поля &#45; коеф замедления, максимальный груз, текущий груз.">
<polygon fill="white" stroke="#666666" points="281,-56 210,-56 210,-37 281,-37 281,-56"/>
<text text-anchor="middle" x="245.5" y="-44" font-family="Helvetica,sans-Serif" font-size="10.00">TCargoShip</text>
</a>
</g>
</g>
<!-- Node3&#45;&gt;Node4 -->
<g id="edge4" class="edge">
<title>Node3&#45;&gt;Node4</title>
<path fill="none" stroke="#63b8ff" d="M180.59,-46.5C189.89,-46.5 200.14,-46.5 209.67,-46.5"/>
<polygon fill="#63b8ff" stroke="#63b8ff" points="180.58,-43 170.58,-46.5 180.58,-50 180.58,-43"/>
</g>
<!-- Node6 -->
<g id="node7" class="node">
<title>Node6</title>
<g id="a_node7"><a xlink:href="db/df3/classTWarShip.html" target="_top" xlink:title="Корабль, имеющий вооружение. Добавляются поле &#45; Holder орудий">
<polygon fill="white" stroke="#666666" points="276.5,-19 214.5,-19 214.5,0 276.5,0 276.5,-19"/>
<text text-anchor="middle" x="245.5" y="-7" font-family="Helvetica,sans-Serif" font-size="10.00">TWarShip</text>
</a>
</g>
</g>
<!-- Node3&#45;&gt;Node6 -->
<g id="edge6" class="edge">
<title>Node3&#45;&gt;Node6</title>
<path fill="none" stroke="#63b8ff" d="M179.97,-34.63C192.83,-29.62 207.61,-23.87 219.78,-19.13"/>
<polygon fill="#63b8ff" stroke="#63b8ff" points="178.63,-31.4 170.58,-38.29 181.17,-37.92 178.63,-31.4"/>
</g>
<!-- Node5 -->
<g id="node6" class="node">
<title>Node5</title>
<g id="a_node6"><a xlink:href="d0/dc5/classTCargoWarShip.html" target="_top" xlink:title="Корабль, имеющий и орудиея, и груз на борту.">
<polygon fill="white" stroke="#666666" points="409,-37 319,-37 319,-18 409,-18 409,-37"/>
<text text-anchor="middle" x="364" y="-25" font-family="Helvetica,sans-Serif" font-size="10.00">TCargoWarShip</text>
</a>
</g>
</g>
<!-- Node4&#45;&gt;Node5 -->
<g id="edge5" class="edge">
<title>Node4&#45;&gt;Node5</title>
<path fill="none" stroke="#63b8ff" d="M291.12,-39.22C300.18,-37.74 309.71,-36.19 318.76,-34.72"/>
<polygon fill="#63b8ff" stroke="#63b8ff" points="290.44,-35.79 281.14,-40.85 291.57,-42.7 290.44,-35.79"/>
</g>
<!-- Node6&#45;&gt;Node5 -->
<g id="edge7" class="edge">
<title>Node6&#45;&gt;Node5</title>
<path fill="none" stroke="#63b8ff" d="M286.5,-15.68C296.85,-17.28 308.04,-19.01 318.6,-20.64"/>
<polygon fill="#63b8ff" stroke="#63b8ff" points="286.92,-12.2 276.5,-14.14 285.85,-19.12 286.92,-12.2"/>
</g>
</g>
</svg>
