<?xml version="1.0" encoding="UTF-8" standalone="no"?>
<!DOCTYPE svg PUBLIC "-//W3C//DTD SVG 1.1//EN"
 "http://www.w3.org/Graphics/SVG/1.1/DTD/svg11.dtd">
<!-- Generated by graphviz version 2.43.0 (0)
 -->
<!-- Title: TEST Pages: 1 -->
<svg width="168pt" height="138pt"
 viewBox="0.00 0.00 168.00 138.00" xmlns="http://www.w3.org/2000/svg" xmlns:xlink="http://www.w3.org/1999/xlink">
<g id="graph0" class="graph" transform="scale(1 1) rotate(0) translate(4 134)">
<title>TEST</title>
<!-- Node1 -->
<g id="node1" class="node">
<title>Node1</title>
<g id="a_node1"><a xlink:title=" ">
<polygon fill="#999999" stroke="#666666" points="41,-74 0,-74 0,-55 41,-55 41,-74"/>
<text text-anchor="middle" x="20.5" y="-62" font-family="Helvetica,sans-Serif" font-size="10.00">TEST</text>
</a>
</g>
</g>
<!-- Node2 -->
<g id="node2" class="node">
<title>Node2</title>
<g id="a_node2"><a xlink:href="../../d8/d51/classMyList.html#a281f359e28eb5d6014ba3405cf0e6895" target="_top" xlink:title=" ">
<polygon fill="white" stroke="#666666" points="159.5,-130 77.5,-130 77.5,-111 159.5,-111 159.5,-130"/>
<text text-anchor="middle" x="118.5" y="-118" font-family="Helvetica,sans-Serif" font-size="10.00">MyList::begin</text>
</a>
</g>
</g>
<!-- Node1&#45;&gt;Node2 -->
<g id="edge1" class="edge">
<title>Node1&#45;&gt;Node2</title>
<path fill="none" stroke="#63b8ff" d="M34.3,-74.26C45.28,-82.38 61.71,-93.96 77,-102.5 79.52,-103.91 82.17,-105.29 84.86,-106.62"/>
<polygon fill="#63b8ff" stroke="#63b8ff" points="83.48,-109.84 94.01,-110.93 86.46,-103.5 83.48,-109.84"/>
</g>
<!-- Node3 -->
<g id="node3" class="node">
<title>Node3</title>
<g id="a_node3"><a xlink:href="../../d8/d51/classMyList.html#a723c00a8380b8fd0705cb286cdd179d2" target="_top" xlink:title=" ">
<polygon fill="white" stroke="#666666" points="155,-93 82,-93 82,-74 155,-74 155,-93"/>
<text text-anchor="middle" x="118.5" y="-81" font-family="Helvetica,sans-Serif" font-size="10.00">MyList::end</text>
</a>
</g>
</g>
<!-- Node1&#45;&gt;Node3 -->
<g id="edge2" class="edge">
<title>Node1&#45;&gt;Node3</title>
<path fill="none" stroke="#63b8ff" d="M41.39,-68.44C50.21,-70.18 60.99,-72.32 71.63,-74.42"/>
<polygon fill="#63b8ff" stroke="#63b8ff" points="71.23,-77.91 81.72,-76.42 72.59,-71.04 71.23,-77.91"/>
</g>
<!-- Node4 -->
<g id="node4" class="node">
<title>Node4</title>
<g id="a_node4"><a xlink:href="../../d8/d51/classMyList.html#ab5e189776aca91f01ee5fe930318c289" target="_top" xlink:title=" ">
<polygon fill="white" stroke="#666666" points="160,-56 77,-56 77,-37 160,-37 160,-56"/>
<text text-anchor="middle" x="118.5" y="-44" font-family="Helvetica,sans-Serif" font-size="10.00">MyList::insert</text>
</a>
</g>
</g>
<!-- Node1&#45;&gt;Node4 -->
<g id="edge3" class="edge">
<title>Node1&#45;&gt;Node4</title>
<path fill="none" stroke="#63b8ff" d="M41.39,-60.77C48.81,-59.38 57.62,-57.73 66.56,-56.05"/>
<polygon fill="#63b8ff" stroke="#63b8ff" points="67.47,-59.44 76.65,-54.16 66.18,-52.56 67.47,-59.44"/>
</g>
<!-- Node5 -->
<g id="node5" class="node">
<title>Node5</title>
<g id="a_node5"><a xlink:href="../../d8/d51/classMyList.html#a37366fbfd16acad1dfa69a141b339095" target="_top" xlink:title=" ">
<polygon fill="white" stroke="#666666" points="155.5,-19 81.5,-19 81.5,0 155.5,0 155.5,-19"/>
<text text-anchor="middle" x="118.5" y="-7" font-family="Helvetica,sans-Serif" font-size="10.00">MyList::size</text>
</a>
</g>
</g>
<!-- Node1&#45;&gt;Node5 -->
<g id="edge4" class="edge">
<title>Node1&#45;&gt;Node5</title>
<path fill="none" stroke="#63b8ff" d="M35.32,-54.78C46.35,-47.21 62.34,-36.64 77,-28.5 80.08,-26.79 83.34,-25.09 86.62,-23.45"/>
<polygon fill="#63b8ff" stroke="#63b8ff" points="88.3,-26.52 95.79,-19.02 85.26,-20.22 88.3,-26.52"/>
</g>
</g>
</svg>
