<?xml version="1.0" encoding="UTF-8" standalone="no"?>
<!DOCTYPE svg PUBLIC "-//W3C//DTD SVG 1.1//EN"
 "http://www.w3.org/Graphics/SVG/1.1/DTD/svg11.dtd">
<!-- Generated by graphviz version 2.43.0 (0)
 -->
<!-- Title: TEST Pages: 1 -->
<svg width="177pt" height="212pt"
 viewBox="0.00 0.00 177.00 212.00" xmlns="http://www.w3.org/2000/svg" xmlns:xlink="http://www.w3.org/1999/xlink">
<g id="graph0" class="graph" transform="scale(1 1) rotate(0) translate(4 208)">
<title>TEST</title>
<!-- Node1 -->
<g id="node1" class="node">
<title>Node1</title>
<g id="a_node1"><a xlink:title=" ">
<polygon fill="#999999" stroke="#666666" points="41,-111 0,-111 0,-92 41,-92 41,-111"/>
<text text-anchor="middle" x="20.5" y="-99" font-family="Helvetica,sans-Serif" font-size="10.00">TEST</text>
</a>
</g>
</g>
<!-- Node2 -->
<g id="node2" class="node">
<title>Node2</title>
<g id="a_node2"><a xlink:href="../../d8/d51/classMyList.html#a281f359e28eb5d6014ba3405cf0e6895" target="_top" xlink:title=" ">
<polygon fill="white" stroke="#666666" points="164,-204 82,-204 82,-185 164,-185 164,-204"/>
<text text-anchor="middle" x="123" y="-192" font-family="Helvetica,sans-Serif" font-size="10.00">MyList::begin</text>
</a>
</g>
</g>
<!-- Node1&#45;&gt;Node2 -->
<g id="edge1" class="edge">
<title>Node1&#45;&gt;Node2</title>
<path fill="none" stroke="#63b8ff" d="M26.33,-111.13C34.66,-126.84 53.15,-158.1 77,-176.5 78.6,-177.73 80.29,-178.89 82.05,-179.98"/>
<polygon fill="#63b8ff" stroke="#63b8ff" points="80.75,-183.26 91.23,-184.86 84.04,-177.08 80.75,-183.26"/>
</g>
<!-- Node3 -->
<g id="node3" class="node">
<title>Node3</title>
<g id="a_node3"><a xlink:href="../../d8/d51/classMyList.html#a723c00a8380b8fd0705cb286cdd179d2" target="_top" xlink:title=" ">
<polygon fill="white" stroke="#666666" points="159.5,-167 86.5,-167 86.5,-148 159.5,-148 159.5,-167"/>
<text text-anchor="middle" x="123" y="-155" font-family="Helvetica,sans-Serif" font-size="10.00">MyList::end</text>
</a>
</g>
</g>
<!-- Node1&#45;&gt;Node3 -->
<g id="edge2" class="edge">
<title>Node1&#45;&gt;Node3</title>
<path fill="none" stroke="#63b8ff" d="M33.78,-111.08C44.71,-119.31 61.34,-131.14 77,-139.5 79.89,-141.05 82.95,-142.54 86.05,-143.96"/>
<polygon fill="#63b8ff" stroke="#63b8ff" points="84.82,-147.23 95.38,-147.98 87.59,-140.81 84.82,-147.23"/>
</g>
<!-- Node4 -->
<g id="node4" class="node">
<title>Node4</title>
<g id="a_node4"><a xlink:href="../../d8/d51/classMyList.html#a0bf752e12a79f715ac37ed5e03255833" target="_top" xlink:title=" ">
<polygon fill="white" stroke="#666666" points="164,-130 82,-130 82,-111 164,-111 164,-130"/>
<text text-anchor="middle" x="123" y="-118" font-family="Helvetica,sans-Serif" font-size="10.00">MyList::erase</text>
</a>
</g>
</g>
<!-- Node1&#45;&gt;Node4 -->
<g id="edge3" class="edge">
<title>Node1&#45;&gt;Node4</title>
<path fill="none" stroke="#63b8ff" d="M41.36,-105.25C50.2,-106.93 61.06,-108.98 71.91,-111.03"/>
<polygon fill="#63b8ff" stroke="#63b8ff" points="71.34,-114.48 81.82,-112.9 72.64,-107.61 71.34,-114.48"/>
</g>
<!-- Node5 -->
<g id="node5" class="node">
<title>Node5</title>
<g id="a_node5"><a xlink:href="../../d8/d51/classMyList.html#a80edb252c7e71107fac78c29647be513" target="_top" xlink:title=" ">
<polygon fill="white" stroke="#666666" points="169,-93 77,-93 77,-74 169,-74 169,-93"/>
<text text-anchor="middle" x="123" y="-81" font-family="Helvetica,sans-Serif" font-size="10.00">MyList::getById</text>
</a>
</g>
</g>
<!-- Node1&#45;&gt;Node5 -->
<g id="edge4" class="edge">
<title>Node1&#45;&gt;Node5</title>
<path fill="none" stroke="#63b8ff" d="M41.36,-97.94C48.83,-96.6 57.75,-95.01 66.88,-93.37"/>
<polygon fill="#63b8ff" stroke="#63b8ff" points="67.59,-96.8 76.82,-91.59 66.36,-89.91 67.59,-96.8"/>
</g>
<!-- Node6 -->
<g id="node6" class="node">
<title>Node6</title>
<g id="a_node6"><a xlink:href="../../d8/d51/classMyList.html#ab5e189776aca91f01ee5fe930318c289" target="_top" xlink:title=" ">
<polygon fill="white" stroke="#666666" points="164.5,-56 81.5,-56 81.5,-37 164.5,-37 164.5,-56"/>
<text text-anchor="middle" x="123" y="-44" font-family="Helvetica,sans-Serif" font-size="10.00">MyList::insert</text>
</a>
</g>
</g>
<!-- Node1&#45;&gt;Node6 -->
<g id="edge5" class="edge">
<title>Node1&#45;&gt;Node6</title>
<path fill="none" stroke="#63b8ff" d="M34.78,-91.94C45.78,-84.25 61.98,-73.46 77,-65.5 80.34,-63.73 83.89,-62 87.46,-60.34"/>
<polygon fill="#63b8ff" stroke="#63b8ff" points="89.14,-63.43 96.88,-56.19 86.32,-57.02 89.14,-63.43"/>
</g>
<!-- Node7 -->
<g id="node7" class="node">
<title>Node7</title>
<g id="a_node7"><a xlink:href="../../d8/d51/classMyList.html#a37366fbfd16acad1dfa69a141b339095" target="_top" xlink:title=" ">
<polygon fill="white" stroke="#666666" points="160,-19 86,-19 86,0 160,0 160,-19"/>
<text text-anchor="middle" x="123" y="-7" font-family="Helvetica,sans-Serif" font-size="10.00">MyList::size</text>
</a>
</g>
</g>
<!-- Node1&#45;&gt;Node7 -->
<g id="edge6" class="edge">
<title>Node1&#45;&gt;Node7</title>
<path fill="none" stroke="#63b8ff" d="M26.71,-91.69C35.31,-76.32 53.86,-46.46 77,-28.5 79.26,-26.74 81.71,-25.12 84.25,-23.63"/>
<polygon fill="#63b8ff" stroke="#63b8ff" points="85.87,-26.73 93.15,-19.03 82.66,-20.51 85.87,-26.73"/>
</g>
</g>
</svg>
