<?xml version="1.0" encoding="UTF-8" standalone="no"?>
<!DOCTYPE svg PUBLIC "-//W3C//DTD SVG 1.1//EN"
 "http://www.w3.org/Graphics/SVG/1.1/DTD/svg11.dtd">
<!-- Generated by graphviz version 2.43.0 (0)
 -->
<!-- Title: code/ships/tests/TestTCargoShip.cpp Pages: 1 -->
<svg width="408pt" height="269pt"
 viewBox="0.00 0.00 408.00 269.00" xmlns="http://www.w3.org/2000/svg" xmlns:xlink="http://www.w3.org/1999/xlink">
<g id="graph0" class="graph" transform="scale(1 1) rotate(0) translate(4 265)">
<title>code/ships/tests/TestTCargoShip.cpp</title>
<!-- Node1 -->
<g id="node1" class="node">
<title>Node1</title>
<g id="a_node1"><a xlink:title=" ">
<polygon fill="#999999" stroke="#666666" points="172,-261 20,-261 20,-231 172,-231 172,-261"/>
<text text-anchor="start" x="28" y="-249" font-family="Helvetica,sans-Serif" font-size="10.00">code/ships/tests/TestTCargo</text>
<text text-anchor="middle" x="96" y="-238" font-family="Helvetica,sans-Serif" font-size="10.00">Ship.cpp</text>
</a>
</g>
</g>
<!-- Node2 -->
<g id="node2" class="node">
<title>Node2</title>
<g id="a_node2"><a xlink:title=" ">
<polygon fill="#e0e0e0" stroke="#999999" points="78,-195 0,-195 0,-176 78,-176 78,-195"/>
<text text-anchor="middle" x="39" y="-183" font-family="Helvetica,sans-Serif" font-size="10.00">gtest/gtest.h</text>
</a>
</g>
</g>
<!-- Node1&#45;&gt;Node2 -->
<g id="edge1" class="edge">
<title>Node1&#45;&gt;Node2</title>
<path fill="none" stroke="#63b8ff" d="M82.2,-230.84C73.93,-222.35 63.38,-211.52 54.77,-202.69"/>
<polygon fill="#63b8ff" stroke="#63b8ff" points="57.03,-199.99 47.54,-195.27 52.01,-204.87 57.03,-199.99"/>
</g>
<!-- Node3 -->
<g id="node3" class="node">
<title>Node3</title>
<g id="a_node3"><a xlink:href="../../d3/d7f/TCargoShip_8h.html" target="_top" xlink:title=" ">
<polygon fill="white" stroke="#666666" points="212,-195 96,-195 96,-176 212,-176 212,-195"/>
<text text-anchor="middle" x="154" y="-183" font-family="Helvetica,sans-Serif" font-size="10.00">../code/TCargoShip.h</text>
</a>
</g>
</g>
<!-- Node1&#45;&gt;Node3 -->
<g id="edge2" class="edge">
<title>Node1&#45;&gt;Node3</title>
<path fill="none" stroke="#63b8ff" d="M110.04,-230.84C118.55,-222.26 129.41,-211.3 138.22,-202.42"/>
<polygon fill="#63b8ff" stroke="#63b8ff" points="140.75,-204.83 145.31,-195.27 135.78,-199.9 140.75,-204.83"/>
</g>
<!-- Node4 -->
<g id="node4" class="node">
<title>Node4</title>
<g id="a_node4"><a xlink:href="../../d0/d93/TShip_8h.html" target="_top" xlink:title=" ">
<polygon fill="white" stroke="#666666" points="180.5,-140 127.5,-140 127.5,-121 180.5,-121 180.5,-140"/>
<text text-anchor="middle" x="154" y="-128" font-family="Helvetica,sans-Serif" font-size="10.00">TShip.h</text>
</a>
</g>
</g>
<!-- Node3&#45;&gt;Node4 -->
<g id="edge3" class="edge">
<title>Node3&#45;&gt;Node4</title>
<path fill="none" stroke="#63b8ff" d="M154,-175.75C154,-168.8 154,-158.85 154,-150.13"/>
<polygon fill="#63b8ff" stroke="#63b8ff" points="157.5,-150.09 154,-140.09 150.5,-150.09 157.5,-150.09"/>
</g>
<!-- Node5 -->
<g id="node5" class="node">
<title>Node5</title>
<g id="a_node5"><a xlink:title=" ">
<polygon fill="#e0e0e0" stroke="#999999" points="148,-19 104,-19 104,0 148,0 148,-19"/>
<text text-anchor="middle" x="126" y="-7" font-family="Helvetica,sans-Serif" font-size="10.00">string</text>
</a>
</g>
</g>
<!-- Node4&#45;&gt;Node5 -->
<g id="edge4" class="edge">
<title>Node4&#45;&gt;Node5</title>
<path fill="none" stroke="#63b8ff" d="M127.18,-123C107.84,-116.76 83.09,-105.2 71,-85 64.15,-73.56 65.26,-67.03 71,-55 77.09,-42.23 88.84,-31.94 99.92,-24.49"/>
<polygon fill="#63b8ff" stroke="#63b8ff" points="101.9,-27.38 108.54,-19.12 98.2,-21.43 101.9,-27.38"/>
</g>
<!-- Node6 -->
<g id="node6" class="node">
<title>Node6</title>
<g id="a_node6"><a xlink:title=" ">
<polygon fill="#e0e0e0" stroke="#999999" points="138,-79.5 80,-79.5 80,-60.5 138,-60.5 138,-79.5"/>
<text text-anchor="middle" x="109" y="-67.5" font-family="Helvetica,sans-Serif" font-size="10.00">memory</text>
</a>
</g>
</g>
<!-- Node4&#45;&gt;Node6 -->
<g id="edge5" class="edge">
<title>Node4&#45;&gt;Node6</title>
<path fill="none" stroke="#63b8ff" d="M147.36,-120.87C140.71,-112.23 130.31,-98.7 122.01,-87.92"/>
<polygon fill="#63b8ff" stroke="#63b8ff" points="124.54,-85.46 115.67,-79.67 118.99,-89.73 124.54,-85.46"/>
</g>
<!-- Node7 -->
<g id="node7" class="node">
<title>Node7</title>
<g id="a_node7"><a xlink:href="../../de/da2/TCapitanInfo_8h.html" target="_top" xlink:title=" ">
<polygon fill="white" stroke="#666666" points="243.5,-79.5 156.5,-79.5 156.5,-60.5 243.5,-60.5 243.5,-79.5"/>
<text text-anchor="middle" x="200" y="-67.5" font-family="Helvetica,sans-Serif" font-size="10.00">TCapitanInfo.h</text>
</a>
</g>
</g>
<!-- Node4&#45;&gt;Node7 -->
<g id="edge6" class="edge">
<title>Node4&#45;&gt;Node7</title>
<path fill="none" stroke="#63b8ff" d="M160.79,-120.87C167.65,-112.14 178.43,-98.43 186.95,-87.59"/>
<polygon fill="#63b8ff" stroke="#63b8ff" points="189.75,-89.69 193.18,-79.67 184.25,-85.36 189.75,-89.69"/>
</g>
<!-- Node8 -->
<g id="node8" class="node">
<title>Node8</title>
<g id="a_node8"><a xlink:href="../../dc/d06/TObjectOnMap_8h.html" target="_top" xlink:title=" ">
<polygon fill="white" stroke="#666666" points="400,-85 262,-85 262,-55 400,-55 400,-85"/>
<text text-anchor="start" x="270" y="-73" font-family="Helvetica,sans-Serif" font-size="10.00">../../base/code/TObjectOn</text>
<text text-anchor="middle" x="331" y="-62" font-family="Helvetica,sans-Serif" font-size="10.00">Map.h</text>
</a>
</g>
</g>
<!-- Node4&#45;&gt;Node8 -->
<g id="edge8" class="edge">
<title>Node4&#45;&gt;Node8</title>
<path fill="none" stroke="#63b8ff" d="M179.74,-120.99C205.54,-112.46 246.02,-99.09 278.61,-88.32"/>
<polygon fill="#63b8ff" stroke="#63b8ff" points="280.05,-91.53 288.45,-85.06 277.85,-84.88 280.05,-91.53"/>
</g>
<!-- Node7&#45;&gt;Node5 -->
<g id="edge7" class="edge">
<title>Node7&#45;&gt;Node5</title>
<path fill="none" stroke="#63b8ff" d="M189.08,-60.37C177.49,-51.21 158.97,-36.56 144.98,-25.51"/>
<polygon fill="#63b8ff" stroke="#63b8ff" points="146.98,-22.62 136.96,-19.17 142.64,-28.11 146.98,-22.62"/>
</g>
</g>
</svg>
