<?xml version="1.0" encoding="UTF-8" standalone="no"?>
<!DOCTYPE svg PUBLIC "-//W3C//DTD SVG 1.1//EN"
 "http://www.w3.org/Graphics/SVG/1.1/DTD/svg11.dtd">
<!-- Generated by graphviz version 2.43.0 (0)
 -->
<!-- Title: TLevelReader::ReadPirateBase Pages: 1 -->
<svg width="338pt" height="64pt"
 viewBox="0.00 0.00 338.00 64.00" xmlns="http://www.w3.org/2000/svg" xmlns:xlink="http://www.w3.org/1999/xlink">
<g id="graph0" class="graph" transform="scale(1 1) rotate(0) translate(4 60)">
<title>TLevelReader::ReadPirateBase</title>
<!-- Node1 -->
<g id="node1" class="node">
<title>Node1</title>
<g id="a_node1"><a xlink:title=" ">
<polygon fill="#999999" stroke="#666666" points="167,-37 0,-37 0,-18 167,-18 167,-37"/>
<text text-anchor="middle" x="83.5" y="-25" font-family="Helvetica,sans-Serif" font-size="10.00">TLevelReader::ReadPirateBase</text>
</a>
</g>
</g>
<!-- Node2 -->
<g id="node2" class="node">
<title>Node2</title>
<g id="a_node2"><a xlink:href="../../d8/d51/classMyList.html#a80edb252c7e71107fac78c29647be513" target="_top" xlink:title=" ">
<polygon fill="white" stroke="#666666" points="312.5,-56 220.5,-56 220.5,-37 312.5,-37 312.5,-56"/>
<text text-anchor="middle" x="266.5" y="-44" font-family="Helvetica,sans-Serif" font-size="10.00">MyList::getById</text>
</a>
</g>
</g>
<!-- Node1&#45;&gt;Node2 -->
<g id="edge1" class="edge">
<title>Node1&#45;&gt;Node2</title>
<path fill="none" stroke="#63b8ff" d="M167.06,-36.17C181.62,-37.69 196.46,-39.25 210.05,-40.68"/>
<polygon fill="#63b8ff" stroke="#63b8ff" points="209.86,-44.18 220.17,-41.74 210.59,-37.22 209.86,-44.18"/>
</g>
<!-- Node3 -->
<g id="node3" class="node">
<title>Node3</title>
<g id="a_node3"><a xlink:href="../../d5/d99/classTLevelReader.html#a82ec22fb9386deb547a0a0862bc90301" target="_top" xlink:title=" ">
<polygon fill="white" stroke="#666666" points="330,-19 203,-19 203,0 330,0 330,-19"/>
<text text-anchor="middle" x="266.5" y="-7" font-family="Helvetica,sans-Serif" font-size="10.00">TLevelReader::ReadInt</text>
</a>
</g>
</g>
<!-- Node1&#45;&gt;Node3 -->
<g id="edge2" class="edge">
<title>Node1&#45;&gt;Node3</title>
<path fill="none" stroke="#63b8ff" d="M167.06,-19.29C175.61,-18.44 184.25,-17.58 192.68,-16.74"/>
<polygon fill="#63b8ff" stroke="#63b8ff" points="193.24,-20.2 202.84,-15.73 192.55,-13.24 193.24,-20.2"/>
</g>
</g>
</svg>
