<?xml version="1.0" encoding="UTF-8" standalone="no"?>
<!DOCTYPE svg PUBLIC "-//W3C//DTD SVG 1.1//EN"
 "http://www.w3.org/Graphics/SVG/1.1/DTD/svg11.dtd">
<!-- Generated by graphviz version 2.43.0 (0)
 -->
<!-- Title: TLevelReader::ReadWeapon Pages: 1 -->
<svg width="926pt" height="114pt"
 viewBox="0.00 0.00 926.00 113.50" xmlns="http://www.w3.org/2000/svg" xmlns:xlink="http://www.w3.org/1999/xlink">
<g id="graph0" class="graph" transform="scale(1 1) rotate(0) translate(4 109.5)">
<title>TLevelReader::ReadWeapon</title>
<!-- Node1 -->
<g id="node1" class="node">
<title>Node1</title>
<g id="a_node1"><a xlink:title=" ">
<polygon fill="#999999" stroke="#666666" points="918,-37 765,-37 765,-18 918,-18 918,-37"/>
<text text-anchor="middle" x="841.5" y="-25" font-family="Helvetica,sans-Serif" font-size="10.00">TLevelReader::ReadWeapon</text>
</a>
</g>
</g>
<!-- Node2 -->
<g id="node2" class="node">
<title>Node2</title>
<g id="a_node2"><a xlink:href="../../d5/d99/classTLevelReader.html#a4467cdf7d7766981a6b8eeb23076b433" target="_top" xlink:title=" ">
<polygon fill="white" stroke="#666666" points="729,-56 571,-56 571,-37 729,-37 729,-56"/>
<text text-anchor="middle" x="650" y="-44" font-family="Helvetica,sans-Serif" font-size="10.00">TLevelReader::ReadWeapons</text>
</a>
</g>
</g>
<!-- Node1&#45;&gt;Node2 -->
<g id="edge1" class="edge">
<title>Node1&#45;&gt;Node2</title>
<path fill="none" stroke="#63b8ff" d="M754.79,-36.09C746.22,-36.95 737.56,-37.82 729.07,-38.67"/>
<polygon fill="#63b8ff" stroke="#63b8ff" points="755.19,-39.57 764.79,-35.09 754.49,-32.61 755.19,-39.57"/>
</g>
<!-- Node8 -->
<g id="node8" class="node">
<title>Node8</title>
<g id="a_node8"><a xlink:href="../../df/dbf/TestTLevelReader_8cpp.html#aa7b57f5c4f46491ed887d757af6cf774" target="_top" xlink:title=" ">
<polygon fill="white" stroke="#666666" points="670.5,-19 629.5,-19 629.5,0 670.5,0 670.5,-19"/>
<text text-anchor="middle" x="650" y="-7" font-family="Helvetica,sans-Serif" font-size="10.00">TEST</text>
</a>
</g>
</g>
<!-- Node1&#45;&gt;Node8 -->
<g id="edge7" class="edge">
<title>Node1&#45;&gt;Node8</title>
<path fill="none" stroke="#63b8ff" d="M754.68,-19.35C723.35,-16.37 690.7,-13.27 670.61,-11.36"/>
<polygon fill="#63b8ff" stroke="#63b8ff" points="754.5,-22.85 764.79,-20.31 755.16,-15.88 754.5,-22.85"/>
</g>
<!-- Node3 -->
<g id="node3" class="node">
<title>Node3</title>
<g id="a_node3"><a xlink:href="../../d5/d99/classTLevelReader.html#a5e3953bd0caf6e6c60d6750ff732150a" target="_top" xlink:title=" ">
<polygon fill="white" stroke="#666666" points="535,-83.5 383,-83.5 383,-53.5 535,-53.5 535,-83.5"/>
<text text-anchor="start" x="391" y="-71.5" font-family="Helvetica,sans-Serif" font-size="10.00">TLevelReader::ReadMission</text>
<text text-anchor="middle" x="459" y="-60.5" font-family="Helvetica,sans-Serif" font-size="10.00">InfoFromStream</text>
</a>
</g>
</g>
<!-- Node2&#45;&gt;Node3 -->
<g id="edge2" class="edge">
<title>Node2&#45;&gt;Node3</title>
<path fill="none" stroke="#63b8ff" d="M560.76,-56.77C552.19,-57.77 543.56,-58.77 535.14,-59.75"/>
<polygon fill="#63b8ff" stroke="#63b8ff" points="561.23,-60.24 570.76,-55.61 560.42,-53.29 561.23,-60.24"/>
</g>
<!-- Node7 -->
<g id="node7" class="node">
<title>Node7</title>
<g id="a_node7"><a xlink:href="../../df/dbf/TestTLevelReader_8cpp.html#a5d44caed3904c1ef6c734477bed059f0" target="_top" xlink:title=" ">
<polygon fill="white" stroke="#666666" points="479.5,-35 438.5,-35 438.5,-16 479.5,-16 479.5,-35"/>
<text text-anchor="middle" x="459" y="-23" font-family="Helvetica,sans-Serif" font-size="10.00">TEST</text>
</a>
</g>
</g>
<!-- Node2&#45;&gt;Node7 -->
<g id="edge6" class="edge">
<title>Node2&#45;&gt;Node7</title>
<path fill="none" stroke="#63b8ff" d="M560.55,-36.67C530.27,-33.31 499.17,-29.85 479.73,-27.69"/>
<polygon fill="#63b8ff" stroke="#63b8ff" points="560.44,-40.18 570.76,-37.81 561.21,-33.22 560.44,-40.18"/>
</g>
<!-- Node4 -->
<g id="node4" class="node">
<title>Node4</title>
<g id="a_node4"><a xlink:href="../../d2/dc1/classTLevelSelector.html#a1ce3be0dec7c17d6674837ff8742d5ee" target="_top" xlink:title=" ">
<polygon fill="white" stroke="#666666" points="347,-105.5 193,-105.5 193,-75.5 347,-75.5 347,-105.5"/>
<text text-anchor="start" x="201" y="-93.5" font-family="Helvetica,sans-Serif" font-size="10.00">TLevelSelector::readMission</text>
<text text-anchor="middle" x="270" y="-82.5" font-family="Helvetica,sans-Serif" font-size="10.00">InfoFromStream</text>
</a>
</g>
</g>
<!-- Node3&#45;&gt;Node4 -->
<g id="edge3" class="edge">
<title>Node3&#45;&gt;Node4</title>
<path fill="none" stroke="#63b8ff" d="M372.74,-78.53C364.16,-79.54 355.49,-80.56 347.01,-81.56"/>
<polygon fill="#63b8ff" stroke="#63b8ff" points="373.23,-82 382.75,-77.35 372.41,-75.05 373.23,-82"/>
</g>
<!-- Node6 -->
<g id="node6" class="node">
<title>Node6</title>
<g id="a_node6"><a xlink:href="../../df/dbf/TestTLevelReader_8cpp.html#a5b89023c1d74cccde2a4947bc710cd5b" target="_top" xlink:title=" ">
<polygon fill="white" stroke="#666666" points="290.5,-57 249.5,-57 249.5,-38 290.5,-38 290.5,-57"/>
<text text-anchor="middle" x="270" y="-45" font-family="Helvetica,sans-Serif" font-size="10.00">TEST</text>
</a>
</g>
</g>
<!-- Node3&#45;&gt;Node6 -->
<g id="edge5" class="edge">
<title>Node3&#45;&gt;Node6</title>
<path fill="none" stroke="#63b8ff" d="M372.46,-58.89C341.95,-55.47 310.29,-51.91 290.63,-49.7"/>
<polygon fill="#63b8ff" stroke="#63b8ff" points="372.42,-62.41 382.75,-60.05 373.2,-55.46 372.42,-62.41"/>
</g>
<!-- Node5 -->
<g id="node5" class="node">
<title>Node5</title>
<g id="a_node5"><a xlink:href="../../d2/dc1/classTLevelSelector.html#a8052aa13fccc78befaf7cd0cc95fbe97" target="_top" xlink:title=" ">
<polygon fill="white" stroke="#666666" points="157,-100 0,-100 0,-81 157,-81 157,-100"/>
<text text-anchor="middle" x="78.5" y="-88" font-family="Helvetica,sans-Serif" font-size="10.00">TLevelSelector::ChooseLevel</text>
</a>
</g>
</g>
<!-- Node4&#45;&gt;Node5 -->
<g id="edge4" class="edge">
<title>Node4&#45;&gt;Node5</title>
<path fill="none" stroke="#63b8ff" d="M182.49,-90.5C174.04,-90.5 165.5,-90.5 157.15,-90.5"/>
<polygon fill="#63b8ff" stroke="#63b8ff" points="182.74,-94 192.74,-90.5 182.74,-87 182.74,-94"/>
</g>
</g>
</svg>
