<?xml version="1.0" encoding="UTF-8" standalone="no"?>
<!DOCTYPE svg PUBLIC "-//W3C//DTD SVG 1.1//EN"
 "http://www.w3.org/Graphics/SVG/1.1/DTD/svg11.dtd">
<!-- Generated by graphviz version 2.43.0 (0)
 -->
<!-- Title: TLevelReader::ReadString Pages: 1 -->
<svg width="1116pt" height="136pt"
 viewBox="0.00 0.00 1116.00 135.50" xmlns="http://www.w3.org/2000/svg" xmlns:xlink="http://www.w3.org/1999/xlink">
<g id="graph0" class="graph" transform="scale(1 1) rotate(0) translate(4 131.5)">
<title>TLevelReader::ReadString</title>
<!-- Node1 -->
<g id="node1" class="node">
<title>Node1</title>
<g id="a_node1"><a xlink:title=" ">
<polygon fill="#999999" stroke="#666666" points="1108,-37 965,-37 965,-18 1108,-18 1108,-37"/>
<text text-anchor="middle" x="1036.5" y="-25" font-family="Helvetica,sans-Serif" font-size="10.00">TLevelReader::ReadString</text>
</a>
</g>
</g>
<!-- Node2 -->
<g id="node2" class="node">
<title>Node2</title>
<g id="a_node2"><a xlink:href="../../d5/d99/classTLevelReader.html#aa3fd2b19c5d17f7e5b71d28780a7557c" target="_top" xlink:title=" ">
<polygon fill="white" stroke="#666666" points="929,-56 759,-56 759,-37 929,-37 929,-56"/>
<text text-anchor="middle" x="844" y="-44" font-family="Helvetica,sans-Serif" font-size="10.00">TLevelReader::ReadCapitanInfo</text>
</a>
</g>
</g>
<!-- Node1&#45;&gt;Node2 -->
<g id="edge1" class="edge">
<title>Node1&#45;&gt;Node2</title>
<path fill="none" stroke="#63b8ff" d="M954.62,-35.57C946.17,-36.41 937.56,-37.27 929.08,-38.11"/>
<polygon fill="#63b8ff" stroke="#63b8ff" points="955.23,-39.02 964.84,-34.55 954.54,-32.06 955.23,-39.02"/>
</g>
<!-- Node10 -->
<g id="node10" class="node">
<title>Node10</title>
<g id="a_node10"><a xlink:href="../../df/dbf/TestTLevelReader_8cpp.html#a26efccd365e4fbc1179bd9c60661a350" target="_top" xlink:title=" ">
<polygon fill="white" stroke="#666666" points="864.5,-19 823.5,-19 823.5,0 864.5,0 864.5,-19"/>
<text text-anchor="middle" x="844" y="-7" font-family="Helvetica,sans-Serif" font-size="10.00">TEST</text>
</a>
</g>
</g>
<!-- Node1&#45;&gt;Node10 -->
<g id="edge9" class="edge">
<title>Node1&#45;&gt;Node10</title>
<path fill="none" stroke="#63b8ff" d="M954.66,-19.86C921.55,-16.73 886.07,-13.38 864.71,-11.36"/>
<polygon fill="#63b8ff" stroke="#63b8ff" points="954.55,-23.37 964.84,-20.82 955.21,-16.4 954.55,-23.37"/>
</g>
<!-- Node3 -->
<g id="node3" class="node">
<title>Node3</title>
<g id="a_node3"><a xlink:href="../../d5/d99/classTLevelReader.html#a68c3199258c974d81e965a715a61e7e2" target="_top" xlink:title=" ">
<polygon fill="white" stroke="#666666" points="723,-83.5 571,-83.5 571,-53.5 723,-53.5 723,-83.5"/>
<text text-anchor="start" x="579" y="-71.5" font-family="Helvetica,sans-Serif" font-size="10.00">TLevelReader::ReadCapitan</text>
<text text-anchor="middle" x="647" y="-60.5" font-family="Helvetica,sans-Serif" font-size="10.00">Infos</text>
</a>
</g>
</g>
<!-- Node2&#45;&gt;Node3 -->
<g id="edge2" class="edge">
<title>Node2&#45;&gt;Node3</title>
<path fill="none" stroke="#63b8ff" d="M748.84,-57.12C740.25,-58.09 731.63,-59.07 723.24,-60.01"/>
<polygon fill="#63b8ff" stroke="#63b8ff" points="749.34,-60.59 758.89,-55.99 748.56,-53.63 749.34,-60.59"/>
</g>
<!-- Node9 -->
<g id="node9" class="node">
<title>Node9</title>
<g id="a_node9"><a xlink:href="../../df/dbf/TestTLevelReader_8cpp.html#a020e23a9251bc52f0d4dcef03a542b77" target="_top" xlink:title=" ">
<polygon fill="white" stroke="#666666" points="667.5,-35 626.5,-35 626.5,-16 667.5,-16 667.5,-35"/>
<text text-anchor="middle" x="647" y="-23" font-family="Helvetica,sans-Serif" font-size="10.00">TEST</text>
</a>
</g>
</g>
<!-- Node2&#45;&gt;Node9 -->
<g id="edge8" class="edge">
<title>Node2&#45;&gt;Node9</title>
<path fill="none" stroke="#63b8ff" d="M748.94,-36.37C718.18,-33.06 686.98,-29.7 667.57,-27.61"/>
<polygon fill="#63b8ff" stroke="#63b8ff" points="748.57,-39.85 758.89,-37.44 749.32,-32.89 748.57,-39.85"/>
</g>
<!-- Node4 -->
<g id="node4" class="node">
<title>Node4</title>
<g id="a_node4"><a xlink:href="../../d5/d99/classTLevelReader.html#a5e3953bd0caf6e6c60d6750ff732150a" target="_top" xlink:title=" ">
<polygon fill="white" stroke="#666666" points="535,-105.5 383,-105.5 383,-75.5 535,-75.5 535,-105.5"/>
<text text-anchor="start" x="391" y="-93.5" font-family="Helvetica,sans-Serif" font-size="10.00">TLevelReader::ReadMission</text>
<text text-anchor="middle" x="459" y="-82.5" font-family="Helvetica,sans-Serif" font-size="10.00">InfoFromStream</text>
</a>
</g>
</g>
<!-- Node3&#45;&gt;Node4 -->
<g id="edge3" class="edge">
<title>Node3&#45;&gt;Node4</title>
<path fill="none" stroke="#63b8ff" d="M560.85,-78.57C552.26,-79.59 543.57,-80.61 535.1,-81.62"/>
<polygon fill="#63b8ff" stroke="#63b8ff" points="561.36,-82.04 570.88,-77.38 560.54,-75.08 561.36,-82.04"/>
</g>
<!-- Node8 -->
<g id="node8" class="node">
<title>Node8</title>
<g id="a_node8"><a xlink:href="../../df/dbf/TestTLevelReader_8cpp.html#a24daca223446d45d535988669914051e" target="_top" xlink:title=" ">
<polygon fill="white" stroke="#666666" points="479.5,-57 438.5,-57 438.5,-38 479.5,-38 479.5,-57"/>
<text text-anchor="middle" x="459" y="-45" font-family="Helvetica,sans-Serif" font-size="10.00">TEST</text>
</a>
</g>
</g>
<!-- Node3&#45;&gt;Node8 -->
<g id="edge7" class="edge">
<title>Node3&#45;&gt;Node8</title>
<path fill="none" stroke="#63b8ff" d="M560.73,-58.87C530.61,-55.47 499.4,-51.95 479.86,-49.74"/>
<polygon fill="#63b8ff" stroke="#63b8ff" points="560.55,-62.37 570.88,-60.02 561.34,-55.42 560.55,-62.37"/>
</g>
<!-- Node5 -->
<g id="node5" class="node">
<title>Node5</title>
<g id="a_node5"><a xlink:href="../../d2/dc1/classTLevelSelector.html#a1ce3be0dec7c17d6674837ff8742d5ee" target="_top" xlink:title=" ">
<polygon fill="white" stroke="#666666" points="347,-127.5 193,-127.5 193,-97.5 347,-97.5 347,-127.5"/>
<text text-anchor="start" x="201" y="-115.5" font-family="Helvetica,sans-Serif" font-size="10.00">TLevelSelector::readMission</text>
<text text-anchor="middle" x="270" y="-104.5" font-family="Helvetica,sans-Serif" font-size="10.00">InfoFromStream</text>
</a>
</g>
</g>
<!-- Node4&#45;&gt;Node5 -->
<g id="edge4" class="edge">
<title>Node4&#45;&gt;Node5</title>
<path fill="none" stroke="#63b8ff" d="M372.74,-100.53C364.16,-101.54 355.49,-102.56 347.01,-103.56"/>
<polygon fill="#63b8ff" stroke="#63b8ff" points="373.23,-104 382.75,-99.35 372.41,-97.05 373.23,-104"/>
</g>
<!-- Node7 -->
<g id="node7" class="node">
<title>Node7</title>
<g id="a_node7"><a xlink:href="../../df/dbf/TestTLevelReader_8cpp.html#a5b89023c1d74cccde2a4947bc710cd5b" target="_top" xlink:title=" ">
<polygon fill="white" stroke="#666666" points="290.5,-79 249.5,-79 249.5,-60 290.5,-60 290.5,-79"/>
<text text-anchor="middle" x="270" y="-67" font-family="Helvetica,sans-Serif" font-size="10.00">TEST</text>
</a>
</g>
</g>
<!-- Node4&#45;&gt;Node7 -->
<g id="edge6" class="edge">
<title>Node4&#45;&gt;Node7</title>
<path fill="none" stroke="#63b8ff" d="M372.46,-80.89C341.95,-77.47 310.29,-73.91 290.63,-71.7"/>
<polygon fill="#63b8ff" stroke="#63b8ff" points="372.42,-84.41 382.75,-82.05 373.2,-77.46 372.42,-84.41"/>
</g>
<!-- Node6 -->
<g id="node6" class="node">
<title>Node6</title>
<g id="a_node6"><a xlink:href="../../d2/dc1/classTLevelSelector.html#a8052aa13fccc78befaf7cd0cc95fbe97" target="_top" xlink:title=" ">
<polygon fill="white" stroke="#666666" points="157,-122 0,-122 0,-103 157,-103 157,-122"/>
<text text-anchor="middle" x="78.5" y="-110" font-family="Helvetica,sans-Serif" font-size="10.00">TLevelSelector::ChooseLevel</text>
</a>
</g>
</g>
<!-- Node5&#45;&gt;Node6 -->
<g id="edge5" class="edge">
<title>Node5&#45;&gt;Node6</title>
<path fill="none" stroke="#63b8ff" d="M182.49,-112.5C174.04,-112.5 165.5,-112.5 157.15,-112.5"/>
<polygon fill="#63b8ff" stroke="#63b8ff" points="182.74,-116 192.74,-112.5 182.74,-109 182.74,-116"/>
</g>
</g>
</svg>
