<?xml version="1.0" encoding="UTF-8" standalone="no"?>
<!DOCTYPE svg PUBLIC "-//W3C//DTD SVG 1.1//EN"
 "http://www.w3.org/Graphics/SVG/1.1/DTD/svg11.dtd">
<!-- Generated by graphviz version 2.43.0 (0)
 -->
<!-- Title: TLevelReader::ReadSpawnDescriptor Pages: 1 -->
<svg width="1014pt" height="114pt"
 viewBox="0.00 0.00 1014.00 113.50" xmlns="http://www.w3.org/2000/svg" xmlns:xlink="http://www.w3.org/1999/xlink">
<g id="graph0" class="graph" transform="scale(1 1) rotate(0) translate(4 109.5)">
<title>TLevelReader::ReadSpawnDescriptor</title>
<!-- Node1 -->
<g id="node1" class="node">
<title>Node1</title>
<g id="a_node1"><a xlink:title=" ">
<polygon fill="#999999" stroke="#666666" points="1006,-37 809,-37 809,-18 1006,-18 1006,-37"/>
<text text-anchor="middle" x="907.5" y="-25" font-family="Helvetica,sans-Serif" font-size="10.00">TLevelReader::ReadSpawnDescriptor</text>
</a>
</g>
</g>
<!-- Node2 -->
<g id="node2" class="node">
<title>Node2</title>
<g id="a_node2"><a xlink:href="../../d5/d99/classTLevelReader.html#a6e0d6c10291d52c31f5c22b8673dbb98" target="_top" xlink:title=" ">
<polygon fill="white" stroke="#666666" points="773,-56 571,-56 571,-37 773,-37 773,-56"/>
<text text-anchor="middle" x="672" y="-44" font-family="Helvetica,sans-Serif" font-size="10.00">TLevelReader::ReadSpawnDescriptors</text>
</a>
</g>
</g>
<!-- Node1&#45;&gt;Node2 -->
<g id="edge1" class="edge">
<title>Node1&#45;&gt;Node2</title>
<path fill="none" stroke="#63b8ff" d="M798.59,-36.28C790.16,-36.97 781.66,-37.66 773.28,-38.34"/>
<polygon fill="#63b8ff" stroke="#63b8ff" points="799.14,-39.75 808.83,-35.45 798.58,-32.77 799.14,-39.75"/>
</g>
<!-- Node8 -->
<g id="node8" class="node">
<title>Node8</title>
<g id="a_node8"><a xlink:href="../../df/dbf/TestTLevelReader_8cpp.html#a7345c8c1666adc3189772b4d8c854505" target="_top" xlink:title=" ">
<polygon fill="white" stroke="#666666" points="692.5,-19 651.5,-19 651.5,0 692.5,0 692.5,-19"/>
<text text-anchor="middle" x="672" y="-7" font-family="Helvetica,sans-Serif" font-size="10.00">TEST</text>
</a>
</g>
</g>
<!-- Node1&#45;&gt;Node8 -->
<g id="edge7" class="edge">
<title>Node1&#45;&gt;Node8</title>
<path fill="none" stroke="#63b8ff" d="M798.64,-19.19C758.4,-16.08 716.74,-12.87 692.94,-11.04"/>
<polygon fill="#63b8ff" stroke="#63b8ff" points="798.59,-22.69 808.83,-19.97 799.13,-15.71 798.59,-22.69"/>
</g>
<!-- Node3 -->
<g id="node3" class="node">
<title>Node3</title>
<g id="a_node3"><a xlink:href="../../d5/d99/classTLevelReader.html#a5e3953bd0caf6e6c60d6750ff732150a" target="_top" xlink:title=" ">
<polygon fill="white" stroke="#666666" points="535,-83.5 383,-83.5 383,-53.5 535,-53.5 535,-83.5"/>
<text text-anchor="start" x="391" y="-71.5" font-family="Helvetica,sans-Serif" font-size="10.00">TLevelReader::ReadMission</text>
<text text-anchor="middle" x="459" y="-60.5" font-family="Helvetica,sans-Serif" font-size="10.00">InfoFromStream</text>
</a>
</g>
</g>
<!-- Node2&#45;&gt;Node3 -->
<g id="edge2" class="edge">
<title>Node2&#45;&gt;Node3</title>
<path fill="none" stroke="#63b8ff" d="M569.57,-57.08C558.02,-58.28 546.42,-59.49 535.3,-60.65"/>
<polygon fill="#63b8ff" stroke="#63b8ff" points="570.1,-60.54 579.68,-56.02 569.37,-53.58 570.1,-60.54"/>
</g>
<!-- Node7 -->
<g id="node7" class="node">
<title>Node7</title>
<g id="a_node7"><a xlink:href="../../df/dbf/TestTLevelReader_8cpp.html#a3d91a40a002dd06ad7a815653e1c1bfd" target="_top" xlink:title=" ">
<polygon fill="white" stroke="#666666" points="479.5,-35 438.5,-35 438.5,-16 479.5,-16 479.5,-35"/>
<text text-anchor="middle" x="459" y="-23" font-family="Helvetica,sans-Serif" font-size="10.00">TEST</text>
</a>
</g>
</g>
<!-- Node2&#45;&gt;Node7 -->
<g id="edge6" class="edge">
<title>Node2&#45;&gt;Node7</title>
<path fill="none" stroke="#63b8ff" d="M565.23,-35.97C532.49,-32.71 499.79,-29.46 479.73,-27.46"/>
<polygon fill="#63b8ff" stroke="#63b8ff" points="565.08,-39.48 575.38,-36.98 565.77,-32.51 565.08,-39.48"/>
</g>
<!-- Node4 -->
<g id="node4" class="node">
<title>Node4</title>
<g id="a_node4"><a xlink:href="../../d2/dc1/classTLevelSelector.html#a1ce3be0dec7c17d6674837ff8742d5ee" target="_top" xlink:title=" ">
<polygon fill="white" stroke="#666666" points="347,-105.5 193,-105.5 193,-75.5 347,-75.5 347,-105.5"/>
<text text-anchor="start" x="201" y="-93.5" font-family="Helvetica,sans-Serif" font-size="10.00">TLevelSelector::readMission</text>
<text text-anchor="middle" x="270" y="-82.5" font-family="Helvetica,sans-Serif" font-size="10.00">InfoFromStream</text>
</a>
</g>
</g>
<!-- Node3&#45;&gt;Node4 -->
<g id="edge3" class="edge">
<title>Node3&#45;&gt;Node4</title>
<path fill="none" stroke="#63b8ff" d="M372.74,-78.53C364.16,-79.54 355.49,-80.56 347.01,-81.56"/>
<polygon fill="#63b8ff" stroke="#63b8ff" points="373.23,-82 382.75,-77.35 372.41,-75.05 373.23,-82"/>
</g>
<!-- Node6 -->
<g id="node6" class="node">
<title>Node6</title>
<g id="a_node6"><a xlink:href="../../df/dbf/TestTLevelReader_8cpp.html#a5b89023c1d74cccde2a4947bc710cd5b" target="_top" xlink:title=" ">
<polygon fill="white" stroke="#666666" points="290.5,-57 249.5,-57 249.5,-38 290.5,-38 290.5,-57"/>
<text text-anchor="middle" x="270" y="-45" font-family="Helvetica,sans-Serif" font-size="10.00">TEST</text>
</a>
</g>
</g>
<!-- Node3&#45;&gt;Node6 -->
<g id="edge5" class="edge">
<title>Node3&#45;&gt;Node6</title>
<path fill="none" stroke="#63b8ff" d="M372.46,-58.89C341.95,-55.47 310.29,-51.91 290.63,-49.7"/>
<polygon fill="#63b8ff" stroke="#63b8ff" points="372.42,-62.41 382.75,-60.05 373.2,-55.46 372.42,-62.41"/>
</g>
<!-- Node5 -->
<g id="node5" class="node">
<title>Node5</title>
<g id="a_node5"><a xlink:href="../../d2/dc1/classTLevelSelector.html#a8052aa13fccc78befaf7cd0cc95fbe97" target="_top" xlink:title=" ">
<polygon fill="white" stroke="#666666" points="157,-100 0,-100 0,-81 157,-81 157,-100"/>
<text text-anchor="middle" x="78.5" y="-88" font-family="Helvetica,sans-Serif" font-size="10.00">TLevelSelector::ChooseLevel</text>
</a>
</g>
</g>
<!-- Node4&#45;&gt;Node5 -->
<g id="edge4" class="edge">
<title>Node4&#45;&gt;Node5</title>
<path fill="none" stroke="#63b8ff" d="M182.49,-90.5C174.04,-90.5 165.5,-90.5 157.15,-90.5"/>
<polygon fill="#63b8ff" stroke="#63b8ff" points="182.74,-94 192.74,-90.5 182.74,-87 182.74,-94"/>
</g>
</g>
</svg>
