<?xml version="1.0" encoding="UTF-8" standalone="no"?>
<!DOCTYPE svg PUBLIC "-//W3C//DTD SVG 1.1//EN"
 "http://www.w3.org/Graphics/SVG/1.1/DTD/svg11.dtd">
<!-- Generated by graphviz version 2.43.0 (0)
 -->
<!-- Title: TLevelReader::ReadCapitanInfos Pages: 1 -->
<!--zoomable 175 -->
<svg id="main" version="1.1" xmlns="http://www.w3.org/2000/svg" xmlns:xlink="http://www.w3.org/1999/xlink" xml:space="preserve" onload="init(evt)">
<style type="text/css"><![CDATA[
.edge:hover path { stroke: red; }
.edge:hover polygon { stroke: red; fill: red; }
]]></style>
<script type="text/javascript"><![CDATA[
var edges = document.getElementsByTagName('g');
if (edges && edges.length) {
  for (var i=0;i<edges.length;i++) {
    if (edges[i].id.substr(0,4)=='edge') {
      edges[i].setAttribute('class','edge');
    }
  }
}
]]></script>
        <defs>
                <circle id="rim" cx="0" cy="0" r="7"/>
                <circle id="rim2" cx="0" cy="0" r="3.5"/>
                <g id="zoomPlus">
                        <use xlink:href="#rim" fill="#404040">
                                <set attributeName="fill" to="#808080" begin="zoomplus.mouseover" end="zoomplus.mouseout"/>
                        </use>
                        <path d="M-4,0h8M0,-4v8" fill="none" stroke="white" stroke-width="1.5" pointer-events="none"/>
                </g>
                <g id="zoomMin">
                        <use xlink:href="#rim" fill="#404040">
                                <set attributeName="fill" to="#808080" begin="zoomminus.mouseover" end="zoomminus.mouseout"/>
                        </use>
                        <path d="M-4,0h8" fill="none" stroke="white" stroke-width="1.5" pointer-events="none"/>
                </g>
                <g id="dirArrow">
                        <path fill="none" stroke="white" stroke-width="1.5" d="M0,-3.0v7 M-2.5,-0.5L0,-3.0L2.5,-0.5"/>
                </g>
               <g id="resetDef">
                       <use xlink:href="#rim2" fill="#404040">
                               <set attributeName="fill" to="#808080" begin="reset.mouseover" end="reset.mouseout"/>
                       </use>
               </g>
        </defs>

<script type="text/javascript">
var viewWidth = 545;
var viewHeight = 175;
var sectionId = 'dynsection-5';
</script>
<script xlink:href="../../svgpan.js"/>
<svg id="graph" class="graph">
<g id="viewport">
<title>TLevelReader::ReadCapitanInfos</title>
<!-- Node1 -->
<g id="node1" class="node">
<title>Node1</title>
<g id="a_node1"><a xlink:title=" ">
<polygon fill="#999999" stroke="#666666" points="152,-98.5 0,-98.5 0,-68.5 152,-68.5 152,-98.5"/>
<text text-anchor="start" x="8" y="-86.5" font-family="Helvetica,sans-Serif" font-size="10.00">TLevelReader::ReadCapitan</text>
<text text-anchor="middle" x="76" y="-75.5" font-family="Helvetica,sans-Serif" font-size="10.00">Infos</text>
</a>
</g>
</g>
<!-- Node2 -->
<g id="node2" class="node">
<title>Node2</title>
<g id="a_node2"><a xlink:href="../../d8/d51/classMyList.html#a723c00a8380b8fd0705cb286cdd179d2" target="_top" xlink:title=" ">
<polygon fill="white" stroke="#666666" points="309.5,-167 236.5,-167 236.5,-148 309.5,-148 309.5,-167"/>
<text text-anchor="middle" x="273" y="-155" font-family="Helvetica,sans-Serif" font-size="10.00">MyList::end</text>
</a>
</g>
</g>
<!-- Node1&#45;&gt;Node2 -->
<g id="edge1" class="edge">
<title>Node1&#45;&gt;Node2</title>
<path fill="none" stroke="#63b8ff" d="M102.19,-98.56C124.17,-111.12 157.26,-128.66 188,-139.5 200.21,-143.81 213.79,-147.26 226.42,-149.95"/>
<polygon fill="#63b8ff" stroke="#63b8ff" points="225.8,-153.39 236.3,-151.94 227.18,-146.53 225.8,-153.39"/>
</g>
<!-- Node3 -->
<g id="node3" class="node">
<title>Node3</title>
<g id="a_node3"><a xlink:href="../../d8/d51/classMyList.html#ab5e189776aca91f01ee5fe930318c289" target="_top" xlink:title=" ">
<polygon fill="white" stroke="#666666" points="314.5,-130 231.5,-130 231.5,-111 314.5,-111 314.5,-130"/>
<text text-anchor="middle" x="273" y="-118" font-family="Helvetica,sans-Serif" font-size="10.00">MyList::insert</text>
</a>
</g>
</g>
<!-- Node1&#45;&gt;Node3 -->
<g id="edge2" class="edge">
<title>Node1&#45;&gt;Node3</title>
<path fill="none" stroke="#63b8ff" d="M152.11,-97.75C175.26,-102.14 200.18,-106.87 221.27,-110.87"/>
<polygon fill="#63b8ff" stroke="#63b8ff" points="220.82,-114.35 231.29,-112.78 222.12,-107.47 220.82,-114.35"/>
</g>
<!-- Node4 -->
<g id="node4" class="node">
<title>Node4</title>
<g id="a_node4"><a xlink:href="../../d5/d99/classTLevelReader.html#aa3fd2b19c5d17f7e5b71d28780a7557c" target="_top" xlink:title=" ">
<polygon fill="white" stroke="#666666" points="358,-93 188,-93 188,-74 358,-74 358,-93"/>
<text text-anchor="middle" x="273" y="-81" font-family="Helvetica,sans-Serif" font-size="10.00">TLevelReader::ReadCapitanInfo</text>
</a>
</g>
</g>
<!-- Node1&#45;&gt;Node4 -->
<g id="edge3" class="edge">
<title>Node1&#45;&gt;Node4</title>
<path fill="none" stroke="#63b8ff" d="M152.11,-83.5C160.52,-83.5 169.16,-83.5 177.76,-83.5"/>
<polygon fill="#63b8ff" stroke="#63b8ff" points="177.84,-87 187.84,-83.5 177.84,-80 177.84,-87"/>
</g>
<!-- Node6 -->
<g id="node6" class="node">
<title>Node6</title>
<g id="a_node6"><a xlink:href="../../d5/d99/classTLevelReader.html#a25bd379fa12d624375f165251b9c1178" target="_top" xlink:title=" ">
<polygon fill="white" stroke="#666666" points="346,-56 200,-56 200,-37 346,-37 346,-56"/>
<text text-anchor="middle" x="273" y="-44" font-family="Helvetica,sans-Serif" font-size="10.00">TLevelReader::ReadEmpty</text>
</a>
</g>
</g>
<!-- Node1&#45;&gt;Node6 -->
<g id="edge5" class="edge">
<title>Node1&#45;&gt;Node6</title>
<path fill="none" stroke="#63b8ff" d="M152.11,-69.25C171.85,-65.5 192.88,-61.51 211.72,-57.94"/>
<polygon fill="#63b8ff" stroke="#63b8ff" points="212.48,-61.36 221.65,-56.05 211.17,-54.48 212.48,-61.36"/>
</g>
<!-- Node7 -->
<g id="node7" class="node">
<title>Node7</title>
<g id="a_node7"><a xlink:href="../../d5/d99/classTLevelReader.html#a82ec22fb9386deb547a0a0862bc90301" target="_top" xlink:title=" ">
<polygon fill="white" stroke="#666666" points="336.5,-19 209.5,-19 209.5,0 336.5,0 336.5,-19"/>
<text text-anchor="middle" x="273" y="-7" font-family="Helvetica,sans-Serif" font-size="10.00">TLevelReader::ReadInt</text>
</a>
</g>
</g>
<!-- Node1&#45;&gt;Node7 -->
<g id="edge6" class="edge">
<title>Node1&#45;&gt;Node7</title>
<path fill="none" stroke="#63b8ff" d="M103.14,-68.33C125.15,-56.1 157.8,-39.22 188,-28.5 195.33,-25.9 203.15,-23.57 210.96,-21.51"/>
<polygon fill="#63b8ff" stroke="#63b8ff" points="211.96,-24.86 220.81,-19.04 210.26,-18.07 211.96,-24.86"/>
</g>
<!-- Node5 -->
<g id="node5" class="node">
<title>Node5</title>
<g id="a_node5"><a xlink:href="../../d5/d99/classTLevelReader.html#a2b97e074354c270b0502ec57d528d73b" target="_top" xlink:title=" ">
<polygon fill="white" stroke="#666666" points="537,-93 394,-93 394,-74 537,-74 537,-93"/>
<text text-anchor="middle" x="465.5" y="-81" font-family="Helvetica,sans-Serif" font-size="10.00">TLevelReader::ReadString</text>
</a>
</g>
</g>
<!-- Node4&#45;&gt;Node5 -->
<g id="edge4" class="edge">
<title>Node4&#45;&gt;Node5</title>
<path fill="none" stroke="#63b8ff" d="M358.11,-83.5C366.61,-83.5 375.24,-83.5 383.7,-83.5"/>
<polygon fill="#63b8ff" stroke="#63b8ff" points="383.94,-87 393.94,-83.5 383.94,-80 383.94,-87"/>
</g>
</g>
</svg>
        <g id="navigator" transform="translate(0 0)" fill="#404254">
                <rect fill="#f2f5e9" fill-opacity="0.5" stroke="#606060" stroke-width=".5" x="0" y="0" width="60" height="60"/>
                <use id="zoomplus" xlink:href="#zoomPlus" x="17" y="9" onmousedown="handleZoom(evt,'in')"/>
                <use id="zoomminus" xlink:href="#zoomMin" x="42" y="9" onmousedown="handleZoom(evt,'out')"/>
                <use id="reset" xlink:href="#resetDef" x="30" y="36" onmousedown="handleReset()"/>
                <g id="arrowUp" xlink:href="#dirArrow" transform="translate(30 24)" onmousedown="handlePan(0,-1)">
                  <use xlink:href="#rim" fill="#404040">
                        <set attributeName="fill" to="#808080" begin="arrowUp.mouseover" end="arrowUp.mouseout"/>
                  </use>
                  <path fill="none" stroke="white" stroke-width="1.5" d="M0,-3.0v7 M-2.5,-0.5L0,-3.0L2.5,-0.5"/>
                </g>
                <g id="arrowRight" xlink:href="#dirArrow" transform="rotate(90) translate(36 -43)" onmousedown="handlePan(1,0)">
                  <use xlink:href="#rim" fill="#404040">
                        <set attributeName="fill" to="#808080" begin="arrowRight.mouseover" end="arrowRight.mouseout"/>
                  </use>
                  <path fill="none" stroke="white" stroke-width="1.5" d="M0,-3.0v7 M-2.5,-0.5L0,-3.0L2.5,-0.5"/>
                </g>
                <g id="arrowDown" xlink:href="#dirArrow" transform="rotate(180) translate(-30 -48)" onmousedown="handlePan(0,1)">
                  <use xlink:href="#rim" fill="#404040">
                        <set attributeName="fill" to="#808080" begin="arrowDown.mouseover" end="arrowDown.mouseout"/>
                  </use>
                  <path fill="none" stroke="white" stroke-width="1.5" d="M0,-3.0v7 M-2.5,-0.5L0,-3.0L2.5,-0.5"/>
                </g>
                <g id="arrowLeft" xlink:href="#dirArrow" transform="rotate(270) translate(-36 17)" onmousedown="handlePan(-1,0)">
                  <use xlink:href="#rim" fill="#404040">
                        <set attributeName="fill" to="#808080" begin="arrowLeft.mouseover" end="arrowLeft.mouseout"/>
                  </use>
                  <path fill="none" stroke="white" stroke-width="1.5" d="M0,-3.0v7 M-2.5,-0.5L0,-3.0L2.5,-0.5"/>
                </g>
        </g>
        <svg viewBox="0 0 15 15" width="100%" height="30px" preserveAspectRatio="xMaxYMin meet">
         <g id="arrow_out" transform="scale(0.3 0.3)">
          <a xlink:href="classTLevelReader_a68c3199258c974d81e965a715a61e7e2_cgraph_org.svg" target="_base">
           <rect id="button" ry="5" rx="5" y="6" x="6" height="38" width="38"
                fill="#f2f5e9" fill-opacity="0.5" stroke="#606060" stroke-width="1.0"/>
           <path id="arrow"
             d="M 11.500037,31.436501 C 11.940474,20.09759 22.043105,11.32322 32.158766,21.979434 L 37.068811,17.246167 C 37.068811,17.246167 37.088388,32 37.088388,32 L 22.160133,31.978069 C 22.160133,31.978069 26.997745,27.140456 26.997745,27.140456 C 18.528582,18.264221 13.291696,25.230495 11.500037,31.436501 z"
             style="fill:#404040;"/>
          </a>
         </g>
        </svg>
</svg>
