<?xml version="1.0" encoding="UTF-8" standalone="no"?>
<!DOCTYPE svg PUBLIC "-//W3C//DTD SVG 1.1//EN"
 "http://www.w3.org/Graphics/SVG/1.1/DTD/svg11.dtd">
<!-- Generated by graphviz version 2.43.0 (0)
 -->
<!-- Title: TLevelReader::ReadCapitanInfo Pages: 1 -->
<svg width="937pt" height="120pt"
 viewBox="0.00 0.00 937.00 119.50" xmlns="http://www.w3.org/2000/svg" xmlns:xlink="http://www.w3.org/1999/xlink">
<g id="graph0" class="graph" transform="scale(1 1) rotate(0) translate(4 115.5)">
<title>TLevelReader::ReadCapitanInfo</title>
<!-- Node1 -->
<g id="node1" class="node">
<title>Node1</title>
<g id="a_node1"><a xlink:title=" ">
<polygon fill="#999999" stroke="#666666" points="929,-40 759,-40 759,-21 929,-21 929,-40"/>
<text text-anchor="middle" x="844" y="-28" font-family="Helvetica,sans-Serif" font-size="10.00">TLevelReader::ReadCapitanInfo</text>
</a>
</g>
</g>
<!-- Node2 -->
<g id="node2" class="node">
<title>Node2</title>
<g id="a_node2"><a xlink:href="../../d5/d99/classTLevelReader.html#a68c3199258c974d81e965a715a61e7e2" target="_top" xlink:title=" ">
<polygon fill="white" stroke="#666666" points="723,-67.5 571,-67.5 571,-37.5 723,-37.5 723,-67.5"/>
<text text-anchor="start" x="579" y="-55.5" font-family="Helvetica,sans-Serif" font-size="10.00">TLevelReader::ReadCapitan</text>
<text text-anchor="middle" x="647" y="-44.5" font-family="Helvetica,sans-Serif" font-size="10.00">Infos</text>
</a>
</g>
</g>
<!-- Node1&#45;&gt;Node2 -->
<g id="edge1" class="edge">
<title>Node1&#45;&gt;Node2</title>
<path fill="none" stroke="#63b8ff" d="M748.84,-41.12C740.25,-42.09 731.63,-43.07 723.24,-44.01"/>
<polygon fill="#63b8ff" stroke="#63b8ff" points="749.34,-44.59 758.89,-39.99 748.56,-37.63 749.34,-44.59"/>
</g>
<!-- Node8 -->
<g id="node8" class="node">
<title>Node8</title>
<g id="a_node8"><a xlink:href="../../df/dbf/TestTLevelReader_8cpp.html#a020e23a9251bc52f0d4dcef03a542b77" target="_top" xlink:title=" ">
<polygon fill="white" stroke="#666666" points="667.5,-19 626.5,-19 626.5,0 667.5,0 667.5,-19"/>
<text text-anchor="middle" x="647" y="-7" font-family="Helvetica,sans-Serif" font-size="10.00">TEST</text>
</a>
</g>
</g>
<!-- Node1&#45;&gt;Node8 -->
<g id="edge7" class="edge">
<title>Node1&#45;&gt;Node8</title>
<path fill="none" stroke="#63b8ff" d="M748.94,-20.37C718.18,-17.06 686.98,-13.7 667.57,-11.61"/>
<polygon fill="#63b8ff" stroke="#63b8ff" points="748.57,-23.85 758.89,-21.44 749.32,-16.89 748.57,-23.85"/>
</g>
<!-- Node3 -->
<g id="node3" class="node">
<title>Node3</title>
<g id="a_node3"><a xlink:href="../../d5/d99/classTLevelReader.html#a5e3953bd0caf6e6c60d6750ff732150a" target="_top" xlink:title=" ">
<polygon fill="white" stroke="#666666" points="535,-89.5 383,-89.5 383,-59.5 535,-59.5 535,-89.5"/>
<text text-anchor="start" x="391" y="-77.5" font-family="Helvetica,sans-Serif" font-size="10.00">TLevelReader::ReadMission</text>
<text text-anchor="middle" x="459" y="-66.5" font-family="Helvetica,sans-Serif" font-size="10.00">InfoFromStream</text>
</a>
</g>
</g>
<!-- Node2&#45;&gt;Node3 -->
<g id="edge2" class="edge">
<title>Node2&#45;&gt;Node3</title>
<path fill="none" stroke="#63b8ff" d="M560.85,-62.57C552.26,-63.59 543.57,-64.61 535.1,-65.62"/>
<polygon fill="#63b8ff" stroke="#63b8ff" points="561.36,-66.04 570.88,-61.38 560.54,-59.08 561.36,-66.04"/>
</g>
<!-- Node7 -->
<g id="node7" class="node">
<title>Node7</title>
<g id="a_node7"><a xlink:href="../../df/dbf/TestTLevelReader_8cpp.html#a24daca223446d45d535988669914051e" target="_top" xlink:title=" ">
<polygon fill="white" stroke="#666666" points="479.5,-41 438.5,-41 438.5,-22 479.5,-22 479.5,-41"/>
<text text-anchor="middle" x="459" y="-29" font-family="Helvetica,sans-Serif" font-size="10.00">TEST</text>
</a>
</g>
</g>
<!-- Node2&#45;&gt;Node7 -->
<g id="edge6" class="edge">
<title>Node2&#45;&gt;Node7</title>
<path fill="none" stroke="#63b8ff" d="M560.73,-42.87C530.61,-39.47 499.4,-35.95 479.86,-33.74"/>
<polygon fill="#63b8ff" stroke="#63b8ff" points="560.55,-46.37 570.88,-44.02 561.34,-39.42 560.55,-46.37"/>
</g>
<!-- Node4 -->
<g id="node4" class="node">
<title>Node4</title>
<g id="a_node4"><a xlink:href="../../d2/dc1/classTLevelSelector.html#a1ce3be0dec7c17d6674837ff8742d5ee" target="_top" xlink:title=" ">
<polygon fill="white" stroke="#666666" points="347,-111.5 193,-111.5 193,-81.5 347,-81.5 347,-111.5"/>
<text text-anchor="start" x="201" y="-99.5" font-family="Helvetica,sans-Serif" font-size="10.00">TLevelSelector::readMission</text>
<text text-anchor="middle" x="270" y="-88.5" font-family="Helvetica,sans-Serif" font-size="10.00">InfoFromStream</text>
</a>
</g>
</g>
<!-- Node3&#45;&gt;Node4 -->
<g id="edge3" class="edge">
<title>Node3&#45;&gt;Node4</title>
<path fill="none" stroke="#63b8ff" d="M372.74,-84.53C364.16,-85.54 355.49,-86.56 347.01,-87.56"/>
<polygon fill="#63b8ff" stroke="#63b8ff" points="373.23,-88 382.75,-83.35 372.41,-81.05 373.23,-88"/>
</g>
<!-- Node6 -->
<g id="node6" class="node">
<title>Node6</title>
<g id="a_node6"><a xlink:href="../../df/dbf/TestTLevelReader_8cpp.html#a5b89023c1d74cccde2a4947bc710cd5b" target="_top" xlink:title=" ">
<polygon fill="white" stroke="#666666" points="290.5,-63 249.5,-63 249.5,-44 290.5,-44 290.5,-63"/>
<text text-anchor="middle" x="270" y="-51" font-family="Helvetica,sans-Serif" font-size="10.00">TEST</text>
</a>
</g>
</g>
<!-- Node3&#45;&gt;Node6 -->
<g id="edge5" class="edge">
<title>Node3&#45;&gt;Node6</title>
<path fill="none" stroke="#63b8ff" d="M372.46,-64.89C341.95,-61.47 310.29,-57.91 290.63,-55.7"/>
<polygon fill="#63b8ff" stroke="#63b8ff" points="372.42,-68.41 382.75,-66.05 373.2,-61.46 372.42,-68.41"/>
</g>
<!-- Node5 -->
<g id="node5" class="node">
<title>Node5</title>
<g id="a_node5"><a xlink:href="../../d2/dc1/classTLevelSelector.html#a8052aa13fccc78befaf7cd0cc95fbe97" target="_top" xlink:title=" ">
<polygon fill="white" stroke="#666666" points="157,-106 0,-106 0,-87 157,-87 157,-106"/>
<text text-anchor="middle" x="78.5" y="-94" font-family="Helvetica,sans-Serif" font-size="10.00">TLevelSelector::ChooseLevel</text>
</a>
</g>
</g>
<!-- Node4&#45;&gt;Node5 -->
<g id="edge4" class="edge">
<title>Node4&#45;&gt;Node5</title>
<path fill="none" stroke="#63b8ff" d="M182.49,-96.5C174.04,-96.5 165.5,-96.5 157.15,-96.5"/>
<polygon fill="#63b8ff" stroke="#63b8ff" points="182.74,-100 192.74,-96.5 182.74,-93 182.74,-100"/>
</g>
</g>
</svg>
