<?xml version="1.0" encoding="UTF-8" standalone="no"?>
<!DOCTYPE svg PUBLIC "-//W3C//DTD SVG 1.1//EN"
 "http://www.w3.org/Graphics/SVG/1.1/DTD/svg11.dtd">
<!-- Generated by graphviz version 2.43.0 (0)
 -->
<!-- Title: TLevelReader::ReadShips Pages: 1 -->
<svg width="493pt" height="177pt"
 viewBox="0.00 0.00 493.00 177.00" xmlns="http://www.w3.org/2000/svg" xmlns:xlink="http://www.w3.org/1999/xlink">
<g id="graph0" class="graph" transform="scale(1 1) rotate(0) translate(4 173)">
<title>TLevelReader::ReadShips</title>
<!-- Node1 -->
<g id="node1" class="node">
<title>Node1</title>
<g id="a_node1"><a xlink:title=" ">
<polygon fill="#999999" stroke="#666666" points="140,-95 0,-95 0,-76 140,-76 140,-95"/>
<text text-anchor="middle" x="70" y="-83" font-family="Helvetica,sans-Serif" font-size="10.00">TLevelReader::ReadShips</text>
</a>
</g>
</g>
<!-- Node2 -->
<g id="node2" class="node">
<title>Node2</title>
<g id="a_node2"><a xlink:href="../../d8/d51/classMyList.html#a723c00a8380b8fd0705cb286cdd179d2" target="_top" xlink:title=" ">
<polygon fill="white" stroke="#666666" points="285.5,-169 212.5,-169 212.5,-150 285.5,-150 285.5,-169"/>
<text text-anchor="middle" x="249" y="-157" font-family="Helvetica,sans-Serif" font-size="10.00">MyList::end</text>
</a>
</g>
</g>
<!-- Node1&#45;&gt;Node2 -->
<g id="edge1" class="edge">
<title>Node1&#45;&gt;Node2</title>
<path fill="none" stroke="#63b8ff" d="M86.09,-95.08C106,-107.36 142.45,-128.59 176,-141.5 184.39,-144.73 193.55,-147.53 202.44,-149.91"/>
<polygon fill="#63b8ff" stroke="#63b8ff" points="201.76,-153.34 212.31,-152.4 203.47,-146.56 201.76,-153.34"/>
</g>
<!-- Node3 -->
<g id="node3" class="node">
<title>Node3</title>
<g id="a_node3"><a xlink:href="../../d8/d51/classMyList.html#ab5e189776aca91f01ee5fe930318c289" target="_top" xlink:title=" ">
<polygon fill="white" stroke="#666666" points="290.5,-132 207.5,-132 207.5,-113 290.5,-113 290.5,-132"/>
<text text-anchor="middle" x="249" y="-120" font-family="Helvetica,sans-Serif" font-size="10.00">MyList::insert</text>
</a>
</g>
</g>
<!-- Node1&#45;&gt;Node3 -->
<g id="edge2" class="edge">
<title>Node1&#45;&gt;Node3</title>
<path fill="none" stroke="#63b8ff" d="M116.58,-95.03C141.36,-100.21 172.06,-106.62 197.55,-111.95"/>
<polygon fill="#63b8ff" stroke="#63b8ff" points="196.9,-115.39 207.4,-114.01 198.33,-108.54 196.9,-115.39"/>
</g>
<!-- Node4 -->
<g id="node4" class="node">
<title>Node4</title>
<g id="a_node4"><a xlink:href="../../d5/d99/classTLevelReader.html#a25bd379fa12d624375f165251b9c1178" target="_top" xlink:title=" ">
<polygon fill="white" stroke="#666666" points="322,-95 176,-95 176,-76 322,-76 322,-95"/>
<text text-anchor="middle" x="249" y="-83" font-family="Helvetica,sans-Serif" font-size="10.00">TLevelReader::ReadEmpty</text>
</a>
</g>
</g>
<!-- Node1&#45;&gt;Node4 -->
<g id="edge3" class="edge">
<title>Node1&#45;&gt;Node4</title>
<path fill="none" stroke="#63b8ff" d="M140.19,-85.5C148.63,-85.5 157.3,-85.5 165.9,-85.5"/>
<polygon fill="#63b8ff" stroke="#63b8ff" points="165.94,-89 175.94,-85.5 165.94,-82 165.94,-89"/>
</g>
<!-- Node5 -->
<g id="node5" class="node">
<title>Node5</title>
<g id="a_node5"><a xlink:href="../../d5/d99/classTLevelReader.html#a82ec22fb9386deb547a0a0862bc90301" target="_top" xlink:title=" ">
<polygon fill="white" stroke="#666666" points="485,-56 358,-56 358,-37 485,-37 485,-56"/>
<text text-anchor="middle" x="421.5" y="-44" font-family="Helvetica,sans-Serif" font-size="10.00">TLevelReader::ReadInt</text>
</a>
</g>
</g>
<!-- Node1&#45;&gt;Node5 -->
<g id="edge4" class="edge">
<title>Node1&#45;&gt;Node5</title>
<path fill="none" stroke="#63b8ff" d="M121.34,-75.99C138.62,-72.96 158.11,-69.8 176,-67.5 233.5,-60.12 298.95,-54.65 347.66,-51.15"/>
<polygon fill="#63b8ff" stroke="#63b8ff" points="348.06,-54.63 357.79,-50.43 347.56,-47.64 348.06,-54.63"/>
</g>
<!-- Node6 -->
<g id="node6" class="node">
<title>Node6</title>
<g id="a_node6"><a xlink:href="../../d5/d99/classTLevelReader.html#a111bc6a9c4250c31a0689e62f7113254" target="_top" xlink:title=" ">
<polygon fill="white" stroke="#666666" points="316.5,-19 181.5,-19 181.5,0 316.5,0 316.5,-19"/>
<text text-anchor="middle" x="249" y="-7" font-family="Helvetica,sans-Serif" font-size="10.00">TLevelReader::ReadShip</text>
</a>
</g>
</g>
<!-- Node1&#45;&gt;Node6 -->
<g id="edge5" class="edge">
<title>Node1&#45;&gt;Node6</title>
<path fill="none" stroke="#63b8ff" d="M88.49,-75.91C109.06,-64.84 144.4,-46.52 176,-33.5 185.69,-29.51 196.3,-25.68 206.33,-22.3"/>
<polygon fill="#63b8ff" stroke="#63b8ff" points="207.71,-25.54 216.11,-19.08 205.52,-18.89 207.71,-25.54"/>
</g>
<!-- Node6&#45;&gt;Node5 -->
<g id="edge7" class="edge">
<title>Node6&#45;&gt;Node5</title>
<path fill="none" stroke="#63b8ff" d="M293.91,-19.03C316.1,-23.84 343.21,-29.73 366.65,-34.81"/>
<polygon fill="#63b8ff" stroke="#63b8ff" points="365.93,-38.24 376.44,-36.94 367.41,-31.4 365.93,-38.24"/>
</g>
<!-- Node7 -->
<g id="node7" class="node">
<title>Node7</title>
<g id="a_node7"><a xlink:href="../../d8/d51/classMyList.html#a80edb252c7e71107fac78c29647be513" target="_top" xlink:title=" ">
<polygon fill="white" stroke="#666666" points="467.5,-19 375.5,-19 375.5,0 467.5,0 467.5,-19"/>
<text text-anchor="middle" x="421.5" y="-7" font-family="Helvetica,sans-Serif" font-size="10.00">MyList::getById</text>
</a>
</g>
</g>
<!-- Node6&#45;&gt;Node7 -->
<g id="edge6" class="edge">
<title>Node6&#45;&gt;Node7</title>
<path fill="none" stroke="#63b8ff" d="M316.9,-9.5C332.82,-9.5 349.63,-9.5 364.98,-9.5"/>
<polygon fill="#63b8ff" stroke="#63b8ff" points="365.34,-13 375.34,-9.5 365.34,-6 365.34,-13"/>
</g>
</g>
</svg>
