<?xml version="1.0" encoding="UTF-8" standalone="no"?>
<!DOCTYPE svg PUBLIC "-//W3C//DTD SVG 1.1//EN"
 "http://www.w3.org/Graphics/SVG/1.1/DTD/svg11.dtd">
<!-- Generated by graphviz version 2.43.0 (0)
 -->
<!-- Title: TLevelReader::ReadMissionInfoFromStream Pages: 1 -->
<!--zoomable 591 -->
<svg id="main" version="1.1" xmlns="http://www.w3.org/2000/svg" xmlns:xlink="http://www.w3.org/1999/xlink" xml:space="preserve" onload="init(evt)">
<style type="text/css"><![CDATA[
.edge:hover path { stroke: red; }
.edge:hover polygon { stroke: red; fill: red; }
]]></style>
<script type="text/javascript"><![CDATA[
var edges = document.getElementsByTagName('g');
if (edges && edges.length) {
  for (var i=0;i<edges.length;i++) {
    if (edges[i].id.substr(0,4)=='edge') {
      edges[i].setAttribute('class','edge');
    }
  }
}
]]></script>
        <defs>
                <circle id="rim" cx="0" cy="0" r="7"/>
                <circle id="rim2" cx="0" cy="0" r="3.5"/>
                <g id="zoomPlus">
                        <use xlink:href="#rim" fill="#404040">
                                <set attributeName="fill" to="#808080" begin="zoomplus.mouseover" end="zoomplus.mouseout"/>
                        </use>
                        <path d="M-4,0h8M0,-4v8" fill="none" stroke="white" stroke-width="1.5" pointer-events="none"/>
                </g>
                <g id="zoomMin">
                        <use xlink:href="#rim" fill="#404040">
                                <set attributeName="fill" to="#808080" begin="zoomminus.mouseover" end="zoomminus.mouseout"/>
                        </use>
                        <path d="M-4,0h8" fill="none" stroke="white" stroke-width="1.5" pointer-events="none"/>
                </g>
                <g id="dirArrow">
                        <path fill="none" stroke="white" stroke-width="1.5" d="M0,-3.0v7 M-2.5,-0.5L0,-3.0L2.5,-0.5"/>
                </g>
               <g id="resetDef">
                       <use xlink:href="#rim2" fill="#404040">
                               <set attributeName="fill" to="#808080" begin="reset.mouseover" end="reset.mouseout"/>
                       </use>
               </g>
        </defs>

<script type="text/javascript">
var viewWidth = 810;
var viewHeight = 591;
var sectionId = 'dynsection-11';
</script>
<script xlink:href="../../svgpan.js"/>
<svg id="graph" class="graph">
<g id="viewport">
<title>TLevelReader::ReadMissionInfoFromStream</title>
<!-- Node1 -->
<g id="node1" class="node">
<title>Node1</title>
<g id="a_node1"><a xlink:title=" ">
<polygon fill="#999999" stroke="#666666" points="152,-301.07 0,-301.07 0,-271.07 152,-271.07 152,-301.07"/>
<text text-anchor="start" x="8" y="-289.07" font-family="Helvetica,sans-Serif" font-size="10.00">TLevelReader::ReadMission</text>
<text text-anchor="middle" x="76" y="-278.07" font-family="Helvetica,sans-Serif" font-size="10.00">InfoFromStream</text>
</a>
</g>
</g>
<!-- Node2 -->
<g id="node2" class="node">
<title>Node2</title>
<g id="a_node2"><a xlink:href="../../d8/d51/classMyList.html#a80edb252c7e71107fac78c29647be513" target="_top" xlink:title=" ">
<polygon fill="white" stroke="#666666" points="776.5,-560.57 684.5,-560.57 684.5,-541.57 776.5,-541.57 776.5,-560.57"/>
<text text-anchor="middle" x="730.5" y="-548.57" font-family="Helvetica,sans-Serif" font-size="10.00">MyList::getById</text>
</a>
</g>
</g>
<!-- Node1&#45;&gt;Node2 -->
<g id="edge1" class="edge">
<title>Node1&#45;&gt;Node2</title>
<path fill="none" stroke="#63b8ff" d="M86.16,-301.24C103.45,-328.95 143.17,-388.54 188,-428.07 280.39,-509.53 307.25,-537.33 426,-570.07 515.01,-594.6 624.04,-576.75 684.2,-562.97"/>
<polygon fill="#63b8ff" stroke="#63b8ff" points="685.21,-566.33 694.14,-560.63 683.61,-559.52 685.21,-566.33"/>
</g>
<!-- Node3 -->
<g id="node3" class="node">
<title>Node3</title>
<g id="a_node3"><a xlink:href="../../d5/d99/classTLevelReader.html#ac28bf996f8431c89710180136c30c180" target="_top" xlink:title=" ">
<polygon fill="white" stroke="#666666" points="358,-31.57 220,-31.57 220,-12.57 358,-12.57 358,-31.57"/>
<text text-anchor="middle" x="289" y="-19.57" font-family="Helvetica,sans-Serif" font-size="10.00">TLevelReader::ReadBase</text>
</a>
</g>
</g>
<!-- Node1&#45;&gt;Node3 -->
<g id="edge2" class="edge">
<title>Node1&#45;&gt;Node3</title>
<path fill="none" stroke="#63b8ff" d="M79.35,-270.92C86.77,-228.36 113.79,-106.89 188,-46.07 194.6,-40.66 202.22,-36.43 210.25,-33.13"/>
<polygon fill="#63b8ff" stroke="#63b8ff" points="211.61,-36.36 219.83,-29.68 209.24,-29.78 211.61,-36.36"/>
</g>
<!-- Node4 -->
<g id="node4" class="node">
<title>Node4</title>
<g id="a_node4"><a xlink:href="../../d5/d99/classTLevelReader.html#a82ec22fb9386deb547a0a0862bc90301" target="_top" xlink:title=" ">
<polygon fill="white" stroke="#666666" points="794,-296.57 667,-296.57 667,-277.57 794,-277.57 794,-296.57"/>
<text text-anchor="middle" x="730.5" y="-284.57" font-family="Helvetica,sans-Serif" font-size="10.00">TLevelReader::ReadInt</text>
</a>
</g>
</g>
<!-- Node1&#45;&gt;Node4 -->
<g id="edge12" class="edge">
<title>Node1&#45;&gt;Node4</title>
<path fill="none" stroke="#63b8ff" d="M89.99,-270.73C109.43,-248.54 148.09,-207.28 188,-181.07 284.18,-117.88 313.27,-102.21 426,-79.07 511.77,-61.46 548.3,-33.39 623,-79.07 658.4,-100.71 705.23,-220.58 722.62,-267.87"/>
<polygon fill="#63b8ff" stroke="#63b8ff" points="719.42,-269.32 726.13,-277.52 726,-266.93 719.42,-269.32"/>
</g>
<!-- Node5 -->
<g id="node5" class="node">
<title>Node5</title>
<g id="a_node5"><a xlink:href="../../d5/d99/classTLevelReader.html#a68c3199258c974d81e965a715a61e7e2" target="_top" xlink:title=" ">
<polygon fill="white" stroke="#666666" points="365,-220.07 213,-220.07 213,-190.07 365,-190.07 365,-220.07"/>
<text text-anchor="start" x="221" y="-208.07" font-family="Helvetica,sans-Serif" font-size="10.00">TLevelReader::ReadCapitan</text>
<text text-anchor="middle" x="289" y="-197.07" font-family="Helvetica,sans-Serif" font-size="10.00">Infos</text>
</a>
</g>
</g>
<!-- Node1&#45;&gt;Node5 -->
<g id="edge4" class="edge">
<title>Node1&#45;&gt;Node5</title>
<path fill="none" stroke="#63b8ff" d="M102.72,-271.02C124.76,-258.64 157.65,-241.35 188,-230.07 194.86,-227.51 202.08,-225.14 209.37,-222.95"/>
<polygon fill="#63b8ff" stroke="#63b8ff" points="210.69,-226.21 219.33,-220.08 208.76,-219.49 210.69,-226.21"/>
</g>
<!-- Node10 -->
<g id="node10" class="node">
<title>Node10</title>
<g id="a_node10"><a xlink:href="../../d5/d99/classTLevelReader.html#a25bd379fa12d624375f165251b9c1178" target="_top" xlink:title=" ">
<polygon fill="white" stroke="#666666" points="597.5,-259.57 451.5,-259.57 451.5,-240.57 597.5,-240.57 597.5,-259.57"/>
<text text-anchor="middle" x="524.5" y="-247.57" font-family="Helvetica,sans-Serif" font-size="10.00">TLevelReader::ReadEmpty</text>
</a>
</g>
</g>
<!-- Node1&#45;&gt;Node10 -->
<g id="edge11" class="edge">
<title>Node1&#45;&gt;Node10</title>
<path fill="none" stroke="#63b8ff" d="M152.05,-282.9C215.52,-279.9 308.83,-274.69 390,-267.07 408.06,-265.37 427.44,-263.14 445.68,-260.85"/>
<polygon fill="#63b8ff" stroke="#63b8ff" points="446.2,-264.32 455.68,-259.58 445.32,-257.37 446.2,-264.32"/>
</g>
<!-- Node11 -->
<g id="node11" class="node">
<title>Node11</title>
<g id="a_node11"><a xlink:href="../../d5/d99/classTLevelReader.html#ae7a5a65dfddd9c939dbdf18846054725" target="_top" xlink:title=" ">
<polygon fill="white" stroke="#666666" points="360.5,-419.07 217.5,-419.07 217.5,-389.07 360.5,-389.07 360.5,-419.07"/>
<text text-anchor="start" x="225.5" y="-407.07" font-family="Helvetica,sans-Serif" font-size="10.00">TLevelReader::ReadPirate</text>
<text text-anchor="middle" x="289" y="-396.07" font-family="Helvetica,sans-Serif" font-size="10.00">Bases</text>
</a>
</g>
</g>
<!-- Node1&#45;&gt;Node11 -->
<g id="edge13" class="edge">
<title>Node1&#45;&gt;Node11</title>
<path fill="none" stroke="#63b8ff" d="M90.47,-301.27C109.9,-322.24 147.91,-359.75 188,-380.07 194.15,-383.18 200.73,-385.91 207.45,-388.29"/>
<polygon fill="#63b8ff" stroke="#63b8ff" points="206.79,-391.75 217.39,-391.53 208.96,-385.1 206.79,-391.75"/>
</g>
<!-- Node13 -->
<g id="node13" class="node">
<title>Node13</title>
<g id="a_node13"><a xlink:href="../../d5/d99/classTLevelReader.html#a06cbe367f372ca443af250d9c581b58b" target="_top" xlink:title=" ">
<polygon fill="white" stroke="#666666" points="359,-370.57 219,-370.57 219,-351.57 359,-351.57 359,-370.57"/>
<text text-anchor="middle" x="289" y="-358.57" font-family="Helvetica,sans-Serif" font-size="10.00">TLevelReader::ReadShips</text>
</a>
</g>
</g>
<!-- Node1&#45;&gt;Node13 -->
<g id="edge21" class="edge">
<title>Node1&#45;&gt;Node13</title>
<path fill="none" stroke="#63b8ff" d="M101.2,-301.16C123.09,-314.16 156.6,-332.44 188,-343.07 194.97,-345.42 202.33,-347.49 209.75,-349.3"/>
<polygon fill="#63b8ff" stroke="#63b8ff" points="209.01,-352.72 219.54,-351.53 210.56,-345.9 209.01,-352.72"/>
</g>
<!-- Node15 -->
<g id="node15" class="node">
<title>Node15</title>
<g id="a_node15"><a xlink:href="../../d5/d99/classTLevelReader.html#a6e0d6c10291d52c31f5c22b8673dbb98" target="_top" xlink:title=" ">
<polygon fill="white" stroke="#666666" points="390,-333.57 188,-333.57 188,-314.57 390,-314.57 390,-333.57"/>
<text text-anchor="middle" x="289" y="-321.57" font-family="Helvetica,sans-Serif" font-size="10.00">TLevelReader::ReadSpawnDescriptors</text>
</a>
</g>
</g>
<!-- Node1&#45;&gt;Node15 -->
<g id="edge29" class="edge">
<title>Node1&#45;&gt;Node15</title>
<path fill="none" stroke="#63b8ff" d="M152.28,-299.62C176.1,-303.91 202.16,-308.61 225.02,-312.72"/>
<polygon fill="#63b8ff" stroke="#63b8ff" points="224.48,-316.18 234.94,-314.51 225.72,-309.29 224.48,-316.18"/>
</g>
<!-- Node17 -->
<g id="node17" class="node">
<title>Node17</title>
<g id="a_node17"><a xlink:href="../../d5/d99/classTLevelReader.html#a4467cdf7d7766981a6b8eeb23076b433" target="_top" xlink:title=" ">
<polygon fill="white" stroke="#666666" points="368,-257.57 210,-257.57 210,-238.57 368,-238.57 368,-257.57"/>
<text text-anchor="middle" x="289" y="-245.57" font-family="Helvetica,sans-Serif" font-size="10.00">TLevelReader::ReadWeapons</text>
</a>
</g>
</g>
<!-- Node1&#45;&gt;Node17 -->
<g id="edge36" class="edge">
<title>Node1&#45;&gt;Node17</title>
<path fill="none" stroke="#63b8ff" d="M152.28,-272.51C176.1,-268.22 202.16,-263.53 225.02,-259.41"/>
<polygon fill="#63b8ff" stroke="#63b8ff" points="225.72,-262.84 234.94,-257.62 224.48,-255.95 225.72,-262.84"/>
</g>
<!-- Node3&#45;&gt;Node4 -->
<g id="edge3" class="edge">
<title>Node3&#45;&gt;Node4</title>
<path fill="none" stroke="#63b8ff" d="M331.3,-12.55C399,0.54 534.84,15.99 623,-46.07 632.86,-53.01 698.76,-212.09 721.67,-267.91"/>
<polygon fill="#63b8ff" stroke="#63b8ff" points="718.51,-269.43 725.54,-277.35 724.98,-266.77 718.51,-269.43"/>
</g>
<!-- Node5&#45;&gt;Node4 -->
<g id="edge10" class="edge">
<title>Node5&#45;&gt;Node4</title>
<path fill="none" stroke="#63b8ff" d="M319.72,-189.93C380.04,-161.44 519.84,-106.98 623,-156.07 672.22,-179.49 706.13,-238.01 721,-268.28"/>
<polygon fill="#63b8ff" stroke="#63b8ff" points="717.86,-269.83 725.31,-277.37 724.19,-266.83 717.86,-269.83"/>
</g>
<!-- Node6 -->
<g id="node6" class="node">
<title>Node6</title>
<g id="a_node6"><a xlink:href="../../d8/d51/classMyList.html#a723c00a8380b8fd0705cb286cdd179d2" target="_top" xlink:title=" ">
<polygon fill="white" stroke="#666666" points="561,-370.57 488,-370.57 488,-351.57 561,-351.57 561,-370.57"/>
<text text-anchor="middle" x="524.5" y="-358.57" font-family="Helvetica,sans-Serif" font-size="10.00">MyList::end</text>
</a>
</g>
</g>
<!-- Node5&#45;&gt;Node6 -->
<g id="edge5" class="edge">
<title>Node5&#45;&gt;Node6</title>
<path fill="none" stroke="#63b8ff" d="M365.12,-214.74C374.27,-218.43 382.89,-223.39 390,-230.07 428.43,-266.14 386.46,-308.21 426,-343.07 439.99,-355.4 459.6,-360.52 477.57,-362.32"/>
<polygon fill="#63b8ff" stroke="#63b8ff" points="477.4,-365.81 487.62,-363.01 477.89,-358.83 477.4,-365.81"/>
</g>
<!-- Node7 -->
<g id="node7" class="node">
<title>Node7</title>
<g id="a_node7"><a xlink:href="../../d8/d51/classMyList.html#ab5e189776aca91f01ee5fe930318c289" target="_top" xlink:title=" ">
<polygon fill="white" stroke="#666666" points="566,-333.57 483,-333.57 483,-314.57 566,-314.57 566,-333.57"/>
<text text-anchor="middle" x="524.5" y="-321.57" font-family="Helvetica,sans-Serif" font-size="10.00">MyList::insert</text>
</a>
</g>
</g>
<!-- Node5&#45;&gt;Node7 -->
<g id="edge6" class="edge">
<title>Node5&#45;&gt;Node7</title>
<path fill="none" stroke="#63b8ff" d="M365.08,-215.95C374.08,-219.46 382.67,-224.05 390,-230.07 418.9,-253.76 396.37,-283.28 426,-306.07 439.22,-316.23 456.4,-321.28 472.65,-323.63"/>
<polygon fill="#63b8ff" stroke="#63b8ff" points="472.27,-327.11 482.6,-324.77 473.06,-320.16 472.27,-327.11"/>
</g>
<!-- Node8 -->
<g id="node8" class="node">
<title>Node8</title>
<g id="a_node8"><a xlink:href="../../d5/d99/classTLevelReader.html#aa3fd2b19c5d17f7e5b71d28780a7557c" target="_top" xlink:title=" ">
<polygon fill="white" stroke="#666666" points="609.5,-107.57 439.5,-107.57 439.5,-88.57 609.5,-88.57 609.5,-107.57"/>
<text text-anchor="middle" x="524.5" y="-95.57" font-family="Helvetica,sans-Serif" font-size="10.00">TLevelReader::ReadCapitanInfo</text>
</a>
</g>
</g>
<!-- Node5&#45;&gt;Node8 -->
<g id="edge7" class="edge">
<title>Node5&#45;&gt;Node8</title>
<path fill="none" stroke="#63b8ff" d="M310.13,-190.03C335.79,-171.54 382.08,-140.36 426,-122.07 437.49,-117.28 450.16,-113.3 462.45,-110.04"/>
<polygon fill="#63b8ff" stroke="#63b8ff" points="463.36,-113.42 472.2,-107.58 461.65,-106.63 463.36,-113.42"/>
</g>
<!-- Node5&#45;&gt;Node10 -->
<g id="edge9" class="edge">
<title>Node5&#45;&gt;Node10</title>
<path fill="none" stroke="#63b8ff" d="M365.17,-219.55C397.15,-225.72 433.92,-232.8 463.97,-238.59"/>
<polygon fill="#63b8ff" stroke="#63b8ff" points="463.4,-242.05 473.88,-240.5 464.73,-235.18 463.4,-242.05"/>
</g>
<!-- Node9 -->
<g id="node9" class="node">
<title>Node9</title>
<g id="a_node9"><a xlink:href="../../d5/d99/classTLevelReader.html#a2b97e074354c270b0502ec57d528d73b" target="_top" xlink:title=" ">
<polygon fill="white" stroke="#666666" points="802,-107.57 659,-107.57 659,-88.57 802,-88.57 802,-107.57"/>
<text text-anchor="middle" x="730.5" y="-95.57" font-family="Helvetica,sans-Serif" font-size="10.00">TLevelReader::ReadString</text>
</a>
</g>
</g>
<!-- Node8&#45;&gt;Node9 -->
<g id="edge8" class="edge">
<title>Node8&#45;&gt;Node9</title>
<path fill="none" stroke="#63b8ff" d="M609.65,-98.07C622.56,-98.07 635.85,-98.07 648.68,-98.07"/>
<polygon fill="#63b8ff" stroke="#63b8ff" points="648.86,-101.57 658.86,-98.07 648.85,-94.57 648.86,-101.57"/>
</g>
<!-- Node11&#45;&gt;Node4 -->
<g id="edge17" class="edge">
<title>Node11&#45;&gt;Node4</title>
<path fill="none" stroke="#63b8ff" d="M305.94,-419.27C329.79,-440.85 377.2,-479.38 426,-494.07 509.84,-519.3 548.26,-539.67 623,-494.07 691.73,-452.14 717.98,-350.13 726.25,-306.92"/>
<polygon fill="#63b8ff" stroke="#63b8ff" points="729.74,-307.29 728.05,-296.83 722.85,-306.06 729.74,-307.29"/>
</g>
<!-- Node11&#45;&gt;Node6 -->
<g id="edge14" class="edge">
<title>Node11&#45;&gt;Node6</title>
<path fill="none" stroke="#63b8ff" d="M360.69,-391.05C398.77,-384.04 444.62,-375.59 477.96,-369.45"/>
<polygon fill="#63b8ff" stroke="#63b8ff" points="478.67,-372.88 487.87,-367.63 477.41,-366 478.67,-372.88"/>
</g>
<!-- Node11&#45;&gt;Node7 -->
<g id="edge15" class="edge">
<title>Node11&#45;&gt;Node7</title>
<path fill="none" stroke="#63b8ff" d="M360.51,-392.48C370.77,-389.29 380.92,-385.23 390,-380.07 409.94,-368.72 405.82,-353.98 426,-343.07 440.19,-335.39 457.02,-330.79 472.67,-328.04"/>
<polygon fill="#63b8ff" stroke="#63b8ff" points="473.4,-331.47 482.75,-326.49 472.33,-324.55 473.4,-331.47"/>
</g>
<!-- Node11&#45;&gt;Node10 -->
<g id="edge16" class="edge">
<title>Node11&#45;&gt;Node10</title>
<path fill="none" stroke="#63b8ff" d="M360.73,-396.73C371.49,-393.03 381.74,-387.7 390,-380.07 428.08,-344.85 387.17,-303.45 426,-269.07 430.74,-264.86 436.14,-261.48 441.89,-258.76"/>
<polygon fill="#63b8ff" stroke="#63b8ff" points="443.22,-261.99 451.19,-255.01 440.61,-255.5 443.22,-261.99"/>
</g>
<!-- Node12 -->
<g id="node12" class="node">
<title>Node12</title>
<g id="a_node12"><a xlink:href="../../d5/d99/classTLevelReader.html#a98a8afd39b4ade7d9e3843a51109ea1d" target="_top" xlink:title=" ">
<polygon fill="white" stroke="#666666" points="608,-560.57 441,-560.57 441,-541.57 608,-541.57 608,-560.57"/>
<text text-anchor="middle" x="524.5" y="-548.57" font-family="Helvetica,sans-Serif" font-size="10.00">TLevelReader::ReadPirateBase</text>
</a>
</g>
</g>
<!-- Node11&#45;&gt;Node12 -->
<g id="edge18" class="edge">
<title>Node11&#45;&gt;Node12</title>
<path fill="none" stroke="#63b8ff" d="M302.15,-419.13C324.06,-445.25 372.86,-498.84 426,-527.07 434.89,-531.79 444.73,-535.6 454.64,-538.68"/>
<polygon fill="#63b8ff" stroke="#63b8ff" points="453.97,-542.12 464.54,-541.51 455.89,-535.39 453.97,-542.12"/>
</g>
<!-- Node12&#45;&gt;Node2 -->
<g id="edge19" class="edge">
<title>Node12&#45;&gt;Node2</title>
<path fill="none" stroke="#63b8ff" d="M608.18,-551.07C630.48,-551.07 654.06,-551.07 674.43,-551.07"/>
<polygon fill="#63b8ff" stroke="#63b8ff" points="674.47,-554.57 684.47,-551.07 674.47,-547.57 674.47,-554.57"/>
</g>
<!-- Node12&#45;&gt;Node4 -->
<g id="edge20" class="edge">
<title>Node12&#45;&gt;Node4</title>
<path fill="none" stroke="#63b8ff" d="M597.34,-541.49C606.64,-538.01 615.52,-533.33 623,-527.07 693.55,-467.97 719.06,-352.82 726.69,-306.78"/>
<polygon fill="#63b8ff" stroke="#63b8ff" points="730.19,-307.06 728.26,-296.64 723.27,-305.99 730.19,-307.06"/>
</g>
<!-- Node13&#45;&gt;Node4 -->
<g id="edge25" class="edge">
<title>Node13&#45;&gt;Node4</title>
<path fill="none" stroke="#63b8ff" d="M359.24,-370.11C369.77,-372.66 380.34,-375.91 390,-380.07 408.13,-387.87 407.22,-399.99 426,-406.07 509.31,-433 543.07,-441.8 623,-406.07 669.42,-385.32 703.98,-333.23 719.86,-305.35"/>
<polygon fill="#63b8ff" stroke="#63b8ff" points="722.92,-307.04 724.68,-296.59 716.79,-303.66 722.92,-307.04"/>
</g>
<!-- Node13&#45;&gt;Node6 -->
<g id="edge22" class="edge">
<title>Node13&#45;&gt;Node6</title>
<path fill="none" stroke="#63b8ff" d="M359.11,-361.07C397.38,-361.07 443.89,-361.07 477.66,-361.07"/>
<polygon fill="#63b8ff" stroke="#63b8ff" points="477.71,-364.57 487.71,-361.07 477.71,-357.57 477.71,-364.57"/>
</g>
<!-- Node13&#45;&gt;Node7 -->
<g id="edge23" class="edge">
<title>Node13&#45;&gt;Node7</title>
<path fill="none" stroke="#63b8ff" d="M350.13,-351.54C388.01,-345.54 436.38,-337.87 472.4,-332.16"/>
<polygon fill="#63b8ff" stroke="#63b8ff" points="473.36,-335.56 482.69,-330.53 472.26,-328.64 473.36,-335.56"/>
</g>
<!-- Node13&#45;&gt;Node10 -->
<g id="edge24" class="edge">
<title>Node13&#45;&gt;Node10</title>
<path fill="none" stroke="#63b8ff" d="M359.19,-357.38C370.25,-354.41 381,-349.88 390,-343.07 419.16,-320.99 397,-291.35 426,-269.07 430.82,-265.36 436.16,-262.32 441.78,-259.82"/>
<polygon fill="#63b8ff" stroke="#63b8ff" points="443.38,-262.96 451.48,-256.12 440.89,-256.42 443.38,-262.96"/>
</g>
<!-- Node14 -->
<g id="node14" class="node">
<title>Node14</title>
<g id="a_node14"><a xlink:href="../../d5/d99/classTLevelReader.html#a111bc6a9c4250c31a0689e62f7113254" target="_top" xlink:title=" ">
<polygon fill="white" stroke="#666666" points="592,-484.57 457,-484.57 457,-465.57 592,-465.57 592,-484.57"/>
<text text-anchor="middle" x="524.5" y="-472.57" font-family="Helvetica,sans-Serif" font-size="10.00">TLevelReader::ReadShip</text>
</a>
</g>
</g>
<!-- Node13&#45;&gt;Node14 -->
<g id="edge26" class="edge">
<title>Node13&#45;&gt;Node14</title>
<path fill="none" stroke="#63b8ff" d="M359.12,-365.63C370.19,-368.68 380.96,-373.27 390,-380.07 418.28,-401.33 398.3,-429.06 426,-451.07 432.4,-456.15 439.74,-460.18 447.44,-463.37"/>
<polygon fill="#63b8ff" stroke="#63b8ff" points="446.39,-466.72 456.99,-466.86 448.79,-460.14 446.39,-466.72"/>
</g>
<!-- Node14&#45;&gt;Node2 -->
<g id="edge27" class="edge">
<title>Node14&#45;&gt;Node2</title>
<path fill="none" stroke="#63b8ff" d="M551.34,-484.69C587.59,-498.2 653.66,-522.81 694.36,-537.97"/>
<polygon fill="#63b8ff" stroke="#63b8ff" points="693.28,-541.31 703.87,-541.52 695.72,-534.75 693.28,-541.31"/>
</g>
<!-- Node14&#45;&gt;Node4 -->
<g id="edge28" class="edge">
<title>Node14&#45;&gt;Node4</title>
<path fill="none" stroke="#63b8ff" d="M592.17,-465.81C603.1,-462.34 613.84,-457.58 623,-451.07 675.91,-413.45 709.2,-340.53 722.66,-306.03"/>
<polygon fill="#63b8ff" stroke="#63b8ff" points="725.94,-307.23 726.2,-296.64 719.39,-304.76 725.94,-307.23"/>
</g>
<!-- Node15&#45;&gt;Node4 -->
<g id="edge33" class="edge">
<title>Node15&#45;&gt;Node4</title>
<path fill="none" stroke="#63b8ff" d="M366.76,-333.59C374.86,-336.07 382.76,-339.17 390,-343.07 410.21,-353.93 404.86,-371.14 426,-380.07 506.66,-414.13 541.02,-410.82 623,-380.07 663.17,-364.99 698.14,-327.15 716.28,-304.65"/>
<polygon fill="#63b8ff" stroke="#63b8ff" points="719.18,-306.63 722.58,-296.6 713.66,-302.31 719.18,-306.63"/>
</g>
<!-- Node15&#45;&gt;Node6 -->
<g id="edge30" class="edge">
<title>Node15&#45;&gt;Node6</title>
<path fill="none" stroke="#63b8ff" d="M350.13,-333.59C389.86,-339.89 441.12,-348.01 477.57,-353.79"/>
<polygon fill="#63b8ff" stroke="#63b8ff" points="477.49,-357.32 487.91,-355.43 478.58,-350.4 477.49,-357.32"/>
</g>
<!-- Node15&#45;&gt;Node7 -->
<g id="edge31" class="edge">
<title>Node15&#45;&gt;Node7</title>
<path fill="none" stroke="#63b8ff" d="M390.04,-324.07C418.63,-324.07 448.59,-324.07 472.86,-324.07"/>
<polygon fill="#63b8ff" stroke="#63b8ff" points="472.9,-327.57 482.9,-324.07 472.9,-320.57 472.9,-327.57"/>
</g>
<!-- Node15&#45;&gt;Node10 -->
<g id="edge32" class="edge">
<title>Node15&#45;&gt;Node10</title>
<path fill="none" stroke="#63b8ff" d="M350.09,-314.53C363.66,-311.06 377.68,-306.37 390,-300.07 408.79,-290.44 407,-278.28 426,-269.07 431.04,-266.62 436.38,-264.49 441.85,-262.63"/>
<polygon fill="#63b8ff" stroke="#63b8ff" points="443.27,-265.86 451.8,-259.58 441.22,-259.16 443.27,-265.86"/>
</g>
<!-- Node16 -->
<g id="node16" class="node">
<title>Node16</title>
<g id="a_node16"><a xlink:href="../../d5/d99/classTLevelReader.html#a392f8ceec89e3ff9f3f87ea030c117d6" target="_top" xlink:title=" ">
<polygon fill="white" stroke="#666666" points="623,-296.57 426,-296.57 426,-277.57 623,-277.57 623,-296.57"/>
<text text-anchor="middle" x="524.5" y="-284.57" font-family="Helvetica,sans-Serif" font-size="10.00">TLevelReader::ReadSpawnDescriptor</text>
</a>
</g>
</g>
<!-- Node15&#45;&gt;Node16 -->
<g id="edge34" class="edge">
<title>Node15&#45;&gt;Node16</title>
<path fill="none" stroke="#63b8ff" d="M350.13,-314.54C381.6,-309.55 420.32,-303.42 453.17,-298.21"/>
<polygon fill="#63b8ff" stroke="#63b8ff" points="453.84,-301.65 463.17,-296.63 452.74,-294.73 453.84,-301.65"/>
</g>
<!-- Node16&#45;&gt;Node4 -->
<g id="edge35" class="edge">
<title>Node16&#45;&gt;Node4</title>
<path fill="none" stroke="#63b8ff" d="M623.02,-287.07C634.35,-287.07 645.76,-287.07 656.68,-287.07"/>
<polygon fill="#63b8ff" stroke="#63b8ff" points="656.98,-290.57 666.98,-287.07 656.98,-283.57 656.98,-290.57"/>
</g>
<!-- Node17&#45;&gt;Node4 -->
<g id="edge40" class="edge">
<title>Node17&#45;&gt;Node4</title>
<path fill="none" stroke="#63b8ff" d="M357.66,-238.52C379.43,-235.88 403.69,-233.37 426,-232.07 513.41,-226.94 537.92,-211.39 623,-232.07 654.53,-239.73 687.16,-258.46 707.85,-271.93"/>
<polygon fill="#63b8ff" stroke="#63b8ff" points="705.96,-274.88 716.22,-277.52 709.84,-269.05 705.96,-274.88"/>
</g>
<!-- Node17&#45;&gt;Node6 -->
<g id="edge37" class="edge">
<title>Node17&#45;&gt;Node6</title>
<path fill="none" stroke="#63b8ff" d="M310.18,-257.7C331.13,-268.16 364.36,-286.07 390,-306.07 408.09,-320.18 405.76,-332.25 426,-343.07 441.71,-351.46 460.66,-356.01 477.66,-358.45"/>
<polygon fill="#63b8ff" stroke="#63b8ff" points="477.59,-361.97 487.94,-359.72 478.44,-355.02 477.59,-361.97"/>
</g>
<!-- Node17&#45;&gt;Node7 -->
<g id="edge38" class="edge">
<title>Node17&#45;&gt;Node7</title>
<path fill="none" stroke="#63b8ff" d="M308.87,-257.7C334.69,-270.5 382.75,-293.02 426,-306.07 440.86,-310.55 457.35,-314.11 472.48,-316.83"/>
<polygon fill="#63b8ff" stroke="#63b8ff" points="472.25,-320.35 482.7,-318.59 473.44,-313.45 472.25,-320.35"/>
</g>
<!-- Node17&#45;&gt;Node10 -->
<g id="edge39" class="edge">
<title>Node17&#45;&gt;Node10</title>
<path fill="none" stroke="#63b8ff" d="M368.08,-248.73C391.63,-248.94 417.54,-249.16 441.35,-249.36"/>
<polygon fill="#63b8ff" stroke="#63b8ff" points="441.38,-252.86 451.41,-249.45 441.44,-245.86 441.38,-252.86"/>
</g>
<!-- Node18 -->
<g id="node18" class="node">
<title>Node18</title>
<g id="a_node18"><a xlink:href="../../d5/d99/classTLevelReader.html#ad7b63a611a8e08c9d9b38ee2972c82fc" target="_top" xlink:title=" ">
<polygon fill="white" stroke="#666666" points="601,-183.57 448,-183.57 448,-164.57 601,-164.57 601,-183.57"/>
<text text-anchor="middle" x="524.5" y="-171.57" font-family="Helvetica,sans-Serif" font-size="10.00">TLevelReader::ReadWeapon</text>
</a>
</g>
</g>
<!-- Node17&#45;&gt;Node18 -->
<g id="edge41" class="edge">
<title>Node17&#45;&gt;Node18</title>
<path fill="none" stroke="#63b8ff" d="M364.06,-238.56C373.03,-236.09 381.88,-232.98 390,-229.07 409.02,-219.89 407.23,-207.74 426,-198.07 435.28,-193.28 445.54,-189.42 455.84,-186.32"/>
<polygon fill="#63b8ff" stroke="#63b8ff" points="456.99,-189.63 465.68,-183.57 455.1,-182.89 456.99,-189.63"/>
</g>
<!-- Node18&#45;&gt;Node4 -->
<g id="edge42" class="edge">
<title>Node18&#45;&gt;Node4</title>
<path fill="none" stroke="#63b8ff" d="M582.74,-183.57C596.37,-187.06 610.56,-191.77 623,-198.07 659.46,-216.53 694.36,-249.6 713.76,-269.82"/>
<polygon fill="#63b8ff" stroke="#63b8ff" points="711.46,-272.48 720.86,-277.37 716.56,-267.68 711.46,-272.48"/>
</g>
</g>
</svg>
        <g id="navigator" transform="translate(0 0)" fill="#404254">
                <rect fill="#f2f5e9" fill-opacity="0.5" stroke="#606060" stroke-width=".5" x="0" y="0" width="60" height="60"/>
                <use id="zoomplus" xlink:href="#zoomPlus" x="17" y="9" onmousedown="handleZoom(evt,'in')"/>
                <use id="zoomminus" xlink:href="#zoomMin" x="42" y="9" onmousedown="handleZoom(evt,'out')"/>
                <use id="reset" xlink:href="#resetDef" x="30" y="36" onmousedown="handleReset()"/>
                <g id="arrowUp" xlink:href="#dirArrow" transform="translate(30 24)" onmousedown="handlePan(0,-1)">
                  <use xlink:href="#rim" fill="#404040">
                        <set attributeName="fill" to="#808080" begin="arrowUp.mouseover" end="arrowUp.mouseout"/>
                  </use>
                  <path fill="none" stroke="white" stroke-width="1.5" d="M0,-3.0v7 M-2.5,-0.5L0,-3.0L2.5,-0.5"/>
                </g>
                <g id="arrowRight" xlink:href="#dirArrow" transform="rotate(90) translate(36 -43)" onmousedown="handlePan(1,0)">
                  <use xlink:href="#rim" fill="#404040">
                        <set attributeName="fill" to="#808080" begin="arrowRight.mouseover" end="arrowRight.mouseout"/>
                  </use>
                  <path fill="none" stroke="white" stroke-width="1.5" d="M0,-3.0v7 M-2.5,-0.5L0,-3.0L2.5,-0.5"/>
                </g>
                <g id="arrowDown" xlink:href="#dirArrow" transform="rotate(180) translate(-30 -48)" onmousedown="handlePan(0,1)">
                  <use xlink:href="#rim" fill="#404040">
                        <set attributeName="fill" to="#808080" begin="arrowDown.mouseover" end="arrowDown.mouseout"/>
                  </use>
                  <path fill="none" stroke="white" stroke-width="1.5" d="M0,-3.0v7 M-2.5,-0.5L0,-3.0L2.5,-0.5"/>
                </g>
                <g id="arrowLeft" xlink:href="#dirArrow" transform="rotate(270) translate(-36 17)" onmousedown="handlePan(-1,0)">
                  <use xlink:href="#rim" fill="#404040">
                        <set attributeName="fill" to="#808080" begin="arrowLeft.mouseover" end="arrowLeft.mouseout"/>
                  </use>
                  <path fill="none" stroke="white" stroke-width="1.5" d="M0,-3.0v7 M-2.5,-0.5L0,-3.0L2.5,-0.5"/>
                </g>
        </g>
        <svg viewBox="0 0 15 15" width="100%" height="30px" preserveAspectRatio="xMaxYMin meet">
         <g id="arrow_out" transform="scale(0.3 0.3)">
          <a xlink:href="classTLevelReader_a5e3953bd0caf6e6c60d6750ff732150a_cgraph_org.svg" target="_base">
           <rect id="button" ry="5" rx="5" y="6" x="6" height="38" width="38"
                fill="#f2f5e9" fill-opacity="0.5" stroke="#606060" stroke-width="1.0"/>
           <path id="arrow"
             d="M 11.500037,31.436501 C 11.940474,20.09759 22.043105,11.32322 32.158766,21.979434 L 37.068811,17.246167 C 37.068811,17.246167 37.088388,32 37.088388,32 L 22.160133,31.978069 C 22.160133,31.978069 26.997745,27.140456 26.997745,27.140456 C 18.528582,18.264221 13.291696,25.230495 11.500037,31.436501 z"
             style="fill:#404040;"/>
          </a>
         </g>
        </svg>
</svg>
