<?xml version="1.0" encoding="UTF-8" standalone="no"?>
<!DOCTYPE svg PUBLIC "-//W3C//DTD SVG 1.1//EN"
 "http://www.w3.org/Graphics/SVG/1.1/DTD/svg11.dtd">
<!-- Generated by graphviz version 2.43.0 (0)
 -->
<!-- Title: TLevelReader::ReadPirateBase Pages: 1 -->
<svg width="925pt" height="120pt"
 viewBox="0.00 0.00 925.00 119.50" xmlns="http://www.w3.org/2000/svg" xmlns:xlink="http://www.w3.org/1999/xlink">
<g id="graph0" class="graph" transform="scale(1 1) rotate(0) translate(4 115.5)">
<title>TLevelReader::ReadPirateBase</title>
<!-- Node1 -->
<g id="node1" class="node">
<title>Node1</title>
<g id="a_node1"><a xlink:title=" ">
<polygon fill="#999999" stroke="#666666" points="917,-40 750,-40 750,-21 917,-21 917,-40"/>
<text text-anchor="middle" x="833.5" y="-28" font-family="Helvetica,sans-Serif" font-size="10.00">TLevelReader::ReadPirateBase</text>
</a>
</g>
</g>
<!-- Node2 -->
<g id="node2" class="node">
<title>Node2</title>
<g id="a_node2"><a xlink:href="../../d5/d99/classTLevelReader.html#ae7a5a65dfddd9c939dbdf18846054725" target="_top" xlink:title=" ">
<polygon fill="white" stroke="#666666" points="714,-67.5 571,-67.5 571,-37.5 714,-37.5 714,-67.5"/>
<text text-anchor="start" x="579" y="-55.5" font-family="Helvetica,sans-Serif" font-size="10.00">TLevelReader::ReadPirate</text>
<text text-anchor="middle" x="642.5" y="-44.5" font-family="Helvetica,sans-Serif" font-size="10.00">Bases</text>
</a>
</g>
</g>
<!-- Node1&#45;&gt;Node2 -->
<g id="edge1" class="edge">
<title>Node1&#45;&gt;Node2</title>
<path fill="none" stroke="#63b8ff" d="M740.67,-41.19C731.76,-42.23 722.81,-43.27 714.16,-44.28"/>
<polygon fill="#63b8ff" stroke="#63b8ff" points="741.17,-44.65 750.7,-40.02 740.36,-37.7 741.17,-44.65"/>
</g>
<!-- Node8 -->
<g id="node8" class="node">
<title>Node8</title>
<g id="a_node8"><a xlink:href="../../df/dbf/TestTLevelReader_8cpp.html#a755cf3ec78fcb2c18a1579f855288e53" target="_top" xlink:title=" ">
<polygon fill="white" stroke="#666666" points="663,-19 622,-19 622,0 663,0 663,-19"/>
<text text-anchor="middle" x="642.5" y="-7" font-family="Helvetica,sans-Serif" font-size="10.00">TEST</text>
</a>
</g>
</g>
<!-- Node1&#45;&gt;Node8 -->
<g id="edge7" class="edge">
<title>Node1&#45;&gt;Node8</title>
<path fill="none" stroke="#63b8ff" d="M739.71,-20.19C710.9,-16.99 681.88,-13.76 663.36,-11.71"/>
<polygon fill="#63b8ff" stroke="#63b8ff" points="739.55,-23.69 749.88,-21.32 740.32,-16.74 739.55,-23.69"/>
</g>
<!-- Node3 -->
<g id="node3" class="node">
<title>Node3</title>
<g id="a_node3"><a xlink:href="../../d5/d99/classTLevelReader.html#a5e3953bd0caf6e6c60d6750ff732150a" target="_top" xlink:title=" ">
<polygon fill="white" stroke="#666666" points="535,-89.5 383,-89.5 383,-59.5 535,-59.5 535,-89.5"/>
<text text-anchor="start" x="391" y="-77.5" font-family="Helvetica,sans-Serif" font-size="10.00">TLevelReader::ReadMission</text>
<text text-anchor="middle" x="459" y="-66.5" font-family="Helvetica,sans-Serif" font-size="10.00">InfoFromStream</text>
</a>
</g>
</g>
<!-- Node2&#45;&gt;Node3 -->
<g id="edge2" class="edge">
<title>Node2&#45;&gt;Node3</title>
<path fill="none" stroke="#63b8ff" d="M560.61,-62.3C552.19,-63.33 543.66,-64.36 535.3,-65.37"/>
<polygon fill="#63b8ff" stroke="#63b8ff" points="561.3,-65.75 570.81,-61.07 560.46,-58.8 561.3,-65.75"/>
</g>
<!-- Node7 -->
<g id="node7" class="node">
<title>Node7</title>
<g id="a_node7"><a xlink:href="../../df/dbf/TestTLevelReader_8cpp.html#ae486e71c128cb1945779cfcc50810a9e" target="_top" xlink:title=" ">
<polygon fill="white" stroke="#666666" points="479.5,-41 438.5,-41 438.5,-22 479.5,-22 479.5,-41"/>
<text text-anchor="middle" x="459" y="-29" font-family="Helvetica,sans-Serif" font-size="10.00">TEST</text>
</a>
</g>
</g>
<!-- Node2&#45;&gt;Node7 -->
<g id="edge6" class="edge">
<title>Node2&#45;&gt;Node7</title>
<path fill="none" stroke="#63b8ff" d="M560.7,-43.15C530.69,-39.68 499.21,-36.04 479.6,-33.77"/>
<polygon fill="#63b8ff" stroke="#63b8ff" points="560.47,-46.65 570.81,-44.32 561.28,-39.69 560.47,-46.65"/>
</g>
<!-- Node4 -->
<g id="node4" class="node">
<title>Node4</title>
<g id="a_node4"><a xlink:href="../../d2/dc1/classTLevelSelector.html#a1ce3be0dec7c17d6674837ff8742d5ee" target="_top" xlink:title=" ">
<polygon fill="white" stroke="#666666" points="347,-111.5 193,-111.5 193,-81.5 347,-81.5 347,-111.5"/>
<text text-anchor="start" x="201" y="-99.5" font-family="Helvetica,sans-Serif" font-size="10.00">TLevelSelector::readMission</text>
<text text-anchor="middle" x="270" y="-88.5" font-family="Helvetica,sans-Serif" font-size="10.00">InfoFromStream</text>
</a>
</g>
</g>
<!-- Node3&#45;&gt;Node4 -->
<g id="edge3" class="edge">
<title>Node3&#45;&gt;Node4</title>
<path fill="none" stroke="#63b8ff" d="M372.74,-84.53C364.16,-85.54 355.49,-86.56 347.01,-87.56"/>
<polygon fill="#63b8ff" stroke="#63b8ff" points="373.23,-88 382.75,-83.35 372.41,-81.05 373.23,-88"/>
</g>
<!-- Node6 -->
<g id="node6" class="node">
<title>Node6</title>
<g id="a_node6"><a xlink:href="../../df/dbf/TestTLevelReader_8cpp.html#a5b89023c1d74cccde2a4947bc710cd5b" target="_top" xlink:title=" ">
<polygon fill="white" stroke="#666666" points="290.5,-63 249.5,-63 249.5,-44 290.5,-44 290.5,-63"/>
<text text-anchor="middle" x="270" y="-51" font-family="Helvetica,sans-Serif" font-size="10.00">TEST</text>
</a>
</g>
</g>
<!-- Node3&#45;&gt;Node6 -->
<g id="edge5" class="edge">
<title>Node3&#45;&gt;Node6</title>
<path fill="none" stroke="#63b8ff" d="M372.46,-64.89C341.95,-61.47 310.29,-57.91 290.63,-55.7"/>
<polygon fill="#63b8ff" stroke="#63b8ff" points="372.42,-68.41 382.75,-66.05 373.2,-61.46 372.42,-68.41"/>
</g>
<!-- Node5 -->
<g id="node5" class="node">
<title>Node5</title>
<g id="a_node5"><a xlink:href="../../d2/dc1/classTLevelSelector.html#a8052aa13fccc78befaf7cd0cc95fbe97" target="_top" xlink:title=" ">
<polygon fill="white" stroke="#666666" points="157,-106 0,-106 0,-87 157,-87 157,-106"/>
<text text-anchor="middle" x="78.5" y="-94" font-family="Helvetica,sans-Serif" font-size="10.00">TLevelSelector::ChooseLevel</text>
</a>
</g>
</g>
<!-- Node4&#45;&gt;Node5 -->
<g id="edge4" class="edge">
<title>Node4&#45;&gt;Node5</title>
<path fill="none" stroke="#63b8ff" d="M182.49,-96.5C174.04,-96.5 165.5,-96.5 157.15,-96.5"/>
<polygon fill="#63b8ff" stroke="#63b8ff" points="182.74,-100 192.74,-96.5 182.74,-93 182.74,-100"/>
</g>
</g>
</svg>
