<?xml version="1.0" encoding="UTF-8" standalone="no"?>
<!DOCTYPE svg PUBLIC "-//W3C//DTD SVG 1.1//EN"
 "http://www.w3.org/Graphics/SVG/1.1/DTD/svg11.dtd">
<!-- Generated by graphviz version 2.43.0 (0)
 -->
<!-- Title: TLevelReader::ReadWeapons Pages: 1 -->
<svg width="518pt" height="177pt"
 viewBox="0.00 0.00 518.00 177.00" xmlns="http://www.w3.org/2000/svg" xmlns:xlink="http://www.w3.org/1999/xlink">
<g id="graph0" class="graph" transform="scale(1 1) rotate(0) translate(4 173)">
<title>TLevelReader::ReadWeapons</title>
<!-- Node1 -->
<g id="node1" class="node">
<title>Node1</title>
<g id="a_node1"><a xlink:title=" ">
<polygon fill="#999999" stroke="#666666" points="158,-95 0,-95 0,-76 158,-76 158,-95"/>
<text text-anchor="middle" x="79" y="-83" font-family="Helvetica,sans-Serif" font-size="10.00">TLevelReader::ReadWeapons</text>
</a>
</g>
</g>
<!-- Node2 -->
<g id="node2" class="node">
<title>Node2</title>
<g id="a_node2"><a xlink:href="../../d8/d51/classMyList.html#a723c00a8380b8fd0705cb286cdd179d2" target="_top" xlink:title=" ">
<polygon fill="white" stroke="#666666" points="307,-169 234,-169 234,-150 307,-150 307,-169"/>
<text text-anchor="middle" x="270.5" y="-157" font-family="Helvetica,sans-Serif" font-size="10.00">MyList::end</text>
</a>
</g>
</g>
<!-- Node1&#45;&gt;Node2 -->
<g id="edge1" class="edge">
<title>Node1&#45;&gt;Node2</title>
<path fill="none" stroke="#63b8ff" d="M96.48,-95.06C118.21,-107.31 157.9,-128.51 194,-141.5 203.51,-144.92 213.93,-147.88 223.91,-150.36"/>
<polygon fill="#63b8ff" stroke="#63b8ff" points="223.15,-153.78 233.69,-152.68 224.76,-146.97 223.15,-153.78"/>
</g>
<!-- Node3 -->
<g id="node3" class="node">
<title>Node3</title>
<g id="a_node3"><a xlink:href="../../d8/d51/classMyList.html#ab5e189776aca91f01ee5fe930318c289" target="_top" xlink:title=" ">
<polygon fill="white" stroke="#666666" points="312,-132 229,-132 229,-113 312,-113 312,-132"/>
<text text-anchor="middle" x="270.5" y="-120" font-family="Helvetica,sans-Serif" font-size="10.00">MyList::insert</text>
</a>
</g>
</g>
<!-- Node1&#45;&gt;Node3 -->
<g id="edge2" class="edge">
<title>Node1&#45;&gt;Node3</title>
<path fill="none" stroke="#63b8ff" d="M128.8,-95.03C156.44,-100.43 190.96,-107.17 218.9,-112.62"/>
<polygon fill="#63b8ff" stroke="#63b8ff" points="218.38,-116.08 228.86,-114.57 219.72,-109.21 218.38,-116.08"/>
</g>
<!-- Node4 -->
<g id="node4" class="node">
<title>Node4</title>
<g id="a_node4"><a xlink:href="../../d5/d99/classTLevelReader.html#a25bd379fa12d624375f165251b9c1178" target="_top" xlink:title=" ">
<polygon fill="white" stroke="#666666" points="343.5,-95 197.5,-95 197.5,-76 343.5,-76 343.5,-95"/>
<text text-anchor="middle" x="270.5" y="-83" font-family="Helvetica,sans-Serif" font-size="10.00">TLevelReader::ReadEmpty</text>
</a>
</g>
</g>
<!-- Node1&#45;&gt;Node4 -->
<g id="edge3" class="edge">
<title>Node1&#45;&gt;Node4</title>
<path fill="none" stroke="#63b8ff" d="M158.17,-85.5C167.68,-85.5 177.42,-85.5 186.99,-85.5"/>
<polygon fill="#63b8ff" stroke="#63b8ff" points="187.29,-89 197.29,-85.5 187.29,-82 187.29,-89"/>
</g>
<!-- Node5 -->
<g id="node5" class="node">
<title>Node5</title>
<g id="a_node5"><a xlink:href="../../d5/d99/classTLevelReader.html#a82ec22fb9386deb547a0a0862bc90301" target="_top" xlink:title=" ">
<polygon fill="white" stroke="#666666" points="510,-38 383,-38 383,-19 510,-19 510,-38"/>
<text text-anchor="middle" x="446.5" y="-26" font-family="Helvetica,sans-Serif" font-size="10.00">TLevelReader::ReadInt</text>
</a>
</g>
</g>
<!-- Node1&#45;&gt;Node5 -->
<g id="edge4" class="edge">
<title>Node1&#45;&gt;Node5</title>
<path fill="none" stroke="#63b8ff" d="M140.05,-75.99C157.45,-73.24 176.48,-70.24 194,-67.5 254.55,-58.03 323.31,-47.37 373.61,-39.59"/>
<polygon fill="#63b8ff" stroke="#63b8ff" points="374.39,-43.02 383.74,-38.03 373.32,-36.1 374.39,-43.02"/>
</g>
<!-- Node6 -->
<g id="node6" class="node">
<title>Node6</title>
<g id="a_node6"><a xlink:href="../../d5/d99/classTLevelReader.html#ad7b63a611a8e08c9d9b38ee2972c82fc" target="_top" xlink:title=" ">
<polygon fill="white" stroke="#666666" points="347,-19 194,-19 194,0 347,0 347,-19"/>
<text text-anchor="middle" x="270.5" y="-7" font-family="Helvetica,sans-Serif" font-size="10.00">TLevelReader::ReadWeapon</text>
</a>
</g>
</g>
<!-- Node1&#45;&gt;Node6 -->
<g id="edge5" class="edge">
<title>Node1&#45;&gt;Node6</title>
<path fill="none" stroke="#63b8ff" d="M99.06,-75.95C121.46,-64.93 159.9,-46.64 194,-33.5 204.51,-29.45 216.03,-25.53 226.83,-22.08"/>
<polygon fill="#63b8ff" stroke="#63b8ff" points="228,-25.38 236.5,-19.05 225.91,-18.7 228,-25.38"/>
</g>
<!-- Node6&#45;&gt;Node5 -->
<g id="edge6" class="edge">
<title>Node6&#45;&gt;Node5</title>
<path fill="none" stroke="#63b8ff" d="M347.06,-17.75C355.54,-18.68 364.16,-19.62 372.6,-20.54"/>
<polygon fill="#63b8ff" stroke="#63b8ff" points="372.47,-24.05 382.79,-21.65 373.23,-17.09 372.47,-24.05"/>
</g>
</g>
</svg>
