<?xml version="1.0" encoding="UTF-8" standalone="no"?>
<!DOCTYPE svg PUBLIC "-//W3C//DTD SVG 1.1//EN"
 "http://www.w3.org/Graphics/SVG/1.1/DTD/svg11.dtd">
<!-- Generated by graphviz version 2.43.0 (0)
 -->
<!-- Title: TLevelReader::ReadEmpty Pages: 1 -->
<!--zoomable 273 -->
<svg id="main" version="1.1" xmlns="http://www.w3.org/2000/svg" xmlns:xlink="http://www.w3.org/1999/xlink" xml:space="preserve" onload="init(evt)">
<style type="text/css"><![CDATA[
.edge:hover path { stroke: red; }
.edge:hover polygon { stroke: red; fill: red; }
]]></style>
<script type="text/javascript"><![CDATA[
var edges = document.getElementsByTagName('g');
if (edges && edges.length) {
  for (var i=0;i<edges.length;i++) {
    if (edges[i].id.substr(0,4)=='edge') {
      edges[i].setAttribute('class','edge');
    }
  }
}
]]></script>
        <defs>
                <circle id="rim" cx="0" cy="0" r="7"/>
                <circle id="rim2" cx="0" cy="0" r="3.5"/>
                <g id="zoomPlus">
                        <use xlink:href="#rim" fill="#404040">
                                <set attributeName="fill" to="#808080" begin="zoomplus.mouseover" end="zoomplus.mouseout"/>
                        </use>
                        <path d="M-4,0h8M0,-4v8" fill="none" stroke="white" stroke-width="1.5" pointer-events="none"/>
                </g>
                <g id="zoomMin">
                        <use xlink:href="#rim" fill="#404040">
                                <set attributeName="fill" to="#808080" begin="zoomminus.mouseover" end="zoomminus.mouseout"/>
                        </use>
                        <path d="M-4,0h8" fill="none" stroke="white" stroke-width="1.5" pointer-events="none"/>
                </g>
                <g id="dirArrow">
                        <path fill="none" stroke="white" stroke-width="1.5" d="M0,-3.0v7 M-2.5,-0.5L0,-3.0L2.5,-0.5"/>
                </g>
               <g id="resetDef">
                       <use xlink:href="#rim2" fill="#404040">
                               <set attributeName="fill" to="#808080" begin="reset.mouseover" end="reset.mouseout"/>
                       </use>
               </g>
        </defs>

<script type="text/javascript">
var viewWidth = 963;
var viewHeight = 273;
var sectionId = 'dynsection-7';
</script>
<script xlink:href="../../svgpan.js"/>
<svg id="graph" class="graph">
<g id="viewport">
<title>TLevelReader::ReadEmpty</title>
<!-- Node1 -->
<g id="node1" class="node">
<title>Node1</title>
<g id="a_node1"><a xlink:title=" ">
<polygon fill="#999999" stroke="#666666" points="955,-130 809,-130 809,-111 955,-111 955,-130"/>
<text text-anchor="middle" x="882" y="-118" font-family="Helvetica,sans-Serif" font-size="10.00">TLevelReader::ReadEmpty</text>
</a>
</g>
</g>
<!-- Node2 -->
<g id="node2" class="node">
<title>Node2</title>
<g id="a_node2"><a xlink:href="../../d5/d99/classTLevelReader.html#a68c3199258c974d81e965a715a61e7e2" target="_top" xlink:title=" ">
<polygon fill="white" stroke="#666666" points="748,-216.5 596,-216.5 596,-186.5 748,-186.5 748,-216.5"/>
<text text-anchor="start" x="604" y="-204.5" font-family="Helvetica,sans-Serif" font-size="10.00">TLevelReader::ReadCapitan</text>
<text text-anchor="middle" x="672" y="-193.5" font-family="Helvetica,sans-Serif" font-size="10.00">Infos</text>
</a>
</g>
</g>
<!-- Node1&#45;&gt;Node2 -->
<g id="edge1" class="edge">
<title>Node1&#45;&gt;Node2</title>
<path fill="none" stroke="#63b8ff" d="M854.57,-134.76C833.03,-146 801.61,-161.55 773,-172.5 759.58,-177.64 744.85,-182.38 730.92,-186.48"/>
<polygon fill="#63b8ff" stroke="#63b8ff" points="856.23,-137.84 863.44,-130.08 852.96,-131.65 856.23,-137.84"/>
</g>
<!-- Node3 -->
<g id="node3" class="node">
<title>Node3</title>
<g id="a_node3"><a xlink:href="../../d5/d99/classTLevelReader.html#a5e3953bd0caf6e6c60d6750ff732150a" target="_top" xlink:title=" ">
<polygon fill="white" stroke="#666666" points="535,-178.5 383,-178.5 383,-148.5 535,-148.5 535,-178.5"/>
<text text-anchor="start" x="391" y="-166.5" font-family="Helvetica,sans-Serif" font-size="10.00">TLevelReader::ReadMission</text>
<text text-anchor="middle" x="459" y="-155.5" font-family="Helvetica,sans-Serif" font-size="10.00">InfoFromStream</text>
</a>
</g>
</g>
<!-- Node1&#45;&gt;Node3 -->
<g id="edge9" class="edge">
<title>Node1&#45;&gt;Node3</title>
<path fill="none" stroke="#63b8ff" d="M822.48,-131.87C806.48,-134.68 789.11,-137.47 773,-139.5 692.03,-149.7 598.68,-156.18 535.15,-159.8"/>
<polygon fill="#63b8ff" stroke="#63b8ff" points="823.54,-135.23 832.77,-130.02 822.31,-128.34 823.54,-135.23"/>
</g>
<!-- Node8 -->
<g id="node8" class="node">
<title>Node8</title>
<g id="a_node8"><a xlink:href="../../d5/d99/classTLevelReader.html#ac6e2fd6477af4205d0c85433bdb02985" target="_top" xlink:title=" ">
<polygon fill="white" stroke="#666666" points="738,-19 606,-19 606,0 738,0 738,-19"/>
<text text-anchor="middle" x="672" y="-7" font-family="Helvetica,sans-Serif" font-size="10.00">TLevelReader::ReadInts</text>
</a>
</g>
</g>
<!-- Node1&#45;&gt;Node8 -->
<g id="edge7" class="edge">
<title>Node1&#45;&gt;Node8</title>
<path fill="none" stroke="#63b8ff" d="M866.21,-103C847.03,-81.55 811.46,-45.82 773,-27.5 762.17,-22.34 750.04,-18.65 738.06,-16.02"/>
<polygon fill="#63b8ff" stroke="#63b8ff" points="863.73,-105.48 872.95,-110.71 869,-100.88 863.73,-105.48"/>
</g>
<!-- Node10 -->
<g id="node10" class="node">
<title>Node10</title>
<g id="a_node10"><a xlink:href="../../d5/d99/classTLevelReader.html#ae7a5a65dfddd9c939dbdf18846054725" target="_top" xlink:title=" ">
<polygon fill="white" stroke="#666666" points="743.5,-264.5 600.5,-264.5 600.5,-234.5 743.5,-234.5 743.5,-264.5"/>
<text text-anchor="start" x="608.5" y="-252.5" font-family="Helvetica,sans-Serif" font-size="10.00">TLevelReader::ReadPirate</text>
<text text-anchor="middle" x="672" y="-241.5" font-family="Helvetica,sans-Serif" font-size="10.00">Bases</text>
</a>
</g>
</g>
<!-- Node1&#45;&gt;Node10 -->
<g id="edge10" class="edge">
<title>Node1&#45;&gt;Node10</title>
<path fill="none" stroke="#63b8ff" d="M867.91,-138.16C849.43,-161.78 813.42,-203.24 773,-225.5 763.93,-230.5 753.84,-234.46 743.65,-237.6"/>
<polygon fill="#63b8ff" stroke="#63b8ff" points="870.81,-140.13 874.1,-130.06 865.25,-135.88 870.81,-140.13"/>
</g>
<!-- Node12 -->
<g id="node12" class="node">
<title>Node12</title>
<g id="a_node12"><a xlink:href="../../d5/d99/classTLevelReader.html#a06cbe367f372ca443af250d9c581b58b" target="_top" xlink:title=" ">
<polygon fill="white" stroke="#666666" points="742,-130 602,-130 602,-111 742,-111 742,-130"/>
<text text-anchor="middle" x="672" y="-118" font-family="Helvetica,sans-Serif" font-size="10.00">TLevelReader::ReadShips</text>
</a>
</g>
</g>
<!-- Node1&#45;&gt;Node12 -->
<g id="edge13" class="edge">
<title>Node1&#45;&gt;Node12</title>
<path fill="none" stroke="#63b8ff" d="M798.58,-120.5C779.92,-120.5 760.29,-120.5 742.23,-120.5"/>
<polygon fill="#63b8ff" stroke="#63b8ff" points="798.84,-124 808.84,-120.5 798.84,-117 798.84,-124"/>
</g>
<!-- Node14 -->
<g id="node14" class="node">
<title>Node14</title>
<g id="a_node14"><a xlink:href="../../d5/d99/classTLevelReader.html#a6e0d6c10291d52c31f5c22b8673dbb98" target="_top" xlink:title=" ">
<polygon fill="white" stroke="#666666" points="773,-93 571,-93 571,-74 773,-74 773,-93"/>
<text text-anchor="middle" x="672" y="-81" font-family="Helvetica,sans-Serif" font-size="10.00">TLevelReader::ReadSpawnDescriptors</text>
</a>
</g>
</g>
<!-- Node1&#45;&gt;Node14 -->
<g id="edge16" class="edge">
<title>Node1&#45;&gt;Node14</title>
<path fill="none" stroke="#63b8ff" d="M817.4,-109.19C788.4,-104.03 754.44,-97.99 726.74,-93.06"/>
<polygon fill="#63b8ff" stroke="#63b8ff" points="816.98,-112.67 827.43,-110.97 818.2,-105.77 816.98,-112.67"/>
</g>
<!-- Node16 -->
<g id="node16" class="node">
<title>Node16</title>
<g id="a_node16"><a xlink:href="../../d5/d99/classTLevelReader.html#a4467cdf7d7766981a6b8eeb23076b433" target="_top" xlink:title=" ">
<polygon fill="white" stroke="#666666" points="751,-56 593,-56 593,-37 751,-37 751,-56"/>
<text text-anchor="middle" x="672" y="-44" font-family="Helvetica,sans-Serif" font-size="10.00">TLevelReader::ReadWeapons</text>
</a>
</g>
</g>
<!-- Node1&#45;&gt;Node16 -->
<g id="edge19" class="edge">
<title>Node1&#45;&gt;Node16</title>
<path fill="none" stroke="#63b8ff" d="M856.81,-105.66C835.48,-93.2 803.18,-75.82 773,-65.5 761.8,-61.67 749.61,-58.54 737.72,-56.01"/>
<polygon fill="#63b8ff" stroke="#63b8ff" points="855.13,-108.73 865.52,-110.83 858.71,-102.72 855.13,-108.73"/>
</g>
<!-- Node2&#45;&gt;Node3 -->
<g id="edge2" class="edge">
<title>Node2&#45;&gt;Node3</title>
<path fill="none" stroke="#63b8ff" d="M585.47,-186.1C568.84,-183.1 551.52,-179.98 535.25,-177.05"/>
<polygon fill="#63b8ff" stroke="#63b8ff" points="585.26,-189.61 595.72,-187.94 586.5,-182.72 585.26,-189.61"/>
</g>
<!-- Node7 -->
<g id="node7" class="node">
<title>Node7</title>
<g id="a_node7"><a xlink:href="../../df/dbf/TestTLevelReader_8cpp.html#a24daca223446d45d535988669914051e" target="_top" xlink:title=" ">
<polygon fill="white" stroke="#666666" points="479.5,-216 438.5,-216 438.5,-197 479.5,-197 479.5,-216"/>
<text text-anchor="middle" x="459" y="-204" font-family="Helvetica,sans-Serif" font-size="10.00">TEST</text>
</a>
</g>
</g>
<!-- Node2&#45;&gt;Node7 -->
<g id="edge6" class="edge">
<title>Node2&#45;&gt;Node7</title>
<path fill="none" stroke="#63b8ff" d="M585.4,-203.53C546.53,-204.45 503.92,-205.46 479.72,-206.03"/>
<polygon fill="#63b8ff" stroke="#63b8ff" points="585.8,-207.02 595.72,-203.28 585.64,-200.02 585.8,-207.02"/>
</g>
<!-- Node4 -->
<g id="node4" class="node">
<title>Node4</title>
<g id="a_node4"><a xlink:href="../../d2/dc1/classTLevelSelector.html#a1ce3be0dec7c17d6674837ff8742d5ee" target="_top" xlink:title=" ">
<polygon fill="white" stroke="#666666" points="347,-199.5 193,-199.5 193,-169.5 347,-169.5 347,-199.5"/>
<text text-anchor="start" x="201" y="-187.5" font-family="Helvetica,sans-Serif" font-size="10.00">TLevelSelector::readMission</text>
<text text-anchor="middle" x="270" y="-176.5" font-family="Helvetica,sans-Serif" font-size="10.00">InfoFromStream</text>
</a>
</g>
</g>
<!-- Node3&#45;&gt;Node4 -->
<g id="edge3" class="edge">
<title>Node3&#45;&gt;Node4</title>
<path fill="none" stroke="#63b8ff" d="M372.74,-173.07C364.16,-174.04 355.49,-175.01 347.01,-175.96"/>
<polygon fill="#63b8ff" stroke="#63b8ff" points="373.2,-176.54 382.75,-171.95 372.42,-169.59 373.2,-176.54"/>
</g>
<!-- Node6 -->
<g id="node6" class="node">
<title>Node6</title>
<g id="a_node6"><a xlink:href="../../df/dbf/TestTLevelReader_8cpp.html#a5b89023c1d74cccde2a4947bc710cd5b" target="_top" xlink:title=" ">
<polygon fill="white" stroke="#666666" points="290.5,-151 249.5,-151 249.5,-132 290.5,-132 290.5,-151"/>
<text text-anchor="middle" x="270" y="-139" font-family="Helvetica,sans-Serif" font-size="10.00">TEST</text>
</a>
</g>
</g>
<!-- Node3&#45;&gt;Node6 -->
<g id="edge5" class="edge">
<title>Node3&#45;&gt;Node6</title>
<path fill="none" stroke="#63b8ff" d="M372.46,-153.44C341.95,-149.85 310.29,-146.12 290.63,-143.81"/>
<polygon fill="#63b8ff" stroke="#63b8ff" points="372.41,-156.95 382.75,-154.65 373.23,-150 372.41,-156.95"/>
</g>
<!-- Node5 -->
<g id="node5" class="node">
<title>Node5</title>
<g id="a_node5"><a xlink:href="../../d2/dc1/classTLevelSelector.html#a8052aa13fccc78befaf7cd0cc95fbe97" target="_top" xlink:title=" ">
<polygon fill="white" stroke="#666666" points="157,-194 0,-194 0,-175 157,-175 157,-194"/>
<text text-anchor="middle" x="78.5" y="-182" font-family="Helvetica,sans-Serif" font-size="10.00">TLevelSelector::ChooseLevel</text>
</a>
</g>
</g>
<!-- Node4&#45;&gt;Node5 -->
<g id="edge4" class="edge">
<title>Node4&#45;&gt;Node5</title>
<path fill="none" stroke="#63b8ff" d="M182.49,-184.5C174.04,-184.5 165.5,-184.5 157.15,-184.5"/>
<polygon fill="#63b8ff" stroke="#63b8ff" points="182.74,-188 192.74,-184.5 182.74,-181 182.74,-188"/>
</g>
<!-- Node9 -->
<g id="node9" class="node">
<title>Node9</title>
<g id="a_node9"><a xlink:href="../../df/dbf/TestTLevelReader_8cpp.html#a6c36f508b1750d59e3ab18b7a77174ea" target="_top" xlink:title=" ">
<polygon fill="white" stroke="#666666" points="479.5,-19 438.5,-19 438.5,0 479.5,0 479.5,-19"/>
<text text-anchor="middle" x="459" y="-7" font-family="Helvetica,sans-Serif" font-size="10.00">TEST</text>
</a>
</g>
</g>
<!-- Node8&#45;&gt;Node9 -->
<g id="edge8" class="edge">
<title>Node8&#45;&gt;Node9</title>
<path fill="none" stroke="#63b8ff" d="M595.89,-9.5C554.53,-9.5 506.35,-9.5 479.91,-9.5"/>
<polygon fill="#63b8ff" stroke="#63b8ff" points="595.97,-13 605.97,-9.5 595.97,-6 595.97,-13"/>
</g>
<!-- Node10&#45;&gt;Node3 -->
<g id="edge11" class="edge">
<title>Node10&#45;&gt;Node3</title>
<path fill="none" stroke="#63b8ff" d="M590.93,-234.66C583.99,-232.08 577.24,-229.05 571,-225.5 551.06,-214.15 554.43,-200.7 535,-188.5 528.95,-184.71 522.27,-181.42 515.46,-178.6"/>
<polygon fill="#63b8ff" stroke="#63b8ff" points="589.89,-238 600.49,-237.91 592.15,-231.38 589.89,-238"/>
</g>
<!-- Node11 -->
<g id="node11" class="node">
<title>Node11</title>
<g id="a_node11"><a xlink:href="../../df/dbf/TestTLevelReader_8cpp.html#ae486e71c128cb1945779cfcc50810a9e" target="_top" xlink:title=" ">
<polygon fill="white" stroke="#666666" points="479.5,-259 438.5,-259 438.5,-240 479.5,-240 479.5,-259"/>
<text text-anchor="middle" x="459" y="-247" font-family="Helvetica,sans-Serif" font-size="10.00">TEST</text>
</a>
</g>
</g>
<!-- Node10&#45;&gt;Node11 -->
<g id="edge12" class="edge">
<title>Node10&#45;&gt;Node11</title>
<path fill="none" stroke="#63b8ff" d="M590.37,-249.5C550.23,-249.5 504.99,-249.5 479.75,-249.5"/>
<polygon fill="#63b8ff" stroke="#63b8ff" points="590.45,-253 600.45,-249.5 590.45,-246 590.45,-253"/>
</g>
<!-- Node12&#45;&gt;Node3 -->
<g id="edge14" class="edge">
<title>Node12&#45;&gt;Node3</title>
<path fill="none" stroke="#63b8ff" d="M614.21,-132.07C589.43,-137.12 560.06,-143.11 533.64,-148.49"/>
<polygon fill="#63b8ff" stroke="#63b8ff" points="615.07,-135.47 624.17,-130.04 613.67,-128.61 615.07,-135.47"/>
</g>
<!-- Node13 -->
<g id="node13" class="node">
<title>Node13</title>
<g id="a_node13"><a xlink:href="../../df/dbf/TestTLevelReader_8cpp.html#ae1685fd5cbbb95637c7623fffb0a0a7f" target="_top" xlink:title=" ">
<polygon fill="white" stroke="#666666" points="479.5,-130 438.5,-130 438.5,-111 479.5,-111 479.5,-130"/>
<text text-anchor="middle" x="459" y="-118" font-family="Helvetica,sans-Serif" font-size="10.00">TEST</text>
</a>
</g>
</g>
<!-- Node12&#45;&gt;Node13 -->
<g id="edge15" class="edge">
<title>Node12&#45;&gt;Node13</title>
<path fill="none" stroke="#63b8ff" d="M591.73,-120.5C551.16,-120.5 505.07,-120.5 479.58,-120.5"/>
<polygon fill="#63b8ff" stroke="#63b8ff" points="591.91,-124 601.91,-120.5 591.91,-117 591.91,-124"/>
</g>
<!-- Node14&#45;&gt;Node3 -->
<g id="edge17" class="edge">
<title>Node14&#45;&gt;Node3</title>
<path fill="none" stroke="#63b8ff" d="M584.5,-96.37C579.83,-98.16 575.3,-100.19 571,-102.5 550.79,-113.37 554.51,-127.42 535,-139.5 529.54,-142.88 523.55,-145.83 517.42,-148.39"/>
<polygon fill="#63b8ff" stroke="#63b8ff" points="585.92,-99.58 594.24,-93.03 583.65,-92.96 585.92,-99.58"/>
</g>
<!-- Node15 -->
<g id="node15" class="node">
<title>Node15</title>
<g id="a_node15"><a xlink:href="../../df/dbf/TestTLevelReader_8cpp.html#a3d91a40a002dd06ad7a815653e1c1bfd" target="_top" xlink:title=" ">
<polygon fill="white" stroke="#666666" points="479.5,-93 438.5,-93 438.5,-74 479.5,-74 479.5,-93"/>
<text text-anchor="middle" x="459" y="-81" font-family="Helvetica,sans-Serif" font-size="10.00">TEST</text>
</a>
</g>
</g>
<!-- Node14&#45;&gt;Node15 -->
<g id="edge18" class="edge">
<title>Node14&#45;&gt;Node15</title>
<path fill="none" stroke="#63b8ff" d="M560.59,-83.5C529.31,-83.5 498.6,-83.5 479.51,-83.5"/>
<polygon fill="#63b8ff" stroke="#63b8ff" points="560.75,-87 570.75,-83.5 560.75,-80 560.75,-87"/>
</g>
<!-- Node16&#45;&gt;Node3 -->
<g id="edge20" class="edge">
<title>Node16&#45;&gt;Node3</title>
<path fill="none" stroke="#63b8ff" d="M583.49,-57.81C579.08,-59.99 574.88,-62.54 571,-65.5 541.95,-87.72 562.64,-115.55 535,-139.5 531.07,-142.9 526.66,-145.82 521.99,-148.33"/>
<polygon fill="#63b8ff" stroke="#63b8ff" points="585,-60.97 592.81,-53.82 582.24,-54.54 585,-60.97"/>
</g>
<!-- Node17 -->
<g id="node17" class="node">
<title>Node17</title>
<g id="a_node17"><a xlink:href="../../df/dbf/TestTLevelReader_8cpp.html#a5d44caed3904c1ef6c734477bed059f0" target="_top" xlink:title=" ">
<polygon fill="white" stroke="#666666" points="479.5,-56 438.5,-56 438.5,-37 479.5,-37 479.5,-56"/>
<text text-anchor="middle" x="459" y="-44" font-family="Helvetica,sans-Serif" font-size="10.00">TEST</text>
</a>
</g>
</g>
<!-- Node16&#45;&gt;Node17 -->
<g id="edge21" class="edge">
<title>Node16&#45;&gt;Node17</title>
<path fill="none" stroke="#63b8ff" d="M582.58,-46.5C544.4,-46.5 503.16,-46.5 479.57,-46.5"/>
<polygon fill="#63b8ff" stroke="#63b8ff" points="582.73,-50 592.73,-46.5 582.73,-43 582.73,-50"/>
</g>
</g>
</svg>
        <g id="navigator" transform="translate(0 0)" fill="#404254">
                <rect fill="#f2f5e9" fill-opacity="0.5" stroke="#606060" stroke-width=".5" x="0" y="0" width="60" height="60"/>
                <use id="zoomplus" xlink:href="#zoomPlus" x="17" y="9" onmousedown="handleZoom(evt,'in')"/>
                <use id="zoomminus" xlink:href="#zoomMin" x="42" y="9" onmousedown="handleZoom(evt,'out')"/>
                <use id="reset" xlink:href="#resetDef" x="30" y="36" onmousedown="handleReset()"/>
                <g id="arrowUp" xlink:href="#dirArrow" transform="translate(30 24)" onmousedown="handlePan(0,-1)">
                  <use xlink:href="#rim" fill="#404040">
                        <set attributeName="fill" to="#808080" begin="arrowUp.mouseover" end="arrowUp.mouseout"/>
                  </use>
                  <path fill="none" stroke="white" stroke-width="1.5" d="M0,-3.0v7 M-2.5,-0.5L0,-3.0L2.5,-0.5"/>
                </g>
                <g id="arrowRight" xlink:href="#dirArrow" transform="rotate(90) translate(36 -43)" onmousedown="handlePan(1,0)">
                  <use xlink:href="#rim" fill="#404040">
                        <set attributeName="fill" to="#808080" begin="arrowRight.mouseover" end="arrowRight.mouseout"/>
                  </use>
                  <path fill="none" stroke="white" stroke-width="1.5" d="M0,-3.0v7 M-2.5,-0.5L0,-3.0L2.5,-0.5"/>
                </g>
                <g id="arrowDown" xlink:href="#dirArrow" transform="rotate(180) translate(-30 -48)" onmousedown="handlePan(0,1)">
                  <use xlink:href="#rim" fill="#404040">
                        <set attributeName="fill" to="#808080" begin="arrowDown.mouseover" end="arrowDown.mouseout"/>
                  </use>
                  <path fill="none" stroke="white" stroke-width="1.5" d="M0,-3.0v7 M-2.5,-0.5L0,-3.0L2.5,-0.5"/>
                </g>
                <g id="arrowLeft" xlink:href="#dirArrow" transform="rotate(270) translate(-36 17)" onmousedown="handlePan(-1,0)">
                  <use xlink:href="#rim" fill="#404040">
                        <set attributeName="fill" to="#808080" begin="arrowLeft.mouseover" end="arrowLeft.mouseout"/>
                  </use>
                  <path fill="none" stroke="white" stroke-width="1.5" d="M0,-3.0v7 M-2.5,-0.5L0,-3.0L2.5,-0.5"/>
                </g>
        </g>
        <svg viewBox="0 0 15 15" width="100%" height="30px" preserveAspectRatio="xMaxYMin meet">
         <g id="arrow_out" transform="scale(0.3 0.3)">
          <a xlink:href="classTLevelReader_a25bd379fa12d624375f165251b9c1178_icgraph_org.svg" target="_base">
           <rect id="button" ry="5" rx="5" y="6" x="6" height="38" width="38"
                fill="#f2f5e9" fill-opacity="0.5" stroke="#606060" stroke-width="1.0"/>
           <path id="arrow"
             d="M 11.500037,31.436501 C 11.940474,20.09759 22.043105,11.32322 32.158766,21.979434 L 37.068811,17.246167 C 37.068811,17.246167 37.088388,32 37.088388,32 L 22.160133,31.978069 C 22.160133,31.978069 26.997745,27.140456 26.997745,27.140456 C 18.528582,18.264221 13.291696,25.230495 11.500037,31.436501 z"
             style="fill:#404040;"/>
          </a>
         </g>
        </svg>
</svg>
