<?xml version="1.0" encoding="UTF-8" standalone="no"?>
<!DOCTYPE svg PUBLIC "-//W3C//DTD SVG 1.1//EN"
 "http://www.w3.org/Graphics/SVG/1.1/DTD/svg11.dtd">
<!-- Generated by graphviz version 2.43.0 (0)
 -->
<!-- Title: TLevelReader::ReadPirateBases Pages: 1 -->
<!--zoomable 177 -->
<svg id="main" version="1.1" xmlns="http://www.w3.org/2000/svg" xmlns:xlink="http://www.w3.org/1999/xlink" xml:space="preserve" onload="init(evt)">
<style type="text/css"><![CDATA[
.edge:hover path { stroke: red; }
.edge:hover polygon { stroke: red; fill: red; }
]]></style>
<script type="text/javascript"><![CDATA[
var edges = document.getElementsByTagName('g');
if (edges && edges.length) {
  for (var i=0;i<edges.length;i++) {
    if (edges[i].id.substr(0,4)=='edge') {
      edges[i].setAttribute('class','edge');
    }
  }
}
]]></script>
        <defs>
                <circle id="rim" cx="0" cy="0" r="7"/>
                <circle id="rim2" cx="0" cy="0" r="3.5"/>
                <g id="zoomPlus">
                        <use xlink:href="#rim" fill="#404040">
                                <set attributeName="fill" to="#808080" begin="zoomplus.mouseover" end="zoomplus.mouseout"/>
                        </use>
                        <path d="M-4,0h8M0,-4v8" fill="none" stroke="white" stroke-width="1.5" pointer-events="none"/>
                </g>
                <g id="zoomMin">
                        <use xlink:href="#rim" fill="#404040">
                                <set attributeName="fill" to="#808080" begin="zoomminus.mouseover" end="zoomminus.mouseout"/>
                        </use>
                        <path d="M-4,0h8" fill="none" stroke="white" stroke-width="1.5" pointer-events="none"/>
                </g>
                <g id="dirArrow">
                        <path fill="none" stroke="white" stroke-width="1.5" d="M0,-3.0v7 M-2.5,-0.5L0,-3.0L2.5,-0.5"/>
                </g>
               <g id="resetDef">
                       <use xlink:href="#rim2" fill="#404040">
                               <set attributeName="fill" to="#808080" begin="reset.mouseover" end="reset.mouseout"/>
                       </use>
               </g>
        </defs>

<script type="text/javascript">
var viewWidth = 517;
var viewHeight = 177;
var sectionId = 'dynsection-15';
</script>
<script xlink:href="../../svgpan.js"/>
<svg id="graph" class="graph">
<g id="viewport">
<title>TLevelReader::ReadPirateBases</title>
<!-- Node1 -->
<g id="node1" class="node">
<title>Node1</title>
<g id="a_node1"><a xlink:title=" ">
<polygon fill="#999999" stroke="#666666" points="143,-100.5 0,-100.5 0,-70.5 143,-70.5 143,-100.5"/>
<text text-anchor="start" x="8" y="-88.5" font-family="Helvetica,sans-Serif" font-size="10.00">TLevelReader::ReadPirate</text>
<text text-anchor="middle" x="71.5" y="-77.5" font-family="Helvetica,sans-Serif" font-size="10.00">Bases</text>
</a>
</g>
</g>
<!-- Node2 -->
<g id="node2" class="node">
<title>Node2</title>
<g id="a_node2"><a xlink:href="../../d8/d51/classMyList.html#a723c00a8380b8fd0705cb286cdd179d2" target="_top" xlink:title=" ">
<polygon fill="white" stroke="#666666" points="299,-169 226,-169 226,-150 299,-150 299,-169"/>
<text text-anchor="middle" x="262.5" y="-157" font-family="Helvetica,sans-Serif" font-size="10.00">MyList::end</text>
</a>
</g>
</g>
<!-- Node1&#45;&gt;Node2 -->
<g id="edge1" class="edge">
<title>Node1&#45;&gt;Node2</title>
<path fill="none" stroke="#63b8ff" d="M96.59,-100.58C117.64,-113.16 149.36,-130.7 179,-141.5 190.73,-145.77 203.78,-149.2 215.98,-151.86"/>
<polygon fill="#63b8ff" stroke="#63b8ff" points="215.48,-155.33 225.98,-153.92 216.9,-148.48 215.48,-155.33"/>
</g>
<!-- Node3 -->
<g id="node3" class="node">
<title>Node3</title>
<g id="a_node3"><a xlink:href="../../d8/d51/classMyList.html#ab5e189776aca91f01ee5fe930318c289" target="_top" xlink:title=" ">
<polygon fill="white" stroke="#666666" points="304,-132 221,-132 221,-113 304,-113 304,-132"/>
<text text-anchor="middle" x="262.5" y="-120" font-family="Helvetica,sans-Serif" font-size="10.00">MyList::insert</text>
</a>
</g>
</g>
<!-- Node1&#45;&gt;Node3 -->
<g id="edge2" class="edge">
<title>Node1&#45;&gt;Node3</title>
<path fill="none" stroke="#63b8ff" d="M143.15,-99.33C165.67,-103.74 190.13,-108.53 210.94,-112.6"/>
<polygon fill="#63b8ff" stroke="#63b8ff" points="210.35,-116.05 220.83,-114.54 211.69,-109.18 210.35,-116.05"/>
</g>
<!-- Node4 -->
<g id="node4" class="node">
<title>Node4</title>
<g id="a_node4"><a xlink:href="../../d5/d99/classTLevelReader.html#a25bd379fa12d624375f165251b9c1178" target="_top" xlink:title=" ">
<polygon fill="white" stroke="#666666" points="335.5,-95 189.5,-95 189.5,-76 335.5,-76 335.5,-95"/>
<text text-anchor="middle" x="262.5" y="-83" font-family="Helvetica,sans-Serif" font-size="10.00">TLevelReader::ReadEmpty</text>
</a>
</g>
</g>
<!-- Node1&#45;&gt;Node4 -->
<g id="edge3" class="edge">
<title>Node1&#45;&gt;Node4</title>
<path fill="none" stroke="#63b8ff" d="M143.15,-85.5C154.94,-85.5 167.27,-85.5 179.32,-85.5"/>
<polygon fill="#63b8ff" stroke="#63b8ff" points="179.36,-89 189.36,-85.5 179.36,-82 179.36,-89"/>
</g>
<!-- Node5 -->
<g id="node5" class="node">
<title>Node5</title>
<g id="a_node5"><a xlink:href="../../d5/d99/classTLevelReader.html#a82ec22fb9386deb547a0a0862bc90301" target="_top" xlink:title=" ">
<polygon fill="white" stroke="#666666" points="509,-56 382,-56 382,-37 509,-37 509,-56"/>
<text text-anchor="middle" x="445.5" y="-44" font-family="Helvetica,sans-Serif" font-size="10.00">TLevelReader::ReadInt</text>
</a>
</g>
</g>
<!-- Node1&#45;&gt;Node5 -->
<g id="edge4" class="edge">
<title>Node1&#45;&gt;Node5</title>
<path fill="none" stroke="#63b8ff" d="M143.12,-72.66C155.07,-70.75 167.37,-68.94 179,-67.5 243.99,-59.45 318.33,-53.88 371.78,-50.51"/>
<polygon fill="#63b8ff" stroke="#63b8ff" points="372.08,-54 381.85,-49.89 371.65,-47.01 372.08,-54"/>
</g>
<!-- Node6 -->
<g id="node6" class="node">
<title>Node6</title>
<g id="a_node6"><a xlink:href="../../d5/d99/classTLevelReader.html#a98a8afd39b4ade7d9e3843a51109ea1d" target="_top" xlink:title=" ">
<polygon fill="white" stroke="#666666" points="346,-19 179,-19 179,0 346,0 346,-19"/>
<text text-anchor="middle" x="262.5" y="-7" font-family="Helvetica,sans-Serif" font-size="10.00">TLevelReader::ReadPirateBase</text>
</a>
</g>
</g>
<!-- Node1&#45;&gt;Node6 -->
<g id="edge5" class="edge">
<title>Node1&#45;&gt;Node6</title>
<path fill="none" stroke="#63b8ff" d="M99.95,-70.48C121.12,-59.3 151.36,-44.18 179,-33.5 190.08,-29.22 202.26,-25.28 213.77,-21.88"/>
<polygon fill="#63b8ff" stroke="#63b8ff" points="215.03,-25.16 223.68,-19.04 213.1,-18.43 215.03,-25.16"/>
</g>
<!-- Node6&#45;&gt;Node5 -->
<g id="edge7" class="edge">
<title>Node6&#45;&gt;Node5</title>
<path fill="none" stroke="#63b8ff" d="M310.11,-19.03C333.77,-23.86 362.71,-29.78 387.67,-34.88"/>
<polygon fill="#63b8ff" stroke="#63b8ff" points="387.23,-38.37 397.73,-36.94 388.64,-31.51 387.23,-38.37"/>
</g>
<!-- Node7 -->
<g id="node7" class="node">
<title>Node7</title>
<g id="a_node7"><a xlink:href="../../d8/d51/classMyList.html#a80edb252c7e71107fac78c29647be513" target="_top" xlink:title=" ">
<polygon fill="white" stroke="#666666" points="491.5,-19 399.5,-19 399.5,0 491.5,0 491.5,-19"/>
<text text-anchor="middle" x="445.5" y="-7" font-family="Helvetica,sans-Serif" font-size="10.00">MyList::getById</text>
</a>
</g>
</g>
<!-- Node6&#45;&gt;Node7 -->
<g id="edge6" class="edge">
<title>Node6&#45;&gt;Node7</title>
<path fill="none" stroke="#63b8ff" d="M346.06,-9.5C360.62,-9.5 375.46,-9.5 389.05,-9.5"/>
<polygon fill="#63b8ff" stroke="#63b8ff" points="389.17,-13 399.17,-9.5 389.17,-6 389.17,-13"/>
</g>
</g>
</svg>
        <g id="navigator" transform="translate(0 0)" fill="#404254">
                <rect fill="#f2f5e9" fill-opacity="0.5" stroke="#606060" stroke-width=".5" x="0" y="0" width="60" height="60"/>
                <use id="zoomplus" xlink:href="#zoomPlus" x="17" y="9" onmousedown="handleZoom(evt,'in')"/>
                <use id="zoomminus" xlink:href="#zoomMin" x="42" y="9" onmousedown="handleZoom(evt,'out')"/>
                <use id="reset" xlink:href="#resetDef" x="30" y="36" onmousedown="handleReset()"/>
                <g id="arrowUp" xlink:href="#dirArrow" transform="translate(30 24)" onmousedown="handlePan(0,-1)">
                  <use xlink:href="#rim" fill="#404040">
                        <set attributeName="fill" to="#808080" begin="arrowUp.mouseover" end="arrowUp.mouseout"/>
                  </use>
                  <path fill="none" stroke="white" stroke-width="1.5" d="M0,-3.0v7 M-2.5,-0.5L0,-3.0L2.5,-0.5"/>
                </g>
                <g id="arrowRight" xlink:href="#dirArrow" transform="rotate(90) translate(36 -43)" onmousedown="handlePan(1,0)">
                  <use xlink:href="#rim" fill="#404040">
                        <set attributeName="fill" to="#808080" begin="arrowRight.mouseover" end="arrowRight.mouseout"/>
                  </use>
                  <path fill="none" stroke="white" stroke-width="1.5" d="M0,-3.0v7 M-2.5,-0.5L0,-3.0L2.5,-0.5"/>
                </g>
                <g id="arrowDown" xlink:href="#dirArrow" transform="rotate(180) translate(-30 -48)" onmousedown="handlePan(0,1)">
                  <use xlink:href="#rim" fill="#404040">
                        <set attributeName="fill" to="#808080" begin="arrowDown.mouseover" end="arrowDown.mouseout"/>
                  </use>
                  <path fill="none" stroke="white" stroke-width="1.5" d="M0,-3.0v7 M-2.5,-0.5L0,-3.0L2.5,-0.5"/>
                </g>
                <g id="arrowLeft" xlink:href="#dirArrow" transform="rotate(270) translate(-36 17)" onmousedown="handlePan(-1,0)">
                  <use xlink:href="#rim" fill="#404040">
                        <set attributeName="fill" to="#808080" begin="arrowLeft.mouseover" end="arrowLeft.mouseout"/>
                  </use>
                  <path fill="none" stroke="white" stroke-width="1.5" d="M0,-3.0v7 M-2.5,-0.5L0,-3.0L2.5,-0.5"/>
                </g>
        </g>
        <svg viewBox="0 0 15 15" width="100%" height="30px" preserveAspectRatio="xMaxYMin meet">
         <g id="arrow_out" transform="scale(0.3 0.3)">
          <a xlink:href="classTLevelReader_ae7a5a65dfddd9c939dbdf18846054725_cgraph_org.svg" target="_base">
           <rect id="button" ry="5" rx="5" y="6" x="6" height="38" width="38"
                fill="#f2f5e9" fill-opacity="0.5" stroke="#606060" stroke-width="1.0"/>
           <path id="arrow"
             d="M 11.500037,31.436501 C 11.940474,20.09759 22.043105,11.32322 32.158766,21.979434 L 37.068811,17.246167 C 37.068811,17.246167 37.088388,32 37.088388,32 L 22.160133,31.978069 C 22.160133,31.978069 26.997745,27.140456 26.997745,27.140456 C 18.528582,18.264221 13.291696,25.230495 11.500037,31.436501 z"
             style="fill:#404040;"/>
          </a>
         </g>
        </svg>
</svg>
