<?xml version="1.0" encoding="UTF-8" standalone="no"?>
<!DOCTYPE svg PUBLIC "-//W3C//DTD SVG 1.1//EN"
 "http://www.w3.org/Graphics/SVG/1.1/DTD/svg11.dtd">
<!-- Generated by graphviz version 2.43.0 (0)
 -->
<!-- Title: TLevelReader::ReadCapitanInfos Pages: 1 -->
<svg width="731pt" height="97pt"
 viewBox="0.00 0.00 731.00 96.50" xmlns="http://www.w3.org/2000/svg" xmlns:xlink="http://www.w3.org/1999/xlink">
<g id="graph0" class="graph" transform="scale(1 1) rotate(0) translate(4 92.5)">
<title>TLevelReader::ReadCapitanInfos</title>
<!-- Node1 -->
<g id="node1" class="node">
<title>Node1</title>
<g id="a_node1"><a xlink:title=" ">
<polygon fill="#999999" stroke="#666666" points="723,-45.5 571,-45.5 571,-15.5 723,-15.5 723,-45.5"/>
<text text-anchor="start" x="579" y="-33.5" font-family="Helvetica,sans-Serif" font-size="10.00">TLevelReader::ReadCapitan</text>
<text text-anchor="middle" x="647" y="-22.5" font-family="Helvetica,sans-Serif" font-size="10.00">Infos</text>
</a>
</g>
</g>
<!-- Node2 -->
<g id="node2" class="node">
<title>Node2</title>
<g id="a_node2"><a xlink:href="../../d5/d99/classTLevelReader.html#a5e3953bd0caf6e6c60d6750ff732150a" target="_top" xlink:title=" ">
<polygon fill="white" stroke="#666666" points="535,-67.5 383,-67.5 383,-37.5 535,-37.5 535,-67.5"/>
<text text-anchor="start" x="391" y="-55.5" font-family="Helvetica,sans-Serif" font-size="10.00">TLevelReader::ReadMission</text>
<text text-anchor="middle" x="459" y="-44.5" font-family="Helvetica,sans-Serif" font-size="10.00">InfoFromStream</text>
</a>
</g>
</g>
<!-- Node1&#45;&gt;Node2 -->
<g id="edge1" class="edge">
<title>Node1&#45;&gt;Node2</title>
<path fill="none" stroke="#63b8ff" d="M560.85,-40.57C552.26,-41.59 543.57,-42.61 535.1,-43.62"/>
<polygon fill="#63b8ff" stroke="#63b8ff" points="561.36,-44.04 570.88,-39.38 560.54,-37.08 561.36,-44.04"/>
</g>
<!-- Node6 -->
<g id="node6" class="node">
<title>Node6</title>
<g id="a_node6"><a xlink:href="../../df/dbf/TestTLevelReader_8cpp.html#a24daca223446d45d535988669914051e" target="_top" xlink:title=" ">
<polygon fill="white" stroke="#666666" points="479.5,-19 438.5,-19 438.5,0 479.5,0 479.5,-19"/>
<text text-anchor="middle" x="459" y="-7" font-family="Helvetica,sans-Serif" font-size="10.00">TEST</text>
</a>
</g>
</g>
<!-- Node1&#45;&gt;Node6 -->
<g id="edge5" class="edge">
<title>Node1&#45;&gt;Node6</title>
<path fill="none" stroke="#63b8ff" d="M560.73,-20.87C530.61,-17.47 499.4,-13.95 479.86,-11.74"/>
<polygon fill="#63b8ff" stroke="#63b8ff" points="560.55,-24.37 570.88,-22.02 561.34,-17.42 560.55,-24.37"/>
</g>
<!-- Node3 -->
<g id="node3" class="node">
<title>Node3</title>
<g id="a_node3"><a xlink:href="../../d2/dc1/classTLevelSelector.html#a1ce3be0dec7c17d6674837ff8742d5ee" target="_top" xlink:title=" ">
<polygon fill="white" stroke="#666666" points="347,-88.5 193,-88.5 193,-58.5 347,-58.5 347,-88.5"/>
<text text-anchor="start" x="201" y="-76.5" font-family="Helvetica,sans-Serif" font-size="10.00">TLevelSelector::readMission</text>
<text text-anchor="middle" x="270" y="-65.5" font-family="Helvetica,sans-Serif" font-size="10.00">InfoFromStream</text>
</a>
</g>
</g>
<!-- Node2&#45;&gt;Node3 -->
<g id="edge2" class="edge">
<title>Node2&#45;&gt;Node3</title>
<path fill="none" stroke="#63b8ff" d="M372.74,-62.07C364.16,-63.04 355.49,-64.01 347.01,-64.96"/>
<polygon fill="#63b8ff" stroke="#63b8ff" points="373.2,-65.54 382.75,-60.95 372.42,-58.59 373.2,-65.54"/>
</g>
<!-- Node5 -->
<g id="node5" class="node">
<title>Node5</title>
<g id="a_node5"><a xlink:href="../../df/dbf/TestTLevelReader_8cpp.html#a5b89023c1d74cccde2a4947bc710cd5b" target="_top" xlink:title=" ">
<polygon fill="white" stroke="#666666" points="290.5,-40 249.5,-40 249.5,-21 290.5,-21 290.5,-40"/>
<text text-anchor="middle" x="270" y="-28" font-family="Helvetica,sans-Serif" font-size="10.00">TEST</text>
</a>
</g>
</g>
<!-- Node2&#45;&gt;Node5 -->
<g id="edge4" class="edge">
<title>Node2&#45;&gt;Node5</title>
<path fill="none" stroke="#63b8ff" d="M372.46,-42.44C341.95,-38.85 310.29,-35.12 290.63,-32.81"/>
<polygon fill="#63b8ff" stroke="#63b8ff" points="372.41,-45.95 382.75,-43.65 373.23,-39 372.41,-45.95"/>
</g>
<!-- Node4 -->
<g id="node4" class="node">
<title>Node4</title>
<g id="a_node4"><a xlink:href="../../d2/dc1/classTLevelSelector.html#a8052aa13fccc78befaf7cd0cc95fbe97" target="_top" xlink:title=" ">
<polygon fill="white" stroke="#666666" points="157,-83 0,-83 0,-64 157,-64 157,-83"/>
<text text-anchor="middle" x="78.5" y="-71" font-family="Helvetica,sans-Serif" font-size="10.00">TLevelSelector::ChooseLevel</text>
</a>
</g>
</g>
<!-- Node3&#45;&gt;Node4 -->
<g id="edge3" class="edge">
<title>Node3&#45;&gt;Node4</title>
<path fill="none" stroke="#63b8ff" d="M182.49,-73.5C174.04,-73.5 165.5,-73.5 157.15,-73.5"/>
<polygon fill="#63b8ff" stroke="#63b8ff" points="182.74,-77 192.74,-73.5 182.74,-70 182.74,-77"/>
</g>
</g>
</svg>
