<?xml version="1.0" encoding="UTF-8" standalone="no"?>
<!DOCTYPE svg PUBLIC "-//W3C//DTD SVG 1.1//EN"
 "http://www.w3.org/Graphics/SVG/1.1/DTD/svg11.dtd">
<!-- Generated by graphviz version 2.43.0 (0)
 -->
<!-- Title: TLevelReader::ReadPirateBases Pages: 1 -->
<!--zoomable 97 -->
<svg id="main" version="1.1" xmlns="http://www.w3.org/2000/svg" xmlns:xlink="http://www.w3.org/1999/xlink" xml:space="preserve" onload="init(evt)">
<style type="text/css"><![CDATA[
.edge:hover path { stroke: red; }
.edge:hover polygon { stroke: red; fill: red; }
]]></style>
<script type="text/javascript"><![CDATA[
var edges = document.getElementsByTagName('g');
if (edges && edges.length) {
  for (var i=0;i<edges.length;i++) {
    if (edges[i].id.substr(0,4)=='edge') {
      edges[i].setAttribute('class','edge');
    }
  }
}
]]></script>
        <defs>
                <circle id="rim" cx="0" cy="0" r="7"/>
                <circle id="rim2" cx="0" cy="0" r="3.5"/>
                <g id="zoomPlus">
                        <use xlink:href="#rim" fill="#404040">
                                <set attributeName="fill" to="#808080" begin="zoomplus.mouseover" end="zoomplus.mouseout"/>
                        </use>
                        <path d="M-4,0h8M0,-4v8" fill="none" stroke="white" stroke-width="1.5" pointer-events="none"/>
                </g>
                <g id="zoomMin">
                        <use xlink:href="#rim" fill="#404040">
                                <set attributeName="fill" to="#808080" begin="zoomminus.mouseover" end="zoomminus.mouseout"/>
                        </use>
                        <path d="M-4,0h8" fill="none" stroke="white" stroke-width="1.5" pointer-events="none"/>
                </g>
                <g id="dirArrow">
                        <path fill="none" stroke="white" stroke-width="1.5" d="M0,-3.0v7 M-2.5,-0.5L0,-3.0L2.5,-0.5"/>
                </g>
               <g id="resetDef">
                       <use xlink:href="#rim2" fill="#404040">
                               <set attributeName="fill" to="#808080" begin="reset.mouseover" end="reset.mouseout"/>
                       </use>
               </g>
        </defs>

<script type="text/javascript">
var viewWidth = 722;
var viewHeight = 97;
var sectionId = 'dynsection-16';
</script>
<script xlink:href="../../svgpan.js"/>
<svg id="graph" class="graph">
<g id="viewport">
<title>TLevelReader::ReadPirateBases</title>
<!-- Node1 -->
<g id="node1" class="node">
<title>Node1</title>
<g id="a_node1"><a xlink:title=" ">
<polygon fill="#999999" stroke="#666666" points="714,-45.5 571,-45.5 571,-15.5 714,-15.5 714,-45.5"/>
<text text-anchor="start" x="579" y="-33.5" font-family="Helvetica,sans-Serif" font-size="10.00">TLevelReader::ReadPirate</text>
<text text-anchor="middle" x="642.5" y="-22.5" font-family="Helvetica,sans-Serif" font-size="10.00">Bases</text>
</a>
</g>
</g>
<!-- Node2 -->
<g id="node2" class="node">
<title>Node2</title>
<g id="a_node2"><a xlink:href="../../d5/d99/classTLevelReader.html#a5e3953bd0caf6e6c60d6750ff732150a" target="_top" xlink:title=" ">
<polygon fill="white" stroke="#666666" points="535,-67.5 383,-67.5 383,-37.5 535,-37.5 535,-67.5"/>
<text text-anchor="start" x="391" y="-55.5" font-family="Helvetica,sans-Serif" font-size="10.00">TLevelReader::ReadMission</text>
<text text-anchor="middle" x="459" y="-44.5" font-family="Helvetica,sans-Serif" font-size="10.00">InfoFromStream</text>
</a>
</g>
</g>
<!-- Node1&#45;&gt;Node2 -->
<g id="edge1" class="edge">
<title>Node1&#45;&gt;Node2</title>
<path fill="none" stroke="#63b8ff" d="M560.61,-40.3C552.19,-41.33 543.66,-42.36 535.3,-43.37"/>
<polygon fill="#63b8ff" stroke="#63b8ff" points="561.3,-43.75 570.81,-39.07 560.46,-36.8 561.3,-43.75"/>
</g>
<!-- Node6 -->
<g id="node6" class="node">
<title>Node6</title>
<g id="a_node6"><a xlink:href="../../df/dbf/TestTLevelReader_8cpp.html#ae486e71c128cb1945779cfcc50810a9e" target="_top" xlink:title=" ">
<polygon fill="white" stroke="#666666" points="479.5,-19 438.5,-19 438.5,0 479.5,0 479.5,-19"/>
<text text-anchor="middle" x="459" y="-7" font-family="Helvetica,sans-Serif" font-size="10.00">TEST</text>
</a>
</g>
</g>
<!-- Node1&#45;&gt;Node6 -->
<g id="edge5" class="edge">
<title>Node1&#45;&gt;Node6</title>
<path fill="none" stroke="#63b8ff" d="M560.7,-21.15C530.69,-17.68 499.21,-14.04 479.6,-11.77"/>
<polygon fill="#63b8ff" stroke="#63b8ff" points="560.47,-24.65 570.81,-22.32 561.28,-17.69 560.47,-24.65"/>
</g>
<!-- Node3 -->
<g id="node3" class="node">
<title>Node3</title>
<g id="a_node3"><a xlink:href="../../d2/dc1/classTLevelSelector.html#a1ce3be0dec7c17d6674837ff8742d5ee" target="_top" xlink:title=" ">
<polygon fill="white" stroke="#666666" points="347,-88.5 193,-88.5 193,-58.5 347,-58.5 347,-88.5"/>
<text text-anchor="start" x="201" y="-76.5" font-family="Helvetica,sans-Serif" font-size="10.00">TLevelSelector::readMission</text>
<text text-anchor="middle" x="270" y="-65.5" font-family="Helvetica,sans-Serif" font-size="10.00">InfoFromStream</text>
</a>
</g>
</g>
<!-- Node2&#45;&gt;Node3 -->
<g id="edge2" class="edge">
<title>Node2&#45;&gt;Node3</title>
<path fill="none" stroke="#63b8ff" d="M372.74,-62.07C364.16,-63.04 355.49,-64.01 347.01,-64.96"/>
<polygon fill="#63b8ff" stroke="#63b8ff" points="373.2,-65.54 382.75,-60.95 372.42,-58.59 373.2,-65.54"/>
</g>
<!-- Node5 -->
<g id="node5" class="node">
<title>Node5</title>
<g id="a_node5"><a xlink:href="../../df/dbf/TestTLevelReader_8cpp.html#a5b89023c1d74cccde2a4947bc710cd5b" target="_top" xlink:title=" ">
<polygon fill="white" stroke="#666666" points="290.5,-40 249.5,-40 249.5,-21 290.5,-21 290.5,-40"/>
<text text-anchor="middle" x="270" y="-28" font-family="Helvetica,sans-Serif" font-size="10.00">TEST</text>
</a>
</g>
</g>
<!-- Node2&#45;&gt;Node5 -->
<g id="edge4" class="edge">
<title>Node2&#45;&gt;Node5</title>
<path fill="none" stroke="#63b8ff" d="M372.46,-42.44C341.95,-38.85 310.29,-35.12 290.63,-32.81"/>
<polygon fill="#63b8ff" stroke="#63b8ff" points="372.41,-45.95 382.75,-43.65 373.23,-39 372.41,-45.95"/>
</g>
<!-- Node4 -->
<g id="node4" class="node">
<title>Node4</title>
<g id="a_node4"><a xlink:href="../../d2/dc1/classTLevelSelector.html#a8052aa13fccc78befaf7cd0cc95fbe97" target="_top" xlink:title=" ">
<polygon fill="white" stroke="#666666" points="157,-83 0,-83 0,-64 157,-64 157,-83"/>
<text text-anchor="middle" x="78.5" y="-71" font-family="Helvetica,sans-Serif" font-size="10.00">TLevelSelector::ChooseLevel</text>
</a>
</g>
</g>
<!-- Node3&#45;&gt;Node4 -->
<g id="edge3" class="edge">
<title>Node3&#45;&gt;Node4</title>
<path fill="none" stroke="#63b8ff" d="M182.49,-73.5C174.04,-73.5 165.5,-73.5 157.15,-73.5"/>
<polygon fill="#63b8ff" stroke="#63b8ff" points="182.74,-77 192.74,-73.5 182.74,-70 182.74,-77"/>
</g>
</g>
</svg>
        <g id="navigator" transform="translate(0 0)" fill="#404254">
                <rect fill="#f2f5e9" fill-opacity="0.5" stroke="#606060" stroke-width=".5" x="0" y="0" width="60" height="60"/>
                <use id="zoomplus" xlink:href="#zoomPlus" x="17" y="9" onmousedown="handleZoom(evt,'in')"/>
                <use id="zoomminus" xlink:href="#zoomMin" x="42" y="9" onmousedown="handleZoom(evt,'out')"/>
                <use id="reset" xlink:href="#resetDef" x="30" y="36" onmousedown="handleReset()"/>
                <g id="arrowUp" xlink:href="#dirArrow" transform="translate(30 24)" onmousedown="handlePan(0,-1)">
                  <use xlink:href="#rim" fill="#404040">
                        <set attributeName="fill" to="#808080" begin="arrowUp.mouseover" end="arrowUp.mouseout"/>
                  </use>
                  <path fill="none" stroke="white" stroke-width="1.5" d="M0,-3.0v7 M-2.5,-0.5L0,-3.0L2.5,-0.5"/>
                </g>
                <g id="arrowRight" xlink:href="#dirArrow" transform="rotate(90) translate(36 -43)" onmousedown="handlePan(1,0)">
                  <use xlink:href="#rim" fill="#404040">
                        <set attributeName="fill" to="#808080" begin="arrowRight.mouseover" end="arrowRight.mouseout"/>
                  </use>
                  <path fill="none" stroke="white" stroke-width="1.5" d="M0,-3.0v7 M-2.5,-0.5L0,-3.0L2.5,-0.5"/>
                </g>
                <g id="arrowDown" xlink:href="#dirArrow" transform="rotate(180) translate(-30 -48)" onmousedown="handlePan(0,1)">
                  <use xlink:href="#rim" fill="#404040">
                        <set attributeName="fill" to="#808080" begin="arrowDown.mouseover" end="arrowDown.mouseout"/>
                  </use>
                  <path fill="none" stroke="white" stroke-width="1.5" d="M0,-3.0v7 M-2.5,-0.5L0,-3.0L2.5,-0.5"/>
                </g>
                <g id="arrowLeft" xlink:href="#dirArrow" transform="rotate(270) translate(-36 17)" onmousedown="handlePan(-1,0)">
                  <use xlink:href="#rim" fill="#404040">
                        <set attributeName="fill" to="#808080" begin="arrowLeft.mouseover" end="arrowLeft.mouseout"/>
                  </use>
                  <path fill="none" stroke="white" stroke-width="1.5" d="M0,-3.0v7 M-2.5,-0.5L0,-3.0L2.5,-0.5"/>
                </g>
        </g>
        <svg viewBox="0 0 15 15" width="100%" height="30px" preserveAspectRatio="xMaxYMin meet">
         <g id="arrow_out" transform="scale(0.3 0.3)">
          <a xlink:href="classTLevelReader_ae7a5a65dfddd9c939dbdf18846054725_icgraph_org.svg" target="_base">
           <rect id="button" ry="5" rx="5" y="6" x="6" height="38" width="38"
                fill="#f2f5e9" fill-opacity="0.5" stroke="#606060" stroke-width="1.0"/>
           <path id="arrow"
             d="M 11.500037,31.436501 C 11.940474,20.09759 22.043105,11.32322 32.158766,21.979434 L 37.068811,17.246167 C 37.068811,17.246167 37.088388,32 37.088388,32 L 22.160133,31.978069 C 22.160133,31.978069 26.997745,27.140456 26.997745,27.140456 C 18.528582,18.264221 13.291696,25.230495 11.500037,31.436501 z"
             style="fill:#404040;"/>
          </a>
         </g>
        </svg>
</svg>
