<?xml version="1.0" encoding="UTF-8" standalone="no"?>
<!DOCTYPE svg PUBLIC "-//W3C//DTD SVG 1.1//EN"
 "http://www.w3.org/Graphics/SVG/1.1/DTD/svg11.dtd">
<!-- Generated by graphviz version 2.43.0 (0)
 -->
<!-- Title: TLevelReader::ReadSpawnDescriptors Pages: 1 -->
<svg width="606pt" height="177pt"
 viewBox="0.00 0.00 606.00 177.00" xmlns="http://www.w3.org/2000/svg" xmlns:xlink="http://www.w3.org/1999/xlink">
<g id="graph0" class="graph" transform="scale(1 1) rotate(0) translate(4 173)">
<title>TLevelReader::ReadSpawnDescriptors</title>
<!-- Node1 -->
<g id="node1" class="node">
<title>Node1</title>
<g id="a_node1"><a xlink:title=" ">
<polygon fill="#999999" stroke="#666666" points="202,-95 0,-95 0,-76 202,-76 202,-95"/>
<text text-anchor="middle" x="101" y="-83" font-family="Helvetica,sans-Serif" font-size="10.00">TLevelReader::ReadSpawnDescriptors</text>
</a>
</g>
</g>
<!-- Node2 -->
<g id="node2" class="node">
<title>Node2</title>
<g id="a_node2"><a xlink:href="../../d8/d51/classMyList.html#a723c00a8380b8fd0705cb286cdd179d2" target="_top" xlink:title=" ">
<polygon fill="white" stroke="#666666" points="373,-169 300,-169 300,-150 373,-150 373,-169"/>
<text text-anchor="middle" x="336.5" y="-157" font-family="Helvetica,sans-Serif" font-size="10.00">MyList::end</text>
</a>
</g>
</g>
<!-- Node1&#45;&gt;Node2 -->
<g id="edge1" class="edge">
<title>Node1&#45;&gt;Node2</title>
<path fill="none" stroke="#63b8ff" d="M121.8,-95.19C147.87,-107.58 195.38,-128.94 238,-141.5 254.68,-146.42 273.38,-150.26 289.91,-153.1"/>
<polygon fill="#63b8ff" stroke="#63b8ff" points="289.45,-156.57 299.88,-154.75 290.58,-149.67 289.45,-156.57"/>
</g>
<!-- Node3 -->
<g id="node3" class="node">
<title>Node3</title>
<g id="a_node3"><a xlink:href="../../d8/d51/classMyList.html#ab5e189776aca91f01ee5fe930318c289" target="_top" xlink:title=" ">
<polygon fill="white" stroke="#666666" points="378,-132 295,-132 295,-113 378,-113 378,-132"/>
<text text-anchor="middle" x="336.5" y="-120" font-family="Helvetica,sans-Serif" font-size="10.00">MyList::insert</text>
</a>
</g>
</g>
<!-- Node1&#45;&gt;Node3 -->
<g id="edge2" class="edge">
<title>Node1&#45;&gt;Node3</title>
<path fill="none" stroke="#63b8ff" d="M162.13,-95.03C200.01,-101.03 248.38,-108.7 284.4,-114.4"/>
<polygon fill="#63b8ff" stroke="#63b8ff" points="284.26,-117.92 294.69,-116.03 285.36,-111.01 284.26,-117.92"/>
</g>
<!-- Node4 -->
<g id="node4" class="node">
<title>Node4</title>
<g id="a_node4"><a xlink:href="../../d5/d99/classTLevelReader.html#a25bd379fa12d624375f165251b9c1178" target="_top" xlink:title=" ">
<polygon fill="white" stroke="#666666" points="409.5,-95 263.5,-95 263.5,-76 409.5,-76 409.5,-95"/>
<text text-anchor="middle" x="336.5" y="-83" font-family="Helvetica,sans-Serif" font-size="10.00">TLevelReader::ReadEmpty</text>
</a>
</g>
</g>
<!-- Node1&#45;&gt;Node4 -->
<g id="edge3" class="edge">
<title>Node1&#45;&gt;Node4</title>
<path fill="none" stroke="#63b8ff" d="M202.04,-85.5C219.06,-85.5 236.56,-85.5 253.05,-85.5"/>
<polygon fill="#63b8ff" stroke="#63b8ff" points="253.18,-89 263.18,-85.5 253.18,-82 253.18,-89"/>
</g>
<!-- Node5 -->
<g id="node5" class="node">
<title>Node5</title>
<g id="a_node5"><a xlink:href="../../d5/d99/classTLevelReader.html#a82ec22fb9386deb547a0a0862bc90301" target="_top" xlink:title=" ">
<polygon fill="white" stroke="#666666" points="598,-38 471,-38 471,-19 598,-19 598,-38"/>
<text text-anchor="middle" x="534.5" y="-26" font-family="Helvetica,sans-Serif" font-size="10.00">TLevelReader::ReadInt</text>
</a>
</g>
</g>
<!-- Node1&#45;&gt;Node5 -->
<g id="edge4" class="edge">
<title>Node1&#45;&gt;Node5</title>
<path fill="none" stroke="#63b8ff" d="M173.99,-75.97C194.66,-73.23 217.22,-70.25 238,-67.5 314.02,-57.45 401.04,-45.97 460.85,-38.08"/>
<polygon fill="#63b8ff" stroke="#63b8ff" points="461.5,-41.53 470.95,-36.75 460.58,-34.59 461.5,-41.53"/>
</g>
<!-- Node6 -->
<g id="node6" class="node">
<title>Node6</title>
<g id="a_node6"><a xlink:href="../../d5/d99/classTLevelReader.html#a392f8ceec89e3ff9f3f87ea030c117d6" target="_top" xlink:title=" ">
<polygon fill="white" stroke="#666666" points="435,-19 238,-19 238,0 435,0 435,-19"/>
<text text-anchor="middle" x="336.5" y="-7" font-family="Helvetica,sans-Serif" font-size="10.00">TLevelReader::ReadSpawnDescriptor</text>
</a>
</g>
</g>
<!-- Node1&#45;&gt;Node6 -->
<g id="edge5" class="edge">
<title>Node1&#45;&gt;Node6</title>
<path fill="none" stroke="#63b8ff" d="M124.32,-75.99C151.02,-64.83 197.23,-46.26 238,-33.5 251.92,-29.14 267.16,-25.07 281.37,-21.56"/>
<polygon fill="#63b8ff" stroke="#63b8ff" points="282.6,-24.86 291.5,-19.11 280.96,-18.06 282.6,-24.86"/>
</g>
<!-- Node6&#45;&gt;Node5 -->
<g id="edge6" class="edge">
<title>Node6&#45;&gt;Node5</title>
<path fill="none" stroke="#63b8ff" d="M435.21,-18.97C443.8,-19.8 452.4,-20.64 460.73,-21.45"/>
<polygon fill="#63b8ff" stroke="#63b8ff" points="460.45,-24.94 470.74,-22.42 461.13,-17.97 460.45,-24.94"/>
</g>
</g>
</svg>
