<?xml version="1.0" encoding="UTF-8" standalone="no"?>
<!DOCTYPE svg PUBLIC "-//W3C//DTD SVG 1.1//EN"
 "http://www.w3.org/Graphics/SVG/1.1/DTD/svg11.dtd">
<!-- Generated by graphviz version 2.43.0 (0)
 -->
<!-- Title: TLevelReader::ReadInt Pages: 1 -->
<!--zoomable 554 -->
<svg id="main" version="1.1" xmlns="http://www.w3.org/2000/svg" xmlns:xlink="http://www.w3.org/1999/xlink" xml:space="preserve" onload="init(evt)">
<style type="text/css"><![CDATA[
.edge:hover path { stroke: red; }
.edge:hover polygon { stroke: red; fill: red; }
]]></style>
<script type="text/javascript"><![CDATA[
var edges = document.getElementsByTagName('g');
if (edges && edges.length) {
  for (var i=0;i<edges.length;i++) {
    if (edges[i].id.substr(0,4)=='edge') {
      edges[i].setAttribute('class','edge');
    }
  }
}
]]></script>
        <defs>
                <circle id="rim" cx="0" cy="0" r="7"/>
                <circle id="rim2" cx="0" cy="0" r="3.5"/>
                <g id="zoomPlus">
                        <use xlink:href="#rim" fill="#404040">
                                <set attributeName="fill" to="#808080" begin="zoomplus.mouseover" end="zoomplus.mouseout"/>
                        </use>
                        <path d="M-4,0h8M0,-4v8" fill="none" stroke="white" stroke-width="1.5" pointer-events="none"/>
                </g>
                <g id="zoomMin">
                        <use xlink:href="#rim" fill="#404040">
                                <set attributeName="fill" to="#808080" begin="zoomminus.mouseover" end="zoomminus.mouseout"/>
                        </use>
                        <path d="M-4,0h8" fill="none" stroke="white" stroke-width="1.5" pointer-events="none"/>
                </g>
                <g id="dirArrow">
                        <path fill="none" stroke="white" stroke-width="1.5" d="M0,-3.0v7 M-2.5,-0.5L0,-3.0L2.5,-0.5"/>
                </g>
               <g id="resetDef">
                       <use xlink:href="#rim2" fill="#404040">
                               <set attributeName="fill" to="#808080" begin="reset.mouseover" end="reset.mouseout"/>
                       </use>
               </g>
        </defs>

<script type="text/javascript">
var viewWidth = 1177;
var viewHeight = 554;
var sectionId = 'dynsection-8';
</script>
<script xlink:href="../../svgpan.js"/>
<svg id="graph" class="graph">
<g id="viewport">
<title>TLevelReader::ReadInt</title>
<!-- Node1 -->
<g id="node1" class="node">
<title>Node1</title>
<g id="a_node1"><a xlink:title=" ">
<polygon fill="#999999" stroke="#666666" points="1169,-245 1042,-245 1042,-226 1169,-226 1169,-245"/>
<text text-anchor="middle" x="1105.5" y="-233" font-family="Helvetica,sans-Serif" font-size="10.00">TLevelReader::ReadInt</text>
</a>
</g>
</g>
<!-- Node2 -->
<g id="node2" class="node">
<title>Node2</title>
<g id="a_node2"><a xlink:href="../../d5/d99/classTLevelReader.html#ac28bf996f8431c89710180136c30c180" target="_top" xlink:title=" ">
<polygon fill="white" stroke="#666666" points="976.5,-321 838.5,-321 838.5,-302 976.5,-302 976.5,-321"/>
<text text-anchor="middle" x="907.5" y="-309" font-family="Helvetica,sans-Serif" font-size="10.00">TLevelReader::ReadBase</text>
</a>
</g>
</g>
<!-- Node1&#45;&gt;Node2 -->
<g id="edge1" class="edge">
<title>Node1&#45;&gt;Node2</title>
<path fill="none" stroke="#63b8ff" d="M1080.57,-250.27C1061.08,-261.76 1032.56,-277.4 1006,-287.5 990.52,-293.39 973.1,-298.21 957.32,-301.95"/>
<polygon fill="#63b8ff" stroke="#63b8ff" points="1082.58,-253.14 1089.36,-245 1078.98,-247.14 1082.58,-253.14"/>
</g>
<!-- Node3 -->
<g id="node3" class="node">
<title>Node3</title>
<g id="a_node3"><a xlink:href="../../d5/d99/classTLevelReader.html#a5e3953bd0caf6e6c60d6750ff732150a" target="_top" xlink:title=" ">
<polygon fill="white" stroke="#666666" points="535,-342.5 383,-342.5 383,-312.5 535,-312.5 535,-342.5"/>
<text text-anchor="start" x="391" y="-330.5" font-family="Helvetica,sans-Serif" font-size="10.00">TLevelReader::ReadMission</text>
<text text-anchor="middle" x="459" y="-319.5" font-family="Helvetica,sans-Serif" font-size="10.00">InfoFromStream</text>
</a>
</g>
</g>
<!-- Node1&#45;&gt;Node3 -->
<g id="edge12" class="edge">
<title>Node1&#45;&gt;Node3</title>
<path fill="none" stroke="#63b8ff" d="M1092.43,-253.65C1076.01,-276.53 1044.24,-314.78 1006,-330.5 841.62,-398.09 625.13,-365.06 521.05,-342.55"/>
<polygon fill="#63b8ff" stroke="#63b8ff" points="1095.49,-255.37 1098.32,-245.16 1089.74,-251.38 1095.49,-255.37"/>
</g>
<!-- Node8 -->
<g id="node8" class="node">
<title>Node8</title>
<g id="a_node8"><a xlink:href="../../d5/d99/classTLevelReader.html#a68c3199258c974d81e965a715a61e7e2" target="_top" xlink:title=" ">
<polygon fill="white" stroke="#666666" points="983.5,-423.5 831.5,-423.5 831.5,-393.5 983.5,-393.5 983.5,-423.5"/>
<text text-anchor="start" x="839.5" y="-411.5" font-family="Helvetica,sans-Serif" font-size="10.00">TLevelReader::ReadCapitan</text>
<text text-anchor="middle" x="907.5" y="-400.5" font-family="Helvetica,sans-Serif" font-size="10.00">Infos</text>
</a>
</g>
</g>
<!-- Node1&#45;&gt;Node8 -->
<g id="edge7" class="edge">
<title>Node1&#45;&gt;Node8</title>
<path fill="none" stroke="#63b8ff" d="M1096.64,-254.48C1082.88,-285.35 1051.52,-346.31 1006,-379.5 998.22,-385.17 989.34,-389.74 980.17,-393.42"/>
<polygon fill="#63b8ff" stroke="#63b8ff" points="1099.87,-255.82 1100.62,-245.25 1093.45,-253.04 1099.87,-255.82"/>
</g>
<!-- Node10 -->
<g id="node10" class="node">
<title>Node10</title>
<g id="a_node10"><a xlink:href="../../d5/d99/classTLevelReader.html#ac6e2fd6477af4205d0c85433bdb02985" target="_top" xlink:title=" ">
<polygon fill="white" stroke="#666666" points="973.5,-56 841.5,-56 841.5,-37 973.5,-37 973.5,-56"/>
<text text-anchor="middle" x="907.5" y="-44" font-family="Helvetica,sans-Serif" font-size="10.00">TLevelReader::ReadInts</text>
</a>
</g>
</g>
<!-- Node1&#45;&gt;Node10 -->
<g id="edge10" class="edge">
<title>Node1&#45;&gt;Node10</title>
<path fill="none" stroke="#63b8ff" d="M1099.2,-215.97C1088.3,-179.77 1059.75,-102.5 1006,-64.5 996.44,-57.74 985.08,-53.31 973.55,-50.43"/>
<polygon fill="#63b8ff" stroke="#63b8ff" points="1095.9,-217.15 1102.03,-225.8 1102.63,-215.22 1095.9,-217.15"/>
</g>
<!-- Node12 -->
<g id="node12" class="node">
<title>Node12</title>
<g id="a_node12"><a xlink:href="../../d5/d99/classTLevelReader.html#a98a8afd39b4ade7d9e3843a51109ea1d" target="_top" xlink:title=" ">
<polygon fill="white" stroke="#666666" points="991,-489 824,-489 824,-470 991,-470 991,-489"/>
<text text-anchor="middle" x="907.5" y="-477" font-family="Helvetica,sans-Serif" font-size="10.00">TLevelReader::ReadPirateBase</text>
</a>
</g>
</g>
<!-- Node1&#45;&gt;Node12 -->
<g id="edge13" class="edge">
<title>Node1&#45;&gt;Node12</title>
<path fill="none" stroke="#63b8ff" d="M1099.39,-254.94C1088.39,-293.45 1059.04,-380.22 1006,-432.5 987.93,-450.31 961.81,-462.4 941.15,-469.86"/>
<polygon fill="#63b8ff" stroke="#63b8ff" points="1102.84,-255.6 1102.12,-245.03 1096.09,-253.74 1102.84,-255.6"/>
</g>
<!-- Node13 -->
<g id="node13" class="node">
<title>Node13</title>
<g id="a_node13"><a xlink:href="../../d5/d99/classTLevelReader.html#ae7a5a65dfddd9c939dbdf18846054725" target="_top" xlink:title=" ">
<polygon fill="white" stroke="#666666" points="743.5,-537.5 600.5,-537.5 600.5,-507.5 743.5,-507.5 743.5,-537.5"/>
<text text-anchor="start" x="608.5" y="-525.5" font-family="Helvetica,sans-Serif" font-size="10.00">TLevelReader::ReadPirate</text>
<text text-anchor="middle" x="672" y="-514.5" font-family="Helvetica,sans-Serif" font-size="10.00">Bases</text>
</a>
</g>
</g>
<!-- Node1&#45;&gt;Node13 -->
<g id="edge18" class="edge">
<title>Node1&#45;&gt;Node13</title>
<path fill="none" stroke="#63b8ff" d="M1103.88,-255.16C1101.13,-305.36 1086.23,-438.49 1006,-498.5 929.99,-555.35 814.98,-549.29 741.95,-537.54"/>
<polygon fill="#63b8ff" stroke="#63b8ff" points="1107.38,-255.16 1104.33,-245.02 1100.39,-254.85 1107.38,-255.16"/>
</g>
<!-- Node16 -->
<g id="node16" class="node">
<title>Node16</title>
<g id="a_node16"><a xlink:href="../../d5/d99/classTLevelReader.html#a111bc6a9c4250c31a0689e62f7113254" target="_top" xlink:title=" ">
<polygon fill="white" stroke="#666666" points="975,-245 840,-245 840,-226 975,-226 975,-245"/>
<text text-anchor="middle" x="907.5" y="-233" font-family="Helvetica,sans-Serif" font-size="10.00">TLevelReader::ReadShip</text>
</a>
</g>
</g>
<!-- Node1&#45;&gt;Node16 -->
<g id="edge19" class="edge">
<title>Node1&#45;&gt;Node16</title>
<path fill="none" stroke="#63b8ff" d="M1031.8,-235.5C1013.26,-235.5 993.42,-235.5 975.2,-235.5"/>
<polygon fill="#63b8ff" stroke="#63b8ff" points="1031.95,-239 1041.95,-235.5 1031.95,-232 1031.95,-239"/>
</g>
<!-- Node17 -->
<g id="node17" class="node">
<title>Node17</title>
<g id="a_node17"><a xlink:href="../../d5/d99/classTLevelReader.html#a06cbe367f372ca443af250d9c581b58b" target="_top" xlink:title=" ">
<polygon fill="white" stroke="#666666" points="742,-262 602,-262 602,-243 742,-243 742,-262"/>
<text text-anchor="middle" x="672" y="-250" font-family="Helvetica,sans-Serif" font-size="10.00">TLevelReader::ReadShips</text>
</a>
</g>
</g>
<!-- Node1&#45;&gt;Node17 -->
<g id="edge24" class="edge">
<title>Node1&#45;&gt;Node17</title>
<path fill="none" stroke="#63b8ff" d="M1054.59,-247.04C1039.11,-250.1 1021.93,-252.98 1006,-254.5 915.07,-263.19 809.53,-260.39 742.06,-256.98"/>
<polygon fill="#63b8ff" stroke="#63b8ff" points="1055.4,-250.45 1064.5,-245.01 1054,-243.59 1055.4,-250.45"/>
</g>
<!-- Node20 -->
<g id="node20" class="node">
<title>Node20</title>
<g id="a_node20"><a xlink:href="../../d5/d99/classTLevelReader.html#a392f8ceec89e3ff9f3f87ea030c117d6" target="_top" xlink:title=" ">
<polygon fill="white" stroke="#666666" points="1006,-169 809,-169 809,-150 1006,-150 1006,-169"/>
<text text-anchor="middle" x="907.5" y="-157" font-family="Helvetica,sans-Serif" font-size="10.00">TLevelReader::ReadSpawnDescriptor</text>
</a>
</g>
</g>
<!-- Node1&#45;&gt;Node20 -->
<g id="edge25" class="edge">
<title>Node1&#45;&gt;Node20</title>
<path fill="none" stroke="#63b8ff" d="M1080.57,-220.73C1061.08,-209.24 1032.56,-193.6 1006,-183.5 990.52,-177.61 973.1,-172.79 957.32,-169.05"/>
<polygon fill="#63b8ff" stroke="#63b8ff" points="1078.98,-223.86 1089.36,-226 1082.58,-217.86 1078.98,-223.86"/>
</g>
<!-- Node21 -->
<g id="node21" class="node">
<title>Node21</title>
<g id="a_node21"><a xlink:href="../../d5/d99/classTLevelReader.html#a6e0d6c10291d52c31f5c22b8673dbb98" target="_top" xlink:title=" ">
<polygon fill="white" stroke="#666666" points="773,-188 571,-188 571,-169 773,-169 773,-188"/>
<text text-anchor="middle" x="672" y="-176" font-family="Helvetica,sans-Serif" font-size="10.00">TLevelReader::ReadSpawnDescriptors</text>
</a>
</g>
</g>
<!-- Node1&#45;&gt;Node21 -->
<g id="edge30" class="edge">
<title>Node1&#45;&gt;Node21</title>
<path fill="none" stroke="#63b8ff" d="M1046.11,-224.19C1032.95,-221.82 1019.01,-219.45 1006,-217.5 926.13,-205.54 835.02,-195.09 768.31,-188.02"/>
<polygon fill="#63b8ff" stroke="#63b8ff" points="1045.54,-227.64 1056.01,-226 1046.8,-220.76 1045.54,-227.64"/>
</g>
<!-- Node24 -->
<g id="node24" class="node">
<title>Node24</title>
<g id="a_node24"><a xlink:href="../../d5/d99/classTLevelReader.html#ad7b63a611a8e08c9d9b38ee2972c82fc" target="_top" xlink:title=" ">
<polygon fill="white" stroke="#666666" points="984,-93 831,-93 831,-74 984,-74 984,-93"/>
<text text-anchor="middle" x="907.5" y="-81" font-family="Helvetica,sans-Serif" font-size="10.00">TLevelReader::ReadWeapon</text>
</a>
</g>
</g>
<!-- Node1&#45;&gt;Node24 -->
<g id="edge31" class="edge">
<title>Node1&#45;&gt;Node24</title>
<path fill="none" stroke="#63b8ff" d="M1095.2,-216.44C1080.38,-188.14 1048.67,-135.34 1006,-107.5 996.29,-101.17 985.05,-96.5 973.72,-93.07"/>
<polygon fill="#63b8ff" stroke="#63b8ff" points="1092.24,-218.34 1099.89,-225.67 1098.48,-215.17 1092.24,-218.34"/>
</g>
<!-- Node25 -->
<g id="node25" class="node">
<title>Node25</title>
<g id="a_node25"><a xlink:href="../../d5/d99/classTLevelReader.html#a4467cdf7d7766981a6b8eeb23076b433" target="_top" xlink:title=" ">
<polygon fill="white" stroke="#666666" points="751,-114 593,-114 593,-95 751,-95 751,-114"/>
<text text-anchor="middle" x="672" y="-102" font-family="Helvetica,sans-Serif" font-size="10.00">TLevelReader::ReadWeapons</text>
</a>
</g>
</g>
<!-- Node1&#45;&gt;Node25 -->
<g id="edge36" class="edge">
<title>Node1&#45;&gt;Node25</title>
<path fill="none" stroke="#63b8ff" d="M1091.88,-217.77C1075.07,-195.7 1043.09,-158.8 1006,-141.5 962.24,-121.1 835.22,-111.6 751.31,-107.44"/>
<polygon fill="#63b8ff" stroke="#63b8ff" points="1089.18,-220 1097.94,-225.96 1094.81,-215.84 1089.18,-220"/>
</g>
<!-- Node28 -->
<g id="node28" class="node">
<title>Node28</title>
<g id="a_node28"><a xlink:href="../../df/dbf/TestTLevelReader_8cpp.html#a995a7e2b0d8407e28d6fa2a5cd0f849d" target="_top" xlink:title=" ">
<polygon fill="white" stroke="#666666" points="928,-19 887,-19 887,0 928,0 928,-19"/>
<text text-anchor="middle" x="907.5" y="-7" font-family="Helvetica,sans-Serif" font-size="10.00">TEST</text>
</a>
</g>
</g>
<!-- Node1&#45;&gt;Node28 -->
<g id="edge37" class="edge">
<title>Node1&#45;&gt;Node28</title>
<path fill="none" stroke="#63b8ff" d="M1101.26,-215.64C1093.31,-173.64 1068.67,-75.69 1006,-27.5 983.49,-10.19 949.49,-7.71 928.17,-8.14"/>
<polygon fill="#63b8ff" stroke="#63b8ff" points="1097.86,-216.47 1103.05,-225.71 1104.75,-215.25 1097.86,-216.47"/>
</g>
<!-- Node2&#45;&gt;Node3 -->
<g id="edge2" class="edge">
<title>Node2&#45;&gt;Node3</title>
<path fill="none" stroke="#63b8ff" d="M828.11,-314.31C745.5,-317.27 616.32,-321.9 535,-324.81"/>
<polygon fill="#63b8ff" stroke="#63b8ff" points="828.33,-317.8 838.2,-313.95 828.08,-310.81 828.33,-317.8"/>
</g>
<!-- Node7 -->
<g id="node7" class="node">
<title>Node7</title>
<g id="a_node7"><a xlink:href="../../df/dbf/TestTLevelReader_8cpp.html#acf4d4d465fbfa2f3e33843debed606aa" target="_top" xlink:title=" ">
<polygon fill="white" stroke="#666666" points="692.5,-299 651.5,-299 651.5,-280 692.5,-280 692.5,-299"/>
<text text-anchor="middle" x="672" y="-287" font-family="Helvetica,sans-Serif" font-size="10.00">TEST</text>
</a>
</g>
</g>
<!-- Node2&#45;&gt;Node7 -->
<g id="edge6" class="edge">
<title>Node2&#45;&gt;Node7</title>
<path fill="none" stroke="#63b8ff" d="M828.24,-304.13C780.15,-299.6 722.26,-294.14 692.6,-291.35"/>
<polygon fill="#63b8ff" stroke="#63b8ff" points="828.05,-307.62 838.33,-305.08 828.71,-300.65 828.05,-307.62"/>
</g>
<!-- Node4 -->
<g id="node4" class="node">
<title>Node4</title>
<g id="a_node4"><a xlink:href="../../d2/dc1/classTLevelSelector.html#a1ce3be0dec7c17d6674837ff8742d5ee" target="_top" xlink:title=" ">
<polygon fill="white" stroke="#666666" points="347,-363.5 193,-363.5 193,-333.5 347,-333.5 347,-363.5"/>
<text text-anchor="start" x="201" y="-351.5" font-family="Helvetica,sans-Serif" font-size="10.00">TLevelSelector::readMission</text>
<text text-anchor="middle" x="270" y="-340.5" font-family="Helvetica,sans-Serif" font-size="10.00">InfoFromStream</text>
</a>
</g>
</g>
<!-- Node3&#45;&gt;Node4 -->
<g id="edge3" class="edge">
<title>Node3&#45;&gt;Node4</title>
<path fill="none" stroke="#63b8ff" d="M372.74,-337.07C364.16,-338.04 355.49,-339.01 347.01,-339.96"/>
<polygon fill="#63b8ff" stroke="#63b8ff" points="373.2,-340.54 382.75,-335.95 372.42,-333.59 373.2,-340.54"/>
</g>
<!-- Node6 -->
<g id="node6" class="node">
<title>Node6</title>
<g id="a_node6"><a xlink:href="../../df/dbf/TestTLevelReader_8cpp.html#a5b89023c1d74cccde2a4947bc710cd5b" target="_top" xlink:title=" ">
<polygon fill="white" stroke="#666666" points="290.5,-315 249.5,-315 249.5,-296 290.5,-296 290.5,-315"/>
<text text-anchor="middle" x="270" y="-303" font-family="Helvetica,sans-Serif" font-size="10.00">TEST</text>
</a>
</g>
</g>
<!-- Node3&#45;&gt;Node6 -->
<g id="edge5" class="edge">
<title>Node3&#45;&gt;Node6</title>
<path fill="none" stroke="#63b8ff" d="M372.46,-317.44C341.95,-313.85 310.29,-310.12 290.63,-307.81"/>
<polygon fill="#63b8ff" stroke="#63b8ff" points="372.41,-320.95 382.75,-318.65 373.23,-314 372.41,-320.95"/>
</g>
<!-- Node5 -->
<g id="node5" class="node">
<title>Node5</title>
<g id="a_node5"><a xlink:href="../../d2/dc1/classTLevelSelector.html#a8052aa13fccc78befaf7cd0cc95fbe97" target="_top" xlink:title=" ">
<polygon fill="white" stroke="#666666" points="157,-358 0,-358 0,-339 157,-339 157,-358"/>
<text text-anchor="middle" x="78.5" y="-346" font-family="Helvetica,sans-Serif" font-size="10.00">TLevelSelector::ChooseLevel</text>
</a>
</g>
</g>
<!-- Node4&#45;&gt;Node5 -->
<g id="edge4" class="edge">
<title>Node4&#45;&gt;Node5</title>
<path fill="none" stroke="#63b8ff" d="M182.49,-348.5C174.04,-348.5 165.5,-348.5 157.15,-348.5"/>
<polygon fill="#63b8ff" stroke="#63b8ff" points="182.74,-352 192.74,-348.5 182.74,-345 182.74,-352"/>
</g>
<!-- Node8&#45;&gt;Node3 -->
<g id="edge8" class="edge">
<title>Node8&#45;&gt;Node3</title>
<path fill="none" stroke="#63b8ff" d="M841.11,-425.74C771.76,-440.76 660.13,-455.43 571,-422.5 527.7,-406.5 489.86,-365.23 471.61,-342.71"/>
<polygon fill="#63b8ff" stroke="#63b8ff" points="842.03,-429.13 851.03,-423.53 840.5,-422.29 842.03,-429.13"/>
</g>
<!-- Node9 -->
<g id="node9" class="node">
<title>Node9</title>
<g id="a_node9"><a xlink:href="../../df/dbf/TestTLevelReader_8cpp.html#a24daca223446d45d535988669914051e" target="_top" xlink:title=" ">
<polygon fill="white" stroke="#666666" points="692.5,-413 651.5,-413 651.5,-394 692.5,-394 692.5,-413"/>
<text text-anchor="middle" x="672" y="-401" font-family="Helvetica,sans-Serif" font-size="10.00">TEST</text>
</a>
</g>
</g>
<!-- Node8&#45;&gt;Node9 -->
<g id="edge9" class="edge">
<title>Node8&#45;&gt;Node9</title>
<path fill="none" stroke="#63b8ff" d="M821.24,-406.67C774.8,-405.68 721.18,-404.53 692.88,-403.93"/>
<polygon fill="#63b8ff" stroke="#63b8ff" points="821.26,-410.18 831.33,-406.89 821.41,-403.18 821.26,-410.18"/>
</g>
<!-- Node11 -->
<g id="node11" class="node">
<title>Node11</title>
<g id="a_node11"><a xlink:href="../../df/dbf/TestTLevelReader_8cpp.html#a6c36f508b1750d59e3ab18b7a77174ea" target="_top" xlink:title=" ">
<polygon fill="white" stroke="#666666" points="692.5,-40 651.5,-40 651.5,-21 692.5,-21 692.5,-40"/>
<text text-anchor="middle" x="672" y="-28" font-family="Helvetica,sans-Serif" font-size="10.00">TEST</text>
</a>
</g>
</g>
<!-- Node10&#45;&gt;Node11 -->
<g id="edge11" class="edge">
<title>Node10&#45;&gt;Node11</title>
<path fill="none" stroke="#63b8ff" d="M831.26,-41.34C782.62,-38.01 722.92,-33.92 692.64,-31.85"/>
<polygon fill="#63b8ff" stroke="#63b8ff" points="831.24,-44.85 841.46,-42.04 831.72,-37.87 831.24,-44.85"/>
</g>
<!-- Node12&#45;&gt;Node13 -->
<g id="edge14" class="edge">
<title>Node12&#45;&gt;Node13</title>
<path fill="none" stroke="#63b8ff" d="M844.44,-490.93C813.45,-496.64 775.82,-503.57 743.72,-509.48"/>
<polygon fill="#63b8ff" stroke="#63b8ff" points="845.48,-494.3 854.68,-489.04 844.21,-487.41 845.48,-494.3"/>
</g>
<!-- Node15 -->
<g id="node15" class="node">
<title>Node15</title>
<g id="a_node15"><a xlink:href="../../df/dbf/TestTLevelReader_8cpp.html#a755cf3ec78fcb2c18a1579f855288e53" target="_top" xlink:title=" ">
<polygon fill="white" stroke="#666666" points="692.5,-489 651.5,-489 651.5,-470 692.5,-470 692.5,-489"/>
<text text-anchor="middle" x="672" y="-477" font-family="Helvetica,sans-Serif" font-size="10.00">TEST</text>
</a>
</g>
</g>
<!-- Node12&#45;&gt;Node15 -->
<g id="edge17" class="edge">
<title>Node12&#45;&gt;Node15</title>
<path fill="none" stroke="#63b8ff" d="M813.78,-479.5C768.96,-479.5 719.21,-479.5 692.5,-479.5"/>
<polygon fill="#63b8ff" stroke="#63b8ff" points="813.85,-483 823.85,-479.5 813.85,-476 813.85,-483"/>
</g>
<!-- Node13&#45;&gt;Node3 -->
<g id="edge15" class="edge">
<title>Node13&#45;&gt;Node3</title>
<path fill="none" stroke="#63b8ff" d="M590.65,-509.14C583.69,-506.26 577.01,-502.75 571,-498.5 513.19,-457.64 477.96,-376.25 465.31,-342.6"/>
<polygon fill="#63b8ff" stroke="#63b8ff" points="589.69,-512.52 600.29,-512.71 592.12,-505.96 589.69,-512.52"/>
</g>
<!-- Node14 -->
<g id="node14" class="node">
<title>Node14</title>
<g id="a_node14"><a xlink:href="../../df/dbf/TestTLevelReader_8cpp.html#ae486e71c128cb1945779cfcc50810a9e" target="_top" xlink:title=" ">
<polygon fill="white" stroke="#666666" points="479.5,-532 438.5,-532 438.5,-513 479.5,-513 479.5,-532"/>
<text text-anchor="middle" x="459" y="-520" font-family="Helvetica,sans-Serif" font-size="10.00">TEST</text>
</a>
</g>
</g>
<!-- Node13&#45;&gt;Node14 -->
<g id="edge16" class="edge">
<title>Node13&#45;&gt;Node14</title>
<path fill="none" stroke="#63b8ff" d="M590.37,-522.5C550.23,-522.5 504.99,-522.5 479.75,-522.5"/>
<polygon fill="#63b8ff" stroke="#63b8ff" points="590.45,-526 600.45,-522.5 590.45,-519 590.45,-526"/>
</g>
<!-- Node16&#45;&gt;Node17 -->
<g id="edge20" class="edge">
<title>Node16&#45;&gt;Node17</title>
<path fill="none" stroke="#63b8ff" d="M829.67,-241.09C801.43,-243.15 769.65,-245.46 742.13,-247.47"/>
<polygon fill="#63b8ff" stroke="#63b8ff" points="830.18,-244.57 839.9,-240.35 829.67,-237.58 830.18,-244.57"/>
</g>
<!-- Node19 -->
<g id="node19" class="node">
<title>Node19</title>
<g id="a_node19"><a xlink:href="../../df/dbf/TestTLevelReader_8cpp.html#a0b38a70622c5f89d667fa6639c424089" target="_top" xlink:title=" ">
<polygon fill="white" stroke="#666666" points="692.5,-225 651.5,-225 651.5,-206 692.5,-206 692.5,-225"/>
<text text-anchor="middle" x="672" y="-213" font-family="Helvetica,sans-Serif" font-size="10.00">TEST</text>
</a>
</g>
</g>
<!-- Node16&#45;&gt;Node19 -->
<g id="edge23" class="edge">
<title>Node16&#45;&gt;Node19</title>
<path fill="none" stroke="#63b8ff" d="M829.75,-228.93C781.38,-224.78 722.59,-219.75 692.62,-217.18"/>
<polygon fill="#63b8ff" stroke="#63b8ff" points="829.64,-232.43 839.9,-229.8 830.24,-225.45 829.64,-232.43"/>
</g>
<!-- Node17&#45;&gt;Node3 -->
<g id="edge21" class="edge">
<title>Node17&#45;&gt;Node3</title>
<path fill="none" stroke="#63b8ff" d="M596.5,-264.26C587.81,-266.33 579.15,-268.73 571,-271.5 540.14,-281.98 507.07,-299.58 485.13,-312.26"/>
<polygon fill="#63b8ff" stroke="#63b8ff" points="597.31,-267.66 606.3,-262.05 595.77,-260.83 597.31,-267.66"/>
</g>
<!-- Node18 -->
<g id="node18" class="node">
<title>Node18</title>
<g id="a_node18"><a xlink:href="../../df/dbf/TestTLevelReader_8cpp.html#ae1685fd5cbbb95637c7623fffb0a0a7f" target="_top" xlink:title=" ">
<polygon fill="white" stroke="#666666" points="479.5,-262 438.5,-262 438.5,-243 479.5,-243 479.5,-262"/>
<text text-anchor="middle" x="459" y="-250" font-family="Helvetica,sans-Serif" font-size="10.00">TEST</text>
</a>
</g>
</g>
<!-- Node17&#45;&gt;Node18 -->
<g id="edge22" class="edge">
<title>Node17&#45;&gt;Node18</title>
<path fill="none" stroke="#63b8ff" d="M591.73,-252.5C551.16,-252.5 505.07,-252.5 479.58,-252.5"/>
<polygon fill="#63b8ff" stroke="#63b8ff" points="591.91,-256 601.91,-252.5 591.91,-249 591.91,-256"/>
</g>
<!-- Node20&#45;&gt;Node21 -->
<g id="edge26" class="edge">
<title>Node20&#45;&gt;Node21</title>
<path fill="none" stroke="#63b8ff" d="M798.59,-168.28C790.16,-168.97 781.66,-169.66 773.28,-170.34"/>
<polygon fill="#63b8ff" stroke="#63b8ff" points="799.14,-171.75 808.83,-167.45 798.58,-164.77 799.14,-171.75"/>
</g>
<!-- Node23 -->
<g id="node23" class="node">
<title>Node23</title>
<g id="a_node23"><a xlink:href="../../df/dbf/TestTLevelReader_8cpp.html#a7345c8c1666adc3189772b4d8c854505" target="_top" xlink:title=" ">
<polygon fill="white" stroke="#666666" points="692.5,-151 651.5,-151 651.5,-132 692.5,-132 692.5,-151"/>
<text text-anchor="middle" x="672" y="-139" font-family="Helvetica,sans-Serif" font-size="10.00">TEST</text>
</a>
</g>
</g>
<!-- Node20&#45;&gt;Node23 -->
<g id="edge29" class="edge">
<title>Node20&#45;&gt;Node23</title>
<path fill="none" stroke="#63b8ff" d="M798.64,-151.19C758.4,-148.08 716.74,-144.87 692.94,-143.04"/>
<polygon fill="#63b8ff" stroke="#63b8ff" points="798.59,-154.69 808.83,-151.97 799.13,-147.71 798.59,-154.69"/>
</g>
<!-- Node21&#45;&gt;Node3 -->
<g id="edge27" class="edge">
<title>Node21&#45;&gt;Node3</title>
<path fill="none" stroke="#63b8ff" d="M577.98,-192.8C575.56,-194.23 573.23,-195.8 571,-197.5 541.95,-219.72 558.31,-243.32 535,-271.5 521.33,-288.03 501.82,-302.4 486.12,-312.45"/>
<polygon fill="#63b8ff" stroke="#63b8ff" points="579.78,-195.81 587.08,-188.13 576.59,-189.58 579.78,-195.81"/>
</g>
<!-- Node22 -->
<g id="node22" class="node">
<title>Node22</title>
<g id="a_node22"><a xlink:href="../../df/dbf/TestTLevelReader_8cpp.html#a3d91a40a002dd06ad7a815653e1c1bfd" target="_top" xlink:title=" ">
<polygon fill="white" stroke="#666666" points="479.5,-188 438.5,-188 438.5,-169 479.5,-169 479.5,-188"/>
<text text-anchor="middle" x="459" y="-176" font-family="Helvetica,sans-Serif" font-size="10.00">TEST</text>
</a>
</g>
</g>
<!-- Node21&#45;&gt;Node22 -->
<g id="edge28" class="edge">
<title>Node21&#45;&gt;Node22</title>
<path fill="none" stroke="#63b8ff" d="M560.59,-178.5C529.31,-178.5 498.6,-178.5 479.51,-178.5"/>
<polygon fill="#63b8ff" stroke="#63b8ff" points="560.75,-182 570.75,-178.5 560.75,-175 560.75,-182"/>
</g>
<!-- Node24&#45;&gt;Node25 -->
<g id="edge32" class="edge">
<title>Node24&#45;&gt;Node25</title>
<path fill="none" stroke="#63b8ff" d="M820.72,-91.21C797.98,-93.26 773.55,-95.46 751.24,-97.46"/>
<polygon fill="#63b8ff" stroke="#63b8ff" points="821.04,-94.7 830.69,-90.32 820.42,-87.73 821.04,-94.7"/>
</g>
<!-- Node27 -->
<g id="node27" class="node">
<title>Node27</title>
<g id="a_node27"><a xlink:href="../../df/dbf/TestTLevelReader_8cpp.html#aa7b57f5c4f46491ed887d757af6cf774" target="_top" xlink:title=" ">
<polygon fill="white" stroke="#666666" points="692.5,-77 651.5,-77 651.5,-58 692.5,-58 692.5,-77"/>
<text text-anchor="middle" x="672" y="-65" font-family="Helvetica,sans-Serif" font-size="10.00">TEST</text>
</a>
</g>
</g>
<!-- Node24&#45;&gt;Node27 -->
<g id="edge35" class="edge">
<title>Node24&#45;&gt;Node27</title>
<path fill="none" stroke="#63b8ff" d="M820.61,-77.61C774.25,-74.44 720.9,-70.78 692.76,-68.85"/>
<polygon fill="#63b8ff" stroke="#63b8ff" points="820.47,-81.11 830.69,-78.31 820.95,-74.13 820.47,-81.11"/>
</g>
<!-- Node25&#45;&gt;Node3 -->
<g id="edge33" class="edge">
<title>Node25&#45;&gt;Node3</title>
<path fill="none" stroke="#63b8ff" d="M583.72,-114.28C579.12,-116.82 574.82,-119.86 571,-123.5 521.93,-170.14 572.33,-215.02 535,-271.5 523.62,-288.72 505.07,-302.63 489.27,-312.29"/>
<polygon fill="#63b8ff" stroke="#63b8ff" points="585.33,-117.39 592.9,-109.98 582.36,-111.05 585.33,-117.39"/>
</g>
<!-- Node26 -->
<g id="node26" class="node">
<title>Node26</title>
<g id="a_node26"><a xlink:href="../../df/dbf/TestTLevelReader_8cpp.html#a5d44caed3904c1ef6c734477bed059f0" target="_top" xlink:title=" ">
<polygon fill="white" stroke="#666666" points="479.5,-114 438.5,-114 438.5,-95 479.5,-95 479.5,-114"/>
<text text-anchor="middle" x="459" y="-102" font-family="Helvetica,sans-Serif" font-size="10.00">TEST</text>
</a>
</g>
</g>
<!-- Node25&#45;&gt;Node26 -->
<g id="edge34" class="edge">
<title>Node25&#45;&gt;Node26</title>
<path fill="none" stroke="#63b8ff" d="M582.58,-104.5C544.4,-104.5 503.16,-104.5 479.57,-104.5"/>
<polygon fill="#63b8ff" stroke="#63b8ff" points="582.73,-108 592.73,-104.5 582.73,-101 582.73,-108"/>
</g>
</g>
</svg>
        <g id="navigator" transform="translate(0 0)" fill="#404254">
                <rect fill="#f2f5e9" fill-opacity="0.5" stroke="#606060" stroke-width=".5" x="0" y="0" width="60" height="60"/>
                <use id="zoomplus" xlink:href="#zoomPlus" x="17" y="9" onmousedown="handleZoom(evt,'in')"/>
                <use id="zoomminus" xlink:href="#zoomMin" x="42" y="9" onmousedown="handleZoom(evt,'out')"/>
                <use id="reset" xlink:href="#resetDef" x="30" y="36" onmousedown="handleReset()"/>
                <g id="arrowUp" xlink:href="#dirArrow" transform="translate(30 24)" onmousedown="handlePan(0,-1)">
                  <use xlink:href="#rim" fill="#404040">
                        <set attributeName="fill" to="#808080" begin="arrowUp.mouseover" end="arrowUp.mouseout"/>
                  </use>
                  <path fill="none" stroke="white" stroke-width="1.5" d="M0,-3.0v7 M-2.5,-0.5L0,-3.0L2.5,-0.5"/>
                </g>
                <g id="arrowRight" xlink:href="#dirArrow" transform="rotate(90) translate(36 -43)" onmousedown="handlePan(1,0)">
                  <use xlink:href="#rim" fill="#404040">
                        <set attributeName="fill" to="#808080" begin="arrowRight.mouseover" end="arrowRight.mouseout"/>
                  </use>
                  <path fill="none" stroke="white" stroke-width="1.5" d="M0,-3.0v7 M-2.5,-0.5L0,-3.0L2.5,-0.5"/>
                </g>
                <g id="arrowDown" xlink:href="#dirArrow" transform="rotate(180) translate(-30 -48)" onmousedown="handlePan(0,1)">
                  <use xlink:href="#rim" fill="#404040">
                        <set attributeName="fill" to="#808080" begin="arrowDown.mouseover" end="arrowDown.mouseout"/>
                  </use>
                  <path fill="none" stroke="white" stroke-width="1.5" d="M0,-3.0v7 M-2.5,-0.5L0,-3.0L2.5,-0.5"/>
                </g>
                <g id="arrowLeft" xlink:href="#dirArrow" transform="rotate(270) translate(-36 17)" onmousedown="handlePan(-1,0)">
                  <use xlink:href="#rim" fill="#404040">
                        <set attributeName="fill" to="#808080" begin="arrowLeft.mouseover" end="arrowLeft.mouseout"/>
                  </use>
                  <path fill="none" stroke="white" stroke-width="1.5" d="M0,-3.0v7 M-2.5,-0.5L0,-3.0L2.5,-0.5"/>
                </g>
        </g>
        <svg viewBox="0 0 15 15" width="100%" height="30px" preserveAspectRatio="xMaxYMin meet">
         <g id="arrow_out" transform="scale(0.3 0.3)">
          <a xlink:href="classTLevelReader_a82ec22fb9386deb547a0a0862bc90301_icgraph_org.svg" target="_base">
           <rect id="button" ry="5" rx="5" y="6" x="6" height="38" width="38"
                fill="#f2f5e9" fill-opacity="0.5" stroke="#606060" stroke-width="1.0"/>
           <path id="arrow"
             d="M 11.500037,31.436501 C 11.940474,20.09759 22.043105,11.32322 32.158766,21.979434 L 37.068811,17.246167 C 37.068811,17.246167 37.088388,32 37.088388,32 L 22.160133,31.978069 C 22.160133,31.978069 26.997745,27.140456 26.997745,27.140456 C 18.528582,18.264221 13.291696,25.230495 11.500037,31.436501 z"
             style="fill:#404040;"/>
          </a>
         </g>
        </svg>
</svg>
