<?xml version="1.0" encoding="UTF-8" standalone="no"?>
<!DOCTYPE svg PUBLIC "-//W3C//DTD SVG 1.1//EN"
 "http://www.w3.org/Graphics/SVG/1.1/DTD/svg11.dtd">
<!-- Generated by graphviz version 2.43.0 (0)
 -->
<!-- Title: TEST Pages: 1 -->
<svg width="204pt" height="138pt"
 viewBox="0.00 0.00 204.00 138.00" xmlns="http://www.w3.org/2000/svg" xmlns:xlink="http://www.w3.org/1999/xlink">
<g id="graph0" class="graph" transform="scale(1 1) rotate(0) translate(4 134)">
<title>TEST</title>
<!-- Node1 -->
<g id="node1" class="node">
<title>Node1</title>
<g id="a_node1"><a xlink:title=" ">
<polygon fill="#999999" stroke="#666666" points="41,-74 0,-74 0,-55 41,-55 41,-74"/>
<text text-anchor="middle" x="20.5" y="-62" font-family="Helvetica,sans-Serif" font-size="10.00">TEST</text>
</a>
</g>
</g>
<!-- Node2 -->
<g id="node2" class="node">
<title>Node2</title>
<g id="a_node2"><a xlink:href="../../d5/d55/classTObjectOnMap.html#a55207fb8607d587b3578745bc1062b17" target="_top" xlink:title=" ">
<polygon fill="white" stroke="#666666" points="196,-130 77,-130 77,-111 196,-111 196,-130"/>
<text text-anchor="middle" x="136.5" y="-118" font-family="Helvetica,sans-Serif" font-size="10.00">TObjectOnMap::GetX</text>
</a>
</g>
</g>
<!-- Node1&#45;&gt;Node2 -->
<g id="edge1" class="edge">
<title>Node1&#45;&gt;Node2</title>
<path fill="none" stroke="#63b8ff" d="M33.2,-74.07C44.01,-82.52 60.8,-94.69 77,-102.5 80.77,-104.32 84.76,-106 88.82,-107.55"/>
<polygon fill="#63b8ff" stroke="#63b8ff" points="87.75,-110.88 98.34,-110.92 90.08,-104.28 87.75,-110.88"/>
</g>
<!-- Node3 -->
<g id="node3" class="node">
<title>Node3</title>
<g id="a_node3"><a xlink:href="../../d5/d55/classTObjectOnMap.html#a4ef34ec3dde1bc159678f57aa463c972" target="_top" xlink:title=" ">
<polygon fill="white" stroke="#666666" points="195.5,-93 77.5,-93 77.5,-74 195.5,-74 195.5,-93"/>
<text text-anchor="middle" x="136.5" y="-81" font-family="Helvetica,sans-Serif" font-size="10.00">TObjectOnMap::GetY</text>
</a>
</g>
</g>
<!-- Node1&#45;&gt;Node3 -->
<g id="edge2" class="edge">
<title>Node1&#45;&gt;Node3</title>
<path fill="none" stroke="#63b8ff" d="M41.1,-67.77C48.93,-69.07 58.44,-70.66 68.38,-72.31"/>
<polygon fill="#63b8ff" stroke="#63b8ff" points="67.98,-75.79 78.42,-73.99 69.13,-68.89 67.98,-75.79"/>
</g>
<!-- Node4 -->
<g id="node4" class="node">
<title>Node4</title>
<g id="a_node4"><a xlink:href="../../d5/d55/classTObjectOnMap.html#a6ac7843a5010f103e09a0098f4a0ca73" target="_top" xlink:title=" ">
<polygon fill="white" stroke="#666666" points="195,-56 78,-56 78,-37 195,-37 195,-56"/>
<text text-anchor="middle" x="136.5" y="-44" font-family="Helvetica,sans-Serif" font-size="10.00">TObjectOnMap::SetX</text>
</a>
</g>
</g>
<!-- Node1&#45;&gt;Node4 -->
<g id="edge3" class="edge">
<title>Node1&#45;&gt;Node4</title>
<path fill="none" stroke="#63b8ff" d="M41.1,-61.41C48.83,-60.18 58.21,-58.7 68.02,-57.15"/>
<polygon fill="#63b8ff" stroke="#63b8ff" points="68.6,-60.61 77.93,-55.59 67.5,-53.69 68.6,-60.61"/>
</g>
<!-- Node5 -->
<g id="node5" class="node">
<title>Node5</title>
<g id="a_node5"><a xlink:href="../../d5/d55/classTObjectOnMap.html#a527b67fe12c7789343c6f5ed21009d5d" target="_top" xlink:title=" ">
<polygon fill="white" stroke="#666666" points="194.5,-19 78.5,-19 78.5,0 194.5,0 194.5,-19"/>
<text text-anchor="middle" x="136.5" y="-7" font-family="Helvetica,sans-Serif" font-size="10.00">TObjectOnMap::SetY</text>
</a>
</g>
</g>
<!-- Node1&#45;&gt;Node5 -->
<g id="edge4" class="edge">
<title>Node1&#45;&gt;Node5</title>
<path fill="none" stroke="#63b8ff" d="M34.17,-54.91C45.07,-47 61.45,-35.91 77,-28.5 81.58,-26.32 86.48,-24.29 91.42,-22.43"/>
<polygon fill="#63b8ff" stroke="#63b8ff" points="92.63,-25.72 100.89,-19.09 90.29,-19.12 92.63,-25.72"/>
</g>
</g>
</svg>
