<?xml version="1.0" encoding="UTF-8" standalone="no"?>
<!DOCTYPE svg PUBLIC "-//W3C//DTD SVG 1.1//EN"
 "http://www.w3.org/Graphics/SVG/1.1/DTD/svg11.dtd">
<!-- Generated by graphviz version 2.43.0 (0)
 -->
<!-- Title: code/weapons/code/TWeaponHolder.h Pages: 1 -->
<svg width="370pt" height="104pt"
 viewBox="0.00 0.00 369.50 104.00" xmlns="http://www.w3.org/2000/svg" xmlns:xlink="http://www.w3.org/1999/xlink">
<g id="graph0" class="graph" transform="scale(1 1) rotate(0) translate(4 100)">
<title>code/weapons/code/TWeaponHolder.h</title>
<!-- Node1 -->
<g id="node1" class="node">
<title>Node1</title>
<g id="a_node1"><a xlink:title=" ">
<polygon fill="#999999" stroke="#666666" points="233.5,-96 72.5,-96 72.5,-66 233.5,-66 233.5,-96"/>
<text text-anchor="start" x="80.5" y="-84" font-family="Helvetica,sans-Serif" font-size="10.00">code/weapons/code/TWeapon</text>
<text text-anchor="middle" x="153" y="-73" font-family="Helvetica,sans-Serif" font-size="10.00">Holder.h</text>
</a>
</g>
</g>
<!-- Node2 -->
<g id="node2" class="node">
<title>Node2</title>
<g id="a_node2"><a xlink:title=" ">
<polygon fill="#e0e0e0" stroke="#999999" points="58,-24.5 0,-24.5 0,-5.5 58,-5.5 58,-24.5"/>
<text text-anchor="middle" x="29" y="-12.5" font-family="Helvetica,sans-Serif" font-size="10.00">memory</text>
</a>
</g>
</g>
<!-- Node1&#45;&gt;Node2 -->
<g id="edge1" class="edge">
<title>Node1&#45;&gt;Node2</title>
<path fill="none" stroke="#63b8ff" d="M125.79,-65.95C104.52,-54.98 75.18,-39.83 54.39,-29.11"/>
<polygon fill="#63b8ff" stroke="#63b8ff" points="55.99,-25.99 45.5,-24.52 52.78,-32.21 55.99,-25.99"/>
</g>
<!-- Node3 -->
<g id="node3" class="node">
<title>Node3</title>
<g id="a_node3"><a xlink:title=" ">
<polygon fill="#e0e0e0" stroke="#999999" points="123.5,-24.5 76.5,-24.5 76.5,-5.5 123.5,-5.5 123.5,-24.5"/>
<text text-anchor="middle" x="100" y="-12.5" font-family="Helvetica,sans-Serif" font-size="10.00">vector</text>
</a>
</g>
</g>
<!-- Node1&#45;&gt;Node3 -->
<g id="edge2" class="edge">
<title>Node1&#45;&gt;Node3</title>
<path fill="none" stroke="#63b8ff" d="M141.24,-65.8C133.14,-56.01 122.34,-42.98 113.83,-32.7"/>
<polygon fill="#63b8ff" stroke="#63b8ff" points="116.4,-30.31 107.32,-24.84 111.01,-34.78 116.4,-30.31"/>
</g>
<!-- Node4 -->
<g id="node4" class="node">
<title>Node4</title>
<g id="a_node4"><a xlink:href="../../d8/d66/enum__place__on__ship_8h.html" target="_top" xlink:title=" ">
<polygon fill="white" stroke="#666666" points="272,-30 142,-30 142,0 272,0 272,-30"/>
<text text-anchor="start" x="150" y="-18" font-family="Helvetica,sans-Serif" font-size="10.00">../../enums/enum_place</text>
<text text-anchor="middle" x="207" y="-7" font-family="Helvetica,sans-Serif" font-size="10.00">_on_ship.h</text>
</a>
</g>
</g>
<!-- Node1&#45;&gt;Node4 -->
<g id="edge3" class="edge">
<title>Node1&#45;&gt;Node4</title>
<path fill="none" stroke="#63b8ff" d="M164.98,-65.8C171.91,-57.59 180.76,-47.1 188.55,-37.87"/>
<polygon fill="#63b8ff" stroke="#63b8ff" points="191.28,-40.06 195.05,-30.16 185.93,-35.55 191.28,-40.06"/>
</g>
<!-- Node5 -->
<g id="node5" class="node">
<title>Node5</title>
<g id="a_node5"><a xlink:href="../../d0/df8/TWeapon_8h.html" target="_top" xlink:title=" ">
<polygon fill="white" stroke="#666666" points="361.5,-24.5 290.5,-24.5 290.5,-5.5 361.5,-5.5 361.5,-24.5"/>
<text text-anchor="middle" x="326" y="-12.5" font-family="Helvetica,sans-Serif" font-size="10.00">TWeapon.h</text>
</a>
</g>
</g>
<!-- Node1&#45;&gt;Node5 -->
<g id="edge4" class="edge">
<title>Node1&#45;&gt;Node5</title>
<path fill="none" stroke="#63b8ff" d="M190.97,-65.95C221.57,-54.63 264.17,-38.88 293.28,-28.1"/>
<polygon fill="#63b8ff" stroke="#63b8ff" points="294.81,-31.27 302.98,-24.52 292.38,-24.7 294.81,-31.27"/>
</g>
</g>
</svg>
