<?xml version="1.0" encoding="UTF-8" standalone="no"?>
<!DOCTYPE svg PUBLIC "-//W3C//DTD SVG 1.1//EN"
 "http://www.w3.org/Graphics/SVG/1.1/DTD/svg11.dtd">
<!-- Generated by graphviz version 2.43.0 (0)
 -->
<!-- Title: game/code/TGameCenter.cpp Pages: 1 -->
<!--zoomable 511 -->
<svg id="main" version="1.1" xmlns="http://www.w3.org/2000/svg" xmlns:xlink="http://www.w3.org/1999/xlink" xml:space="preserve" onload="init(evt)">
<style type="text/css"><![CDATA[
.edge:hover path { stroke: red; }
.edge:hover polygon { stroke: red; fill: red; }
]]></style>
<script type="text/javascript"><![CDATA[
var edges = document.getElementsByTagName('g');
if (edges && edges.length) {
  for (var i=0;i<edges.length;i++) {
    if (edges[i].id.substr(0,4)=='edge') {
      edges[i].setAttribute('class','edge');
    }
  }
}
]]></script>
        <defs>
                <circle id="rim" cx="0" cy="0" r="7"/>
                <circle id="rim2" cx="0" cy="0" r="3.5"/>
                <g id="zoomPlus">
                        <use xlink:href="#rim" fill="#404040">
                                <set attributeName="fill" to="#808080" begin="zoomplus.mouseover" end="zoomplus.mouseout"/>
                        </use>
                        <path d="M-4,0h8M0,-4v8" fill="none" stroke="white" stroke-width="1.5" pointer-events="none"/>
                </g>
                <g id="zoomMin">
                        <use xlink:href="#rim" fill="#404040">
                                <set attributeName="fill" to="#808080" begin="zoomminus.mouseover" end="zoomminus.mouseout"/>
                        </use>
                        <path d="M-4,0h8" fill="none" stroke="white" stroke-width="1.5" pointer-events="none"/>
                </g>
                <g id="dirArrow">
                        <path fill="none" stroke="white" stroke-width="1.5" d="M0,-3.0v7 M-2.5,-0.5L0,-3.0L2.5,-0.5"/>
                </g>
               <g id="resetDef">
                       <use xlink:href="#rim2" fill="#404040">
                               <set attributeName="fill" to="#808080" begin="reset.mouseover" end="reset.mouseout"/>
                       </use>
               </g>
        </defs>

<script type="text/javascript">
var viewWidth = 813;
var viewHeight = 511;
var sectionId = 'dynsection-0';
</script>
<script xlink:href="../../svgpan.js"/>
<svg id="graph" class="graph">
<g id="viewport">
<title>game/code/TGameCenter.cpp</title>
<!-- Node1 -->
<g id="node1" class="node">
<title>Node1</title>
<g id="a_node1"><a xlink:title=" ">
<polygon fill="#999999" stroke="#666666" points="279,-503 118,-503 118,-484 279,-484 279,-503"/>
<text text-anchor="middle" x="198.5" y="-491" font-family="Helvetica,sans-Serif" font-size="10.00">game/code/TGameCenter.cpp</text>
</a>
</g>
</g>
<!-- Node2 -->
<g id="node2" class="node">
<title>Node2</title>
<g id="a_node2"><a xlink:href="../../df/db4/TGameCenter_8h.html" target="_top" xlink:title=" ">
<polygon fill="white" stroke="#666666" points="293.5,-448 201.5,-448 201.5,-429 293.5,-429 293.5,-448"/>
<text text-anchor="middle" x="247.5" y="-436" font-family="Helvetica,sans-Serif" font-size="10.00">TGameCenter.h</text>
</a>
</g>
</g>
<!-- Node1&#45;&gt;Node2 -->
<g id="edge1" class="edge">
<title>Node1&#45;&gt;Node2</title>
<path fill="none" stroke="#63b8ff" d="M206.59,-483.75C213.66,-476.11 224.09,-464.82 232.65,-455.56"/>
<polygon fill="#63b8ff" stroke="#63b8ff" points="235.34,-457.81 239.56,-448.09 230.2,-453.06 235.34,-457.81"/>
</g>
<!-- Node20 -->
<g id="node20" class="node">
<title>Node20</title>
<g id="a_node20"><a xlink:href="../../d1/d77/TLevelSelector_8h.html" target="_top" xlink:title=" ">
<polygon fill="white" stroke="#666666" points="97,-448 0,-448 0,-429 97,-429 97,-448"/>
<text text-anchor="middle" x="48.5" y="-436" font-family="Helvetica,sans-Serif" font-size="10.00">TLevelSelector.h</text>
</a>
</g>
</g>
<!-- Node1&#45;&gt;Node20 -->
<g id="edge31" class="edge">
<title>Node1&#45;&gt;Node20</title>
<path fill="none" stroke="#63b8ff" d="M174.4,-483.98C149.62,-475.23 110.8,-461.51 82.81,-451.62"/>
<polygon fill="#63b8ff" stroke="#63b8ff" points="83.63,-448.2 73.04,-448.17 81.3,-454.8 83.63,-448.2"/>
</g>
<!-- Node22 -->
<g id="node22" class="node">
<title>Node22</title>
<g id="a_node22"><a xlink:href="../../d2/d58/TShop_8h.html" target="_top" xlink:title=" ">
<polygon fill="white" stroke="#666666" points="367.5,-448 311.5,-448 311.5,-429 367.5,-429 367.5,-448"/>
<text text-anchor="middle" x="339.5" y="-436" font-family="Helvetica,sans-Serif" font-size="10.00">TShop.h</text>
</a>
</g>
</g>
<!-- Node1&#45;&gt;Node22 -->
<g id="edge35" class="edge">
<title>Node1&#45;&gt;Node22</title>
<path fill="none" stroke="#63b8ff" d="M221.15,-483.98C244.35,-475.27 280.62,-461.63 306.9,-451.75"/>
<polygon fill="#63b8ff" stroke="#63b8ff" points="308.3,-454.97 316.43,-448.17 305.84,-448.41 308.3,-454.97"/>
</g>
<!-- Node23 -->
<g id="node23" class="node">
<title>Node23</title>
<g id="a_node23"><a xlink:href="../../df/d59/TPlaying_8h.html" target="_top" xlink:title=" ">
<polygon fill="white" stroke="#666666" points="183.5,-448 115.5,-448 115.5,-429 183.5,-429 183.5,-448"/>
<text text-anchor="middle" x="149.5" y="-436" font-family="Helvetica,sans-Serif" font-size="10.00">TPlaying.h</text>
</a>
</g>
</g>
<!-- Node1&#45;&gt;Node23 -->
<g id="edge37" class="edge">
<title>Node1&#45;&gt;Node23</title>
<path fill="none" stroke="#63b8ff" d="M190.41,-483.75C183.34,-476.11 172.91,-464.82 164.35,-455.56"/>
<polygon fill="#63b8ff" stroke="#63b8ff" points="166.8,-453.06 157.44,-448.09 161.66,-457.81 166.8,-453.06"/>
</g>
<!-- Node3 -->
<g id="node3" class="node">
<title>Node3</title>
<g id="a_node3"><a xlink:href="../../d3/dd9/TMission_8h.html" target="_top" xlink:title=" ">
<polygon fill="white" stroke="#666666" points="318,-393 249,-393 249,-374 318,-374 318,-393"/>
<text text-anchor="middle" x="283.5" y="-381" font-family="Helvetica,sans-Serif" font-size="10.00">TMission.h</text>
</a>
</g>
</g>
<!-- Node2&#45;&gt;Node3 -->
<g id="edge2" class="edge">
<title>Node2&#45;&gt;Node3</title>
<path fill="none" stroke="#63b8ff" d="M253.44,-428.75C258.48,-421.34 265.84,-410.5 272.01,-401.41"/>
<polygon fill="#63b8ff" stroke="#63b8ff" points="274.94,-403.33 277.67,-393.09 269.15,-399.39 274.94,-403.33"/>
</g>
<!-- Node7 -->
<g id="node7" class="node">
<title>Node7</title>
<g id="a_node7"><a xlink:title=" ">
<polygon fill="#e0e0e0" stroke="#999999" points="157.5,-79.5 99.5,-79.5 99.5,-60.5 157.5,-60.5 157.5,-79.5"/>
<text text-anchor="middle" x="128.5" y="-67.5" font-family="Helvetica,sans-Serif" font-size="10.00">memory</text>
</a>
</g>
</g>
<!-- Node2&#45;&gt;Node7 -->
<g id="edge30" class="edge">
<title>Node2&#45;&gt;Node7</title>
<path fill="none" stroke="#63b8ff" d="M244.68,-428.8C229.34,-381.57 155.96,-155.58 134.44,-89.3"/>
<polygon fill="#63b8ff" stroke="#63b8ff" points="137.77,-88.21 131.35,-79.78 131.11,-90.37 137.77,-88.21"/>
</g>
<!-- Node4 -->
<g id="node4" class="node">
<title>Node4</title>
<g id="a_node4"><a xlink:href="../../de/da2/TCapitanInfo_8h.html" target="_top" xlink:title=" ">
<polygon fill="white" stroke="#666666" points="804.5,-85 672.5,-85 672.5,-55 804.5,-55 804.5,-85"/>
<text text-anchor="start" x="680.5" y="-73" font-family="Helvetica,sans-Serif" font-size="10.00">../../ships/code/TCapitan</text>
<text text-anchor="middle" x="738.5" y="-62" font-family="Helvetica,sans-Serif" font-size="10.00">Info.h</text>
</a>
</g>
</g>
<!-- Node3&#45;&gt;Node4 -->
<g id="edge3" class="edge">
<title>Node3&#45;&gt;Node4</title>
<path fill="none" stroke="#63b8ff" d="M318.2,-381.13C423.23,-376.06 730.5,-353.97 730.5,-269 730.5,-269 730.5,-269 730.5,-201 730.5,-164 733.77,-121.19 736.13,-95.11"/>
<polygon fill="#63b8ff" stroke="#63b8ff" points="739.62,-95.31 737.07,-85.03 732.65,-94.66 739.62,-95.31"/>
</g>
<!-- Node6 -->
<g id="node6" class="node">
<title>Node6</title>
<g id="a_node6"><a xlink:href="../../d8/d06/MyList_8h.html" target="_top" xlink:title=" ">
<polygon fill="white" stroke="#666666" points="341,-217 234,-217 234,-187 341,-187 341,-217"/>
<text text-anchor="start" x="242" y="-205" font-family="Helvetica,sans-Serif" font-size="10.00">../../container/code</text>
<text text-anchor="middle" x="287.5" y="-194" font-family="Helvetica,sans-Serif" font-size="10.00">/MyList.h</text>
</a>
</g>
</g>
<!-- Node3&#45;&gt;Node6 -->
<g id="edge5" class="edge">
<title>Node3&#45;&gt;Node6</title>
<path fill="none" stroke="#63b8ff" d="M279.9,-373.82C276.44,-364.99 271.47,-350.81 269.5,-338 263.76,-300.66 263.01,-290.22 269.5,-253 271.06,-244.08 274.06,-234.66 277.18,-226.42"/>
<polygon fill="#63b8ff" stroke="#63b8ff" points="280.45,-227.67 280.95,-217.08 273.96,-225.05 280.45,-227.67"/>
</g>
<!-- Node3&#45;&gt;Node7 -->
<g id="edge29" class="edge">
<title>Node3&#45;&gt;Node7</title>
<path fill="none" stroke="#63b8ff" d="M279.19,-373.84C258.21,-331.67 166.5,-147.37 137.4,-88.88"/>
<polygon fill="#63b8ff" stroke="#63b8ff" points="140.45,-87.16 132.86,-79.76 134.18,-90.27 140.45,-87.16"/>
</g>
<!-- Node10 -->
<g id="node10" class="node">
<title>Node10</title>
<g id="a_node10"><a xlink:href="../../db/d87/TCargoWarShip_8h.html" target="_top" xlink:title=" ">
<polygon fill="white" stroke="#666666" points="551.5,-283 409.5,-283 409.5,-253 551.5,-253 551.5,-283"/>
<text text-anchor="start" x="417.5" y="-271" font-family="Helvetica,sans-Serif" font-size="10.00">../../ships/code/TCargoWar</text>
<text text-anchor="middle" x="480.5" y="-260" font-family="Helvetica,sans-Serif" font-size="10.00">Ship.h</text>
</a>
</g>
</g>
<!-- Node3&#45;&gt;Node10 -->
<g id="edge12" class="edge">
<title>Node3&#45;&gt;Node10</title>
<path fill="none" stroke="#63b8ff" d="M318.32,-380.47C353.1,-376.81 406.44,-366.58 442.5,-338 457.04,-326.47 466.85,-307.78 472.85,-292.76"/>
<polygon fill="#63b8ff" stroke="#63b8ff" points="476.24,-293.67 476.41,-283.08 469.67,-291.26 476.24,-293.67"/>
</g>
<!-- Node17 -->
<g id="node17" class="node">
<title>Node17</title>
<g id="a_node17"><a xlink:href="../../d1/d0c/TBase_8h.html" target="_top" xlink:title=" ">
<polygon fill="white" stroke="#666666" points="695.5,-277.5 569.5,-277.5 569.5,-258.5 695.5,-258.5 695.5,-277.5"/>
<text text-anchor="middle" x="632.5" y="-265.5" font-family="Helvetica,sans-Serif" font-size="10.00">../../base/code/TBase.h</text>
</a>
</g>
</g>
<!-- Node3&#45;&gt;Node17 -->
<g id="edge22" class="edge">
<title>Node3&#45;&gt;Node17</title>
<path fill="none" stroke="#63b8ff" d="M318.09,-375.51C354.64,-367.77 413.76,-354.21 463.5,-338 514.29,-321.45 571.47,-296.78 604.6,-281.86"/>
<polygon fill="#63b8ff" stroke="#63b8ff" points="606.41,-284.88 614.07,-277.56 603.52,-278.5 606.41,-284.88"/>
</g>
<!-- Node18 -->
<g id="node18" class="node">
<title>Node18</title>
<g id="a_node18"><a xlink:href="../../d1/d8a/TPirateBase_8h.html" target="_top" xlink:title=" ">
<polygon fill="white" stroke="#666666" points="433,-338 278,-338 278,-319 433,-319 433,-338"/>
<text text-anchor="middle" x="355.5" y="-326" font-family="Helvetica,sans-Serif" font-size="10.00">../../base/code/TPirateBase.h</text>
</a>
</g>
</g>
<!-- Node3&#45;&gt;Node18 -->
<g id="edge24" class="edge">
<title>Node3&#45;&gt;Node18</title>
<path fill="none" stroke="#63b8ff" d="M295.07,-373.98C305.92,-366 322.38,-353.88 335.38,-344.31"/>
<polygon fill="#63b8ff" stroke="#63b8ff" points="337.74,-346.92 343.72,-338.17 333.59,-341.28 337.74,-346.92"/>
</g>
<!-- Node5 -->
<g id="node5" class="node">
<title>Node5</title>
<g id="a_node5"><a xlink:title=" ">
<polygon fill="#e0e0e0" stroke="#999999" points="635.5,-19 591.5,-19 591.5,0 635.5,0 635.5,-19"/>
<text text-anchor="middle" x="613.5" y="-7" font-family="Helvetica,sans-Serif" font-size="10.00">string</text>
</a>
</g>
</g>
<!-- Node4&#45;&gt;Node5 -->
<g id="edge4" class="edge">
<title>Node4&#45;&gt;Node5</title>
<path fill="none" stroke="#63b8ff" d="M708.56,-54.99C688.08,-45.4 661.12,-32.79 641.15,-23.44"/>
<polygon fill="#63b8ff" stroke="#63b8ff" points="642.5,-20.21 631.96,-19.14 639.53,-26.55 642.5,-20.21"/>
</g>
<!-- Node6&#45;&gt;Node7 -->
<g id="edge6" class="edge">
<title>Node6&#45;&gt;Node7</title>
<path fill="none" stroke="#63b8ff" d="M277.78,-186.95C265.44,-169.84 242.83,-140.8 218.5,-121 199.85,-105.82 175.94,-92.79 157.46,-83.83"/>
<polygon fill="#63b8ff" stroke="#63b8ff" points="158.88,-80.63 148.34,-79.53 155.89,-86.97 158.88,-80.63"/>
</g>
<!-- Node8 -->
<g id="node8" class="node">
<title>Node8</title>
<g id="a_node8"><a xlink:href="../../d0/d93/TShip_8h.html" target="_top" xlink:title=" ">
<polygon fill="white" stroke="#666666" points="551,-145.5 426,-145.5 426,-126.5 551,-126.5 551,-145.5"/>
<text text-anchor="middle" x="488.5" y="-133.5" font-family="Helvetica,sans-Serif" font-size="10.00">../../ships/code/TShip.h</text>
</a>
</g>
</g>
<!-- Node6&#45;&gt;Node8 -->
<g id="edge7" class="edge">
<title>Node6&#45;&gt;Node8</title>
<path fill="none" stroke="#63b8ff" d="M331.61,-186.95C367.64,-175.48 417.96,-159.46 451.81,-148.68"/>
<polygon fill="#63b8ff" stroke="#63b8ff" points="453.28,-151.89 461.75,-145.52 451.16,-145.22 453.28,-151.89"/>
</g>
<!-- Node8&#45;&gt;Node4 -->
<g id="edge10" class="edge">
<title>Node8&#45;&gt;Node4</title>
<path fill="none" stroke="#63b8ff" d="M521.96,-126.44C560.67,-116.52 625.31,-99.98 673.91,-87.53"/>
<polygon fill="#63b8ff" stroke="#63b8ff" points="674.9,-90.9 683.72,-85.02 673.16,-84.11 674.9,-90.9"/>
</g>
<!-- Node8&#45;&gt;Node5 -->
<g id="edge8" class="edge">
<title>Node8&#45;&gt;Node5</title>
<path fill="none" stroke="#63b8ff" d="M488.15,-126.42C487.95,-110.45 489.77,-75.91 507.5,-55 526.16,-32.99 557.56,-21.64 581.36,-15.94"/>
<polygon fill="#63b8ff" stroke="#63b8ff" points="582.33,-19.31 591.35,-13.76 580.84,-12.47 582.33,-19.31"/>
</g>
<!-- Node8&#45;&gt;Node7 -->
<g id="edge9" class="edge">
<title>Node8&#45;&gt;Node7</title>
<path fill="none" stroke="#63b8ff" d="M447.27,-126.49C437.53,-124.59 427.16,-122.64 417.5,-121 306.4,-102.09 275.76,-112.63 166.5,-85 164,-84.37 161.43,-83.63 158.86,-82.82"/>
<polygon fill="#63b8ff" stroke="#63b8ff" points="159.75,-79.43 149.16,-79.51 157.49,-86.05 159.75,-79.43"/>
</g>
<!-- Node9 -->
<g id="node9" class="node">
<title>Node9</title>
<g id="a_node9"><a xlink:href="../../dc/d06/TObjectOnMap_8h.html" target="_top" xlink:title=" ">
<polygon fill="white" stroke="#666666" points="654.5,-85 516.5,-85 516.5,-55 654.5,-55 654.5,-85"/>
<text text-anchor="start" x="524.5" y="-73" font-family="Helvetica,sans-Serif" font-size="10.00">../../base/code/TObjectOn</text>
<text text-anchor="middle" x="585.5" y="-62" font-family="Helvetica,sans-Serif" font-size="10.00">Map.h</text>
</a>
</g>
</g>
<!-- Node8&#45;&gt;Node9 -->
<g id="edge11" class="edge">
<title>Node8&#45;&gt;Node9</title>
<path fill="none" stroke="#63b8ff" d="M501.58,-126.37C515.36,-117.28 537.52,-102.66 555.61,-90.72"/>
<polygon fill="#63b8ff" stroke="#63b8ff" points="557.69,-93.54 564.11,-85.12 553.83,-87.7 557.69,-93.54"/>
</g>
<!-- Node11 -->
<g id="node11" class="node">
<title>Node11</title>
<g id="a_node11"><a xlink:href="../../d0/d2a/TWarShip_8h.html" target="_top" xlink:title=" ">
<polygon fill="white" stroke="#666666" points="430,-211.5 359,-211.5 359,-192.5 430,-192.5 430,-211.5"/>
<text text-anchor="middle" x="394.5" y="-199.5" font-family="Helvetica,sans-Serif" font-size="10.00">TWarShip.h</text>
</a>
</g>
</g>
<!-- Node10&#45;&gt;Node11 -->
<g id="edge13" class="edge">
<title>Node10&#45;&gt;Node11</title>
<path fill="none" stroke="#63b8ff" d="M461.41,-252.8C447.48,-242.43 428.64,-228.4 414.5,-217.88"/>
<polygon fill="#63b8ff" stroke="#63b8ff" points="416.5,-215.01 406.38,-211.84 412.32,-220.62 416.5,-215.01"/>
</g>
<!-- Node16 -->
<g id="node16" class="node">
<title>Node16</title>
<g id="a_node16"><a xlink:href="../../d3/d7f/TCargoShip_8h.html" target="_top" xlink:title=" ">
<polygon fill="white" stroke="#666666" points="528.5,-211.5 448.5,-211.5 448.5,-192.5 528.5,-192.5 528.5,-211.5"/>
<text text-anchor="middle" x="488.5" y="-199.5" font-family="Helvetica,sans-Serif" font-size="10.00">TCargoShip.h</text>
</a>
</g>
</g>
<!-- Node10&#45;&gt;Node16 -->
<g id="edge20" class="edge">
<title>Node10&#45;&gt;Node16</title>
<path fill="none" stroke="#63b8ff" d="M482.28,-252.8C483.41,-243.7 484.9,-231.79 486.14,-221.9"/>
<polygon fill="#63b8ff" stroke="#63b8ff" points="489.63,-222.2 487.39,-211.84 482.68,-221.33 489.63,-222.2"/>
</g>
<!-- Node11&#45;&gt;Node8 -->
<g id="edge19" class="edge">
<title>Node11&#45;&gt;Node8</title>
<path fill="none" stroke="#63b8ff" d="M407.18,-192.37C422.59,-181.87 448.85,-164 467.35,-151.4"/>
<polygon fill="#63b8ff" stroke="#63b8ff" points="469.43,-154.22 475.72,-145.7 465.49,-148.43 469.43,-154.22"/>
</g>
<!-- Node12 -->
<g id="node12" class="node">
<title>Node12</title>
<g id="a_node12"><a xlink:href="../../dc/d2c/TWeaponHolder_8h.html" target="_top" xlink:title=" ">
<polygon fill="white" stroke="#666666" points="408,-151 303,-151 303,-121 408,-121 408,-151"/>
<text text-anchor="start" x="311" y="-139" font-family="Helvetica,sans-Serif" font-size="10.00">../../weapons/code</text>
<text text-anchor="middle" x="355.5" y="-128" font-family="Helvetica,sans-Serif" font-size="10.00">/TWeaponHolder.h</text>
</a>
</g>
</g>
<!-- Node11&#45;&gt;Node12 -->
<g id="edge14" class="edge">
<title>Node11&#45;&gt;Node12</title>
<path fill="none" stroke="#63b8ff" d="M389.24,-192.37C384.19,-184.08 376.33,-171.18 369.47,-159.92"/>
<polygon fill="#63b8ff" stroke="#63b8ff" points="372.44,-158.08 364.25,-151.36 366.47,-161.72 372.44,-158.08"/>
</g>
<!-- Node12&#45;&gt;Node7 -->
<g id="edge15" class="edge">
<title>Node12&#45;&gt;Node7</title>
<path fill="none" stroke="#63b8ff" d="M302.98,-122.52C264.84,-113.11 212.14,-99.41 166.5,-85 164.59,-84.4 162.63,-83.75 160.66,-83.09"/>
<polygon fill="#63b8ff" stroke="#63b8ff" points="161.48,-79.66 150.88,-79.65 159.15,-86.27 161.48,-79.66"/>
</g>
<!-- Node13 -->
<g id="node13" class="node">
<title>Node13</title>
<g id="a_node13"><a xlink:title=" ">
<polygon fill="#e0e0e0" stroke="#999999" points="460,-79.5 413,-79.5 413,-60.5 460,-60.5 460,-79.5"/>
<text text-anchor="middle" x="436.5" y="-67.5" font-family="Helvetica,sans-Serif" font-size="10.00">vector</text>
</a>
</g>
</g>
<!-- Node12&#45;&gt;Node13 -->
<g id="edge16" class="edge">
<title>Node12&#45;&gt;Node13</title>
<path fill="none" stroke="#63b8ff" d="M373.48,-120.8C386.48,-110.53 404.01,-96.67 417.29,-86.18"/>
<polygon fill="#63b8ff" stroke="#63b8ff" points="419.63,-88.79 425.31,-79.84 415.29,-83.3 419.63,-88.79"/>
</g>
<!-- Node14 -->
<g id="node14" class="node">
<title>Node14</title>
<g id="a_node14"><a xlink:href="../../d8/d66/enum__place__on__ship_8h.html" target="_top" xlink:title=" ">
<polygon fill="white" stroke="#666666" points="305.5,-85 175.5,-85 175.5,-55 305.5,-55 305.5,-85"/>
<text text-anchor="start" x="183.5" y="-73" font-family="Helvetica,sans-Serif" font-size="10.00">../../enums/enum_place</text>
<text text-anchor="middle" x="240.5" y="-62" font-family="Helvetica,sans-Serif" font-size="10.00">_on_ship.h</text>
</a>
</g>
</g>
<!-- Node12&#45;&gt;Node14 -->
<g id="edge17" class="edge">
<title>Node12&#45;&gt;Node14</title>
<path fill="none" stroke="#63b8ff" d="M330.26,-120.95C313.93,-111.87 292.48,-99.93 274.63,-90"/>
<polygon fill="#63b8ff" stroke="#63b8ff" points="276.12,-86.82 265.68,-85.01 272.71,-92.93 276.12,-86.82"/>
</g>
<!-- Node15 -->
<g id="node15" class="node">
<title>Node15</title>
<g id="a_node15"><a xlink:href="../../d0/df8/TWeapon_8h.html" target="_top" xlink:title=" ">
<polygon fill="white" stroke="#666666" points="395,-79.5 324,-79.5 324,-60.5 395,-60.5 395,-79.5"/>
<text text-anchor="middle" x="359.5" y="-67.5" font-family="Helvetica,sans-Serif" font-size="10.00">TWeapon.h</text>
</a>
</g>
</g>
<!-- Node12&#45;&gt;Node15 -->
<g id="edge18" class="edge">
<title>Node12&#45;&gt;Node15</title>
<path fill="none" stroke="#63b8ff" d="M356.39,-120.8C356.96,-111.7 357.7,-99.79 358.32,-89.9"/>
<polygon fill="#63b8ff" stroke="#63b8ff" points="361.82,-90.04 358.95,-79.84 354.83,-89.61 361.82,-90.04"/>
</g>
<!-- Node16&#45;&gt;Node8 -->
<g id="edge21" class="edge">
<title>Node16&#45;&gt;Node8</title>
<path fill="none" stroke="#63b8ff" d="M488.5,-192.37C488.5,-183.16 488.5,-168.29 488.5,-156.27"/>
<polygon fill="#63b8ff" stroke="#63b8ff" points="492,-155.91 488.5,-145.91 485,-155.91 492,-155.91"/>
</g>
<!-- Node17&#45;&gt;Node9 -->
<g id="edge23" class="edge">
<title>Node17&#45;&gt;Node9</title>
<path fill="none" stroke="#63b8ff" d="M630.42,-258.33C623.59,-229.85 601.71,-138.58 591.21,-94.83"/>
<polygon fill="#63b8ff" stroke="#63b8ff" points="594.6,-93.94 588.87,-85.04 587.79,-95.58 594.6,-93.94"/>
</g>
<!-- Node18&#45;&gt;Node17 -->
<g id="edge25" class="edge">
<title>Node18&#45;&gt;Node17</title>
<path fill="none" stroke="#63b8ff" d="M395.78,-318.99C445.12,-308.57 528.71,-290.92 582.22,-279.62"/>
<polygon fill="#63b8ff" stroke="#63b8ff" points="583.11,-283.01 592.17,-277.52 581.67,-276.16 583.11,-283.01"/>
</g>
<!-- Node19 -->
<g id="node19" class="node">
<title>Node19</title>
<g id="a_node19"><a xlink:href="../../dc/d2f/TSpawnDescriptor_8h.html" target="_top" xlink:title=" ">
<polygon fill="white" stroke="#666666" points="391,-277.5 278,-277.5 278,-258.5 391,-258.5 391,-277.5"/>
<text text-anchor="middle" x="334.5" y="-265.5" font-family="Helvetica,sans-Serif" font-size="10.00">TSpawnDescriptor.h</text>
</a>
</g>
</g>
<!-- Node18&#45;&gt;Node19 -->
<g id="edge26" class="edge">
<title>Node18&#45;&gt;Node19</title>
<path fill="none" stroke="#63b8ff" d="M352.4,-318.87C349.42,-310.57 344.83,-297.78 341.04,-287.22"/>
<polygon fill="#63b8ff" stroke="#63b8ff" points="344.28,-285.9 337.61,-277.67 337.7,-288.26 344.28,-285.9"/>
</g>
<!-- Node19&#45;&gt;Node6 -->
<g id="edge28" class="edge">
<title>Node19&#45;&gt;Node6</title>
<path fill="none" stroke="#63b8ff" d="M328.16,-258.37C322.01,-249.99 312.41,-236.93 304.09,-225.59"/>
<polygon fill="#63b8ff" stroke="#63b8ff" points="306.79,-223.35 298.05,-217.36 301.14,-227.49 306.79,-223.35"/>
</g>
<!-- Node19&#45;&gt;Node11 -->
<g id="edge27" class="edge">
<title>Node19&#45;&gt;Node11</title>
<path fill="none" stroke="#63b8ff" d="M342.59,-258.37C351.93,-248.4 367.51,-231.79 379.16,-219.36"/>
<polygon fill="#63b8ff" stroke="#63b8ff" points="381.87,-221.59 386.15,-211.91 376.76,-216.81 381.87,-221.59"/>
</g>
<!-- Node20&#45;&gt;Node3 -->
<g id="edge32" class="edge">
<title>Node20&#45;&gt;Node3</title>
<path fill="none" stroke="#63b8ff" d="M86.26,-428.98C127.9,-419.59 194.86,-404.49 239.02,-394.53"/>
<polygon fill="#63b8ff" stroke="#63b8ff" points="239.91,-397.92 248.9,-392.3 238.37,-391.09 239.91,-397.92"/>
</g>
<!-- Node20&#45;&gt;Node7 -->
<g id="edge33" class="edge">
<title>Node20&#45;&gt;Node7</title>
<path fill="none" stroke="#63b8ff" d="M43.49,-428.87C33.6,-410.97 12.5,-368.24 12.5,-329.5 12.5,-329.5 12.5,-329.5 12.5,-201 12.5,-147.08 68.73,-105.23 102.9,-84.77"/>
<polygon fill="#63b8ff" stroke="#63b8ff" points="104.97,-87.61 111.88,-79.58 101.47,-81.55 104.97,-87.61"/>
</g>
<!-- Node21 -->
<g id="node21" class="node">
<title>Node21</title>
<g id="a_node21"><a xlink:title=" ">
<polygon fill="#e0e0e0" stroke="#999999" points="100.5,-393 40.5,-393 40.5,-374 100.5,-374 100.5,-393"/>
<text text-anchor="middle" x="70.5" y="-381" font-family="Helvetica,sans-Serif" font-size="10.00">iostream</text>
</a>
</g>
</g>
<!-- Node20&#45;&gt;Node21 -->
<g id="edge34" class="edge">
<title>Node20&#45;&gt;Node21</title>
<path fill="none" stroke="#63b8ff" d="M52.13,-428.75C55.08,-421.65 59.33,-411.4 63.01,-402.56"/>
<polygon fill="#63b8ff" stroke="#63b8ff" points="66.33,-403.67 66.93,-393.09 59.87,-400.98 66.33,-403.67"/>
</g>
<!-- Node22&#45;&gt;Node3 -->
<g id="edge36" class="edge">
<title>Node22&#45;&gt;Node3</title>
<path fill="none" stroke="#63b8ff" d="M330.5,-428.98C322.31,-421.23 309.99,-409.58 300.03,-400.14"/>
<polygon fill="#63b8ff" stroke="#63b8ff" points="302.33,-397.5 292.66,-393.17 297.52,-402.59 302.33,-397.5"/>
</g>
<!-- Node23&#45;&gt;Node3 -->
<g id="edge38" class="edge">
<title>Node23&#45;&gt;Node3</title>
<path fill="none" stroke="#63b8ff" d="M171.03,-428.98C192.97,-420.3 227.24,-406.75 252.19,-396.88"/>
<polygon fill="#63b8ff" stroke="#63b8ff" points="253.57,-400.1 261.58,-393.17 250.99,-393.59 253.57,-400.1"/>
</g>
<!-- Node23&#45;&gt;Node7 -->
<g id="edge39" class="edge">
<title>Node23&#45;&gt;Node7</title>
<path fill="none" stroke="#63b8ff" d="M146.67,-428.93C140.94,-410.8 128.5,-367.13 128.5,-329.5 128.5,-329.5 128.5,-329.5 128.5,-201 128.5,-161.45 128.5,-115.13 128.5,-89.84"/>
<polygon fill="#63b8ff" stroke="#63b8ff" points="132,-89.52 128.5,-79.52 125,-89.52 132,-89.52"/>
</g>
</g>
</svg>
        <g id="navigator" transform="translate(0 0)" fill="#404254">
                <rect fill="#f2f5e9" fill-opacity="0.5" stroke="#606060" stroke-width=".5" x="0" y="0" width="60" height="60"/>
                <use id="zoomplus" xlink:href="#zoomPlus" x="17" y="9" onmousedown="handleZoom(evt,'in')"/>
                <use id="zoomminus" xlink:href="#zoomMin" x="42" y="9" onmousedown="handleZoom(evt,'out')"/>
                <use id="reset" xlink:href="#resetDef" x="30" y="36" onmousedown="handleReset()"/>
                <g id="arrowUp" xlink:href="#dirArrow" transform="translate(30 24)" onmousedown="handlePan(0,-1)">
                  <use xlink:href="#rim" fill="#404040">
                        <set attributeName="fill" to="#808080" begin="arrowUp.mouseover" end="arrowUp.mouseout"/>
                  </use>
                  <path fill="none" stroke="white" stroke-width="1.5" d="M0,-3.0v7 M-2.5,-0.5L0,-3.0L2.5,-0.5"/>
                </g>
                <g id="arrowRight" xlink:href="#dirArrow" transform="rotate(90) translate(36 -43)" onmousedown="handlePan(1,0)">
                  <use xlink:href="#rim" fill="#404040">
                        <set attributeName="fill" to="#808080" begin="arrowRight.mouseover" end="arrowRight.mouseout"/>
                  </use>
                  <path fill="none" stroke="white" stroke-width="1.5" d="M0,-3.0v7 M-2.5,-0.5L0,-3.0L2.5,-0.5"/>
                </g>
                <g id="arrowDown" xlink:href="#dirArrow" transform="rotate(180) translate(-30 -48)" onmousedown="handlePan(0,1)">
                  <use xlink:href="#rim" fill="#404040">
                        <set attributeName="fill" to="#808080" begin="arrowDown.mouseover" end="arrowDown.mouseout"/>
                  </use>
                  <path fill="none" stroke="white" stroke-width="1.5" d="M0,-3.0v7 M-2.5,-0.5L0,-3.0L2.5,-0.5"/>
                </g>
                <g id="arrowLeft" xlink:href="#dirArrow" transform="rotate(270) translate(-36 17)" onmousedown="handlePan(-1,0)">
                  <use xlink:href="#rim" fill="#404040">
                        <set attributeName="fill" to="#808080" begin="arrowLeft.mouseover" end="arrowLeft.mouseout"/>
                  </use>
                  <path fill="none" stroke="white" stroke-width="1.5" d="M0,-3.0v7 M-2.5,-0.5L0,-3.0L2.5,-0.5"/>
                </g>
        </g>
        <svg viewBox="0 0 15 15" width="100%" height="30px" preserveAspectRatio="xMaxYMin meet">
         <g id="arrow_out" transform="scale(0.3 0.3)">
          <a xlink:href="TGameCenter_8cpp__incl_org.svg" target="_base">
           <rect id="button" ry="5" rx="5" y="6" x="6" height="38" width="38"
                fill="#f2f5e9" fill-opacity="0.5" stroke="#606060" stroke-width="1.0"/>
           <path id="arrow"
             d="M 11.500037,31.436501 C 11.940474,20.09759 22.043105,11.32322 32.158766,21.979434 L 37.068811,17.246167 C 37.068811,17.246167 37.088388,32 37.088388,32 L 22.160133,31.978069 C 22.160133,31.978069 26.997745,27.140456 26.997745,27.140456 C 18.528582,18.264221 13.291696,25.230495 11.500037,31.436501 z"
             style="fill:#404040;"/>
          </a>
         </g>
        </svg>
</svg>
