<?xml version="1.0" encoding="UTF-8" standalone="no"?>
<!DOCTYPE svg PUBLIC "-//W3C//DTD SVG 1.1//EN"
 "http://www.w3.org/Graphics/SVG/1.1/DTD/svg11.dtd">
<!-- Generated by graphviz version 2.43.0 (0)
 -->
<!-- Title: TPlaying::MakeMoves Pages: 1 -->
<!--zoomable 362 -->
<svg id="main" version="1.1" xmlns="http://www.w3.org/2000/svg" xmlns:xlink="http://www.w3.org/1999/xlink" xml:space="preserve" onload="init(evt)">
<style type="text/css"><![CDATA[
.edge:hover path { stroke: red; }
.edge:hover polygon { stroke: red; fill: red; }
]]></style>
<script type="text/javascript"><![CDATA[
var edges = document.getElementsByTagName('g');
if (edges && edges.length) {
  for (var i=0;i<edges.length;i++) {
    if (edges[i].id.substr(0,4)=='edge') {
      edges[i].setAttribute('class','edge');
    }
  }
}
]]></script>
        <defs>
                <circle id="rim" cx="0" cy="0" r="7"/>
                <circle id="rim2" cx="0" cy="0" r="3.5"/>
                <g id="zoomPlus">
                        <use xlink:href="#rim" fill="#404040">
                                <set attributeName="fill" to="#808080" begin="zoomplus.mouseover" end="zoomplus.mouseout"/>
                        </use>
                        <path d="M-4,0h8M0,-4v8" fill="none" stroke="white" stroke-width="1.5" pointer-events="none"/>
                </g>
                <g id="zoomMin">
                        <use xlink:href="#rim" fill="#404040">
                                <set attributeName="fill" to="#808080" begin="zoomminus.mouseover" end="zoomminus.mouseout"/>
                        </use>
                        <path d="M-4,0h8" fill="none" stroke="white" stroke-width="1.5" pointer-events="none"/>
                </g>
                <g id="dirArrow">
                        <path fill="none" stroke="white" stroke-width="1.5" d="M0,-3.0v7 M-2.5,-0.5L0,-3.0L2.5,-0.5"/>
                </g>
               <g id="resetDef">
                       <use xlink:href="#rim2" fill="#404040">
                               <set attributeName="fill" to="#808080" begin="reset.mouseover" end="reset.mouseout"/>
                       </use>
               </g>
        </defs>

<script type="text/javascript">
var viewWidth = 644;
var viewHeight = 362;
var sectionId = 'dynsection-20';
</script>
<script xlink:href="../../svgpan.js"/>
<svg id="graph" class="graph">
<g id="viewport">
<title>TPlaying::MakeMoves</title>
<!-- Node1 -->
<g id="node1" class="node">
<title>Node1</title>
<g id="a_node1"><a xlink:title=" ">
<polygon fill="#999999" stroke="#666666" points="123,-166.78 0,-166.78 0,-147.78 123,-147.78 123,-166.78"/>
<text text-anchor="middle" x="61.5" y="-154.78" font-family="Helvetica,sans-Serif" font-size="10.00">TPlaying::MakeMoves</text>
</a>
</g>
</g>
<!-- Node2 -->
<g id="node2" class="node">
<title>Node2</title>
<g id="a_node2"><a xlink:href="../../db/dab/classTPlaying.html#a029211b1dce0b41bb75ee19a8db34550" target="_top" xlink:title=" ">
<polygon fill="white" stroke="#666666" points="285,-316.78 172,-316.78 172,-297.78 285,-297.78 285,-316.78"/>
<text text-anchor="middle" x="228.5" y="-304.78" font-family="Helvetica,sans-Serif" font-size="10.00">TPlaying::MakeShot</text>
</a>
</g>
</g>
<!-- Node1&#45;&gt;Node2 -->
<g id="edge1" class="edge">
<title>Node1&#45;&gt;Node2</title>
<path fill="none" stroke="#63b8ff" d="M71.83,-166.9C88.75,-184.24 125.85,-221.68 159,-251.28 174.75,-265.34 193.34,-280.45 207.17,-291.42"/>
<polygon fill="#63b8ff" stroke="#63b8ff" points="205.09,-294.23 215.11,-297.67 209.42,-288.74 205.09,-294.23"/>
</g>
<!-- Node5 -->
<g id="node5" class="node">
<title>Node5</title>
<g id="a_node5"><a xlink:href="../../db/dab/classTPlaying.html#ab30b266040a5de9cebdebc0e6130e2ac" target="_top" xlink:title=" ">
<polygon fill="white" stroke="#666666" points="290,-241.78 167,-241.78 167,-222.78 290,-222.78 290,-241.78"/>
<text text-anchor="middle" x="228.5" y="-229.78" font-family="Helvetica,sans-Serif" font-size="10.00">TPlaying::MakeSpawn</text>
</a>
</g>
</g>
<!-- Node1&#45;&gt;Node5 -->
<g id="edge5" class="edge">
<title>Node1&#45;&gt;Node5</title>
<path fill="none" stroke="#63b8ff" d="M83.73,-166.93C112.57,-180.03 164.28,-203.54 197.19,-218.5"/>
<polygon fill="#63b8ff" stroke="#63b8ff" points="195.8,-221.71 206.35,-222.66 198.69,-215.34 195.8,-221.71"/>
</g>
<!-- Node7 -->
<g id="node7" class="node">
<title>Node7</title>
<g id="a_node7"><a xlink:href="../../db/dab/classTPlaying.html#ae0d73d17b32678662ea5894822f4913a" target="_top" xlink:title=" ">
<polygon fill="white" stroke="#666666" points="287.5,-166.78 169.5,-166.78 169.5,-147.78 287.5,-147.78 287.5,-166.78"/>
<text text-anchor="middle" x="228.5" y="-154.78" font-family="Helvetica,sans-Serif" font-size="10.00">TPlaying::MoveShips</text>
</a>
</g>
</g>
<!-- Node1&#45;&gt;Node7 -->
<g id="edge7" class="edge">
<title>Node1&#45;&gt;Node7</title>
<path fill="none" stroke="#63b8ff" d="M123,-157.28C134.86,-157.28 147.37,-157.28 159.45,-157.28"/>
<polygon fill="#63b8ff" stroke="#63b8ff" points="159.48,-160.78 169.48,-157.28 159.48,-153.78 159.48,-160.78"/>
</g>
<!-- Node16 -->
<g id="node16" class="node">
<title>Node16</title>
<g id="a_node16"><a xlink:href="../../db/dab/classTPlaying.html#af7330a2cd413bb1934ba6c12c267722a" target="_top" xlink:title=" ">
<polygon fill="white" stroke="#666666" points="288,-129.78 169,-129.78 169,-110.78 288,-110.78 288,-129.78"/>
<text text-anchor="middle" x="228.5" y="-117.78" font-family="Helvetica,sans-Serif" font-size="10.00">TPlaying::RefillBases</text>
</a>
</g>
</g>
<!-- Node1&#45;&gt;Node16 -->
<g id="edge20" class="edge">
<title>Node1&#45;&gt;Node16</title>
<path fill="none" stroke="#63b8ff" d="M104.99,-147.75C126.37,-142.95 152.47,-137.1 175.08,-132.03"/>
<polygon fill="#63b8ff" stroke="#63b8ff" points="175.87,-135.44 184.87,-129.84 174.34,-128.61 175.87,-135.44"/>
</g>
<!-- Node17 -->
<g id="node17" class="node">
<title>Node17</title>
<g id="a_node17"><a xlink:href="../../db/dab/classTPlaying.html#ad407c73e7fccabda36c46de8e58b6fe4" target="_top" xlink:title=" ">
<polygon fill="white" stroke="#666666" points="298,-92.78 159,-92.78 159,-73.78 298,-73.78 298,-92.78"/>
<text text-anchor="middle" x="228.5" y="-80.78" font-family="Helvetica,sans-Serif" font-size="10.00">TPlaying::RemoveRipped</text>
</a>
</g>
</g>
<!-- Node1&#45;&gt;Node17 -->
<g id="edge21" class="edge">
<title>Node1&#45;&gt;Node17</title>
<path fill="none" stroke="#63b8ff" d="M76.27,-147.68C94.46,-135.38 127.84,-114.13 159,-101.28 163.78,-99.3 168.84,-97.49 173.95,-95.85"/>
<polygon fill="#63b8ff" stroke="#63b8ff" points="175.24,-99.11 183.8,-92.88 173.22,-92.41 175.24,-99.11"/>
</g>
<!-- Node2&#45;&gt;Node2 -->
<g id="edge3" class="edge">
<title>Node2&#45;&gt;Node2</title>
<path fill="none" stroke="#63b8ff" d="M203.84,-316.86C191.84,-325.51 200.06,-334.78 228.5,-334.78 247.16,-334.78 257.12,-330.79 258.37,-325.6"/>
<polygon fill="#63b8ff" stroke="#63b8ff" points="261.29,-323.66 253.16,-316.86 255.27,-327.24 261.29,-323.66"/>
</g>
<!-- Node3 -->
<g id="node3" class="node">
<title>Node3</title>
<g id="a_node3"><a xlink:href="../../d8/d51/classMyList.html#a80edb252c7e71107fac78c29647be513" target="_top" xlink:title=" ">
<polygon fill="white" stroke="#666666" points="436,-353.78 344,-353.78 344,-334.78 436,-334.78 436,-353.78"/>
<text text-anchor="middle" x="390" y="-341.78" font-family="Helvetica,sans-Serif" font-size="10.00">MyList::getById</text>
</a>
</g>
</g>
<!-- Node2&#45;&gt;Node3 -->
<g id="edge2" class="edge">
<title>Node2&#45;&gt;Node3</title>
<path fill="none" stroke="#63b8ff" d="M270.58,-316.8C291.15,-321.58 316.25,-327.4 338.04,-332.45"/>
<polygon fill="#63b8ff" stroke="#63b8ff" points="337.25,-335.86 347.79,-334.72 338.84,-329.05 337.25,-335.86"/>
</g>
<!-- Node4 -->
<g id="node4" class="node">
<title>Node4</title>
<g id="a_node4"><a xlink:href="../../d8/d51/classMyList.html#a37366fbfd16acad1dfa69a141b339095" target="_top" xlink:title=" ">
<polygon fill="white" stroke="#666666" points="427,-316.78 353,-316.78 353,-297.78 427,-297.78 427,-316.78"/>
<text text-anchor="middle" x="390" y="-304.78" font-family="Helvetica,sans-Serif" font-size="10.00">MyList::size</text>
</a>
</g>
</g>
<!-- Node2&#45;&gt;Node4 -->
<g id="edge4" class="edge">
<title>Node2&#45;&gt;Node4</title>
<path fill="none" stroke="#63b8ff" d="M285.29,-307.28C304.06,-307.28 324.79,-307.28 342.74,-307.28"/>
<polygon fill="#63b8ff" stroke="#63b8ff" points="342.96,-310.78 352.96,-307.28 342.96,-303.78 342.96,-310.78"/>
</g>
<!-- Node6 -->
<g id="node6" class="node">
<title>Node6</title>
<g id="a_node6"><a xlink:href="../../d8/d51/classMyList.html#ab5e189776aca91f01ee5fe930318c289" target="_top" xlink:title=" ">
<polygon fill="white" stroke="#666666" points="431.5,-279.78 348.5,-279.78 348.5,-260.78 431.5,-260.78 431.5,-279.78"/>
<text text-anchor="middle" x="390" y="-267.78" font-family="Helvetica,sans-Serif" font-size="10.00">MyList::insert</text>
</a>
</g>
</g>
<!-- Node5&#45;&gt;Node6 -->
<g id="edge6" class="edge">
<title>Node5&#45;&gt;Node6</title>
<path fill="none" stroke="#63b8ff" d="M269.75,-241.86C290.8,-246.88 316.76,-253.06 339.07,-258.38"/>
<polygon fill="#63b8ff" stroke="#63b8ff" points="338.5,-261.84 349.04,-260.76 340.12,-255.03 338.5,-261.84"/>
</g>
<!-- Node8 -->
<g id="node8" class="node">
<title>Node8</title>
<g id="a_node8"><a xlink:href="../../d5/d55/classTObjectOnMap.html#ac427e764b888613f234e51f1b97b8754" target="_top" xlink:title=" ">
<polygon fill="white" stroke="#666666" points="621.5,-25.78 496.5,-25.78 496.5,-6.78 621.5,-6.78 621.5,-25.78"/>
<text text-anchor="middle" x="559" y="-13.78" font-family="Helvetica,sans-Serif" font-size="10.00">TObjectOnMap::DistTo</text>
</a>
</g>
</g>
<!-- Node7&#45;&gt;Node8 -->
<g id="edge8" class="edge">
<title>Node7&#45;&gt;Node8</title>
<path fill="none" stroke="#63b8ff" d="M283.83,-147.77C289.02,-145.29 293.87,-142.17 298,-138.28 334.17,-104.11 294.61,-62.68 334,-32.28 382.98,5.53 457.33,2.61 506.76,-5.07"/>
<polygon fill="#63b8ff" stroke="#63b8ff" points="506.47,-8.57 516.91,-6.77 507.62,-1.67 506.47,-8.57"/>
</g>
<!-- Node9 -->
<g id="node9" class="node">
<title>Node9</title>
<g id="a_node9"><a xlink:href="../../db/dab/classTPlaying.html#ab7d5a4c10c234917eb40c53b81186e80" target="_top" xlink:title=" ">
<polygon fill="white" stroke="#666666" points="443.5,-90.78 336.5,-90.78 336.5,-71.78 443.5,-71.78 443.5,-90.78"/>
<text text-anchor="middle" x="390" y="-78.78" font-family="Helvetica,sans-Serif" font-size="10.00">TPlaying::FindBest</text>
</a>
</g>
</g>
<!-- Node7&#45;&gt;Node9 -->
<g id="edge9" class="edge">
<title>Node7&#45;&gt;Node9</title>
<path fill="none" stroke="#63b8ff" d="M275.64,-147.71C283.36,-145.21 291.09,-142.11 298,-138.28 316.98,-127.75 315.81,-117.11 334,-105.28 339.87,-101.46 346.44,-97.99 352.95,-94.96"/>
<polygon fill="#63b8ff" stroke="#63b8ff" points="354.6,-98.05 362.35,-90.82 351.79,-91.64 354.6,-98.05"/>
</g>
<!-- Node10 -->
<g id="node10" class="node">
<title>Node10</title>
<g id="a_node10"><a xlink:href="../../d5/d55/classTObjectOnMap.html#a55207fb8607d587b3578745bc1062b17" target="_top" xlink:title=" ">
<polygon fill="white" stroke="#666666" points="618.5,-109.78 499.5,-109.78 499.5,-90.78 618.5,-90.78 618.5,-109.78"/>
<text text-anchor="middle" x="559" y="-97.78" font-family="Helvetica,sans-Serif" font-size="10.00">TObjectOnMap::GetX</text>
</a>
</g>
</g>
<!-- Node7&#45;&gt;Node10 -->
<g id="edge17" class="edge">
<title>Node7&#45;&gt;Node10</title>
<path fill="none" stroke="#63b8ff" d="M281.3,-147.73C298.11,-144.67 316.84,-141.29 334,-138.28 386.44,-129.06 445.86,-119 490.31,-111.54"/>
<polygon fill="#63b8ff" stroke="#63b8ff" points="491.14,-114.96 500.42,-109.85 489.98,-108.05 491.14,-114.96"/>
</g>
<!-- Node11 -->
<g id="node11" class="node">
<title>Node11</title>
<g id="a_node11"><a xlink:href="../../d5/d55/classTObjectOnMap.html#a4ef34ec3dde1bc159678f57aa463c972" target="_top" xlink:title=" ">
<polygon fill="white" stroke="#666666" points="618,-62.78 500,-62.78 500,-43.78 618,-43.78 618,-62.78"/>
<text text-anchor="middle" x="559" y="-50.78" font-family="Helvetica,sans-Serif" font-size="10.00">TObjectOnMap::GetY</text>
</a>
</g>
</g>
<!-- Node7&#45;&gt;Node11 -->
<g id="edge18" class="edge">
<title>Node7&#45;&gt;Node11</title>
<path fill="none" stroke="#63b8ff" d="M282.36,-147.73C288.01,-145.27 293.37,-142.17 298,-138.28 326.6,-114.21 302.82,-82.89 334,-62.28 386.28,-27.7 461.43,-33.07 509.99,-41.8"/>
<polygon fill="#63b8ff" stroke="#63b8ff" points="509.45,-45.26 519.93,-43.7 510.76,-38.39 509.45,-45.26"/>
</g>
<!-- Node12 -->
<g id="node12" class="node">
<title>Node12</title>
<g id="a_node12"><a xlink:href="../../db/dab/classTPlaying.html#aef014ab7b215fa8b936719318fcfd1a2" target="_top" xlink:title=" ">
<polygon fill="white" stroke="#666666" points="446,-166.78 334,-166.78 334,-147.78 446,-147.78 446,-166.78"/>
<text text-anchor="middle" x="390" y="-154.78" font-family="Helvetica,sans-Serif" font-size="10.00">TPlaying::GetSpeed</text>
</a>
</g>
</g>
<!-- Node7&#45;&gt;Node12 -->
<g id="edge13" class="edge">
<title>Node7&#45;&gt;Node12</title>
<path fill="none" stroke="#63b8ff" d="M287.53,-157.28C299.25,-157.28 311.63,-157.28 323.58,-157.28"/>
<polygon fill="#63b8ff" stroke="#63b8ff" points="323.93,-160.78 333.93,-157.28 323.93,-153.78 323.93,-160.78"/>
</g>
<!-- Node13 -->
<g id="node13" class="node">
<title>Node13</title>
<g id="a_node13"><a xlink:href="../../d3/d81/classTCargoShip.html#aac8aa5512f4e7ea9641f3a5812cc8722" target="_top" xlink:title=" ">
<polygon fill="white" stroke="#666666" points="634,-222.78 484,-222.78 484,-203.78 634,-203.78 634,-222.78"/>
<text text-anchor="middle" x="559" y="-210.78" font-family="Helvetica,sans-Serif" font-size="10.00">TCargoShip::GetWeightNow</text>
</a>
</g>
</g>
<!-- Node7&#45;&gt;Node13 -->
<g id="edge16" class="edge">
<title>Node7&#45;&gt;Node13</title>
<path fill="none" stroke="#63b8ff" d="M242.48,-166.99C261.41,-180.5 298.27,-204.3 334,-213.28 379.22,-224.63 431.21,-225.35 473.72,-222.9"/>
<polygon fill="#63b8ff" stroke="#63b8ff" points="473.99,-226.39 483.75,-222.26 473.55,-219.41 473.99,-226.39"/>
</g>
<!-- Node15 -->
<g id="node15" class="node">
<title>Node15</title>
<g id="a_node15"><a xlink:href="../../d1/d07/classTShip.html#a978c830c3ba51fecd4482819110a814e" target="_top" xlink:title=" ">
<polygon fill="white" stroke="#666666" points="440.5,-203.78 339.5,-203.78 339.5,-184.78 440.5,-184.78 440.5,-203.78"/>
<text text-anchor="middle" x="390" y="-191.78" font-family="Helvetica,sans-Serif" font-size="10.00">TShip::SetHPNow</text>
</a>
</g>
</g>
<!-- Node7&#45;&gt;Node15 -->
<g id="edge19" class="edge">
<title>Node7&#45;&gt;Node15</title>
<path fill="none" stroke="#63b8ff" d="M270.58,-166.8C291.15,-171.58 316.25,-177.4 338.04,-182.45"/>
<polygon fill="#63b8ff" stroke="#63b8ff" points="337.25,-185.86 347.79,-184.72 338.84,-179.05 337.25,-185.86"/>
</g>
<!-- Node9&#45;&gt;Node8 -->
<g id="edge10" class="edge">
<title>Node9&#45;&gt;Node8</title>
<path fill="none" stroke="#63b8ff" d="M406.57,-71.73C424.27,-61.25 454.32,-44.53 482,-34.28 487.62,-32.19 493.57,-30.3 499.56,-28.58"/>
<polygon fill="#63b8ff" stroke="#63b8ff" points="500.89,-31.84 509.63,-25.86 499.07,-25.08 500.89,-31.84"/>
</g>
<!-- Node9&#45;&gt;Node10 -->
<g id="edge11" class="edge">
<title>Node9&#45;&gt;Node10</title>
<path fill="none" stroke="#63b8ff" d="M443.84,-87.29C458.2,-88.92 473.97,-90.72 489.08,-92.43"/>
<polygon fill="#63b8ff" stroke="#63b8ff" points="489.08,-95.96 499.42,-93.61 489.88,-89 489.08,-95.96"/>
</g>
<!-- Node9&#45;&gt;Node11 -->
<g id="edge12" class="edge">
<title>Node9&#45;&gt;Node11</title>
<path fill="none" stroke="#63b8ff" d="M443.84,-72.42C458.81,-69.91 475.31,-67.14 491,-64.51"/>
<polygon fill="#63b8ff" stroke="#63b8ff" points="491.89,-67.91 501.17,-62.8 490.73,-61.01 491.89,-67.91"/>
</g>
<!-- Node12&#45;&gt;Node13 -->
<g id="edge14" class="edge">
<title>Node12&#45;&gt;Node13</title>
<path fill="none" stroke="#63b8ff" d="M419.71,-166.9C447.36,-176.17 489.36,-190.26 519.82,-200.47"/>
<polygon fill="#63b8ff" stroke="#63b8ff" points="519.07,-203.91 529.67,-203.77 521.3,-197.28 519.07,-203.91"/>
</g>
<!-- Node14 -->
<g id="node14" class="node">
<title>Node14</title>
<g id="a_node14"><a xlink:href="../../d3/d81/classTCargoShip.html#a2058989e985027329e36e55be4d83cc9" target="_top" xlink:title=" ">
<polygon fill="white" stroke="#666666" points="636,-166.78 482,-166.78 482,-147.78 636,-147.78 636,-166.78"/>
<text text-anchor="middle" x="559" y="-154.78" font-family="Helvetica,sans-Serif" font-size="10.00">TCargoShip::SpeedByWeight</text>
</a>
</g>
</g>
<!-- Node12&#45;&gt;Node14 -->
<g id="edge15" class="edge">
<title>Node12&#45;&gt;Node14</title>
<path fill="none" stroke="#63b8ff" d="M446.14,-157.28C454.34,-157.28 462.95,-157.28 471.6,-157.28"/>
<polygon fill="#63b8ff" stroke="#63b8ff" points="471.75,-160.78 481.75,-157.28 471.75,-153.78 471.75,-160.78"/>
</g>
</g>
</svg>
        <g id="navigator" transform="translate(0 0)" fill="#404254">
                <rect fill="#f2f5e9" fill-opacity="0.5" stroke="#606060" stroke-width=".5" x="0" y="0" width="60" height="60"/>
                <use id="zoomplus" xlink:href="#zoomPlus" x="17" y="9" onmousedown="handleZoom(evt,'in')"/>
                <use id="zoomminus" xlink:href="#zoomMin" x="42" y="9" onmousedown="handleZoom(evt,'out')"/>
                <use id="reset" xlink:href="#resetDef" x="30" y="36" onmousedown="handleReset()"/>
                <g id="arrowUp" xlink:href="#dirArrow" transform="translate(30 24)" onmousedown="handlePan(0,-1)">
                  <use xlink:href="#rim" fill="#404040">
                        <set attributeName="fill" to="#808080" begin="arrowUp.mouseover" end="arrowUp.mouseout"/>
                  </use>
                  <path fill="none" stroke="white" stroke-width="1.5" d="M0,-3.0v7 M-2.5,-0.5L0,-3.0L2.5,-0.5"/>
                </g>
                <g id="arrowRight" xlink:href="#dirArrow" transform="rotate(90) translate(36 -43)" onmousedown="handlePan(1,0)">
                  <use xlink:href="#rim" fill="#404040">
                        <set attributeName="fill" to="#808080" begin="arrowRight.mouseover" end="arrowRight.mouseout"/>
                  </use>
                  <path fill="none" stroke="white" stroke-width="1.5" d="M0,-3.0v7 M-2.5,-0.5L0,-3.0L2.5,-0.5"/>
                </g>
                <g id="arrowDown" xlink:href="#dirArrow" transform="rotate(180) translate(-30 -48)" onmousedown="handlePan(0,1)">
                  <use xlink:href="#rim" fill="#404040">
                        <set attributeName="fill" to="#808080" begin="arrowDown.mouseover" end="arrowDown.mouseout"/>
                  </use>
                  <path fill="none" stroke="white" stroke-width="1.5" d="M0,-3.0v7 M-2.5,-0.5L0,-3.0L2.5,-0.5"/>
                </g>
                <g id="arrowLeft" xlink:href="#dirArrow" transform="rotate(270) translate(-36 17)" onmousedown="handlePan(-1,0)">
                  <use xlink:href="#rim" fill="#404040">
                        <set attributeName="fill" to="#808080" begin="arrowLeft.mouseover" end="arrowLeft.mouseout"/>
                  </use>
                  <path fill="none" stroke="white" stroke-width="1.5" d="M0,-3.0v7 M-2.5,-0.5L0,-3.0L2.5,-0.5"/>
                </g>
        </g>
        <svg viewBox="0 0 15 15" width="100%" height="30px" preserveAspectRatio="xMaxYMin meet">
         <g id="arrow_out" transform="scale(0.3 0.3)">
          <a xlink:href="classTPlaying_a8599ce61fd2748b737b054b0a5c62647_cgraph_org.svg" target="_base">
           <rect id="button" ry="5" rx="5" y="6" x="6" height="38" width="38"
                fill="#f2f5e9" fill-opacity="0.5" stroke="#606060" stroke-width="1.0"/>
           <path id="arrow"
             d="M 11.500037,31.436501 C 11.940474,20.09759 22.043105,11.32322 32.158766,21.979434 L 37.068811,17.246167 C 37.068811,17.246167 37.088388,32 37.088388,32 L 22.160133,31.978069 C 22.160133,31.978069 26.997745,27.140456 26.997745,27.140456 C 18.528582,18.264221 13.291696,25.230495 11.500037,31.436501 z"
             style="fill:#404040;"/>
          </a>
         </g>
        </svg>
</svg>
