<?xml version="1.0" encoding="UTF-8" standalone="no"?>
<!DOCTYPE svg PUBLIC "-//W3C//DTD SVG 1.1//EN"
 "http://www.w3.org/Graphics/SVG/1.1/DTD/svg11.dtd">
<!-- Generated by graphviz version 2.43.0 (0)
 -->
<!-- Title: TPlaying::MakeShot Pages: 1 -->
<svg width="249pt" height="64pt"
 viewBox="0.00 0.00 249.00 64.00" xmlns="http://www.w3.org/2000/svg" xmlns:xlink="http://www.w3.org/1999/xlink">
<g id="graph0" class="graph" transform="scale(1 1) rotate(0) translate(4 60)">
<title>TPlaying::MakeShot</title>
<!-- Node1 -->
<g id="node1" class="node">
<title>Node1</title>
<g id="a_node1"><a xlink:title=" ">
<polygon fill="#999999" stroke="#666666" points="113,-37 0,-37 0,-18 113,-18 113,-37"/>
<text text-anchor="middle" x="56.5" y="-25" font-family="Helvetica,sans-Serif" font-size="10.00">TPlaying::MakeShot</text>
</a>
</g>
</g>
<!-- Node1&#45;&gt;Node1 -->
<g id="edge2" class="edge">
<title>Node1&#45;&gt;Node1</title>
<path fill="none" stroke="#63b8ff" d="M35.23,-37.08C24.88,-45.73 31.97,-55 56.5,-55 72.21,-55 80.77,-51.2 82.17,-46.19"/>
<polygon fill="#63b8ff" stroke="#63b8ff" points="85.27,-44.56 77.77,-37.08 78.97,-47.61 85.27,-44.56"/>
</g>
<!-- Node2 -->
<g id="node2" class="node">
<title>Node2</title>
<g id="a_node2"><a xlink:href="../../d8/d51/classMyList.html#a80edb252c7e71107fac78c29647be513" target="_top" xlink:title=" ">
<polygon fill="white" stroke="#666666" points="241,-56 149,-56 149,-37 241,-37 241,-56"/>
<text text-anchor="middle" x="195" y="-44" font-family="Helvetica,sans-Serif" font-size="10.00">MyList::getById</text>
</a>
</g>
</g>
<!-- Node1&#45;&gt;Node2 -->
<g id="edge1" class="edge">
<title>Node1&#45;&gt;Node2</title>
<path fill="none" stroke="#63b8ff" d="M113.02,-35.23C121.61,-36.42 130.49,-37.66 139.07,-38.85"/>
<polygon fill="#63b8ff" stroke="#63b8ff" points="138.59,-42.32 148.97,-40.23 139.55,-35.39 138.59,-42.32"/>
</g>
<!-- Node3 -->
<g id="node3" class="node">
<title>Node3</title>
<g id="a_node3"><a xlink:href="../../d8/d51/classMyList.html#a37366fbfd16acad1dfa69a141b339095" target="_top" xlink:title=" ">
<polygon fill="white" stroke="#666666" points="232,-19 158,-19 158,0 232,0 232,-19"/>
<text text-anchor="middle" x="195" y="-7" font-family="Helvetica,sans-Serif" font-size="10.00">MyList::size</text>
</a>
</g>
</g>
<!-- Node1&#45;&gt;Node3 -->
<g id="edge3" class="edge">
<title>Node1&#45;&gt;Node3</title>
<path fill="none" stroke="#63b8ff" d="M113.02,-20.18C124.55,-18.66 136.58,-17.07 147.73,-15.6"/>
<polygon fill="#63b8ff" stroke="#63b8ff" points="148.23,-19.07 157.69,-14.29 147.32,-12.13 148.23,-19.07"/>
</g>
</g>
</svg>
