<?xml version="1.0" encoding="UTF-8" standalone="no"?>
<!DOCTYPE svg PUBLIC "-//W3C//DTD SVG 1.1//EN"
 "http://www.w3.org/Graphics/SVG/1.1/DTD/svg11.dtd">
<!-- Generated by graphviz version 2.43.0 (0)
 -->
<!-- Title: TPlaying::FillIn Pages: 1 -->
<svg width="725pt" height="175pt"
 viewBox="0.00 0.00 725.00 175.00" xmlns="http://www.w3.org/2000/svg" xmlns:xlink="http://www.w3.org/1999/xlink">
<g id="graph0" class="graph" transform="scale(1 1) rotate(0) translate(4 171)">
<title>TPlaying::FillIn</title>
<!-- Node1 -->
<g id="node1" class="node">
<title>Node1</title>
<g id="a_node1"><a xlink:title=" ">
<polygon fill="#999999" stroke="#666666" points="717,-93 629,-93 629,-74 717,-74 717,-93"/>
<text text-anchor="middle" x="673" y="-81" font-family="Helvetica,sans-Serif" font-size="10.00">TPlaying::FillIn</text>
</a>
</g>
</g>
<!-- Node2 -->
<g id="node2" class="node">
<title>Node2</title>
<g id="a_node2"><a xlink:href="../../db/dab/classTPlaying.html#a2e156f71550516644fab0862e2599284" target="_top" xlink:title=" ">
<polygon fill="white" stroke="#666666" points="571,-167 457,-167 457,-148 571,-148 571,-167"/>
<text text-anchor="middle" x="514" y="-155" font-family="Helvetica,sans-Serif" font-size="10.00">TPlaying::DrawBase</text>
</a>
</g>
</g>
<!-- Node1&#45;&gt;Node2 -->
<g id="edge1" class="edge">
<title>Node1&#45;&gt;Node2</title>
<path fill="none" stroke="#63b8ff" d="M653.7,-99.64C638.45,-112.27 615.65,-129.34 593,-139.5 585.52,-142.86 577.34,-145.62 569.19,-147.89"/>
<polygon fill="#63b8ff" stroke="#63b8ff" points="655.98,-102.29 661.34,-93.15 651.45,-96.96 655.98,-102.29"/>
</g>
<!-- Node6 -->
<g id="node6" class="node">
<title>Node6</title>
<g id="a_node6"><a xlink:href="../../db/dab/classTPlaying.html#aca7c355d1279d2be9d1bfb54832608e2" target="_top" xlink:title=" ">
<polygon fill="white" stroke="#666666" points="584,-130 444,-130 444,-111 584,-111 584,-130"/>
<text text-anchor="middle" x="514" y="-118" font-family="Helvetica,sans-Serif" font-size="10.00">TPlaying::DrawCargoShip</text>
</a>
</g>
</g>
<!-- Node1&#45;&gt;Node6 -->
<g id="edge5" class="edge">
<title>Node1&#45;&gt;Node6</title>
<path fill="none" stroke="#63b8ff" d="M622.61,-95.45C612.8,-97.8 602.58,-100.24 593,-102.5 581.23,-105.27 568.45,-108.24 556.71,-110.95"/>
<polygon fill="#63b8ff" stroke="#63b8ff" points="623.73,-98.78 632.64,-93.04 622.1,-91.98 623.73,-98.78"/>
</g>
<!-- Node7 -->
<g id="node7" class="node">
<title>Node7</title>
<g id="a_node7"><a xlink:href="../../db/dab/classTPlaying.html#a6440ea7e27c02041156f20759d748f61" target="_top" xlink:title=" ">
<polygon fill="white" stroke="#666666" points="593,-93 435,-93 435,-74 593,-74 593,-93"/>
<text text-anchor="middle" x="514" y="-81" font-family="Helvetica,sans-Serif" font-size="10.00">TPlaying::DrawCargoWarShip</text>
</a>
</g>
</g>
<!-- Node1&#45;&gt;Node7 -->
<g id="edge7" class="edge">
<title>Node1&#45;&gt;Node7</title>
<path fill="none" stroke="#63b8ff" d="M618.54,-83.5C610.34,-83.5 601.73,-83.5 593.12,-83.5"/>
<polygon fill="#63b8ff" stroke="#63b8ff" points="618.68,-87 628.68,-83.5 618.68,-80 618.68,-87"/>
</g>
<!-- Node8 -->
<g id="node8" class="node">
<title>Node8</title>
<g id="a_node8"><a xlink:href="../../db/dab/classTPlaying.html#a9809c88608f55eadb7715f3618f850f6" target="_top" xlink:title=" ">
<polygon fill="white" stroke="#666666" points="585.5,-56 442.5,-56 442.5,-37 585.5,-37 585.5,-56"/>
<text text-anchor="middle" x="514" y="-44" font-family="Helvetica,sans-Serif" font-size="10.00">TPlaying::DrawPirateBase</text>
</a>
</g>
</g>
<!-- Node1&#45;&gt;Node8 -->
<g id="edge9" class="edge">
<title>Node1&#45;&gt;Node8</title>
<path fill="none" stroke="#63b8ff" d="M621.69,-71.64C600.32,-66.61 575.74,-60.82 555.57,-56.06"/>
<polygon fill="#63b8ff" stroke="#63b8ff" points="621.03,-75.08 631.57,-73.97 622.64,-68.27 621.03,-75.08"/>
</g>
<!-- Node9 -->
<g id="node9" class="node">
<title>Node9</title>
<g id="a_node9"><a xlink:href="../../db/dab/classTPlaying.html#a805bbfe7a1288c545be6910b31b170c5" target="_top" xlink:title=" ">
<polygon fill="white" stroke="#666666" points="579,-19 449,-19 449,0 579,0 579,-19"/>
<text text-anchor="middle" x="514" y="-7" font-family="Helvetica,sans-Serif" font-size="10.00">TPlaying::DrawWarShip</text>
</a>
</g>
</g>
<!-- Node1&#45;&gt;Node9 -->
<g id="edge11" class="edge">
<title>Node1&#45;&gt;Node9</title>
<path fill="none" stroke="#63b8ff" d="M652.93,-67.18C637.64,-54.88 615.16,-38.49 593,-28.5 584.49,-24.66 575.09,-21.53 565.85,-19"/>
<polygon fill="#63b8ff" stroke="#63b8ff" points="651.09,-70.2 661.04,-73.86 655.55,-64.8 651.09,-70.2"/>
</g>
<!-- Node3 -->
<g id="node3" class="node">
<title>Node3</title>
<g id="a_node3"><a xlink:href="../../db/dab/classTPlaying.html#a4cb98dff7d9a323fd893863f26b9c87d" target="_top" xlink:title=" ">
<polygon fill="white" stroke="#666666" points="399,-93 295,-93 295,-74 399,-74 399,-93"/>
<text text-anchor="middle" x="347" y="-81" font-family="Helvetica,sans-Serif" font-size="10.00">TPlaying::FillPoint</text>
</a>
</g>
</g>
<!-- Node2&#45;&gt;Node3 -->
<g id="edge2" class="edge">
<title>Node2&#45;&gt;Node3</title>
<path fill="none" stroke="#63b8ff" d="M450.54,-145.14C445.21,-143.47 439.96,-141.59 435,-139.5 406.04,-127.28 376.02,-105.6 359.92,-93.1"/>
<polygon fill="#63b8ff" stroke="#63b8ff" points="449.61,-148.51 460.19,-147.93 451.55,-141.79 449.61,-148.51"/>
</g>
<!-- Node4 -->
<g id="node4" class="node">
<title>Node4</title>
<g id="a_node4"><a xlink:href="../../db/dab/classTPlaying.html#a42f315c7d636f9ed24fe716a591c8d5e" target="_top" xlink:title=" ">
<polygon fill="white" stroke="#666666" points="259,-93 122,-93 122,-74 259,-74 259,-93"/>
<text text-anchor="middle" x="190.5" y="-81" font-family="Helvetica,sans-Serif" font-size="10.00">TPlaying::ShowOnScreen</text>
</a>
</g>
</g>
<!-- Node3&#45;&gt;Node4 -->
<g id="edge3" class="edge">
<title>Node3&#45;&gt;Node4</title>
<path fill="none" stroke="#63b8ff" d="M284.88,-83.5C276.47,-83.5 267.8,-83.5 259.27,-83.5"/>
<polygon fill="#63b8ff" stroke="#63b8ff" points="284.98,-87 294.98,-83.5 284.98,-80 284.98,-87"/>
</g>
<!-- Node5 -->
<g id="node5" class="node">
<title>Node5</title>
<g id="a_node5"><a xlink:href="../../db/dab/classTPlaying.html#a55b9a1e2159468036c18440cd361c749" target="_top" xlink:title=" ">
<polygon fill="white" stroke="#666666" points="86,-93 0,-93 0,-74 86,-74 86,-93"/>
<text text-anchor="middle" x="43" y="-81" font-family="Helvetica,sans-Serif" font-size="10.00">TPlaying::Play</text>
</a>
</g>
</g>
<!-- Node4&#45;&gt;Node5 -->
<g id="edge4" class="edge">
<title>Node4&#45;&gt;Node5</title>
<path fill="none" stroke="#63b8ff" d="M111.58,-83.5C102.83,-83.5 94.18,-83.5 86.15,-83.5"/>
<polygon fill="#63b8ff" stroke="#63b8ff" points="111.86,-87 121.86,-83.5 111.86,-80 111.86,-87"/>
</g>
<!-- Node6&#45;&gt;Node3 -->
<g id="edge6" class="edge">
<title>Node6&#45;&gt;Node3</title>
<path fill="none" stroke="#63b8ff" d="M460.73,-108.78C438.14,-103.71 412.03,-97.86 390.63,-93.06"/>
<polygon fill="#63b8ff" stroke="#63b8ff" points="459.98,-112.2 470.51,-110.97 461.52,-105.37 459.98,-112.2"/>
</g>
<!-- Node7&#45;&gt;Node3 -->
<g id="edge8" class="edge">
<title>Node7&#45;&gt;Node3</title>
<path fill="none" stroke="#63b8ff" d="M424.58,-83.5C415.85,-83.5 407.21,-83.5 399.05,-83.5"/>
<polygon fill="#63b8ff" stroke="#63b8ff" points="424.85,-87 434.85,-83.5 424.85,-80 424.85,-87"/>
</g>
<!-- Node8&#45;&gt;Node3 -->
<g id="edge10" class="edge">
<title>Node8&#45;&gt;Node3</title>
<path fill="none" stroke="#63b8ff" d="M460.73,-58.22C438.14,-63.29 412.03,-69.14 390.63,-73.94"/>
<polygon fill="#63b8ff" stroke="#63b8ff" points="461.52,-61.63 470.51,-56.03 459.98,-54.8 461.52,-61.63"/>
</g>
<!-- Node9&#45;&gt;Node3 -->
<g id="edge12" class="edge">
<title>Node9&#45;&gt;Node3</title>
<path fill="none" stroke="#63b8ff" d="M453.27,-21.92C447,-23.85 440.81,-26.03 435,-28.5 406.38,-40.65 376.47,-61.69 360.25,-73.92"/>
<polygon fill="#63b8ff" stroke="#63b8ff" points="454.47,-25.21 463.12,-19.09 452.54,-18.48 454.47,-25.21"/>
</g>
</g>
</svg>
