<?xml version="1.0" encoding="UTF-8" standalone="no"?>
<!DOCTYPE svg PUBLIC "-//W3C//DTD SVG 1.1//EN"
 "http://www.w3.org/Graphics/SVG/1.1/DTD/svg11.dtd">
<!-- Generated by graphviz version 2.43.0 (0)
 -->
<!-- Title: TPlaying::FindBest Pages: 1 -->
<svg width="276pt" height="101pt"
 viewBox="0.00 0.00 276.00 101.00" xmlns="http://www.w3.org/2000/svg" xmlns:xlink="http://www.w3.org/1999/xlink">
<g id="graph0" class="graph" transform="scale(1 1) rotate(0) translate(4 97)">
<title>TPlaying::FindBest</title>
<!-- Node1 -->
<g id="node1" class="node">
<title>Node1</title>
<g id="a_node1"><a xlink:title=" ">
<polygon fill="#999999" stroke="#666666" points="107,-56 0,-56 0,-37 107,-37 107,-56"/>
<text text-anchor="middle" x="53.5" y="-44" font-family="Helvetica,sans-Serif" font-size="10.00">TPlaying::FindBest</text>
</a>
</g>
</g>
<!-- Node2 -->
<g id="node2" class="node">
<title>Node2</title>
<g id="a_node2"><a xlink:href="../../d5/d55/classTObjectOnMap.html#ac427e764b888613f234e51f1b97b8754" target="_top" xlink:title=" ">
<polygon fill="white" stroke="#666666" points="268,-93 143,-93 143,-74 268,-74 268,-93"/>
<text text-anchor="middle" x="205.5" y="-81" font-family="Helvetica,sans-Serif" font-size="10.00">TObjectOnMap::DistTo</text>
</a>
</g>
</g>
<!-- Node1&#45;&gt;Node2 -->
<g id="edge1" class="edge">
<title>Node1&#45;&gt;Node2</title>
<path fill="none" stroke="#63b8ff" d="M93.13,-56.03C112.3,-60.76 135.66,-66.52 156.02,-71.54"/>
<polygon fill="#63b8ff" stroke="#63b8ff" points="155.19,-74.94 165.74,-73.94 156.87,-68.15 155.19,-74.94"/>
</g>
<!-- Node3 -->
<g id="node3" class="node">
<title>Node3</title>
<g id="a_node3"><a xlink:href="../../d5/d55/classTObjectOnMap.html#a55207fb8607d587b3578745bc1062b17" target="_top" xlink:title=" ">
<polygon fill="white" stroke="#666666" points="265,-56 146,-56 146,-37 265,-37 265,-56"/>
<text text-anchor="middle" x="205.5" y="-44" font-family="Helvetica,sans-Serif" font-size="10.00">TObjectOnMap::GetX</text>
</a>
</g>
</g>
<!-- Node1&#45;&gt;Node3 -->
<g id="edge2" class="edge">
<title>Node1&#45;&gt;Node3</title>
<path fill="none" stroke="#63b8ff" d="M107.38,-46.5C116.55,-46.5 126.2,-46.5 135.72,-46.5"/>
<polygon fill="#63b8ff" stroke="#63b8ff" points="135.97,-50 145.97,-46.5 135.97,-43 135.97,-50"/>
</g>
<!-- Node4 -->
<g id="node4" class="node">
<title>Node4</title>
<g id="a_node4"><a xlink:href="../../d5/d55/classTObjectOnMap.html#a4ef34ec3dde1bc159678f57aa463c972" target="_top" xlink:title=" ">
<polygon fill="white" stroke="#666666" points="264.5,-19 146.5,-19 146.5,0 264.5,0 264.5,-19"/>
<text text-anchor="middle" x="205.5" y="-7" font-family="Helvetica,sans-Serif" font-size="10.00">TObjectOnMap::GetY</text>
</a>
</g>
</g>
<!-- Node1&#45;&gt;Node4 -->
<g id="edge3" class="edge">
<title>Node1&#45;&gt;Node4</title>
<path fill="none" stroke="#63b8ff" d="M93.13,-36.97C112.3,-32.24 135.66,-26.48 156.02,-21.46"/>
<polygon fill="#63b8ff" stroke="#63b8ff" points="156.87,-24.85 165.74,-19.06 155.19,-18.06 156.87,-24.85"/>
</g>
</g>
</svg>
