<?xml version="1.0" encoding="UTF-8" standalone="no"?>
<!DOCTYPE svg PUBLIC "-//W3C//DTD SVG 1.1//EN"
 "http://www.w3.org/Graphics/SVG/1.1/DTD/svg11.dtd">
<!-- Generated by graphviz version 2.43.0 (0)
 -->
<!-- Title: TPlaying::ShowOnScreen Pages: 1 -->
<svg width="632pt" height="175pt"
 viewBox="0.00 0.00 632.00 175.00" xmlns="http://www.w3.org/2000/svg" xmlns:xlink="http://www.w3.org/1999/xlink">
<g id="graph0" class="graph" transform="scale(1 1) rotate(0) translate(4 171)">
<title>TPlaying::ShowOnScreen</title>
<!-- Node1 -->
<g id="node1" class="node">
<title>Node1</title>
<g id="a_node1"><a xlink:title=" ">
<polygon fill="#999999" stroke="#666666" points="137,-74 0,-74 0,-55 137,-55 137,-74"/>
<text text-anchor="middle" x="68.5" y="-62" font-family="Helvetica,sans-Serif" font-size="10.00">TPlaying::ShowOnScreen</text>
</a>
</g>
</g>
<!-- Node2 -->
<g id="node2" class="node">
<title>Node2</title>
<g id="a_node2"><a xlink:href="../../db/dab/classTPlaying.html#a4cb98dff7d9a323fd893863f26b9c87d" target="_top" xlink:title=" ">
<polygon fill="white" stroke="#666666" points="277,-93 173,-93 173,-74 277,-74 277,-93"/>
<text text-anchor="middle" x="225" y="-81" font-family="Helvetica,sans-Serif" font-size="10.00">TPlaying::FillPoint</text>
</a>
</g>
</g>
<!-- Node1&#45;&gt;Node2 -->
<g id="edge1" class="edge">
<title>Node1&#45;&gt;Node2</title>
<path fill="none" stroke="#63b8ff" d="M137.27,-72.83C145.68,-73.87 154.25,-74.92 162.56,-75.94"/>
<polygon fill="#63b8ff" stroke="#63b8ff" points="162.2,-79.43 172.55,-77.17 163.05,-72.48 162.2,-79.43"/>
</g>
<!-- Node11 -->
<g id="node11" class="node">
<title>Node11</title>
<g id="a_node11"><a xlink:href="../../db/dab/classTPlaying.html#a0f43d403bf5d61d112782be4e517c06d" target="_top" xlink:title=" ">
<polygon fill="white" stroke="#666666" points="275,-56 175,-56 175,-37 275,-37 275,-56"/>
<text text-anchor="middle" x="225" y="-44" font-family="Helvetica,sans-Serif" font-size="10.00">TPlaying::FillPole</text>
</a>
</g>
</g>
<!-- Node1&#45;&gt;Node11 -->
<g id="edge14" class="edge">
<title>Node1&#45;&gt;Node11</title>
<path fill="none" stroke="#63b8ff" d="M137.27,-56.6C146.46,-55.53 155.83,-54.44 164.85,-53.39"/>
<polygon fill="#63b8ff" stroke="#63b8ff" points="165.33,-56.86 174.86,-52.23 164.52,-49.91 165.33,-56.86"/>
</g>
<!-- Node3 -->
<g id="node3" class="node">
<title>Node3</title>
<g id="a_node3"><a xlink:href="../../db/dab/classTPlaying.html#a2e156f71550516644fab0862e2599284" target="_top" xlink:title=" ">
<polygon fill="white" stroke="#666666" points="449,-167 335,-167 335,-148 449,-148 449,-167"/>
<text text-anchor="middle" x="392" y="-155" font-family="Helvetica,sans-Serif" font-size="10.00">TPlaying::DrawBase</text>
</a>
</g>
</g>
<!-- Node2&#45;&gt;Node3 -->
<g id="edge2" class="edge">
<title>Node2&#45;&gt;Node3</title>
<path fill="none" stroke="#63b8ff" d="M237.92,-93.1C254.02,-105.6 284.04,-127.28 313,-139.5 317.96,-141.59 323.21,-143.47 328.54,-145.14"/>
<polygon fill="#63b8ff" stroke="#63b8ff" points="327.61,-148.51 338.19,-147.93 329.55,-141.79 327.61,-148.51"/>
</g>
<!-- Node6 -->
<g id="node6" class="node">
<title>Node6</title>
<g id="a_node6"><a xlink:href="../../db/dab/classTPlaying.html#aca7c355d1279d2be9d1bfb54832608e2" target="_top" xlink:title=" ">
<polygon fill="white" stroke="#666666" points="462,-130 322,-130 322,-111 462,-111 462,-130"/>
<text text-anchor="middle" x="392" y="-118" font-family="Helvetica,sans-Serif" font-size="10.00">TPlaying::DrawCargoShip</text>
</a>
</g>
</g>
<!-- Node2&#45;&gt;Node6 -->
<g id="edge5" class="edge">
<title>Node2&#45;&gt;Node6</title>
<path fill="none" stroke="#63b8ff" d="M268.49,-93.03C289.87,-97.82 315.97,-103.68 338.58,-108.75"/>
<polygon fill="#63b8ff" stroke="#63b8ff" points="337.84,-112.17 348.37,-110.94 339.37,-105.34 337.84,-112.17"/>
</g>
<!-- Node7 -->
<g id="node7" class="node">
<title>Node7</title>
<g id="a_node7"><a xlink:href="../../db/dab/classTPlaying.html#a6440ea7e27c02041156f20759d748f61" target="_top" xlink:title=" ">
<polygon fill="white" stroke="#666666" points="471,-93 313,-93 313,-74 471,-74 471,-93"/>
<text text-anchor="middle" x="392" y="-81" font-family="Helvetica,sans-Serif" font-size="10.00">TPlaying::DrawCargoWarShip</text>
</a>
</g>
</g>
<!-- Node2&#45;&gt;Node7 -->
<g id="edge7" class="edge">
<title>Node2&#45;&gt;Node7</title>
<path fill="none" stroke="#63b8ff" d="M277.3,-83.5C285.39,-83.5 293.95,-83.5 302.6,-83.5"/>
<polygon fill="#63b8ff" stroke="#63b8ff" points="302.77,-87 312.77,-83.5 302.77,-80 302.77,-87"/>
</g>
<!-- Node8 -->
<g id="node8" class="node">
<title>Node8</title>
<g id="a_node8"><a xlink:href="../../db/dab/classTPlaying.html#a9809c88608f55eadb7715f3618f850f6" target="_top" xlink:title=" ">
<polygon fill="white" stroke="#666666" points="463.5,-56 320.5,-56 320.5,-37 463.5,-37 463.5,-56"/>
<text text-anchor="middle" x="392" y="-44" font-family="Helvetica,sans-Serif" font-size="10.00">TPlaying::DrawPirateBase</text>
</a>
</g>
</g>
<!-- Node2&#45;&gt;Node8 -->
<g id="edge9" class="edge">
<title>Node2&#45;&gt;Node8</title>
<path fill="none" stroke="#63b8ff" d="M268.49,-73.97C289.87,-69.18 315.97,-63.32 338.58,-58.25"/>
<polygon fill="#63b8ff" stroke="#63b8ff" points="339.37,-61.66 348.37,-56.06 337.84,-54.83 339.37,-61.66"/>
</g>
<!-- Node9 -->
<g id="node9" class="node">
<title>Node9</title>
<g id="a_node9"><a xlink:href="../../db/dab/classTPlaying.html#a805bbfe7a1288c545be6910b31b170c5" target="_top" xlink:title=" ">
<polygon fill="white" stroke="#666666" points="457,-19 327,-19 327,0 457,0 457,-19"/>
<text text-anchor="middle" x="392" y="-7" font-family="Helvetica,sans-Serif" font-size="10.00">TPlaying::DrawWarShip</text>
</a>
</g>
</g>
<!-- Node2&#45;&gt;Node9 -->
<g id="edge11" class="edge">
<title>Node2&#45;&gt;Node9</title>
<path fill="none" stroke="#63b8ff" d="M259.95,-73.99C265.86,-71.65 271.78,-68.84 277,-65.5 296.33,-53.13 293.08,-39.88 313,-28.5 316.92,-26.26 321.09,-24.29 325.4,-22.54"/>
<polygon fill="#63b8ff" stroke="#63b8ff" points="326.76,-25.77 334.97,-19.08 324.38,-19.19 326.76,-25.77"/>
</g>
<!-- Node4 -->
<g id="node4" class="node">
<title>Node4</title>
<g id="a_node4"><a xlink:href="../../db/dab/classTPlaying.html#a658ffefee14a5d2049f7f7e1c031cd81" target="_top" xlink:title=" ">
<polygon fill="white" stroke="#666666" points="609.5,-93 521.5,-93 521.5,-74 609.5,-74 609.5,-93"/>
<text text-anchor="middle" x="565.5" y="-81" font-family="Helvetica,sans-Serif" font-size="10.00">TPlaying::FillIn</text>
</a>
</g>
</g>
<!-- Node3&#45;&gt;Node4 -->
<g id="edge3" class="edge">
<title>Node3&#45;&gt;Node4</title>
<path fill="none" stroke="#63b8ff" d="M444.89,-147.92C453.75,-145.61 462.75,-142.83 471,-139.5 497.39,-128.86 525.04,-111.4 543.37,-98.8"/>
<polygon fill="#63b8ff" stroke="#63b8ff" points="545.38,-101.66 551.57,-93.05 541.37,-95.92 545.38,-101.66"/>
</g>
<!-- Node5 -->
<g id="node5" class="node">
<title>Node5</title>
<g id="a_node5"><a xlink:href="../../d9/d38/classTBase.html#a66f564ea6287b2392bd593a9a8722e87" target="_top" xlink:title=" ">
<polygon fill="white" stroke="#666666" points="623.5,-167 507.5,-167 507.5,-148 623.5,-148 623.5,-167"/>
<text text-anchor="middle" x="565.5" y="-155" font-family="Helvetica,sans-Serif" font-size="10.00">TBase::GetBaseType</text>
</a>
</g>
</g>
<!-- Node3&#45;&gt;Node5 -->
<g id="edge4" class="edge">
<title>Node3&#45;&gt;Node5</title>
<path fill="none" stroke="#63b8ff" d="M449.16,-157.5C464.46,-157.5 481.2,-157.5 497.06,-157.5"/>
<polygon fill="#63b8ff" stroke="#63b8ff" points="497.34,-161 507.34,-157.5 497.34,-154 497.34,-161"/>
</g>
<!-- Node6&#45;&gt;Node4 -->
<g id="edge6" class="edge">
<title>Node6&#45;&gt;Node4</title>
<path fill="none" stroke="#63b8ff" d="M437.17,-110.97C459.83,-106.08 487.61,-100.09 511.43,-94.95"/>
<polygon fill="#63b8ff" stroke="#63b8ff" points="512.34,-98.33 521.37,-92.8 510.86,-91.49 512.34,-98.33"/>
</g>
<!-- Node7&#45;&gt;Node4 -->
<g id="edge8" class="edge">
<title>Node7&#45;&gt;Node4</title>
<path fill="none" stroke="#63b8ff" d="M471.22,-83.5C484.61,-83.5 498.25,-83.5 510.81,-83.5"/>
<polygon fill="#63b8ff" stroke="#63b8ff" points="511.08,-87 521.08,-83.5 511.08,-80 511.08,-87"/>
</g>
<!-- Node8&#45;&gt;Node4 -->
<g id="edge10" class="edge">
<title>Node8&#45;&gt;Node4</title>
<path fill="none" stroke="#63b8ff" d="M437.17,-56.03C459.83,-60.92 487.61,-66.91 511.43,-72.05"/>
<polygon fill="#63b8ff" stroke="#63b8ff" points="510.86,-75.51 521.37,-74.2 512.34,-68.67 510.86,-75.51"/>
</g>
<!-- Node9&#45;&gt;Node4 -->
<g id="edge12" class="edge">
<title>Node9&#45;&gt;Node4</title>
<path fill="none" stroke="#63b8ff" d="M441.96,-19.1C451.75,-21.66 461.83,-24.78 471,-28.5 496.98,-39.04 524.36,-55.91 542.72,-68.2"/>
<polygon fill="#63b8ff" stroke="#63b8ff" points="540.98,-71.24 551.21,-73.98 544.92,-65.46 540.98,-71.24"/>
</g>
<!-- Node10 -->
<g id="node10" class="node">
<title>Node10</title>
<g id="a_node10"><a xlink:href="../../d1/d07/classTShip.html#acce1d32955675a0258d5c78bd323f7cc" target="_top" xlink:title=" ">
<polygon fill="white" stroke="#666666" points="624,-19 507,-19 507,0 624,0 624,-19"/>
<text text-anchor="middle" x="565.5" y="-7" font-family="Helvetica,sans-Serif" font-size="10.00">TShip::GetShipName</text>
</a>
</g>
</g>
<!-- Node9&#45;&gt;Node10 -->
<g id="edge13" class="edge">
<title>Node9&#45;&gt;Node10</title>
<path fill="none" stroke="#63b8ff" d="M457.35,-9.5C470.17,-9.5 483.68,-9.5 496.62,-9.5"/>
<polygon fill="#63b8ff" stroke="#63b8ff" points="496.85,-13 506.85,-9.5 496.85,-6 496.85,-13"/>
</g>
</g>
</svg>
