<?xml version="1.0" encoding="UTF-8" standalone="no"?>
<!DOCTYPE svg PUBLIC "-//W3C//DTD SVG 1.1//EN"
 "http://www.w3.org/Graphics/SVG/1.1/DTD/svg11.dtd">
<!-- Generated by graphviz version 2.43.0 (0)
 -->
<!-- Title: TPlaying::Play Pages: 1 -->
<svg width="834pt" height="551pt"
 viewBox="0.00 0.00 834.00 551.00" xmlns="http://www.w3.org/2000/svg" xmlns:xlink="http://www.w3.org/1999/xlink">
<g id="graph0" class="graph" transform="scale(1 1) rotate(0) translate(4 547)">
<title>TPlaying::Play</title>
<!-- Node1 -->
<g id="node1" class="node">
<title>Node1</title>
<g id="a_node1"><a xlink:title=" ">
<polygon fill="#999999" stroke="#666666" points="86,-306 0,-306 0,-287 86,-287 86,-306"/>
<text text-anchor="middle" x="43" y="-294" font-family="Helvetica,sans-Serif" font-size="10.00">TPlaying::Play</text>
</a>
</g>
</g>
<!-- Node2 -->
<g id="node2" class="node">
<title>Node2</title>
<g id="a_node2"><a xlink:href="../../d1/d9d/classTimeHolder.html#a07ef47775ad596e4597dde926680eaa1" target="_top" xlink:title=" ">
<polygon fill="white" stroke="#666666" points="248.5,-417 132.5,-417 132.5,-398 248.5,-398 248.5,-417"/>
<text text-anchor="middle" x="190.5" y="-405" font-family="Helvetica,sans-Serif" font-size="10.00">TimeHolder::GetTact</text>
</a>
</g>
</g>
<!-- Node1&#45;&gt;Node2 -->
<g id="edge1" class="edge">
<title>Node1&#45;&gt;Node2</title>
<path fill="none" stroke="#63b8ff" d="M56.66,-306.16C81.7,-325.26 137.8,-368.06 168.48,-391.47"/>
<polygon fill="#63b8ff" stroke="#63b8ff" points="166.69,-394.5 176.77,-397.79 170.94,-388.94 166.69,-394.5"/>
</g>
<!-- Node4 -->
<g id="node4" class="node">
<title>Node4</title>
<g id="a_node4"><a xlink:href="../../db/dab/classTPlaying.html#a8a870c10a0e30f93551d5dc8b02bf93b" target="_top" xlink:title=" ">
<polygon fill="white" stroke="#666666" points="230.5,-343 150.5,-343 150.5,-324 230.5,-324 230.5,-343"/>
<text text-anchor="middle" x="190.5" y="-331" font-family="Helvetica,sans-Serif" font-size="10.00">TPlaying::Init</text>
</a>
</g>
</g>
<!-- Node1&#45;&gt;Node4 -->
<g id="edge3" class="edge">
<title>Node1&#45;&gt;Node4</title>
<path fill="none" stroke="#63b8ff" d="M81.47,-306.03C99.98,-310.74 122.52,-316.47 142.2,-321.47"/>
<polygon fill="#63b8ff" stroke="#63b8ff" points="141.35,-324.87 151.9,-323.94 143.08,-318.08 141.35,-324.87"/>
</g>
<!-- Node5 -->
<g id="node5" class="node">
<title>Node5</title>
<g id="a_node5"><a xlink:href="../../db/dab/classTPlaying.html#a8599ce61fd2748b737b054b0a5c62647" target="_top" xlink:title=" ">
<polygon fill="white" stroke="#666666" points="252,-306 129,-306 129,-287 252,-287 252,-306"/>
<text text-anchor="middle" x="190.5" y="-294" font-family="Helvetica,sans-Serif" font-size="10.00">TPlaying::MakeMoves</text>
</a>
</g>
</g>
<!-- Node1&#45;&gt;Node5 -->
<g id="edge4" class="edge">
<title>Node1&#45;&gt;Node5</title>
<path fill="none" stroke="#63b8ff" d="M86.08,-296.5C96.3,-296.5 107.51,-296.5 118.65,-296.5"/>
<polygon fill="#63b8ff" stroke="#63b8ff" points="118.84,-300 128.84,-296.5 118.84,-293 118.84,-300"/>
</g>
<!-- Node22 -->
<g id="node22" class="node">
<title>Node22</title>
<g id="a_node22"><a xlink:href="../../db/dab/classTPlaying.html#a42f315c7d636f9ed24fe716a591c8d5e" target="_top" xlink:title=" ">
<polygon fill="white" stroke="#666666" points="259,-213 122,-213 122,-194 259,-194 259,-213"/>
<text text-anchor="middle" x="190.5" y="-201" font-family="Helvetica,sans-Serif" font-size="10.00">TPlaying::ShowOnScreen</text>
</a>
</g>
</g>
<!-- Node1&#45;&gt;Node22 -->
<g id="edge26" class="edge">
<title>Node1&#45;&gt;Node22</title>
<path fill="none" stroke="#63b8ff" d="M59.02,-286.9C84.29,-270.75 135.49,-238.02 165.69,-218.72"/>
<polygon fill="#63b8ff" stroke="#63b8ff" points="167.8,-221.52 174.34,-213.19 164.03,-215.63 167.8,-221.52"/>
</g>
<!-- Node33 -->
<g id="node33" class="node">
<title>Node33</title>
<g id="a_node33"><a xlink:href="../../d1/d9d/classTimeHolder.html#afc0267165f81a3b975e60521a5e056eb" target="_top" xlink:title=" ">
<polygon fill="white" stroke="#666666" points="242,-176 139,-176 139,-157 242,-157 242,-176"/>
<text text-anchor="middle" x="190.5" y="-164" font-family="Helvetica,sans-Serif" font-size="10.00">TimeHolder::Start</text>
</a>
</g>
</g>
<!-- Node1&#45;&gt;Node33 -->
<g id="edge41" class="edge">
<title>Node1&#45;&gt;Node33</title>
<path fill="none" stroke="#63b8ff" d="M48.05,-286.8C57.58,-265.16 83.56,-212.73 122,-185.5 124.73,-183.56 127.66,-181.83 130.7,-180.26"/>
<polygon fill="#63b8ff" stroke="#63b8ff" points="132.39,-183.34 140.11,-176.09 129.55,-176.94 132.39,-183.34"/>
</g>
<!-- Node3 -->
<g id="node3" class="node">
<title>Node3</title>
<g id="a_node3"><a xlink:href="../../d1/d9d/classTimeHolder.html#abb450030013a9fd81dc9125500e08ac1" target="_top" xlink:title=" ">
<polygon fill="white" stroke="#666666" points="442,-436 295,-436 295,-417 442,-417 442,-436"/>
<text text-anchor="middle" x="368.5" y="-424" font-family="Helvetica,sans-Serif" font-size="10.00">TimeHolder::UpdateClocks</text>
</a>
</g>
</g>
<!-- Node2&#45;&gt;Node3 -->
<g id="edge2" class="edge">
<title>Node2&#45;&gt;Node3</title>
<path fill="none" stroke="#63b8ff" d="M248.64,-413.67C260.17,-414.91 272.51,-416.24 284.71,-417.56"/>
<polygon fill="#63b8ff" stroke="#63b8ff" points="284.59,-421.07 294.9,-418.66 285.34,-414.11 284.59,-421.07"/>
</g>
<!-- Node6 -->
<g id="node6" class="node">
<title>Node6</title>
<g id="a_node6"><a xlink:href="../../db/dab/classTPlaying.html#a029211b1dce0b41bb75ee19a8db34550" target="_top" xlink:title=" ">
<polygon fill="white" stroke="#666666" points="425,-233 312,-233 312,-214 425,-214 425,-233"/>
<text text-anchor="middle" x="368.5" y="-221" font-family="Helvetica,sans-Serif" font-size="10.00">TPlaying::MakeShot</text>
</a>
</g>
</g>
<!-- Node5&#45;&gt;Node6 -->
<g id="edge5" class="edge">
<title>Node5&#45;&gt;Node6</title>
<path fill="none" stroke="#63b8ff" d="M214.51,-286.96C245.34,-274.17 300.22,-251.41 335.19,-236.9"/>
<polygon fill="#63b8ff" stroke="#63b8ff" points="336.59,-240.11 344.49,-233.05 333.91,-233.64 336.59,-240.11"/>
</g>
<!-- Node9 -->
<g id="node9" class="node">
<title>Node9</title>
<g id="a_node9"><a xlink:href="../../db/dab/classTPlaying.html#ab30b266040a5de9cebdebc0e6130e2ac" target="_top" xlink:title=" ">
<polygon fill="white" stroke="#666666" points="430,-399 307,-399 307,-380 430,-380 430,-399"/>
<text text-anchor="middle" x="368.5" y="-387" font-family="Helvetica,sans-Serif" font-size="10.00">TPlaying::MakeSpawn</text>
</a>
</g>
</g>
<!-- Node5&#45;&gt;Node9 -->
<g id="edge9" class="edge">
<title>Node5&#45;&gt;Node9</title>
<path fill="none" stroke="#63b8ff" d="M241.39,-306.02C247.66,-308.48 253.71,-311.59 259,-315.5 282.79,-333.1 270.94,-354.27 295,-371.5 297.08,-372.99 299.26,-374.35 301.53,-375.6"/>
<polygon fill="#63b8ff" stroke="#63b8ff" points="300.07,-378.78 310.6,-379.9 303.06,-372.46 300.07,-378.78"/>
</g>
<!-- Node11 -->
<g id="node11" class="node">
<title>Node11</title>
<g id="a_node11"><a xlink:href="../../db/dab/classTPlaying.html#ae0d73d17b32678662ea5894822f4913a" target="_top" xlink:title=" ">
<polygon fill="white" stroke="#666666" points="427.5,-362 309.5,-362 309.5,-343 427.5,-343 427.5,-362"/>
<text text-anchor="middle" x="368.5" y="-350" font-family="Helvetica,sans-Serif" font-size="10.00">TPlaying::MoveShips</text>
</a>
</g>
</g>
<!-- Node5&#45;&gt;Node11 -->
<g id="edge11" class="edge">
<title>Node5&#45;&gt;Node11</title>
<path fill="none" stroke="#63b8ff" d="M230.87,-306.07C240.22,-308.76 250.07,-311.93 259,-315.5 275.8,-322.21 278.1,-328.05 295,-334.5 300.43,-336.57 306.19,-338.47 311.98,-340.19"/>
<polygon fill="#63b8ff" stroke="#63b8ff" points="311.16,-343.6 321.73,-342.93 313.05,-336.86 311.16,-343.6"/>
</g>
<!-- Node20 -->
<g id="node20" class="node">
<title>Node20</title>
<g id="a_node20"><a xlink:href="../../db/dab/classTPlaying.html#af7330a2cd413bb1934ba6c12c267722a" target="_top" xlink:title=" ">
<polygon fill="white" stroke="#666666" points="428,-325 309,-325 309,-306 428,-306 428,-325"/>
<text text-anchor="middle" x="368.5" y="-313" font-family="Helvetica,sans-Serif" font-size="10.00">TPlaying::RefillBases</text>
</a>
</g>
</g>
<!-- Node5&#45;&gt;Node20 -->
<g id="edge24" class="edge">
<title>Node5&#45;&gt;Node20</title>
<path fill="none" stroke="#63b8ff" d="M252.07,-303.04C267.16,-304.67 283.44,-306.43 298.89,-308.09"/>
<polygon fill="#63b8ff" stroke="#63b8ff" points="298.58,-311.58 308.9,-309.17 299.33,-304.62 298.58,-311.58"/>
</g>
<!-- Node21 -->
<g id="node21" class="node">
<title>Node21</title>
<g id="a_node21"><a xlink:href="../../db/dab/classTPlaying.html#ad407c73e7fccabda36c46de8e58b6fe4" target="_top" xlink:title=" ">
<polygon fill="white" stroke="#666666" points="438,-288 299,-288 299,-269 438,-269 438,-288"/>
<text text-anchor="middle" x="368.5" y="-276" font-family="Helvetica,sans-Serif" font-size="10.00">TPlaying::RemoveRipped</text>
</a>
</g>
</g>
<!-- Node5&#45;&gt;Node21 -->
<g id="edge25" class="edge">
<title>Node5&#45;&gt;Node21</title>
<path fill="none" stroke="#63b8ff" d="M252.07,-290.31C263.88,-289.1 276.42,-287.82 288.71,-286.56"/>
<polygon fill="#63b8ff" stroke="#63b8ff" points="289.37,-290.01 298.97,-285.51 288.66,-283.04 289.37,-290.01"/>
</g>
<!-- Node6&#45;&gt;Node6 -->
<g id="edge7" class="edge">
<title>Node6&#45;&gt;Node6</title>
<path fill="none" stroke="#63b8ff" d="M341.07,-233.08C327.72,-241.73 336.86,-251 368.5,-251 389.76,-251 400.86,-246.82 401.81,-241.45"/>
<polygon fill="#63b8ff" stroke="#63b8ff" points="404.55,-239.26 395.93,-233.08 398.82,-243.28 404.55,-239.26"/>
</g>
<!-- Node7 -->
<g id="node7" class="node">
<title>Node7</title>
<g id="a_node7"><a xlink:href="../../d8/d51/classMyList.html#a80edb252c7e71107fac78c29647be513" target="_top" xlink:title=" ">
<polygon fill="white" stroke="#666666" points="603,-241 511,-241 511,-222 603,-222 603,-241"/>
<text text-anchor="middle" x="557" y="-229" font-family="Helvetica,sans-Serif" font-size="10.00">MyList::getById</text>
</a>
</g>
</g>
<!-- Node6&#45;&gt;Node7 -->
<g id="edge6" class="edge">
<title>Node6&#45;&gt;Node7</title>
<path fill="none" stroke="#63b8ff" d="M425.2,-225.89C449.05,-226.91 476.82,-228.1 500.62,-229.12"/>
<polygon fill="#63b8ff" stroke="#63b8ff" points="500.77,-232.63 510.91,-229.57 501.07,-225.64 500.77,-232.63"/>
</g>
<!-- Node8 -->
<g id="node8" class="node">
<title>Node8</title>
<g id="a_node8"><a xlink:href="../../d8/d51/classMyList.html#a37366fbfd16acad1dfa69a141b339095" target="_top" xlink:title=" ">
<polygon fill="white" stroke="#666666" points="594,-204 520,-204 520,-185 594,-185 594,-204"/>
<text text-anchor="middle" x="557" y="-192" font-family="Helvetica,sans-Serif" font-size="10.00">MyList::size</text>
</a>
</g>
</g>
<!-- Node6&#45;&gt;Node8 -->
<g id="edge8" class="edge">
<title>Node6&#45;&gt;Node8</title>
<path fill="none" stroke="#63b8ff" d="M425.2,-214.84C452.18,-210.64 484.2,-205.66 509.8,-201.68"/>
<polygon fill="#63b8ff" stroke="#63b8ff" points="510.64,-205.09 519.99,-200.1 509.57,-198.18 510.64,-205.09"/>
</g>
<!-- Node10 -->
<g id="node10" class="node">
<title>Node10</title>
<g id="a_node10"><a xlink:href="../../d8/d51/classMyList.html#ab5e189776aca91f01ee5fe930318c289" target="_top" xlink:title=" ">
<polygon fill="white" stroke="#666666" points="598.5,-543 515.5,-543 515.5,-524 598.5,-524 598.5,-543"/>
<text text-anchor="middle" x="557" y="-531" font-family="Helvetica,sans-Serif" font-size="10.00">MyList::insert</text>
</a>
</g>
</g>
<!-- Node9&#45;&gt;Node10 -->
<g id="edge10" class="edge">
<title>Node9&#45;&gt;Node10</title>
<path fill="none" stroke="#63b8ff" d="M428.06,-399.14C433.15,-401.61 437.91,-404.68 442,-408.5 478.67,-442.75 440.83,-481.8 478,-515.5 485.64,-522.43 495.42,-526.86 505.44,-529.65"/>
<polygon fill="#63b8ff" stroke="#63b8ff" points="504.95,-533.12 515.47,-531.92 506.5,-526.3 504.95,-533.12"/>
</g>
<!-- Node12 -->
<g id="node12" class="node">
<title>Node12</title>
<g id="a_node12"><a xlink:href="../../d5/d55/classTObjectOnMap.html#ac427e764b888613f234e51f1b97b8754" target="_top" xlink:title=" ">
<polygon fill="white" stroke="#666666" points="811.5,-316 686.5,-316 686.5,-297 811.5,-297 811.5,-316"/>
<text text-anchor="middle" x="749" y="-304" font-family="Helvetica,sans-Serif" font-size="10.00">TObjectOnMap::DistTo</text>
</a>
</g>
</g>
<!-- Node11&#45;&gt;Node12 -->
<g id="edge12" class="edge">
<title>Node11&#45;&gt;Node12</title>
<path fill="none" stroke="#63b8ff" d="M427.81,-345.41C494.62,-337.29 604.12,-323.99 676.14,-315.23"/>
<polygon fill="#63b8ff" stroke="#63b8ff" points="676.98,-318.66 686.48,-313.98 676.13,-311.71 676.98,-318.66"/>
</g>
<!-- Node13 -->
<g id="node13" class="node">
<title>Node13</title>
<g id="a_node13"><a xlink:href="../../db/dab/classTPlaying.html#ab7d5a4c10c234917eb40c53b81186e80" target="_top" xlink:title=" ">
<polygon fill="white" stroke="#666666" points="610.5,-392 503.5,-392 503.5,-373 610.5,-373 610.5,-392"/>
<text text-anchor="middle" x="557" y="-380" font-family="Helvetica,sans-Serif" font-size="10.00">TPlaying::FindBest</text>
</a>
</g>
</g>
<!-- Node11&#45;&gt;Node13 -->
<g id="edge13" class="edge">
<title>Node11&#45;&gt;Node13</title>
<path fill="none" stroke="#63b8ff" d="M427.74,-361.87C448.59,-365.22 472.18,-369.02 493.38,-372.43"/>
<polygon fill="#63b8ff" stroke="#63b8ff" points="492.83,-375.88 503.26,-374.02 493.94,-368.97 492.83,-375.88"/>
</g>
<!-- Node14 -->
<g id="node14" class="node">
<title>Node14</title>
<g id="a_node14"><a xlink:href="../../d5/d55/classTObjectOnMap.html#a55207fb8607d587b3578745bc1062b17" target="_top" xlink:title=" ">
<polygon fill="white" stroke="#666666" points="808.5,-411 689.5,-411 689.5,-392 808.5,-392 808.5,-411"/>
<text text-anchor="middle" x="749" y="-399" font-family="Helvetica,sans-Serif" font-size="10.00">TObjectOnMap::GetX</text>
</a>
</g>
</g>
<!-- Node11&#45;&gt;Node14 -->
<g id="edge21" class="edge">
<title>Node11&#45;&gt;Node14</title>
<path fill="none" stroke="#63b8ff" d="M418.18,-362.1C426.36,-364.59 434.6,-367.69 442,-371.5 460.52,-381.03 458.42,-394.41 478,-401.5 547.71,-426.74 634.34,-420.79 690.37,-412.56"/>
<polygon fill="#63b8ff" stroke="#63b8ff" points="691.12,-415.99 700.47,-411 690.05,-409.07 691.12,-415.99"/>
</g>
<!-- Node15 -->
<g id="node15" class="node">
<title>Node15</title>
<g id="a_node15"><a xlink:href="../../d5/d55/classTObjectOnMap.html#a4ef34ec3dde1bc159678f57aa463c972" target="_top" xlink:title=" ">
<polygon fill="white" stroke="#666666" points="808,-364 690,-364 690,-345 808,-345 808,-364"/>
<text text-anchor="middle" x="749" y="-352" font-family="Helvetica,sans-Serif" font-size="10.00">TObjectOnMap::GetY</text>
</a>
</g>
</g>
<!-- Node11&#45;&gt;Node15 -->
<g id="edge22" class="edge">
<title>Node11&#45;&gt;Node15</title>
<path fill="none" stroke="#63b8ff" d="M427.81,-352.81C495.7,-353.17 607.69,-353.76 679.62,-354.14"/>
<polygon fill="#63b8ff" stroke="#63b8ff" points="679.92,-357.64 689.93,-354.19 679.95,-350.64 679.92,-357.64"/>
</g>
<!-- Node16 -->
<g id="node16" class="node">
<title>Node16</title>
<g id="a_node16"><a xlink:href="../../db/dab/classTPlaying.html#aef014ab7b215fa8b936719318fcfd1a2" target="_top" xlink:title=" ">
<polygon fill="white" stroke="#666666" points="613,-506 501,-506 501,-487 613,-487 613,-506"/>
<text text-anchor="middle" x="557" y="-494" font-family="Helvetica,sans-Serif" font-size="10.00">TPlaying::GetSpeed</text>
</a>
</g>
</g>
<!-- Node11&#45;&gt;Node16 -->
<g id="edge17" class="edge">
<title>Node11&#45;&gt;Node16</title>
<path fill="none" stroke="#63b8ff" d="M427.63,-362.05C432.87,-364.53 437.78,-367.63 442,-371.5 477.12,-403.72 443.57,-439.55 478,-472.5 482.26,-476.58 487.2,-479.97 492.49,-482.78"/>
<polygon fill="#63b8ff" stroke="#63b8ff" points="491.1,-485.99 501.64,-486.99 494.02,-479.63 491.1,-485.99"/>
</g>
<!-- Node17 -->
<g id="node17" class="node">
<title>Node17</title>
<g id="a_node17"><a xlink:href="../../d3/d81/classTCargoShip.html#aac8aa5512f4e7ea9641f3a5812cc8722" target="_top" xlink:title=" ">
<polygon fill="white" stroke="#666666" points="824,-468 674,-468 674,-449 824,-449 824,-468"/>
<text text-anchor="middle" x="749" y="-456" font-family="Helvetica,sans-Serif" font-size="10.00">TCargoShip::GetWeightNow</text>
</a>
</g>
</g>
<!-- Node11&#45;&gt;Node17 -->
<g id="edge20" class="edge">
<title>Node11&#45;&gt;Node17</title>
<path fill="none" stroke="#63b8ff" d="M423.71,-362.03C430.2,-364.49 436.47,-367.59 442,-371.5 465.25,-387.93 453.72,-409.62 478,-424.5 533.37,-458.42 607.11,-465.72 663.54,-465.21"/>
<polygon fill="#63b8ff" stroke="#63b8ff" points="663.93,-468.7 673.87,-465.02 663.81,-461.7 663.93,-468.7"/>
</g>
<!-- Node19 -->
<g id="node19" class="node">
<title>Node19</title>
<g id="a_node19"><a xlink:href="../../d1/d07/classTShip.html#a978c830c3ba51fecd4482819110a814e" target="_top" xlink:title=" ">
<polygon fill="white" stroke="#666666" points="607.5,-278 506.5,-278 506.5,-259 607.5,-259 607.5,-278"/>
<text text-anchor="middle" x="557" y="-266" font-family="Helvetica,sans-Serif" font-size="10.00">TShip::SetHPNow</text>
</a>
</g>
</g>
<!-- Node11&#45;&gt;Node19 -->
<g id="edge23" class="edge">
<title>Node11&#45;&gt;Node19</title>
<path fill="none" stroke="#63b8ff" d="M424.06,-342.91C430.35,-340.67 436.48,-337.9 442,-334.5 462.92,-321.59 457.44,-305.98 478,-292.5 484.74,-288.08 492.33,-284.44 500.07,-281.45"/>
<polygon fill="#63b8ff" stroke="#63b8ff" points="501.26,-284.74 509.53,-278.12 498.94,-278.14 501.26,-284.74"/>
</g>
<!-- Node13&#45;&gt;Node12 -->
<g id="edge14" class="edge">
<title>Node13&#45;&gt;Node12</title>
<path fill="none" stroke="#63b8ff" d="M581.56,-372.93C604.6,-363.59 640.68,-349 672,-336.5 685.75,-331.01 700.93,-325.01 714.08,-319.83"/>
<polygon fill="#63b8ff" stroke="#63b8ff" points="715.66,-322.97 723.68,-316.05 713.09,-316.45 715.66,-322.97"/>
</g>
<!-- Node13&#45;&gt;Node14 -->
<g id="edge15" class="edge">
<title>Node13&#45;&gt;Node14</title>
<path fill="none" stroke="#63b8ff" d="M610.67,-387.77C631.82,-389.88 656.47,-392.35 679.02,-394.6"/>
<polygon fill="#63b8ff" stroke="#63b8ff" points="678.9,-398.11 689.2,-395.62 679.6,-391.14 678.9,-398.11"/>
</g>
<!-- Node13&#45;&gt;Node15 -->
<g id="edge16" class="edge">
<title>Node13&#45;&gt;Node15</title>
<path fill="none" stroke="#63b8ff" d="M610.67,-374.74C632.1,-371.58 657.14,-367.89 679.93,-364.53"/>
<polygon fill="#63b8ff" stroke="#63b8ff" points="680.5,-367.99 689.88,-363.06 679.48,-361.06 680.5,-367.99"/>
</g>
<!-- Node16&#45;&gt;Node17 -->
<g id="edge18" class="edge">
<title>Node16&#45;&gt;Node17</title>
<path fill="none" stroke="#63b8ff" d="M605.95,-486.91C631.58,-481.78 663.34,-475.43 690.32,-470.04"/>
<polygon fill="#63b8ff" stroke="#63b8ff" points="691.28,-473.41 700.4,-468.02 689.91,-466.55 691.28,-473.41"/>
</g>
<!-- Node18 -->
<g id="node18" class="node">
<title>Node18</title>
<g id="a_node18"><a xlink:href="../../d3/d81/classTCargoShip.html#a2058989e985027329e36e55be4d83cc9" target="_top" xlink:title=" ">
<polygon fill="white" stroke="#666666" points="826,-506 672,-506 672,-487 826,-487 826,-506"/>
<text text-anchor="middle" x="749" y="-494" font-family="Helvetica,sans-Serif" font-size="10.00">TCargoShip::SpeedByWeight</text>
</a>
</g>
</g>
<!-- Node16&#45;&gt;Node18 -->
<g id="edge19" class="edge">
<title>Node16&#45;&gt;Node18</title>
<path fill="none" stroke="#63b8ff" d="M613.21,-496.5C628.36,-496.5 645.16,-496.5 661.62,-496.5"/>
<polygon fill="#63b8ff" stroke="#63b8ff" points="661.8,-500 671.8,-496.5 661.8,-493 661.8,-500"/>
</g>
<!-- Node23 -->
<g id="node23" class="node">
<title>Node23</title>
<g id="a_node23"><a xlink:href="../../db/dab/classTPlaying.html#a4cb98dff7d9a323fd893863f26b9c87d" target="_top" xlink:title=" ">
<polygon fill="white" stroke="#666666" points="420.5,-130 316.5,-130 316.5,-111 420.5,-111 420.5,-130"/>
<text text-anchor="middle" x="368.5" y="-118" font-family="Helvetica,sans-Serif" font-size="10.00">TPlaying::FillPoint</text>
</a>
</g>
</g>
<!-- Node22&#45;&gt;Node23 -->
<g id="edge27" class="edge">
<title>Node22&#45;&gt;Node23</title>
<path fill="none" stroke="#63b8ff" d="M234.59,-193.94C242.84,-191.57 251.29,-188.76 259,-185.5 290.85,-172.03 324.58,-150.53 345.82,-135.98"/>
<polygon fill="#63b8ff" stroke="#63b8ff" points="347.9,-138.79 354.11,-130.21 343.91,-133.05 347.9,-138.79"/>
</g>
<!-- Node32 -->
<g id="node32" class="node">
<title>Node32</title>
<g id="a_node32"><a xlink:href="../../db/dab/classTPlaying.html#a0f43d403bf5d61d112782be4e517c06d" target="_top" xlink:title=" ">
<polygon fill="white" stroke="#666666" points="418.5,-93 318.5,-93 318.5,-74 418.5,-74 418.5,-93"/>
<text text-anchor="middle" x="368.5" y="-81" font-family="Helvetica,sans-Serif" font-size="10.00">TPlaying::FillPole</text>
</a>
</g>
</g>
<!-- Node22&#45;&gt;Node32 -->
<g id="edge40" class="edge">
<title>Node22&#45;&gt;Node32</title>
<path fill="none" stroke="#63b8ff" d="M245.72,-193.92C250.52,-191.67 255.05,-188.9 259,-185.5 289.46,-159.26 264.48,-128.68 295,-102.5 299.2,-98.9 304,-95.97 309.09,-93.59"/>
<polygon fill="#63b8ff" stroke="#63b8ff" points="310.48,-96.8 318.49,-89.87 307.91,-90.29 310.48,-96.8"/>
</g>
<!-- Node24 -->
<g id="node24" class="node">
<title>Node24</title>
<g id="a_node24"><a xlink:href="../../db/dab/classTPlaying.html#a2e156f71550516644fab0862e2599284" target="_top" xlink:title=" ">
<polygon fill="white" stroke="#666666" points="614,-167 500,-167 500,-148 614,-148 614,-167"/>
<text text-anchor="middle" x="557" y="-155" font-family="Helvetica,sans-Serif" font-size="10.00">TPlaying::DrawBase</text>
</a>
</g>
</g>
<!-- Node23&#45;&gt;Node24 -->
<g id="edge28" class="edge">
<title>Node23&#45;&gt;Node24</title>
<path fill="none" stroke="#63b8ff" d="M417.53,-130.03C442.02,-134.89 471.99,-140.83 497.78,-145.95"/>
<polygon fill="#63b8ff" stroke="#63b8ff" points="497.32,-149.43 507.81,-147.94 498.68,-142.56 497.32,-149.43"/>
</g>
<!-- Node27 -->
<g id="node27" class="node">
<title>Node27</title>
<g id="a_node27"><a xlink:href="../../db/dab/classTPlaying.html#aca7c355d1279d2be9d1bfb54832608e2" target="_top" xlink:title=" ">
<polygon fill="white" stroke="#666666" points="627,-130 487,-130 487,-111 627,-111 627,-130"/>
<text text-anchor="middle" x="557" y="-118" font-family="Helvetica,sans-Serif" font-size="10.00">TPlaying::DrawCargoShip</text>
</a>
</g>
</g>
<!-- Node23&#45;&gt;Node27 -->
<g id="edge31" class="edge">
<title>Node23&#45;&gt;Node27</title>
<path fill="none" stroke="#63b8ff" d="M420.96,-120.5C438.23,-120.5 457.91,-120.5 476.81,-120.5"/>
<polygon fill="#63b8ff" stroke="#63b8ff" points="476.91,-124 486.91,-120.5 476.91,-117 476.91,-124"/>
</g>
<!-- Node28 -->
<g id="node28" class="node">
<title>Node28</title>
<g id="a_node28"><a xlink:href="../../db/dab/classTPlaying.html#a6440ea7e27c02041156f20759d748f61" target="_top" xlink:title=" ">
<polygon fill="white" stroke="#666666" points="636,-93 478,-93 478,-74 636,-74 636,-93"/>
<text text-anchor="middle" x="557" y="-81" font-family="Helvetica,sans-Serif" font-size="10.00">TPlaying::DrawCargoWarShip</text>
</a>
</g>
</g>
<!-- Node23&#45;&gt;Node28 -->
<g id="edge33" class="edge">
<title>Node23&#45;&gt;Node28</title>
<path fill="none" stroke="#63b8ff" d="M417.53,-110.97C442.02,-106.11 471.99,-100.17 497.78,-95.05"/>
<polygon fill="#63b8ff" stroke="#63b8ff" points="498.68,-98.44 507.81,-93.06 497.32,-91.57 498.68,-98.44"/>
</g>
<!-- Node29 -->
<g id="node29" class="node">
<title>Node29</title>
<g id="a_node29"><a xlink:href="../../db/dab/classTPlaying.html#a9809c88608f55eadb7715f3618f850f6" target="_top" xlink:title=" ">
<polygon fill="white" stroke="#666666" points="628.5,-56 485.5,-56 485.5,-37 628.5,-37 628.5,-56"/>
<text text-anchor="middle" x="557" y="-44" font-family="Helvetica,sans-Serif" font-size="10.00">TPlaying::DrawPirateBase</text>
</a>
</g>
</g>
<!-- Node23&#45;&gt;Node29 -->
<g id="edge35" class="edge">
<title>Node23&#45;&gt;Node29</title>
<path fill="none" stroke="#63b8ff" d="M420.82,-111.57C428.19,-109.22 435.48,-106.25 442,-102.5 461.9,-91.08 458.08,-76.88 478,-65.5 481.92,-63.26 486.09,-61.29 490.4,-59.54"/>
<polygon fill="#63b8ff" stroke="#63b8ff" points="491.76,-62.77 499.97,-56.08 489.38,-56.19 491.76,-62.77"/>
</g>
<!-- Node30 -->
<g id="node30" class="node">
<title>Node30</title>
<g id="a_node30"><a xlink:href="../../db/dab/classTPlaying.html#a805bbfe7a1288c545be6910b31b170c5" target="_top" xlink:title=" ">
<polygon fill="white" stroke="#666666" points="622,-19 492,-19 492,0 622,0 622,-19"/>
<text text-anchor="middle" x="557" y="-7" font-family="Helvetica,sans-Serif" font-size="10.00">TPlaying::DrawWarShip</text>
</a>
</g>
</g>
<!-- Node23&#45;&gt;Node30 -->
<g id="edge37" class="edge">
<title>Node23&#45;&gt;Node30</title>
<path fill="none" stroke="#63b8ff" d="M420.56,-113.9C428.3,-111.25 435.76,-107.58 442,-102.5 470.67,-79.16 449.13,-50.61 478,-27.5 479.59,-26.23 481.25,-25.05 482.97,-23.94"/>
<polygon fill="#63b8ff" stroke="#63b8ff" points="484.86,-26.9 492,-19.07 481.54,-20.74 484.86,-26.9"/>
</g>
<!-- Node25 -->
<g id="node25" class="node">
<title>Node25</title>
<g id="a_node25"><a xlink:href="../../db/dab/classTPlaying.html#a658ffefee14a5d2049f7f7e1c031cd81" target="_top" xlink:title=" ">
<polygon fill="white" stroke="#666666" points="793,-93 705,-93 705,-74 793,-74 793,-93"/>
<text text-anchor="middle" x="749" y="-81" font-family="Helvetica,sans-Serif" font-size="10.00">TPlaying::FillIn</text>
</a>
</g>
</g>
<!-- Node24&#45;&gt;Node25 -->
<g id="edge29" class="edge">
<title>Node24&#45;&gt;Node25</title>
<path fill="none" stroke="#63b8ff" d="M607.61,-147.91C617.15,-145.55 626.98,-142.75 636,-139.5 667.15,-128.3 700.86,-110.61 723.07,-98.12"/>
<polygon fill="#63b8ff" stroke="#63b8ff" points="724.89,-101.11 731.84,-93.12 721.42,-95.03 724.89,-101.11"/>
</g>
<!-- Node26 -->
<g id="node26" class="node">
<title>Node26</title>
<g id="a_node26"><a xlink:href="../../d9/d38/classTBase.html#a66f564ea6287b2392bd593a9a8722e87" target="_top" xlink:title=" ">
<polygon fill="white" stroke="#666666" points="807,-167 691,-167 691,-148 807,-148 807,-167"/>
<text text-anchor="middle" x="749" y="-155" font-family="Helvetica,sans-Serif" font-size="10.00">TBase::GetBaseType</text>
</a>
</g>
</g>
<!-- Node24&#45;&gt;Node26 -->
<g id="edge30" class="edge">
<title>Node24&#45;&gt;Node26</title>
<path fill="none" stroke="#63b8ff" d="M614.24,-157.5C635.11,-157.5 659,-157.5 680.76,-157.5"/>
<polygon fill="#63b8ff" stroke="#63b8ff" points="680.92,-161 690.92,-157.5 680.92,-154 680.92,-161"/>
</g>
<!-- Node27&#45;&gt;Node25 -->
<g id="edge32" class="edge">
<title>Node27&#45;&gt;Node25</title>
<path fill="none" stroke="#63b8ff" d="M606.93,-110.97C633.86,-105.73 667.31,-99.21 694.87,-93.85"/>
<polygon fill="#63b8ff" stroke="#63b8ff" points="695.59,-97.27 704.74,-91.92 694.25,-90.4 695.59,-97.27"/>
</g>
<!-- Node28&#45;&gt;Node25 -->
<g id="edge34" class="edge">
<title>Node28&#45;&gt;Node25</title>
<path fill="none" stroke="#63b8ff" d="M636.1,-83.5C655.87,-83.5 676.65,-83.5 694.87,-83.5"/>
<polygon fill="#63b8ff" stroke="#63b8ff" points="694.98,-87 704.98,-83.5 694.98,-80 694.98,-87"/>
</g>
<!-- Node29&#45;&gt;Node25 -->
<g id="edge36" class="edge">
<title>Node29&#45;&gt;Node25</title>
<path fill="none" stroke="#63b8ff" d="M606.93,-56.03C633.86,-61.27 667.31,-67.79 694.87,-73.15"/>
<polygon fill="#63b8ff" stroke="#63b8ff" points="694.25,-76.6 704.74,-75.08 695.59,-69.73 694.25,-76.6"/>
</g>
<!-- Node30&#45;&gt;Node25 -->
<g id="edge38" class="edge">
<title>Node30&#45;&gt;Node25</title>
<path fill="none" stroke="#63b8ff" d="M607.61,-19.09C617.15,-21.45 626.98,-24.25 636,-27.5 667.15,-38.7 700.86,-56.39 723.07,-68.88"/>
<polygon fill="#63b8ff" stroke="#63b8ff" points="721.42,-71.97 731.84,-73.88 724.89,-65.89 721.42,-71.97"/>
</g>
<!-- Node31 -->
<g id="node31" class="node">
<title>Node31</title>
<g id="a_node31"><a xlink:href="../../d1/d07/classTShip.html#acce1d32955675a0258d5c78bd323f7cc" target="_top" xlink:title=" ">
<polygon fill="white" stroke="#666666" points="807.5,-19 690.5,-19 690.5,0 807.5,0 807.5,-19"/>
<text text-anchor="middle" x="749" y="-7" font-family="Helvetica,sans-Serif" font-size="10.00">TShip::GetShipName</text>
</a>
</g>
</g>
<!-- Node30&#45;&gt;Node31 -->
<g id="edge39" class="edge">
<title>Node30&#45;&gt;Node31</title>
<path fill="none" stroke="#63b8ff" d="M622.06,-9.5C640.78,-9.5 661.3,-9.5 680.24,-9.5"/>
<polygon fill="#63b8ff" stroke="#63b8ff" points="680.28,-13 690.28,-9.5 680.28,-6 680.28,-13"/>
</g>
</g>
</svg>
