<?xml version="1.0" encoding="UTF-8" standalone="no"?>
<!DOCTYPE svg PUBLIC "-//W3C//DTD SVG 1.1//EN"
 "http://www.w3.org/Graphics/SVG/1.1/DTD/svg11.dtd">
<!-- Generated by graphviz version 2.43.0 (0)
 -->
<!-- Title: TPlaying::MoveShips Pages: 1 -->
<svg width="430pt" height="101pt"
 viewBox="0.00 0.00 430.00 101.00" xmlns="http://www.w3.org/2000/svg" xmlns:xlink="http://www.w3.org/1999/xlink">
<g id="graph0" class="graph" transform="scale(1 1) rotate(0) translate(4 97)">
<title>TPlaying::MoveShips</title>
<!-- Node1 -->
<g id="node1" class="node">
<title>Node1</title>
<g id="a_node1"><a xlink:title=" ">
<polygon fill="#999999" stroke="#666666" points="118,-56 0,-56 0,-37 118,-37 118,-56"/>
<text text-anchor="middle" x="59" y="-44" font-family="Helvetica,sans-Serif" font-size="10.00">TPlaying::MoveShips</text>
</a>
</g>
</g>
<!-- Node2 -->
<g id="node2" class="node">
<title>Node2</title>
<g id="a_node2"><a xlink:href="../../db/dab/classTPlaying.html#ab7d5a4c10c234917eb40c53b81186e80" target="_top" xlink:title=" ">
<polygon fill="white" stroke="#666666" points="261,-56 154,-56 154,-37 261,-37 261,-56"/>
<text text-anchor="middle" x="207.5" y="-44" font-family="Helvetica,sans-Serif" font-size="10.00">TPlaying::FindBest</text>
</a>
</g>
</g>
<!-- Node1&#45;&gt;Node2 -->
<g id="edge1" class="edge">
<title>Node1&#45;&gt;Node2</title>
<path fill="none" stroke="#63b8ff" d="M118.32,-46.5C126.6,-46.5 135.15,-46.5 143.52,-46.5"/>
<polygon fill="#63b8ff" stroke="#63b8ff" points="143.6,-50 153.6,-46.5 143.6,-43 143.6,-50"/>
</g>
<!-- Node4 -->
<g id="node4" class="node">
<title>Node4</title>
<g id="a_node4"><a xlink:href="../../d5/d55/classTObjectOnMap.html#a55207fb8607d587b3578745bc1062b17" target="_top" xlink:title=" ">
<polygon fill="white" stroke="#666666" points="419,-93 300,-93 300,-74 419,-74 419,-93"/>
<text text-anchor="middle" x="359.5" y="-81" font-family="Helvetica,sans-Serif" font-size="10.00">TObjectOnMap::GetX</text>
</a>
</g>
</g>
<!-- Node1&#45;&gt;Node4 -->
<g id="edge5" class="edge">
<title>Node1&#45;&gt;Node4</title>
<path fill="none" stroke="#63b8ff" d="M105.27,-56.09C120.68,-59.1 138.04,-62.24 154,-64.5 198.98,-70.88 249.84,-75.62 289.59,-78.76"/>
<polygon fill="#63b8ff" stroke="#63b8ff" points="289.46,-82.26 299.7,-79.55 290.01,-75.29 289.46,-82.26"/>
</g>
<!-- Node5 -->
<g id="node5" class="node">
<title>Node5</title>
<g id="a_node5"><a xlink:href="../../d5/d55/classTObjectOnMap.html#a4ef34ec3dde1bc159678f57aa463c972" target="_top" xlink:title=" ">
<polygon fill="white" stroke="#666666" points="418.5,-19 300.5,-19 300.5,0 418.5,0 418.5,-19"/>
<text text-anchor="middle" x="359.5" y="-7" font-family="Helvetica,sans-Serif" font-size="10.00">TObjectOnMap::GetY</text>
</a>
</g>
</g>
<!-- Node1&#45;&gt;Node5 -->
<g id="edge6" class="edge">
<title>Node1&#45;&gt;Node5</title>
<path fill="none" stroke="#63b8ff" d="M101.94,-36.98C118.14,-33.58 136.86,-29.98 154,-27.5 199.1,-20.98 250.17,-16.48 289.99,-13.61"/>
<polygon fill="#63b8ff" stroke="#63b8ff" points="290.39,-17.09 300.12,-12.9 289.9,-10.11 290.39,-17.09"/>
</g>
<!-- Node3 -->
<g id="node3" class="node">
<title>Node3</title>
<g id="a_node3"><a xlink:href="../../d5/d55/classTObjectOnMap.html#ac427e764b888613f234e51f1b97b8754" target="_top" xlink:title=" ">
<polygon fill="white" stroke="#666666" points="422,-56 297,-56 297,-37 422,-37 422,-56"/>
<text text-anchor="middle" x="359.5" y="-44" font-family="Helvetica,sans-Serif" font-size="10.00">TObjectOnMap::DistTo</text>
</a>
</g>
</g>
<!-- Node2&#45;&gt;Node3 -->
<g id="edge2" class="edge">
<title>Node2&#45;&gt;Node3</title>
<path fill="none" stroke="#63b8ff" d="M261.38,-46.5C269.63,-46.5 278.27,-46.5 286.84,-46.5"/>
<polygon fill="#63b8ff" stroke="#63b8ff" points="286.86,-50 296.86,-46.5 286.86,-43 286.86,-50"/>
</g>
<!-- Node2&#45;&gt;Node4 -->
<g id="edge3" class="edge">
<title>Node2&#45;&gt;Node4</title>
<path fill="none" stroke="#63b8ff" d="M247.13,-56.03C266.3,-60.76 289.66,-66.52 310.02,-71.54"/>
<polygon fill="#63b8ff" stroke="#63b8ff" points="309.19,-74.94 319.74,-73.94 310.87,-68.15 309.19,-74.94"/>
</g>
<!-- Node2&#45;&gt;Node5 -->
<g id="edge4" class="edge">
<title>Node2&#45;&gt;Node5</title>
<path fill="none" stroke="#63b8ff" d="M247.13,-36.97C266.3,-32.24 289.66,-26.48 310.02,-21.46"/>
<polygon fill="#63b8ff" stroke="#63b8ff" points="310.87,-24.85 319.74,-19.06 309.19,-18.06 310.87,-24.85"/>
</g>
</g>
</svg>
