<?xml version="1.0" encoding="UTF-8" standalone="no"?>
<!DOCTYPE svg PUBLIC "-//W3C//DTD SVG 1.1//EN"
 "http://www.w3.org/Graphics/SVG/1.1/DTD/svg11.dtd">
<!-- Generated by graphviz version 2.43.0 (0)
 -->
<!-- Title: TPlaying::MoveShips Pages: 1 -->
<svg width="464pt" height="244pt"
 viewBox="0.00 0.00 464.00 244.00" xmlns="http://www.w3.org/2000/svg" xmlns:xlink="http://www.w3.org/1999/xlink">
<g id="graph0" class="graph" transform="scale(1 1) rotate(0) translate(4 240)">
<title>TPlaying::MoveShips</title>
<!-- Node1 -->
<g id="node1" class="node">
<title>Node1</title>
<g id="a_node1"><a xlink:title=" ">
<polygon fill="#999999" stroke="#666666" points="118,-132 0,-132 0,-113 118,-113 118,-132"/>
<text text-anchor="middle" x="59" y="-120" font-family="Helvetica,sans-Serif" font-size="10.00">TPlaying::MoveShips</text>
</a>
</g>
</g>
<!-- Node2 -->
<g id="node2" class="node">
<title>Node2</title>
<g id="a_node2"><a xlink:href="../../d5/d55/classTObjectOnMap.html#ac427e764b888613f234e51f1b97b8754" target="_top" xlink:title=" ">
<polygon fill="white" stroke="#666666" points="441.5,-236 316.5,-236 316.5,-217 441.5,-217 441.5,-236"/>
<text text-anchor="middle" x="379" y="-224" font-family="Helvetica,sans-Serif" font-size="10.00">TObjectOnMap::DistTo</text>
</a>
</g>
</g>
<!-- Node1&#45;&gt;Node2 -->
<g id="edge1" class="edge">
<title>Node1&#45;&gt;Node2</title>
<path fill="none" stroke="#63b8ff" d="M68.48,-132.06C83.75,-148.56 117.67,-182.09 154,-197.5 202.16,-217.93 260.96,-224.94 306.23,-226.97"/>
<polygon fill="#63b8ff" stroke="#63b8ff" points="306.13,-230.47 316.26,-227.35 306.4,-223.47 306.13,-230.47"/>
</g>
<!-- Node3 -->
<g id="node3" class="node">
<title>Node3</title>
<g id="a_node3"><a xlink:href="../../db/dab/classTPlaying.html#ab7d5a4c10c234917eb40c53b81186e80" target="_top" xlink:title=" ">
<polygon fill="white" stroke="#666666" points="263.5,-170 156.5,-170 156.5,-151 263.5,-151 263.5,-170"/>
<text text-anchor="middle" x="210" y="-158" font-family="Helvetica,sans-Serif" font-size="10.00">TPlaying::FindBest</text>
</a>
</g>
</g>
<!-- Node1&#45;&gt;Node3 -->
<g id="edge2" class="edge">
<title>Node1&#45;&gt;Node3</title>
<path fill="none" stroke="#63b8ff" d="M97.6,-132.09C117.08,-137.06 141.07,-143.18 161.8,-148.46"/>
<polygon fill="#63b8ff" stroke="#63b8ff" points="161.12,-151.9 171.67,-150.98 162.85,-145.12 161.12,-151.9"/>
</g>
<!-- Node4 -->
<g id="node4" class="node">
<title>Node4</title>
<g id="a_node4"><a xlink:href="../../d5/d55/classTObjectOnMap.html#a55207fb8607d587b3578745bc1062b17" target="_top" xlink:title=" ">
<polygon fill="white" stroke="#666666" points="438.5,-180 319.5,-180 319.5,-161 438.5,-161 438.5,-180"/>
<text text-anchor="middle" x="379" y="-168" font-family="Helvetica,sans-Serif" font-size="10.00">TObjectOnMap::GetX</text>
</a>
</g>
</g>
<!-- Node1&#45;&gt;Node4 -->
<g id="edge10" class="edge">
<title>Node1&#45;&gt;Node4</title>
<path fill="none" stroke="#63b8ff" d="M71.19,-132.14C87.88,-145.83 120.91,-170.25 154,-179.5 210.63,-195.33 278.43,-189.34 324.5,-181.77"/>
<polygon fill="#63b8ff" stroke="#63b8ff" points="325.3,-185.19 334.56,-180.04 324.11,-178.29 325.3,-185.19"/>
</g>
<!-- Node5 -->
<g id="node5" class="node">
<title>Node5</title>
<g id="a_node5"><a xlink:href="../../d5/d55/classTObjectOnMap.html#a4ef34ec3dde1bc159678f57aa463c972" target="_top" xlink:title=" ">
<polygon fill="white" stroke="#666666" points="438,-137 320,-137 320,-118 438,-118 438,-137"/>
<text text-anchor="middle" x="379" y="-125" font-family="Helvetica,sans-Serif" font-size="10.00">TObjectOnMap::GetY</text>
</a>
</g>
</g>
<!-- Node1&#45;&gt;Node5 -->
<g id="edge11" class="edge">
<title>Node1&#45;&gt;Node5</title>
<path fill="none" stroke="#63b8ff" d="M118.33,-123.42C172.37,-124.27 252.77,-125.53 309.77,-126.43"/>
<polygon fill="#63b8ff" stroke="#63b8ff" points="309.72,-129.93 319.78,-126.58 309.83,-122.93 309.72,-129.93"/>
</g>
<!-- Node6 -->
<g id="node6" class="node">
<title>Node6</title>
<g id="a_node6"><a xlink:href="../../db/dab/classTPlaying.html#aef014ab7b215fa8b936719318fcfd1a2" target="_top" xlink:title=" ">
<polygon fill="white" stroke="#666666" points="266,-56 154,-56 154,-37 266,-37 266,-56"/>
<text text-anchor="middle" x="210" y="-44" font-family="Helvetica,sans-Serif" font-size="10.00">TPlaying::GetSpeed</text>
</a>
</g>
</g>
<!-- Node1&#45;&gt;Node6 -->
<g id="edge6" class="edge">
<title>Node1&#45;&gt;Node6</title>
<path fill="none" stroke="#63b8ff" d="M76.39,-112.82C94.95,-102 126.24,-84.2 154,-70.5 161.23,-66.93 169.11,-63.33 176.59,-60.04"/>
<polygon fill="#63b8ff" stroke="#63b8ff" points="177.98,-63.25 185.77,-56.07 175.2,-56.83 177.98,-63.25"/>
</g>
<!-- Node7 -->
<g id="node7" class="node">
<title>Node7</title>
<g id="a_node7"><a xlink:href="../../d3/d81/classTCargoShip.html#aac8aa5512f4e7ea9641f3a5812cc8722" target="_top" xlink:title=" ">
<polygon fill="white" stroke="#666666" points="454,-94 304,-94 304,-75 454,-75 454,-94"/>
<text text-anchor="middle" x="379" y="-82" font-family="Helvetica,sans-Serif" font-size="10.00">TCargoShip::GetWeightNow</text>
</a>
</g>
</g>
<!-- Node1&#45;&gt;Node7 -->
<g id="edge9" class="edge">
<title>Node1&#45;&gt;Node7</title>
<path fill="none" stroke="#63b8ff" d="M118.33,-115.53C167.45,-109.66 238.34,-101.19 293.65,-94.58"/>
<polygon fill="#63b8ff" stroke="#63b8ff" points="294.27,-98.03 303.79,-93.37 293.44,-91.08 294.27,-98.03"/>
</g>
<!-- Node9 -->
<g id="node9" class="node">
<title>Node9</title>
<g id="a_node9"><a xlink:href="../../d1/d07/classTShip.html#a978c830c3ba51fecd4482819110a814e" target="_top" xlink:title=" ">
<polygon fill="white" stroke="#666666" points="260.5,-19 159.5,-19 159.5,0 260.5,0 260.5,-19"/>
<text text-anchor="middle" x="210" y="-7" font-family="Helvetica,sans-Serif" font-size="10.00">TShip::SetHPNow</text>
</a>
</g>
</g>
<!-- Node1&#45;&gt;Node9 -->
<g id="edge12" class="edge">
<title>Node1&#45;&gt;Node9</title>
<path fill="none" stroke="#63b8ff" d="M66.91,-112.94C81.12,-93.95 115.51,-51.28 154,-27.5 156.61,-25.89 159.38,-24.41 162.23,-23.04"/>
<polygon fill="#63b8ff" stroke="#63b8ff" points="163.7,-26.22 171.53,-19.09 160.96,-19.78 163.7,-26.22"/>
</g>
<!-- Node3&#45;&gt;Node2 -->
<g id="edge3" class="edge">
<title>Node3&#45;&gt;Node2</title>
<path fill="none" stroke="#63b8ff" d="M235.28,-170.1C264.06,-181.47 312.17,-200.48 344.48,-213.25"/>
<polygon fill="#63b8ff" stroke="#63b8ff" points="343.37,-216.58 353.96,-217 345.94,-210.07 343.37,-216.58"/>
</g>
<!-- Node3&#45;&gt;Node4 -->
<g id="edge4" class="edge">
<title>Node3&#45;&gt;Node4</title>
<path fill="none" stroke="#63b8ff" d="M263.84,-163.66C278.2,-164.52 293.97,-165.47 309.08,-166.37"/>
<polygon fill="#63b8ff" stroke="#63b8ff" points="309.22,-169.89 319.42,-166.99 309.64,-162.9 309.22,-169.89"/>
</g>
<!-- Node3&#45;&gt;Node5 -->
<g id="edge5" class="edge">
<title>Node3&#45;&gt;Node5</title>
<path fill="none" stroke="#63b8ff" d="M259.3,-150.96C278.26,-147.21 300.17,-142.88 319.97,-138.97"/>
<polygon fill="#63b8ff" stroke="#63b8ff" points="320.67,-142.4 329.81,-137.02 319.32,-135.53 320.67,-142.4"/>
</g>
<!-- Node6&#45;&gt;Node7 -->
<g id="edge7" class="edge">
<title>Node6&#45;&gt;Node7</title>
<path fill="none" stroke="#63b8ff" d="M253.14,-56.09C275.38,-61.15 302.85,-67.4 326.36,-72.75"/>
<polygon fill="#63b8ff" stroke="#63b8ff" points="325.63,-76.17 336.16,-74.98 327.19,-69.35 325.63,-76.17"/>
</g>
<!-- Node8 -->
<g id="node8" class="node">
<title>Node8</title>
<g id="a_node8"><a xlink:href="../../d3/d81/classTCargoShip.html#a2058989e985027329e36e55be4d83cc9" target="_top" xlink:title=" ">
<polygon fill="white" stroke="#666666" points="456,-56 302,-56 302,-37 456,-37 456,-56"/>
<text text-anchor="middle" x="379" y="-44" font-family="Helvetica,sans-Serif" font-size="10.00">TCargoShip::SpeedByWeight</text>
</a>
</g>
</g>
<!-- Node6&#45;&gt;Node8 -->
<g id="edge8" class="edge">
<title>Node6&#45;&gt;Node8</title>
<path fill="none" stroke="#63b8ff" d="M266.14,-46.5C274.34,-46.5 282.95,-46.5 291.6,-46.5"/>
<polygon fill="#63b8ff" stroke="#63b8ff" points="291.75,-50 301.75,-46.5 291.75,-43 291.75,-50"/>
</g>
</g>
</svg>
