<?xml version="1.0" encoding="UTF-8" standalone="no"?>
<!DOCTYPE svg PUBLIC "-//W3C//DTD SVG 1.1//EN"
 "http://www.w3.org/Graphics/SVG/1.1/DTD/svg11.dtd">
<!-- Generated by graphviz version 2.43.0 (0)
 -->
<!-- Title: TPlaying::FillPoint Pages: 1 -->
<svg width="459pt" height="175pt"
 viewBox="0.00 0.00 459.00 175.00" xmlns="http://www.w3.org/2000/svg" xmlns:xlink="http://www.w3.org/1999/xlink">
<g id="graph0" class="graph" transform="scale(1 1) rotate(0) translate(4 171)">
<title>TPlaying::FillPoint</title>
<!-- Node1 -->
<g id="node1" class="node">
<title>Node1</title>
<g id="a_node1"><a xlink:title=" ">
<polygon fill="#999999" stroke="#666666" points="104,-93 0,-93 0,-74 104,-74 104,-93"/>
<text text-anchor="middle" x="52" y="-81" font-family="Helvetica,sans-Serif" font-size="10.00">TPlaying::FillPoint</text>
</a>
</g>
</g>
<!-- Node2 -->
<g id="node2" class="node">
<title>Node2</title>
<g id="a_node2"><a xlink:href="../../db/dab/classTPlaying.html#a2e156f71550516644fab0862e2599284" target="_top" xlink:title=" ">
<polygon fill="white" stroke="#666666" points="276,-167 162,-167 162,-148 276,-148 276,-167"/>
<text text-anchor="middle" x="219" y="-155" font-family="Helvetica,sans-Serif" font-size="10.00">TPlaying::DrawBase</text>
</a>
</g>
</g>
<!-- Node1&#45;&gt;Node2 -->
<g id="edge1" class="edge">
<title>Node1&#45;&gt;Node2</title>
<path fill="none" stroke="#63b8ff" d="M64.92,-93.1C81.02,-105.6 111.04,-127.28 140,-139.5 144.96,-141.59 150.21,-143.47 155.54,-145.14"/>
<polygon fill="#63b8ff" stroke="#63b8ff" points="154.61,-148.51 165.19,-147.93 156.55,-141.79 154.61,-148.51"/>
</g>
<!-- Node5 -->
<g id="node5" class="node">
<title>Node5</title>
<g id="a_node5"><a xlink:href="../../db/dab/classTPlaying.html#aca7c355d1279d2be9d1bfb54832608e2" target="_top" xlink:title=" ">
<polygon fill="white" stroke="#666666" points="289,-130 149,-130 149,-111 289,-111 289,-130"/>
<text text-anchor="middle" x="219" y="-118" font-family="Helvetica,sans-Serif" font-size="10.00">TPlaying::DrawCargoShip</text>
</a>
</g>
</g>
<!-- Node1&#45;&gt;Node5 -->
<g id="edge4" class="edge">
<title>Node1&#45;&gt;Node5</title>
<path fill="none" stroke="#63b8ff" d="M95.49,-93.03C116.87,-97.82 142.97,-103.68 165.58,-108.75"/>
<polygon fill="#63b8ff" stroke="#63b8ff" points="164.84,-112.17 175.37,-110.94 166.37,-105.34 164.84,-112.17"/>
</g>
<!-- Node6 -->
<g id="node6" class="node">
<title>Node6</title>
<g id="a_node6"><a xlink:href="../../db/dab/classTPlaying.html#a6440ea7e27c02041156f20759d748f61" target="_top" xlink:title=" ">
<polygon fill="white" stroke="#666666" points="298,-93 140,-93 140,-74 298,-74 298,-93"/>
<text text-anchor="middle" x="219" y="-81" font-family="Helvetica,sans-Serif" font-size="10.00">TPlaying::DrawCargoWarShip</text>
</a>
</g>
</g>
<!-- Node1&#45;&gt;Node6 -->
<g id="edge6" class="edge">
<title>Node1&#45;&gt;Node6</title>
<path fill="none" stroke="#63b8ff" d="M104.3,-83.5C112.39,-83.5 120.95,-83.5 129.6,-83.5"/>
<polygon fill="#63b8ff" stroke="#63b8ff" points="129.77,-87 139.77,-83.5 129.77,-80 129.77,-87"/>
</g>
<!-- Node7 -->
<g id="node7" class="node">
<title>Node7</title>
<g id="a_node7"><a xlink:href="../../db/dab/classTPlaying.html#a9809c88608f55eadb7715f3618f850f6" target="_top" xlink:title=" ">
<polygon fill="white" stroke="#666666" points="290.5,-56 147.5,-56 147.5,-37 290.5,-37 290.5,-56"/>
<text text-anchor="middle" x="219" y="-44" font-family="Helvetica,sans-Serif" font-size="10.00">TPlaying::DrawPirateBase</text>
</a>
</g>
</g>
<!-- Node1&#45;&gt;Node7 -->
<g id="edge8" class="edge">
<title>Node1&#45;&gt;Node7</title>
<path fill="none" stroke="#63b8ff" d="M95.49,-73.97C116.87,-69.18 142.97,-63.32 165.58,-58.25"/>
<polygon fill="#63b8ff" stroke="#63b8ff" points="166.37,-61.66 175.37,-56.06 164.84,-54.83 166.37,-61.66"/>
</g>
<!-- Node8 -->
<g id="node8" class="node">
<title>Node8</title>
<g id="a_node8"><a xlink:href="../../db/dab/classTPlaying.html#a805bbfe7a1288c545be6910b31b170c5" target="_top" xlink:title=" ">
<polygon fill="white" stroke="#666666" points="284,-19 154,-19 154,0 284,0 284,-19"/>
<text text-anchor="middle" x="219" y="-7" font-family="Helvetica,sans-Serif" font-size="10.00">TPlaying::DrawWarShip</text>
</a>
</g>
</g>
<!-- Node1&#45;&gt;Node8 -->
<g id="edge10" class="edge">
<title>Node1&#45;&gt;Node8</title>
<path fill="none" stroke="#63b8ff" d="M65.25,-73.92C81.47,-61.69 111.38,-40.65 140,-28.5 145.81,-26.03 152,-23.85 158.27,-21.92"/>
<polygon fill="#63b8ff" stroke="#63b8ff" points="159.47,-25.21 168.12,-19.09 157.54,-18.48 159.47,-25.21"/>
</g>
<!-- Node3 -->
<g id="node3" class="node">
<title>Node3</title>
<g id="a_node3"><a xlink:href="../../db/dab/classTPlaying.html#a658ffefee14a5d2049f7f7e1c031cd81" target="_top" xlink:title=" ">
<polygon fill="white" stroke="#666666" points="436.5,-93 348.5,-93 348.5,-74 436.5,-74 436.5,-93"/>
<text text-anchor="middle" x="392.5" y="-81" font-family="Helvetica,sans-Serif" font-size="10.00">TPlaying::FillIn</text>
</a>
</g>
</g>
<!-- Node2&#45;&gt;Node3 -->
<g id="edge2" class="edge">
<title>Node2&#45;&gt;Node3</title>
<path fill="none" stroke="#63b8ff" d="M271.89,-147.92C280.75,-145.61 289.75,-142.83 298,-139.5 324.39,-128.86 352.04,-111.4 370.37,-98.8"/>
<polygon fill="#63b8ff" stroke="#63b8ff" points="372.38,-101.66 378.57,-93.05 368.37,-95.92 372.38,-101.66"/>
</g>
<!-- Node4 -->
<g id="node4" class="node">
<title>Node4</title>
<g id="a_node4"><a xlink:href="../../d9/d38/classTBase.html#a66f564ea6287b2392bd593a9a8722e87" target="_top" xlink:title=" ">
<polygon fill="white" stroke="#666666" points="450.5,-167 334.5,-167 334.5,-148 450.5,-148 450.5,-167"/>
<text text-anchor="middle" x="392.5" y="-155" font-family="Helvetica,sans-Serif" font-size="10.00">TBase::GetBaseType</text>
</a>
</g>
</g>
<!-- Node2&#45;&gt;Node4 -->
<g id="edge3" class="edge">
<title>Node2&#45;&gt;Node4</title>
<path fill="none" stroke="#63b8ff" d="M276.16,-157.5C291.46,-157.5 308.2,-157.5 324.06,-157.5"/>
<polygon fill="#63b8ff" stroke="#63b8ff" points="324.34,-161 334.34,-157.5 324.34,-154 324.34,-161"/>
</g>
<!-- Node5&#45;&gt;Node3 -->
<g id="edge5" class="edge">
<title>Node5&#45;&gt;Node3</title>
<path fill="none" stroke="#63b8ff" d="M264.17,-110.97C286.83,-106.08 314.61,-100.09 338.43,-94.95"/>
<polygon fill="#63b8ff" stroke="#63b8ff" points="339.34,-98.33 348.37,-92.8 337.86,-91.49 339.34,-98.33"/>
</g>
<!-- Node6&#45;&gt;Node3 -->
<g id="edge7" class="edge">
<title>Node6&#45;&gt;Node3</title>
<path fill="none" stroke="#63b8ff" d="M298.22,-83.5C311.61,-83.5 325.25,-83.5 337.81,-83.5"/>
<polygon fill="#63b8ff" stroke="#63b8ff" points="338.08,-87 348.08,-83.5 338.08,-80 338.08,-87"/>
</g>
<!-- Node7&#45;&gt;Node3 -->
<g id="edge9" class="edge">
<title>Node7&#45;&gt;Node3</title>
<path fill="none" stroke="#63b8ff" d="M264.17,-56.03C286.83,-60.92 314.61,-66.91 338.43,-72.05"/>
<polygon fill="#63b8ff" stroke="#63b8ff" points="337.86,-75.51 348.37,-74.2 339.34,-68.67 337.86,-75.51"/>
</g>
<!-- Node8&#45;&gt;Node3 -->
<g id="edge11" class="edge">
<title>Node8&#45;&gt;Node3</title>
<path fill="none" stroke="#63b8ff" d="M268.96,-19.1C278.75,-21.66 288.83,-24.78 298,-28.5 323.98,-39.04 351.36,-55.91 369.72,-68.2"/>
<polygon fill="#63b8ff" stroke="#63b8ff" points="367.98,-71.24 378.21,-73.98 371.92,-65.46 367.98,-71.24"/>
</g>
<!-- Node9 -->
<g id="node9" class="node">
<title>Node9</title>
<g id="a_node9"><a xlink:href="../../d1/d07/classTShip.html#acce1d32955675a0258d5c78bd323f7cc" target="_top" xlink:title=" ">
<polygon fill="white" stroke="#666666" points="451,-19 334,-19 334,0 451,0 451,-19"/>
<text text-anchor="middle" x="392.5" y="-7" font-family="Helvetica,sans-Serif" font-size="10.00">TShip::GetShipName</text>
</a>
</g>
</g>
<!-- Node8&#45;&gt;Node9 -->
<g id="edge12" class="edge">
<title>Node8&#45;&gt;Node9</title>
<path fill="none" stroke="#63b8ff" d="M284.35,-9.5C297.17,-9.5 310.68,-9.5 323.62,-9.5"/>
<polygon fill="#63b8ff" stroke="#63b8ff" points="323.85,-13 333.85,-9.5 323.85,-6 323.85,-13"/>
</g>
</g>
</svg>
