<?xml version="1.0" encoding="UTF-8" standalone="no"?>
<!DOCTYPE svg PUBLIC "-//W3C//DTD SVG 1.1//EN"
 "http://www.w3.org/Graphics/SVG/1.1/DTD/svg11.dtd">
<!-- Generated by graphviz version 2.43.0 (0)
 -->
<!-- Title: TWeaponHolder::GetGunByPlace Pages: 1 -->
<!--zoomable 138 -->
<svg id="main" version="1.1" xmlns="http://www.w3.org/2000/svg" xmlns:xlink="http://www.w3.org/1999/xlink" xml:space="preserve" onload="init(evt)">
<style type="text/css"><![CDATA[
.edge:hover path { stroke: red; }
.edge:hover polygon { stroke: red; fill: red; }
]]></style>
<script type="text/javascript"><![CDATA[
var edges = document.getElementsByTagName('g');
if (edges && edges.length) {
  for (var i=0;i<edges.length;i++) {
    if (edges[i].id.substr(0,4)=='edge') {
      edges[i].setAttribute('class','edge');
    }
  }
}
]]></script>
        <defs>
                <circle id="rim" cx="0" cy="0" r="7"/>
                <circle id="rim2" cx="0" cy="0" r="3.5"/>
                <g id="zoomPlus">
                        <use xlink:href="#rim" fill="#404040">
                                <set attributeName="fill" to="#808080" begin="zoomplus.mouseover" end="zoomplus.mouseout"/>
                        </use>
                        <path d="M-4,0h8M0,-4v8" fill="none" stroke="white" stroke-width="1.5" pointer-events="none"/>
                </g>
                <g id="zoomMin">
                        <use xlink:href="#rim" fill="#404040">
                                <set attributeName="fill" to="#808080" begin="zoomminus.mouseover" end="zoomminus.mouseout"/>
                        </use>
                        <path d="M-4,0h8" fill="none" stroke="white" stroke-width="1.5" pointer-events="none"/>
                </g>
                <g id="dirArrow">
                        <path fill="none" stroke="white" stroke-width="1.5" d="M0,-3.0v7 M-2.5,-0.5L0,-3.0L2.5,-0.5"/>
                </g>
               <g id="resetDef">
                       <use xlink:href="#rim2" fill="#404040">
                               <set attributeName="fill" to="#808080" begin="reset.mouseover" end="reset.mouseout"/>
                       </use>
               </g>
        </defs>

<script type="text/javascript">
var viewWidth = 564;
var viewHeight = 138;
var sectionId = 'dynsection-5';
</script>
<script xlink:href="../../svgpan.js"/>
<svg id="graph" class="graph">
<g id="viewport">
<title>TWeaponHolder::GetGunByPlace</title>
<!-- Node1 -->
<g id="node1" class="node">
<title>Node1</title>
<g id="a_node1"><a xlink:title=" ">
<polygon fill="#999999" stroke="#666666" points="556,-74 380,-74 380,-55 556,-55 556,-74"/>
<text text-anchor="middle" x="468" y="-62" font-family="Helvetica,sans-Serif" font-size="10.00">TWeaponHolder::GetGunByPlace</text>
</a>
</g>
</g>
<!-- Node2 -->
<g id="node2" class="node">
<title>Node2</title>
<g id="a_node2"><a xlink:href="../../dc/de8/classTShop.html#ac463d2ee0ef76283f4dac87a51353c36" target="_top" xlink:title=" ">
<polygon fill="white" stroke="#666666" points="344,-130 253,-130 253,-111 344,-111 344,-130"/>
<text text-anchor="middle" x="298.5" y="-118" font-family="Helvetica,sans-Serif" font-size="10.00">TShop::BuyGun</text>
</a>
</g>
</g>
<!-- Node1&#45;&gt;Node2 -->
<g id="edge1" class="edge">
<title>Node1&#45;&gt;Node2</title>
<path fill="none" stroke="#63b8ff" d="M428.69,-77.31C398,-87.57 355.64,-101.73 327.92,-111"/>
<polygon fill="#63b8ff" stroke="#63b8ff" points="429.83,-80.62 438.21,-74.13 427.61,-73.98 429.83,-80.62"/>
</g>
<!-- Node6 -->
<g id="node6" class="node">
<title>Node6</title>
<g id="a_node6"><a xlink:href="../../da/d43/TestTWeaponHolder_8cpp.html#a402c7ab7f68fe4237ec4b67e10f76bc4" target="_top" xlink:title=" ">
<polygon fill="white" stroke="#666666" points="335.5,-93 261.5,-93 261.5,-74 335.5,-74 335.5,-93"/>
<text text-anchor="middle" x="298.5" y="-81" font-family="Helvetica,sans-Serif" font-size="10.00">operator==</text>
</a>
</g>
</g>
<!-- Node1&#45;&gt;Node6 -->
<g id="edge5" class="edge">
<title>Node1&#45;&gt;Node6</title>
<path fill="none" stroke="#63b8ff" d="M372.66,-75.2C359.51,-76.69 346.71,-78.14 335.6,-79.41"/>
<polygon fill="#63b8ff" stroke="#63b8ff" points="373.22,-78.66 382.76,-74.06 372.43,-71.71 373.22,-78.66"/>
</g>
<!-- Node7 -->
<g id="node7" class="node">
<title>Node7</title>
<g id="a_node7"><a xlink:href="../../dc/de8/classTShop.html#a7c75fe3801c08795282fefc2baae29b8" target="_top" xlink:title=" ">
<polygon fill="white" stroke="#666666" points="343.5,-56 253.5,-56 253.5,-37 343.5,-37 343.5,-56"/>
<text text-anchor="middle" x="298.5" y="-44" font-family="Helvetica,sans-Serif" font-size="10.00">TShop::SellGun</text>
</a>
</g>
</g>
<!-- Node1&#45;&gt;Node7 -->
<g id="edge6" class="edge">
<title>Node1&#45;&gt;Node7</title>
<path fill="none" stroke="#63b8ff" d="M369.85,-54.06C360.73,-53.08 351.82,-52.12 343.58,-51.24"/>
<polygon fill="#63b8ff" stroke="#63b8ff" points="369.5,-57.54 379.82,-55.13 370.25,-50.58 369.5,-57.54"/>
</g>
<!-- Node9 -->
<g id="node9" class="node">
<title>Node9</title>
<g id="a_node9"><a xlink:href="../../da/d43/TestTWeaponHolder_8cpp.html#aed24fe32b3023896b86910cd1e2124a1" target="_top" xlink:title=" ">
<polygon fill="white" stroke="#666666" points="319,-19 278,-19 278,0 319,0 319,-19"/>
<text text-anchor="middle" x="298.5" y="-7" font-family="Helvetica,sans-Serif" font-size="10.00">TEST</text>
</a>
</g>
</g>
<!-- Node1&#45;&gt;Node9 -->
<g id="edge9" class="edge">
<title>Node1&#45;&gt;Node9</title>
<path fill="none" stroke="#63b8ff" d="M428.2,-51.76C394.2,-40.6 346.16,-24.82 319.42,-16.04"/>
<polygon fill="#63b8ff" stroke="#63b8ff" points="427.23,-55.13 437.82,-54.92 429.41,-48.47 427.23,-55.13"/>
</g>
<!-- Node3 -->
<g id="node3" class="node">
<title>Node3</title>
<g id="a_node3"><a xlink:href="../../dc/de8/classTShop.html#a1dcf7617180c288121288af2ed21909b" target="_top" xlink:title=" ">
<polygon fill="white" stroke="#666666" points="217,-93 113,-93 113,-74 217,-74 217,-93"/>
<text text-anchor="middle" x="165" y="-81" font-family="Helvetica,sans-Serif" font-size="10.00">TShop::MainMenu</text>
</a>
</g>
</g>
<!-- Node2&#45;&gt;Node3 -->
<g id="edge2" class="edge">
<title>Node2&#45;&gt;Node3</title>
<path fill="none" stroke="#63b8ff" d="M253.69,-108.17C236.28,-103.27 216.54,-97.72 200.21,-93.12"/>
<polygon fill="#63b8ff" stroke="#63b8ff" points="253.06,-111.63 263.64,-110.97 254.96,-104.89 253.06,-111.63"/>
</g>
<!-- Node5 -->
<g id="node5" class="node">
<title>Node5</title>
<g id="a_node5"><a xlink:href="../../d6/de3/TestTShop_8cpp.html#a9090d51b3bf731e31e72a99c51bb40c1" target="_top" xlink:title=" ">
<polygon fill="white" stroke="#666666" points="185.5,-130 144.5,-130 144.5,-111 185.5,-111 185.5,-130"/>
<text text-anchor="middle" x="165" y="-118" font-family="Helvetica,sans-Serif" font-size="10.00">TEST</text>
</a>
</g>
</g>
<!-- Node2&#45;&gt;Node5 -->
<g id="edge4" class="edge">
<title>Node2&#45;&gt;Node5</title>
<path fill="none" stroke="#63b8ff" d="M242.89,-120.5C222.67,-120.5 201,-120.5 185.84,-120.5"/>
<polygon fill="#63b8ff" stroke="#63b8ff" points="242.98,-124 252.98,-120.5 242.98,-117 242.98,-124"/>
</g>
<!-- Node4 -->
<g id="node4" class="node">
<title>Node4</title>
<g id="a_node4"><a xlink:href="../../dc/de8/classTShop.html#a789d5e786476555b588aece81642f6f9" target="_top" xlink:title=" ">
<polygon fill="white" stroke="#666666" points="77,-93 0,-93 0,-74 77,-74 77,-93"/>
<text text-anchor="middle" x="38.5" y="-81" font-family="Helvetica,sans-Serif" font-size="10.00">TShop::Shop</text>
</a>
</g>
</g>
<!-- Node3&#45;&gt;Node4 -->
<g id="edge3" class="edge">
<title>Node3&#45;&gt;Node4</title>
<path fill="none" stroke="#63b8ff" d="M102.49,-83.5C93.8,-83.5 85.1,-83.5 77.05,-83.5"/>
<polygon fill="#63b8ff" stroke="#63b8ff" points="102.64,-87 112.64,-83.5 102.64,-80 102.64,-87"/>
</g>
<!-- Node7&#45;&gt;Node3 -->
<g id="edge7" class="edge">
<title>Node7&#45;&gt;Node3</title>
<path fill="none" stroke="#63b8ff" d="M253.69,-58.83C236.28,-63.73 216.54,-69.28 200.21,-73.88"/>
<polygon fill="#63b8ff" stroke="#63b8ff" points="254.96,-62.11 263.64,-56.03 253.06,-55.37 254.96,-62.11"/>
</g>
<!-- Node8 -->
<g id="node8" class="node">
<title>Node8</title>
<g id="a_node8"><a xlink:href="../../d6/de3/TestTShop_8cpp.html#a99ee2f047e7cb3a8b35e4f41ad4cbd01" target="_top" xlink:title=" ">
<polygon fill="white" stroke="#666666" points="185.5,-56 144.5,-56 144.5,-37 185.5,-37 185.5,-56"/>
<text text-anchor="middle" x="165" y="-44" font-family="Helvetica,sans-Serif" font-size="10.00">TEST</text>
</a>
</g>
</g>
<!-- Node7&#45;&gt;Node8 -->
<g id="edge8" class="edge">
<title>Node7&#45;&gt;Node8</title>
<path fill="none" stroke="#63b8ff" d="M243.17,-46.5C222.77,-46.5 200.85,-46.5 185.6,-46.5"/>
<polygon fill="#63b8ff" stroke="#63b8ff" points="243.35,-50 253.35,-46.5 243.35,-43 243.35,-50"/>
</g>
</g>
</svg>
        <g id="navigator" transform="translate(0 0)" fill="#404254">
                <rect fill="#f2f5e9" fill-opacity="0.5" stroke="#606060" stroke-width=".5" x="0" y="0" width="60" height="60"/>
                <use id="zoomplus" xlink:href="#zoomPlus" x="17" y="9" onmousedown="handleZoom(evt,'in')"/>
                <use id="zoomminus" xlink:href="#zoomMin" x="42" y="9" onmousedown="handleZoom(evt,'out')"/>
                <use id="reset" xlink:href="#resetDef" x="30" y="36" onmousedown="handleReset()"/>
                <g id="arrowUp" xlink:href="#dirArrow" transform="translate(30 24)" onmousedown="handlePan(0,-1)">
                  <use xlink:href="#rim" fill="#404040">
                        <set attributeName="fill" to="#808080" begin="arrowUp.mouseover" end="arrowUp.mouseout"/>
                  </use>
                  <path fill="none" stroke="white" stroke-width="1.5" d="M0,-3.0v7 M-2.5,-0.5L0,-3.0L2.5,-0.5"/>
                </g>
                <g id="arrowRight" xlink:href="#dirArrow" transform="rotate(90) translate(36 -43)" onmousedown="handlePan(1,0)">
                  <use xlink:href="#rim" fill="#404040">
                        <set attributeName="fill" to="#808080" begin="arrowRight.mouseover" end="arrowRight.mouseout"/>
                  </use>
                  <path fill="none" stroke="white" stroke-width="1.5" d="M0,-3.0v7 M-2.5,-0.5L0,-3.0L2.5,-0.5"/>
                </g>
                <g id="arrowDown" xlink:href="#dirArrow" transform="rotate(180) translate(-30 -48)" onmousedown="handlePan(0,1)">
                  <use xlink:href="#rim" fill="#404040">
                        <set attributeName="fill" to="#808080" begin="arrowDown.mouseover" end="arrowDown.mouseout"/>
                  </use>
                  <path fill="none" stroke="white" stroke-width="1.5" d="M0,-3.0v7 M-2.5,-0.5L0,-3.0L2.5,-0.5"/>
                </g>
                <g id="arrowLeft" xlink:href="#dirArrow" transform="rotate(270) translate(-36 17)" onmousedown="handlePan(-1,0)">
                  <use xlink:href="#rim" fill="#404040">
                        <set attributeName="fill" to="#808080" begin="arrowLeft.mouseover" end="arrowLeft.mouseout"/>
                  </use>
                  <path fill="none" stroke="white" stroke-width="1.5" d="M0,-3.0v7 M-2.5,-0.5L0,-3.0L2.5,-0.5"/>
                </g>
        </g>
        <svg viewBox="0 0 15 15" width="100%" height="30px" preserveAspectRatio="xMaxYMin meet">
         <g id="arrow_out" transform="scale(0.3 0.3)">
          <a xlink:href="classTWeaponHolder_a1c57748293f9f082f1598c51b288de34_icgraph_org.svg" target="_base">
           <rect id="button" ry="5" rx="5" y="6" x="6" height="38" width="38"
                fill="#f2f5e9" fill-opacity="0.5" stroke="#606060" stroke-width="1.0"/>
           <path id="arrow"
             d="M 11.500037,31.436501 C 11.940474,20.09759 22.043105,11.32322 32.158766,21.979434 L 37.068811,17.246167 C 37.068811,17.246167 37.088388,32 37.088388,32 L 22.160133,31.978069 C 22.160133,31.978069 26.997745,27.140456 26.997745,27.140456 C 18.528582,18.264221 13.291696,25.230495 11.500037,31.436501 z"
             style="fill:#404040;"/>
          </a>
         </g>
        </svg>
</svg>
