<?xml version="1.0" encoding="UTF-8" standalone="no"?>
<!DOCTYPE svg PUBLIC "-//W3C//DTD SVG 1.1//EN"
 "http://www.w3.org/Graphics/SVG/1.1/DTD/svg11.dtd">
<!-- Generated by graphviz version 2.43.0 (0)
 -->
<!-- Title: TWeaponHolder::createUniquePtrByGunPtr Pages: 1 -->
<svg width="596pt" height="101pt"
 viewBox="0.00 0.00 596.00 101.00" xmlns="http://www.w3.org/2000/svg" xmlns:xlink="http://www.w3.org/1999/xlink">
<g id="graph0" class="graph" transform="scale(1 1) rotate(0) translate(4 97)">
<title>TWeaponHolder::createUniquePtrByGunPtr</title>
<!-- Node1 -->
<g id="node1" class="node">
<title>Node1</title>
<g id="a_node1"><a xlink:title=" ">
<polygon fill="#999999" stroke="#666666" points="588,-61.5 423,-61.5 423,-31.5 588,-31.5 588,-61.5"/>
<text text-anchor="start" x="431" y="-49.5" font-family="Helvetica,sans-Serif" font-size="10.00">TWeaponHolder::createUnique</text>
<text text-anchor="middle" x="505.5" y="-38.5" font-family="Helvetica,sans-Serif" font-size="10.00">PtrByGunPtr</text>
</a>
</g>
</g>
<!-- Node2 -->
<g id="node2" class="node">
<title>Node2</title>
<g id="a_node2"><a xlink:href="../../d4/de2/classTWeaponHolder.html#a406848fe7546ce72723653687232701a" target="_top" xlink:title=" ">
<polygon fill="white" stroke="#666666" points="387,-56 213,-56 213,-37 387,-37 387,-56"/>
<text text-anchor="middle" x="300" y="-44" font-family="Helvetica,sans-Serif" font-size="10.00">TWeaponHolder::SetGunByPlace</text>
</a>
</g>
</g>
<!-- Node1&#45;&gt;Node2 -->
<g id="edge1" class="edge">
<title>Node1&#45;&gt;Node2</title>
<path fill="none" stroke="#63b8ff" d="M412.66,-46.5C404.21,-46.5 395.67,-46.5 387.28,-46.5"/>
<polygon fill="#63b8ff" stroke="#63b8ff" points="412.9,-50 422.9,-46.5 412.9,-43 412.9,-50"/>
</g>
<!-- Node3 -->
<g id="node3" class="node">
<title>Node3</title>
<g id="a_node3"><a xlink:href="../../d4/de2/classTWeaponHolder.html#a4593dd1194e80fe9c0a38f58a5e3be8e" target="_top" xlink:title=" ">
<polygon fill="white" stroke="#666666" points="163,-93 14,-93 14,-74 163,-74 163,-93"/>
<text text-anchor="middle" x="88.5" y="-81" font-family="Helvetica,sans-Serif" font-size="10.00">TWeaponHolder::operator=</text>
</a>
</g>
</g>
<!-- Node2&#45;&gt;Node3 -->
<g id="edge2" class="edge">
<title>Node2&#45;&gt;Node3</title>
<path fill="none" stroke="#63b8ff" d="M234.94,-57.81C205.74,-62.97 171.53,-69.01 143.63,-73.94"/>
<polygon fill="#63b8ff" stroke="#63b8ff" points="235.81,-61.21 245.05,-56.03 234.59,-54.32 235.81,-61.21"/>
</g>
<!-- Node4 -->
<g id="node4" class="node">
<title>Node4</title>
<g id="a_node4"><a xlink:href="../../da/d43/TestTWeaponHolder_8cpp.html#a5626fd1e5a4964c0f09582ab08d089f8" target="_top" xlink:title=" ">
<polygon fill="white" stroke="#666666" points="109,-56 68,-56 68,-37 109,-37 109,-56"/>
<text text-anchor="middle" x="88.5" y="-44" font-family="Helvetica,sans-Serif" font-size="10.00">TEST</text>
</a>
</g>
</g>
<!-- Node2&#45;&gt;Node4 -->
<g id="edge3" class="edge">
<title>Node2&#45;&gt;Node4</title>
<path fill="none" stroke="#63b8ff" d="M202.53,-46.5C167.41,-46.5 131.04,-46.5 109.35,-46.5"/>
<polygon fill="#63b8ff" stroke="#63b8ff" points="202.88,-50 212.88,-46.5 202.88,-43 202.88,-50"/>
</g>
<!-- Node5 -->
<g id="node5" class="node">
<title>Node5</title>
<g id="a_node5"><a xlink:href="../../d4/de2/classTWeaponHolder.html#ac318361c4e724468f5e89ba9d3af0946" target="_top" xlink:title=" ">
<polygon fill="white" stroke="#666666" points="177,-19 0,-19 0,0 177,0 177,-19"/>
<text text-anchor="middle" x="88.5" y="-7" font-family="Helvetica,sans-Serif" font-size="10.00">TWeaponHolder::TWeaponHolder</text>
</a>
</g>
</g>
<!-- Node2&#45;&gt;Node5 -->
<g id="edge4" class="edge">
<title>Node2&#45;&gt;Node5</title>
<path fill="none" stroke="#63b8ff" d="M234.94,-35.19C205.74,-30.03 171.53,-23.99 143.63,-19.06"/>
<polygon fill="#63b8ff" stroke="#63b8ff" points="234.59,-38.68 245.05,-36.97 235.81,-31.79 234.59,-38.68"/>
</g>
</g>
</svg>
