<?xml version="1.0" encoding="UTF-8" standalone="no"?>
<!DOCTYPE svg PUBLIC "-//W3C//DTD SVG 1.1//EN"
 "http://www.w3.org/Graphics/SVG/1.1/DTD/svg11.dtd">
<!-- Generated by graphviz version 2.43.0 (0)
 -->
<!-- Title: TWeaponHolder::GetCost Pages: 1 -->
<svg width="873pt" height="139pt"
 viewBox="0.00 0.00 873.00 139.00" xmlns="http://www.w3.org/2000/svg" xmlns:xlink="http://www.w3.org/1999/xlink">
<g id="graph0" class="graph" transform="scale(1 1) rotate(0) translate(4 135)">
<title>TWeaponHolder::GetCost</title>
<!-- Node1 -->
<g id="node1" class="node">
<title>Node1</title>
<g id="a_node1"><a xlink:title=" ">
<polygon fill="#999999" stroke="#666666" points="865,-94 726,-94 726,-75 865,-75 865,-94"/>
<text text-anchor="middle" x="795.5" y="-82" font-family="Helvetica,sans-Serif" font-size="10.00">TWeaponHolder::GetCost</text>
</a>
</g>
</g>
<!-- Node2 -->
<g id="node2" class="node">
<title>Node2</title>
<g id="a_node2"><a xlink:href="../../db/df3/classTWarShip.html#a1deb0d2b3eee3d1a4a9976ae55300307" target="_top" xlink:title=" ">
<polygon fill="white" stroke="#666666" points="690,-94 535,-94 535,-75 690,-75 690,-94"/>
<text text-anchor="middle" x="612.5" y="-82" font-family="Helvetica,sans-Serif" font-size="10.00">TWarShip::GetCostWithGuns</text>
</a>
</g>
</g>
<!-- Node1&#45;&gt;Node2 -->
<g id="edge1" class="edge">
<title>Node1&#45;&gt;Node2</title>
<path fill="none" stroke="#63b8ff" d="M715.56,-84.5C707.08,-84.5 698.46,-84.5 690.01,-84.5"/>
<polygon fill="#63b8ff" stroke="#63b8ff" points="715.81,-88 725.81,-84.5 715.81,-81 715.81,-88"/>
</g>
<!-- Node3 -->
<g id="node3" class="node">
<title>Node3</title>
<g id="a_node3"><a xlink:href="../../d0/dc5/classTCargoWarShip.html#a68e8702482af0683c976e316a500db04" target="_top" xlink:title=" ">
<polygon fill="white" stroke="#666666" points="499,-131 380,-131 380,-112 499,-112 499,-131"/>
<text text-anchor="middle" x="439.5" y="-119" font-family="Helvetica,sans-Serif" font-size="10.00">TCargoWarShip::Print</text>
</a>
</g>
</g>
<!-- Node2&#45;&gt;Node3 -->
<g id="edge2" class="edge">
<title>Node2&#45;&gt;Node3</title>
<path fill="none" stroke="#63b8ff" d="M557.65,-96.15C534.16,-101.23 506.96,-107.12 484.68,-111.94"/>
<polygon fill="#63b8ff" stroke="#63b8ff" points="558.43,-99.56 567.46,-94.03 556.95,-92.72 558.43,-99.56"/>
</g>
<!-- Node4 -->
<g id="node4" class="node">
<title>Node4</title>
<g id="a_node4"><a xlink:href="../../db/df3/classTWarShip.html#a1728538cd00c77fb09b08357e491bca8" target="_top" xlink:title=" ">
<polygon fill="white" stroke="#666666" points="485,-94 394,-94 394,-75 485,-75 485,-94"/>
<text text-anchor="middle" x="439.5" y="-82" font-family="Helvetica,sans-Serif" font-size="10.00">TWarShip::Print</text>
</a>
</g>
</g>
<!-- Node2&#45;&gt;Node4 -->
<g id="edge3" class="edge">
<title>Node2&#45;&gt;Node4</title>
<path fill="none" stroke="#63b8ff" d="M524.21,-84.5C510.73,-84.5 497.31,-84.5 485.29,-84.5"/>
<polygon fill="#63b8ff" stroke="#63b8ff" points="524.5,-88 534.5,-84.5 524.5,-81 524.5,-88"/>
</g>
<!-- Node9 -->
<g id="node9" class="node">
<title>Node9</title>
<g id="a_node9"><a xlink:href="../../dc/de8/classTShop.html#ae39747c12e22b3bd4641affc0be979e3" target="_top" xlink:title=" ">
<polygon fill="white" stroke="#666666" points="485.5,-57 393.5,-57 393.5,-38 485.5,-38 485.5,-57"/>
<text text-anchor="middle" x="439.5" y="-45" font-family="Helvetica,sans-Serif" font-size="10.00">TShop::SellShip</text>
</a>
</g>
</g>
<!-- Node2&#45;&gt;Node9 -->
<g id="edge8" class="edge">
<title>Node2&#45;&gt;Node9</title>
<path fill="none" stroke="#63b8ff" d="M557.65,-72.85C534.16,-67.77 506.96,-61.88 484.68,-57.06"/>
<polygon fill="#63b8ff" stroke="#63b8ff" points="556.95,-76.28 567.46,-74.97 558.43,-69.44 556.95,-76.28"/>
</g>
<!-- Node5 -->
<g id="node5" class="node">
<title>Node5</title>
<g id="a_node5"><a xlink:href="../../dc/de8/classTShop.html#ac463d2ee0ef76283f4dac87a51353c36" target="_top" xlink:title=" ">
<polygon fill="white" stroke="#666666" points="344,-95 253,-95 253,-76 344,-76 344,-95"/>
<text text-anchor="middle" x="298.5" y="-83" font-family="Helvetica,sans-Serif" font-size="10.00">TShop::BuyGun</text>
</a>
</g>
</g>
<!-- Node4&#45;&gt;Node5 -->
<g id="edge4" class="edge">
<title>Node4&#45;&gt;Node5</title>
<path fill="none" stroke="#63b8ff" d="M383.48,-84.9C370.44,-84.99 356.68,-85.09 344.16,-85.18"/>
<polygon fill="#63b8ff" stroke="#63b8ff" points="383.78,-88.39 393.75,-84.82 383.73,-81.39 383.78,-88.39"/>
</g>
<!-- Node6 -->
<g id="node6" class="node">
<title>Node6</title>
<g id="a_node6"><a xlink:href="../../dc/de8/classTShop.html#a1dcf7617180c288121288af2ed21909b" target="_top" xlink:title=" ">
<polygon fill="white" stroke="#666666" points="217,-58 113,-58 113,-39 217,-39 217,-58"/>
<text text-anchor="middle" x="165" y="-46" font-family="Helvetica,sans-Serif" font-size="10.00">TShop::MainMenu</text>
</a>
</g>
</g>
<!-- Node5&#45;&gt;Node6 -->
<g id="edge5" class="edge">
<title>Node5&#45;&gt;Node6</title>
<path fill="none" stroke="#63b8ff" d="M253.69,-73.17C236.28,-68.27 216.54,-62.72 200.21,-58.12"/>
<polygon fill="#63b8ff" stroke="#63b8ff" points="253.06,-76.63 263.64,-75.97 254.96,-69.89 253.06,-76.63"/>
</g>
<!-- Node8 -->
<g id="node8" class="node">
<title>Node8</title>
<g id="a_node8"><a xlink:href="../../d6/de3/TestTShop_8cpp.html#a9090d51b3bf731e31e72a99c51bb40c1" target="_top" xlink:title=" ">
<polygon fill="white" stroke="#666666" points="185.5,-95 144.5,-95 144.5,-76 185.5,-76 185.5,-95"/>
<text text-anchor="middle" x="165" y="-83" font-family="Helvetica,sans-Serif" font-size="10.00">TEST</text>
</a>
</g>
</g>
<!-- Node5&#45;&gt;Node8 -->
<g id="edge7" class="edge">
<title>Node5&#45;&gt;Node8</title>
<path fill="none" stroke="#63b8ff" d="M242.89,-85.5C222.67,-85.5 201,-85.5 185.84,-85.5"/>
<polygon fill="#63b8ff" stroke="#63b8ff" points="242.98,-89 252.98,-85.5 242.98,-82 242.98,-89"/>
</g>
<!-- Node7 -->
<g id="node7" class="node">
<title>Node7</title>
<g id="a_node7"><a xlink:href="../../dc/de8/classTShop.html#a789d5e786476555b588aece81642f6f9" target="_top" xlink:title=" ">
<polygon fill="white" stroke="#666666" points="77,-58 0,-58 0,-39 77,-39 77,-58"/>
<text text-anchor="middle" x="38.5" y="-46" font-family="Helvetica,sans-Serif" font-size="10.00">TShop::Shop</text>
</a>
</g>
</g>
<!-- Node6&#45;&gt;Node7 -->
<g id="edge6" class="edge">
<title>Node6&#45;&gt;Node7</title>
<path fill="none" stroke="#63b8ff" d="M102.49,-48.5C93.8,-48.5 85.1,-48.5 77.05,-48.5"/>
<polygon fill="#63b8ff" stroke="#63b8ff" points="102.64,-52 112.64,-48.5 102.64,-45 102.64,-52"/>
</g>
<!-- Node9&#45;&gt;Node6 -->
<g id="edge9" class="edge">
<title>Node9&#45;&gt;Node6</title>
<path fill="none" stroke="#63b8ff" d="M383.19,-47.7C334.7,-47.88 264.76,-48.14 217.46,-48.31"/>
<polygon fill="#63b8ff" stroke="#63b8ff" points="383.21,-51.2 393.2,-47.67 383.18,-44.2 383.21,-51.2"/>
</g>
<!-- Node10 -->
<g id="node10" class="node">
<title>Node10</title>
<g id="a_node10"><a xlink:href="../../d6/de3/TestTShop_8cpp.html#ac97fb89041a078a29c13fe7c9a070fea" target="_top" xlink:title=" ">
<polygon fill="white" stroke="#666666" points="319,-19 278,-19 278,0 319,0 319,-19"/>
<text text-anchor="middle" x="298.5" y="-7" font-family="Helvetica,sans-Serif" font-size="10.00">TEST</text>
</a>
</g>
</g>
<!-- Node9&#45;&gt;Node10 -->
<g id="edge10" class="edge">
<title>Node9&#45;&gt;Node10</title>
<path fill="none" stroke="#63b8ff" d="M393.7,-35.25C368.53,-28.37 338.39,-20.13 319.1,-14.86"/>
<polygon fill="#63b8ff" stroke="#63b8ff" points="392.86,-38.65 403.42,-37.91 394.7,-31.9 392.86,-38.65"/>
</g>
</g>
</svg>
