<?xml version="1.0" encoding="UTF-8" standalone="no"?>
<!DOCTYPE svg PUBLIC "-//W3C//DTD SVG 1.1//EN"
 "http://www.w3.org/Graphics/SVG/1.1/DTD/svg11.dtd">
<!-- Generated by graphviz version 2.43.0 (0)
 -->
<!-- Title: TWeaponHolder::TWeaponHolder Pages: 1 -->
<svg width="596pt" height="38pt"
 viewBox="0.00 0.00 596.00 38.00" xmlns="http://www.w3.org/2000/svg" xmlns:xlink="http://www.w3.org/1999/xlink">
<g id="graph0" class="graph" transform="scale(1 1) rotate(0) translate(4 34)">
<title>TWeaponHolder::TWeaponHolder</title>
<!-- Node1 -->
<g id="node1" class="node">
<title>Node1</title>
<g id="a_node1"><a xlink:title=" ">
<polygon fill="#999999" stroke="#666666" points="177,-24.5 0,-24.5 0,-5.5 177,-5.5 177,-24.5"/>
<text text-anchor="middle" x="88.5" y="-12.5" font-family="Helvetica,sans-Serif" font-size="10.00">TWeaponHolder::TWeaponHolder</text>
</a>
</g>
</g>
<!-- Node2 -->
<g id="node2" class="node">
<title>Node2</title>
<g id="a_node2"><a xlink:href="../../d4/de2/classTWeaponHolder.html#a406848fe7546ce72723653687232701a" target="_top" xlink:title=" ">
<polygon fill="white" stroke="#666666" points="387,-24.5 213,-24.5 213,-5.5 387,-5.5 387,-24.5"/>
<text text-anchor="middle" x="300" y="-12.5" font-family="Helvetica,sans-Serif" font-size="10.00">TWeaponHolder::SetGunByPlace</text>
</a>
</g>
</g>
<!-- Node1&#45;&gt;Node2 -->
<g id="edge1" class="edge">
<title>Node1&#45;&gt;Node2</title>
<path fill="none" stroke="#63b8ff" d="M177.13,-15C185.5,-15 194.02,-15 202.47,-15"/>
<polygon fill="#63b8ff" stroke="#63b8ff" points="202.73,-18.5 212.73,-15 202.73,-11.5 202.73,-18.5"/>
</g>
<!-- Node3 -->
<g id="node3" class="node">
<title>Node3</title>
<g id="a_node3"><a xlink:href="../../d4/de2/classTWeaponHolder.html#afe77ebf75c23b7d4dd8229d12a8369a0" target="_top" xlink:title=" ">
<polygon fill="white" stroke="#666666" points="588,-30 423,-30 423,0 588,0 588,-30"/>
<text text-anchor="start" x="431" y="-18" font-family="Helvetica,sans-Serif" font-size="10.00">TWeaponHolder::createUnique</text>
<text text-anchor="middle" x="505.5" y="-7" font-family="Helvetica,sans-Serif" font-size="10.00">PtrByGunPtr</text>
</a>
</g>
</g>
<!-- Node2&#45;&gt;Node3 -->
<g id="edge2" class="edge">
<title>Node2&#45;&gt;Node3</title>
<path fill="none" stroke="#63b8ff" d="M387.01,-15C395.41,-15 403.97,-15 412.43,-15"/>
<polygon fill="#63b8ff" stroke="#63b8ff" points="412.69,-18.5 422.69,-15 412.69,-11.5 412.69,-18.5"/>
</g>
</g>
</svg>
