<?xml version="1.0" encoding="UTF-8" standalone="no"?>
<!DOCTYPE svg PUBLIC "-//W3C//DTD SVG 1.1//EN"
 "http://www.w3.org/Graphics/SVG/1.1/DTD/svg11.dtd">
<!-- Generated by graphviz version 2.43.0 (0)
 -->
<!-- Title: TWeaponHolder::operator= Pages: 1 -->
<svg width="568pt" height="38pt"
 viewBox="0.00 0.00 568.00 38.00" xmlns="http://www.w3.org/2000/svg" xmlns:xlink="http://www.w3.org/1999/xlink">
<g id="graph0" class="graph" transform="scale(1 1) rotate(0) translate(4 34)">
<title>TWeaponHolder::operator=</title>
<!-- Node1 -->
<g id="node1" class="node">
<title>Node1</title>
<g id="a_node1"><a xlink:title=" ">
<polygon fill="#999999" stroke="#666666" points="149,-24.5 0,-24.5 0,-5.5 149,-5.5 149,-24.5"/>
<text text-anchor="middle" x="74.5" y="-12.5" font-family="Helvetica,sans-Serif" font-size="10.00">TWeaponHolder::operator=</text>
</a>
</g>
</g>
<!-- Node2 -->
<g id="node2" class="node">
<title>Node2</title>
<g id="a_node2"><a xlink:href="../../d4/de2/classTWeaponHolder.html#a406848fe7546ce72723653687232701a" target="_top" xlink:title=" ">
<polygon fill="white" stroke="#666666" points="359,-24.5 185,-24.5 185,-5.5 359,-5.5 359,-24.5"/>
<text text-anchor="middle" x="272" y="-12.5" font-family="Helvetica,sans-Serif" font-size="10.00">TWeaponHolder::SetGunByPlace</text>
</a>
</g>
</g>
<!-- Node1&#45;&gt;Node2 -->
<g id="edge1" class="edge">
<title>Node1&#45;&gt;Node2</title>
<path fill="none" stroke="#63b8ff" d="M149.13,-15C157.53,-15 166.19,-15 174.83,-15"/>
<polygon fill="#63b8ff" stroke="#63b8ff" points="174.95,-18.5 184.95,-15 174.95,-11.5 174.95,-18.5"/>
</g>
<!-- Node3 -->
<g id="node3" class="node">
<title>Node3</title>
<g id="a_node3"><a xlink:href="../../d4/de2/classTWeaponHolder.html#afe77ebf75c23b7d4dd8229d12a8369a0" target="_top" xlink:title=" ">
<polygon fill="white" stroke="#666666" points="560,-30 395,-30 395,0 560,0 560,-30"/>
<text text-anchor="start" x="403" y="-18" font-family="Helvetica,sans-Serif" font-size="10.00">TWeaponHolder::createUnique</text>
<text text-anchor="middle" x="477.5" y="-7" font-family="Helvetica,sans-Serif" font-size="10.00">PtrByGunPtr</text>
</a>
</g>
</g>
<!-- Node2&#45;&gt;Node3 -->
<g id="edge2" class="edge">
<title>Node2&#45;&gt;Node3</title>
<path fill="none" stroke="#63b8ff" d="M359.01,-15C367.41,-15 375.97,-15 384.43,-15"/>
<polygon fill="#63b8ff" stroke="#63b8ff" points="384.69,-18.5 394.69,-15 384.69,-11.5 384.69,-18.5"/>
</g>
</g>
</svg>
