<?xml version="1.0" encoding="UTF-8" standalone="no"?>
<!DOCTYPE svg PUBLIC "-//W3C//DTD SVG 1.1//EN"
 "http://www.w3.org/Graphics/SVG/1.1/DTD/svg11.dtd">
<!-- Generated by graphviz version 2.43.0 (0)
 -->
<!-- Title: TWeaponHolder::SameGuns Pages: 1 -->
<svg width="354pt" height="101pt"
 viewBox="0.00 0.00 354.00 101.00" xmlns="http://www.w3.org/2000/svg" xmlns:xlink="http://www.w3.org/1999/xlink">
<g id="graph0" class="graph" transform="scale(1 1) rotate(0) translate(4 97)">
<title>TWeaponHolder::SameGuns</title>
<!-- Node1 -->
<g id="node1" class="node">
<title>Node1</title>
<g id="a_node1"><a xlink:title=" ">
<polygon fill="#999999" stroke="#666666" points="346,-56 194,-56 194,-37 346,-37 346,-56"/>
<text text-anchor="middle" x="270" y="-44" font-family="Helvetica,sans-Serif" font-size="10.00">TWeaponHolder::SameGuns</text>
</a>
</g>
</g>
<!-- Node2 -->
<g id="node2" class="node">
<title>Node2</title>
<g id="a_node2"><a xlink:href="../../da/d43/TestTWeaponHolder_8cpp.html#a402c7ab7f68fe4237ec4b67e10f76bc4" target="_top" xlink:title=" ">
<polygon fill="white" stroke="#666666" points="116,-93 42,-93 42,-74 116,-74 116,-93"/>
<text text-anchor="middle" x="79" y="-81" font-family="Helvetica,sans-Serif" font-size="10.00">operator==</text>
</a>
</g>
</g>
<!-- Node1&#45;&gt;Node2 -->
<g id="edge1" class="edge">
<title>Node1&#45;&gt;Node2</title>
<path fill="none" stroke="#63b8ff" d="M210.16,-58.02C179.44,-64.03 142.83,-71.2 116.27,-76.4"/>
<polygon fill="#63b8ff" stroke="#63b8ff" points="211.19,-61.38 220.33,-56.03 209.84,-54.51 211.19,-61.38"/>
</g>
<!-- Node3 -->
<g id="node3" class="node">
<title>Node3</title>
<g id="a_node3"><a xlink:href="../../d4/de2/classTWeaponHolder.html#a8d274e1323dc939abb78ed67982428b0" target="_top" xlink:title=" ">
<polygon fill="white" stroke="#666666" points="158,-56 0,-56 0,-37 158,-37 158,-56"/>
<text text-anchor="middle" x="79" y="-44" font-family="Helvetica,sans-Serif" font-size="10.00">TWeaponHolder::operator==</text>
</a>
</g>
</g>
<!-- Node1&#45;&gt;Node3 -->
<g id="edge2" class="edge">
<title>Node1&#45;&gt;Node3</title>
<path fill="none" stroke="#63b8ff" d="M183.5,-46.5C175.03,-46.5 166.46,-46.5 158.08,-46.5"/>
<polygon fill="#63b8ff" stroke="#63b8ff" points="183.76,-50 193.76,-46.5 183.76,-43 183.76,-50"/>
</g>
<!-- Node4 -->
<g id="node4" class="node">
<title>Node4</title>
<g id="a_node4"><a xlink:href="../../da/d43/TestTWeaponHolder_8cpp.html#a5626fd1e5a4964c0f09582ab08d089f8" target="_top" xlink:title=" ">
<polygon fill="white" stroke="#666666" points="99.5,-19 58.5,-19 58.5,0 99.5,0 99.5,-19"/>
<text text-anchor="middle" x="79" y="-7" font-family="Helvetica,sans-Serif" font-size="10.00">TEST</text>
</a>
</g>
</g>
<!-- Node1&#45;&gt;Node4 -->
<g id="edge3" class="edge">
<title>Node1&#45;&gt;Node4</title>
<path fill="none" stroke="#63b8ff" d="M210.43,-35.03C172.64,-27.64 125.84,-18.47 99.82,-13.38"/>
<polygon fill="#63b8ff" stroke="#63b8ff" points="209.84,-38.49 220.33,-36.97 211.19,-31.62 209.84,-38.49"/>
</g>
</g>
</svg>
