<?xml version="1.0" encoding="UTF-8" standalone="no"?>
<!DOCTYPE svg PUBLIC "-//W3C//DTD SVG 1.1//EN"
 "http://www.w3.org/Graphics/SVG/1.1/DTD/svg11.dtd">
<!-- Generated by graphviz version 2.43.0 (0)
 -->
<!-- Title: TWeaponHolder::Print Pages: 1 -->
<svg width="665pt" height="82pt"
 viewBox="0.00 0.00 665.00 82.00" xmlns="http://www.w3.org/2000/svg" xmlns:xlink="http://www.w3.org/1999/xlink">
<g id="graph0" class="graph" transform="scale(1 1) rotate(0) translate(4 78)">
<title>TWeaponHolder::Print</title>
<!-- Node1 -->
<g id="node1" class="node">
<title>Node1</title>
<g id="a_node1"><a xlink:title=" ">
<polygon fill="#999999" stroke="#666666" points="657,-55 535,-55 535,-36 657,-36 657,-55"/>
<text text-anchor="middle" x="596" y="-43" font-family="Helvetica,sans-Serif" font-size="10.00">TWeaponHolder::Print</text>
</a>
</g>
</g>
<!-- Node2 -->
<g id="node2" class="node">
<title>Node2</title>
<g id="a_node2"><a xlink:href="../../d0/dc5/classTCargoWarShip.html#a68e8702482af0683c976e316a500db04" target="_top" xlink:title=" ">
<polygon fill="white" stroke="#666666" points="499,-74 380,-74 380,-55 499,-55 499,-74"/>
<text text-anchor="middle" x="439.5" y="-62" font-family="Helvetica,sans-Serif" font-size="10.00">TCargoWarShip::Print</text>
</a>
</g>
</g>
<!-- Node1&#45;&gt;Node2 -->
<g id="edge1" class="edge">
<title>Node1&#45;&gt;Node2</title>
<path fill="none" stroke="#63b8ff" d="M524.85,-54.13C516.29,-55.18 507.61,-56.25 499.24,-57.28"/>
<polygon fill="#63b8ff" stroke="#63b8ff" points="525.33,-57.59 534.82,-52.9 524.47,-50.65 525.33,-57.59"/>
</g>
<!-- Node3 -->
<g id="node3" class="node">
<title>Node3</title>
<g id="a_node3"><a xlink:href="../../db/df3/classTWarShip.html#a1728538cd00c77fb09b08357e491bca8" target="_top" xlink:title=" ">
<polygon fill="white" stroke="#666666" points="485,-37 394,-37 394,-18 485,-18 485,-37"/>
<text text-anchor="middle" x="439.5" y="-25" font-family="Helvetica,sans-Serif" font-size="10.00">TWarShip::Print</text>
</a>
</g>
</g>
<!-- Node1&#45;&gt;Node3 -->
<g id="edge2" class="edge">
<title>Node1&#45;&gt;Node3</title>
<path fill="none" stroke="#63b8ff" d="M524.7,-37.31C511.35,-35.75 497.73,-34.17 485.44,-32.74"/>
<polygon fill="#63b8ff" stroke="#63b8ff" points="524.49,-40.81 534.82,-38.49 525.3,-33.86 524.49,-40.81"/>
</g>
<!-- Node4 -->
<g id="node4" class="node">
<title>Node4</title>
<g id="a_node4"><a xlink:href="../../dc/de8/classTShop.html#ac463d2ee0ef76283f4dac87a51353c36" target="_top" xlink:title=" ">
<polygon fill="white" stroke="#666666" points="344,-37 253,-37 253,-18 344,-18 344,-37"/>
<text text-anchor="middle" x="298.5" y="-25" font-family="Helvetica,sans-Serif" font-size="10.00">TShop::BuyGun</text>
</a>
</g>
</g>
<!-- Node3&#45;&gt;Node4 -->
<g id="edge3" class="edge">
<title>Node3&#45;&gt;Node4</title>
<path fill="none" stroke="#63b8ff" d="M383.48,-27.5C370.44,-27.5 356.68,-27.5 344.16,-27.5"/>
<polygon fill="#63b8ff" stroke="#63b8ff" points="383.75,-31 393.75,-27.5 383.75,-24 383.75,-31"/>
</g>
<!-- Node5 -->
<g id="node5" class="node">
<title>Node5</title>
<g id="a_node5"><a xlink:href="../../dc/de8/classTShop.html#a1dcf7617180c288121288af2ed21909b" target="_top" xlink:title=" ">
<polygon fill="white" stroke="#666666" points="217,-56 113,-56 113,-37 217,-37 217,-56"/>
<text text-anchor="middle" x="165" y="-44" font-family="Helvetica,sans-Serif" font-size="10.00">TShop::MainMenu</text>
</a>
</g>
</g>
<!-- Node4&#45;&gt;Node5 -->
<g id="edge4" class="edge">
<title>Node4&#45;&gt;Node5</title>
<path fill="none" stroke="#63b8ff" d="M242.83,-35.4C234.37,-36.62 225.66,-37.88 217.28,-39.09"/>
<polygon fill="#63b8ff" stroke="#63b8ff" points="243.58,-38.83 252.98,-33.93 242.58,-31.9 243.58,-38.83"/>
</g>
<!-- Node7 -->
<g id="node7" class="node">
<title>Node7</title>
<g id="a_node7"><a xlink:href="../../d6/de3/TestTShop_8cpp.html#a9090d51b3bf731e31e72a99c51bb40c1" target="_top" xlink:title=" ">
<polygon fill="white" stroke="#666666" points="185.5,-19 144.5,-19 144.5,0 185.5,0 185.5,-19"/>
<text text-anchor="middle" x="165" y="-7" font-family="Helvetica,sans-Serif" font-size="10.00">TEST</text>
</a>
</g>
</g>
<!-- Node4&#45;&gt;Node7 -->
<g id="edge6" class="edge">
<title>Node4&#45;&gt;Node7</title>
<path fill="none" stroke="#63b8ff" d="M242.89,-20.03C222.67,-17.26 201,-14.29 185.84,-12.22"/>
<polygon fill="#63b8ff" stroke="#63b8ff" points="242.6,-23.52 252.98,-21.41 243.55,-16.58 242.6,-23.52"/>
</g>
<!-- Node6 -->
<g id="node6" class="node">
<title>Node6</title>
<g id="a_node6"><a xlink:href="../../dc/de8/classTShop.html#a789d5e786476555b588aece81642f6f9" target="_top" xlink:title=" ">
<polygon fill="white" stroke="#666666" points="77,-56 0,-56 0,-37 77,-37 77,-56"/>
<text text-anchor="middle" x="38.5" y="-44" font-family="Helvetica,sans-Serif" font-size="10.00">TShop::Shop</text>
</a>
</g>
</g>
<!-- Node5&#45;&gt;Node6 -->
<g id="edge5" class="edge">
<title>Node5&#45;&gt;Node6</title>
<path fill="none" stroke="#63b8ff" d="M102.49,-46.5C93.8,-46.5 85.1,-46.5 77.05,-46.5"/>
<polygon fill="#63b8ff" stroke="#63b8ff" points="102.64,-50 112.64,-46.5 102.64,-43 102.64,-50"/>
</g>
</g>
</svg>
