<?xml version="1.0" encoding="UTF-8" standalone="no"?>
<!DOCTYPE svg PUBLIC "-//W3C//DTD SVG 1.1//EN"
 "http://www.w3.org/Graphics/SVG/1.1/DTD/svg11.dtd">
<!-- Generated by graphviz version 2.43.0 (0)
 -->
<!-- Title: TShop::ReadInt Pages: 1 -->
<svg width="514pt" height="288pt"
 viewBox="0.00 0.00 514.00 288.00" xmlns="http://www.w3.org/2000/svg" xmlns:xlink="http://www.w3.org/1999/xlink">
<g id="graph0" class="graph" transform="scale(1 1) rotate(0) translate(4 284)">
<title>TShop::ReadInt</title>
<!-- Node1 -->
<g id="node1" class="node">
<title>Node1</title>
<g id="a_node1"><a xlink:title=" ">
<polygon fill="#999999" stroke="#666666" points="506,-148 416,-148 416,-129 506,-129 506,-148"/>
<text text-anchor="middle" x="461" y="-136" font-family="Helvetica,sans-Serif" font-size="10.00">TShop::ReadInt</text>
</a>
</g>
</g>
<!-- Node2 -->
<g id="node2" class="node">
<title>Node2</title>
<g id="a_node2"><a xlink:href="../../dc/de8/classTShop.html#aef476da75c7312f1d68373c4883b20b0" target="_top" xlink:title=" ">
<polygon fill="white" stroke="#666666" points="369,-243 264,-243 264,-224 369,-224 369,-243"/>
<text text-anchor="middle" x="316.5" y="-231" font-family="Helvetica,sans-Serif" font-size="10.00">TShop::AddWeight</text>
</a>
</g>
</g>
<!-- Node1&#45;&gt;Node2 -->
<g id="edge1" class="edge">
<title>Node1&#45;&gt;Node2</title>
<path fill="none" stroke="#63b8ff" d="M443.95,-155.96C428.73,-171.68 404.59,-194.55 380,-209.5 370.47,-215.3 359.29,-220.12 349.05,-223.89"/>
<polygon fill="#63b8ff" stroke="#63b8ff" points="446.71,-158.13 451.05,-148.47 441.63,-153.32 446.71,-158.13"/>
</g>
<!-- Node3 -->
<g id="node3" class="node">
<title>Node3</title>
<g id="a_node3"><a xlink:href="../../dc/de8/classTShop.html#a1dcf7617180c288121288af2ed21909b" target="_top" xlink:title=" ">
<polygon fill="white" stroke="#666666" points="217,-205 113,-205 113,-186 217,-186 217,-205"/>
<text text-anchor="middle" x="165" y="-193" font-family="Helvetica,sans-Serif" font-size="10.00">TShop::MainMenu</text>
</a>
</g>
</g>
<!-- Node1&#45;&gt;Node3 -->
<g id="edge11" class="edge">
<title>Node1&#45;&gt;Node3</title>
<path fill="none" stroke="#63b8ff" d="M435.25,-153.07C419.88,-161.4 399.41,-171.21 380,-176.5 325.66,-191.31 260.97,-195.26 217.05,-196.01"/>
<polygon fill="#63b8ff" stroke="#63b8ff" points="437.08,-156.06 444.11,-148.13 433.67,-149.95 437.08,-156.06"/>
</g>
<!-- Node6 -->
<g id="node6" class="node">
<title>Node6</title>
<g id="a_node6"><a xlink:href="../../dc/de8/classTShop.html#ac463d2ee0ef76283f4dac87a51353c36" target="_top" xlink:title=" ">
<polygon fill="white" stroke="#666666" points="362,-280 271,-280 271,-261 362,-261 362,-280"/>
<text text-anchor="middle" x="316.5" y="-268" font-family="Helvetica,sans-Serif" font-size="10.00">TShop::BuyGun</text>
</a>
</g>
</g>
<!-- Node1&#45;&gt;Node6 -->
<g id="edge5" class="edge">
<title>Node1&#45;&gt;Node6</title>
<path fill="none" stroke="#63b8ff" d="M451.73,-157.41C439.65,-182.84 414.77,-227.69 380,-252.5 374.67,-256.3 368.54,-259.31 362.26,-261.68"/>
<polygon fill="#63b8ff" stroke="#63b8ff" points="455.01,-158.67 455.99,-148.12 448.64,-155.75 455.01,-158.67"/>
</g>
<!-- Node8 -->
<g id="node8" class="node">
<title>Node8</title>
<g id="a_node8"><a xlink:href="../../dc/de8/classTShop.html#aecceb42ffe39e9e0e9f1e152fa0c258d" target="_top" xlink:title=" ">
<polygon fill="white" stroke="#666666" points="362.5,-167 270.5,-167 270.5,-148 362.5,-148 362.5,-167"/>
<text text-anchor="middle" x="316.5" y="-155" font-family="Helvetica,sans-Serif" font-size="10.00">TShop::BuyShip</text>
</a>
</g>
</g>
<!-- Node1&#45;&gt;Node8 -->
<g id="edge8" class="edge">
<title>Node1&#45;&gt;Node8</title>
<path fill="none" stroke="#63b8ff" d="M405.6,-145.75C391.46,-147.64 376.38,-149.65 362.76,-151.47"/>
<polygon fill="#63b8ff" stroke="#63b8ff" points="406.24,-149.2 415.69,-144.41 405.32,-142.26 406.24,-149.2"/>
</g>
<!-- Node10 -->
<g id="node10" class="node">
<title>Node10</title>
<g id="a_node10"><a xlink:href="../../dc/de8/classTShop.html#af5388fd8d61bac1887a93d9d52ebe482" target="_top" xlink:title=" ">
<polygon fill="white" stroke="#666666" points="380,-56 253,-56 253,-37 380,-37 380,-56"/>
<text text-anchor="middle" x="316.5" y="-44" font-family="Helvetica,sans-Serif" font-size="10.00">TShop::RemoveWeight</text>
</a>
</g>
</g>
<!-- Node1&#45;&gt;Node10 -->
<g id="edge12" class="edge">
<title>Node1&#45;&gt;Node10</title>
<path fill="none" stroke="#63b8ff" d="M445.36,-120.85C430.53,-104.05 406.1,-79.22 380,-64.5 374,-61.12 367.31,-58.32 360.6,-56.03"/>
<polygon fill="#63b8ff" stroke="#63b8ff" points="443.03,-123.5 452.2,-128.8 448.34,-118.94 443.03,-123.5"/>
</g>
<!-- Node11 -->
<g id="node11" class="node">
<title>Node11</title>
<g id="a_node11"><a xlink:href="../../dc/de8/classTShop.html#a7c75fe3801c08795282fefc2baae29b8" target="_top" xlink:title=" ">
<polygon fill="white" stroke="#666666" points="361.5,-130 271.5,-130 271.5,-111 361.5,-111 361.5,-130"/>
<text text-anchor="middle" x="316.5" y="-118" font-family="Helvetica,sans-Serif" font-size="10.00">TShop::SellGun</text>
</a>
</g>
</g>
<!-- Node1&#45;&gt;Node11 -->
<g id="edge13" class="edge">
<title>Node1&#45;&gt;Node11</title>
<path fill="none" stroke="#63b8ff" d="M405.4,-131.6C390.97,-129.78 375.58,-127.84 361.78,-126.09"/>
<polygon fill="#63b8ff" stroke="#63b8ff" points="405.33,-135.12 415.69,-132.9 406.21,-128.18 405.33,-135.12"/>
</g>
<!-- Node13 -->
<g id="node13" class="node">
<title>Node13</title>
<g id="a_node13"><a xlink:href="../../dc/de8/classTShop.html#ae39747c12e22b3bd4641affc0be979e3" target="_top" xlink:title=" ">
<polygon fill="white" stroke="#666666" points="362.5,-93 270.5,-93 270.5,-74 362.5,-74 362.5,-93"/>
<text text-anchor="middle" x="316.5" y="-81" font-family="Helvetica,sans-Serif" font-size="10.00">TShop::SellShip</text>
</a>
</g>
</g>
<!-- Node1&#45;&gt;Node13 -->
<g id="edge16" class="edge">
<title>Node1&#45;&gt;Node13</title>
<path fill="none" stroke="#63b8ff" d="M431.96,-124.25C416.81,-116.88 397.64,-108.08 380,-101.5 371.75,-98.42 362.72,-95.55 354.16,-93.04"/>
<polygon fill="#63b8ff" stroke="#63b8ff" points="430.76,-127.56 441.27,-128.85 433.85,-121.28 430.76,-127.56"/>
</g>
<!-- Node15 -->
<g id="node15" class="node">
<title>Node15</title>
<g id="a_node15"><a xlink:href="../../d6/de3/TestTShop_8cpp.html#a6a31479cc90ee0c2dce924f066536024" target="_top" xlink:title=" ">
<polygon fill="white" stroke="#666666" points="337,-19 296,-19 296,0 337,0 337,-19"/>
<text text-anchor="middle" x="316.5" y="-7" font-family="Helvetica,sans-Serif" font-size="10.00">TEST</text>
</a>
</g>
</g>
<!-- Node1&#45;&gt;Node15 -->
<g id="edge19" class="edge">
<title>Node1&#45;&gt;Node15</title>
<path fill="none" stroke="#63b8ff" d="M451.42,-119.71C439.12,-94.9 414.14,-51.54 380,-27.5 367.35,-18.6 350.34,-14.07 337.26,-11.78"/>
<polygon fill="#63b8ff" stroke="#63b8ff" points="448.3,-121.3 455.77,-128.81 454.61,-118.28 448.3,-121.3"/>
</g>
<!-- Node2&#45;&gt;Node3 -->
<g id="edge2" class="edge">
<title>Node2&#45;&gt;Node3</title>
<path fill="none" stroke="#63b8ff" d="M267.85,-221.39C247.03,-216.1 222.96,-209.98 203.45,-205.02"/>
<polygon fill="#63b8ff" stroke="#63b8ff" points="267.22,-224.84 277.77,-223.91 268.95,-218.06 267.22,-224.84"/>
</g>
<!-- Node5 -->
<g id="node5" class="node">
<title>Node5</title>
<g id="a_node5"><a xlink:href="../../d6/de3/TestTShop_8cpp.html#a11b4c02681e228079a3d05ed1a5d3c99" target="_top" xlink:title=" ">
<polygon fill="white" stroke="#666666" points="185.5,-243 144.5,-243 144.5,-224 185.5,-224 185.5,-243"/>
<text text-anchor="middle" x="165" y="-231" font-family="Helvetica,sans-Serif" font-size="10.00">TEST</text>
</a>
</g>
</g>
<!-- Node2&#45;&gt;Node5 -->
<g id="edge4" class="edge">
<title>Node2&#45;&gt;Node5</title>
<path fill="none" stroke="#63b8ff" d="M253.34,-233.5C228.98,-233.5 202.79,-233.5 185.51,-233.5"/>
<polygon fill="#63b8ff" stroke="#63b8ff" points="253.63,-237 263.63,-233.5 253.63,-230 253.63,-237"/>
</g>
<!-- Node4 -->
<g id="node4" class="node">
<title>Node4</title>
<g id="a_node4"><a xlink:href="../../dc/de8/classTShop.html#a789d5e786476555b588aece81642f6f9" target="_top" xlink:title=" ">
<polygon fill="white" stroke="#666666" points="77,-205 0,-205 0,-186 77,-186 77,-205"/>
<text text-anchor="middle" x="38.5" y="-193" font-family="Helvetica,sans-Serif" font-size="10.00">TShop::Shop</text>
</a>
</g>
</g>
<!-- Node3&#45;&gt;Node4 -->
<g id="edge3" class="edge">
<title>Node3&#45;&gt;Node4</title>
<path fill="none" stroke="#63b8ff" d="M102.49,-195.5C93.8,-195.5 85.1,-195.5 77.05,-195.5"/>
<polygon fill="#63b8ff" stroke="#63b8ff" points="102.64,-199 112.64,-195.5 102.64,-192 102.64,-199"/>
</g>
<!-- Node6&#45;&gt;Node3 -->
<g id="edge6" class="edge">
<title>Node6&#45;&gt;Node3</title>
<path fill="none" stroke="#63b8ff" d="M261.85,-257.11C258.78,-255.72 255.81,-254.18 253,-252.5 233.32,-240.71 236.11,-228.2 217,-215.5 210.82,-211.39 203.67,-207.93 196.72,-205.11"/>
<polygon fill="#63b8ff" stroke="#63b8ff" points="260.67,-260.41 271.25,-260.89 263.28,-253.91 260.67,-260.41"/>
</g>
<!-- Node7 -->
<g id="node7" class="node">
<title>Node7</title>
<g id="a_node7"><a xlink:href="../../d6/de3/TestTShop_8cpp.html#a9090d51b3bf731e31e72a99c51bb40c1" target="_top" xlink:title=" ">
<polygon fill="white" stroke="#666666" points="185.5,-280 144.5,-280 144.5,-261 185.5,-261 185.5,-280"/>
<text text-anchor="middle" x="165" y="-268" font-family="Helvetica,sans-Serif" font-size="10.00">TEST</text>
</a>
</g>
</g>
<!-- Node6&#45;&gt;Node7 -->
<g id="edge7" class="edge">
<title>Node6&#45;&gt;Node7</title>
<path fill="none" stroke="#63b8ff" d="M260.42,-270.5C234.19,-270.5 204.48,-270.5 185.51,-270.5"/>
<polygon fill="#63b8ff" stroke="#63b8ff" points="260.65,-274 270.65,-270.5 260.65,-267 260.65,-274"/>
</g>
<!-- Node8&#45;&gt;Node3 -->
<g id="edge9" class="edge">
<title>Node8&#45;&gt;Node3</title>
<path fill="none" stroke="#63b8ff" d="M267.85,-169.61C247.03,-174.9 222.96,-181.02 203.45,-185.98"/>
<polygon fill="#63b8ff" stroke="#63b8ff" points="268.95,-172.94 277.77,-167.09 267.22,-166.16 268.95,-172.94"/>
</g>
<!-- Node9 -->
<g id="node9" class="node">
<title>Node9</title>
<g id="a_node9"><a xlink:href="../../d6/de3/TestTShop_8cpp.html#a5562ee70e33ebf86ef84ec90cc4a005b" target="_top" xlink:title=" ">
<polygon fill="white" stroke="#666666" points="185.5,-167 144.5,-167 144.5,-148 185.5,-148 185.5,-167"/>
<text text-anchor="middle" x="165" y="-155" font-family="Helvetica,sans-Serif" font-size="10.00">TEST</text>
</a>
</g>
</g>
<!-- Node8&#45;&gt;Node9 -->
<g id="edge10" class="edge">
<title>Node8&#45;&gt;Node9</title>
<path fill="none" stroke="#63b8ff" d="M260.09,-157.5C234.07,-157.5 204.69,-157.5 185.79,-157.5"/>
<polygon fill="#63b8ff" stroke="#63b8ff" points="260.24,-161 270.24,-157.5 260.24,-154 260.24,-161"/>
</g>
<!-- Node11&#45;&gt;Node3 -->
<g id="edge14" class="edge">
<title>Node11&#45;&gt;Node3</title>
<path fill="none" stroke="#63b8ff" d="M263.94,-133.84C260.13,-135.52 256.44,-137.4 253,-139.5 233.41,-151.44 236.22,-163.97 217,-176.5 211.3,-180.22 204.77,-183.34 198.34,-185.92"/>
<polygon fill="#63b8ff" stroke="#63b8ff" points="265.54,-136.97 273.56,-130.04 262.97,-130.46 265.54,-136.97"/>
</g>
<!-- Node12 -->
<g id="node12" class="node">
<title>Node12</title>
<g id="a_node12"><a xlink:href="../../d6/de3/TestTShop_8cpp.html#a99ee2f047e7cb3a8b35e4f41ad4cbd01" target="_top" xlink:title=" ">
<polygon fill="white" stroke="#666666" points="185.5,-130 144.5,-130 144.5,-111 185.5,-111 185.5,-130"/>
<text text-anchor="middle" x="165" y="-118" font-family="Helvetica,sans-Serif" font-size="10.00">TEST</text>
</a>
</g>
</g>
<!-- Node11&#45;&gt;Node12 -->
<g id="edge15" class="edge">
<title>Node11&#45;&gt;Node12</title>
<path fill="none" stroke="#63b8ff" d="M261.2,-120.5C234.88,-120.5 204.89,-120.5 185.73,-120.5"/>
<polygon fill="#63b8ff" stroke="#63b8ff" points="261.45,-124 271.45,-120.5 261.45,-117 261.45,-124"/>
</g>
<!-- Node13&#45;&gt;Node3 -->
<g id="edge17" class="edge">
<title>Node13&#45;&gt;Node3</title>
<path fill="none" stroke="#63b8ff" d="M261.27,-95.79C258.33,-97.46 255.54,-99.35 253,-101.5 224.76,-125.37 244.31,-151.57 217,-176.5 212.74,-180.39 207.62,-183.5 202.28,-185.99"/>
<polygon fill="#63b8ff" stroke="#63b8ff" points="262.93,-98.88 270.47,-91.43 259.93,-92.55 262.93,-98.88"/>
</g>
<!-- Node14 -->
<g id="node14" class="node">
<title>Node14</title>
<g id="a_node14"><a xlink:href="../../d6/de3/TestTShop_8cpp.html#ac97fb89041a078a29c13fe7c9a070fea" target="_top" xlink:title=" ">
<polygon fill="white" stroke="#666666" points="185.5,-93 144.5,-93 144.5,-74 185.5,-74 185.5,-93"/>
<text text-anchor="middle" x="165" y="-81" font-family="Helvetica,sans-Serif" font-size="10.00">TEST</text>
</a>
</g>
</g>
<!-- Node13&#45;&gt;Node14 -->
<g id="edge18" class="edge">
<title>Node13&#45;&gt;Node14</title>
<path fill="none" stroke="#63b8ff" d="M260.09,-83.5C234.07,-83.5 204.69,-83.5 185.79,-83.5"/>
<polygon fill="#63b8ff" stroke="#63b8ff" points="260.24,-87 270.24,-83.5 260.24,-80 260.24,-87"/>
</g>
</g>
</svg>
