<?xml version="1.0" encoding="UTF-8" standalone="no"?>
<!DOCTYPE svg PUBLIC "-//W3C//DTD SVG 1.1//EN"
 "http://www.w3.org/Graphics/SVG/1.1/DTD/svg11.dtd">
<!-- Generated by graphviz version 2.43.0 (0)
 -->
<!-- Title: TShop::BuyGun Pages: 1 -->
<svg width="352pt" height="64pt"
 viewBox="0.00 0.00 352.00 64.00" xmlns="http://www.w3.org/2000/svg" xmlns:xlink="http://www.w3.org/1999/xlink">
<g id="graph0" class="graph" transform="scale(1 1) rotate(0) translate(4 60)">
<title>TShop::BuyGun</title>
<!-- Node1 -->
<g id="node1" class="node">
<title>Node1</title>
<g id="a_node1"><a xlink:title=" ">
<polygon fill="#999999" stroke="#666666" points="344,-37 253,-37 253,-18 344,-18 344,-37"/>
<text text-anchor="middle" x="298.5" y="-25" font-family="Helvetica,sans-Serif" font-size="10.00">TShop::BuyGun</text>
</a>
</g>
</g>
<!-- Node2 -->
<g id="node2" class="node">
<title>Node2</title>
<g id="a_node2"><a xlink:href="../../dc/de8/classTShop.html#a1dcf7617180c288121288af2ed21909b" target="_top" xlink:title=" ">
<polygon fill="white" stroke="#666666" points="217,-56 113,-56 113,-37 217,-37 217,-56"/>
<text text-anchor="middle" x="165" y="-44" font-family="Helvetica,sans-Serif" font-size="10.00">TShop::MainMenu</text>
</a>
</g>
</g>
<!-- Node1&#45;&gt;Node2 -->
<g id="edge1" class="edge">
<title>Node1&#45;&gt;Node2</title>
<path fill="none" stroke="#63b8ff" d="M242.83,-35.4C234.37,-36.62 225.66,-37.88 217.28,-39.09"/>
<polygon fill="#63b8ff" stroke="#63b8ff" points="243.58,-38.83 252.98,-33.93 242.58,-31.9 243.58,-38.83"/>
</g>
<!-- Node4 -->
<g id="node4" class="node">
<title>Node4</title>
<g id="a_node4"><a xlink:href="../../d6/de3/TestTShop_8cpp.html#a9090d51b3bf731e31e72a99c51bb40c1" target="_top" xlink:title=" ">
<polygon fill="white" stroke="#666666" points="185.5,-19 144.5,-19 144.5,0 185.5,0 185.5,-19"/>
<text text-anchor="middle" x="165" y="-7" font-family="Helvetica,sans-Serif" font-size="10.00">TEST</text>
</a>
</g>
</g>
<!-- Node1&#45;&gt;Node4 -->
<g id="edge3" class="edge">
<title>Node1&#45;&gt;Node4</title>
<path fill="none" stroke="#63b8ff" d="M242.89,-20.03C222.67,-17.26 201,-14.29 185.84,-12.22"/>
<polygon fill="#63b8ff" stroke="#63b8ff" points="242.6,-23.52 252.98,-21.41 243.55,-16.58 242.6,-23.52"/>
</g>
<!-- Node3 -->
<g id="node3" class="node">
<title>Node3</title>
<g id="a_node3"><a xlink:href="../../dc/de8/classTShop.html#a789d5e786476555b588aece81642f6f9" target="_top" xlink:title=" ">
<polygon fill="white" stroke="#666666" points="77,-56 0,-56 0,-37 77,-37 77,-56"/>
<text text-anchor="middle" x="38.5" y="-44" font-family="Helvetica,sans-Serif" font-size="10.00">TShop::Shop</text>
</a>
</g>
</g>
<!-- Node2&#45;&gt;Node3 -->
<g id="edge2" class="edge">
<title>Node2&#45;&gt;Node3</title>
<path fill="none" stroke="#63b8ff" d="M102.49,-46.5C93.8,-46.5 85.1,-46.5 77.05,-46.5"/>
<polygon fill="#63b8ff" stroke="#63b8ff" points="102.64,-50 112.64,-46.5 102.64,-43 102.64,-50"/>
</g>
</g>
</svg>
