<?xml version="1.0" encoding="UTF-8" standalone="no"?>
<!DOCTYPE svg PUBLIC "-//W3C//DTD SVG 1.1//EN"
 "http://www.w3.org/Graphics/SVG/1.1/DTD/svg11.dtd">
<!-- Generated by graphviz version 2.43.0 (0)
 -->
<!-- Title: TShop::SellGun Pages: 1 -->
<svg width="310pt" height="249pt"
 viewBox="0.00 0.00 310.00 249.00" xmlns="http://www.w3.org/2000/svg" xmlns:xlink="http://www.w3.org/1999/xlink">
<g id="graph0" class="graph" transform="scale(1 1) rotate(0) translate(4 245)">
<title>TShop::SellGun</title>
<!-- Node1 -->
<g id="node1" class="node">
<title>Node1</title>
<g id="a_node1"><a xlink:title=" ">
<polygon fill="#999999" stroke="#666666" points="90,-130 0,-130 0,-111 90,-111 90,-130"/>
<text text-anchor="middle" x="45" y="-118" font-family="Helvetica,sans-Serif" font-size="10.00">TShop::SellGun</text>
</a>
</g>
</g>
<!-- Node2 -->
<g id="node2" class="node">
<title>Node2</title>
<g id="a_node2"><a xlink:href="../../d8/d51/classMyList.html#a281f359e28eb5d6014ba3405cf0e6895" target="_top" xlink:title=" ">
<polygon fill="white" stroke="#666666" points="255,-241 173,-241 173,-222 255,-222 255,-241"/>
<text text-anchor="middle" x="214" y="-229" font-family="Helvetica,sans-Serif" font-size="10.00">MyList::begin</text>
</a>
</g>
</g>
<!-- Node1&#45;&gt;Node2 -->
<g id="edge1" class="edge">
<title>Node1&#45;&gt;Node2</title>
<path fill="none" stroke="#63b8ff" d="M51.37,-130.23C62.53,-149.5 90.21,-192.43 126,-213.5 137.12,-220.05 150.26,-224.24 162.91,-226.91"/>
<polygon fill="#63b8ff" stroke="#63b8ff" points="162.44,-230.38 172.91,-228.75 163.7,-223.5 162.44,-230.38"/>
</g>
<!-- Node3 -->
<g id="node3" class="node">
<title>Node3</title>
<g id="a_node3"><a xlink:href="../../d1/d3d/classTWeapon.html#a2074e5b5b326730d5212a3dc00df06f4" target="_top" xlink:title=" ">
<polygon fill="white" stroke="#666666" points="267.5,-204 160.5,-204 160.5,-185 267.5,-185 267.5,-204"/>
<text text-anchor="middle" x="214" y="-192" font-family="Helvetica,sans-Serif" font-size="10.00">TWeapon::GetCost</text>
</a>
</g>
</g>
<!-- Node1&#45;&gt;Node3 -->
<g id="edge2" class="edge">
<title>Node1&#45;&gt;Node3</title>
<path fill="none" stroke="#63b8ff" d="M56.53,-130.02C71.06,-142.64 98.6,-164.68 126,-176.5 133.74,-179.84 142.13,-182.57 150.55,-184.81"/>
<polygon fill="#63b8ff" stroke="#63b8ff" points="149.87,-188.24 160.41,-187.21 151.53,-181.44 149.87,-188.24"/>
</g>
<!-- Node4 -->
<g id="node4" class="node">
<title>Node4</title>
<g id="a_node4"><a xlink:href="../../d4/de2/classTWeaponHolder.html#a1c57748293f9f082f1598c51b288de34" target="_top" xlink:title=" ">
<polygon fill="white" stroke="#666666" points="302,-167 126,-167 126,-148 302,-148 302,-167"/>
<text text-anchor="middle" x="214" y="-155" font-family="Helvetica,sans-Serif" font-size="10.00">TWeaponHolder::GetGunByPlace</text>
</a>
</g>
</g>
<!-- Node1&#45;&gt;Node4 -->
<g id="edge3" class="edge">
<title>Node1&#45;&gt;Node4</title>
<path fill="none" stroke="#63b8ff" d="M85.01,-130.01C98.03,-133.11 112.62,-136.53 126,-139.5 135.6,-141.63 145.81,-143.82 155.74,-145.9"/>
<polygon fill="#63b8ff" stroke="#63b8ff" points="155.03,-149.33 165.54,-147.94 156.46,-142.48 155.03,-149.33"/>
</g>
<!-- Node5 -->
<g id="node5" class="node">
<title>Node5</title>
<g id="a_node5"><a xlink:href="../../db/df3/classTWarShip.html#a6498ce65a99aba4649774151442b3637" target="_top" xlink:title=" ">
<polygon fill="white" stroke="#666666" points="273,-130 155,-130 155,-111 273,-111 273,-130"/>
<text text-anchor="middle" x="214" y="-118" font-family="Helvetica,sans-Serif" font-size="10.00">TWarShip::GetHolder</text>
</a>
</g>
</g>
<!-- Node1&#45;&gt;Node5 -->
<g id="edge4" class="edge">
<title>Node1&#45;&gt;Node5</title>
<path fill="none" stroke="#63b8ff" d="M90.31,-120.5C107.03,-120.5 126.45,-120.5 144.85,-120.5"/>
<polygon fill="#63b8ff" stroke="#63b8ff" points="144.93,-124 154.93,-120.5 144.93,-117 144.93,-124"/>
</g>
<!-- Node6 -->
<g id="node6" class="node">
<title>Node6</title>
<g id="a_node6"><a xlink:href="../../dc/de8/classTShop.html#a46d86376a3b839bf3299639a9bb844a7" target="_top" xlink:title=" ">
<polygon fill="white" stroke="#666666" points="261,-93 167,-93 167,-74 261,-74 261,-93"/>
<text text-anchor="middle" x="214" y="-81" font-family="Helvetica,sans-Serif" font-size="10.00">TShop::PrintInfo</text>
</a>
</g>
</g>
<!-- Node1&#45;&gt;Node6 -->
<g id="edge5" class="edge">
<title>Node1&#45;&gt;Node6</title>
<path fill="none" stroke="#63b8ff" d="M88.34,-110.92C100.49,-108.19 113.77,-105.21 126,-102.5 136.75,-100.12 148.25,-97.59 159.25,-95.18"/>
<polygon fill="#63b8ff" stroke="#63b8ff" points="160.15,-98.57 169.18,-93.01 158.66,-91.73 160.15,-98.57"/>
</g>
<!-- Node7 -->
<g id="node7" class="node">
<title>Node7</title>
<g id="a_node7"><a xlink:href="../../dc/de8/classTShop.html#aa10e5887f689e5928cce716aa1bf9ea6" target="_top" xlink:title=" ">
<polygon fill="white" stroke="#666666" points="259,-56 169,-56 169,-37 259,-37 259,-56"/>
<text text-anchor="middle" x="214" y="-44" font-family="Helvetica,sans-Serif" font-size="10.00">TShop::ReadInt</text>
</a>
</g>
</g>
<!-- Node1&#45;&gt;Node7 -->
<g id="edge6" class="edge">
<title>Node1&#45;&gt;Node7</title>
<path fill="none" stroke="#63b8ff" d="M56.83,-110.99C71.49,-98.62 98.93,-77.22 126,-65.5 136.21,-61.08 147.56,-57.64 158.59,-54.98"/>
<polygon fill="#63b8ff" stroke="#63b8ff" points="159.6,-58.35 168.6,-52.76 158.08,-51.51 159.6,-58.35"/>
</g>
<!-- Node8 -->
<g id="node8" class="node">
<title>Node8</title>
<g id="a_node8"><a xlink:href="../../d8/d51/classMyList.html#a37366fbfd16acad1dfa69a141b339095" target="_top" xlink:title=" ">
<polygon fill="white" stroke="#666666" points="251,-19 177,-19 177,0 251,0 251,-19"/>
<text text-anchor="middle" x="214" y="-7" font-family="Helvetica,sans-Serif" font-size="10.00">MyList::size</text>
</a>
</g>
</g>
<!-- Node1&#45;&gt;Node8 -->
<g id="edge7" class="edge">
<title>Node1&#45;&gt;Node8</title>
<path fill="none" stroke="#63b8ff" d="M51.41,-110.9C62.66,-91.91 90.49,-49.54 126,-28.5 138.31,-21.21 153.09,-16.7 166.94,-13.92"/>
<polygon fill="#63b8ff" stroke="#63b8ff" points="167.57,-17.37 176.82,-12.19 166.36,-10.47 167.57,-17.37"/>
</g>
</g>
</svg>
