<?xml version="1.0" encoding="UTF-8" standalone="no"?>
<!DOCTYPE svg PUBLIC "-//W3C//DTD SVG 1.1//EN"
 "http://www.w3.org/Graphics/SVG/1.1/DTD/svg11.dtd">
<!-- Generated by graphviz version 2.43.0 (0)
 -->
<!-- Title: TShop::BuyShip Pages: 1 -->
<svg width="226pt" height="175pt"
 viewBox="0.00 0.00 226.00 175.00" xmlns="http://www.w3.org/2000/svg" xmlns:xlink="http://www.w3.org/1999/xlink">
<g id="graph0" class="graph" transform="scale(1 1) rotate(0) translate(4 171)">
<title>TShop::BuyShip</title>
<!-- Node1 -->
<g id="node1" class="node">
<title>Node1</title>
<g id="a_node1"><a xlink:title=" ">
<polygon fill="#999999" stroke="#666666" points="92,-93 0,-93 0,-74 92,-74 92,-93"/>
<text text-anchor="middle" x="46" y="-81" font-family="Helvetica,sans-Serif" font-size="10.00">TShop::BuyShip</text>
</a>
</g>
</g>
<!-- Node2 -->
<g id="node2" class="node">
<title>Node2</title>
<g id="a_node2"><a xlink:href="../../d8/d51/classMyList.html#a281f359e28eb5d6014ba3405cf0e6895" target="_top" xlink:title=" ">
<polygon fill="white" stroke="#666666" points="214,-167 132,-167 132,-148 214,-148 214,-167"/>
<text text-anchor="middle" x="173" y="-155" font-family="Helvetica,sans-Serif" font-size="10.00">MyList::begin</text>
</a>
</g>
</g>
<!-- Node1&#45;&gt;Node2 -->
<g id="edge1" class="edge">
<title>Node1&#45;&gt;Node2</title>
<path fill="none" stroke="#63b8ff" d="M59.09,-93.11C74.47,-105.03 102.15,-125.49 128,-139.5 130.74,-140.99 133.63,-142.42 136.57,-143.8"/>
<polygon fill="#63b8ff" stroke="#63b8ff" points="135.41,-147.11 145.97,-147.94 138.23,-140.71 135.41,-147.11"/>
</g>
<!-- Node3 -->
<g id="node3" class="node">
<title>Node3</title>
<g id="a_node3"><a xlink:href="../../d1/d07/classTShip.html#a36838d6bbb57ef7e04818c5965a562ad" target="_top" xlink:title=" ">
<polygon fill="white" stroke="#666666" points="211.5,-130 134.5,-130 134.5,-111 211.5,-111 211.5,-130"/>
<text text-anchor="middle" x="173" y="-118" font-family="Helvetica,sans-Serif" font-size="10.00">TShip::Clone</text>
</a>
</g>
</g>
<!-- Node1&#45;&gt;Node3 -->
<g id="edge2" class="edge">
<title>Node1&#45;&gt;Node3</title>
<path fill="none" stroke="#63b8ff" d="M79.19,-93.03C94.53,-97.57 113.07,-103.06 129.54,-107.93"/>
<polygon fill="#63b8ff" stroke="#63b8ff" points="128.9,-111.39 139.48,-110.88 130.89,-104.68 128.9,-111.39"/>
</g>
<!-- Node4 -->
<g id="node4" class="node">
<title>Node4</title>
<g id="a_node4"><a xlink:href="../../d1/d07/classTShip.html#ab9eb49417d6be99d181e74a9327d9136" target="_top" xlink:title=" ">
<polygon fill="white" stroke="#666666" points="217.5,-93 128.5,-93 128.5,-74 217.5,-74 217.5,-93"/>
<text text-anchor="middle" x="173" y="-81" font-family="Helvetica,sans-Serif" font-size="10.00">TShip::GetCost</text>
</a>
</g>
</g>
<!-- Node1&#45;&gt;Node4 -->
<g id="edge3" class="edge">
<title>Node1&#45;&gt;Node4</title>
<path fill="none" stroke="#63b8ff" d="M92.13,-83.5C100.57,-83.5 109.48,-83.5 118.15,-83.5"/>
<polygon fill="#63b8ff" stroke="#63b8ff" points="118.19,-87 128.19,-83.5 118.19,-80 118.19,-87"/>
</g>
<!-- Node5 -->
<g id="node5" class="node">
<title>Node5</title>
<g id="a_node5"><a xlink:href="../../d8/d51/classMyList.html#ab5e189776aca91f01ee5fe930318c289" target="_top" xlink:title=" ">
<polygon fill="white" stroke="#666666" points="214.5,-56 131.5,-56 131.5,-37 214.5,-37 214.5,-56"/>
<text text-anchor="middle" x="173" y="-44" font-family="Helvetica,sans-Serif" font-size="10.00">MyList::insert</text>
</a>
</g>
</g>
<!-- Node1&#45;&gt;Node5 -->
<g id="edge4" class="edge">
<title>Node1&#45;&gt;Node5</title>
<path fill="none" stroke="#63b8ff" d="M79.19,-73.97C94.53,-69.43 113.07,-63.94 129.54,-59.07"/>
<polygon fill="#63b8ff" stroke="#63b8ff" points="130.89,-62.32 139.48,-56.12 128.9,-55.61 130.89,-62.32"/>
</g>
<!-- Node6 -->
<g id="node6" class="node">
<title>Node6</title>
<g id="a_node6"><a xlink:href="../../dc/de8/classTShop.html#aa10e5887f689e5928cce716aa1bf9ea6" target="_top" xlink:title=" ">
<polygon fill="white" stroke="#666666" points="218,-19 128,-19 128,0 218,0 218,-19"/>
<text text-anchor="middle" x="173" y="-7" font-family="Helvetica,sans-Serif" font-size="10.00">TShop::ReadInt</text>
</a>
</g>
</g>
<!-- Node1&#45;&gt;Node6 -->
<g id="edge5" class="edge">
<title>Node1&#45;&gt;Node6</title>
<path fill="none" stroke="#63b8ff" d="M59.43,-73.96C74.94,-62.33 102.52,-42.49 128,-28.5 131.25,-26.71 134.71,-24.97 138.2,-23.31"/>
<polygon fill="#63b8ff" stroke="#63b8ff" points="139.73,-26.46 147.4,-19.15 136.85,-20.09 139.73,-26.46"/>
</g>
</g>
</svg>
