<?xml version="1.0" encoding="UTF-8" standalone="no"?>
<!DOCTYPE svg PUBLIC "-//W3C//DTD SVG 1.1//EN"
 "http://www.w3.org/Graphics/SVG/1.1/DTD/svg11.dtd">
<!-- Generated by graphviz version 2.43.0 (0)
 -->
<!-- Title: TShop::AutoWeight Pages: 1 -->
<svg width="518pt" height="138pt"
 viewBox="0.00 0.00 518.00 138.00" xmlns="http://www.w3.org/2000/svg" xmlns:xlink="http://www.w3.org/1999/xlink">
<g id="graph0" class="graph" transform="scale(1 1) rotate(0) translate(4 134)">
<title>TShop::AutoWeight</title>
<!-- Node1 -->
<g id="node1" class="node">
<title>Node1</title>
<g id="a_node1"><a xlink:title=" ">
<polygon fill="#999999" stroke="#666666" points="109,-74 0,-74 0,-55 109,-55 109,-74"/>
<text text-anchor="middle" x="54.5" y="-62" font-family="Helvetica,sans-Serif" font-size="10.00">TShop::AutoWeight</text>
</a>
</g>
</g>
<!-- Node2 -->
<g id="node2" class="node">
<title>Node2</title>
<g id="a_node2"><a xlink:href="../../d3/d81/classTCargoShip.html#af864094175baefdf2e6f8c88a53ad716" target="_top" xlink:title=" ">
<polygon fill="white" stroke="#666666" points="298,-130 146,-130 146,-111 298,-111 298,-130"/>
<text text-anchor="middle" x="222" y="-118" font-family="Helvetica,sans-Serif" font-size="10.00">TCargoShip::GetWeightTotal</text>
</a>
</g>
</g>
<!-- Node1&#45;&gt;Node2 -->
<g id="edge1" class="edge">
<title>Node1&#45;&gt;Node2</title>
<path fill="none" stroke="#63b8ff" d="M75.39,-74.09C93.28,-82.45 120.46,-94.45 145,-102.5 151.49,-104.63 158.37,-106.62 165.24,-108.44"/>
<polygon fill="#63b8ff" stroke="#63b8ff" points="164.68,-111.91 175.24,-110.98 166.41,-105.13 164.68,-111.91"/>
</g>
<!-- Node3 -->
<g id="node3" class="node">
<title>Node3</title>
<g id="a_node3"><a xlink:href="../../dc/de8/classTShop.html#abe63a0587be037f14a2e04e62fd1fc60" target="_top" xlink:title=" ">
<polygon fill="white" stroke="#666666" points="287.5,-93 156.5,-93 156.5,-74 287.5,-74 287.5,-93"/>
<text text-anchor="middle" x="222" y="-81" font-family="Helvetica,sans-Serif" font-size="10.00">TShop::IsSpeedPossible</text>
</a>
</g>
</g>
<!-- Node1&#45;&gt;Node3 -->
<g id="edge2" class="edge">
<title>Node1&#45;&gt;Node3</title>
<path fill="none" stroke="#63b8ff" d="M109.23,-70.67C121.07,-72.03 133.82,-73.49 146.33,-74.93"/>
<polygon fill="#63b8ff" stroke="#63b8ff" points="145.94,-78.41 156.28,-76.07 146.74,-71.45 145.94,-78.41"/>
</g>
<!-- Node5 -->
<g id="node5" class="node">
<title>Node5</title>
<g id="a_node5"><a xlink:href="../../dc/de8/classTShop.html#ae77eb41b055433f33b63810b32dfb88c" target="_top" xlink:title=" ">
<polygon fill="white" stroke="#666666" points="294.5,-56 149.5,-56 149.5,-37 294.5,-37 294.5,-56"/>
<text text-anchor="middle" x="222" y="-44" font-family="Helvetica,sans-Serif" font-size="10.00">TShop::SetWeightBySpeed</text>
</a>
</g>
</g>
<!-- Node1&#45;&gt;Node5 -->
<g id="edge4" class="edge">
<title>Node1&#45;&gt;Node5</title>
<path fill="none" stroke="#63b8ff" d="M109.23,-58.66C118.86,-57.61 129.09,-56.5 139.29,-55.39"/>
<polygon fill="#63b8ff" stroke="#63b8ff" points="139.91,-58.84 149.47,-54.28 139.15,-51.88 139.91,-58.84"/>
</g>
<!-- Node7 -->
<g id="node7" class="node">
<title>Node7</title>
<g id="a_node7"><a xlink:href="../../d3/d81/classTCargoShip.html#a2058989e985027329e36e55be4d83cc9" target="_top" xlink:title=" ">
<polygon fill="white" stroke="#666666" points="299,-19 145,-19 145,0 299,0 299,-19"/>
<text text-anchor="middle" x="222" y="-7" font-family="Helvetica,sans-Serif" font-size="10.00">TCargoShip::SpeedByWeight</text>
</a>
</g>
</g>
<!-- Node1&#45;&gt;Node7 -->
<g id="edge7" class="edge">
<title>Node1&#45;&gt;Node7</title>
<path fill="none" stroke="#63b8ff" d="M76.12,-54.87C94.04,-46.77 120.84,-35.3 145,-27.5 151.5,-25.4 158.39,-23.43 165.26,-21.62"/>
<polygon fill="#63b8ff" stroke="#63b8ff" points="166.43,-24.93 175.26,-19.08 164.71,-18.15 166.43,-24.93"/>
</g>
<!-- Node4 -->
<g id="node4" class="node">
<title>Node4</title>
<g id="a_node4"><a xlink:href="../../d3/d81/classTCargoShip.html#a1f4cbd4a7effa3987f1298da081e8aec" target="_top" xlink:title=" ">
<polygon fill="white" stroke="#666666" points="510,-93 335,-93 335,-74 510,-74 510,-93"/>
<text text-anchor="middle" x="422.5" y="-81" font-family="Helvetica,sans-Serif" font-size="10.00">TCargoShip::WeightMaxBySpeed</text>
</a>
</g>
</g>
<!-- Node3&#45;&gt;Node4 -->
<g id="edge3" class="edge">
<title>Node3&#45;&gt;Node4</title>
<path fill="none" stroke="#63b8ff" d="M287.72,-83.5C299.59,-83.5 312.22,-83.5 324.79,-83.5"/>
<polygon fill="#63b8ff" stroke="#63b8ff" points="324.85,-87 334.85,-83.5 324.85,-80 324.85,-87"/>
</g>
<!-- Node5&#45;&gt;Node4 -->
<g id="edge6" class="edge">
<title>Node5&#45;&gt;Node4</title>
<path fill="none" stroke="#63b8ff" d="M274.12,-56.03C300.41,-60.93 332.65,-66.94 360.27,-72.09"/>
<polygon fill="#63b8ff" stroke="#63b8ff" points="359.74,-75.55 370.21,-73.94 361.02,-68.67 359.74,-75.55"/>
</g>
<!-- Node6 -->
<g id="node6" class="node">
<title>Node6</title>
<g id="a_node6"><a xlink:href="../../d3/d81/classTCargoShip.html#a9a12a2c02b7b32f49c952f4c13e74a77" target="_top" xlink:title=" ">
<polygon fill="white" stroke="#666666" points="497,-56 348,-56 348,-37 497,-37 497,-56"/>
<text text-anchor="middle" x="422.5" y="-44" font-family="Helvetica,sans-Serif" font-size="10.00">TCargoShip::SetWeightNow</text>
</a>
</g>
</g>
<!-- Node5&#45;&gt;Node6 -->
<g id="edge5" class="edge">
<title>Node5&#45;&gt;Node6</title>
<path fill="none" stroke="#63b8ff" d="M294.66,-46.5C308.6,-46.5 323.33,-46.5 337.63,-46.5"/>
<polygon fill="#63b8ff" stroke="#63b8ff" points="337.94,-50 347.94,-46.5 337.94,-43 337.94,-50"/>
</g>
</g>
</svg>
