<?xml version="1.0" encoding="UTF-8" standalone="no"?>
<!DOCTYPE svg PUBLIC "-//W3C//DTD SVG 1.1//EN"
 "http://www.w3.org/Graphics/SVG/1.1/DTD/svg11.dtd">
<!-- Generated by graphviz version 2.43.0 (0)
 -->
<!-- Title: TShop::AddWeight Pages: 1 -->
<svg width="301pt" height="249pt"
 viewBox="0.00 0.00 301.00 249.00" xmlns="http://www.w3.org/2000/svg" xmlns:xlink="http://www.w3.org/1999/xlink">
<g id="graph0" class="graph" transform="scale(1 1) rotate(0) translate(4 245)">
<title>TShop::AddWeight</title>
<!-- Node1 -->
<g id="node1" class="node">
<title>Node1</title>
<g id="a_node1"><a xlink:title=" ">
<polygon fill="#999999" stroke="#666666" points="105,-130 0,-130 0,-111 105,-111 105,-130"/>
<text text-anchor="middle" x="52.5" y="-118" font-family="Helvetica,sans-Serif" font-size="10.00">TShop::AddWeight</text>
</a>
</g>
</g>
<!-- Node2 -->
<g id="node2" class="node">
<title>Node2</title>
<g id="a_node2"><a xlink:href="../../d8/d51/classMyList.html#a281f359e28eb5d6014ba3405cf0e6895" target="_top" xlink:title=" ">
<polygon fill="white" stroke="#666666" points="258,-241 176,-241 176,-222 258,-222 258,-241"/>
<text text-anchor="middle" x="217" y="-229" font-family="Helvetica,sans-Serif" font-size="10.00">MyList::begin</text>
</a>
</g>
</g>
<!-- Node1&#45;&gt;Node2 -->
<g id="edge1" class="edge">
<title>Node1&#45;&gt;Node2</title>
<path fill="none" stroke="#63b8ff" d="M59.67,-130.13C72.41,-149.2 103.61,-191.81 141,-213.5 148.66,-217.94 157.36,-221.29 166.06,-223.81"/>
<polygon fill="#63b8ff" stroke="#63b8ff" points="165.27,-227.22 175.83,-226.33 167.02,-220.45 165.27,-227.22"/>
</g>
<!-- Node3 -->
<g id="node3" class="node">
<title>Node3</title>
<g id="a_node3"><a xlink:href="../../d3/d81/classTCargoShip.html#aac8aa5512f4e7ea9641f3a5812cc8722" target="_top" xlink:title=" ">
<polygon fill="white" stroke="#666666" points="292,-204 142,-204 142,-185 292,-185 292,-204"/>
<text text-anchor="middle" x="217" y="-192" font-family="Helvetica,sans-Serif" font-size="10.00">TCargoShip::GetWeightNow</text>
</a>
</g>
</g>
<!-- Node1&#45;&gt;Node3 -->
<g id="edge2" class="edge">
<title>Node1&#45;&gt;Node3</title>
<path fill="none" stroke="#63b8ff" d="M65.51,-130.06C81.73,-142.51 111.96,-164.14 141,-176.5 145.81,-178.55 150.89,-180.39 156.05,-182.03"/>
<polygon fill="#63b8ff" stroke="#63b8ff" points="155.44,-185.51 166.03,-184.98 157.42,-178.79 155.44,-185.51"/>
</g>
<!-- Node4 -->
<g id="node4" class="node">
<title>Node4</title>
<g id="a_node4"><a xlink:href="../../d3/d81/classTCargoShip.html#af864094175baefdf2e6f8c88a53ad716" target="_top" xlink:title=" ">
<polygon fill="white" stroke="#666666" points="293,-167 141,-167 141,-148 293,-148 293,-167"/>
<text text-anchor="middle" x="217" y="-155" font-family="Helvetica,sans-Serif" font-size="10.00">TCargoShip::GetWeightTotal</text>
</a>
</g>
</g>
<!-- Node1&#45;&gt;Node4 -->
<g id="edge3" class="edge">
<title>Node1&#45;&gt;Node4</title>
<path fill="none" stroke="#63b8ff" d="M95.35,-130.03C116.31,-134.8 141.88,-140.62 164.08,-145.68"/>
<polygon fill="#63b8ff" stroke="#63b8ff" points="163.48,-149.13 174.01,-147.94 165.04,-142.31 163.48,-149.13"/>
</g>
<!-- Node5 -->
<g id="node5" class="node">
<title>Node5</title>
<g id="a_node5"><a xlink:href="../../dc/de8/classTShop.html#a46d86376a3b839bf3299639a9bb844a7" target="_top" xlink:title=" ">
<polygon fill="white" stroke="#666666" points="264,-130 170,-130 170,-111 264,-111 264,-130"/>
<text text-anchor="middle" x="217" y="-118" font-family="Helvetica,sans-Serif" font-size="10.00">TShop::PrintInfo</text>
</a>
</g>
</g>
<!-- Node1&#45;&gt;Node5 -->
<g id="edge4" class="edge">
<title>Node1&#45;&gt;Node5</title>
<path fill="none" stroke="#63b8ff" d="M105.36,-120.5C122.68,-120.5 142.05,-120.5 159.69,-120.5"/>
<polygon fill="#63b8ff" stroke="#63b8ff" points="159.84,-124 169.84,-120.5 159.84,-117 159.84,-124"/>
</g>
<!-- Node6 -->
<g id="node6" class="node">
<title>Node6</title>
<g id="a_node6"><a xlink:href="../../dc/de8/classTShop.html#aa10e5887f689e5928cce716aa1bf9ea6" target="_top" xlink:title=" ">
<polygon fill="white" stroke="#666666" points="262,-93 172,-93 172,-74 262,-74 262,-93"/>
<text text-anchor="middle" x="217" y="-81" font-family="Helvetica,sans-Serif" font-size="10.00">TShop::ReadInt</text>
</a>
</g>
</g>
<!-- Node1&#45;&gt;Node6 -->
<g id="edge5" class="edge">
<title>Node1&#45;&gt;Node6</title>
<path fill="none" stroke="#63b8ff" d="M95.35,-110.97C116.31,-106.2 141.88,-100.38 164.08,-95.32"/>
<polygon fill="#63b8ff" stroke="#63b8ff" points="165.04,-98.69 174.01,-93.06 163.48,-91.87 165.04,-98.69"/>
</g>
<!-- Node7 -->
<g id="node7" class="node">
<title>Node7</title>
<g id="a_node7"><a xlink:href="../../d3/d81/classTCargoShip.html#a9a12a2c02b7b32f49c952f4c13e74a77" target="_top" xlink:title=" ">
<polygon fill="white" stroke="#666666" points="291.5,-56 142.5,-56 142.5,-37 291.5,-37 291.5,-56"/>
<text text-anchor="middle" x="217" y="-44" font-family="Helvetica,sans-Serif" font-size="10.00">TCargoShip::SetWeightNow</text>
</a>
</g>
</g>
<!-- Node1&#45;&gt;Node7 -->
<g id="edge6" class="edge">
<title>Node1&#45;&gt;Node7</title>
<path fill="none" stroke="#63b8ff" d="M65.85,-110.97C82.19,-98.78 112.3,-77.79 141,-65.5 146.75,-63.04 152.9,-60.84 159.1,-58.9"/>
<polygon fill="#63b8ff" stroke="#63b8ff" points="160.23,-62.21 168.84,-56.04 158.26,-55.49 160.23,-62.21"/>
</g>
<!-- Node8 -->
<g id="node8" class="node">
<title>Node8</title>
<g id="a_node8"><a xlink:href="../../d8/d51/classMyList.html#a37366fbfd16acad1dfa69a141b339095" target="_top" xlink:title=" ">
<polygon fill="white" stroke="#666666" points="254,-19 180,-19 180,0 254,0 254,-19"/>
<text text-anchor="middle" x="217" y="-7" font-family="Helvetica,sans-Serif" font-size="10.00">MyList::size</text>
</a>
</g>
</g>
<!-- Node1&#45;&gt;Node8 -->
<g id="edge7" class="edge">
<title>Node1&#45;&gt;Node8</title>
<path fill="none" stroke="#63b8ff" d="M59.92,-110.72C72.87,-91.79 104.09,-50.09 141,-28.5 149.78,-23.36 159.93,-19.6 169.88,-16.85"/>
<polygon fill="#63b8ff" stroke="#63b8ff" points="170.82,-20.22 179.69,-14.43 169.14,-13.43 170.82,-20.22"/>
</g>
</g>
</svg>
