<?xml version="1.0" encoding="UTF-8" standalone="no"?>
<!DOCTYPE svg PUBLIC "-//W3C//DTD SVG 1.1//EN"
 "http://www.w3.org/Graphics/SVG/1.1/DTD/svg11.dtd">
<!-- Generated by graphviz version 2.43.0 (0)
 -->
<!-- Title: TShop::SellShip Pages: 1 -->
<svg width="466pt" height="212pt"
 viewBox="0.00 0.00 466.00 212.00" xmlns="http://www.w3.org/2000/svg" xmlns:xlink="http://www.w3.org/1999/xlink">
<g id="graph0" class="graph" transform="scale(1 1) rotate(0) translate(4 208)">
<title>TShop::SellShip</title>
<!-- Node1 -->
<g id="node1" class="node">
<title>Node1</title>
<g id="a_node1"><a xlink:title=" ">
<polygon fill="#999999" stroke="#666666" points="92,-111 0,-111 0,-92 92,-92 92,-111"/>
<text text-anchor="middle" x="46" y="-99" font-family="Helvetica,sans-Serif" font-size="10.00">TShop::SellShip</text>
</a>
</g>
</g>
<!-- Node2 -->
<g id="node2" class="node">
<title>Node2</title>
<g id="a_node2"><a xlink:href="../../d8/d51/classMyList.html#a281f359e28eb5d6014ba3405cf0e6895" target="_top" xlink:title=" ">
<polygon fill="white" stroke="#666666" points="246.5,-204 164.5,-204 164.5,-185 246.5,-185 246.5,-204"/>
<text text-anchor="middle" x="205.5" y="-192" font-family="Helvetica,sans-Serif" font-size="10.00">MyList::begin</text>
</a>
</g>
</g>
<!-- Node1&#45;&gt;Node2 -->
<g id="edge1" class="edge">
<title>Node1&#45;&gt;Node2</title>
<path fill="none" stroke="#63b8ff" d="M54.59,-111.24C67.72,-127.41 96.36,-159.66 128,-176.5 136.14,-180.83 145.31,-184.13 154.4,-186.64"/>
<polygon fill="#63b8ff" stroke="#63b8ff" points="153.63,-190.05 164.18,-189.06 155.32,-183.26 153.63,-190.05"/>
</g>
<!-- Node3 -->
<g id="node3" class="node">
<title>Node3</title>
<g id="a_node3"><a xlink:href="../../d8/d51/classMyList.html#a0bf752e12a79f715ac37ed5e03255833" target="_top" xlink:title=" ">
<polygon fill="white" stroke="#666666" points="246.5,-167 164.5,-167 164.5,-148 246.5,-148 246.5,-167"/>
<text text-anchor="middle" x="205.5" y="-155" font-family="Helvetica,sans-Serif" font-size="10.00">MyList::erase</text>
</a>
</g>
</g>
<!-- Node1&#45;&gt;Node3 -->
<g id="edge2" class="edge">
<title>Node1&#45;&gt;Node3</title>
<path fill="none" stroke="#63b8ff" d="M64.57,-111.05C80.68,-119.48 105.41,-131.64 128,-139.5 136.43,-142.43 145.54,-145.04 154.44,-147.3"/>
<polygon fill="#63b8ff" stroke="#63b8ff" points="153.8,-150.75 164.35,-149.7 155.45,-143.94 153.8,-150.75"/>
</g>
<!-- Node4 -->
<g id="node4" class="node">
<title>Node4</title>
<g id="a_node4"><a xlink:href="../../db/df3/classTWarShip.html#a1deb0d2b3eee3d1a4a9976ae55300307" target="_top" xlink:title=" ">
<polygon fill="white" stroke="#666666" points="283,-130 128,-130 128,-111 283,-111 283,-130"/>
<text text-anchor="middle" x="205.5" y="-118" font-family="Helvetica,sans-Serif" font-size="10.00">TWarShip::GetCostWithGuns</text>
</a>
</g>
</g>
<!-- Node1&#45;&gt;Node4 -->
<g id="edge3" class="edge">
<title>Node1&#45;&gt;Node4</title>
<path fill="none" stroke="#63b8ff" d="M92.13,-106.94C100.26,-107.92 108.97,-108.98 117.81,-110.04"/>
<polygon fill="#63b8ff" stroke="#63b8ff" points="117.49,-113.53 127.83,-111.25 118.33,-106.58 117.49,-113.53"/>
</g>
<!-- Node6 -->
<g id="node6" class="node">
<title>Node6</title>
<g id="a_node6"><a xlink:href="../../dc/de8/classTShop.html#a46d86376a3b839bf3299639a9bb844a7" target="_top" xlink:title=" ">
<polygon fill="white" stroke="#666666" points="252.5,-93 158.5,-93 158.5,-74 252.5,-74 252.5,-93"/>
<text text-anchor="middle" x="205.5" y="-81" font-family="Helvetica,sans-Serif" font-size="10.00">TShop::PrintInfo</text>
</a>
</g>
</g>
<!-- Node1&#45;&gt;Node6 -->
<g id="edge5" class="edge">
<title>Node1&#45;&gt;Node6</title>
<path fill="none" stroke="#63b8ff" d="M92.13,-96.34C109.62,-94.34 129.83,-92.03 148.25,-89.93"/>
<polygon fill="#63b8ff" stroke="#63b8ff" points="148.73,-93.4 158.27,-88.78 147.93,-86.44 148.73,-93.4"/>
</g>
<!-- Node7 -->
<g id="node7" class="node">
<title>Node7</title>
<g id="a_node7"><a xlink:href="../../dc/de8/classTShop.html#aa10e5887f689e5928cce716aa1bf9ea6" target="_top" xlink:title=" ">
<polygon fill="white" stroke="#666666" points="250.5,-56 160.5,-56 160.5,-37 250.5,-37 250.5,-56"/>
<text text-anchor="middle" x="205.5" y="-44" font-family="Helvetica,sans-Serif" font-size="10.00">TShop::ReadInt</text>
</a>
</g>
</g>
<!-- Node1&#45;&gt;Node7 -->
<g id="edge6" class="edge">
<title>Node1&#45;&gt;Node7</title>
<path fill="none" stroke="#63b8ff" d="M65.93,-91.95C82.11,-84.07 106.17,-73 128,-65.5 135.2,-63.03 142.88,-60.73 150.5,-58.65"/>
<polygon fill="#63b8ff" stroke="#63b8ff" points="151.64,-61.97 160.42,-56.05 149.86,-55.2 151.64,-61.97"/>
</g>
<!-- Node8 -->
<g id="node8" class="node">
<title>Node8</title>
<g id="a_node8"><a xlink:href="../../d8/d51/classMyList.html#a37366fbfd16acad1dfa69a141b339095" target="_top" xlink:title=" ">
<polygon fill="white" stroke="#666666" points="242.5,-19 168.5,-19 168.5,0 242.5,0 242.5,-19"/>
<text text-anchor="middle" x="205.5" y="-7" font-family="Helvetica,sans-Serif" font-size="10.00">MyList::size</text>
</a>
</g>
</g>
<!-- Node1&#45;&gt;Node8 -->
<g id="edge7" class="edge">
<title>Node1&#45;&gt;Node8</title>
<path fill="none" stroke="#63b8ff" d="M54.88,-91.82C68.24,-76.07 96.91,-45.02 128,-28.5 137.34,-23.54 148.02,-19.84 158.37,-17.09"/>
<polygon fill="#63b8ff" stroke="#63b8ff" points="159.23,-20.48 168.14,-14.74 157.6,-13.68 159.23,-20.48"/>
</g>
<!-- Node5 -->
<g id="node5" class="node">
<title>Node5</title>
<g id="a_node5"><a xlink:href="../../d4/de2/classTWeaponHolder.html#a41344ca59e32b01ba31c08ee5d609731" target="_top" xlink:title=" ">
<polygon fill="white" stroke="#666666" points="458,-130 319,-130 319,-111 458,-111 458,-130"/>
<text text-anchor="middle" x="388.5" y="-118" font-family="Helvetica,sans-Serif" font-size="10.00">TWeaponHolder::GetCost</text>
</a>
</g>
</g>
<!-- Node4&#45;&gt;Node5 -->
<g id="edge4" class="edge">
<title>Node4&#45;&gt;Node5</title>
<path fill="none" stroke="#63b8ff" d="M283.26,-120.5C291.69,-120.5 300.27,-120.5 308.72,-120.5"/>
<polygon fill="#63b8ff" stroke="#63b8ff" points="308.94,-124 318.94,-120.5 308.94,-117 308.94,-124"/>
</g>
</g>
</svg>
