<?xml version="1.0" encoding="UTF-8" standalone="no"?>
<!DOCTYPE svg PUBLIC "-//W3C//DTD SVG 1.1//EN"
 "http://www.w3.org/Graphics/SVG/1.1/DTD/svg11.dtd">
<!-- Generated by graphviz version 2.43.0 (0)
 -->
<!-- Title: TShop::BuyGun Pages: 1 -->
<!--zoomable 323 -->
<svg id="main" version="1.1" xmlns="http://www.w3.org/2000/svg" xmlns:xlink="http://www.w3.org/1999/xlink" xml:space="preserve" onload="init(evt)">
<style type="text/css"><![CDATA[
.edge:hover path { stroke: red; }
.edge:hover polygon { stroke: red; fill: red; }
]]></style>
<script type="text/javascript"><![CDATA[
var edges = document.getElementsByTagName('g');
if (edges && edges.length) {
  for (var i=0;i<edges.length;i++) {
    if (edges[i].id.substr(0,4)=='edge') {
      edges[i].setAttribute('class','edge');
    }
  }
}
]]></script>
        <defs>
                <circle id="rim" cx="0" cy="0" r="7"/>
                <circle id="rim2" cx="0" cy="0" r="3.5"/>
                <g id="zoomPlus">
                        <use xlink:href="#rim" fill="#404040">
                                <set attributeName="fill" to="#808080" begin="zoomplus.mouseover" end="zoomplus.mouseout"/>
                        </use>
                        <path d="M-4,0h8M0,-4v8" fill="none" stroke="white" stroke-width="1.5" pointer-events="none"/>
                </g>
                <g id="zoomMin">
                        <use xlink:href="#rim" fill="#404040">
                                <set attributeName="fill" to="#808080" begin="zoomminus.mouseover" end="zoomminus.mouseout"/>
                        </use>
                        <path d="M-4,0h8" fill="none" stroke="white" stroke-width="1.5" pointer-events="none"/>
                </g>
                <g id="dirArrow">
                        <path fill="none" stroke="white" stroke-width="1.5" d="M0,-3.0v7 M-2.5,-0.5L0,-3.0L2.5,-0.5"/>
                </g>
               <g id="resetDef">
                       <use xlink:href="#rim2" fill="#404040">
                               <set attributeName="fill" to="#808080" begin="reset.mouseover" end="reset.mouseout"/>
                       </use>
               </g>
        </defs>

<script type="text/javascript">
var viewWidth = 677;
var viewHeight = 323;
var sectionId = 'dynsection-7';
</script>
<script xlink:href="../../svgpan.js"/>
<svg id="graph" class="graph">
<g id="viewport">
<title>TShop::BuyGun</title>
<!-- Node1 -->
<g id="node1" class="node">
<title>Node1</title>
<g id="a_node1"><a xlink:title=" ">
<polygon fill="#999999" stroke="#666666" points="91,-167 0,-167 0,-148 91,-148 91,-167"/>
<text text-anchor="middle" x="45.5" y="-155" font-family="Helvetica,sans-Serif" font-size="10.00">TShop::BuyGun</text>
</a>
</g>
</g>
<!-- Node2 -->
<g id="node2" class="node">
<title>Node2</title>
<g id="a_node2"><a xlink:href="../../d8/d51/classMyList.html#a281f359e28eb5d6014ba3405cf0e6895" target="_top" xlink:title=" ">
<polygon fill="white" stroke="#666666" points="256,-315 174,-315 174,-296 256,-296 256,-315"/>
<text text-anchor="middle" x="215" y="-303" font-family="Helvetica,sans-Serif" font-size="10.00">MyList::begin</text>
</a>
</g>
</g>
<!-- Node1&#45;&gt;Node2 -->
<g id="edge1" class="edge">
<title>Node1&#45;&gt;Node2</title>
<path fill="none" stroke="#63b8ff" d="M49.5,-167.21C57.61,-191.71 82.4,-256.32 127,-287.5 137.67,-294.96 150.77,-299.46 163.53,-302.14"/>
<polygon fill="#63b8ff" stroke="#63b8ff" points="163.18,-305.63 173.64,-303.92 164.39,-298.74 163.18,-305.63"/>
</g>
<!-- Node3 -->
<g id="node3" class="node">
<title>Node3</title>
<g id="a_node3"><a xlink:href="../../d8/d51/classMyList.html#a80edb252c7e71107fac78c29647be513" target="_top" xlink:title=" ">
<polygon fill="white" stroke="#666666" points="261,-278 169,-278 169,-259 261,-259 261,-278"/>
<text text-anchor="middle" x="215" y="-266" font-family="Helvetica,sans-Serif" font-size="10.00">MyList::getById</text>
</a>
</g>
</g>
<!-- Node1&#45;&gt;Node3 -->
<g id="edge2" class="edge">
<title>Node1&#45;&gt;Node3</title>
<path fill="none" stroke="#63b8ff" d="M51.92,-167.23C63.18,-186.5 91.09,-229.43 127,-250.5 136.57,-256.12 147.64,-260 158.6,-262.68"/>
<polygon fill="#63b8ff" stroke="#63b8ff" points="158.09,-266.15 168.6,-264.81 159.55,-259.3 158.09,-266.15"/>
</g>
<!-- Node4 -->
<g id="node4" class="node">
<title>Node4</title>
<g id="a_node4"><a xlink:href="../../d1/d3d/classTWeapon.html#a2074e5b5b326730d5212a3dc00df06f4" target="_top" xlink:title=" ">
<polygon fill="white" stroke="#666666" points="268.5,-241 161.5,-241 161.5,-222 268.5,-222 268.5,-241"/>
<text text-anchor="middle" x="215" y="-229" font-family="Helvetica,sans-Serif" font-size="10.00">TWeapon::GetCost</text>
</a>
</g>
</g>
<!-- Node1&#45;&gt;Node4 -->
<g id="edge3" class="edge">
<title>Node1&#45;&gt;Node4</title>
<path fill="none" stroke="#63b8ff" d="M57.11,-167.02C71.75,-179.64 99.47,-201.67 127,-213.5 134.74,-216.83 143.14,-219.55 151.56,-221.78"/>
<polygon fill="#63b8ff" stroke="#63b8ff" points="150.88,-225.22 161.42,-224.18 152.53,-218.42 150.88,-225.22"/>
</g>
<!-- Node5 -->
<g id="node5" class="node">
<title>Node5</title>
<g id="a_node5"><a xlink:href="../../d4/de2/classTWeaponHolder.html#a1c57748293f9f082f1598c51b288de34" target="_top" xlink:title=" ">
<polygon fill="white" stroke="#666666" points="303,-204 127,-204 127,-185 303,-185 303,-204"/>
<text text-anchor="middle" x="215" y="-192" font-family="Helvetica,sans-Serif" font-size="10.00">TWeaponHolder::GetGunByPlace</text>
</a>
</g>
</g>
<!-- Node1&#45;&gt;Node5 -->
<g id="edge4" class="edge">
<title>Node1&#45;&gt;Node5</title>
<path fill="none" stroke="#63b8ff" d="M86.17,-167.09C99.16,-170.17 113.68,-173.55 127,-176.5 136.6,-178.63 146.81,-180.81 156.74,-182.89"/>
<polygon fill="#63b8ff" stroke="#63b8ff" points="156.04,-186.32 166.54,-184.93 157.46,-179.46 156.04,-186.32"/>
</g>
<!-- Node6 -->
<g id="node6" class="node">
<title>Node6</title>
<g id="a_node6"><a xlink:href="../../db/df3/classTWarShip.html#a6498ce65a99aba4649774151442b3637" target="_top" xlink:title=" ">
<polygon fill="white" stroke="#666666" points="274,-167 156,-167 156,-148 274,-148 274,-167"/>
<text text-anchor="middle" x="215" y="-155" font-family="Helvetica,sans-Serif" font-size="10.00">TWarShip::GetHolder</text>
</a>
</g>
</g>
<!-- Node1&#45;&gt;Node6 -->
<g id="edge5" class="edge">
<title>Node1&#45;&gt;Node6</title>
<path fill="none" stroke="#63b8ff" d="M91.39,-157.5C108.07,-157.5 127.39,-157.5 145.69,-157.5"/>
<polygon fill="#63b8ff" stroke="#63b8ff" points="145.73,-161 155.73,-157.5 145.73,-154 145.73,-161"/>
</g>
<!-- Node7 -->
<g id="node7" class="node">
<title>Node7</title>
<g id="a_node7"><a xlink:href="../../db/df3/classTWarShip.html#a1728538cd00c77fb09b08357e491bca8" target="_top" xlink:title=" ">
<polygon fill="white" stroke="#666666" points="260.5,-130 169.5,-130 169.5,-111 260.5,-111 260.5,-130"/>
<text text-anchor="middle" x="215" y="-118" font-family="Helvetica,sans-Serif" font-size="10.00">TWarShip::Print</text>
</a>
</g>
</g>
<!-- Node1&#45;&gt;Node7 -->
<g id="edge6" class="edge">
<title>Node1&#45;&gt;Node7</title>
<path fill="none" stroke="#63b8ff" d="M89.1,-147.93C101.34,-145.2 114.69,-142.22 127,-139.5 137.75,-137.12 149.25,-134.6 160.25,-132.19"/>
<polygon fill="#63b8ff" stroke="#63b8ff" points="161.16,-135.58 170.18,-130.03 159.66,-128.74 161.16,-135.58"/>
</g>
<!-- Node11 -->
<g id="node11" class="node">
<title>Node11</title>
<g id="a_node11"><a xlink:href="../../dc/de8/classTShop.html#a46d86376a3b839bf3299639a9bb844a7" target="_top" xlink:title=" ">
<polygon fill="white" stroke="#666666" points="262,-93 168,-93 168,-74 262,-74 262,-93"/>
<text text-anchor="middle" x="215" y="-81" font-family="Helvetica,sans-Serif" font-size="10.00">TShop::PrintInfo</text>
</a>
</g>
</g>
<!-- Node1&#45;&gt;Node11 -->
<g id="edge10" class="edge">
<title>Node1&#45;&gt;Node11</title>
<path fill="none" stroke="#63b8ff" d="M57.41,-147.99C72.17,-135.63 99.8,-114.23 127,-102.5 136.68,-98.32 147.38,-95.02 157.87,-92.43"/>
<polygon fill="#63b8ff" stroke="#63b8ff" points="158.85,-95.8 167.81,-90.16 157.29,-88.97 158.85,-95.8"/>
</g>
<!-- Node12 -->
<g id="node12" class="node">
<title>Node12</title>
<g id="a_node12"><a xlink:href="../../dc/de8/classTShop.html#aa10e5887f689e5928cce716aa1bf9ea6" target="_top" xlink:title=" ">
<polygon fill="white" stroke="#666666" points="260,-56 170,-56 170,-37 260,-37 260,-56"/>
<text text-anchor="middle" x="215" y="-44" font-family="Helvetica,sans-Serif" font-size="10.00">TShop::ReadInt</text>
</a>
</g>
</g>
<!-- Node1&#45;&gt;Node12 -->
<g id="edge11" class="edge">
<title>Node1&#45;&gt;Node12</title>
<path fill="none" stroke="#63b8ff" d="M51.92,-147.77C63.18,-128.5 91.09,-85.57 127,-64.5 136.98,-58.64 148.58,-54.67 160,-51.99"/>
<polygon fill="#63b8ff" stroke="#63b8ff" points="160.85,-55.39 169.94,-49.94 159.44,-48.53 160.85,-55.39"/>
</g>
<!-- Node13 -->
<g id="node13" class="node">
<title>Node13</title>
<g id="a_node13"><a xlink:href="../../d8/d51/classMyList.html#a37366fbfd16acad1dfa69a141b339095" target="_top" xlink:title=" ">
<polygon fill="white" stroke="#666666" points="252,-19 178,-19 178,0 252,0 252,-19"/>
<text text-anchor="middle" x="215" y="-7" font-family="Helvetica,sans-Serif" font-size="10.00">MyList::size</text>
</a>
</g>
</g>
<!-- Node1&#45;&gt;Node13 -->
<g id="edge12" class="edge">
<title>Node1&#45;&gt;Node13</title>
<path fill="none" stroke="#63b8ff" d="M49.5,-147.79C57.61,-123.29 82.4,-58.68 127,-27.5 138.9,-19.18 153.82,-14.54 167.92,-12.01"/>
<polygon fill="#63b8ff" stroke="#63b8ff" points="168.61,-15.44 177.99,-10.51 167.58,-8.52 168.61,-15.44"/>
</g>
<!-- Node8 -->
<g id="node8" class="node">
<title>Node8</title>
<g id="a_node8"><a xlink:href="../../db/df3/classTWarShip.html#a1deb0d2b3eee3d1a4a9976ae55300307" target="_top" xlink:title=" ">
<polygon fill="white" stroke="#666666" points="494,-148 339,-148 339,-129 494,-129 494,-148"/>
<text text-anchor="middle" x="416.5" y="-136" font-family="Helvetica,sans-Serif" font-size="10.00">TWarShip::GetCostWithGuns</text>
</a>
</g>
</g>
<!-- Node7&#45;&gt;Node8 -->
<g id="edge7" class="edge">
<title>Node7&#45;&gt;Node8</title>
<path fill="none" stroke="#63b8ff" d="M260.77,-124.54C280.88,-126.35 305.31,-128.56 328.77,-130.67"/>
<polygon fill="#63b8ff" stroke="#63b8ff" points="328.48,-134.16 338.75,-131.58 329.11,-127.19 328.48,-134.16"/>
</g>
<!-- Node10 -->
<g id="node10" class="node">
<title>Node10</title>
<g id="a_node10"><a xlink:href="../../d4/de2/classTWeaponHolder.html#ac1330fe768fc0ea732f579c166650dc5" target="_top" xlink:title=" ">
<polygon fill="white" stroke="#666666" points="477.5,-111 355.5,-111 355.5,-92 477.5,-92 477.5,-111"/>
<text text-anchor="middle" x="416.5" y="-99" font-family="Helvetica,sans-Serif" font-size="10.00">TWeaponHolder::Print</text>
</a>
</g>
</g>
<!-- Node7&#45;&gt;Node10 -->
<g id="edge9" class="edge">
<title>Node7&#45;&gt;Node10</title>
<path fill="none" stroke="#63b8ff" d="M260.77,-116.24C285.63,-113.87 317.12,-110.87 345.2,-108.2"/>
<polygon fill="#63b8ff" stroke="#63b8ff" points="345.74,-111.66 355.37,-107.23 345.08,-104.69 345.74,-111.66"/>
</g>
<!-- Node9 -->
<g id="node9" class="node">
<title>Node9</title>
<g id="a_node9"><a xlink:href="../../d4/de2/classTWeaponHolder.html#a41344ca59e32b01ba31c08ee5d609731" target="_top" xlink:title=" ">
<polygon fill="white" stroke="#666666" points="669,-148 530,-148 530,-129 669,-129 669,-148"/>
<text text-anchor="middle" x="599.5" y="-136" font-family="Helvetica,sans-Serif" font-size="10.00">TWeaponHolder::GetCost</text>
</a>
</g>
</g>
<!-- Node8&#45;&gt;Node9 -->
<g id="edge8" class="edge">
<title>Node8&#45;&gt;Node9</title>
<path fill="none" stroke="#63b8ff" d="M494.26,-138.5C502.69,-138.5 511.27,-138.5 519.72,-138.5"/>
<polygon fill="#63b8ff" stroke="#63b8ff" points="519.94,-142 529.94,-138.5 519.94,-135 519.94,-142"/>
</g>
</g>
</svg>
        <g id="navigator" transform="translate(0 0)" fill="#404254">
                <rect fill="#f2f5e9" fill-opacity="0.5" stroke="#606060" stroke-width=".5" x="0" y="0" width="60" height="60"/>
                <use id="zoomplus" xlink:href="#zoomPlus" x="17" y="9" onmousedown="handleZoom(evt,'in')"/>
                <use id="zoomminus" xlink:href="#zoomMin" x="42" y="9" onmousedown="handleZoom(evt,'out')"/>
                <use id="reset" xlink:href="#resetDef" x="30" y="36" onmousedown="handleReset()"/>
                <g id="arrowUp" xlink:href="#dirArrow" transform="translate(30 24)" onmousedown="handlePan(0,-1)">
                  <use xlink:href="#rim" fill="#404040">
                        <set attributeName="fill" to="#808080" begin="arrowUp.mouseover" end="arrowUp.mouseout"/>
                  </use>
                  <path fill="none" stroke="white" stroke-width="1.5" d="M0,-3.0v7 M-2.5,-0.5L0,-3.0L2.5,-0.5"/>
                </g>
                <g id="arrowRight" xlink:href="#dirArrow" transform="rotate(90) translate(36 -43)" onmousedown="handlePan(1,0)">
                  <use xlink:href="#rim" fill="#404040">
                        <set attributeName="fill" to="#808080" begin="arrowRight.mouseover" end="arrowRight.mouseout"/>
                  </use>
                  <path fill="none" stroke="white" stroke-width="1.5" d="M0,-3.0v7 M-2.5,-0.5L0,-3.0L2.5,-0.5"/>
                </g>
                <g id="arrowDown" xlink:href="#dirArrow" transform="rotate(180) translate(-30 -48)" onmousedown="handlePan(0,1)">
                  <use xlink:href="#rim" fill="#404040">
                        <set attributeName="fill" to="#808080" begin="arrowDown.mouseover" end="arrowDown.mouseout"/>
                  </use>
                  <path fill="none" stroke="white" stroke-width="1.5" d="M0,-3.0v7 M-2.5,-0.5L0,-3.0L2.5,-0.5"/>
                </g>
                <g id="arrowLeft" xlink:href="#dirArrow" transform="rotate(270) translate(-36 17)" onmousedown="handlePan(-1,0)">
                  <use xlink:href="#rim" fill="#404040">
                        <set attributeName="fill" to="#808080" begin="arrowLeft.mouseover" end="arrowLeft.mouseout"/>
                  </use>
                  <path fill="none" stroke="white" stroke-width="1.5" d="M0,-3.0v7 M-2.5,-0.5L0,-3.0L2.5,-0.5"/>
                </g>
        </g>
        <svg viewBox="0 0 15 15" width="100%" height="30px" preserveAspectRatio="xMaxYMin meet">
         <g id="arrow_out" transform="scale(0.3 0.3)">
          <a xlink:href="classTShop_ac463d2ee0ef76283f4dac87a51353c36_cgraph_org.svg" target="_base">
           <rect id="button" ry="5" rx="5" y="6" x="6" height="38" width="38"
                fill="#f2f5e9" fill-opacity="0.5" stroke="#606060" stroke-width="1.0"/>
           <path id="arrow"
             d="M 11.500037,31.436501 C 11.940474,20.09759 22.043105,11.32322 32.158766,21.979434 L 37.068811,17.246167 C 37.068811,17.246167 37.088388,32 37.088388,32 L 22.160133,31.978069 C 22.160133,31.978069 26.997745,27.140456 26.997745,27.140456 C 18.528582,18.264221 13.291696,25.230495 11.500037,31.436501 z"
             style="fill:#404040;"/>
          </a>
         </g>
        </svg>
</svg>
