<?xml version="1.0" encoding="UTF-8" standalone="no"?>
<!DOCTYPE svg PUBLIC "-//W3C//DTD SVG 1.1//EN"
 "http://www.w3.org/Graphics/SVG/1.1/DTD/svg11.dtd">
<!-- Generated by graphviz version 2.43.0 (0)
 -->
<!-- Title: TShop::Shop Pages: 1 -->
<svg width="972pt" height="734pt"
 viewBox="0.00 0.00 972.00 734.00" xmlns="http://www.w3.org/2000/svg" xmlns:xlink="http://www.w3.org/1999/xlink">
<g id="graph0" class="graph" transform="scale(1 1) rotate(0) translate(4 730)">
<title>TShop::Shop</title>
<!-- Node1 -->
<g id="node1" class="node">
<title>Node1</title>
<g id="a_node1"><a xlink:title=" ">
<polygon fill="#999999" stroke="#666666" points="77,-370 0,-370 0,-351 77,-351 77,-370"/>
<text text-anchor="middle" x="38.5" y="-358" font-family="Helvetica,sans-Serif" font-size="10.00">TShop::Shop</text>
</a>
</g>
</g>
<!-- Node2 -->
<g id="node2" class="node">
<title>Node2</title>
<g id="a_node2"><a xlink:href="../../dc/de8/classTShop.html#a1dcf7617180c288121288af2ed21909b" target="_top" xlink:title=" ">
<polygon fill="white" stroke="#666666" points="217,-370 113,-370 113,-351 217,-351 217,-370"/>
<text text-anchor="middle" x="165" y="-358" font-family="Helvetica,sans-Serif" font-size="10.00">TShop::MainMenu</text>
</a>
</g>
</g>
<!-- Node1&#45;&gt;Node2 -->
<g id="edge1" class="edge">
<title>Node1&#45;&gt;Node2</title>
<path fill="none" stroke="#63b8ff" d="M77.19,-360.5C85.22,-360.5 93.89,-360.5 102.54,-360.5"/>
<polygon fill="#63b8ff" stroke="#63b8ff" points="102.65,-364 112.65,-360.5 102.65,-357 102.65,-364"/>
</g>
<!-- Node3 -->
<g id="node3" class="node">
<title>Node3</title>
<g id="a_node3"><a xlink:href="../../dc/de8/classTShop.html#aef476da75c7312f1d68373c4883b20b0" target="_top" xlink:title=" ">
<polygon fill="white" stroke="#666666" points="362,-426 257,-426 257,-407 362,-407 362,-426"/>
<text text-anchor="middle" x="309.5" y="-414" font-family="Helvetica,sans-Serif" font-size="10.00">TShop::AddWeight</text>
</a>
</g>
</g>
<!-- Node2&#45;&gt;Node3 -->
<g id="edge2" class="edge">
<title>Node2&#45;&gt;Node3</title>
<path fill="none" stroke="#63b8ff" d="M187.28,-370.06C204.78,-377.8 230.32,-388.81 253,-397.5 258.29,-399.53 263.9,-401.57 269.44,-403.53"/>
<polygon fill="#63b8ff" stroke="#63b8ff" points="268.67,-406.96 279.27,-406.93 270.96,-400.35 268.67,-406.96"/>
</g>
<!-- Node7 -->
<g id="node7" class="node">
<title>Node7</title>
<g id="a_node7"><a xlink:href="../../dc/de8/classTShop.html#a46d86376a3b839bf3299639a9bb844a7" target="_top" xlink:title=" ">
<polygon fill="white" stroke="#666666" points="537,-502 443,-502 443,-483 537,-483 537,-502"/>
<text text-anchor="middle" x="490" y="-490" font-family="Helvetica,sans-Serif" font-size="10.00">TShop::PrintInfo</text>
</a>
</g>
</g>
<!-- Node2&#45;&gt;Node7 -->
<g id="edge39" class="edge">
<title>Node2&#45;&gt;Node7</title>
<path fill="none" stroke="#63b8ff" d="M174.36,-370.05C188.78,-385.91 219.99,-417.61 253,-434.5 284.07,-450.4 373.53,-469.97 432.95,-481.83"/>
<polygon fill="#63b8ff" stroke="#63b8ff" points="432.45,-485.3 442.94,-483.81 433.81,-478.43 432.45,-485.3"/>
</g>
<!-- Node8 -->
<g id="node8" class="node">
<title>Node8</title>
<g id="a_node8"><a xlink:href="../../dc/de8/classTShop.html#aa10e5887f689e5928cce716aa1bf9ea6" target="_top" xlink:title=" ">
<polygon fill="white" stroke="#666666" points="535,-241 445,-241 445,-222 535,-222 535,-241"/>
<text text-anchor="middle" x="490" y="-229" font-family="Helvetica,sans-Serif" font-size="10.00">TShop::ReadInt</text>
</a>
</g>
</g>
<!-- Node2&#45;&gt;Node8 -->
<g id="edge41" class="edge">
<title>Node2&#45;&gt;Node8</title>
<path fill="none" stroke="#63b8ff" d="M187.28,-350.96C204.79,-343.23 230.33,-332.22 253,-323.5 302.59,-304.43 320.76,-312.35 366,-284.5 385,-272.8 382.29,-259.96 402,-249.5 412.12,-244.13 423.68,-240.37 435.01,-237.72"/>
<polygon fill="#63b8ff" stroke="#63b8ff" points="435.78,-241.14 444.86,-235.67 434.35,-234.28 435.78,-241.14"/>
</g>
<!-- Node11 -->
<g id="node11" class="node">
<title>Node11</title>
<g id="a_node11"><a xlink:href="../../dc/de8/classTShop.html#a5e84a0c01c9d507bda6ce4a0de43eaa7" target="_top" xlink:title=" ">
<polygon fill="white" stroke="#666666" points="355.5,-502 263.5,-502 263.5,-483 355.5,-483 355.5,-502"/>
<text text-anchor="middle" x="309.5" y="-490" font-family="Helvetica,sans-Serif" font-size="10.00">TShop::AskPlay</text>
</a>
</g>
</g>
<!-- Node2&#45;&gt;Node11 -->
<g id="edge10" class="edge">
<title>Node2&#45;&gt;Node11</title>
<path fill="none" stroke="#63b8ff" d="M171.53,-370.17C183.76,-390.81 215.06,-439.63 253,-468.5 258.1,-472.38 263.92,-475.77 269.83,-478.69"/>
<polygon fill="#63b8ff" stroke="#63b8ff" points="268.55,-481.95 279.1,-482.89 271.44,-475.58 268.55,-481.95"/>
</g>
<!-- Node12 -->
<g id="node12" class="node">
<title>Node12</title>
<g id="a_node12"><a xlink:href="../../dc/de8/classTShop.html#aa31244972d1d22e92673e8446ef50f2d" target="_top" xlink:title=" ">
<polygon fill="white" stroke="#666666" points="364,-652 255,-652 255,-633 364,-633 364,-652"/>
<text text-anchor="middle" x="309.5" y="-640" font-family="Helvetica,sans-Serif" font-size="10.00">TShop::AutoWeight</text>
</a>
</g>
</g>
<!-- Node2&#45;&gt;Node12 -->
<g id="edge12" class="edge">
<title>Node2&#45;&gt;Node12</title>
<path fill="none" stroke="#63b8ff" d="M170.91,-370.21C191.5,-410.97 271.21,-568.71 298.93,-623.57"/>
<polygon fill="#63b8ff" stroke="#63b8ff" points="295.98,-625.49 303.62,-632.83 302.23,-622.33 295.98,-625.49"/>
</g>
<!-- Node17 -->
<g id="node17" class="node">
<title>Node17</title>
<g id="a_node17"><a xlink:href="../../dc/de8/classTShop.html#ac463d2ee0ef76283f4dac87a51353c36" target="_top" xlink:title=" ">
<polygon fill="white" stroke="#666666" points="355,-352 264,-352 264,-333 355,-333 355,-352"/>
<text text-anchor="middle" x="309.5" y="-340" font-family="Helvetica,sans-Serif" font-size="10.00">TShop::BuyGun</text>
</a>
</g>
</g>
<!-- Node2&#45;&gt;Node17 -->
<g id="edge20" class="edge">
<title>Node2&#45;&gt;Node17</title>
<path fill="none" stroke="#63b8ff" d="M217.04,-354.05C229.02,-352.54 241.83,-350.92 253.96,-349.39"/>
<polygon fill="#63b8ff" stroke="#63b8ff" points="254.47,-352.85 263.95,-348.13 253.59,-345.91 254.47,-352.85"/>
</g>
<!-- Node26 -->
<g id="node26" class="node">
<title>Node26</title>
<g id="a_node26"><a xlink:href="../../dc/de8/classTShop.html#aecceb42ffe39e9e0e9f1e152fa0c258d" target="_top" xlink:title=" ">
<polygon fill="white" stroke="#666666" points="355.5,-148 263.5,-148 263.5,-129 355.5,-129 355.5,-148"/>
<text text-anchor="middle" x="309.5" y="-136" font-family="Helvetica,sans-Serif" font-size="10.00">TShop::BuyShip</text>
</a>
</g>
</g>
<!-- Node2&#45;&gt;Node26 -->
<g id="edge33" class="edge">
<title>Node2&#45;&gt;Node26</title>
<path fill="none" stroke="#63b8ff" d="M171.07,-350.76C183.85,-326.47 218.77,-261.49 253,-210.5 265.82,-191.4 282.03,-170.71 293.62,-156.43"/>
<polygon fill="#63b8ff" stroke="#63b8ff" points="296.53,-158.4 300.16,-148.44 291.12,-153.96 296.53,-158.4"/>
</g>
<!-- Node30 -->
<g id="node30" class="node">
<title>Node30</title>
<g id="a_node30"><a xlink:href="../../dc/de8/classTShop.html#a50adc3df9d34e65a112b243e1da598d4" target="_top" xlink:title=" ">
<polygon fill="white" stroke="#666666" points="366,-276 253,-276 253,-257 366,-257 366,-276"/>
<text text-anchor="middle" x="309.5" y="-264" font-family="Helvetica,sans-Serif" font-size="10.00">TShop::PrintOptions</text>
</a>
</g>
</g>
<!-- Node2&#45;&gt;Node30 -->
<g id="edge40" class="edge">
<title>Node2&#45;&gt;Node30</title>
<path fill="none" stroke="#63b8ff" d="M176.03,-350.9C191.56,-336.42 222.79,-308.73 253,-290.5 259.3,-286.7 266.32,-283.18 273.18,-280.07"/>
<polygon fill="#63b8ff" stroke="#63b8ff" points="274.57,-283.28 282.36,-276.1 271.8,-276.86 274.57,-283.28"/>
</g>
<!-- Node31 -->
<g id="node31" class="node">
<title>Node31</title>
<g id="a_node31"><a xlink:href="../../dc/de8/classTShop.html#a7c75fe3801c08795282fefc2baae29b8" target="_top" xlink:title=" ">
<polygon fill="white" stroke="#666666" points="354.5,-239 264.5,-239 264.5,-220 354.5,-220 354.5,-239"/>
<text text-anchor="middle" x="309.5" y="-227" font-family="Helvetica,sans-Serif" font-size="10.00">TShop::SellGun</text>
</a>
</g>
</g>
<!-- Node2&#45;&gt;Node31 -->
<g id="edge42" class="edge">
<title>Node2&#45;&gt;Node31</title>
<path fill="none" stroke="#63b8ff" d="M170.86,-350.74C182.19,-328.95 212.53,-276.04 253,-247.5 255.1,-246.02 257.33,-244.65 259.64,-243.4"/>
<polygon fill="#63b8ff" stroke="#63b8ff" points="261.3,-246.48 268.87,-239.07 258.33,-240.15 261.3,-246.48"/>
</g>
<!-- Node32 -->
<g id="node32" class="node">
<title>Node32</title>
<g id="a_node32"><a xlink:href="../../dc/de8/classTShop.html#ae39747c12e22b3bd4641affc0be979e3" target="_top" xlink:title=" ">
<polygon fill="white" stroke="#666666" points="355.5,-389 263.5,-389 263.5,-370 355.5,-370 355.5,-389"/>
<text text-anchor="middle" x="309.5" y="-377" font-family="Helvetica,sans-Serif" font-size="10.00">TShop::SellShip</text>
</a>
</g>
</g>
<!-- Node2&#45;&gt;Node32 -->
<g id="edge50" class="edge">
<title>Node2&#45;&gt;Node32</title>
<path fill="none" stroke="#63b8ff" d="M217.04,-367.31C228.78,-368.87 241.31,-370.54 253.22,-372.13"/>
<polygon fill="#63b8ff" stroke="#63b8ff" points="253.11,-375.65 263.48,-373.5 254.03,-368.71 253.11,-375.65"/>
</g>
<!-- Node4 -->
<g id="node4" class="node">
<title>Node4</title>
<g id="a_node4"><a xlink:href="../../d8/d51/classMyList.html#a281f359e28eb5d6014ba3405cf0e6895" target="_top" xlink:title=" ">
<polygon fill="white" stroke="#666666" points="531,-278 449,-278 449,-259 531,-259 531,-278"/>
<text text-anchor="middle" x="490" y="-266" font-family="Helvetica,sans-Serif" font-size="10.00">MyList::begin</text>
</a>
</g>
</g>
<!-- Node3&#45;&gt;Node4 -->
<g id="edge3" class="edge">
<title>Node3&#45;&gt;Node4</title>
<path fill="none" stroke="#63b8ff" d="M352.71,-406.86C357.62,-404.42 362.21,-401.35 366,-397.5 402.37,-360.53 363.37,-321.11 402,-286.5 412.07,-277.48 425.44,-272.52 438.68,-269.91"/>
<polygon fill="#63b8ff" stroke="#63b8ff" points="439.38,-273.34 448.71,-268.34 438.29,-266.43 439.38,-273.34"/>
</g>
<!-- Node5 -->
<g id="node5" class="node">
<title>Node5</title>
<g id="a_node5"><a xlink:href="../../d3/d81/classTCargoShip.html#aac8aa5512f4e7ea9641f3a5812cc8722" target="_top" xlink:title=" ">
<polygon fill="white" stroke="#666666" points="565,-578 415,-578 415,-559 565,-559 565,-578"/>
<text text-anchor="middle" x="490" y="-566" font-family="Helvetica,sans-Serif" font-size="10.00">TCargoShip::GetWeightNow</text>
</a>
</g>
</g>
<!-- Node3&#45;&gt;Node5 -->
<g id="edge4" class="edge">
<title>Node3&#45;&gt;Node5</title>
<path fill="none" stroke="#63b8ff" d="M321.75,-426.15C333.75,-436.86 352.83,-455.07 366,-473.5 386.58,-502.28 374.61,-522.11 402,-544.5 407.22,-548.76 413.13,-552.27 419.37,-555.16"/>
<polygon fill="#63b8ff" stroke="#63b8ff" points="418.11,-558.43 428.69,-558.96 420.76,-551.94 418.11,-558.43"/>
</g>
<!-- Node6 -->
<g id="node6" class="node">
<title>Node6</title>
<g id="a_node6"><a xlink:href="../../d3/d81/classTCargoShip.html#af864094175baefdf2e6f8c88a53ad716" target="_top" xlink:title=" ">
<polygon fill="white" stroke="#666666" points="566,-615 414,-615 414,-596 566,-596 566,-615"/>
<text text-anchor="middle" x="490" y="-603" font-family="Helvetica,sans-Serif" font-size="10.00">TCargoShip::GetWeightTotal</text>
</a>
</g>
</g>
<!-- Node3&#45;&gt;Node6 -->
<g id="edge5" class="edge">
<title>Node3&#45;&gt;Node6</title>
<path fill="none" stroke="#63b8ff" d="M322.81,-426.14C335.34,-436.57 354.52,-454.3 366,-473.5 393.27,-519.1 362.57,-551.89 402,-587.5 403.14,-588.53 404.33,-589.51 405.56,-590.44"/>
<polygon fill="#63b8ff" stroke="#63b8ff" points="403.83,-593.49 414.15,-595.87 407.57,-587.57 403.83,-593.49"/>
</g>
<!-- Node3&#45;&gt;Node7 -->
<g id="edge6" class="edge">
<title>Node3&#45;&gt;Node7</title>
<path fill="none" stroke="#63b8ff" d="M336.31,-426.07C345.89,-430.03 356.7,-434.99 366,-440.5 383.44,-450.83 383.88,-459.41 402,-468.5 411.65,-473.34 422.41,-477.32 432.98,-480.54"/>
<polygon fill="#63b8ff" stroke="#63b8ff" points="432.02,-483.91 442.6,-483.29 433.94,-477.18 432.02,-483.91"/>
</g>
<!-- Node3&#45;&gt;Node8 -->
<g id="edge7" class="edge">
<title>Node3&#45;&gt;Node8</title>
<path fill="none" stroke="#63b8ff" d="M353.26,-406.99C358.02,-404.52 362.43,-401.41 366,-397.5 411.64,-347.5 353.31,-296.53 402,-249.5 410.84,-240.96 422.61,-235.99 434.62,-233.2"/>
<polygon fill="#63b8ff" stroke="#63b8ff" points="435.51,-236.6 444.71,-231.34 434.24,-229.71 435.51,-236.6"/>
</g>
<!-- Node9 -->
<g id="node9" class="node">
<title>Node9</title>
<g id="a_node9"><a xlink:href="../../d3/d81/classTCargoShip.html#a9a12a2c02b7b32f49c952f4c13e74a77" target="_top" xlink:title=" ">
<polygon fill="white" stroke="#666666" points="776,-577 627,-577 627,-558 776,-558 776,-577"/>
<text text-anchor="middle" x="701.5" y="-565" font-family="Helvetica,sans-Serif" font-size="10.00">TCargoShip::SetWeightNow</text>
</a>
</g>
</g>
<!-- Node3&#45;&gt;Node9 -->
<g id="edge8" class="edge">
<title>Node3&#45;&gt;Node9</title>
<path fill="none" stroke="#63b8ff" d="M319.95,-426.21C343.33,-450.22 402,-510.5 402,-510.5 421.84,-521.18 548.19,-543 630.01,-556.33"/>
<polygon fill="#63b8ff" stroke="#63b8ff" points="629.58,-559.8 640.01,-557.95 630.7,-552.89 629.58,-559.8"/>
</g>
<!-- Node10 -->
<g id="node10" class="node">
<title>Node10</title>
<g id="a_node10"><a xlink:href="../../d8/d51/classMyList.html#a37366fbfd16acad1dfa69a141b339095" target="_top" xlink:title=" ">
<polygon fill="white" stroke="#666666" points="527,-389 453,-389 453,-370 527,-370 527,-389"/>
<text text-anchor="middle" x="490" y="-377" font-family="Helvetica,sans-Serif" font-size="10.00">MyList::size</text>
</a>
</g>
</g>
<!-- Node3&#45;&gt;Node10 -->
<g id="edge9" class="edge">
<title>Node3&#45;&gt;Node10</title>
<path fill="none" stroke="#63b8ff" d="M356.58,-406.93C371.11,-403.91 387.23,-400.56 402,-397.5 415.24,-394.76 429.61,-391.78 442.79,-389.05"/>
<polygon fill="#63b8ff" stroke="#63b8ff" points="443.51,-392.48 452.6,-387.03 442.09,-385.62 443.51,-392.48"/>
</g>
<!-- Node11&#45;&gt;Node7 -->
<g id="edge11" class="edge">
<title>Node11&#45;&gt;Node7</title>
<path fill="none" stroke="#63b8ff" d="M355.54,-492.5C378.96,-492.5 407.82,-492.5 432.69,-492.5"/>
<polygon fill="#63b8ff" stroke="#63b8ff" points="432.73,-496 442.73,-492.5 432.73,-489 432.73,-496"/>
</g>
<!-- Node12&#45;&gt;Node6 -->
<g id="edge13" class="edge">
<title>Node12&#45;&gt;Node6</title>
<path fill="none" stroke="#63b8ff" d="M356.47,-632.97C379.8,-628.14 408.34,-622.22 432.95,-617.12"/>
<polygon fill="#63b8ff" stroke="#63b8ff" points="433.8,-620.52 442.88,-615.06 432.38,-613.66 433.8,-620.52"/>
</g>
<!-- Node13 -->
<g id="node13" class="node">
<title>Node13</title>
<g id="a_node13"><a xlink:href="../../dc/de8/classTShop.html#abe63a0587be037f14a2e04e62fd1fc60" target="_top" xlink:title=" ">
<polygon fill="white" stroke="#666666" points="555.5,-689 424.5,-689 424.5,-670 555.5,-670 555.5,-689"/>
<text text-anchor="middle" x="490" y="-677" font-family="Helvetica,sans-Serif" font-size="10.00">TShop::IsSpeedPossible</text>
</a>
</g>
</g>
<!-- Node12&#45;&gt;Node13 -->
<g id="edge14" class="edge">
<title>Node12&#45;&gt;Node13</title>
<path fill="none" stroke="#63b8ff" d="M356.58,-652.07C371.11,-655.09 387.23,-658.44 402,-661.5 411.97,-663.57 422.58,-665.76 432.84,-667.89"/>
<polygon fill="#63b8ff" stroke="#63b8ff" points="432.44,-671.38 442.94,-669.98 433.86,-664.52 432.44,-671.38"/>
</g>
<!-- Node15 -->
<g id="node15" class="node">
<title>Node15</title>
<g id="a_node15"><a xlink:href="../../dc/de8/classTShop.html#ae77eb41b055433f33b63810b32dfb88c" target="_top" xlink:title=" ">
<polygon fill="white" stroke="#666666" points="562.5,-652 417.5,-652 417.5,-633 562.5,-633 562.5,-652"/>
<text text-anchor="middle" x="490" y="-640" font-family="Helvetica,sans-Serif" font-size="10.00">TShop::SetWeightBySpeed</text>
</a>
</g>
</g>
<!-- Node12&#45;&gt;Node15 -->
<g id="edge16" class="edge">
<title>Node12&#45;&gt;Node15</title>
<path fill="none" stroke="#63b8ff" d="M364.06,-642.5C377.66,-642.5 392.58,-642.5 407.23,-642.5"/>
<polygon fill="#63b8ff" stroke="#63b8ff" points="407.32,-646 417.32,-642.5 407.32,-639 407.32,-646"/>
</g>
<!-- Node16 -->
<g id="node16" class="node">
<title>Node16</title>
<g id="a_node16"><a xlink:href="../../d3/d81/classTCargoShip.html#a2058989e985027329e36e55be4d83cc9" target="_top" xlink:title=" ">
<polygon fill="white" stroke="#666666" points="567,-726 413,-726 413,-707 567,-707 567,-726"/>
<text text-anchor="middle" x="490" y="-714" font-family="Helvetica,sans-Serif" font-size="10.00">TCargoShip::SpeedByWeight</text>
</a>
</g>
</g>
<!-- Node12&#45;&gt;Node16 -->
<g id="edge19" class="edge">
<title>Node12&#45;&gt;Node16</title>
<path fill="none" stroke="#63b8ff" d="M323.08,-652.17C340.06,-664.75 371.69,-686.51 402,-698.5 407.51,-700.68 413.33,-702.61 419.24,-704.32"/>
<polygon fill="#63b8ff" stroke="#63b8ff" points="418.67,-707.79 429.23,-706.99 420.47,-701.03 418.67,-707.79"/>
</g>
<!-- Node14 -->
<g id="node14" class="node">
<title>Node14</title>
<g id="a_node14"><a xlink:href="../../d3/d81/classTCargoShip.html#a1f4cbd4a7effa3987f1298da081e8aec" target="_top" xlink:title=" ">
<polygon fill="white" stroke="#666666" points="789,-670 614,-670 614,-651 789,-651 789,-670"/>
<text text-anchor="middle" x="701.5" y="-658" font-family="Helvetica,sans-Serif" font-size="10.00">TCargoShip::WeightMaxBySpeed</text>
</a>
</g>
</g>
<!-- Node13&#45;&gt;Node14 -->
<g id="edge15" class="edge">
<title>Node13&#45;&gt;Node14</title>
<path fill="none" stroke="#63b8ff" d="M555.57,-673.64C570.8,-672.26 587.37,-670.76 603.68,-669.28"/>
<polygon fill="#63b8ff" stroke="#63b8ff" points="604.15,-672.75 613.79,-668.36 603.51,-665.78 604.15,-672.75"/>
</g>
<!-- Node15&#45;&gt;Node9 -->
<g id="edge17" class="edge">
<title>Node15&#45;&gt;Node9</title>
<path fill="none" stroke="#63b8ff" d="M546.74,-632.97C557.24,-630.61 568.04,-627.8 578,-624.5 612.4,-613.11 649.9,-594.71 674.22,-581.91"/>
<polygon fill="#63b8ff" stroke="#63b8ff" points="676,-584.93 683.17,-577.13 672.7,-578.75 676,-584.93"/>
</g>
<!-- Node15&#45;&gt;Node14 -->
<g id="edge18" class="edge">
<title>Node15&#45;&gt;Node14</title>
<path fill="none" stroke="#63b8ff" d="M562.51,-648.64C575.77,-649.78 589.82,-650.99 603.69,-652.18"/>
<polygon fill="#63b8ff" stroke="#63b8ff" points="603.47,-655.68 613.73,-653.05 604.07,-648.7 603.47,-655.68"/>
</g>
<!-- Node17&#45;&gt;Node4 -->
<g id="edge21" class="edge">
<title>Node17&#45;&gt;Node4</title>
<path fill="none" stroke="#63b8ff" d="M337.35,-332.91C346.74,-329.04 357.15,-324.14 366,-318.5 384.05,-306.99 382.87,-296.11 402,-286.5 413.2,-280.88 426.05,-277.01 438.38,-274.35"/>
<polygon fill="#63b8ff" stroke="#63b8ff" points="439.41,-277.72 448.57,-272.39 438.09,-270.84 439.41,-277.72"/>
</g>
<!-- Node17&#45;&gt;Node7 -->
<g id="edge30" class="edge">
<title>Node17&#45;&gt;Node7</title>
<path fill="none" stroke="#63b8ff" d="M352.77,-352.12C357.55,-354.36 362.1,-357.11 366,-360.5 393.6,-384.5 377.94,-406.95 402,-434.5 418.04,-452.87 441.19,-467.92 459.58,-478.09"/>
<polygon fill="#63b8ff" stroke="#63b8ff" points="457.97,-481.2 468.44,-482.82 461.27,-475.02 457.97,-481.2"/>
</g>
<!-- Node17&#45;&gt;Node8 -->
<g id="edge31" class="edge">
<title>Node17&#45;&gt;Node8</title>
<path fill="none" stroke="#63b8ff" d="M342.67,-332.94C350.96,-329.37 359.39,-324.65 366,-318.5 391.33,-294.95 374.4,-270.35 402,-249.5 411.42,-242.38 422.99,-237.91 434.58,-235.14"/>
<polygon fill="#63b8ff" stroke="#63b8ff" points="435.59,-238.51 444.72,-233.12 434.23,-231.64 435.59,-238.51"/>
</g>
<!-- Node17&#45;&gt;Node10 -->
<g id="edge32" class="edge">
<title>Node17&#45;&gt;Node10</title>
<path fill="none" stroke="#63b8ff" d="M355.08,-351.74C381.82,-357.28 415.76,-364.32 442.79,-369.92"/>
<polygon fill="#63b8ff" stroke="#63b8ff" points="442.27,-373.39 452.77,-371.99 443.69,-366.53 442.27,-373.39"/>
</g>
<!-- Node18 -->
<g id="node18" class="node">
<title>Node18</title>
<g id="a_node18"><a xlink:href="../../d8/d51/classMyList.html#a80edb252c7e71107fac78c29647be513" target="_top" xlink:title=" ">
<polygon fill="white" stroke="#666666" points="536,-315 444,-315 444,-296 536,-296 536,-315"/>
<text text-anchor="middle" x="490" y="-303" font-family="Helvetica,sans-Serif" font-size="10.00">MyList::getById</text>
</a>
</g>
</g>
<!-- Node17&#45;&gt;Node18 -->
<g id="edge22" class="edge">
<title>Node17&#45;&gt;Node18</title>
<path fill="none" stroke="#63b8ff" d="M355.18,-333.22C370.07,-330.12 386.75,-326.66 402,-323.5 412.3,-321.36 423.29,-319.09 433.86,-316.9"/>
<polygon fill="#63b8ff" stroke="#63b8ff" points="434.76,-320.29 443.84,-314.84 433.34,-313.44 434.76,-320.29"/>
</g>
<!-- Node19 -->
<g id="node19" class="node">
<title>Node19</title>
<g id="a_node19"><a xlink:href="../../d1/d3d/classTWeapon.html#a2074e5b5b326730d5212a3dc00df06f4" target="_top" xlink:title=" ">
<polygon fill="white" stroke="#666666" points="543.5,-204 436.5,-204 436.5,-185 543.5,-185 543.5,-204"/>
<text text-anchor="middle" x="490" y="-192" font-family="Helvetica,sans-Serif" font-size="10.00">TWeapon::GetCost</text>
</a>
</g>
</g>
<!-- Node17&#45;&gt;Node19 -->
<g id="edge23" class="edge">
<title>Node17&#45;&gt;Node19</title>
<path fill="none" stroke="#63b8ff" d="M321.75,-332.65C333.76,-321.74 352.84,-303.19 366,-284.5 386.6,-255.25 373.64,-234.31 402,-212.5 409.11,-207.03 417.47,-203.12 426.16,-200.34"/>
<polygon fill="#63b8ff" stroke="#63b8ff" points="427.31,-203.65 436.05,-197.66 425.48,-196.9 427.31,-203.65"/>
</g>
<!-- Node20 -->
<g id="node20" class="node">
<title>Node20</title>
<g id="a_node20"><a xlink:href="../../d4/de2/classTWeaponHolder.html#a1c57748293f9f082f1598c51b288de34" target="_top" xlink:title=" ">
<polygon fill="white" stroke="#666666" points="578,-130 402,-130 402,-111 578,-111 578,-130"/>
<text text-anchor="middle" x="490" y="-118" font-family="Helvetica,sans-Serif" font-size="10.00">TWeaponHolder::GetGunByPlace</text>
</a>
</g>
</g>
<!-- Node17&#45;&gt;Node20 -->
<g id="edge24" class="edge">
<title>Node17&#45;&gt;Node20</title>
<path fill="none" stroke="#63b8ff" d="M323.05,-332.79C335.79,-322.26 355.12,-304.29 366,-284.5 398.19,-225.93 353.86,-184.86 402,-138.5 402.97,-137.57 403.97,-136.68 405.01,-135.83"/>
<polygon fill="#63b8ff" stroke="#63b8ff" points="407.18,-138.59 413.5,-130.09 403.26,-132.79 407.18,-138.59"/>
</g>
<!-- Node21 -->
<g id="node21" class="node">
<title>Node21</title>
<g id="a_node21"><a xlink:href="../../db/df3/classTWarShip.html#a6498ce65a99aba4649774151442b3637" target="_top" xlink:title=" ">
<polygon fill="white" stroke="#666666" points="549,-167 431,-167 431,-148 549,-148 549,-167"/>
<text text-anchor="middle" x="490" y="-155" font-family="Helvetica,sans-Serif" font-size="10.00">TWarShip::GetHolder</text>
</a>
</g>
</g>
<!-- Node17&#45;&gt;Node21 -->
<g id="edge25" class="edge">
<title>Node17&#45;&gt;Node21</title>
<path fill="none" stroke="#63b8ff" d="M322.75,-332.61C335.23,-321.94 354.37,-303.85 366,-284.5 392.28,-240.77 363.91,-209.44 402,-175.5 407.54,-170.56 414.07,-166.84 421.03,-164.06"/>
<polygon fill="#63b8ff" stroke="#63b8ff" points="422.35,-167.31 430.72,-160.82 420.13,-160.67 422.35,-167.31"/>
</g>
<!-- Node22 -->
<g id="node22" class="node">
<title>Node22</title>
<g id="a_node22"><a xlink:href="../../db/df3/classTWarShip.html#a1728538cd00c77fb09b08357e491bca8" target="_top" xlink:title=" ">
<polygon fill="white" stroke="#666666" points="535.5,-352 444.5,-352 444.5,-333 535.5,-333 535.5,-352"/>
<text text-anchor="middle" x="490" y="-340" font-family="Helvetica,sans-Serif" font-size="10.00">TWarShip::Print</text>
</a>
</g>
</g>
<!-- Node17&#45;&gt;Node22 -->
<g id="edge26" class="edge">
<title>Node17&#45;&gt;Node22</title>
<path fill="none" stroke="#63b8ff" d="M355.08,-342.5C379.04,-342.5 408.79,-342.5 434.16,-342.5"/>
<polygon fill="#63b8ff" stroke="#63b8ff" points="434.37,-346 444.37,-342.5 434.37,-339 434.37,-346"/>
</g>
<!-- Node23 -->
<g id="node23" class="node">
<title>Node23</title>
<g id="a_node23"><a xlink:href="../../db/df3/classTWarShip.html#a1deb0d2b3eee3d1a4a9976ae55300307" target="_top" xlink:title=" ">
<polygon fill="white" stroke="#666666" points="779,-427 624,-427 624,-408 779,-408 779,-427"/>
<text text-anchor="middle" x="701.5" y="-415" font-family="Helvetica,sans-Serif" font-size="10.00">TWarShip::GetCostWithGuns</text>
</a>
</g>
</g>
<!-- Node22&#45;&gt;Node23 -->
<g id="edge27" class="edge">
<title>Node22&#45;&gt;Node23</title>
<path fill="none" stroke="#63b8ff" d="M535.78,-349.7C549.5,-352.46 564.53,-356.04 578,-360.5 612.4,-371.89 649.9,-390.29 674.22,-403.09"/>
<polygon fill="#63b8ff" stroke="#63b8ff" points="672.7,-406.25 683.17,-407.87 676,-400.07 672.7,-406.25"/>
</g>
<!-- Node25 -->
<g id="node25" class="node">
<title>Node25</title>
<g id="a_node25"><a xlink:href="../../d4/de2/classTWeaponHolder.html#ac1330fe768fc0ea732f579c166650dc5" target="_top" xlink:title=" ">
<polygon fill="white" stroke="#666666" points="762.5,-352 640.5,-352 640.5,-333 762.5,-333 762.5,-352"/>
<text text-anchor="middle" x="701.5" y="-340" font-family="Helvetica,sans-Serif" font-size="10.00">TWeaponHolder::Print</text>
</a>
</g>
</g>
<!-- Node22&#45;&gt;Node25 -->
<g id="edge29" class="edge">
<title>Node22&#45;&gt;Node25</title>
<path fill="none" stroke="#63b8ff" d="M535.69,-342.5C563.11,-342.5 598.83,-342.5 630,-342.5"/>
<polygon fill="#63b8ff" stroke="#63b8ff" points="630.38,-346 640.38,-342.5 630.38,-339 630.38,-346"/>
</g>
<!-- Node24 -->
<g id="node24" class="node">
<title>Node24</title>
<g id="a_node24"><a xlink:href="../../d4/de2/classTWeaponHolder.html#a41344ca59e32b01ba31c08ee5d609731" target="_top" xlink:title=" ">
<polygon fill="white" stroke="#666666" points="964,-427 825,-427 825,-408 964,-408 964,-427"/>
<text text-anchor="middle" x="894.5" y="-415" font-family="Helvetica,sans-Serif" font-size="10.00">TWeaponHolder::GetCost</text>
</a>
</g>
</g>
<!-- Node23&#45;&gt;Node24 -->
<g id="edge28" class="edge">
<title>Node23&#45;&gt;Node24</title>
<path fill="none" stroke="#63b8ff" d="M779.09,-417.5C790.81,-417.5 802.92,-417.5 814.69,-417.5"/>
<polygon fill="#63b8ff" stroke="#63b8ff" points="814.92,-421 824.92,-417.5 814.92,-414 814.92,-421"/>
</g>
<!-- Node26&#45;&gt;Node4 -->
<g id="edge34" class="edge">
<title>Node26&#45;&gt;Node4</title>
<path fill="none" stroke="#63b8ff" d="M317.78,-148.03C337.44,-173.68 390.92,-242.73 402,-249.5 413.04,-256.24 426.15,-260.6 438.8,-263.42"/>
<polygon fill="#63b8ff" stroke="#63b8ff" points="438.32,-266.9 448.8,-265.37 439.65,-260.02 438.32,-266.9"/>
</g>
<!-- Node26&#45;&gt;Node8 -->
<g id="edge38" class="edge">
<title>Node26&#45;&gt;Node8</title>
<path fill="none" stroke="#63b8ff" d="M319.35,-148.13C334.61,-164.1 367.56,-195.97 402,-212.5 412.14,-217.37 423.54,-221 434.66,-223.71"/>
<polygon fill="#63b8ff" stroke="#63b8ff" points="434.24,-227.2 444.76,-225.95 435.76,-220.37 434.24,-227.2"/>
</g>
<!-- Node27 -->
<g id="node27" class="node">
<title>Node27</title>
<g id="a_node27"><a xlink:href="../../d1/d07/classTShip.html#a36838d6bbb57ef7e04818c5965a562ad" target="_top" xlink:title=" ">
<polygon fill="white" stroke="#666666" points="528.5,-56 451.5,-56 451.5,-37 528.5,-37 528.5,-56"/>
<text text-anchor="middle" x="490" y="-44" font-family="Helvetica,sans-Serif" font-size="10.00">TShip::Clone</text>
</a>
</g>
</g>
<!-- Node26&#45;&gt;Node27 -->
<g id="edge35" class="edge">
<title>Node26&#45;&gt;Node27</title>
<path fill="none" stroke="#63b8ff" d="M319.33,-128.83C334.56,-112.8 367.47,-80.84 402,-64.5 414.22,-58.72 428.27,-54.78 441.47,-52.11"/>
<polygon fill="#63b8ff" stroke="#63b8ff" points="442.14,-55.55 451.35,-50.3 440.88,-48.66 442.14,-55.55"/>
</g>
<!-- Node28 -->
<g id="node28" class="node">
<title>Node28</title>
<g id="a_node28"><a xlink:href="../../d1/d07/classTShip.html#ab9eb49417d6be99d181e74a9327d9136" target="_top" xlink:title=" ">
<polygon fill="white" stroke="#666666" points="534.5,-19 445.5,-19 445.5,0 534.5,0 534.5,-19"/>
<text text-anchor="middle" x="490" y="-7" font-family="Helvetica,sans-Serif" font-size="10.00">TShip::GetCost</text>
</a>
</g>
</g>
<!-- Node26&#45;&gt;Node28 -->
<g id="edge36" class="edge">
<title>Node26&#45;&gt;Node28</title>
<path fill="none" stroke="#63b8ff" d="M315.4,-128.92C327.12,-107.07 359.01,-53.43 402,-27.5 412.01,-21.46 423.72,-17.42 435.25,-14.73"/>
<polygon fill="#63b8ff" stroke="#63b8ff" points="436.18,-18.11 445.28,-12.69 434.78,-11.25 436.18,-18.11"/>
</g>
<!-- Node29 -->
<g id="node29" class="node">
<title>Node29</title>
<g id="a_node29"><a xlink:href="../../d8/d51/classMyList.html#ab5e189776aca91f01ee5fe930318c289" target="_top" xlink:title=" ">
<polygon fill="white" stroke="#666666" points="531.5,-93 448.5,-93 448.5,-74 531.5,-74 531.5,-93"/>
<text text-anchor="middle" x="490" y="-81" font-family="Helvetica,sans-Serif" font-size="10.00">MyList::insert</text>
</a>
</g>
</g>
<!-- Node26&#45;&gt;Node29 -->
<g id="edge37" class="edge">
<title>Node26&#45;&gt;Node29</title>
<path fill="none" stroke="#63b8ff" d="M331.19,-128.88C349.49,-120.68 377.07,-109.05 402,-101.5 413.65,-97.97 426.38,-94.91 438.42,-92.36"/>
<polygon fill="#63b8ff" stroke="#63b8ff" points="439.24,-95.76 448.34,-90.34 437.84,-88.91 439.24,-95.76"/>
</g>
<!-- Node31&#45;&gt;Node4 -->
<g id="edge43" class="edge">
<title>Node31&#45;&gt;Node4</title>
<path fill="none" stroke="#63b8ff" d="M354.25,-239.06C369.37,-242.37 386.43,-246.1 402,-249.5 413.92,-252.1 426.75,-254.91 438.81,-257.54"/>
<polygon fill="#63b8ff" stroke="#63b8ff" points="438.2,-260.99 448.72,-259.7 439.69,-254.15 438.2,-260.99"/>
</g>
<!-- Node31&#45;&gt;Node7 -->
<g id="edge47" class="edge">
<title>Node31&#45;&gt;Node7</title>
<path fill="none" stroke="#63b8ff" d="M354.5,-238.62C358.82,-240.95 362.78,-243.86 366,-247.5 422.04,-310.92 355.16,-364.01 402,-434.5 415.06,-454.16 437.3,-468.81 456.02,-478.47"/>
<polygon fill="#63b8ff" stroke="#63b8ff" points="454.63,-481.69 465.15,-482.94 457.71,-475.4 454.63,-481.69"/>
</g>
<!-- Node31&#45;&gt;Node8 -->
<g id="edge48" class="edge">
<title>Node31&#45;&gt;Node8</title>
<path fill="none" stroke="#63b8ff" d="M354.62,-229.99C378.76,-230.26 408.87,-230.6 434.47,-230.89"/>
<polygon fill="#63b8ff" stroke="#63b8ff" points="434.73,-234.39 444.77,-231 434.81,-227.39 434.73,-234.39"/>
</g>
<!-- Node31&#45;&gt;Node10 -->
<g id="edge49" class="edge">
<title>Node31&#45;&gt;Node10</title>
<path fill="none" stroke="#63b8ff" d="M354.09,-239.01C358.48,-241.27 362.57,-244.05 366,-247.5 403.17,-284.87 363.03,-325.01 402,-360.5 413.05,-370.56 428.17,-375.74 442.7,-378.28"/>
<polygon fill="#63b8ff" stroke="#63b8ff" points="442.22,-381.74 452.61,-379.64 443.18,-374.81 442.22,-381.74"/>
</g>
<!-- Node31&#45;&gt;Node19 -->
<g id="edge44" class="edge">
<title>Node31&#45;&gt;Node19</title>
<path fill="none" stroke="#63b8ff" d="M354.62,-220.85C377.49,-216.36 405.72,-210.83 430.39,-205.99"/>
<polygon fill="#63b8ff" stroke="#63b8ff" points="431.22,-209.4 440.36,-204.04 429.88,-202.53 431.22,-209.4"/>
</g>
<!-- Node31&#45;&gt;Node20 -->
<g id="edge45" class="edge">
<title>Node31&#45;&gt;Node20</title>
<path fill="none" stroke="#63b8ff" d="M317.06,-219.99C330.57,-201.16 363.52,-159.19 402,-138.5 405.49,-136.62 409.16,-134.94 412.93,-133.43"/>
<polygon fill="#63b8ff" stroke="#63b8ff" points="414.24,-136.68 422.49,-130.04 411.89,-130.09 414.24,-136.68"/>
</g>
<!-- Node31&#45;&gt;Node21 -->
<g id="edge46" class="edge">
<title>Node31&#45;&gt;Node21</title>
<path fill="none" stroke="#63b8ff" d="M323.43,-219.99C340.55,-207.85 372.06,-187.06 402,-175.5 407.95,-173.2 414.24,-171.18 420.62,-169.4"/>
<polygon fill="#63b8ff" stroke="#63b8ff" points="421.87,-172.69 430.67,-166.8 420.11,-165.91 421.87,-172.69"/>
</g>
<!-- Node32&#45;&gt;Node4 -->
<g id="edge51" class="edge">
<title>Node32&#45;&gt;Node4</title>
<path fill="none" stroke="#63b8ff" d="M351.09,-369.88C356.49,-367.42 361.65,-364.34 366,-360.5 393.4,-336.28 373.13,-308.95 402,-286.5 412.38,-278.43 425.48,-273.74 438.36,-271.07"/>
<polygon fill="#63b8ff" stroke="#63b8ff" points="439.3,-274.46 448.57,-269.34 438.13,-267.56 439.3,-274.46"/>
</g>
<!-- Node32&#45;&gt;Node7 -->
<g id="edge54" class="edge">
<title>Node32&#45;&gt;Node7</title>
<path fill="none" stroke="#63b8ff" d="M352.43,-389.05C357.33,-391.3 362,-394.08 366,-397.5 392.89,-420.5 374.61,-446.11 402,-468.5 410.91,-475.79 421.88,-480.87 432.98,-484.41"/>
<polygon fill="#63b8ff" stroke="#63b8ff" points="432.15,-487.81 442.72,-487.14 434.04,-481.07 432.15,-487.81"/>
</g>
<!-- Node32&#45;&gt;Node8 -->
<g id="edge55" class="edge">
<title>Node32&#45;&gt;Node8</title>
<path fill="none" stroke="#63b8ff" d="M352.71,-369.86C357.62,-367.42 362.21,-364.35 366,-360.5 402.37,-323.53 363.37,-284.11 402,-249.5 411.06,-241.38 422.81,-236.55 434.71,-233.76"/>
<polygon fill="#63b8ff" stroke="#63b8ff" points="435.53,-237.17 444.7,-231.87 434.22,-230.29 435.53,-237.17"/>
</g>
<!-- Node32&#45;&gt;Node10 -->
<g id="edge56" class="edge">
<title>Node32&#45;&gt;Node10</title>
<path fill="none" stroke="#63b8ff" d="M355.54,-379.5C382.17,-379.5 415.81,-379.5 442.66,-379.5"/>
<polygon fill="#63b8ff" stroke="#63b8ff" points="442.96,-383 452.96,-379.5 442.96,-376 442.96,-383"/>
</g>
<!-- Node32&#45;&gt;Node23 -->
<g id="edge53" class="edge">
<title>Node32&#45;&gt;Node23</title>
<path fill="none" stroke="#63b8ff" d="M348.33,-389.02C354.47,-391.33 360.58,-394.13 366,-397.5 385.48,-409.62 380.86,-425.57 402,-434.5 489.29,-471.36 603.86,-447.01 662.43,-430"/>
<polygon fill="#63b8ff" stroke="#63b8ff" points="663.78,-433.25 672.36,-427.03 661.77,-426.54 663.78,-433.25"/>
</g>
<!-- Node33 -->
<g id="node33" class="node">
<title>Node33</title>
<g id="a_node33"><a xlink:href="../../d8/d51/classMyList.html#a0bf752e12a79f715ac37ed5e03255833" target="_top" xlink:title=" ">
<polygon fill="white" stroke="#666666" points="531,-426 449,-426 449,-407 531,-407 531,-426"/>
<text text-anchor="middle" x="490" y="-414" font-family="Helvetica,sans-Serif" font-size="10.00">MyList::erase</text>
</a>
</g>
</g>
<!-- Node32&#45;&gt;Node33 -->
<g id="edge52" class="edge">
<title>Node32&#45;&gt;Node33</title>
<path fill="none" stroke="#63b8ff" d="M355.54,-388.84C380.89,-394.09 412.6,-400.66 438.75,-406.08"/>
<polygon fill="#63b8ff" stroke="#63b8ff" points="438.34,-409.57 448.84,-408.18 439.76,-402.72 438.34,-409.57"/>
</g>
</g>
</svg>
