<?xml version="1.0" encoding="UTF-8" standalone="no"?>
<!DOCTYPE svg PUBLIC "-//W3C//DTD SVG 1.1//EN"
 "http://www.w3.org/Graphics/SVG/1.1/DTD/svg11.dtd">
<!-- Generated by graphviz version 2.43.0 (0)
 -->
<!-- Title: TShop::RemoveWeight Pages: 1 -->
<svg width="321pt" height="212pt"
 viewBox="0.00 0.00 321.00 212.00" xmlns="http://www.w3.org/2000/svg" xmlns:xlink="http://www.w3.org/1999/xlink">
<g id="graph0" class="graph" transform="scale(1 1) rotate(0) translate(4 208)">
<title>TShop::RemoveWeight</title>
<!-- Node1 -->
<g id="node1" class="node">
<title>Node1</title>
<g id="a_node1"><a xlink:title=" ">
<polygon fill="#999999" stroke="#666666" points="127,-111 0,-111 0,-92 127,-92 127,-111"/>
<text text-anchor="middle" x="63.5" y="-99" font-family="Helvetica,sans-Serif" font-size="10.00">TShop::RemoveWeight</text>
</a>
</g>
</g>
<!-- Node2 -->
<g id="node2" class="node">
<title>Node2</title>
<g id="a_node2"><a xlink:href="../../d8/d51/classMyList.html#a281f359e28eb5d6014ba3405cf0e6895" target="_top" xlink:title=" ">
<polygon fill="white" stroke="#666666" points="279,-204 197,-204 197,-185 279,-185 279,-204"/>
<text text-anchor="middle" x="238" y="-192" font-family="Helvetica,sans-Serif" font-size="10.00">MyList::begin</text>
</a>
</g>
</g>
<!-- Node1&#45;&gt;Node2 -->
<g id="edge1" class="edge">
<title>Node1&#45;&gt;Node2</title>
<path fill="none" stroke="#63b8ff" d="M74.2,-111.14C90.88,-127.16 126.72,-159.21 163,-176.5 170.47,-180.06 178.7,-182.95 186.89,-185.29"/>
<polygon fill="#63b8ff" stroke="#63b8ff" points="186.23,-188.74 196.79,-187.89 188,-181.97 186.23,-188.74"/>
</g>
<!-- Node3 -->
<g id="node3" class="node">
<title>Node3</title>
<g id="a_node3"><a xlink:href="../../d3/d81/classTCargoShip.html#aac8aa5512f4e7ea9641f3a5812cc8722" target="_top" xlink:title=" ">
<polygon fill="white" stroke="#666666" points="313,-167 163,-167 163,-148 313,-148 313,-167"/>
<text text-anchor="middle" x="238" y="-155" font-family="Helvetica,sans-Serif" font-size="10.00">TCargoShip::GetWeightNow</text>
</a>
</g>
</g>
<!-- Node1&#45;&gt;Node3 -->
<g id="edge2" class="edge">
<title>Node1&#45;&gt;Node3</title>
<path fill="none" stroke="#63b8ff" d="M86.9,-111.1C106.67,-119.34 136.41,-131.18 163,-139.5 169.61,-141.57 176.62,-143.55 183.58,-145.38"/>
<polygon fill="#63b8ff" stroke="#63b8ff" points="183.14,-148.88 193.7,-147.96 184.87,-142.1 183.14,-148.88"/>
</g>
<!-- Node4 -->
<g id="node4" class="node">
<title>Node4</title>
<g id="a_node4"><a xlink:href="../../dc/de8/classTShop.html#a46d86376a3b839bf3299639a9bb844a7" target="_top" xlink:title=" ">
<polygon fill="white" stroke="#666666" points="285,-130 191,-130 191,-111 285,-111 285,-130"/>
<text text-anchor="middle" x="238" y="-118" font-family="Helvetica,sans-Serif" font-size="10.00">TShop::PrintInfo</text>
</a>
</g>
</g>
<!-- Node1&#45;&gt;Node4 -->
<g id="edge3" class="edge">
<title>Node1&#45;&gt;Node4</title>
<path fill="none" stroke="#63b8ff" d="M127.26,-108.41C144.66,-110.33 163.43,-112.4 180.44,-114.27"/>
<polygon fill="#63b8ff" stroke="#63b8ff" points="180.46,-117.79 190.78,-115.41 181.22,-110.84 180.46,-117.79"/>
</g>
<!-- Node5 -->
<g id="node5" class="node">
<title>Node5</title>
<g id="a_node5"><a xlink:href="../../dc/de8/classTShop.html#aa10e5887f689e5928cce716aa1bf9ea6" target="_top" xlink:title=" ">
<polygon fill="white" stroke="#666666" points="283,-93 193,-93 193,-74 283,-74 283,-93"/>
<text text-anchor="middle" x="238" y="-81" font-family="Helvetica,sans-Serif" font-size="10.00">TShop::ReadInt</text>
</a>
</g>
</g>
<!-- Node1&#45;&gt;Node5 -->
<g id="edge4" class="edge">
<title>Node1&#45;&gt;Node5</title>
<path fill="none" stroke="#63b8ff" d="M127.26,-94.95C145.46,-93.05 165.17,-90.99 182.8,-89.16"/>
<polygon fill="#63b8ff" stroke="#63b8ff" points="183.33,-92.62 192.91,-88.1 182.6,-85.66 183.33,-92.62"/>
</g>
<!-- Node6 -->
<g id="node6" class="node">
<title>Node6</title>
<g id="a_node6"><a xlink:href="../../d3/d81/classTCargoShip.html#a9a12a2c02b7b32f49c952f4c13e74a77" target="_top" xlink:title=" ">
<polygon fill="white" stroke="#666666" points="312.5,-56 163.5,-56 163.5,-37 312.5,-37 312.5,-56"/>
<text text-anchor="middle" x="238" y="-44" font-family="Helvetica,sans-Serif" font-size="10.00">TCargoShip::SetWeightNow</text>
</a>
</g>
</g>
<!-- Node1&#45;&gt;Node6 -->
<g id="edge5" class="edge">
<title>Node1&#45;&gt;Node6</title>
<path fill="none" stroke="#63b8ff" d="M88.56,-91.95C108.36,-84.27 137.26,-73.49 163,-65.5 170.75,-63.1 179.01,-60.76 187.11,-58.59"/>
<polygon fill="#63b8ff" stroke="#63b8ff" points="188.07,-61.96 196.86,-56.04 186.29,-55.18 188.07,-61.96"/>
</g>
<!-- Node7 -->
<g id="node7" class="node">
<title>Node7</title>
<g id="a_node7"><a xlink:href="../../d8/d51/classMyList.html#a37366fbfd16acad1dfa69a141b339095" target="_top" xlink:title=" ">
<polygon fill="white" stroke="#666666" points="275,-19 201,-19 201,0 275,0 275,-19"/>
<text text-anchor="middle" x="238" y="-7" font-family="Helvetica,sans-Serif" font-size="10.00">MyList::size</text>
</a>
</g>
</g>
<!-- Node1&#45;&gt;Node7 -->
<g id="edge6" class="edge">
<title>Node1&#45;&gt;Node7</title>
<path fill="none" stroke="#63b8ff" d="M74.55,-91.93C91.46,-76.35 127.26,-45.53 163,-28.5 171.71,-24.35 181.44,-21.03 190.92,-18.39"/>
<polygon fill="#63b8ff" stroke="#63b8ff" points="191.83,-21.77 200.64,-15.89 190.08,-14.99 191.83,-21.77"/>
</g>
</g>
</svg>
