<?xml version="1.0" encoding="UTF-8" standalone="no"?>
<!DOCTYPE svg PUBLIC "-//W3C//DTD SVG 1.1//EN"
 "http://www.w3.org/Graphics/SVG/1.1/DTD/svg11.dtd">
<!-- Generated by graphviz version 2.43.0 (0)
 -->
<!-- Title: TShop::SetWeightBySpeed Pages: 1 -->
<svg width="364pt" height="64pt"
 viewBox="0.00 0.00 364.00 64.00" xmlns="http://www.w3.org/2000/svg" xmlns:xlink="http://www.w3.org/1999/xlink">
<g id="graph0" class="graph" transform="scale(1 1) rotate(0) translate(4 60)">
<title>TShop::SetWeightBySpeed</title>
<!-- Node1 -->
<g id="node1" class="node">
<title>Node1</title>
<g id="a_node1"><a xlink:title=" ">
<polygon fill="#999999" stroke="#666666" points="145,-37 0,-37 0,-18 145,-18 145,-37"/>
<text text-anchor="middle" x="72.5" y="-25" font-family="Helvetica,sans-Serif" font-size="10.00">TShop::SetWeightBySpeed</text>
</a>
</g>
</g>
<!-- Node2 -->
<g id="node2" class="node">
<title>Node2</title>
<g id="a_node2"><a xlink:href="../../d3/d81/classTCargoShip.html#a9a12a2c02b7b32f49c952f4c13e74a77" target="_top" xlink:title=" ">
<polygon fill="white" stroke="#666666" points="343,-56 194,-56 194,-37 343,-37 343,-56"/>
<text text-anchor="middle" x="268.5" y="-44" font-family="Helvetica,sans-Serif" font-size="10.00">TCargoShip::SetWeightNow</text>
</a>
</g>
</g>
<!-- Node1&#45;&gt;Node2 -->
<g id="edge1" class="edge">
<title>Node1&#45;&gt;Node2</title>
<path fill="none" stroke="#63b8ff" d="M145.19,-34.52C157.71,-35.75 170.83,-37.03 183.64,-38.29"/>
<polygon fill="#63b8ff" stroke="#63b8ff" points="183.54,-41.79 193.84,-39.29 184.22,-34.83 183.54,-41.79"/>
</g>
<!-- Node3 -->
<g id="node3" class="node">
<title>Node3</title>
<g id="a_node3"><a xlink:href="../../d3/d81/classTCargoShip.html#a1f4cbd4a7effa3987f1298da081e8aec" target="_top" xlink:title=" ">
<polygon fill="white" stroke="#666666" points="356,-19 181,-19 181,0 356,0 356,-19"/>
<text text-anchor="middle" x="268.5" y="-7" font-family="Helvetica,sans-Serif" font-size="10.00">TCargoShip::WeightMaxBySpeed</text>
</a>
</g>
</g>
<!-- Node1&#45;&gt;Node3 -->
<g id="edge2" class="edge">
<title>Node1&#45;&gt;Node3</title>
<path fill="none" stroke="#63b8ff" d="M145.19,-20.85C153.57,-20.07 162.22,-19.27 170.86,-18.47"/>
<polygon fill="#63b8ff" stroke="#63b8ff" points="171.36,-21.94 180.99,-17.53 170.71,-14.97 171.36,-21.94"/>
</g>
</g>
</svg>
