<?xml version="1.0" encoding="UTF-8" standalone="no"?>
<!DOCTYPE svg PUBLIC "-//W3C//DTD SVG 1.1//EN"
 "http://www.w3.org/Graphics/SVG/1.1/DTD/svg11.dtd">
<!-- Generated by graphviz version 2.43.0 (0)
 -->
<!-- Title: TShop::PrintInfo Pages: 1 -->
<!--zoomable 251 -->
<svg id="main" version="1.1" xmlns="http://www.w3.org/2000/svg" xmlns:xlink="http://www.w3.org/1999/xlink" xml:space="preserve" onload="init(evt)">
<style type="text/css"><![CDATA[
.edge:hover path { stroke: red; }
.edge:hover polygon { stroke: red; fill: red; }
]]></style>
<script type="text/javascript"><![CDATA[
var edges = document.getElementsByTagName('g');
if (edges && edges.length) {
  for (var i=0;i<edges.length;i++) {
    if (edges[i].id.substr(0,4)=='edge') {
      edges[i].setAttribute('class','edge');
    }
  }
}
]]></script>
        <defs>
                <circle id="rim" cx="0" cy="0" r="7"/>
                <circle id="rim2" cx="0" cy="0" r="3.5"/>
                <g id="zoomPlus">
                        <use xlink:href="#rim" fill="#404040">
                                <set attributeName="fill" to="#808080" begin="zoomplus.mouseover" end="zoomplus.mouseout"/>
                        </use>
                        <path d="M-4,0h8M0,-4v8" fill="none" stroke="white" stroke-width="1.5" pointer-events="none"/>
                </g>
                <g id="zoomMin">
                        <use xlink:href="#rim" fill="#404040">
                                <set attributeName="fill" to="#808080" begin="zoomminus.mouseover" end="zoomminus.mouseout"/>
                        </use>
                        <path d="M-4,0h8" fill="none" stroke="white" stroke-width="1.5" pointer-events="none"/>
                </g>
                <g id="dirArrow">
                        <path fill="none" stroke="white" stroke-width="1.5" d="M0,-3.0v7 M-2.5,-0.5L0,-3.0L2.5,-0.5"/>
                </g>
               <g id="resetDef">
                       <use xlink:href="#rim2" fill="#404040">
                               <set attributeName="fill" to="#808080" begin="reset.mouseover" end="reset.mouseout"/>
                       </use>
               </g>
        </defs>

<script type="text/javascript">
var viewWidth = 518;
var viewHeight = 251;
var sectionId = 'dynsection-15';
</script>
<script xlink:href="../../svgpan.js"/>
<svg id="graph" class="graph">
<g id="viewport">
<title>TShop::PrintInfo</title>
<!-- Node1 -->
<g id="node1" class="node">
<title>Node1</title>
<g id="a_node1"><a xlink:title=" ">
<polygon fill="#999999" stroke="#666666" points="510,-130 416,-130 416,-111 510,-111 510,-130"/>
<text text-anchor="middle" x="463" y="-118" font-family="Helvetica,sans-Serif" font-size="10.00">TShop::PrintInfo</text>
</a>
</g>
</g>
<!-- Node2 -->
<g id="node2" class="node">
<title>Node2</title>
<g id="a_node2"><a xlink:href="../../dc/de8/classTShop.html#aef476da75c7312f1d68373c4883b20b0" target="_top" xlink:title=" ">
<polygon fill="white" stroke="#666666" points="369,-206 264,-206 264,-187 369,-187 369,-206"/>
<text text-anchor="middle" x="316.5" y="-194" font-family="Helvetica,sans-Serif" font-size="10.00">TShop::AddWeight</text>
</a>
</g>
</g>
<!-- Node1&#45;&gt;Node2 -->
<g id="edge1" class="edge">
<title>Node1&#45;&gt;Node2</title>
<path fill="none" stroke="#63b8ff" d="M440.62,-135.72C424.47,-146.8 401.48,-161.7 380,-172.5 369.2,-177.93 356.86,-182.91 346.01,-186.91"/>
<polygon fill="#63b8ff" stroke="#63b8ff" points="442.63,-138.58 448.84,-130 438.64,-132.84 442.63,-138.58"/>
</g>
<!-- Node3 -->
<g id="node3" class="node">
<title>Node3</title>
<g id="a_node3"><a xlink:href="../../dc/de8/classTShop.html#a1dcf7617180c288121288af2ed21909b" target="_top" xlink:title=" ">
<polygon fill="white" stroke="#666666" points="217,-168 113,-168 113,-149 217,-149 217,-168"/>
<text text-anchor="middle" x="165" y="-156" font-family="Helvetica,sans-Serif" font-size="10.00">TShop::MainMenu</text>
</a>
</g>
</g>
<!-- Node1&#45;&gt;Node3 -->
<g id="edge11" class="edge">
<title>Node1&#45;&gt;Node3</title>
<path fill="none" stroke="#63b8ff" d="M415.91,-132.36C404.26,-135.04 391.72,-137.63 380,-139.5 324.75,-148.31 260.77,-153.32 217.27,-155.96"/>
<polygon fill="#63b8ff" stroke="#63b8ff" points="416.95,-135.71 425.88,-130.01 415.35,-128.9 416.95,-135.71"/>
</g>
<!-- Node6 -->
<g id="node6" class="node">
<title>Node6</title>
<g id="a_node6"><a xlink:href="../../dc/de8/classTShop.html#a5e84a0c01c9d507bda6ce4a0de43eaa7" target="_top" xlink:title=" ">
<polygon fill="white" stroke="#666666" points="362.5,-243 270.5,-243 270.5,-224 362.5,-224 362.5,-243"/>
<text text-anchor="middle" x="316.5" y="-231" font-family="Helvetica,sans-Serif" font-size="10.00">TShop::AskPlay</text>
</a>
</g>
</g>
<!-- Node1&#45;&gt;Node6 -->
<g id="edge5" class="edge">
<title>Node1&#45;&gt;Node6</title>
<path fill="none" stroke="#63b8ff" d="M450.98,-138.75C437.08,-160.24 411.17,-195.54 380,-215.5 374.67,-218.91 368.69,-221.69 362.59,-223.95"/>
<polygon fill="#63b8ff" stroke="#63b8ff" points="453.99,-140.54 456.35,-130.21 448.06,-136.82 453.99,-140.54"/>
</g>
<!-- Node8 -->
<g id="node8" class="node">
<title>Node8</title>
<g id="a_node8"><a xlink:href="../../dc/de8/classTShop.html#ac463d2ee0ef76283f4dac87a51353c36" target="_top" xlink:title=" ">
<polygon fill="white" stroke="#666666" points="362,-130 271,-130 271,-111 362,-111 362,-130"/>
<text text-anchor="middle" x="316.5" y="-118" font-family="Helvetica,sans-Serif" font-size="10.00">TShop::BuyGun</text>
</a>
</g>
</g>
<!-- Node1&#45;&gt;Node8 -->
<g id="edge8" class="edge">
<title>Node1&#45;&gt;Node8</title>
<path fill="none" stroke="#63b8ff" d="M405.59,-120.5C391.19,-120.5 375.91,-120.5 362.19,-120.5"/>
<polygon fill="#63b8ff" stroke="#63b8ff" points="405.88,-124 415.88,-120.5 405.88,-117 405.88,-124"/>
</g>
<!-- Node10 -->
<g id="node10" class="node">
<title>Node10</title>
<g id="a_node10"><a xlink:href="../../dc/de8/classTShop.html#af5388fd8d61bac1887a93d9d52ebe482" target="_top" xlink:title=" ">
<polygon fill="white" stroke="#666666" points="380,-19 253,-19 253,0 380,0 380,-19"/>
<text text-anchor="middle" x="316.5" y="-7" font-family="Helvetica,sans-Serif" font-size="10.00">TShop::RemoveWeight</text>
</a>
</g>
</g>
<!-- Node1&#45;&gt;Node10 -->
<g id="edge12" class="edge">
<title>Node1&#45;&gt;Node10</title>
<path fill="none" stroke="#63b8ff" d="M450.7,-102.36C436.66,-81.3 410.76,-46.97 380,-27.5 374.66,-24.12 368.66,-21.35 362.55,-19.1"/>
<polygon fill="#63b8ff" stroke="#63b8ff" points="447.92,-104.5 456.29,-111 453.8,-100.7 447.92,-104.5"/>
</g>
<!-- Node11 -->
<g id="node11" class="node">
<title>Node11</title>
<g id="a_node11"><a xlink:href="../../dc/de8/classTShop.html#a7c75fe3801c08795282fefc2baae29b8" target="_top" xlink:title=" ">
<polygon fill="white" stroke="#666666" points="361.5,-93 271.5,-93 271.5,-74 361.5,-74 361.5,-93"/>
<text text-anchor="middle" x="316.5" y="-81" font-family="Helvetica,sans-Serif" font-size="10.00">TShop::SellGun</text>
</a>
</g>
</g>
<!-- Node1&#45;&gt;Node11 -->
<g id="edge13" class="edge">
<title>Node1&#45;&gt;Node11</title>
<path fill="none" stroke="#63b8ff" d="M414.89,-108.44C395.42,-103.45 373.16,-97.75 354.84,-93.06"/>
<polygon fill="#63b8ff" stroke="#63b8ff" points="414.23,-111.88 424.79,-110.97 415.97,-105.1 414.23,-111.88"/>
</g>
<!-- Node13 -->
<g id="node13" class="node">
<title>Node13</title>
<g id="a_node13"><a xlink:href="../../dc/de8/classTShop.html#ae39747c12e22b3bd4641affc0be979e3" target="_top" xlink:title=" ">
<polygon fill="white" stroke="#666666" points="362.5,-56 270.5,-56 270.5,-37 362.5,-37 362.5,-56"/>
<text text-anchor="middle" x="316.5" y="-44" font-family="Helvetica,sans-Serif" font-size="10.00">TShop::SellShip</text>
</a>
</g>
</g>
<!-- Node1&#45;&gt;Node13 -->
<g id="edge16" class="edge">
<title>Node1&#45;&gt;Node13</title>
<path fill="none" stroke="#63b8ff" d="M442.11,-104.7C426.09,-92.6 402.61,-76.22 380,-65.5 372.32,-61.85 363.77,-58.71 355.53,-56.1"/>
<polygon fill="#63b8ff" stroke="#63b8ff" points="440.12,-107.59 450.18,-110.91 444.39,-102.04 440.12,-107.59"/>
</g>
<!-- Node2&#45;&gt;Node3 -->
<g id="edge2" class="edge">
<title>Node2&#45;&gt;Node3</title>
<path fill="none" stroke="#63b8ff" d="M267.85,-184.39C247.03,-179.1 222.96,-172.98 203.45,-168.02"/>
<polygon fill="#63b8ff" stroke="#63b8ff" points="267.22,-187.84 277.77,-186.91 268.95,-181.06 267.22,-187.84"/>
</g>
<!-- Node5 -->
<g id="node5" class="node">
<title>Node5</title>
<g id="a_node5"><a xlink:href="../../d6/de3/TestTShop_8cpp.html#a11b4c02681e228079a3d05ed1a5d3c99" target="_top" xlink:title=" ">
<polygon fill="white" stroke="#666666" points="185.5,-206 144.5,-206 144.5,-187 185.5,-187 185.5,-206"/>
<text text-anchor="middle" x="165" y="-194" font-family="Helvetica,sans-Serif" font-size="10.00">TEST</text>
</a>
</g>
</g>
<!-- Node2&#45;&gt;Node5 -->
<g id="edge4" class="edge">
<title>Node2&#45;&gt;Node5</title>
<path fill="none" stroke="#63b8ff" d="M253.34,-196.5C228.98,-196.5 202.79,-196.5 185.51,-196.5"/>
<polygon fill="#63b8ff" stroke="#63b8ff" points="253.63,-200 263.63,-196.5 253.63,-193 253.63,-200"/>
</g>
<!-- Node4 -->
<g id="node4" class="node">
<title>Node4</title>
<g id="a_node4"><a xlink:href="../../dc/de8/classTShop.html#a789d5e786476555b588aece81642f6f9" target="_top" xlink:title=" ">
<polygon fill="white" stroke="#666666" points="77,-168 0,-168 0,-149 77,-149 77,-168"/>
<text text-anchor="middle" x="38.5" y="-156" font-family="Helvetica,sans-Serif" font-size="10.00">TShop::Shop</text>
</a>
</g>
</g>
<!-- Node3&#45;&gt;Node4 -->
<g id="edge3" class="edge">
<title>Node3&#45;&gt;Node4</title>
<path fill="none" stroke="#63b8ff" d="M102.49,-158.5C93.8,-158.5 85.1,-158.5 77.05,-158.5"/>
<polygon fill="#63b8ff" stroke="#63b8ff" points="102.64,-162 112.64,-158.5 102.64,-155 102.64,-162"/>
</g>
<!-- Node6&#45;&gt;Node3 -->
<g id="edge6" class="edge">
<title>Node6&#45;&gt;Node3</title>
<path fill="none" stroke="#63b8ff" d="M261.85,-220.11C258.78,-218.72 255.81,-217.18 253,-215.5 233.32,-203.71 236.11,-191.2 217,-178.5 210.82,-174.39 203.67,-170.93 196.72,-168.11"/>
<polygon fill="#63b8ff" stroke="#63b8ff" points="260.67,-223.41 271.25,-223.89 263.28,-216.91 260.67,-223.41"/>
</g>
<!-- Node7 -->
<g id="node7" class="node">
<title>Node7</title>
<g id="a_node7"><a xlink:href="../../d6/de3/TestTShop_8cpp.html#a937e13c3ba627f9a4aaa50df1b38f793" target="_top" xlink:title=" ">
<polygon fill="white" stroke="#666666" points="185.5,-243 144.5,-243 144.5,-224 185.5,-224 185.5,-243"/>
<text text-anchor="middle" x="165" y="-231" font-family="Helvetica,sans-Serif" font-size="10.00">TEST</text>
</a>
</g>
</g>
<!-- Node6&#45;&gt;Node7 -->
<g id="edge7" class="edge">
<title>Node6&#45;&gt;Node7</title>
<path fill="none" stroke="#63b8ff" d="M260.09,-233.5C234.07,-233.5 204.69,-233.5 185.79,-233.5"/>
<polygon fill="#63b8ff" stroke="#63b8ff" points="260.24,-237 270.24,-233.5 260.24,-230 260.24,-237"/>
</g>
<!-- Node8&#45;&gt;Node3 -->
<g id="edge9" class="edge">
<title>Node8&#45;&gt;Node3</title>
<path fill="none" stroke="#63b8ff" d="M267.85,-132.61C247.03,-137.9 222.96,-144.02 203.45,-148.98"/>
<polygon fill="#63b8ff" stroke="#63b8ff" points="268.95,-135.94 277.77,-130.09 267.22,-129.16 268.95,-135.94"/>
</g>
<!-- Node9 -->
<g id="node9" class="node">
<title>Node9</title>
<g id="a_node9"><a xlink:href="../../d6/de3/TestTShop_8cpp.html#a9090d51b3bf731e31e72a99c51bb40c1" target="_top" xlink:title=" ">
<polygon fill="white" stroke="#666666" points="185.5,-130 144.5,-130 144.5,-111 185.5,-111 185.5,-130"/>
<text text-anchor="middle" x="165" y="-118" font-family="Helvetica,sans-Serif" font-size="10.00">TEST</text>
</a>
</g>
</g>
<!-- Node8&#45;&gt;Node9 -->
<g id="edge10" class="edge">
<title>Node8&#45;&gt;Node9</title>
<path fill="none" stroke="#63b8ff" d="M260.42,-120.5C234.19,-120.5 204.48,-120.5 185.51,-120.5"/>
<polygon fill="#63b8ff" stroke="#63b8ff" points="260.65,-124 270.65,-120.5 260.65,-117 260.65,-124"/>
</g>
<!-- Node11&#45;&gt;Node3 -->
<g id="edge14" class="edge">
<title>Node11&#45;&gt;Node3</title>
<path fill="none" stroke="#63b8ff" d="M263.94,-96.84C260.13,-98.52 256.44,-100.4 253,-102.5 233.41,-114.44 236.22,-126.97 217,-139.5 211.3,-143.22 204.77,-146.34 198.34,-148.92"/>
<polygon fill="#63b8ff" stroke="#63b8ff" points="265.54,-99.97 273.56,-93.04 262.97,-93.46 265.54,-99.97"/>
</g>
<!-- Node12 -->
<g id="node12" class="node">
<title>Node12</title>
<g id="a_node12"><a xlink:href="../../d6/de3/TestTShop_8cpp.html#a99ee2f047e7cb3a8b35e4f41ad4cbd01" target="_top" xlink:title=" ">
<polygon fill="white" stroke="#666666" points="185.5,-93 144.5,-93 144.5,-74 185.5,-74 185.5,-93"/>
<text text-anchor="middle" x="165" y="-81" font-family="Helvetica,sans-Serif" font-size="10.00">TEST</text>
</a>
</g>
</g>
<!-- Node11&#45;&gt;Node12 -->
<g id="edge15" class="edge">
<title>Node11&#45;&gt;Node12</title>
<path fill="none" stroke="#63b8ff" d="M261.2,-83.5C234.88,-83.5 204.89,-83.5 185.73,-83.5"/>
<polygon fill="#63b8ff" stroke="#63b8ff" points="261.45,-87 271.45,-83.5 261.45,-80 261.45,-87"/>
</g>
<!-- Node13&#45;&gt;Node3 -->
<g id="edge17" class="edge">
<title>Node13&#45;&gt;Node3</title>
<path fill="none" stroke="#63b8ff" d="M261.27,-59.7C258.33,-61.4 255.54,-63.33 253,-65.5 225.18,-89.25 244.07,-114.91 217,-139.5 212.73,-143.37 207.6,-146.48 202.27,-148.97"/>
<polygon fill="#63b8ff" stroke="#63b8ff" points="263.01,-62.75 270.47,-55.22 259.95,-56.45 263.01,-62.75"/>
</g>
<!-- Node14 -->
<g id="node14" class="node">
<title>Node14</title>
<g id="a_node14"><a xlink:href="../../d6/de3/TestTShop_8cpp.html#ac97fb89041a078a29c13fe7c9a070fea" target="_top" xlink:title=" ">
<polygon fill="white" stroke="#666666" points="185.5,-56 144.5,-56 144.5,-37 185.5,-37 185.5,-56"/>
<text text-anchor="middle" x="165" y="-44" font-family="Helvetica,sans-Serif" font-size="10.00">TEST</text>
</a>
</g>
</g>
<!-- Node13&#45;&gt;Node14 -->
<g id="edge18" class="edge">
<title>Node13&#45;&gt;Node14</title>
<path fill="none" stroke="#63b8ff" d="M260.09,-46.5C234.07,-46.5 204.69,-46.5 185.79,-46.5"/>
<polygon fill="#63b8ff" stroke="#63b8ff" points="260.24,-50 270.24,-46.5 260.24,-43 260.24,-50"/>
</g>
</g>
</svg>
        <g id="navigator" transform="translate(0 0)" fill="#404254">
                <rect fill="#f2f5e9" fill-opacity="0.5" stroke="#606060" stroke-width=".5" x="0" y="0" width="60" height="60"/>
                <use id="zoomplus" xlink:href="#zoomPlus" x="17" y="9" onmousedown="handleZoom(evt,'in')"/>
                <use id="zoomminus" xlink:href="#zoomMin" x="42" y="9" onmousedown="handleZoom(evt,'out')"/>
                <use id="reset" xlink:href="#resetDef" x="30" y="36" onmousedown="handleReset()"/>
                <g id="arrowUp" xlink:href="#dirArrow" transform="translate(30 24)" onmousedown="handlePan(0,-1)">
                  <use xlink:href="#rim" fill="#404040">
                        <set attributeName="fill" to="#808080" begin="arrowUp.mouseover" end="arrowUp.mouseout"/>
                  </use>
                  <path fill="none" stroke="white" stroke-width="1.5" d="M0,-3.0v7 M-2.5,-0.5L0,-3.0L2.5,-0.5"/>
                </g>
                <g id="arrowRight" xlink:href="#dirArrow" transform="rotate(90) translate(36 -43)" onmousedown="handlePan(1,0)">
                  <use xlink:href="#rim" fill="#404040">
                        <set attributeName="fill" to="#808080" begin="arrowRight.mouseover" end="arrowRight.mouseout"/>
                  </use>
                  <path fill="none" stroke="white" stroke-width="1.5" d="M0,-3.0v7 M-2.5,-0.5L0,-3.0L2.5,-0.5"/>
                </g>
                <g id="arrowDown" xlink:href="#dirArrow" transform="rotate(180) translate(-30 -48)" onmousedown="handlePan(0,1)">
                  <use xlink:href="#rim" fill="#404040">
                        <set attributeName="fill" to="#808080" begin="arrowDown.mouseover" end="arrowDown.mouseout"/>
                  </use>
                  <path fill="none" stroke="white" stroke-width="1.5" d="M0,-3.0v7 M-2.5,-0.5L0,-3.0L2.5,-0.5"/>
                </g>
                <g id="arrowLeft" xlink:href="#dirArrow" transform="rotate(270) translate(-36 17)" onmousedown="handlePan(-1,0)">
                  <use xlink:href="#rim" fill="#404040">
                        <set attributeName="fill" to="#808080" begin="arrowLeft.mouseover" end="arrowLeft.mouseout"/>
                  </use>
                  <path fill="none" stroke="white" stroke-width="1.5" d="M0,-3.0v7 M-2.5,-0.5L0,-3.0L2.5,-0.5"/>
                </g>
        </g>
        <svg viewBox="0 0 15 15" width="100%" height="30px" preserveAspectRatio="xMaxYMin meet">
         <g id="arrow_out" transform="scale(0.3 0.3)">
          <a xlink:href="classTShop_a46d86376a3b839bf3299639a9bb844a7_icgraph_org.svg" target="_base">
           <rect id="button" ry="5" rx="5" y="6" x="6" height="38" width="38"
                fill="#f2f5e9" fill-opacity="0.5" stroke="#606060" stroke-width="1.0"/>
           <path id="arrow"
             d="M 11.500037,31.436501 C 11.940474,20.09759 22.043105,11.32322 32.158766,21.979434 L 37.068811,17.246167 C 37.068811,17.246167 37.088388,32 37.088388,32 L 22.160133,31.978069 C 22.160133,31.978069 26.997745,27.140456 26.997745,27.140456 C 18.528582,18.264221 13.291696,25.230495 11.500037,31.436501 z"
             style="fill:#404040;"/>
          </a>
         </g>
        </svg>
</svg>
