<?xml version="1.0" encoding="UTF-8" standalone="no"?>
<!DOCTYPE svg PUBLIC "-//W3C//DTD SVG 1.1//EN"
 "http://www.w3.org/Graphics/SVG/1.1/DTD/svg11.dtd">
<!-- Generated by graphviz version 2.43.0 (0)
 -->
<!-- Title: TShop::MainMenu Pages: 1 -->
<svg width="859pt" height="734pt"
 viewBox="0.00 0.00 859.00 734.00" xmlns="http://www.w3.org/2000/svg" xmlns:xlink="http://www.w3.org/1999/xlink">
<g id="graph0" class="graph" transform="scale(1 1) rotate(0) translate(4 730)">
<title>TShop::MainMenu</title>
<!-- Node1 -->
<g id="node1" class="node">
<title>Node1</title>
<g id="a_node1"><a xlink:title=" ">
<polygon fill="#999999" stroke="#666666" points="104,-370 0,-370 0,-351 104,-351 104,-370"/>
<text text-anchor="middle" x="52" y="-358" font-family="Helvetica,sans-Serif" font-size="10.00">TShop::MainMenu</text>
</a>
</g>
</g>
<!-- Node2 -->
<g id="node2" class="node">
<title>Node2</title>
<g id="a_node2"><a xlink:href="../../dc/de8/classTShop.html#aef476da75c7312f1d68373c4883b20b0" target="_top" xlink:title=" ">
<polygon fill="white" stroke="#666666" points="249,-426 144,-426 144,-407 249,-407 249,-426"/>
<text text-anchor="middle" x="196.5" y="-414" font-family="Helvetica,sans-Serif" font-size="10.00">TShop::AddWeight</text>
</a>
</g>
</g>
<!-- Node1&#45;&gt;Node2 -->
<g id="edge1" class="edge">
<title>Node1&#45;&gt;Node2</title>
<path fill="none" stroke="#63b8ff" d="M74.28,-370.06C91.78,-377.8 117.32,-388.81 140,-397.5 145.29,-399.53 150.9,-401.57 156.44,-403.53"/>
<polygon fill="#63b8ff" stroke="#63b8ff" points="155.67,-406.96 166.27,-406.93 157.96,-400.35 155.67,-406.96"/>
</g>
<!-- Node6 -->
<g id="node6" class="node">
<title>Node6</title>
<g id="a_node6"><a xlink:href="../../dc/de8/classTShop.html#a46d86376a3b839bf3299639a9bb844a7" target="_top" xlink:title=" ">
<polygon fill="white" stroke="#666666" points="424,-502 330,-502 330,-483 424,-483 424,-502"/>
<text text-anchor="middle" x="377" y="-490" font-family="Helvetica,sans-Serif" font-size="10.00">TShop::PrintInfo</text>
</a>
</g>
</g>
<!-- Node1&#45;&gt;Node6 -->
<g id="edge38" class="edge">
<title>Node1&#45;&gt;Node6</title>
<path fill="none" stroke="#63b8ff" d="M61.36,-370.05C75.78,-385.91 106.99,-417.61 140,-434.5 171.07,-450.4 260.53,-469.97 319.95,-481.83"/>
<polygon fill="#63b8ff" stroke="#63b8ff" points="319.45,-485.3 329.94,-483.81 320.81,-478.43 319.45,-485.3"/>
</g>
<!-- Node7 -->
<g id="node7" class="node">
<title>Node7</title>
<g id="a_node7"><a xlink:href="../../dc/de8/classTShop.html#aa10e5887f689e5928cce716aa1bf9ea6" target="_top" xlink:title=" ">
<polygon fill="white" stroke="#666666" points="422,-241 332,-241 332,-222 422,-222 422,-241"/>
<text text-anchor="middle" x="377" y="-229" font-family="Helvetica,sans-Serif" font-size="10.00">TShop::ReadInt</text>
</a>
</g>
</g>
<!-- Node1&#45;&gt;Node7 -->
<g id="edge40" class="edge">
<title>Node1&#45;&gt;Node7</title>
<path fill="none" stroke="#63b8ff" d="M74.28,-350.96C91.79,-343.23 117.33,-332.22 140,-323.5 189.59,-304.43 207.76,-312.35 253,-284.5 272,-272.8 269.29,-259.96 289,-249.5 299.12,-244.13 310.68,-240.37 322.01,-237.72"/>
<polygon fill="#63b8ff" stroke="#63b8ff" points="322.78,-241.14 331.86,-235.67 321.35,-234.28 322.78,-241.14"/>
</g>
<!-- Node10 -->
<g id="node10" class="node">
<title>Node10</title>
<g id="a_node10"><a xlink:href="../../dc/de8/classTShop.html#a5e84a0c01c9d507bda6ce4a0de43eaa7" target="_top" xlink:title=" ">
<polygon fill="white" stroke="#666666" points="242.5,-502 150.5,-502 150.5,-483 242.5,-483 242.5,-502"/>
<text text-anchor="middle" x="196.5" y="-490" font-family="Helvetica,sans-Serif" font-size="10.00">TShop::AskPlay</text>
</a>
</g>
</g>
<!-- Node1&#45;&gt;Node10 -->
<g id="edge9" class="edge">
<title>Node1&#45;&gt;Node10</title>
<path fill="none" stroke="#63b8ff" d="M58.53,-370.17C70.76,-390.81 102.06,-439.63 140,-468.5 145.1,-472.38 150.92,-475.77 156.83,-478.69"/>
<polygon fill="#63b8ff" stroke="#63b8ff" points="155.55,-481.95 166.1,-482.89 158.44,-475.58 155.55,-481.95"/>
</g>
<!-- Node11 -->
<g id="node11" class="node">
<title>Node11</title>
<g id="a_node11"><a xlink:href="../../dc/de8/classTShop.html#aa31244972d1d22e92673e8446ef50f2d" target="_top" xlink:title=" ">
<polygon fill="white" stroke="#666666" points="251,-652 142,-652 142,-633 251,-633 251,-652"/>
<text text-anchor="middle" x="196.5" y="-640" font-family="Helvetica,sans-Serif" font-size="10.00">TShop::AutoWeight</text>
</a>
</g>
</g>
<!-- Node1&#45;&gt;Node11 -->
<g id="edge11" class="edge">
<title>Node1&#45;&gt;Node11</title>
<path fill="none" stroke="#63b8ff" d="M57.91,-370.21C78.5,-410.97 158.21,-568.71 185.93,-623.57"/>
<polygon fill="#63b8ff" stroke="#63b8ff" points="182.98,-625.49 190.62,-632.83 189.23,-622.33 182.98,-625.49"/>
</g>
<!-- Node16 -->
<g id="node16" class="node">
<title>Node16</title>
<g id="a_node16"><a xlink:href="../../dc/de8/classTShop.html#ac463d2ee0ef76283f4dac87a51353c36" target="_top" xlink:title=" ">
<polygon fill="white" stroke="#666666" points="242,-352 151,-352 151,-333 242,-333 242,-352"/>
<text text-anchor="middle" x="196.5" y="-340" font-family="Helvetica,sans-Serif" font-size="10.00">TShop::BuyGun</text>
</a>
</g>
</g>
<!-- Node1&#45;&gt;Node16 -->
<g id="edge19" class="edge">
<title>Node1&#45;&gt;Node16</title>
<path fill="none" stroke="#63b8ff" d="M104.04,-354.05C116.02,-352.54 128.83,-350.92 140.96,-349.39"/>
<polygon fill="#63b8ff" stroke="#63b8ff" points="141.47,-352.85 150.95,-348.13 140.59,-345.91 141.47,-352.85"/>
</g>
<!-- Node25 -->
<g id="node25" class="node">
<title>Node25</title>
<g id="a_node25"><a xlink:href="../../dc/de8/classTShop.html#aecceb42ffe39e9e0e9f1e152fa0c258d" target="_top" xlink:title=" ">
<polygon fill="white" stroke="#666666" points="242.5,-148 150.5,-148 150.5,-129 242.5,-129 242.5,-148"/>
<text text-anchor="middle" x="196.5" y="-136" font-family="Helvetica,sans-Serif" font-size="10.00">TShop::BuyShip</text>
</a>
</g>
</g>
<!-- Node1&#45;&gt;Node25 -->
<g id="edge32" class="edge">
<title>Node1&#45;&gt;Node25</title>
<path fill="none" stroke="#63b8ff" d="M58.07,-350.76C70.85,-326.47 105.77,-261.49 140,-210.5 152.82,-191.4 169.03,-170.71 180.62,-156.43"/>
<polygon fill="#63b8ff" stroke="#63b8ff" points="183.53,-158.4 187.16,-148.44 178.12,-153.96 183.53,-158.4"/>
</g>
<!-- Node29 -->
<g id="node29" class="node">
<title>Node29</title>
<g id="a_node29"><a xlink:href="../../dc/de8/classTShop.html#a50adc3df9d34e65a112b243e1da598d4" target="_top" xlink:title=" ">
<polygon fill="white" stroke="#666666" points="253,-276 140,-276 140,-257 253,-257 253,-276"/>
<text text-anchor="middle" x="196.5" y="-264" font-family="Helvetica,sans-Serif" font-size="10.00">TShop::PrintOptions</text>
</a>
</g>
</g>
<!-- Node1&#45;&gt;Node29 -->
<g id="edge39" class="edge">
<title>Node1&#45;&gt;Node29</title>
<path fill="none" stroke="#63b8ff" d="M63.03,-350.9C78.56,-336.42 109.79,-308.73 140,-290.5 146.3,-286.7 153.32,-283.18 160.18,-280.07"/>
<polygon fill="#63b8ff" stroke="#63b8ff" points="161.57,-283.28 169.36,-276.1 158.8,-276.86 161.57,-283.28"/>
</g>
<!-- Node30 -->
<g id="node30" class="node">
<title>Node30</title>
<g id="a_node30"><a xlink:href="../../dc/de8/classTShop.html#a7c75fe3801c08795282fefc2baae29b8" target="_top" xlink:title=" ">
<polygon fill="white" stroke="#666666" points="241.5,-239 151.5,-239 151.5,-220 241.5,-220 241.5,-239"/>
<text text-anchor="middle" x="196.5" y="-227" font-family="Helvetica,sans-Serif" font-size="10.00">TShop::SellGun</text>
</a>
</g>
</g>
<!-- Node1&#45;&gt;Node30 -->
<g id="edge41" class="edge">
<title>Node1&#45;&gt;Node30</title>
<path fill="none" stroke="#63b8ff" d="M57.86,-350.74C69.19,-328.95 99.53,-276.04 140,-247.5 142.1,-246.02 144.33,-244.65 146.64,-243.4"/>
<polygon fill="#63b8ff" stroke="#63b8ff" points="148.3,-246.48 155.87,-239.07 145.33,-240.15 148.3,-246.48"/>
</g>
<!-- Node31 -->
<g id="node31" class="node">
<title>Node31</title>
<g id="a_node31"><a xlink:href="../../dc/de8/classTShop.html#ae39747c12e22b3bd4641affc0be979e3" target="_top" xlink:title=" ">
<polygon fill="white" stroke="#666666" points="242.5,-389 150.5,-389 150.5,-370 242.5,-370 242.5,-389"/>
<text text-anchor="middle" x="196.5" y="-377" font-family="Helvetica,sans-Serif" font-size="10.00">TShop::SellShip</text>
</a>
</g>
</g>
<!-- Node1&#45;&gt;Node31 -->
<g id="edge49" class="edge">
<title>Node1&#45;&gt;Node31</title>
<path fill="none" stroke="#63b8ff" d="M104.04,-367.31C115.78,-368.87 128.31,-370.54 140.22,-372.13"/>
<polygon fill="#63b8ff" stroke="#63b8ff" points="140.11,-375.65 150.48,-373.5 141.03,-368.71 140.11,-375.65"/>
</g>
<!-- Node3 -->
<g id="node3" class="node">
<title>Node3</title>
<g id="a_node3"><a xlink:href="../../d8/d51/classMyList.html#a281f359e28eb5d6014ba3405cf0e6895" target="_top" xlink:title=" ">
<polygon fill="white" stroke="#666666" points="418,-278 336,-278 336,-259 418,-259 418,-278"/>
<text text-anchor="middle" x="377" y="-266" font-family="Helvetica,sans-Serif" font-size="10.00">MyList::begin</text>
</a>
</g>
</g>
<!-- Node2&#45;&gt;Node3 -->
<g id="edge2" class="edge">
<title>Node2&#45;&gt;Node3</title>
<path fill="none" stroke="#63b8ff" d="M239.71,-406.86C244.62,-404.42 249.21,-401.35 253,-397.5 289.37,-360.53 250.37,-321.11 289,-286.5 299.07,-277.48 312.44,-272.52 325.68,-269.91"/>
<polygon fill="#63b8ff" stroke="#63b8ff" points="326.38,-273.34 335.71,-268.34 325.29,-266.43 326.38,-273.34"/>
</g>
<!-- Node4 -->
<g id="node4" class="node">
<title>Node4</title>
<g id="a_node4"><a xlink:href="../../d3/d81/classTCargoShip.html#aac8aa5512f4e7ea9641f3a5812cc8722" target="_top" xlink:title=" ">
<polygon fill="white" stroke="#666666" points="452,-578 302,-578 302,-559 452,-559 452,-578"/>
<text text-anchor="middle" x="377" y="-566" font-family="Helvetica,sans-Serif" font-size="10.00">TCargoShip::GetWeightNow</text>
</a>
</g>
</g>
<!-- Node2&#45;&gt;Node4 -->
<g id="edge3" class="edge">
<title>Node2&#45;&gt;Node4</title>
<path fill="none" stroke="#63b8ff" d="M208.75,-426.15C220.75,-436.86 239.83,-455.07 253,-473.5 273.58,-502.28 261.61,-522.11 289,-544.5 294.22,-548.76 300.13,-552.27 306.37,-555.16"/>
<polygon fill="#63b8ff" stroke="#63b8ff" points="305.11,-558.43 315.69,-558.96 307.76,-551.94 305.11,-558.43"/>
</g>
<!-- Node5 -->
<g id="node5" class="node">
<title>Node5</title>
<g id="a_node5"><a xlink:href="../../d3/d81/classTCargoShip.html#af864094175baefdf2e6f8c88a53ad716" target="_top" xlink:title=" ">
<polygon fill="white" stroke="#666666" points="453,-615 301,-615 301,-596 453,-596 453,-615"/>
<text text-anchor="middle" x="377" y="-603" font-family="Helvetica,sans-Serif" font-size="10.00">TCargoShip::GetWeightTotal</text>
</a>
</g>
</g>
<!-- Node2&#45;&gt;Node5 -->
<g id="edge4" class="edge">
<title>Node2&#45;&gt;Node5</title>
<path fill="none" stroke="#63b8ff" d="M209.81,-426.14C222.34,-436.57 241.52,-454.3 253,-473.5 280.27,-519.1 249.57,-551.89 289,-587.5 290.14,-588.53 291.33,-589.51 292.56,-590.44"/>
<polygon fill="#63b8ff" stroke="#63b8ff" points="290.83,-593.49 301.15,-595.87 294.57,-587.57 290.83,-593.49"/>
</g>
<!-- Node2&#45;&gt;Node6 -->
<g id="edge5" class="edge">
<title>Node2&#45;&gt;Node6</title>
<path fill="none" stroke="#63b8ff" d="M223.31,-426.07C232.89,-430.03 243.7,-434.99 253,-440.5 270.44,-450.83 270.88,-459.41 289,-468.5 298.65,-473.34 309.41,-477.32 319.98,-480.54"/>
<polygon fill="#63b8ff" stroke="#63b8ff" points="319.02,-483.91 329.6,-483.29 320.94,-477.18 319.02,-483.91"/>
</g>
<!-- Node2&#45;&gt;Node7 -->
<g id="edge6" class="edge">
<title>Node2&#45;&gt;Node7</title>
<path fill="none" stroke="#63b8ff" d="M240.26,-406.99C245.02,-404.52 249.43,-401.41 253,-397.5 298.64,-347.5 240.31,-296.53 289,-249.5 297.84,-240.96 309.61,-235.99 321.62,-233.2"/>
<polygon fill="#63b8ff" stroke="#63b8ff" points="322.51,-236.6 331.71,-231.34 321.24,-229.71 322.51,-236.6"/>
</g>
<!-- Node8 -->
<g id="node8" class="node">
<title>Node8</title>
<g id="a_node8"><a xlink:href="../../d3/d81/classTCargoShip.html#a9a12a2c02b7b32f49c952f4c13e74a77" target="_top" xlink:title=" ">
<polygon fill="white" stroke="#666666" points="663,-577 514,-577 514,-558 663,-558 663,-577"/>
<text text-anchor="middle" x="588.5" y="-565" font-family="Helvetica,sans-Serif" font-size="10.00">TCargoShip::SetWeightNow</text>
</a>
</g>
</g>
<!-- Node2&#45;&gt;Node8 -->
<g id="edge7" class="edge">
<title>Node2&#45;&gt;Node8</title>
<path fill="none" stroke="#63b8ff" d="M206.95,-426.21C230.33,-450.22 289,-510.5 289,-510.5 308.84,-521.18 435.19,-543 517.01,-556.33"/>
<polygon fill="#63b8ff" stroke="#63b8ff" points="516.58,-559.8 527.01,-557.95 517.7,-552.89 516.58,-559.8"/>
</g>
<!-- Node9 -->
<g id="node9" class="node">
<title>Node9</title>
<g id="a_node9"><a xlink:href="../../d8/d51/classMyList.html#a37366fbfd16acad1dfa69a141b339095" target="_top" xlink:title=" ">
<polygon fill="white" stroke="#666666" points="414,-389 340,-389 340,-370 414,-370 414,-389"/>
<text text-anchor="middle" x="377" y="-377" font-family="Helvetica,sans-Serif" font-size="10.00">MyList::size</text>
</a>
</g>
</g>
<!-- Node2&#45;&gt;Node9 -->
<g id="edge8" class="edge">
<title>Node2&#45;&gt;Node9</title>
<path fill="none" stroke="#63b8ff" d="M243.58,-406.93C258.11,-403.91 274.23,-400.56 289,-397.5 302.24,-394.76 316.61,-391.78 329.79,-389.05"/>
<polygon fill="#63b8ff" stroke="#63b8ff" points="330.51,-392.48 339.6,-387.03 329.09,-385.62 330.51,-392.48"/>
</g>
<!-- Node10&#45;&gt;Node6 -->
<g id="edge10" class="edge">
<title>Node10&#45;&gt;Node6</title>
<path fill="none" stroke="#63b8ff" d="M242.54,-492.5C265.96,-492.5 294.82,-492.5 319.69,-492.5"/>
<polygon fill="#63b8ff" stroke="#63b8ff" points="319.73,-496 329.73,-492.5 319.73,-489 319.73,-496"/>
</g>
<!-- Node11&#45;&gt;Node5 -->
<g id="edge12" class="edge">
<title>Node11&#45;&gt;Node5</title>
<path fill="none" stroke="#63b8ff" d="M243.47,-632.97C266.8,-628.14 295.34,-622.22 319.95,-617.12"/>
<polygon fill="#63b8ff" stroke="#63b8ff" points="320.8,-620.52 329.88,-615.06 319.38,-613.66 320.8,-620.52"/>
</g>
<!-- Node12 -->
<g id="node12" class="node">
<title>Node12</title>
<g id="a_node12"><a xlink:href="../../dc/de8/classTShop.html#abe63a0587be037f14a2e04e62fd1fc60" target="_top" xlink:title=" ">
<polygon fill="white" stroke="#666666" points="442.5,-689 311.5,-689 311.5,-670 442.5,-670 442.5,-689"/>
<text text-anchor="middle" x="377" y="-677" font-family="Helvetica,sans-Serif" font-size="10.00">TShop::IsSpeedPossible</text>
</a>
</g>
</g>
<!-- Node11&#45;&gt;Node12 -->
<g id="edge13" class="edge">
<title>Node11&#45;&gt;Node12</title>
<path fill="none" stroke="#63b8ff" d="M243.58,-652.07C258.11,-655.09 274.23,-658.44 289,-661.5 298.97,-663.57 309.58,-665.76 319.84,-667.89"/>
<polygon fill="#63b8ff" stroke="#63b8ff" points="319.44,-671.38 329.94,-669.98 320.86,-664.52 319.44,-671.38"/>
</g>
<!-- Node14 -->
<g id="node14" class="node">
<title>Node14</title>
<g id="a_node14"><a xlink:href="../../dc/de8/classTShop.html#ae77eb41b055433f33b63810b32dfb88c" target="_top" xlink:title=" ">
<polygon fill="white" stroke="#666666" points="449.5,-652 304.5,-652 304.5,-633 449.5,-633 449.5,-652"/>
<text text-anchor="middle" x="377" y="-640" font-family="Helvetica,sans-Serif" font-size="10.00">TShop::SetWeightBySpeed</text>
</a>
</g>
</g>
<!-- Node11&#45;&gt;Node14 -->
<g id="edge15" class="edge">
<title>Node11&#45;&gt;Node14</title>
<path fill="none" stroke="#63b8ff" d="M251.06,-642.5C264.66,-642.5 279.58,-642.5 294.23,-642.5"/>
<polygon fill="#63b8ff" stroke="#63b8ff" points="294.32,-646 304.32,-642.5 294.32,-639 294.32,-646"/>
</g>
<!-- Node15 -->
<g id="node15" class="node">
<title>Node15</title>
<g id="a_node15"><a xlink:href="../../d3/d81/classTCargoShip.html#a2058989e985027329e36e55be4d83cc9" target="_top" xlink:title=" ">
<polygon fill="white" stroke="#666666" points="454,-726 300,-726 300,-707 454,-707 454,-726"/>
<text text-anchor="middle" x="377" y="-714" font-family="Helvetica,sans-Serif" font-size="10.00">TCargoShip::SpeedByWeight</text>
</a>
</g>
</g>
<!-- Node11&#45;&gt;Node15 -->
<g id="edge18" class="edge">
<title>Node11&#45;&gt;Node15</title>
<path fill="none" stroke="#63b8ff" d="M210.08,-652.17C227.06,-664.75 258.69,-686.51 289,-698.5 294.51,-700.68 300.33,-702.61 306.24,-704.32"/>
<polygon fill="#63b8ff" stroke="#63b8ff" points="305.67,-707.79 316.23,-706.99 307.47,-701.03 305.67,-707.79"/>
</g>
<!-- Node13 -->
<g id="node13" class="node">
<title>Node13</title>
<g id="a_node13"><a xlink:href="../../d3/d81/classTCargoShip.html#a1f4cbd4a7effa3987f1298da081e8aec" target="_top" xlink:title=" ">
<polygon fill="white" stroke="#666666" points="676,-670 501,-670 501,-651 676,-651 676,-670"/>
<text text-anchor="middle" x="588.5" y="-658" font-family="Helvetica,sans-Serif" font-size="10.00">TCargoShip::WeightMaxBySpeed</text>
</a>
</g>
</g>
<!-- Node12&#45;&gt;Node13 -->
<g id="edge14" class="edge">
<title>Node12&#45;&gt;Node13</title>
<path fill="none" stroke="#63b8ff" d="M442.57,-673.64C457.8,-672.26 474.37,-670.76 490.68,-669.28"/>
<polygon fill="#63b8ff" stroke="#63b8ff" points="491.15,-672.75 500.79,-668.36 490.51,-665.78 491.15,-672.75"/>
</g>
<!-- Node14&#45;&gt;Node8 -->
<g id="edge16" class="edge">
<title>Node14&#45;&gt;Node8</title>
<path fill="none" stroke="#63b8ff" d="M433.74,-632.97C444.24,-630.61 455.04,-627.8 465,-624.5 499.4,-613.11 536.9,-594.71 561.22,-581.91"/>
<polygon fill="#63b8ff" stroke="#63b8ff" points="563,-584.93 570.17,-577.13 559.7,-578.75 563,-584.93"/>
</g>
<!-- Node14&#45;&gt;Node13 -->
<g id="edge17" class="edge">
<title>Node14&#45;&gt;Node13</title>
<path fill="none" stroke="#63b8ff" d="M449.51,-648.64C462.77,-649.78 476.82,-650.99 490.69,-652.18"/>
<polygon fill="#63b8ff" stroke="#63b8ff" points="490.47,-655.68 500.73,-653.05 491.07,-648.7 490.47,-655.68"/>
</g>
<!-- Node16&#45;&gt;Node3 -->
<g id="edge20" class="edge">
<title>Node16&#45;&gt;Node3</title>
<path fill="none" stroke="#63b8ff" d="M224.35,-332.91C233.74,-329.04 244.15,-324.14 253,-318.5 271.05,-306.99 269.87,-296.11 289,-286.5 300.2,-280.88 313.05,-277.01 325.38,-274.35"/>
<polygon fill="#63b8ff" stroke="#63b8ff" points="326.41,-277.72 335.57,-272.39 325.09,-270.84 326.41,-277.72"/>
</g>
<!-- Node16&#45;&gt;Node6 -->
<g id="edge29" class="edge">
<title>Node16&#45;&gt;Node6</title>
<path fill="none" stroke="#63b8ff" d="M239.77,-352.12C244.55,-354.36 249.1,-357.11 253,-360.5 280.6,-384.5 264.94,-406.95 289,-434.5 305.04,-452.87 328.19,-467.92 346.58,-478.09"/>
<polygon fill="#63b8ff" stroke="#63b8ff" points="344.97,-481.2 355.44,-482.82 348.27,-475.02 344.97,-481.2"/>
</g>
<!-- Node16&#45;&gt;Node7 -->
<g id="edge30" class="edge">
<title>Node16&#45;&gt;Node7</title>
<path fill="none" stroke="#63b8ff" d="M229.67,-332.94C237.96,-329.37 246.39,-324.65 253,-318.5 278.33,-294.95 261.4,-270.35 289,-249.5 298.42,-242.38 309.99,-237.91 321.58,-235.14"/>
<polygon fill="#63b8ff" stroke="#63b8ff" points="322.59,-238.51 331.72,-233.12 321.23,-231.64 322.59,-238.51"/>
</g>
<!-- Node16&#45;&gt;Node9 -->
<g id="edge31" class="edge">
<title>Node16&#45;&gt;Node9</title>
<path fill="none" stroke="#63b8ff" d="M242.08,-351.74C268.82,-357.28 302.76,-364.32 329.79,-369.92"/>
<polygon fill="#63b8ff" stroke="#63b8ff" points="329.27,-373.39 339.77,-371.99 330.69,-366.53 329.27,-373.39"/>
</g>
<!-- Node17 -->
<g id="node17" class="node">
<title>Node17</title>
<g id="a_node17"><a xlink:href="../../d8/d51/classMyList.html#a80edb252c7e71107fac78c29647be513" target="_top" xlink:title=" ">
<polygon fill="white" stroke="#666666" points="423,-315 331,-315 331,-296 423,-296 423,-315"/>
<text text-anchor="middle" x="377" y="-303" font-family="Helvetica,sans-Serif" font-size="10.00">MyList::getById</text>
</a>
</g>
</g>
<!-- Node16&#45;&gt;Node17 -->
<g id="edge21" class="edge">
<title>Node16&#45;&gt;Node17</title>
<path fill="none" stroke="#63b8ff" d="M242.18,-333.22C257.07,-330.12 273.75,-326.66 289,-323.5 299.3,-321.36 310.29,-319.09 320.86,-316.9"/>
<polygon fill="#63b8ff" stroke="#63b8ff" points="321.76,-320.29 330.84,-314.84 320.34,-313.44 321.76,-320.29"/>
</g>
<!-- Node18 -->
<g id="node18" class="node">
<title>Node18</title>
<g id="a_node18"><a xlink:href="../../d1/d3d/classTWeapon.html#a2074e5b5b326730d5212a3dc00df06f4" target="_top" xlink:title=" ">
<polygon fill="white" stroke="#666666" points="430.5,-204 323.5,-204 323.5,-185 430.5,-185 430.5,-204"/>
<text text-anchor="middle" x="377" y="-192" font-family="Helvetica,sans-Serif" font-size="10.00">TWeapon::GetCost</text>
</a>
</g>
</g>
<!-- Node16&#45;&gt;Node18 -->
<g id="edge22" class="edge">
<title>Node16&#45;&gt;Node18</title>
<path fill="none" stroke="#63b8ff" d="M208.75,-332.65C220.76,-321.74 239.84,-303.19 253,-284.5 273.6,-255.25 260.64,-234.31 289,-212.5 296.11,-207.03 304.47,-203.12 313.16,-200.34"/>
<polygon fill="#63b8ff" stroke="#63b8ff" points="314.31,-203.65 323.05,-197.66 312.48,-196.9 314.31,-203.65"/>
</g>
<!-- Node19 -->
<g id="node19" class="node">
<title>Node19</title>
<g id="a_node19"><a xlink:href="../../d4/de2/classTWeaponHolder.html#a1c57748293f9f082f1598c51b288de34" target="_top" xlink:title=" ">
<polygon fill="white" stroke="#666666" points="465,-130 289,-130 289,-111 465,-111 465,-130"/>
<text text-anchor="middle" x="377" y="-118" font-family="Helvetica,sans-Serif" font-size="10.00">TWeaponHolder::GetGunByPlace</text>
</a>
</g>
</g>
<!-- Node16&#45;&gt;Node19 -->
<g id="edge23" class="edge">
<title>Node16&#45;&gt;Node19</title>
<path fill="none" stroke="#63b8ff" d="M210.05,-332.79C222.79,-322.26 242.12,-304.29 253,-284.5 285.19,-225.93 240.86,-184.86 289,-138.5 289.97,-137.57 290.97,-136.68 292.01,-135.83"/>
<polygon fill="#63b8ff" stroke="#63b8ff" points="294.18,-138.59 300.5,-130.09 290.26,-132.79 294.18,-138.59"/>
</g>
<!-- Node20 -->
<g id="node20" class="node">
<title>Node20</title>
<g id="a_node20"><a xlink:href="../../db/df3/classTWarShip.html#a6498ce65a99aba4649774151442b3637" target="_top" xlink:title=" ">
<polygon fill="white" stroke="#666666" points="436,-167 318,-167 318,-148 436,-148 436,-167"/>
<text text-anchor="middle" x="377" y="-155" font-family="Helvetica,sans-Serif" font-size="10.00">TWarShip::GetHolder</text>
</a>
</g>
</g>
<!-- Node16&#45;&gt;Node20 -->
<g id="edge24" class="edge">
<title>Node16&#45;&gt;Node20</title>
<path fill="none" stroke="#63b8ff" d="M209.75,-332.61C222.23,-321.94 241.37,-303.85 253,-284.5 279.28,-240.77 250.91,-209.44 289,-175.5 294.54,-170.56 301.07,-166.84 308.03,-164.06"/>
<polygon fill="#63b8ff" stroke="#63b8ff" points="309.35,-167.31 317.72,-160.82 307.13,-160.67 309.35,-167.31"/>
</g>
<!-- Node21 -->
<g id="node21" class="node">
<title>Node21</title>
<g id="a_node21"><a xlink:href="../../db/df3/classTWarShip.html#a1728538cd00c77fb09b08357e491bca8" target="_top" xlink:title=" ">
<polygon fill="white" stroke="#666666" points="422.5,-352 331.5,-352 331.5,-333 422.5,-333 422.5,-352"/>
<text text-anchor="middle" x="377" y="-340" font-family="Helvetica,sans-Serif" font-size="10.00">TWarShip::Print</text>
</a>
</g>
</g>
<!-- Node16&#45;&gt;Node21 -->
<g id="edge25" class="edge">
<title>Node16&#45;&gt;Node21</title>
<path fill="none" stroke="#63b8ff" d="M242.08,-342.5C266.04,-342.5 295.79,-342.5 321.16,-342.5"/>
<polygon fill="#63b8ff" stroke="#63b8ff" points="321.37,-346 331.37,-342.5 321.37,-339 321.37,-346"/>
</g>
<!-- Node22 -->
<g id="node22" class="node">
<title>Node22</title>
<g id="a_node22"><a xlink:href="../../db/df3/classTWarShip.html#a1deb0d2b3eee3d1a4a9976ae55300307" target="_top" xlink:title=" ">
<polygon fill="white" stroke="#666666" points="666,-427 511,-427 511,-408 666,-408 666,-427"/>
<text text-anchor="middle" x="588.5" y="-415" font-family="Helvetica,sans-Serif" font-size="10.00">TWarShip::GetCostWithGuns</text>
</a>
</g>
</g>
<!-- Node21&#45;&gt;Node22 -->
<g id="edge26" class="edge">
<title>Node21&#45;&gt;Node22</title>
<path fill="none" stroke="#63b8ff" d="M422.78,-349.7C436.5,-352.46 451.53,-356.04 465,-360.5 499.4,-371.89 536.9,-390.29 561.22,-403.09"/>
<polygon fill="#63b8ff" stroke="#63b8ff" points="559.7,-406.25 570.17,-407.87 563,-400.07 559.7,-406.25"/>
</g>
<!-- Node24 -->
<g id="node24" class="node">
<title>Node24</title>
<g id="a_node24"><a xlink:href="../../d4/de2/classTWeaponHolder.html#ac1330fe768fc0ea732f579c166650dc5" target="_top" xlink:title=" ">
<polygon fill="white" stroke="#666666" points="649.5,-352 527.5,-352 527.5,-333 649.5,-333 649.5,-352"/>
<text text-anchor="middle" x="588.5" y="-340" font-family="Helvetica,sans-Serif" font-size="10.00">TWeaponHolder::Print</text>
</a>
</g>
</g>
<!-- Node21&#45;&gt;Node24 -->
<g id="edge28" class="edge">
<title>Node21&#45;&gt;Node24</title>
<path fill="none" stroke="#63b8ff" d="M422.69,-342.5C450.11,-342.5 485.83,-342.5 517,-342.5"/>
<polygon fill="#63b8ff" stroke="#63b8ff" points="517.38,-346 527.38,-342.5 517.38,-339 517.38,-346"/>
</g>
<!-- Node23 -->
<g id="node23" class="node">
<title>Node23</title>
<g id="a_node23"><a xlink:href="../../d4/de2/classTWeaponHolder.html#a41344ca59e32b01ba31c08ee5d609731" target="_top" xlink:title=" ">
<polygon fill="white" stroke="#666666" points="851,-427 712,-427 712,-408 851,-408 851,-427"/>
<text text-anchor="middle" x="781.5" y="-415" font-family="Helvetica,sans-Serif" font-size="10.00">TWeaponHolder::GetCost</text>
</a>
</g>
</g>
<!-- Node22&#45;&gt;Node23 -->
<g id="edge27" class="edge">
<title>Node22&#45;&gt;Node23</title>
<path fill="none" stroke="#63b8ff" d="M666.09,-417.5C677.81,-417.5 689.92,-417.5 701.69,-417.5"/>
<polygon fill="#63b8ff" stroke="#63b8ff" points="701.92,-421 711.92,-417.5 701.92,-414 701.92,-421"/>
</g>
<!-- Node25&#45;&gt;Node3 -->
<g id="edge33" class="edge">
<title>Node25&#45;&gt;Node3</title>
<path fill="none" stroke="#63b8ff" d="M204.78,-148.03C224.44,-173.68 277.92,-242.73 289,-249.5 300.04,-256.24 313.15,-260.6 325.8,-263.42"/>
<polygon fill="#63b8ff" stroke="#63b8ff" points="325.32,-266.9 335.8,-265.37 326.65,-260.02 325.32,-266.9"/>
</g>
<!-- Node25&#45;&gt;Node7 -->
<g id="edge37" class="edge">
<title>Node25&#45;&gt;Node7</title>
<path fill="none" stroke="#63b8ff" d="M206.35,-148.13C221.61,-164.1 254.56,-195.97 289,-212.5 299.14,-217.37 310.54,-221 321.66,-223.71"/>
<polygon fill="#63b8ff" stroke="#63b8ff" points="321.24,-227.2 331.76,-225.95 322.76,-220.37 321.24,-227.2"/>
</g>
<!-- Node26 -->
<g id="node26" class="node">
<title>Node26</title>
<g id="a_node26"><a xlink:href="../../d1/d07/classTShip.html#a36838d6bbb57ef7e04818c5965a562ad" target="_top" xlink:title=" ">
<polygon fill="white" stroke="#666666" points="415.5,-56 338.5,-56 338.5,-37 415.5,-37 415.5,-56"/>
<text text-anchor="middle" x="377" y="-44" font-family="Helvetica,sans-Serif" font-size="10.00">TShip::Clone</text>
</a>
</g>
</g>
<!-- Node25&#45;&gt;Node26 -->
<g id="edge34" class="edge">
<title>Node25&#45;&gt;Node26</title>
<path fill="none" stroke="#63b8ff" d="M206.33,-128.83C221.56,-112.8 254.47,-80.84 289,-64.5 301.22,-58.72 315.27,-54.78 328.47,-52.11"/>
<polygon fill="#63b8ff" stroke="#63b8ff" points="329.14,-55.55 338.35,-50.3 327.88,-48.66 329.14,-55.55"/>
</g>
<!-- Node27 -->
<g id="node27" class="node">
<title>Node27</title>
<g id="a_node27"><a xlink:href="../../d1/d07/classTShip.html#ab9eb49417d6be99d181e74a9327d9136" target="_top" xlink:title=" ">
<polygon fill="white" stroke="#666666" points="421.5,-19 332.5,-19 332.5,0 421.5,0 421.5,-19"/>
<text text-anchor="middle" x="377" y="-7" font-family="Helvetica,sans-Serif" font-size="10.00">TShip::GetCost</text>
</a>
</g>
</g>
<!-- Node25&#45;&gt;Node27 -->
<g id="edge35" class="edge">
<title>Node25&#45;&gt;Node27</title>
<path fill="none" stroke="#63b8ff" d="M202.4,-128.92C214.12,-107.07 246.01,-53.43 289,-27.5 299.01,-21.46 310.72,-17.42 322.25,-14.73"/>
<polygon fill="#63b8ff" stroke="#63b8ff" points="323.18,-18.11 332.28,-12.69 321.78,-11.25 323.18,-18.11"/>
</g>
<!-- Node28 -->
<g id="node28" class="node">
<title>Node28</title>
<g id="a_node28"><a xlink:href="../../d8/d51/classMyList.html#ab5e189776aca91f01ee5fe930318c289" target="_top" xlink:title=" ">
<polygon fill="white" stroke="#666666" points="418.5,-93 335.5,-93 335.5,-74 418.5,-74 418.5,-93"/>
<text text-anchor="middle" x="377" y="-81" font-family="Helvetica,sans-Serif" font-size="10.00">MyList::insert</text>
</a>
</g>
</g>
<!-- Node25&#45;&gt;Node28 -->
<g id="edge36" class="edge">
<title>Node25&#45;&gt;Node28</title>
<path fill="none" stroke="#63b8ff" d="M218.19,-128.88C236.49,-120.68 264.07,-109.05 289,-101.5 300.65,-97.97 313.38,-94.91 325.42,-92.36"/>
<polygon fill="#63b8ff" stroke="#63b8ff" points="326.24,-95.76 335.34,-90.34 324.84,-88.91 326.24,-95.76"/>
</g>
<!-- Node30&#45;&gt;Node3 -->
<g id="edge42" class="edge">
<title>Node30&#45;&gt;Node3</title>
<path fill="none" stroke="#63b8ff" d="M241.25,-239.06C256.37,-242.37 273.43,-246.1 289,-249.5 300.92,-252.1 313.75,-254.91 325.81,-257.54"/>
<polygon fill="#63b8ff" stroke="#63b8ff" points="325.2,-260.99 335.72,-259.7 326.69,-254.15 325.2,-260.99"/>
</g>
<!-- Node30&#45;&gt;Node6 -->
<g id="edge46" class="edge">
<title>Node30&#45;&gt;Node6</title>
<path fill="none" stroke="#63b8ff" d="M241.5,-238.62C245.82,-240.95 249.78,-243.86 253,-247.5 309.04,-310.92 242.16,-364.01 289,-434.5 302.06,-454.16 324.3,-468.81 343.02,-478.47"/>
<polygon fill="#63b8ff" stroke="#63b8ff" points="341.63,-481.69 352.15,-482.94 344.71,-475.4 341.63,-481.69"/>
</g>
<!-- Node30&#45;&gt;Node7 -->
<g id="edge47" class="edge">
<title>Node30&#45;&gt;Node7</title>
<path fill="none" stroke="#63b8ff" d="M241.62,-229.99C265.76,-230.26 295.87,-230.6 321.47,-230.89"/>
<polygon fill="#63b8ff" stroke="#63b8ff" points="321.73,-234.39 331.77,-231 321.81,-227.39 321.73,-234.39"/>
</g>
<!-- Node30&#45;&gt;Node9 -->
<g id="edge48" class="edge">
<title>Node30&#45;&gt;Node9</title>
<path fill="none" stroke="#63b8ff" d="M241.09,-239.01C245.48,-241.27 249.57,-244.05 253,-247.5 290.17,-284.87 250.03,-325.01 289,-360.5 300.05,-370.56 315.17,-375.74 329.7,-378.28"/>
<polygon fill="#63b8ff" stroke="#63b8ff" points="329.22,-381.74 339.61,-379.64 330.18,-374.81 329.22,-381.74"/>
</g>
<!-- Node30&#45;&gt;Node18 -->
<g id="edge43" class="edge">
<title>Node30&#45;&gt;Node18</title>
<path fill="none" stroke="#63b8ff" d="M241.62,-220.85C264.49,-216.36 292.72,-210.83 317.39,-205.99"/>
<polygon fill="#63b8ff" stroke="#63b8ff" points="318.22,-209.4 327.36,-204.04 316.88,-202.53 318.22,-209.4"/>
</g>
<!-- Node30&#45;&gt;Node19 -->
<g id="edge44" class="edge">
<title>Node30&#45;&gt;Node19</title>
<path fill="none" stroke="#63b8ff" d="M204.06,-219.99C217.57,-201.16 250.52,-159.19 289,-138.5 292.49,-136.62 296.16,-134.94 299.93,-133.43"/>
<polygon fill="#63b8ff" stroke="#63b8ff" points="301.24,-136.68 309.49,-130.04 298.89,-130.09 301.24,-136.68"/>
</g>
<!-- Node30&#45;&gt;Node20 -->
<g id="edge45" class="edge">
<title>Node30&#45;&gt;Node20</title>
<path fill="none" stroke="#63b8ff" d="M210.43,-219.99C227.55,-207.85 259.06,-187.06 289,-175.5 294.95,-173.2 301.24,-171.18 307.62,-169.4"/>
<polygon fill="#63b8ff" stroke="#63b8ff" points="308.87,-172.69 317.67,-166.8 307.11,-165.91 308.87,-172.69"/>
</g>
<!-- Node31&#45;&gt;Node3 -->
<g id="edge50" class="edge">
<title>Node31&#45;&gt;Node3</title>
<path fill="none" stroke="#63b8ff" d="M238.09,-369.88C243.49,-367.42 248.65,-364.34 253,-360.5 280.4,-336.28 260.13,-308.95 289,-286.5 299.38,-278.43 312.48,-273.74 325.36,-271.07"/>
<polygon fill="#63b8ff" stroke="#63b8ff" points="326.3,-274.46 335.57,-269.34 325.13,-267.56 326.3,-274.46"/>
</g>
<!-- Node31&#45;&gt;Node6 -->
<g id="edge53" class="edge">
<title>Node31&#45;&gt;Node6</title>
<path fill="none" stroke="#63b8ff" d="M239.43,-389.05C244.33,-391.3 249,-394.08 253,-397.5 279.89,-420.5 261.61,-446.11 289,-468.5 297.91,-475.79 308.88,-480.87 319.98,-484.41"/>
<polygon fill="#63b8ff" stroke="#63b8ff" points="319.15,-487.81 329.72,-487.14 321.04,-481.07 319.15,-487.81"/>
</g>
<!-- Node31&#45;&gt;Node7 -->
<g id="edge54" class="edge">
<title>Node31&#45;&gt;Node7</title>
<path fill="none" stroke="#63b8ff" d="M239.71,-369.86C244.62,-367.42 249.21,-364.35 253,-360.5 289.37,-323.53 250.37,-284.11 289,-249.5 298.06,-241.38 309.81,-236.55 321.71,-233.76"/>
<polygon fill="#63b8ff" stroke="#63b8ff" points="322.53,-237.17 331.7,-231.87 321.22,-230.29 322.53,-237.17"/>
</g>
<!-- Node31&#45;&gt;Node9 -->
<g id="edge55" class="edge">
<title>Node31&#45;&gt;Node9</title>
<path fill="none" stroke="#63b8ff" d="M242.54,-379.5C269.17,-379.5 302.81,-379.5 329.66,-379.5"/>
<polygon fill="#63b8ff" stroke="#63b8ff" points="329.96,-383 339.96,-379.5 329.96,-376 329.96,-383"/>
</g>
<!-- Node31&#45;&gt;Node22 -->
<g id="edge52" class="edge">
<title>Node31&#45;&gt;Node22</title>
<path fill="none" stroke="#63b8ff" d="M235.33,-389.02C241.47,-391.33 247.58,-394.13 253,-397.5 272.48,-409.62 267.86,-425.57 289,-434.5 376.29,-471.36 490.86,-447.01 549.43,-430"/>
<polygon fill="#63b8ff" stroke="#63b8ff" points="550.78,-433.25 559.36,-427.03 548.77,-426.54 550.78,-433.25"/>
</g>
<!-- Node32 -->
<g id="node32" class="node">
<title>Node32</title>
<g id="a_node32"><a xlink:href="../../d8/d51/classMyList.html#a0bf752e12a79f715ac37ed5e03255833" target="_top" xlink:title=" ">
<polygon fill="white" stroke="#666666" points="418,-426 336,-426 336,-407 418,-407 418,-426"/>
<text text-anchor="middle" x="377" y="-414" font-family="Helvetica,sans-Serif" font-size="10.00">MyList::erase</text>
</a>
</g>
</g>
<!-- Node31&#45;&gt;Node32 -->
<g id="edge51" class="edge">
<title>Node31&#45;&gt;Node32</title>
<path fill="none" stroke="#63b8ff" d="M242.54,-388.84C267.89,-394.09 299.6,-400.66 325.75,-406.08"/>
<polygon fill="#63b8ff" stroke="#63b8ff" points="325.34,-409.57 335.84,-408.18 326.76,-402.72 325.34,-409.57"/>
</g>
</g>
</svg>
