<?xml version="1.0" encoding="UTF-8" standalone="no"?>
<!DOCTYPE svg PUBLIC "-//W3C//DTD SVG 1.1//EN"
 "http://www.w3.org/Graphics/SVG/1.1/DTD/svg11.dtd">
<!-- Generated by graphviz version 2.43.0 (0)
 -->
<!-- Title: code/ships/tests/TestTCapitanInfo.cpp Pages: 1 -->
<svg width="226pt" height="148pt"
 viewBox="0.00 0.00 226.00 148.00" xmlns="http://www.w3.org/2000/svg" xmlns:xlink="http://www.w3.org/1999/xlink">
<g id="graph0" class="graph" transform="scale(1 1) rotate(0) translate(4 144)">
<title>code/ships/tests/TestTCapitanInfo.cpp</title>
<!-- Node1 -->
<g id="node1" class="node">
<title>Node1</title>
<g id="a_node1"><a xlink:title=" ">
<polygon fill="#999999" stroke="#666666" points="178.5,-140 17.5,-140 17.5,-110 178.5,-110 178.5,-140"/>
<text text-anchor="start" x="25.5" y="-128" font-family="Helvetica,sans-Serif" font-size="10.00">code/ships/tests/TestTCapitan</text>
<text text-anchor="middle" x="98" y="-117" font-family="Helvetica,sans-Serif" font-size="10.00">Info.cpp</text>
</a>
</g>
</g>
<!-- Node2 -->
<g id="node2" class="node">
<title>Node2</title>
<g id="a_node2"><a xlink:title=" ">
<polygon fill="#e0e0e0" stroke="#999999" points="78,-74 0,-74 0,-55 78,-55 78,-74"/>
<text text-anchor="middle" x="39" y="-62" font-family="Helvetica,sans-Serif" font-size="10.00">gtest/gtest.h</text>
</a>
</g>
</g>
<!-- Node1&#45;&gt;Node2 -->
<g id="edge1" class="edge">
<title>Node1&#45;&gt;Node2</title>
<path fill="none" stroke="#63b8ff" d="M83.72,-109.84C75.07,-101.26 64.01,-90.3 55.06,-81.42"/>
<polygon fill="#63b8ff" stroke="#63b8ff" points="57.41,-78.82 47.84,-74.27 52.48,-83.79 57.41,-78.82"/>
</g>
<!-- Node3 -->
<g id="node3" class="node">
<title>Node3</title>
<g id="a_node3"><a xlink:href="../../de/da2/TCapitanInfo_8h.html" target="_top" xlink:title=" ">
<polygon fill="white" stroke="#666666" points="218,-74 96,-74 96,-55 218,-55 218,-74"/>
<text text-anchor="middle" x="157" y="-62" font-family="Helvetica,sans-Serif" font-size="10.00">../code/TCapitanInfo.h</text>
</a>
</g>
</g>
<!-- Node1&#45;&gt;Node3 -->
<g id="edge2" class="edge">
<title>Node1&#45;&gt;Node3</title>
<path fill="none" stroke="#63b8ff" d="M112.28,-109.84C120.93,-101.26 131.99,-90.3 140.94,-81.42"/>
<polygon fill="#63b8ff" stroke="#63b8ff" points="143.52,-83.79 148.16,-74.27 138.59,-78.82 143.52,-83.79"/>
</g>
<!-- Node4 -->
<g id="node4" class="node">
<title>Node4</title>
<g id="a_node4"><a xlink:title=" ">
<polygon fill="#e0e0e0" stroke="#999999" points="179,-19 135,-19 135,0 179,0 179,-19"/>
<text text-anchor="middle" x="157" y="-7" font-family="Helvetica,sans-Serif" font-size="10.00">string</text>
</a>
</g>
</g>
<!-- Node3&#45;&gt;Node4 -->
<g id="edge3" class="edge">
<title>Node3&#45;&gt;Node4</title>
<path fill="none" stroke="#63b8ff" d="M157,-54.75C157,-47.8 157,-37.85 157,-29.13"/>
<polygon fill="#63b8ff" stroke="#63b8ff" points="160.5,-29.09 157,-19.09 153.5,-29.09 160.5,-29.09"/>
</g>
</g>
</svg>
