<?xml version="1.0" encoding="UTF-8" standalone="no"?>
<!DOCTYPE svg PUBLIC "-//W3C//DTD SVG 1.1//EN"
 "http://www.w3.org/Graphics/SVG/1.1/DTD/svg11.dtd">
<!-- Generated by graphviz version 2.43.0 (0)
 -->
<!-- Title: TPirateBase::SetXYInSpawn Pages: 1 -->
<svg width="488pt" height="119pt"
 viewBox="0.00 0.00 488.00 119.00" xmlns="http://www.w3.org/2000/svg" xmlns:xlink="http://www.w3.org/1999/xlink">
<g id="graph0" class="graph" transform="scale(1 1) rotate(0) translate(4 115)">
<title>TPirateBase::SetXYInSpawn</title>
<!-- Node1 -->
<g id="node1" class="node">
<title>Node1</title>
<g id="a_node1"><a xlink:title=" ">
<polygon fill="#999999" stroke="#666666" points="151,-74 0,-74 0,-55 151,-55 151,-74"/>
<text text-anchor="middle" x="75.5" y="-62" font-family="Helvetica,sans-Serif" font-size="10.00">TPirateBase::SetXYInSpawn</text>
</a>
</g>
</g>
<!-- Node2 -->
<g id="node2" class="node">
<title>Node2</title>
<g id="a_node2"><a xlink:href="../../d5/d55/classTObjectOnMap.html#a55207fb8607d587b3578745bc1062b17" target="_top" xlink:title=" ">
<polygon fill="white" stroke="#666666" points="316.5,-111 197.5,-111 197.5,-92 316.5,-92 316.5,-111"/>
<text text-anchor="middle" x="257" y="-99" font-family="Helvetica,sans-Serif" font-size="10.00">TObjectOnMap::GetX</text>
</a>
</g>
</g>
<!-- Node1&#45;&gt;Node2 -->
<g id="edge1" class="edge">
<title>Node1&#45;&gt;Node2</title>
<path fill="none" stroke="#63b8ff" d="M122.73,-74.03C146.19,-78.86 174.89,-84.78 199.64,-89.88"/>
<polygon fill="#63b8ff" stroke="#63b8ff" points="199.12,-93.35 209.62,-91.94 200.53,-86.49 199.12,-93.35"/>
</g>
<!-- Node3 -->
<g id="node3" class="node">
<title>Node3</title>
<g id="a_node3"><a xlink:href="../../d5/d55/classTObjectOnMap.html#a4ef34ec3dde1bc159678f57aa463c972" target="_top" xlink:title=" ">
<polygon fill="white" stroke="#666666" points="316,-74 198,-74 198,-55 316,-55 316,-74"/>
<text text-anchor="middle" x="257" y="-62" font-family="Helvetica,sans-Serif" font-size="10.00">TObjectOnMap::GetY</text>
</a>
</g>
</g>
<!-- Node1&#45;&gt;Node3 -->
<g id="edge2" class="edge">
<title>Node1&#45;&gt;Node3</title>
<path fill="none" stroke="#63b8ff" d="M151.06,-64.5C163.13,-64.5 175.58,-64.5 187.5,-64.5"/>
<polygon fill="#63b8ff" stroke="#63b8ff" points="187.81,-68 197.81,-64.5 187.81,-61 187.81,-68"/>
</g>
<!-- Node4 -->
<g id="node4" class="node">
<title>Node4</title>
<g id="a_node4"><a xlink:href="../../d2/da3/classTSpawnDescriptor.html#a2bfa0d9a8473a6dc7df369933bf892f3" target="_top" xlink:title=" ">
<polygon fill="white" stroke="#666666" points="327,-37 187,-37 187,-18 327,-18 327,-37"/>
<text text-anchor="middle" x="257" y="-25" font-family="Helvetica,sans-Serif" font-size="10.00">TSpawnDescriptor::SetXY</text>
</a>
</g>
</g>
<!-- Node1&#45;&gt;Node4 -->
<g id="edge3" class="edge">
<title>Node1&#45;&gt;Node4</title>
<path fill="none" stroke="#63b8ff" d="M122.73,-54.97C146.19,-50.14 174.89,-44.22 199.64,-39.12"/>
<polygon fill="#63b8ff" stroke="#63b8ff" points="200.53,-42.51 209.62,-37.06 199.12,-35.65 200.53,-42.51"/>
</g>
<!-- Node5 -->
<g id="node5" class="node">
<title>Node5</title>
<g id="a_node5"><a xlink:href="../../d5/d55/classTObjectOnMap.html#a6ac7843a5010f103e09a0098f4a0ca73" target="_top" xlink:title=" ">
<polygon fill="white" stroke="#666666" points="480,-56 363,-56 363,-37 480,-37 480,-56"/>
<text text-anchor="middle" x="421.5" y="-44" font-family="Helvetica,sans-Serif" font-size="10.00">TObjectOnMap::SetX</text>
</a>
</g>
</g>
<!-- Node4&#45;&gt;Node5 -->
<g id="edge4" class="edge">
<title>Node4&#45;&gt;Node5</title>
<path fill="none" stroke="#63b8ff" d="M327.39,-35.61C335.79,-36.6 344.36,-37.6 352.74,-38.58"/>
<polygon fill="#63b8ff" stroke="#63b8ff" points="352.5,-42.07 362.84,-39.76 353.31,-35.12 352.5,-42.07"/>
</g>
<!-- Node6 -->
<g id="node6" class="node">
<title>Node6</title>
<g id="a_node6"><a xlink:href="../../d5/d55/classTObjectOnMap.html#a527b67fe12c7789343c6f5ed21009d5d" target="_top" xlink:title=" ">
<polygon fill="white" stroke="#666666" points="479.5,-19 363.5,-19 363.5,0 479.5,0 479.5,-19"/>
<text text-anchor="middle" x="421.5" y="-7" font-family="Helvetica,sans-Serif" font-size="10.00">TObjectOnMap::SetY</text>
</a>
</g>
</g>
<!-- Node4&#45;&gt;Node6 -->
<g id="edge5" class="edge">
<title>Node4&#45;&gt;Node6</title>
<path fill="none" stroke="#63b8ff" d="M327.39,-19.81C336,-18.86 344.8,-17.88 353.39,-16.93"/>
<polygon fill="#63b8ff" stroke="#63b8ff" points="353.79,-20.41 363.34,-15.83 353.02,-13.45 353.79,-20.41"/>
</g>
</g>
</svg>
