<?xml version="1.0" encoding="UTF-8" standalone="no"?>
<!DOCTYPE svg PUBLIC "-//W3C//DTD SVG 1.1//EN"
 "http://www.w3.org/Graphics/SVG/1.1/DTD/svg11.dtd">
<!-- Generated by graphviz version 2.43.0 (0)
 -->
<!-- Title: TCargoShip::SpeedByWeight Pages: 1 -->
<svg width="745pt" height="138pt"
 viewBox="0.00 0.00 745.00 138.00" xmlns="http://www.w3.org/2000/svg" xmlns:xlink="http://www.w3.org/1999/xlink">
<g id="graph0" class="graph" transform="scale(1 1) rotate(0) translate(4 134)">
<title>TCargoShip::SpeedByWeight</title>
<!-- Node1 -->
<g id="node1" class="node">
<title>Node1</title>
<g id="a_node1"><a xlink:title=" ">
<polygon fill="#999999" stroke="#666666" points="737,-56 583,-56 583,-37 737,-37 737,-56"/>
<text text-anchor="middle" x="660" y="-44" font-family="Helvetica,sans-Serif" font-size="10.00">TCargoShip::SpeedByWeight</text>
</a>
</g>
</g>
<!-- Node2 -->
<g id="node2" class="node">
<title>Node2</title>
<g id="a_node2"><a xlink:href="../../dc/de8/classTShop.html#aa31244972d1d22e92673e8446ef50f2d" target="_top" xlink:title=" ">
<polygon fill="white" stroke="#666666" points="545.5,-93 436.5,-93 436.5,-74 545.5,-74 545.5,-93"/>
<text text-anchor="middle" x="491" y="-81" font-family="Helvetica,sans-Serif" font-size="10.00">TShop::AutoWeight</text>
</a>
</g>
</g>
<!-- Node1&#45;&gt;Node2 -->
<g id="edge1" class="edge">
<title>Node1&#45;&gt;Node2</title>
<path fill="none" stroke="#63b8ff" d="M606.1,-58.22C583.23,-63.29 556.81,-69.14 535.15,-73.94"/>
<polygon fill="#63b8ff" stroke="#63b8ff" points="606.99,-61.61 615.99,-56.03 605.47,-54.77 606.99,-61.61"/>
</g>
<!-- Node6 -->
<g id="node6" class="node">
<title>Node6</title>
<g id="a_node6"><a xlink:href="../../db/dab/classTPlaying.html#aef014ab7b215fa8b936719318fcfd1a2" target="_top" xlink:title=" ">
<polygon fill="white" stroke="#666666" points="547,-56 435,-56 435,-37 547,-37 547,-56"/>
<text text-anchor="middle" x="491" y="-44" font-family="Helvetica,sans-Serif" font-size="10.00">TPlaying::GetSpeed</text>
</a>
</g>
</g>
<!-- Node1&#45;&gt;Node6 -->
<g id="edge5" class="edge">
<title>Node1&#45;&gt;Node6</title>
<path fill="none" stroke="#63b8ff" d="M572.64,-46.5C563.96,-46.5 555.32,-46.5 547.1,-46.5"/>
<polygon fill="#63b8ff" stroke="#63b8ff" points="572.83,-50 582.83,-46.5 572.83,-43 572.83,-50"/>
</g>
<!-- Node10 -->
<g id="node10" class="node">
<title>Node10</title>
<g id="a_node10"><a xlink:href="../../d2/dc5/TestTCargoShip_8cpp.html#af3f3f6d3bd99aa5ddf5093aed53166cc" target="_top" xlink:title=" ">
<polygon fill="white" stroke="#666666" points="511.5,-19 470.5,-19 470.5,0 511.5,0 511.5,-19"/>
<text text-anchor="middle" x="491" y="-7" font-family="Helvetica,sans-Serif" font-size="10.00">TEST</text>
</a>
</g>
</g>
<!-- Node1&#45;&gt;Node10 -->
<g id="edge9" class="edge">
<title>Node1&#45;&gt;Node10</title>
<path fill="none" stroke="#63b8ff" d="M605.84,-34.72C573.72,-27.61 534.68,-18.96 511.66,-13.86"/>
<polygon fill="#63b8ff" stroke="#63b8ff" points="605.47,-38.23 615.99,-36.97 606.99,-31.39 605.47,-38.23"/>
</g>
<!-- Node3 -->
<g id="node3" class="node">
<title>Node3</title>
<g id="a_node3"><a xlink:href="../../dc/de8/classTShop.html#a1dcf7617180c288121288af2ed21909b" target="_top" xlink:title=" ">
<polygon fill="white" stroke="#666666" points="392,-130 288,-130 288,-111 392,-111 392,-130"/>
<text text-anchor="middle" x="340" y="-118" font-family="Helvetica,sans-Serif" font-size="10.00">TShop::MainMenu</text>
</a>
</g>
</g>
<!-- Node2&#45;&gt;Node3 -->
<g id="edge2" class="edge">
<title>Node2&#45;&gt;Node3</title>
<path fill="none" stroke="#63b8ff" d="M441.7,-95.49C421.55,-100.5 398.48,-106.23 379.5,-110.94"/>
<polygon fill="#63b8ff" stroke="#63b8ff" points="442.77,-98.84 451.63,-93.03 441.08,-92.04 442.77,-98.84"/>
</g>
<!-- Node5 -->
<g id="node5" class="node">
<title>Node5</title>
<g id="a_node5"><a xlink:href="../../d6/de3/TestTShop_8cpp.html#a0b24fc99887a7f67ed7c6900b81c2bf8" target="_top" xlink:title=" ">
<polygon fill="white" stroke="#666666" points="360.5,-93 319.5,-93 319.5,-74 360.5,-74 360.5,-93"/>
<text text-anchor="middle" x="340" y="-81" font-family="Helvetica,sans-Serif" font-size="10.00">TEST</text>
</a>
</g>
</g>
<!-- Node2&#45;&gt;Node5 -->
<g id="edge4" class="edge">
<title>Node2&#45;&gt;Node5</title>
<path fill="none" stroke="#63b8ff" d="M426.18,-83.5C402.51,-83.5 377.38,-83.5 360.59,-83.5"/>
<polygon fill="#63b8ff" stroke="#63b8ff" points="426.21,-87 436.21,-83.5 426.21,-80 426.21,-87"/>
</g>
<!-- Node4 -->
<g id="node4" class="node">
<title>Node4</title>
<g id="a_node4"><a xlink:href="../../dc/de8/classTShop.html#a789d5e786476555b588aece81642f6f9" target="_top" xlink:title=" ">
<polygon fill="white" stroke="#666666" points="222,-130 145,-130 145,-111 222,-111 222,-130"/>
<text text-anchor="middle" x="183.5" y="-118" font-family="Helvetica,sans-Serif" font-size="10.00">TShop::Shop</text>
</a>
</g>
</g>
<!-- Node3&#45;&gt;Node4 -->
<g id="edge3" class="edge">
<title>Node3&#45;&gt;Node4</title>
<path fill="none" stroke="#63b8ff" d="M277.74,-120.5C258.99,-120.5 238.94,-120.5 222.25,-120.5"/>
<polygon fill="#63b8ff" stroke="#63b8ff" points="277.98,-124 287.98,-120.5 277.98,-117 277.98,-124"/>
</g>
<!-- Node7 -->
<g id="node7" class="node">
<title>Node7</title>
<g id="a_node7"><a xlink:href="../../db/dab/classTPlaying.html#ae0d73d17b32678662ea5894822f4913a" target="_top" xlink:title=" ">
<polygon fill="white" stroke="#666666" points="399,-56 281,-56 281,-37 399,-37 399,-56"/>
<text text-anchor="middle" x="340" y="-44" font-family="Helvetica,sans-Serif" font-size="10.00">TPlaying::MoveShips</text>
</a>
</g>
</g>
<!-- Node6&#45;&gt;Node7 -->
<g id="edge6" class="edge">
<title>Node6&#45;&gt;Node7</title>
<path fill="none" stroke="#63b8ff" d="M424.66,-46.5C416.15,-46.5 407.47,-46.5 399.08,-46.5"/>
<polygon fill="#63b8ff" stroke="#63b8ff" points="424.94,-50 434.94,-46.5 424.94,-43 424.94,-50"/>
</g>
<!-- Node8 -->
<g id="node8" class="node">
<title>Node8</title>
<g id="a_node8"><a xlink:href="../../db/dab/classTPlaying.html#a8599ce61fd2748b737b054b0a5c62647" target="_top" xlink:title=" ">
<polygon fill="white" stroke="#666666" points="245,-56 122,-56 122,-37 245,-37 245,-56"/>
<text text-anchor="middle" x="183.5" y="-44" font-family="Helvetica,sans-Serif" font-size="10.00">TPlaying::MakeMoves</text>
</a>
</g>
</g>
<!-- Node7&#45;&gt;Node8 -->
<g id="edge7" class="edge">
<title>Node7&#45;&gt;Node8</title>
<path fill="none" stroke="#63b8ff" d="M270.39,-46.5C261.94,-46.5 253.36,-46.5 245.05,-46.5"/>
<polygon fill="#63b8ff" stroke="#63b8ff" points="270.59,-50 280.59,-46.5 270.59,-43 270.59,-50"/>
</g>
<!-- Node9 -->
<g id="node9" class="node">
<title>Node9</title>
<g id="a_node9"><a xlink:href="../../db/dab/classTPlaying.html#a55b9a1e2159468036c18440cd361c749" target="_top" xlink:title=" ">
<polygon fill="white" stroke="#666666" points="86,-56 0,-56 0,-37 86,-37 86,-56"/>
<text text-anchor="middle" x="43" y="-44" font-family="Helvetica,sans-Serif" font-size="10.00">TPlaying::Play</text>
</a>
</g>
</g>
<!-- Node8&#45;&gt;Node9 -->
<g id="edge8" class="edge">
<title>Node8&#45;&gt;Node9</title>
<path fill="none" stroke="#63b8ff" d="M111.52,-46.5C102.79,-46.5 94.1,-46.5 86,-46.5"/>
<polygon fill="#63b8ff" stroke="#63b8ff" points="111.75,-50 121.75,-46.5 111.75,-43 111.75,-50"/>
</g>
</g>
</svg>
