<?xml version="1.0" encoding="UTF-8" standalone="no"?>
<!DOCTYPE svg PUBLIC "-//W3C//DTD SVG 1.1//EN"
 "http://www.w3.org/Graphics/SVG/1.1/DTD/svg11.dtd">
<!-- Generated by graphviz version 2.43.0 (0)
 -->
<!-- Title: TCargoShip::GetWeightNow Pages: 1 -->
<svg width="756pt" height="179pt"
 viewBox="0.00 0.00 756.00 179.00" xmlns="http://www.w3.org/2000/svg" xmlns:xlink="http://www.w3.org/1999/xlink">
<g id="graph0" class="graph" transform="scale(1 1) rotate(0) translate(4 175)">
<title>TCargoShip::GetWeightNow</title>
<!-- Node1 -->
<g id="node1" class="node">
<title>Node1</title>
<g id="a_node1"><a xlink:title=" ">
<polygon fill="#999999" stroke="#666666" points="748,-95 598,-95 598,-76 748,-76 748,-95"/>
<text text-anchor="middle" x="673" y="-83" font-family="Helvetica,sans-Serif" font-size="10.00">TCargoShip::GetWeightNow</text>
</a>
</g>
</g>
<!-- Node2 -->
<g id="node2" class="node">
<title>Node2</title>
<g id="a_node2"><a xlink:href="../../dc/de8/classTShop.html#aef476da75c7312f1d68373c4883b20b0" target="_top" xlink:title=" ">
<polygon fill="white" stroke="#666666" points="551,-171 446,-171 446,-152 551,-152 551,-171"/>
<text text-anchor="middle" x="498.5" y="-159" font-family="Helvetica,sans-Serif" font-size="10.00">TShop::AddWeight</text>
</a>
</g>
</g>
<!-- Node1&#45;&gt;Node2 -->
<g id="edge1" class="edge">
<title>Node1&#45;&gt;Node2</title>
<path fill="none" stroke="#63b8ff" d="M643.59,-99.65C621.54,-110.46 590.08,-125.49 562,-137.5 550.24,-142.53 537.05,-147.67 525.83,-151.89"/>
<polygon fill="#63b8ff" stroke="#63b8ff" points="645.3,-102.71 652.73,-95.15 642.21,-96.43 645.3,-102.71"/>
</g>
<!-- Node5 -->
<g id="node5" class="node">
<title>Node5</title>
<g id="a_node5"><a xlink:href="../../d6/de3/TestTShop_8cpp.html#a11b4c02681e228079a3d05ed1a5d3c99" target="_top" xlink:title=" ">
<polygon fill="white" stroke="#666666" points="360.5,-133 319.5,-133 319.5,-114 360.5,-114 360.5,-133"/>
<text text-anchor="middle" x="340" y="-121" font-family="Helvetica,sans-Serif" font-size="10.00">TEST</text>
</a>
</g>
</g>
<!-- Node1&#45;&gt;Node5 -->
<g id="edge11" class="edge">
<title>Node1&#45;&gt;Node5</title>
<path fill="none" stroke="#63b8ff" d="M612.37,-96.75C596.08,-99.57 578.39,-102.38 562,-104.5 487.91,-114.07 399.2,-120.04 360.57,-122.38"/>
<polygon fill="#63b8ff" stroke="#63b8ff" points="613.06,-100.19 622.31,-95.01 611.85,-93.29 613.06,-100.19"/>
</g>
<!-- Node6 -->
<g id="node6" class="node">
<title>Node6</title>
<g id="a_node6"><a xlink:href="../../db/dab/classTPlaying.html#aef014ab7b215fa8b936719318fcfd1a2" target="_top" xlink:title=" ">
<polygon fill="white" stroke="#666666" points="554.5,-95 442.5,-95 442.5,-76 554.5,-76 554.5,-95"/>
<text text-anchor="middle" x="498.5" y="-83" font-family="Helvetica,sans-Serif" font-size="10.00">TPlaying::GetSpeed</text>
</a>
</g>
</g>
<!-- Node1&#45;&gt;Node6 -->
<g id="edge5" class="edge">
<title>Node1&#45;&gt;Node6</title>
<path fill="none" stroke="#63b8ff" d="M587.58,-85.5C576.37,-85.5 565.11,-85.5 554.58,-85.5"/>
<polygon fill="#63b8ff" stroke="#63b8ff" points="587.84,-89 597.84,-85.5 587.84,-82 587.84,-89"/>
</g>
<!-- Node7 -->
<g id="node7" class="node">
<title>Node7</title>
<g id="a_node7"><a xlink:href="../../db/dab/classTPlaying.html#ae0d73d17b32678662ea5894822f4913a" target="_top" xlink:title=" ">
<polygon fill="white" stroke="#666666" points="399,-76 281,-76 281,-57 399,-57 399,-76"/>
<text text-anchor="middle" x="340" y="-64" font-family="Helvetica,sans-Serif" font-size="10.00">TPlaying::MoveShips</text>
</a>
</g>
</g>
<!-- Node1&#45;&gt;Node7 -->
<g id="edge9" class="edge">
<title>Node1&#45;&gt;Node7</title>
<path fill="none" stroke="#63b8ff" d="M617.2,-74.14C599.65,-71.01 580.08,-68.05 562,-66.5 506.95,-61.78 443.91,-62.37 399.28,-63.79"/>
<polygon fill="#63b8ff" stroke="#63b8ff" points="616.8,-77.62 627.27,-75.99 618.07,-70.74 616.8,-77.62"/>
</g>
<!-- Node10 -->
<g id="node10" class="node">
<title>Node10</title>
<g id="a_node10"><a xlink:href="../../dc/de8/classTShop.html#af5388fd8d61bac1887a93d9d52ebe482" target="_top" xlink:title=" ">
<polygon fill="white" stroke="#666666" points="562,-19 435,-19 435,0 562,0 562,-19"/>
<text text-anchor="middle" x="498.5" y="-7" font-family="Helvetica,sans-Serif" font-size="10.00">TShop::RemoveWeight</text>
</a>
</g>
</g>
<!-- Node1&#45;&gt;Node10 -->
<g id="edge10" class="edge">
<title>Node1&#45;&gt;Node10</title>
<path fill="none" stroke="#63b8ff" d="M643.59,-71.35C621.54,-60.54 590.08,-45.51 562,-33.5 550.24,-28.47 537.05,-23.33 525.83,-19.11"/>
<polygon fill="#63b8ff" stroke="#63b8ff" points="642.21,-74.57 652.73,-75.85 645.3,-68.29 642.21,-74.57"/>
</g>
<!-- Node3 -->
<g id="node3" class="node">
<title>Node3</title>
<g id="a_node3"><a xlink:href="../../dc/de8/classTShop.html#a1dcf7617180c288121288af2ed21909b" target="_top" xlink:title=" ">
<polygon fill="white" stroke="#666666" points="392,-171 288,-171 288,-152 392,-152 392,-171"/>
<text text-anchor="middle" x="340" y="-159" font-family="Helvetica,sans-Serif" font-size="10.00">TShop::MainMenu</text>
</a>
</g>
</g>
<!-- Node2&#45;&gt;Node3 -->
<g id="edge2" class="edge">
<title>Node2&#45;&gt;Node3</title>
<path fill="none" stroke="#63b8ff" d="M435.51,-161.5C421.11,-161.5 405.95,-161.5 392.09,-161.5"/>
<polygon fill="#63b8ff" stroke="#63b8ff" points="435.82,-165 445.82,-161.5 435.82,-158 435.82,-165"/>
</g>
<!-- Node2&#45;&gt;Node5 -->
<g id="edge4" class="edge">
<title>Node2&#45;&gt;Node5</title>
<path fill="none" stroke="#63b8ff" d="M448.27,-149.55C418.73,-142.37 382.76,-133.64 360.89,-128.33"/>
<polygon fill="#63b8ff" stroke="#63b8ff" points="447.46,-152.95 458.01,-151.91 449.12,-146.15 447.46,-152.95"/>
</g>
<!-- Node4 -->
<g id="node4" class="node">
<title>Node4</title>
<g id="a_node4"><a xlink:href="../../dc/de8/classTShop.html#a789d5e786476555b588aece81642f6f9" target="_top" xlink:title=" ">
<polygon fill="white" stroke="#666666" points="222,-171 145,-171 145,-152 222,-152 222,-171"/>
<text text-anchor="middle" x="183.5" y="-159" font-family="Helvetica,sans-Serif" font-size="10.00">TShop::Shop</text>
</a>
</g>
</g>
<!-- Node3&#45;&gt;Node4 -->
<g id="edge3" class="edge">
<title>Node3&#45;&gt;Node4</title>
<path fill="none" stroke="#63b8ff" d="M277.74,-161.5C258.99,-161.5 238.94,-161.5 222.25,-161.5"/>
<polygon fill="#63b8ff" stroke="#63b8ff" points="277.98,-165 287.98,-161.5 277.98,-158 277.98,-165"/>
</g>
<!-- Node6&#45;&gt;Node7 -->
<g id="edge6" class="edge">
<title>Node6&#45;&gt;Node7</title>
<path fill="none" stroke="#63b8ff" d="M432.33,-77.59C421.32,-76.25 409.95,-74.87 399.12,-73.56"/>
<polygon fill="#63b8ff" stroke="#63b8ff" points="431.97,-81.07 442.32,-78.8 432.82,-74.12 431.97,-81.07"/>
</g>
<!-- Node8 -->
<g id="node8" class="node">
<title>Node8</title>
<g id="a_node8"><a xlink:href="../../db/dab/classTPlaying.html#a8599ce61fd2748b737b054b0a5c62647" target="_top" xlink:title=" ">
<polygon fill="white" stroke="#666666" points="245,-76 122,-76 122,-57 245,-57 245,-76"/>
<text text-anchor="middle" x="183.5" y="-64" font-family="Helvetica,sans-Serif" font-size="10.00">TPlaying::MakeMoves</text>
</a>
</g>
</g>
<!-- Node7&#45;&gt;Node8 -->
<g id="edge7" class="edge">
<title>Node7&#45;&gt;Node8</title>
<path fill="none" stroke="#63b8ff" d="M270.39,-66.5C261.94,-66.5 253.36,-66.5 245.05,-66.5"/>
<polygon fill="#63b8ff" stroke="#63b8ff" points="270.59,-70 280.59,-66.5 270.59,-63 270.59,-70"/>
</g>
<!-- Node9 -->
<g id="node9" class="node">
<title>Node9</title>
<g id="a_node9"><a xlink:href="../../db/dab/classTPlaying.html#a55b9a1e2159468036c18440cd361c749" target="_top" xlink:title=" ">
<polygon fill="white" stroke="#666666" points="86,-76 0,-76 0,-57 86,-57 86,-76"/>
<text text-anchor="middle" x="43" y="-64" font-family="Helvetica,sans-Serif" font-size="10.00">TPlaying::Play</text>
</a>
</g>
</g>
<!-- Node8&#45;&gt;Node9 -->
<g id="edge8" class="edge">
<title>Node8&#45;&gt;Node9</title>
<path fill="none" stroke="#63b8ff" d="M111.52,-66.5C102.79,-66.5 94.1,-66.5 86,-66.5"/>
<polygon fill="#63b8ff" stroke="#63b8ff" points="111.75,-70 121.75,-66.5 111.75,-63 111.75,-70"/>
</g>
</g>
</svg>
