<?xml version="1.0" encoding="UTF-8" standalone="no"?>
<!DOCTYPE svg PUBLIC "-//W3C//DTD SVG 1.1//EN"
 "http://www.w3.org/Graphics/SVG/1.1/DTD/svg11.dtd">
<!-- Generated by graphviz version 2.43.0 (0)
 -->
<!-- Title: TCargoShip::GetWeightTotal Pages: 1 -->
<svg width="558pt" height="119pt"
 viewBox="0.00 0.00 558.00 119.00" xmlns="http://www.w3.org/2000/svg" xmlns:xlink="http://www.w3.org/1999/xlink">
<g id="graph0" class="graph" transform="scale(1 1) rotate(0) translate(4 115)">
<title>TCargoShip::GetWeightTotal</title>
<!-- Node1 -->
<g id="node1" class="node">
<title>Node1</title>
<g id="a_node1"><a xlink:title=" ">
<polygon fill="#999999" stroke="#666666" points="550,-56 398,-56 398,-37 550,-37 550,-56"/>
<text text-anchor="middle" x="474" y="-44" font-family="Helvetica,sans-Serif" font-size="10.00">TCargoShip::GetWeightTotal</text>
</a>
</g>
</g>
<!-- Node2 -->
<g id="node2" class="node">
<title>Node2</title>
<g id="a_node2"><a xlink:href="../../dc/de8/classTShop.html#aef476da75c7312f1d68373c4883b20b0" target="_top" xlink:title=" ">
<polygon fill="white" stroke="#666666" points="360,-93 255,-93 255,-74 360,-74 360,-93"/>
<text text-anchor="middle" x="307.5" y="-81" font-family="Helvetica,sans-Serif" font-size="10.00">TShop::AddWeight</text>
</a>
</g>
</g>
<!-- Node1&#45;&gt;Node2 -->
<g id="edge1" class="edge">
<title>Node1&#45;&gt;Node2</title>
<path fill="none" stroke="#63b8ff" d="M420.59,-58.29C398.13,-63.34 372.24,-69.16 351,-73.94"/>
<polygon fill="#63b8ff" stroke="#63b8ff" points="421.65,-61.64 430.64,-56.03 420.11,-54.81 421.65,-61.64"/>
</g>
<!-- Node6 -->
<g id="node6" class="node">
<title>Node6</title>
<g id="a_node6"><a xlink:href="../../dc/de8/classTShop.html#aa31244972d1d22e92673e8446ef50f2d" target="_top" xlink:title=" ">
<polygon fill="white" stroke="#666666" points="362,-56 253,-56 253,-37 362,-37 362,-56"/>
<text text-anchor="middle" x="307.5" y="-44" font-family="Helvetica,sans-Serif" font-size="10.00">TShop::AutoWeight</text>
</a>
</g>
</g>
<!-- Node1&#45;&gt;Node6 -->
<g id="edge5" class="edge">
<title>Node1&#45;&gt;Node6</title>
<path fill="none" stroke="#63b8ff" d="M387.79,-46.5C379.12,-46.5 370.49,-46.5 362.29,-46.5"/>
<polygon fill="#63b8ff" stroke="#63b8ff" points="387.97,-50 397.97,-46.5 387.97,-43 387.97,-50"/>
</g>
<!-- Node8 -->
<g id="node8" class="node">
<title>Node8</title>
<g id="a_node8"><a xlink:href="../../d2/dc5/TestTCargoShip_8cpp.html#a5d42e0a1fb3c08a4e29afe73c2901d7c" target="_top" xlink:title=" ">
<polygon fill="white" stroke="#666666" points="328,-19 287,-19 287,0 328,0 328,-19"/>
<text text-anchor="middle" x="307.5" y="-7" font-family="Helvetica,sans-Serif" font-size="10.00">TEST</text>
</a>
</g>
</g>
<!-- Node1&#45;&gt;Node8 -->
<g id="edge8" class="edge">
<title>Node1&#45;&gt;Node8</title>
<path fill="none" stroke="#63b8ff" d="M420.69,-34.74C389.25,-27.66 351.04,-19.07 328.3,-13.95"/>
<polygon fill="#63b8ff" stroke="#63b8ff" points="420.11,-38.19 430.64,-36.97 421.65,-31.36 420.11,-38.19"/>
</g>
<!-- Node3 -->
<g id="node3" class="node">
<title>Node3</title>
<g id="a_node3"><a xlink:href="../../dc/de8/classTShop.html#a1dcf7617180c288121288af2ed21909b" target="_top" xlink:title=" ">
<polygon fill="white" stroke="#666666" points="217,-74 113,-74 113,-55 217,-55 217,-74"/>
<text text-anchor="middle" x="165" y="-62" font-family="Helvetica,sans-Serif" font-size="10.00">TShop::MainMenu</text>
</a>
</g>
</g>
<!-- Node2&#45;&gt;Node3 -->
<g id="edge2" class="edge">
<title>Node2&#45;&gt;Node3</title>
<path fill="none" stroke="#63b8ff" d="M244.97,-75.18C235.65,-73.92 226.11,-72.63 217.04,-71.4"/>
<polygon fill="#63b8ff" stroke="#63b8ff" points="244.6,-78.66 254.98,-76.53 245.54,-71.72 244.6,-78.66"/>
</g>
<!-- Node5 -->
<g id="node5" class="node">
<title>Node5</title>
<g id="a_node5"><a xlink:href="../../d6/de3/TestTShop_8cpp.html#a11b4c02681e228079a3d05ed1a5d3c99" target="_top" xlink:title=" ">
<polygon fill="white" stroke="#666666" points="185.5,-111 144.5,-111 144.5,-92 185.5,-92 185.5,-111"/>
<text text-anchor="middle" x="165" y="-99" font-family="Helvetica,sans-Serif" font-size="10.00">TEST</text>
</a>
</g>
</g>
<!-- Node2&#45;&gt;Node5 -->
<g id="edge4" class="edge">
<title>Node2&#45;&gt;Node5</title>
<path fill="none" stroke="#63b8ff" d="M244.94,-91.39C223.57,-94.12 201.11,-97 185.63,-98.98"/>
<polygon fill="#63b8ff" stroke="#63b8ff" points="245.51,-94.84 254.98,-90.1 244.62,-87.9 245.51,-94.84"/>
</g>
<!-- Node4 -->
<g id="node4" class="node">
<title>Node4</title>
<g id="a_node4"><a xlink:href="../../dc/de8/classTShop.html#a789d5e786476555b588aece81642f6f9" target="_top" xlink:title=" ">
<polygon fill="white" stroke="#666666" points="77,-74 0,-74 0,-55 77,-55 77,-74"/>
<text text-anchor="middle" x="38.5" y="-62" font-family="Helvetica,sans-Serif" font-size="10.00">TShop::Shop</text>
</a>
</g>
</g>
<!-- Node3&#45;&gt;Node4 -->
<g id="edge3" class="edge">
<title>Node3&#45;&gt;Node4</title>
<path fill="none" stroke="#63b8ff" d="M102.49,-64.5C93.8,-64.5 85.1,-64.5 77.05,-64.5"/>
<polygon fill="#63b8ff" stroke="#63b8ff" points="102.64,-68 112.64,-64.5 102.64,-61 102.64,-68"/>
</g>
<!-- Node6&#45;&gt;Node3 -->
<g id="edge6" class="edge">
<title>Node6&#45;&gt;Node3</title>
<path fill="none" stroke="#63b8ff" d="M242.91,-54.65C234.25,-55.76 225.45,-56.88 217.05,-57.96"/>
<polygon fill="#63b8ff" stroke="#63b8ff" points="243.51,-58.1 252.98,-53.36 242.62,-51.16 243.51,-58.1"/>
</g>
<!-- Node7 -->
<g id="node7" class="node">
<title>Node7</title>
<g id="a_node7"><a xlink:href="../../d6/de3/TestTShop_8cpp.html#a0b24fc99887a7f67ed7c6900b81c2bf8" target="_top" xlink:title=" ">
<polygon fill="white" stroke="#666666" points="185.5,-37 144.5,-37 144.5,-18 185.5,-18 185.5,-37"/>
<text text-anchor="middle" x="165" y="-25" font-family="Helvetica,sans-Serif" font-size="10.00">TEST</text>
</a>
</g>
</g>
<!-- Node6&#45;&gt;Node7 -->
<g id="edge7" class="edge">
<title>Node6&#45;&gt;Node7</title>
<path fill="none" stroke="#63b8ff" d="M242.91,-37.9C222.2,-35.1 200.71,-32.19 185.73,-30.17"/>
<polygon fill="#63b8ff" stroke="#63b8ff" points="242.6,-41.39 252.98,-39.26 243.54,-34.45 242.6,-41.39"/>
</g>
</g>
</svg>
