<?xml version="1.0" encoding="UTF-8" standalone="no"?>
<!DOCTYPE svg PUBLIC "-//W3C//DTD SVG 1.1//EN"
 "http://www.w3.org/Graphics/SVG/1.1/DTD/svg11.dtd">
<!-- Generated by graphviz version 2.43.0 (0)
 -->
<!-- Title: TCargoShip::SetWeightNow Pages: 1 -->
<svg width="736pt" height="138pt"
 viewBox="0.00 0.00 736.00 138.00" xmlns="http://www.w3.org/2000/svg" xmlns:xlink="http://www.w3.org/1999/xlink">
<g id="graph0" class="graph" transform="scale(1 1) rotate(0) translate(4 134)">
<title>TCargoShip::SetWeightNow</title>
<!-- Node1 -->
<g id="node1" class="node">
<title>Node1</title>
<g id="a_node1"><a xlink:title=" ">
<polygon fill="#999999" stroke="#666666" points="728,-74 579,-74 579,-55 728,-55 728,-74"/>
<text text-anchor="middle" x="653.5" y="-62" font-family="Helvetica,sans-Serif" font-size="10.00">TCargoShip::SetWeightNow</text>
</a>
</g>
</g>
<!-- Node2 -->
<g id="node2" class="node">
<title>Node2</title>
<g id="a_node2"><a xlink:href="../../dc/de8/classTShop.html#aef476da75c7312f1d68373c4883b20b0" target="_top" xlink:title=" ">
<polygon fill="white" stroke="#666666" points="523,-130 418,-130 418,-111 523,-111 523,-130"/>
<text text-anchor="middle" x="470.5" y="-118" font-family="Helvetica,sans-Serif" font-size="10.00">TShop::AddWeight</text>
</a>
</g>
</g>
<!-- Node1&#45;&gt;Node2 -->
<g id="edge1" class="edge">
<title>Node1&#45;&gt;Node2</title>
<path fill="none" stroke="#63b8ff" d="M617.42,-77.55C596.06,-85.28 568.13,-94.99 543,-102.5 533.07,-105.47 522.26,-108.36 512.13,-110.93"/>
<polygon fill="#63b8ff" stroke="#63b8ff" points="618.84,-80.76 627.04,-74.04 616.45,-74.18 618.84,-80.76"/>
</g>
<!-- Node6 -->
<g id="node6" class="node">
<title>Node6</title>
<g id="a_node6"><a xlink:href="../../dc/de8/classTShop.html#af5388fd8d61bac1887a93d9d52ebe482" target="_top" xlink:title=" ">
<polygon fill="white" stroke="#666666" points="534,-93 407,-93 407,-74 534,-74 534,-93"/>
<text text-anchor="middle" x="470.5" y="-81" font-family="Helvetica,sans-Serif" font-size="10.00">TShop::RemoveWeight</text>
</a>
</g>
</g>
<!-- Node1&#45;&gt;Node6 -->
<g id="edge5" class="edge">
<title>Node1&#45;&gt;Node6</title>
<path fill="none" stroke="#63b8ff" d="M568.69,-73.3C557.03,-74.52 545.22,-75.76 534.04,-76.93"/>
<polygon fill="#63b8ff" stroke="#63b8ff" points="569.3,-76.75 578.88,-72.23 568.57,-69.79 569.3,-76.75"/>
</g>
<!-- Node7 -->
<g id="node7" class="node">
<title>Node7</title>
<g id="a_node7"><a xlink:href="../../dc/de8/classTShop.html#ae77eb41b055433f33b63810b32dfb88c" target="_top" xlink:title=" ">
<polygon fill="white" stroke="#666666" points="543,-56 398,-56 398,-37 543,-37 543,-56"/>
<text text-anchor="middle" x="470.5" y="-44" font-family="Helvetica,sans-Serif" font-size="10.00">TShop::SetWeightBySpeed</text>
</a>
</g>
</g>
<!-- Node1&#45;&gt;Node7 -->
<g id="edge6" class="edge">
<title>Node1&#45;&gt;Node7</title>
<path fill="none" stroke="#63b8ff" d="M568.81,-56.18C560.19,-55.32 551.48,-54.45 543,-53.61"/>
<polygon fill="#63b8ff" stroke="#63b8ff" points="568.58,-59.67 578.88,-57.18 569.28,-52.71 568.58,-59.67"/>
</g>
<!-- Node10 -->
<g id="node10" class="node">
<title>Node10</title>
<g id="a_node10"><a xlink:href="../../d2/dc5/TestTCargoShip_8cpp.html#a49c12f9abddbb0d78bc15384cbb0cd39" target="_top" xlink:title=" ">
<polygon fill="white" stroke="#666666" points="491,-19 450,-19 450,0 491,0 491,-19"/>
<text text-anchor="middle" x="470.5" y="-7" font-family="Helvetica,sans-Serif" font-size="10.00">TEST</text>
</a>
</g>
</g>
<!-- Node1&#45;&gt;Node10 -->
<g id="edge10" class="edge">
<title>Node1&#45;&gt;Node10</title>
<path fill="none" stroke="#63b8ff" d="M616.54,-51.55C595.28,-44.09 567.76,-34.79 543,-27.5 525.56,-22.37 505.47,-17.39 491.03,-13.98"/>
<polygon fill="#63b8ff" stroke="#63b8ff" points="615.54,-54.91 626.13,-54.94 617.87,-48.31 615.54,-54.91"/>
</g>
<!-- Node3 -->
<g id="node3" class="node">
<title>Node3</title>
<g id="a_node3"><a xlink:href="../../dc/de8/classTShop.html#a1dcf7617180c288121288af2ed21909b" target="_top" xlink:title=" ">
<polygon fill="white" stroke="#666666" points="217,-112 113,-112 113,-93 217,-93 217,-112"/>
<text text-anchor="middle" x="165" y="-100" font-family="Helvetica,sans-Serif" font-size="10.00">TShop::MainMenu</text>
</a>
</g>
</g>
<!-- Node2&#45;&gt;Node3 -->
<g id="edge2" class="edge">
<title>Node2&#45;&gt;Node3</title>
<path fill="none" stroke="#63b8ff" d="M407.5,-116.82C351.34,-113.49 269.6,-108.64 217.11,-105.53"/>
<polygon fill="#63b8ff" stroke="#63b8ff" points="407.48,-120.33 417.67,-117.43 407.9,-113.34 407.48,-120.33"/>
</g>
<!-- Node5 -->
<g id="node5" class="node">
<title>Node5</title>
<g id="a_node5"><a xlink:href="../../d6/de3/TestTShop_8cpp.html#a11b4c02681e228079a3d05ed1a5d3c99" target="_top" xlink:title=" ">
<polygon fill="white" stroke="#666666" points="328,-93 287,-93 287,-74 328,-74 328,-93"/>
<text text-anchor="middle" x="307.5" y="-81" font-family="Helvetica,sans-Serif" font-size="10.00">TEST</text>
</a>
</g>
</g>
<!-- Node2&#45;&gt;Node5 -->
<g id="edge4" class="edge">
<title>Node2&#45;&gt;Node5</title>
<path fill="none" stroke="#63b8ff" d="M417.97,-108.66C387.45,-101.64 350.53,-93.16 328.31,-88.05"/>
<polygon fill="#63b8ff" stroke="#63b8ff" points="417.51,-112.14 428.04,-110.97 419.08,-105.32 417.51,-112.14"/>
</g>
<!-- Node4 -->
<g id="node4" class="node">
<title>Node4</title>
<g id="a_node4"><a xlink:href="../../dc/de8/classTShop.html#a789d5e786476555b588aece81642f6f9" target="_top" xlink:title=" ">
<polygon fill="white" stroke="#666666" points="77,-112 0,-112 0,-93 77,-93 77,-112"/>
<text text-anchor="middle" x="38.5" y="-100" font-family="Helvetica,sans-Serif" font-size="10.00">TShop::Shop</text>
</a>
</g>
</g>
<!-- Node3&#45;&gt;Node4 -->
<g id="edge3" class="edge">
<title>Node3&#45;&gt;Node4</title>
<path fill="none" stroke="#63b8ff" d="M102.49,-102.5C93.8,-102.5 85.1,-102.5 77.05,-102.5"/>
<polygon fill="#63b8ff" stroke="#63b8ff" points="102.64,-106 112.64,-102.5 102.64,-99 102.64,-106"/>
</g>
<!-- Node8 -->
<g id="node8" class="node">
<title>Node8</title>
<g id="a_node8"><a xlink:href="../../dc/de8/classTShop.html#aa31244972d1d22e92673e8446ef50f2d" target="_top" xlink:title=" ">
<polygon fill="white" stroke="#666666" points="362,-56 253,-56 253,-37 362,-37 362,-56"/>
<text text-anchor="middle" x="307.5" y="-44" font-family="Helvetica,sans-Serif" font-size="10.00">TShop::AutoWeight</text>
</a>
</g>
</g>
<!-- Node7&#45;&gt;Node8 -->
<g id="edge7" class="edge">
<title>Node7&#45;&gt;Node8</title>
<path fill="none" stroke="#63b8ff" d="M387.84,-46.5C379.23,-46.5 370.63,-46.5 362.44,-46.5"/>
<polygon fill="#63b8ff" stroke="#63b8ff" points="387.95,-50 397.95,-46.5 387.95,-43 387.95,-50"/>
</g>
<!-- Node8&#45;&gt;Node3 -->
<g id="edge8" class="edge">
<title>Node8&#45;&gt;Node3</title>
<path fill="none" stroke="#63b8ff" d="M267,-59.36C262.26,-61.03 257.51,-62.76 253,-64.5 229.93,-73.4 204.03,-84.92 186.53,-92.93"/>
<polygon fill="#63b8ff" stroke="#63b8ff" points="268.31,-62.61 276.62,-56.04 266.03,-55.99 268.31,-62.61"/>
</g>
<!-- Node9 -->
<g id="node9" class="node">
<title>Node9</title>
<g id="a_node9"><a xlink:href="../../d6/de3/TestTShop_8cpp.html#a0b24fc99887a7f67ed7c6900b81c2bf8" target="_top" xlink:title=" ">
<polygon fill="white" stroke="#666666" points="185.5,-56 144.5,-56 144.5,-37 185.5,-37 185.5,-56"/>
<text text-anchor="middle" x="165" y="-44" font-family="Helvetica,sans-Serif" font-size="10.00">TEST</text>
</a>
</g>
</g>
<!-- Node8&#45;&gt;Node9 -->
<g id="edge9" class="edge">
<title>Node8&#45;&gt;Node9</title>
<path fill="none" stroke="#63b8ff" d="M242.91,-46.5C222.2,-46.5 200.71,-46.5 185.73,-46.5"/>
<polygon fill="#63b8ff" stroke="#63b8ff" points="242.98,-50 252.98,-46.5 242.98,-43 242.98,-50"/>
</g>
</g>
</svg>
