<?xml version="1.0" encoding="UTF-8" standalone="no"?>
<!DOCTYPE svg PUBLIC "-//W3C//DTD SVG 1.1//EN"
 "http://www.w3.org/Graphics/SVG/1.1/DTD/svg11.dtd">
<!-- Generated by graphviz version 2.43.0 (0)
 -->
<!-- Title: TCargoShip::WeightMaxBySpeed Pages: 1 -->
<svg width="762pt" height="101pt"
 viewBox="0.00 0.00 762.00 101.00" xmlns="http://www.w3.org/2000/svg" xmlns:xlink="http://www.w3.org/1999/xlink">
<g id="graph0" class="graph" transform="scale(1 1) rotate(0) translate(4 97)">
<title>TCargoShip::WeightMaxBySpeed</title>
<!-- Node1 -->
<g id="node1" class="node">
<title>Node1</title>
<g id="a_node1"><a xlink:title=" ">
<polygon fill="#999999" stroke="#666666" points="754,-56 579,-56 579,-37 754,-37 754,-56"/>
<text text-anchor="middle" x="666.5" y="-44" font-family="Helvetica,sans-Serif" font-size="10.00">TCargoShip::WeightMaxBySpeed</text>
</a>
</g>
</g>
<!-- Node2 -->
<g id="node2" class="node">
<title>Node2</title>
<g id="a_node2"><a xlink:href="../../dc/de8/classTShop.html#abe63a0587be037f14a2e04e62fd1fc60" target="_top" xlink:title=" ">
<polygon fill="white" stroke="#666666" points="536,-93 405,-93 405,-74 536,-74 536,-93"/>
<text text-anchor="middle" x="470.5" y="-81" font-family="Helvetica,sans-Serif" font-size="10.00">TShop::IsSpeedPossible</text>
</a>
</g>
</g>
<!-- Node1&#45;&gt;Node2 -->
<g id="edge1" class="edge">
<title>Node1&#45;&gt;Node2</title>
<path fill="none" stroke="#63b8ff" d="M605.47,-57.95C578.58,-63.08 547.24,-69.06 521.63,-73.94"/>
<polygon fill="#63b8ff" stroke="#63b8ff" points="606.37,-61.34 615.54,-56.03 605.06,-54.46 606.37,-61.34"/>
</g>
<!-- Node7 -->
<g id="node7" class="node">
<title>Node7</title>
<g id="a_node7"><a xlink:href="../../dc/de8/classTShop.html#ae77eb41b055433f33b63810b32dfb88c" target="_top" xlink:title=" ">
<polygon fill="white" stroke="#666666" points="543,-56 398,-56 398,-37 543,-37 543,-56"/>
<text text-anchor="middle" x="470.5" y="-44" font-family="Helvetica,sans-Serif" font-size="10.00">TShop::SetWeightBySpeed</text>
</a>
</g>
</g>
<!-- Node1&#45;&gt;Node7 -->
<g id="edge6" class="edge">
<title>Node1&#45;&gt;Node7</title>
<path fill="none" stroke="#63b8ff" d="M568.82,-46.5C560.13,-46.5 551.44,-46.5 543.02,-46.5"/>
<polygon fill="#63b8ff" stroke="#63b8ff" points="569,-50 579,-46.5 569,-43 569,-50"/>
</g>
<!-- Node8 -->
<g id="node8" class="node">
<title>Node8</title>
<g id="a_node8"><a xlink:href="../../d2/dc5/TestTCargoShip_8cpp.html#a29c6bbc5a7493f57465063fb400f5609" target="_top" xlink:title=" ">
<polygon fill="white" stroke="#666666" points="491,-19 450,-19 450,0 491,0 491,-19"/>
<text text-anchor="middle" x="470.5" y="-7" font-family="Helvetica,sans-Serif" font-size="10.00">TEST</text>
</a>
</g>
</g>
<!-- Node1&#45;&gt;Node8 -->
<g id="edge8" class="edge">
<title>Node1&#45;&gt;Node8</title>
<path fill="none" stroke="#63b8ff" d="M605.33,-35.02C566.31,-27.58 517.96,-18.36 491.36,-13.29"/>
<polygon fill="#63b8ff" stroke="#63b8ff" points="605.06,-38.54 615.54,-36.97 606.37,-31.66 605.06,-38.54"/>
</g>
<!-- Node3 -->
<g id="node3" class="node">
<title>Node3</title>
<g id="a_node3"><a xlink:href="../../dc/de8/classTShop.html#aa31244972d1d22e92673e8446ef50f2d" target="_top" xlink:title=" ">
<polygon fill="white" stroke="#666666" points="362,-74 253,-74 253,-55 362,-55 362,-74"/>
<text text-anchor="middle" x="307.5" y="-62" font-family="Helvetica,sans-Serif" font-size="10.00">TShop::AutoWeight</text>
</a>
</g>
</g>
<!-- Node2&#45;&gt;Node3 -->
<g id="edge2" class="edge">
<title>Node2&#45;&gt;Node3</title>
<path fill="none" stroke="#63b8ff" d="M394.89,-74.69C383.87,-73.39 372.7,-72.08 362.22,-70.84"/>
<polygon fill="#63b8ff" stroke="#63b8ff" points="394.6,-78.19 404.94,-75.88 395.42,-71.23 394.6,-78.19"/>
</g>
<!-- Node4 -->
<g id="node4" class="node">
<title>Node4</title>
<g id="a_node4"><a xlink:href="../../dc/de8/classTShop.html#a1dcf7617180c288121288af2ed21909b" target="_top" xlink:title=" ">
<polygon fill="white" stroke="#666666" points="217,-93 113,-93 113,-74 217,-74 217,-93"/>
<text text-anchor="middle" x="165" y="-81" font-family="Helvetica,sans-Serif" font-size="10.00">TShop::MainMenu</text>
</a>
</g>
</g>
<!-- Node3&#45;&gt;Node4 -->
<g id="edge3" class="edge">
<title>Node3&#45;&gt;Node4</title>
<path fill="none" stroke="#63b8ff" d="M242.91,-73.1C234.25,-74.27 225.45,-75.46 217.05,-76.6"/>
<polygon fill="#63b8ff" stroke="#63b8ff" points="243.54,-76.55 252.98,-71.74 242.6,-69.61 243.54,-76.55"/>
</g>
<!-- Node6 -->
<g id="node6" class="node">
<title>Node6</title>
<g id="a_node6"><a xlink:href="../../d6/de3/TestTShop_8cpp.html#a0b24fc99887a7f67ed7c6900b81c2bf8" target="_top" xlink:title=" ">
<polygon fill="white" stroke="#666666" points="185.5,-56 144.5,-56 144.5,-37 185.5,-37 185.5,-56"/>
<text text-anchor="middle" x="165" y="-44" font-family="Helvetica,sans-Serif" font-size="10.00">TEST</text>
</a>
</g>
</g>
<!-- Node3&#45;&gt;Node6 -->
<g id="edge5" class="edge">
<title>Node3&#45;&gt;Node6</title>
<path fill="none" stroke="#63b8ff" d="M242.91,-56.35C222.2,-53.7 200.71,-50.95 185.73,-49.03"/>
<polygon fill="#63b8ff" stroke="#63b8ff" points="242.62,-59.84 252.98,-57.64 243.51,-52.9 242.62,-59.84"/>
</g>
<!-- Node5 -->
<g id="node5" class="node">
<title>Node5</title>
<g id="a_node5"><a xlink:href="../../dc/de8/classTShop.html#a789d5e786476555b588aece81642f6f9" target="_top" xlink:title=" ">
<polygon fill="white" stroke="#666666" points="77,-93 0,-93 0,-74 77,-74 77,-93"/>
<text text-anchor="middle" x="38.5" y="-81" font-family="Helvetica,sans-Serif" font-size="10.00">TShop::Shop</text>
</a>
</g>
</g>
<!-- Node4&#45;&gt;Node5 -->
<g id="edge4" class="edge">
<title>Node4&#45;&gt;Node5</title>
<path fill="none" stroke="#63b8ff" d="M102.49,-83.5C93.8,-83.5 85.1,-83.5 77.05,-83.5"/>
<polygon fill="#63b8ff" stroke="#63b8ff" points="102.64,-87 112.64,-83.5 102.64,-80 102.64,-87"/>
</g>
<!-- Node7&#45;&gt;Node3 -->
<g id="edge7" class="edge">
<title>Node7&#45;&gt;Node3</title>
<path fill="none" stroke="#63b8ff" d="M387.84,-55.63C379.23,-56.59 370.63,-57.55 362.44,-58.47"/>
<polygon fill="#63b8ff" stroke="#63b8ff" points="388.4,-59.09 397.95,-54.5 387.62,-52.13 388.4,-59.09"/>
</g>
</g>
</svg>
