<?xml version="1.0" encoding="UTF-8" standalone="no"?>
<!DOCTYPE svg PUBLIC "-//W3C//DTD SVG 1.1//EN"
 "http://www.w3.org/Graphics/SVG/1.1/DTD/svg11.dtd">
<!-- Generated by graphviz version 2.43.0 (0)
 -->
<!-- Title: TShip::GetShipName Pages: 1 -->
<svg width="726pt" height="64pt"
 viewBox="0.00 0.00 726.00 64.00" xmlns="http://www.w3.org/2000/svg" xmlns:xlink="http://www.w3.org/1999/xlink">
<g id="graph0" class="graph" transform="scale(1 1) rotate(0) translate(4 60)">
<title>TShip::GetShipName</title>
<!-- Node1 -->
<g id="node1" class="node">
<title>Node1</title>
<g id="a_node1"><a xlink:title=" ">
<polygon fill="#999999" stroke="#666666" points="718,-37 601,-37 601,-18 718,-18 718,-37"/>
<text text-anchor="middle" x="659.5" y="-25" font-family="Helvetica,sans-Serif" font-size="10.00">TShip::GetShipName</text>
</a>
</g>
</g>
<!-- Node2 -->
<g id="node2" class="node">
<title>Node2</title>
<g id="a_node2"><a xlink:href="../../db/dab/classTPlaying.html#a805bbfe7a1288c545be6910b31b170c5" target="_top" xlink:title=" ">
<polygon fill="white" stroke="#666666" points="565,-56 435,-56 435,-37 565,-37 565,-56"/>
<text text-anchor="middle" x="500" y="-44" font-family="Helvetica,sans-Serif" font-size="10.00">TPlaying::DrawWarShip</text>
</a>
</g>
</g>
<!-- Node1&#45;&gt;Node2 -->
<g id="edge1" class="edge">
<title>Node1&#45;&gt;Node2</title>
<path fill="none" stroke="#63b8ff" d="M590.56,-35.7C582.12,-36.71 573.51,-37.75 565.13,-38.76"/>
<polygon fill="#63b8ff" stroke="#63b8ff" points="591.24,-39.14 600.75,-34.47 590.4,-32.19 591.24,-39.14"/>
</g>
<!-- Node6 -->
<g id="node6" class="node">
<title>Node6</title>
<g id="a_node6"><a xlink:href="../../d2/dc5/TestTCargoShip_8cpp.html#a5d42e0a1fb3c08a4e29afe73c2901d7c" target="_top" xlink:title=" ">
<polygon fill="white" stroke="#666666" points="520.5,-19 479.5,-19 479.5,0 520.5,0 520.5,-19"/>
<text text-anchor="middle" x="500" y="-7" font-family="Helvetica,sans-Serif" font-size="10.00">TEST</text>
</a>
</g>
</g>
<!-- Node1&#45;&gt;Node6 -->
<g id="edge5" class="edge">
<title>Node1&#45;&gt;Node6</title>
<path fill="none" stroke="#63b8ff" d="M590.74,-19.76C565.33,-16.85 538.37,-13.77 520.71,-11.75"/>
<polygon fill="#63b8ff" stroke="#63b8ff" points="590.41,-23.24 600.75,-20.9 591.21,-16.29 590.41,-23.24"/>
</g>
<!-- Node3 -->
<g id="node3" class="node">
<title>Node3</title>
<g id="a_node3"><a xlink:href="../../db/dab/classTPlaying.html#a4cb98dff7d9a323fd893863f26b9c87d" target="_top" xlink:title=" ">
<polygon fill="white" stroke="#666666" points="399,-56 295,-56 295,-37 399,-37 399,-56"/>
<text text-anchor="middle" x="347" y="-44" font-family="Helvetica,sans-Serif" font-size="10.00">TPlaying::FillPoint</text>
</a>
</g>
</g>
<!-- Node2&#45;&gt;Node3 -->
<g id="edge2" class="edge">
<title>Node2&#45;&gt;Node3</title>
<path fill="none" stroke="#63b8ff" d="M424.86,-46.5C416.22,-46.5 407.56,-46.5 399.33,-46.5"/>
<polygon fill="#63b8ff" stroke="#63b8ff" points="424.96,-50 434.96,-46.5 424.96,-43 424.96,-50"/>
</g>
<!-- Node4 -->
<g id="node4" class="node">
<title>Node4</title>
<g id="a_node4"><a xlink:href="../../db/dab/classTPlaying.html#a42f315c7d636f9ed24fe716a591c8d5e" target="_top" xlink:title=" ">
<polygon fill="white" stroke="#666666" points="259,-56 122,-56 122,-37 259,-37 259,-56"/>
<text text-anchor="middle" x="190.5" y="-44" font-family="Helvetica,sans-Serif" font-size="10.00">TPlaying::ShowOnScreen</text>
</a>
</g>
</g>
<!-- Node3&#45;&gt;Node4 -->
<g id="edge3" class="edge">
<title>Node3&#45;&gt;Node4</title>
<path fill="none" stroke="#63b8ff" d="M284.88,-46.5C276.47,-46.5 267.8,-46.5 259.27,-46.5"/>
<polygon fill="#63b8ff" stroke="#63b8ff" points="284.98,-50 294.98,-46.5 284.98,-43 284.98,-50"/>
</g>
<!-- Node5 -->
<g id="node5" class="node">
<title>Node5</title>
<g id="a_node5"><a xlink:href="../../db/dab/classTPlaying.html#a55b9a1e2159468036c18440cd361c749" target="_top" xlink:title=" ">
<polygon fill="white" stroke="#666666" points="86,-56 0,-56 0,-37 86,-37 86,-56"/>
<text text-anchor="middle" x="43" y="-44" font-family="Helvetica,sans-Serif" font-size="10.00">TPlaying::Play</text>
</a>
</g>
</g>
<!-- Node4&#45;&gt;Node5 -->
<g id="edge4" class="edge">
<title>Node4&#45;&gt;Node5</title>
<path fill="none" stroke="#63b8ff" d="M111.58,-46.5C102.83,-46.5 94.18,-46.5 86.15,-46.5"/>
<polygon fill="#63b8ff" stroke="#63b8ff" points="111.86,-50 121.86,-46.5 111.86,-43 111.86,-50"/>
</g>
</g>
</svg>
