<?xml version="1.0" encoding="UTF-8" standalone="no"?>
<!DOCTYPE svg PUBLIC "-//W3C//DTD SVG 1.1//EN"
 "http://www.w3.org/Graphics/SVG/1.1/DTD/svg11.dtd">
<!-- Generated by graphviz version 2.43.0 (0)
 -->
<!-- Title: TShip::Clone Pages: 1 -->
<svg width="466pt" height="82pt"
 viewBox="0.00 0.00 466.00 82.00" xmlns="http://www.w3.org/2000/svg" xmlns:xlink="http://www.w3.org/1999/xlink">
<g id="graph0" class="graph" transform="scale(1 1) rotate(0) translate(4 78)">
<title>TShip::Clone</title>
<!-- Node1 -->
<g id="node1" class="node">
<title>Node1</title>
<g id="a_node1"><a xlink:title=" ">
<polygon fill="#999999" stroke="#666666" points="458,-37 381,-37 381,-18 458,-18 458,-37"/>
<text text-anchor="middle" x="419.5" y="-25" font-family="Helvetica,sans-Serif" font-size="10.00">TShip::Clone</text>
</a>
</g>
</g>
<!-- Node2 -->
<g id="node2" class="node">
<title>Node2</title>
<g id="a_node2"><a xlink:href="../../dc/de8/classTShop.html#aecceb42ffe39e9e0e9f1e152fa0c258d" target="_top" xlink:title=" ">
<polygon fill="white" stroke="#666666" points="345,-56 253,-56 253,-37 345,-37 345,-56"/>
<text text-anchor="middle" x="299" y="-44" font-family="Helvetica,sans-Serif" font-size="10.00">TShop::BuyShip</text>
</a>
</g>
</g>
<!-- Node1&#45;&gt;Node2 -->
<g id="edge1" class="edge">
<title>Node1&#45;&gt;Node2</title>
<path fill="none" stroke="#63b8ff" d="M370.68,-35.17C362.31,-36.51 353.63,-37.9 345.33,-39.23"/>
<polygon fill="#63b8ff" stroke="#63b8ff" points="371.36,-38.6 380.68,-33.56 370.25,-31.69 371.36,-38.6"/>
</g>
<!-- Node6 -->
<g id="node6" class="node">
<title>Node6</title>
<g id="a_node6"><a xlink:href="../../d9/d44/TestTShip_8cpp.html#a12a675aa5d505a1220d9a54ff917a8a2" target="_top" xlink:title=" ">
<polygon fill="white" stroke="#666666" points="319.5,-19 278.5,-19 278.5,0 319.5,0 319.5,-19"/>
<text text-anchor="middle" x="299" y="-7" font-family="Helvetica,sans-Serif" font-size="10.00">TEST</text>
</a>
</g>
</g>
<!-- Node1&#45;&gt;Node6 -->
<g id="edge5" class="edge">
<title>Node1&#45;&gt;Node6</title>
<path fill="none" stroke="#63b8ff" d="M370.42,-20.2C352.62,-17.49 333.44,-14.58 319.59,-12.48"/>
<polygon fill="#63b8ff" stroke="#63b8ff" points="370.27,-23.71 380.68,-21.76 371.32,-16.79 370.27,-23.71"/>
</g>
<!-- Node3 -->
<g id="node3" class="node">
<title>Node3</title>
<g id="a_node3"><a xlink:href="../../dc/de8/classTShop.html#a1dcf7617180c288121288af2ed21909b" target="_top" xlink:title=" ">
<polygon fill="white" stroke="#666666" points="217,-74 113,-74 113,-55 217,-55 217,-74"/>
<text text-anchor="middle" x="165" y="-62" font-family="Helvetica,sans-Serif" font-size="10.00">TShop::MainMenu</text>
</a>
</g>
</g>
<!-- Node2&#45;&gt;Node3 -->
<g id="edge2" class="edge">
<title>Node2&#45;&gt;Node3</title>
<path fill="none" stroke="#63b8ff" d="M242.77,-54.03C234.3,-55.19 225.59,-56.37 217.21,-57.52"/>
<polygon fill="#63b8ff" stroke="#63b8ff" points="243.51,-57.46 252.94,-52.64 242.56,-50.53 243.51,-57.46"/>
</g>
<!-- Node5 -->
<g id="node5" class="node">
<title>Node5</title>
<g id="a_node5"><a xlink:href="../../d6/de3/TestTShop_8cpp.html#a5562ee70e33ebf86ef84ec90cc4a005b" target="_top" xlink:title=" ">
<polygon fill="white" stroke="#666666" points="185.5,-37 144.5,-37 144.5,-18 185.5,-18 185.5,-37"/>
<text text-anchor="middle" x="165" y="-25" font-family="Helvetica,sans-Serif" font-size="10.00">TEST</text>
</a>
</g>
</g>
<!-- Node2&#45;&gt;Node5 -->
<g id="edge4" class="edge">
<title>Node2&#45;&gt;Node5</title>
<path fill="none" stroke="#63b8ff" d="M242.84,-38.56C222.59,-35.65 200.94,-32.53 185.8,-30.35"/>
<polygon fill="#63b8ff" stroke="#63b8ff" points="242.55,-42.05 252.94,-40.01 243.54,-35.13 242.55,-42.05"/>
</g>
<!-- Node4 -->
<g id="node4" class="node">
<title>Node4</title>
<g id="a_node4"><a xlink:href="../../dc/de8/classTShop.html#a789d5e786476555b588aece81642f6f9" target="_top" xlink:title=" ">
<polygon fill="white" stroke="#666666" points="77,-74 0,-74 0,-55 77,-55 77,-74"/>
<text text-anchor="middle" x="38.5" y="-62" font-family="Helvetica,sans-Serif" font-size="10.00">TShop::Shop</text>
</a>
</g>
</g>
<!-- Node3&#45;&gt;Node4 -->
<g id="edge3" class="edge">
<title>Node3&#45;&gt;Node4</title>
<path fill="none" stroke="#63b8ff" d="M102.49,-64.5C93.8,-64.5 85.1,-64.5 77.05,-64.5"/>
<polygon fill="#63b8ff" stroke="#63b8ff" points="102.64,-68 112.64,-64.5 102.64,-61 102.64,-68"/>
</g>
</g>
</svg>
