<?xml version="1.0" encoding="UTF-8" standalone="no"?>
<!DOCTYPE svg PUBLIC "-//W3C//DTD SVG 1.1//EN"
 "http://www.w3.org/Graphics/SVG/1.1/DTD/svg11.dtd">
<!-- Generated by graphviz version 2.43.0 (0)
 -->
<!-- Title: TShip::BeDamaged Pages: 1 -->
<svg width="347pt" height="64pt"
 viewBox="0.00 0.00 347.00 64.00" xmlns="http://www.w3.org/2000/svg" xmlns:xlink="http://www.w3.org/1999/xlink">
<g id="graph0" class="graph" transform="scale(1 1) rotate(0) translate(4 60)">
<title>TShip::BeDamaged</title>
<!-- Node1 -->
<g id="node1" class="node">
<title>Node1</title>
<g id="a_node1"><a xlink:title=" ">
<polygon fill="#999999" stroke="#666666" points="339,-37 229,-37 229,-18 339,-18 339,-37"/>
<text text-anchor="middle" x="284" y="-25" font-family="Helvetica,sans-Serif" font-size="10.00">TShip::BeDamaged</text>
</a>
</g>
</g>
<!-- Node2 -->
<g id="node2" class="node">
<title>Node2</title>
<g id="a_node2"><a xlink:href="../../db/df3/classTWarShip.html#a56e43d63b1ccd69ea277306ca0e2522c" target="_top" xlink:title=" ">
<polygon fill="white" stroke="#666666" points="193,-56 77,-56 77,-37 193,-37 193,-56"/>
<text text-anchor="middle" x="135" y="-44" font-family="Helvetica,sans-Serif" font-size="10.00">TWarShip::MakeShot</text>
</a>
</g>
</g>
<!-- Node1&#45;&gt;Node2 -->
<g id="edge1" class="edge">
<title>Node1&#45;&gt;Node2</title>
<path fill="none" stroke="#63b8ff" d="M218.75,-35.8C210.19,-36.91 201.47,-38.04 193.05,-39.13"/>
<polygon fill="#63b8ff" stroke="#63b8ff" points="219.21,-39.27 228.68,-34.52 218.31,-32.33 219.21,-39.27"/>
</g>
<!-- Node4 -->
<g id="node4" class="node">
<title>Node4</title>
<g id="a_node4"><a xlink:href="../../d9/d44/TestTShip_8cpp.html#a242c851230a8f57dc3ef6a24782aa616" target="_top" xlink:title=" ">
<polygon fill="white" stroke="#666666" points="155.5,-19 114.5,-19 114.5,0 155.5,0 155.5,-19"/>
<text text-anchor="middle" x="135" y="-7" font-family="Helvetica,sans-Serif" font-size="10.00">TEST</text>
</a>
</g>
</g>
<!-- Node1&#45;&gt;Node4 -->
<g id="edge3" class="edge">
<title>Node1&#45;&gt;Node4</title>
<path fill="none" stroke="#63b8ff" d="M218.68,-19.62C195.9,-16.83 171.93,-13.9 155.7,-11.91"/>
<polygon fill="#63b8ff" stroke="#63b8ff" points="218.33,-23.11 228.68,-20.85 219.18,-16.16 218.33,-23.11"/>
</g>
<!-- Node3 -->
<g id="node3" class="node">
<title>Node3</title>
<g id="a_node3"><a xlink:href="../../d2/d56/TestTWarShip_8cpp.html#a357f365cdcd788ac244722a144ecd078" target="_top" xlink:title=" ">
<polygon fill="white" stroke="#666666" points="41,-56 0,-56 0,-37 41,-37 41,-56"/>
<text text-anchor="middle" x="20.5" y="-44" font-family="Helvetica,sans-Serif" font-size="10.00">TEST</text>
</a>
</g>
</g>
<!-- Node2&#45;&gt;Node3 -->
<g id="edge2" class="edge">
<title>Node2&#45;&gt;Node3</title>
<path fill="none" stroke="#63b8ff" d="M66.62,-46.5C57.37,-46.5 48.55,-46.5 41.19,-46.5"/>
<polygon fill="#63b8ff" stroke="#63b8ff" points="66.76,-50 76.76,-46.5 66.76,-43 66.76,-50"/>
</g>
</g>
</svg>
