<?xml version="1.0" encoding="UTF-8" standalone="no"?>
<!DOCTYPE svg PUBLIC "-//W3C//DTD SVG 1.1//EN"
 "http://www.w3.org/Graphics/SVG/1.1/DTD/svg11.dtd">
<!-- Generated by graphviz version 2.43.0 (0)
 -->
<!-- Title: TShip::SetShipName Pages: 1 -->
<svg width="309pt" height="76pt"
 viewBox="0.00 0.00 309.00 75.50" xmlns="http://www.w3.org/2000/svg" xmlns:xlink="http://www.w3.org/1999/xlink">
<g id="graph0" class="graph" transform="scale(1 1) rotate(0) translate(4 71.5)">
<title>TShip::SetShipName</title>
<!-- Node1 -->
<g id="node1" class="node">
<title>Node1</title>
<g id="a_node1"><a xlink:title=" ">
<polygon fill="#999999" stroke="#666666" points="301,-45.5 185,-45.5 185,-26.5 301,-26.5 301,-45.5"/>
<text text-anchor="middle" x="243" y="-33.5" font-family="Helvetica,sans-Serif" font-size="10.00">TShip::SetShipName</text>
</a>
</g>
</g>
<!-- Node2 -->
<g id="node2" class="node">
<title>Node2</title>
<g id="a_node2"><a xlink:href="../../d9/d44/TestTShip_8cpp.html#ac7a4e8261c84fcb99cb33d8cea2f716a" target="_top" xlink:title=" ">
<polygon fill="white" stroke="#666666" points="95,-67.5 54,-67.5 54,-48.5 95,-48.5 95,-67.5"/>
<text text-anchor="middle" x="74.5" y="-55.5" font-family="Helvetica,sans-Serif" font-size="10.00">TEST</text>
</a>
</g>
</g>
<!-- Node1&#45;&gt;Node2 -->
<g id="edge1" class="edge">
<title>Node1&#45;&gt;Node2</title>
<path fill="none" stroke="#63b8ff" d="M174.72,-44.89C146.14,-48.67 114.95,-52.79 95.32,-55.38"/>
<polygon fill="#63b8ff" stroke="#63b8ff" points="175.24,-48.35 184.7,-43.57 174.33,-41.41 175.24,-48.35"/>
</g>
<!-- Node3 -->
<g id="node3" class="node">
<title>Node3</title>
<g id="a_node3"><a xlink:href="../../d2/da3/classTSpawnDescriptor.html#a2819fa3e489c466b145b37cb0b144c18" target="_top" xlink:title=" ">
<polygon fill="white" stroke="#666666" points="149,-30 0,-30 0,0 149,0 149,-30"/>
<text text-anchor="start" x="8" y="-18" font-family="Helvetica,sans-Serif" font-size="10.00">TSpawnDescriptor::TSpawn</text>
<text text-anchor="middle" x="74.5" y="-7" font-family="Helvetica,sans-Serif" font-size="10.00">Descriptor</text>
</a>
</g>
</g>
<!-- Node1&#45;&gt;Node3 -->
<g id="edge2" class="edge">
<title>Node1&#45;&gt;Node3</title>
<path fill="none" stroke="#63b8ff" d="M174.59,-27.5C166.19,-26.44 157.57,-25.35 149.08,-24.28"/>
<polygon fill="#63b8ff" stroke="#63b8ff" points="174.34,-30.99 184.7,-28.77 175.22,-24.05 174.34,-30.99"/>
</g>
</g>
</svg>
