<?xml version="1.0" encoding="UTF-8" standalone="no"?>
<!DOCTYPE svg PUBLIC "-//W3C//DTD SVG 1.1//EN"
 "http://www.w3.org/Graphics/SVG/1.1/DTD/svg11.dtd">
<!-- Generated by graphviz version 2.43.0 (0)
 -->
<!-- Title: ships/code/TCargoShip.cpp Pages: 1 -->
<svg width="438pt" height="258pt"
 viewBox="0.00 0.00 437.50 258.00" xmlns="http://www.w3.org/2000/svg" xmlns:xlink="http://www.w3.org/1999/xlink">
<g id="graph0" class="graph" transform="scale(1 1) rotate(0) translate(4 254)">
<title>ships/code/TCargoShip.cpp</title>
<!-- Node1 -->
<g id="node1" class="node">
<title>Node1</title>
<g id="a_node1"><a xlink:title=" ">
<polygon fill="#999999" stroke="#666666" points="168.5,-250 22.5,-250 22.5,-231 168.5,-231 168.5,-250"/>
<text text-anchor="middle" x="95.5" y="-238" font-family="Helvetica,sans-Serif" font-size="10.00">ships/code/TCargoShip.cpp</text>
</a>
</g>
</g>
<!-- Node2 -->
<g id="node2" class="node">
<title>Node2</title>
<g id="a_node2"><a xlink:title=" ">
<polygon fill="#e0e0e0" stroke="#999999" points="47,-195 0,-195 0,-176 47,-176 47,-195"/>
<text text-anchor="middle" x="23.5" y="-183" font-family="Helvetica,sans-Serif" font-size="10.00">cmath</text>
</a>
</g>
</g>
<!-- Node1&#45;&gt;Node2 -->
<g id="edge1" class="edge">
<title>Node1&#45;&gt;Node2</title>
<path fill="none" stroke="#63b8ff" d="M83.93,-230.98C73.08,-223 56.62,-210.88 43.62,-201.31"/>
<polygon fill="#63b8ff" stroke="#63b8ff" points="45.41,-198.28 35.28,-195.17 41.26,-203.92 45.41,-198.28"/>
</g>
<!-- Node3 -->
<g id="node3" class="node">
<title>Node3</title>
<g id="a_node3"><a xlink:title=" ">
<polygon fill="#e0e0e0" stroke="#999999" points="125.5,-195 65.5,-195 65.5,-176 125.5,-176 125.5,-195"/>
<text text-anchor="middle" x="95.5" y="-183" font-family="Helvetica,sans-Serif" font-size="10.00">iostream</text>
</a>
</g>
</g>
<!-- Node1&#45;&gt;Node3 -->
<g id="edge2" class="edge">
<title>Node1&#45;&gt;Node3</title>
<path fill="none" stroke="#63b8ff" d="M95.5,-230.75C95.5,-223.8 95.5,-213.85 95.5,-205.13"/>
<polygon fill="#63b8ff" stroke="#63b8ff" points="99,-205.09 95.5,-195.09 92,-205.09 99,-205.09"/>
</g>
<!-- Node4 -->
<g id="node4" class="node">
<title>Node4</title>
<g id="a_node4"><a xlink:href="../../d3/d7f/TCargoShip_8h.html" target="_top" xlink:title=" ">
<polygon fill="white" stroke="#666666" points="223.5,-195 143.5,-195 143.5,-176 223.5,-176 223.5,-195"/>
<text text-anchor="middle" x="183.5" y="-183" font-family="Helvetica,sans-Serif" font-size="10.00">TCargoShip.h</text>
</a>
</g>
</g>
<!-- Node1&#45;&gt;Node4 -->
<g id="edge3" class="edge">
<title>Node1&#45;&gt;Node4</title>
<path fill="none" stroke="#63b8ff" d="M109.64,-230.98C123.29,-222.77 144.19,-210.18 160.28,-200.49"/>
<polygon fill="#63b8ff" stroke="#63b8ff" points="162.34,-203.33 169.1,-195.17 158.73,-197.33 162.34,-203.33"/>
</g>
<!-- Node5 -->
<g id="node5" class="node">
<title>Node5</title>
<g id="a_node5"><a xlink:href="../../d0/d93/TShip_8h.html" target="_top" xlink:title=" ">
<polygon fill="white" stroke="#666666" points="210,-140 157,-140 157,-121 210,-121 210,-140"/>
<text text-anchor="middle" x="183.5" y="-128" font-family="Helvetica,sans-Serif" font-size="10.00">TShip.h</text>
</a>
</g>
</g>
<!-- Node4&#45;&gt;Node5 -->
<g id="edge4" class="edge">
<title>Node4&#45;&gt;Node5</title>
<path fill="none" stroke="#63b8ff" d="M183.5,-175.75C183.5,-168.8 183.5,-158.85 183.5,-150.13"/>
<polygon fill="#63b8ff" stroke="#63b8ff" points="187,-150.09 183.5,-140.09 180,-150.09 187,-150.09"/>
</g>
<!-- Node6 -->
<g id="node6" class="node">
<title>Node6</title>
<g id="a_node6"><a xlink:title=" ">
<polygon fill="#e0e0e0" stroke="#999999" points="177.5,-19 133.5,-19 133.5,0 177.5,0 177.5,-19"/>
<text text-anchor="middle" x="155.5" y="-7" font-family="Helvetica,sans-Serif" font-size="10.00">string</text>
</a>
</g>
</g>
<!-- Node5&#45;&gt;Node6 -->
<g id="edge5" class="edge">
<title>Node5&#45;&gt;Node6</title>
<path fill="none" stroke="#63b8ff" d="M156.68,-123C137.34,-116.76 112.59,-105.2 100.5,-85 93.65,-73.56 94.76,-67.03 100.5,-55 106.59,-42.23 118.34,-31.94 129.42,-24.49"/>
<polygon fill="#63b8ff" stroke="#63b8ff" points="131.4,-27.38 138.04,-19.12 127.7,-21.43 131.4,-27.38"/>
</g>
<!-- Node7 -->
<g id="node7" class="node">
<title>Node7</title>
<g id="a_node7"><a xlink:title=" ">
<polygon fill="#e0e0e0" stroke="#999999" points="167.5,-79.5 109.5,-79.5 109.5,-60.5 167.5,-60.5 167.5,-79.5"/>
<text text-anchor="middle" x="138.5" y="-67.5" font-family="Helvetica,sans-Serif" font-size="10.00">memory</text>
</a>
</g>
</g>
<!-- Node5&#45;&gt;Node7 -->
<g id="edge6" class="edge">
<title>Node5&#45;&gt;Node7</title>
<path fill="none" stroke="#63b8ff" d="M176.86,-120.87C170.21,-112.23 159.81,-98.7 151.51,-87.92"/>
<polygon fill="#63b8ff" stroke="#63b8ff" points="154.04,-85.46 145.17,-79.67 148.49,-89.73 154.04,-85.46"/>
</g>
<!-- Node8 -->
<g id="node8" class="node">
<title>Node8</title>
<g id="a_node8"><a xlink:href="../../de/da2/TCapitanInfo_8h.html" target="_top" xlink:title=" ">
<polygon fill="white" stroke="#666666" points="273,-79.5 186,-79.5 186,-60.5 273,-60.5 273,-79.5"/>
<text text-anchor="middle" x="229.5" y="-67.5" font-family="Helvetica,sans-Serif" font-size="10.00">TCapitanInfo.h</text>
</a>
</g>
</g>
<!-- Node5&#45;&gt;Node8 -->
<g id="edge7" class="edge">
<title>Node5&#45;&gt;Node8</title>
<path fill="none" stroke="#63b8ff" d="M190.29,-120.87C197.15,-112.14 207.93,-98.43 216.45,-87.59"/>
<polygon fill="#63b8ff" stroke="#63b8ff" points="219.25,-89.69 222.68,-79.67 213.75,-85.36 219.25,-89.69"/>
</g>
<!-- Node9 -->
<g id="node9" class="node">
<title>Node9</title>
<g id="a_node9"><a xlink:href="../../dc/d06/TObjectOnMap_8h.html" target="_top" xlink:title=" ">
<polygon fill="white" stroke="#666666" points="429.5,-85 291.5,-85 291.5,-55 429.5,-55 429.5,-85"/>
<text text-anchor="start" x="299.5" y="-73" font-family="Helvetica,sans-Serif" font-size="10.00">../../base/code/TObjectOn</text>
<text text-anchor="middle" x="360.5" y="-62" font-family="Helvetica,sans-Serif" font-size="10.00">Map.h</text>
</a>
</g>
</g>
<!-- Node5&#45;&gt;Node9 -->
<g id="edge9" class="edge">
<title>Node5&#45;&gt;Node9</title>
<path fill="none" stroke="#63b8ff" d="M209.24,-120.99C235.04,-112.46 275.52,-99.09 308.11,-88.32"/>
<polygon fill="#63b8ff" stroke="#63b8ff" points="309.55,-91.53 317.95,-85.06 307.35,-84.88 309.55,-91.53"/>
</g>
<!-- Node8&#45;&gt;Node6 -->
<g id="edge8" class="edge">
<title>Node8&#45;&gt;Node6</title>
<path fill="none" stroke="#63b8ff" d="M218.58,-60.37C206.99,-51.21 188.47,-36.56 174.48,-25.51"/>
<polygon fill="#63b8ff" stroke="#63b8ff" points="176.48,-22.62 166.46,-19.17 172.14,-28.11 176.48,-22.62"/>
</g>
</g>
</svg>
