<?xml version="1.0" encoding="UTF-8" standalone="no"?>
<!DOCTYPE svg PUBLIC "-//W3C//DTD SVG 1.1//EN"
 "http://www.w3.org/Graphics/SVG/1.1/DTD/svg11.dtd">
<!-- Generated by graphviz version 2.43.0 (0)
 -->
<!-- Title: TEST Pages: 1 -->
<svg width="266pt" height="101pt"
 viewBox="0.00 0.00 266.00 101.00" xmlns="http://www.w3.org/2000/svg" xmlns:xlink="http://www.w3.org/1999/xlink">
<g id="graph0" class="graph" transform="scale(1 1) rotate(0) translate(4 97)">
<title>TEST</title>
<!-- Node1 -->
<g id="node1" class="node">
<title>Node1</title>
<g id="a_node1"><a xlink:title=" ">
<polygon fill="#999999" stroke="#666666" points="41,-56 0,-56 0,-37 41,-37 41,-56"/>
<text text-anchor="middle" x="20.5" y="-44" font-family="Helvetica,sans-Serif" font-size="10.00">TEST</text>
</a>
</g>
</g>
<!-- Node2 -->
<g id="node2" class="node">
<title>Node2</title>
<g id="a_node2"><a xlink:href="../../de/d4e/classTPirateBase.html#a27d8aa45f05db2b4e97b3ae9563dbde5" target="_top" xlink:title=" ">
<polygon fill="white" stroke="#666666" points="258,-93 77,-93 77,-74 258,-74 258,-93"/>
<text text-anchor="middle" x="167.5" y="-81" font-family="Helvetica,sans-Serif" font-size="10.00">TPirateBase::GetSpawnDescriptor</text>
</a>
</g>
</g>
<!-- Node1&#45;&gt;Node2 -->
<g id="edge1" class="edge">
<title>Node1&#45;&gt;Node2</title>
<path fill="none" stroke="#63b8ff" d="M41.08,-53.91C51.62,-57.72 64.91,-62.23 77,-65.5 85.45,-67.79 94.42,-69.92 103.29,-71.87"/>
<polygon fill="#63b8ff" stroke="#63b8ff" points="102.72,-75.33 113.23,-73.98 104.17,-68.48 102.72,-75.33"/>
</g>
<!-- Node3 -->
<g id="node3" class="node">
<title>Node3</title>
<g id="a_node3"><a xlink:href="../../d7/d96/TestTPirateBase_8cpp.html#a93785f1846e55fd76f966f49a790e128" target="_top" xlink:title=" ">
<polygon fill="white" stroke="#666666" points="225,-56 110,-56 110,-37 225,-37 225,-56"/>
<text text-anchor="middle" x="167.5" y="-44" font-family="Helvetica,sans-Serif" font-size="10.00">makeWeaponHolder</text>
</a>
</g>
</g>
<!-- Node1&#45;&gt;Node3 -->
<g id="edge2" class="edge">
<title>Node1&#45;&gt;Node3</title>
<path fill="none" stroke="#63b8ff" d="M41.06,-46.5C56.27,-46.5 78.33,-46.5 99.71,-46.5"/>
<polygon fill="#63b8ff" stroke="#63b8ff" points="99.8,-50 109.8,-46.5 99.8,-43 99.8,-50"/>
</g>
<!-- Node4 -->
<g id="node4" class="node">
<title>Node4</title>
<g id="a_node4"><a xlink:href="../../de/d4e/classTPirateBase.html#af2523cae990dbaa3fd545743d7c3f54c" target="_top" xlink:title=" ">
<polygon fill="white" stroke="#666666" points="257,-19 78,-19 78,0 257,0 257,-19"/>
<text text-anchor="middle" x="167.5" y="-7" font-family="Helvetica,sans-Serif" font-size="10.00">TPirateBase::SetSpawnDescriptor</text>
</a>
</g>
</g>
<!-- Node1&#45;&gt;Node4 -->
<g id="edge3" class="edge">
<title>Node1&#45;&gt;Node4</title>
<path fill="none" stroke="#63b8ff" d="M41.13,-39.58C51.68,-36 64.96,-31.72 77,-28.5 86.67,-25.91 97,-23.45 107.08,-21.2"/>
<polygon fill="#63b8ff" stroke="#63b8ff" points="108.01,-24.58 117.04,-19.04 106.52,-17.74 108.01,-24.58"/>
</g>
</g>
</svg>
