<?xml version="1.0" encoding="UTF-8" standalone="no"?>
<!DOCTYPE svg PUBLIC "-//W3C//DTD SVG 1.1//EN"
 "http://www.w3.org/Graphics/SVG/1.1/DTD/svg11.dtd">
<!-- Generated by graphviz version 2.43.0 (0)
 -->
<!-- Title: TEST Pages: 1 -->
<svg width="237pt" height="508pt"
 viewBox="0.00 0.00 237.00 508.00" xmlns="http://www.w3.org/2000/svg" xmlns:xlink="http://www.w3.org/1999/xlink">
<g id="graph0" class="graph" transform="scale(1 1) rotate(0) translate(4 504)">
<title>TEST</title>
<!-- Node1 -->
<g id="node1" class="node">
<title>Node1</title>
<g id="a_node1"><a xlink:title=" ">
<polygon fill="#999999" stroke="#666666" points="41,-259 0,-259 0,-240 41,-240 41,-259"/>
<text text-anchor="middle" x="20.5" y="-247" font-family="Helvetica,sans-Serif" font-size="10.00">TEST</text>
</a>
</g>
</g>
<!-- Node2 -->
<g id="node2" class="node">
<title>Node2</title>
<g id="a_node2"><a xlink:href="../../d0/dc5/classTCargoWarShip.html#ae906a869c5cd8ffae728b0e1e6716207" target="_top" xlink:title=" ">
<polygon fill="white" stroke="#666666" points="215,-500 91,-500 91,-481 215,-481 215,-500"/>
<text text-anchor="middle" x="153" y="-488" font-family="Helvetica,sans-Serif" font-size="10.00">TCargoWarShip::Clone</text>
</a>
</g>
</g>
<!-- Node1&#45;&gt;Node2 -->
<g id="edge1" class="edge">
<title>Node1&#45;&gt;Node2</title>
<path fill="none" stroke="#63b8ff" d="M22.57,-259.12C27.08,-297.82 45.7,-441.46 77,-472.5 78.62,-474.11 80.36,-475.58 82.19,-476.93"/>
<polygon fill="#63b8ff" stroke="#63b8ff" points="80.39,-479.93 90.77,-482.1 84.01,-473.94 80.39,-479.93"/>
</g>
<!-- Node3 -->
<g id="node3" class="node">
<title>Node3</title>
<g id="a_node3"><a xlink:href="../../d1/d07/classTShip.html#aa9ede65f6d5b238b077438769bee3132" target="_top" xlink:title=" ">
<polygon fill="white" stroke="#666666" points="214.5,-463 91.5,-463 91.5,-444 214.5,-444 214.5,-463"/>
<text text-anchor="middle" x="153" y="-451" font-family="Helvetica,sans-Serif" font-size="10.00">TShip::GetCapitanInfo</text>
</a>
</g>
</g>
<!-- Node1&#45;&gt;Node3 -->
<g id="edge2" class="edge">
<title>Node1&#45;&gt;Node3</title>
<path fill="none" stroke="#63b8ff" d="M21.26,-259.3C21.07,-290.16 24.88,-386.15 77,-435.5 78.7,-437.11 80.51,-438.58 82.42,-439.93"/>
<polygon fill="#63b8ff" stroke="#63b8ff" points="80.91,-443.1 91.32,-445.08 84.42,-437.04 80.91,-443.1"/>
</g>
<!-- Node4 -->
<g id="node4" class="node">
<title>Node4</title>
<g id="a_node4"><a xlink:href="../../d1/d07/classTShip.html#ab9eb49417d6be99d181e74a9327d9136" target="_top" xlink:title=" ">
<polygon fill="white" stroke="#666666" points="197.5,-426 108.5,-426 108.5,-407 197.5,-407 197.5,-426"/>
<text text-anchor="middle" x="153" y="-414" font-family="Helvetica,sans-Serif" font-size="10.00">TShip::GetCost</text>
</a>
</g>
</g>
<!-- Node1&#45;&gt;Node4 -->
<g id="edge3" class="edge">
<title>Node1&#45;&gt;Node4</title>
<path fill="none" stroke="#63b8ff" d="M22.09,-259.24C24.24,-285.86 34.02,-360.43 77,-398.5 83.13,-403.93 90.61,-407.79 98.44,-410.53"/>
<polygon fill="#63b8ff" stroke="#63b8ff" points="97.53,-413.9 108.11,-413.33 99.48,-407.18 97.53,-413.9"/>
</g>
<!-- Node5 -->
<g id="node5" class="node">
<title>Node5</title>
<g id="a_node5"><a xlink:href="../../db/df3/classTWarShip.html#a6498ce65a99aba4649774151442b3637" target="_top" xlink:title=" ">
<polygon fill="white" stroke="#666666" points="212,-389 94,-389 94,-370 212,-370 212,-389"/>
<text text-anchor="middle" x="153" y="-377" font-family="Helvetica,sans-Serif" font-size="10.00">TWarShip::GetHolder</text>
</a>
</g>
</g>
<!-- Node1&#45;&gt;Node5 -->
<g id="edge4" class="edge">
<title>Node1&#45;&gt;Node5</title>
<path fill="none" stroke="#63b8ff" d="M23.36,-259.02C28.13,-280.77 42.9,-334.31 77,-361.5 79.43,-363.44 82.04,-365.18 84.78,-366.73"/>
<polygon fill="#63b8ff" stroke="#63b8ff" points="83.34,-369.92 93.87,-371.1 86.37,-363.61 83.34,-369.92"/>
</g>
<!-- Node6 -->
<g id="node6" class="node">
<title>Node6</title>
<g id="a_node6"><a xlink:href="../../d1/d07/classTShip.html#a4a57aac91bcd0b7ac413b30d228162cb" target="_top" xlink:title=" ">
<polygon fill="white" stroke="#666666" points="204,-352 102,-352 102,-333 204,-333 204,-352"/>
<text text-anchor="middle" x="153" y="-340" font-family="Helvetica,sans-Serif" font-size="10.00">TShip::GetHPNow</text>
</a>
</g>
</g>
<!-- Node1&#45;&gt;Node6 -->
<g id="edge5" class="edge">
<title>Node1&#45;&gt;Node6</title>
<path fill="none" stroke="#63b8ff" d="M25.79,-259.01C33.58,-275.12 51.61,-307.69 77,-324.5 81.68,-327.59 86.83,-330.16 92.18,-332.28"/>
<polygon fill="#63b8ff" stroke="#63b8ff" points="91.36,-335.7 101.96,-335.65 93.64,-329.08 91.36,-335.7"/>
</g>
<!-- Node7 -->
<g id="node7" class="node">
<title>Node7</title>
<g id="a_node7"><a xlink:href="../../d1/d07/classTShip.html#a0bec10d9d6f98500e99821ffab20e9d3" target="_top" xlink:title=" ">
<polygon fill="white" stroke="#666666" points="205,-315 101,-315 101,-296 205,-296 205,-315"/>
<text text-anchor="middle" x="153" y="-303" font-family="Helvetica,sans-Serif" font-size="10.00">TShip::GetHPTotal</text>
</a>
</g>
</g>
<!-- Node1&#45;&gt;Node7 -->
<g id="edge6" class="edge">
<title>Node1&#45;&gt;Node7</title>
<path fill="none" stroke="#63b8ff" d="M33.08,-259.31C43.82,-267.93 60.56,-280.2 77,-287.5 81.62,-289.55 86.52,-291.39 91.5,-293.04"/>
<polygon fill="#63b8ff" stroke="#63b8ff" points="90.55,-296.41 101.14,-295.96 92.59,-289.71 90.55,-296.41"/>
</g>
<!-- Node8 -->
<g id="node8" class="node">
<title>Node8</title>
<g id="a_node8"><a xlink:href="../../d1/d07/classTShip.html#a6176faf62af1a95fef2440e119afb717" target="_top" xlink:title=" ">
<polygon fill="white" stroke="#666666" points="212,-278 94,-278 94,-259 212,-259 212,-278"/>
<text text-anchor="middle" x="153" y="-266" font-family="Helvetica,sans-Serif" font-size="10.00">TShip::GetMaxSpeed</text>
</a>
</g>
</g>
<!-- Node1&#45;&gt;Node8 -->
<g id="edge7" class="edge">
<title>Node1&#45;&gt;Node8</title>
<path fill="none" stroke="#63b8ff" d="M41.04,-252.34C52.59,-254.03 67.97,-256.27 83.6,-258.54"/>
<polygon fill="#63b8ff" stroke="#63b8ff" points="83.47,-262.06 93.87,-260.04 84.48,-255.13 83.47,-262.06"/>
</g>
<!-- Node9 -->
<g id="node9" class="node">
<title>Node9</title>
<g id="a_node9"><a xlink:href="../../d1/d07/classTShip.html#a17546c8543198bd7a937c2b025c6d5e9" target="_top" xlink:title=" ">
<polygon fill="white" stroke="#666666" points="212.5,-241 93.5,-241 93.5,-222 212.5,-222 212.5,-241"/>
<text text-anchor="middle" x="153" y="-229" font-family="Helvetica,sans-Serif" font-size="10.00">TShip::GetNowSpeed</text>
</a>
</g>
</g>
<!-- Node1&#45;&gt;Node9 -->
<g id="edge8" class="edge">
<title>Node1&#45;&gt;Node9</title>
<path fill="none" stroke="#63b8ff" d="M41.04,-246.81C52.47,-245.23 67.66,-243.13 83.13,-241"/>
<polygon fill="#63b8ff" stroke="#63b8ff" points="83.87,-244.43 93.3,-239.6 82.91,-237.5 83.87,-244.43"/>
</g>
<!-- Node10 -->
<g id="node10" class="node">
<title>Node10</title>
<g id="a_node10"><a xlink:href="../../d1/d07/classTShip.html#acce1d32955675a0258d5c78bd323f7cc" target="_top" xlink:title=" ">
<polygon fill="white" stroke="#666666" points="211.5,-204 94.5,-204 94.5,-185 211.5,-185 211.5,-204"/>
<text text-anchor="middle" x="153" y="-192" font-family="Helvetica,sans-Serif" font-size="10.00">TShip::GetShipName</text>
</a>
</g>
</g>
<!-- Node1&#45;&gt;Node10 -->
<g id="edge9" class="edge">
<title>Node1&#45;&gt;Node10</title>
<path fill="none" stroke="#63b8ff" d="M33.62,-239.96C44.44,-231.87 61,-220.49 77,-213.5 82.65,-211.03 88.69,-208.84 94.8,-206.9"/>
<polygon fill="#63b8ff" stroke="#63b8ff" points="95.81,-210.25 104.4,-204.06 93.82,-203.54 95.81,-210.25"/>
</g>
<!-- Node11 -->
<g id="node11" class="node">
<title>Node11</title>
<g id="a_node11"><a xlink:href="../../d1/d07/classTShip.html#afa32e3f3b93a2749de2734914896bdbc" target="_top" xlink:title=" ">
<polygon fill="white" stroke="#666666" points="208,-167 98,-167 98,-148 208,-148 208,-167"/>
<text text-anchor="middle" x="153" y="-155" font-family="Helvetica,sans-Serif" font-size="10.00">TShip::GetShipType</text>
</a>
</g>
</g>
<!-- Node1&#45;&gt;Node11 -->
<g id="edge10" class="edge">
<title>Node1&#45;&gt;Node11</title>
<path fill="none" stroke="#63b8ff" d="M26.14,-239.78C34.2,-223.97 52.3,-192.84 77,-176.5 80.53,-174.17 84.32,-172.12 88.27,-170.32"/>
<polygon fill="#63b8ff" stroke="#63b8ff" points="89.69,-173.52 97.68,-166.57 87.1,-167.02 89.69,-173.52"/>
</g>
<!-- Node12 -->
<g id="node12" class="node">
<title>Node12</title>
<g id="a_node12"><a xlink:href="../../d3/d81/classTCargoShip.html#a28ddc9fa25ff3cccaeddd385f5003cc1" target="_top" xlink:title=" ">
<polygon fill="white" stroke="#666666" points="215.5,-130 90.5,-130 90.5,-111 215.5,-111 215.5,-130"/>
<text text-anchor="middle" x="153" y="-118" font-family="Helvetica,sans-Serif" font-size="10.00">TCargoShip::GetSlowK</text>
</a>
</g>
</g>
<!-- Node1&#45;&gt;Node12 -->
<g id="edge11" class="edge">
<title>Node1&#45;&gt;Node12</title>
<path fill="none" stroke="#63b8ff" d="M23.51,-239.85C28.52,-218.35 43.62,-166.26 77,-139.5 79.18,-137.75 81.51,-136.16 83.94,-134.71"/>
<polygon fill="#63b8ff" stroke="#63b8ff" points="85.77,-137.71 93.13,-130.08 82.62,-131.45 85.77,-137.71"/>
</g>
<!-- Node13 -->
<g id="node13" class="node">
<title>Node13</title>
<g id="a_node13"><a xlink:href="../../d3/d81/classTCargoShip.html#aac8aa5512f4e7ea9641f3a5812cc8722" target="_top" xlink:title=" ">
<polygon fill="white" stroke="#666666" points="228,-93 78,-93 78,-74 228,-74 228,-93"/>
<text text-anchor="middle" x="153" y="-81" font-family="Helvetica,sans-Serif" font-size="10.00">TCargoShip::GetWeightNow</text>
</a>
</g>
</g>
<!-- Node1&#45;&gt;Node13 -->
<g id="edge12" class="edge">
<title>Node1&#45;&gt;Node13</title>
<path fill="none" stroke="#63b8ff" d="M22.16,-239.92C24.49,-213.72 34.68,-140.29 77,-102.5 78.75,-100.94 80.61,-99.5 82.56,-98.18"/>
<polygon fill="#63b8ff" stroke="#63b8ff" points="84.6,-101.05 91.58,-93.08 81.16,-94.95 84.6,-101.05"/>
</g>
<!-- Node14 -->
<g id="node14" class="node">
<title>Node14</title>
<g id="a_node14"><a xlink:href="../../d3/d81/classTCargoShip.html#af864094175baefdf2e6f8c88a53ad716" target="_top" xlink:title=" ">
<polygon fill="white" stroke="#666666" points="229,-56 77,-56 77,-37 229,-37 229,-56"/>
<text text-anchor="middle" x="153" y="-44" font-family="Helvetica,sans-Serif" font-size="10.00">TCargoShip::GetWeightTotal</text>
</a>
</g>
</g>
<!-- Node1&#45;&gt;Node14 -->
<g id="edge13" class="edge">
<title>Node1&#45;&gt;Node14</title>
<path fill="none" stroke="#63b8ff" d="M21.32,-239.83C21.32,-209.38 25.63,-114.61 77,-65.5 78.49,-64.07 80.08,-62.75 81.74,-61.52"/>
<polygon fill="#63b8ff" stroke="#63b8ff" points="83.85,-64.33 90.58,-56.14 80.22,-58.35 83.85,-64.33"/>
</g>
<!-- Node15 -->
<g id="node15" class="node">
<title>Node15</title>
<g id="a_node15"><a xlink:href="../../d1/ddd/TestTCargoWarShip_8cpp.html#a93785f1846e55fd76f966f49a790e128" target="_top" xlink:title=" ">
<polygon fill="white" stroke="#666666" points="210.5,-19 95.5,-19 95.5,0 210.5,0 210.5,-19"/>
<text text-anchor="middle" x="153" y="-7" font-family="Helvetica,sans-Serif" font-size="10.00">makeWeaponHolder</text>
</a>
</g>
</g>
<!-- Node1&#45;&gt;Node15 -->
<g id="edge14" class="edge">
<title>Node1&#45;&gt;Node15</title>
<path fill="none" stroke="#63b8ff" d="M22.6,-239.97C27.2,-201.66 46.12,-59.44 77,-28.5 79.72,-25.77 82.78,-23.42 86.05,-21.39"/>
<polygon fill="#63b8ff" stroke="#63b8ff" points="87.86,-24.39 95.17,-16.73 84.68,-18.16 87.86,-24.39"/>
</g>
</g>
</svg>
